G04 #@! TF.FileFunction,Other,Fab,Top*
%FSLAX46Y46*%
G04 Gerber Fmt 4.6, Leading zero omitted, Abs format (unit mm)*
G04 Created by KiCad (PCBNEW 4.0.7-e2-6376~58~ubuntu14.04.1) date Sat Apr 21 17:00:56 2018*
%MOMM*%
%LPD*%
G01*
G04 APERTURE LIST*
%ADD10C,0.100000*%
%ADD11C,0.150000*%
G04 APERTURE END LIST*
D10*
X197750000Y-84365000D02*
X197750000Y-86270000D01*
X197750000Y-86270000D02*
X177430000Y-86270000D01*
X177430000Y-86270000D02*
X177430000Y-83730000D01*
X177430000Y-83730000D02*
X197115000Y-83730000D01*
X197115000Y-83730000D02*
X197750000Y-84365000D01*
X197410000Y-124705000D02*
X197410000Y-126610000D01*
X197410000Y-126610000D02*
X187250000Y-126610000D01*
X187250000Y-126610000D02*
X187250000Y-124070000D01*
X187250000Y-124070000D02*
X196775000Y-124070000D01*
X196775000Y-124070000D02*
X197410000Y-124705000D01*
X167084926Y-106076170D02*
X165435148Y-105123670D01*
X165435148Y-105123670D02*
X173055148Y-91925443D01*
X173055148Y-91925443D02*
X175254852Y-93195443D01*
X175254852Y-93195443D02*
X167952352Y-105843744D01*
X167952352Y-105843744D02*
X167084926Y-106076170D01*
X203705074Y-90867943D02*
X205354852Y-89915443D01*
X205354852Y-89915443D02*
X214244852Y-105313374D01*
X214244852Y-105313374D02*
X212045148Y-106583374D01*
X212045148Y-106583374D02*
X203472648Y-91735369D01*
X203472648Y-91735369D02*
X203705074Y-90867943D01*
X210185000Y-107950000D02*
X212090000Y-107950000D01*
X212090000Y-107950000D02*
X212090000Y-110490000D01*
X212090000Y-110490000D02*
X209550000Y-110490000D01*
X209550000Y-110490000D02*
X209550000Y-108585000D01*
X209550000Y-108585000D02*
X210185000Y-107950000D01*
X199390000Y-85565000D02*
X199390000Y-83660000D01*
X199390000Y-83660000D02*
X201930000Y-83660000D01*
X201930000Y-83660000D02*
X201930000Y-86200000D01*
X201930000Y-86200000D02*
X200025000Y-86200000D01*
X200025000Y-86200000D02*
X199390000Y-85565000D01*
X174625000Y-95250000D02*
X176530000Y-95250000D01*
X176530000Y-95250000D02*
X176530000Y-105410000D01*
X176530000Y-105410000D02*
X173990000Y-105410000D01*
X173990000Y-105410000D02*
X173990000Y-95885000D01*
X173990000Y-95885000D02*
X174625000Y-95250000D01*
X207645000Y-105410000D02*
X209550000Y-105410000D01*
X209550000Y-105410000D02*
X209550000Y-115570000D01*
X209550000Y-115570000D02*
X207010000Y-115570000D01*
X207010000Y-115570000D02*
X207010000Y-106045000D01*
X207010000Y-106045000D02*
X207645000Y-105410000D01*
X189865000Y-87630000D02*
X191770000Y-87630000D01*
X191770000Y-87630000D02*
X191770000Y-105410000D01*
X191770000Y-105410000D02*
X189230000Y-105410000D01*
X189230000Y-105410000D02*
X189230000Y-88265000D01*
X189230000Y-88265000D02*
X189865000Y-87630000D01*
X192405000Y-87630000D02*
X194310000Y-87630000D01*
X194310000Y-87630000D02*
X194310000Y-105410000D01*
X194310000Y-105410000D02*
X191770000Y-105410000D01*
X191770000Y-105410000D02*
X191770000Y-88265000D01*
X191770000Y-88265000D02*
X192405000Y-87630000D01*
X194945000Y-87630000D02*
X196850000Y-87630000D01*
X196850000Y-87630000D02*
X196850000Y-105410000D01*
X196850000Y-105410000D02*
X194310000Y-105410000D01*
X194310000Y-105410000D02*
X194310000Y-88265000D01*
X194310000Y-88265000D02*
X194945000Y-87630000D01*
X197485000Y-87630000D02*
X199390000Y-87630000D01*
X199390000Y-87630000D02*
X199390000Y-105410000D01*
X199390000Y-105410000D02*
X196850000Y-105410000D01*
X196850000Y-105410000D02*
X196850000Y-88265000D01*
X196850000Y-88265000D02*
X197485000Y-87630000D01*
X200025000Y-87630000D02*
X201930000Y-87630000D01*
X201930000Y-87630000D02*
X201930000Y-105410000D01*
X201930000Y-105410000D02*
X199390000Y-105410000D01*
X199390000Y-105410000D02*
X199390000Y-88265000D01*
X199390000Y-88265000D02*
X200025000Y-87630000D01*
X187325000Y-87630000D02*
X189230000Y-87630000D01*
X189230000Y-87630000D02*
X189230000Y-105410000D01*
X189230000Y-105410000D02*
X186690000Y-105410000D01*
X186690000Y-105410000D02*
X186690000Y-88265000D01*
X186690000Y-88265000D02*
X187325000Y-87630000D01*
X197485000Y-105410000D02*
X199390000Y-105410000D01*
X199390000Y-105410000D02*
X199390000Y-123190000D01*
X199390000Y-123190000D02*
X196850000Y-123190000D01*
X196850000Y-123190000D02*
X196850000Y-106045000D01*
X196850000Y-106045000D02*
X197485000Y-105410000D01*
X194945000Y-105410000D02*
X196850000Y-105410000D01*
X196850000Y-105410000D02*
X196850000Y-123190000D01*
X196850000Y-123190000D02*
X194310000Y-123190000D01*
X194310000Y-123190000D02*
X194310000Y-106045000D01*
X194310000Y-106045000D02*
X194945000Y-105410000D01*
X177165000Y-87630000D02*
X179070000Y-87630000D01*
X179070000Y-87630000D02*
X179070000Y-105410000D01*
X179070000Y-105410000D02*
X176530000Y-105410000D01*
X176530000Y-105410000D02*
X176530000Y-88265000D01*
X176530000Y-88265000D02*
X177165000Y-87630000D01*
X179705000Y-87630000D02*
X181610000Y-87630000D01*
X181610000Y-87630000D02*
X181610000Y-105410000D01*
X181610000Y-105410000D02*
X179070000Y-105410000D01*
X179070000Y-105410000D02*
X179070000Y-88265000D01*
X179070000Y-88265000D02*
X179705000Y-87630000D01*
X182245000Y-87630000D02*
X184150000Y-87630000D01*
X184150000Y-87630000D02*
X184150000Y-105410000D01*
X184150000Y-105410000D02*
X181610000Y-105410000D01*
X181610000Y-105410000D02*
X181610000Y-88265000D01*
X181610000Y-88265000D02*
X182245000Y-87630000D01*
X184785000Y-87630000D02*
X186690000Y-87630000D01*
X186690000Y-87630000D02*
X186690000Y-105410000D01*
X186690000Y-105410000D02*
X184150000Y-105410000D01*
X184150000Y-105410000D02*
X184150000Y-88265000D01*
X184150000Y-88265000D02*
X184785000Y-87630000D01*
X187325000Y-105410000D02*
X189230000Y-105410000D01*
X189230000Y-105410000D02*
X189230000Y-123190000D01*
X189230000Y-123190000D02*
X186690000Y-123190000D01*
X186690000Y-123190000D02*
X186690000Y-106045000D01*
X186690000Y-106045000D02*
X187325000Y-105410000D01*
X189865000Y-105410000D02*
X191770000Y-105410000D01*
X191770000Y-105410000D02*
X191770000Y-123190000D01*
X191770000Y-123190000D02*
X189230000Y-123190000D01*
X189230000Y-123190000D02*
X189230000Y-106045000D01*
X189230000Y-106045000D02*
X189865000Y-105410000D01*
X192405000Y-105410000D02*
X194310000Y-105410000D01*
X194310000Y-105410000D02*
X194310000Y-123190000D01*
X194310000Y-123190000D02*
X191770000Y-123190000D01*
X191770000Y-123190000D02*
X191770000Y-106045000D01*
X191770000Y-106045000D02*
X192405000Y-105410000D01*
X205105000Y-100330000D02*
X207010000Y-100330000D01*
X207010000Y-100330000D02*
X207010000Y-105410000D01*
X207010000Y-105410000D02*
X204470000Y-105410000D01*
X204470000Y-105410000D02*
X204470000Y-100965000D01*
X204470000Y-100965000D02*
X205105000Y-100330000D01*
X172085000Y-100330000D02*
X173990000Y-100330000D01*
X173990000Y-100330000D02*
X173990000Y-105410000D01*
X173990000Y-105410000D02*
X171450000Y-105410000D01*
X171450000Y-105410000D02*
X171450000Y-100965000D01*
X171450000Y-100965000D02*
X172085000Y-100330000D01*
X174625000Y-105410000D02*
X176530000Y-105410000D01*
X176530000Y-105410000D02*
X176530000Y-120650000D01*
X176530000Y-120650000D02*
X173990000Y-120650000D01*
X173990000Y-120650000D02*
X173990000Y-106045000D01*
X173990000Y-106045000D02*
X174625000Y-105410000D01*
X169545000Y-105410000D02*
X171450000Y-105410000D01*
X171450000Y-105410000D02*
X171450000Y-113030000D01*
X171450000Y-113030000D02*
X168910000Y-113030000D01*
X168910000Y-113030000D02*
X168910000Y-106045000D01*
X168910000Y-106045000D02*
X169545000Y-105410000D01*
X184785000Y-105410000D02*
X186690000Y-105410000D01*
X186690000Y-105410000D02*
X186690000Y-125730000D01*
X186690000Y-125730000D02*
X184150000Y-125730000D01*
X184150000Y-125730000D02*
X184150000Y-106045000D01*
X184150000Y-106045000D02*
X184785000Y-105410000D01*
X182245000Y-105410000D02*
X184150000Y-105410000D01*
X184150000Y-105410000D02*
X184150000Y-125730000D01*
X184150000Y-125730000D02*
X181610000Y-125730000D01*
X181610000Y-125730000D02*
X181610000Y-106045000D01*
X181610000Y-106045000D02*
X182245000Y-105410000D01*
X179705000Y-105410000D02*
X181610000Y-105410000D01*
X181610000Y-105410000D02*
X181610000Y-125730000D01*
X181610000Y-125730000D02*
X179070000Y-125730000D01*
X179070000Y-125730000D02*
X179070000Y-106045000D01*
X179070000Y-106045000D02*
X179705000Y-105410000D01*
X177165000Y-105410000D02*
X179070000Y-105410000D01*
X179070000Y-105410000D02*
X179070000Y-125730000D01*
X179070000Y-125730000D02*
X176530000Y-125730000D01*
X176530000Y-125730000D02*
X176530000Y-106045000D01*
X176530000Y-106045000D02*
X177165000Y-105410000D01*
X205105000Y-105410000D02*
X207010000Y-105410000D01*
X207010000Y-105410000D02*
X207010000Y-118110000D01*
X207010000Y-118110000D02*
X204470000Y-118110000D01*
X204470000Y-118110000D02*
X204470000Y-106045000D01*
X204470000Y-106045000D02*
X205105000Y-105410000D01*
X172085000Y-105410000D02*
X173990000Y-105410000D01*
X173990000Y-105410000D02*
X173990000Y-118110000D01*
X173990000Y-118110000D02*
X171450000Y-118110000D01*
X171450000Y-118110000D02*
X171450000Y-106045000D01*
X171450000Y-106045000D02*
X172085000Y-105410000D01*
X202565000Y-105410000D02*
X204470000Y-105410000D01*
X204470000Y-105410000D02*
X204470000Y-123190000D01*
X204470000Y-123190000D02*
X201930000Y-123190000D01*
X201930000Y-123190000D02*
X201930000Y-106045000D01*
X201930000Y-106045000D02*
X202565000Y-105410000D01*
X200025000Y-105410000D02*
X201930000Y-105410000D01*
X201930000Y-105410000D02*
X201930000Y-125730000D01*
X201930000Y-125730000D02*
X199390000Y-125730000D01*
X199390000Y-125730000D02*
X199390000Y-106045000D01*
X199390000Y-106045000D02*
X200025000Y-105410000D01*
X202565000Y-95250000D02*
X204470000Y-95250000D01*
X204470000Y-95250000D02*
X204470000Y-105410000D01*
X204470000Y-105410000D02*
X201930000Y-105410000D01*
X201930000Y-105410000D02*
X201930000Y-95885000D01*
X201930000Y-95885000D02*
X202565000Y-95250000D01*
D11*
X187256667Y-84452381D02*
X187256667Y-85166667D01*
X187209047Y-85309524D01*
X187113809Y-85404762D01*
X186970952Y-85452381D01*
X186875714Y-85452381D01*
X188209048Y-84452381D02*
X187732857Y-84452381D01*
X187685238Y-84928571D01*
X187732857Y-84880952D01*
X187828095Y-84833333D01*
X188066191Y-84833333D01*
X188161429Y-84880952D01*
X188209048Y-84928571D01*
X188256667Y-85023810D01*
X188256667Y-85261905D01*
X188209048Y-85357143D01*
X188161429Y-85404762D01*
X188066191Y-85452381D01*
X187828095Y-85452381D01*
X187732857Y-85404762D01*
X187685238Y-85357143D01*
X191996667Y-124792381D02*
X191996667Y-125506667D01*
X191949047Y-125649524D01*
X191853809Y-125744762D01*
X191710952Y-125792381D01*
X191615714Y-125792381D01*
X192425238Y-124887619D02*
X192472857Y-124840000D01*
X192568095Y-124792381D01*
X192806191Y-124792381D01*
X192901429Y-124840000D01*
X192949048Y-124887619D01*
X192996667Y-124982857D01*
X192996667Y-125078095D01*
X192949048Y-125220952D01*
X192377619Y-125792381D01*
X192996667Y-125792381D01*
X169704082Y-99174422D02*
X170322671Y-99531565D01*
X170422579Y-99644234D01*
X170457439Y-99774332D01*
X170427249Y-99921859D01*
X170379630Y-100004337D01*
X169894558Y-98844508D02*
X170204082Y-98308397D01*
X170367329Y-98787549D01*
X170438758Y-98663830D01*
X170527616Y-98605161D01*
X170592665Y-98587731D01*
X170698954Y-98594111D01*
X170905150Y-98713159D01*
X170963819Y-98802017D01*
X170981249Y-98867066D01*
X170974869Y-98973354D01*
X170832011Y-99220790D01*
X170743153Y-99279459D01*
X170678104Y-99296889D01*
X209007585Y-97686925D02*
X208388996Y-98044068D01*
X208241468Y-98074256D01*
X208111370Y-98039396D01*
X207998703Y-97939488D01*
X207951084Y-97857010D01*
X209171292Y-98637138D02*
X208593941Y-98970472D01*
X209382158Y-98240465D02*
X208644520Y-98391412D01*
X208954044Y-98927523D01*
X210272381Y-110029523D02*
X210986667Y-110029523D01*
X211129524Y-110077143D01*
X211224762Y-110172381D01*
X211272381Y-110315238D01*
X211272381Y-110410476D01*
X211272381Y-109029523D02*
X211272381Y-109600952D01*
X211272381Y-109315238D02*
X210272381Y-109315238D01*
X210415238Y-109410476D01*
X210510476Y-109505714D01*
X210558095Y-109600952D01*
X210272381Y-108410476D02*
X210272381Y-108315237D01*
X210320000Y-108219999D01*
X210367619Y-108172380D01*
X210462857Y-108124761D01*
X210653333Y-108077142D01*
X210891429Y-108077142D01*
X211081905Y-108124761D01*
X211177143Y-108172380D01*
X211224762Y-108219999D01*
X211272381Y-108315237D01*
X211272381Y-108410476D01*
X211224762Y-108505714D01*
X211177143Y-108553333D01*
X211081905Y-108600952D01*
X210891429Y-108648571D01*
X210653333Y-108648571D01*
X210462857Y-108600952D01*
X210367619Y-108553333D01*
X210320000Y-108505714D01*
X210272381Y-108410476D01*
X200326667Y-84382381D02*
X200326667Y-85096667D01*
X200279047Y-85239524D01*
X200183809Y-85334762D01*
X200040952Y-85382381D01*
X199945714Y-85382381D01*
X200850476Y-85382381D02*
X201040952Y-85382381D01*
X201136191Y-85334762D01*
X201183810Y-85287143D01*
X201279048Y-85144286D01*
X201326667Y-84953810D01*
X201326667Y-84572857D01*
X201279048Y-84477619D01*
X201231429Y-84430000D01*
X201136191Y-84382381D01*
X200945714Y-84382381D01*
X200850476Y-84430000D01*
X200802857Y-84477619D01*
X200755238Y-84572857D01*
X200755238Y-84810952D01*
X200802857Y-84906190D01*
X200850476Y-84953810D01*
X200945714Y-85001429D01*
X201136191Y-85001429D01*
X201231429Y-84953810D01*
X201279048Y-84906190D01*
X201326667Y-84810952D01*
X174712381Y-100663333D02*
X175426667Y-100663333D01*
X175569524Y-100710953D01*
X175664762Y-100806191D01*
X175712381Y-100949048D01*
X175712381Y-101044286D01*
X174712381Y-99758571D02*
X174712381Y-99949048D01*
X174760000Y-100044286D01*
X174807619Y-100091905D01*
X174950476Y-100187143D01*
X175140952Y-100234762D01*
X175521905Y-100234762D01*
X175617143Y-100187143D01*
X175664762Y-100139524D01*
X175712381Y-100044286D01*
X175712381Y-99853809D01*
X175664762Y-99758571D01*
X175617143Y-99710952D01*
X175521905Y-99663333D01*
X175283810Y-99663333D01*
X175188571Y-99710952D01*
X175140952Y-99758571D01*
X175093333Y-99853809D01*
X175093333Y-100044286D01*
X175140952Y-100139524D01*
X175188571Y-100187143D01*
X175283810Y-100234762D01*
X207732381Y-111299523D02*
X208446667Y-111299523D01*
X208589524Y-111347143D01*
X208684762Y-111442381D01*
X208732381Y-111585238D01*
X208732381Y-111680476D01*
X208732381Y-110299523D02*
X208732381Y-110870952D01*
X208732381Y-110585238D02*
X207732381Y-110585238D01*
X207875238Y-110680476D01*
X207970476Y-110775714D01*
X208018095Y-110870952D01*
X208732381Y-109347142D02*
X208732381Y-109918571D01*
X208732381Y-109632857D02*
X207732381Y-109632857D01*
X207875238Y-109728095D01*
X207970476Y-109823333D01*
X208018095Y-109918571D01*
X189952381Y-97329523D02*
X190666667Y-97329523D01*
X190809524Y-97377143D01*
X190904762Y-97472381D01*
X190952381Y-97615238D01*
X190952381Y-97710476D01*
X189952381Y-96948571D02*
X189952381Y-96329523D01*
X190333333Y-96662857D01*
X190333333Y-96519999D01*
X190380952Y-96424761D01*
X190428571Y-96377142D01*
X190523810Y-96329523D01*
X190761905Y-96329523D01*
X190857143Y-96377142D01*
X190904762Y-96424761D01*
X190952381Y-96519999D01*
X190952381Y-96805714D01*
X190904762Y-96900952D01*
X190857143Y-96948571D01*
X190952381Y-95377142D02*
X190952381Y-95948571D01*
X190952381Y-95662857D02*
X189952381Y-95662857D01*
X190095238Y-95758095D01*
X190190476Y-95853333D01*
X190238095Y-95948571D01*
X192492381Y-97329523D02*
X193206667Y-97329523D01*
X193349524Y-97377143D01*
X193444762Y-97472381D01*
X193492381Y-97615238D01*
X193492381Y-97710476D01*
X192492381Y-96948571D02*
X192492381Y-96329523D01*
X192873333Y-96662857D01*
X192873333Y-96519999D01*
X192920952Y-96424761D01*
X192968571Y-96377142D01*
X193063810Y-96329523D01*
X193301905Y-96329523D01*
X193397143Y-96377142D01*
X193444762Y-96424761D01*
X193492381Y-96519999D01*
X193492381Y-96805714D01*
X193444762Y-96900952D01*
X193397143Y-96948571D01*
X192587619Y-95948571D02*
X192540000Y-95900952D01*
X192492381Y-95805714D01*
X192492381Y-95567618D01*
X192540000Y-95472380D01*
X192587619Y-95424761D01*
X192682857Y-95377142D01*
X192778095Y-95377142D01*
X192920952Y-95424761D01*
X193492381Y-95996190D01*
X193492381Y-95377142D01*
X195032381Y-97329523D02*
X195746667Y-97329523D01*
X195889524Y-97377143D01*
X195984762Y-97472381D01*
X196032381Y-97615238D01*
X196032381Y-97710476D01*
X195032381Y-96948571D02*
X195032381Y-96329523D01*
X195413333Y-96662857D01*
X195413333Y-96519999D01*
X195460952Y-96424761D01*
X195508571Y-96377142D01*
X195603810Y-96329523D01*
X195841905Y-96329523D01*
X195937143Y-96377142D01*
X195984762Y-96424761D01*
X196032381Y-96519999D01*
X196032381Y-96805714D01*
X195984762Y-96900952D01*
X195937143Y-96948571D01*
X195032381Y-95996190D02*
X195032381Y-95377142D01*
X195413333Y-95710476D01*
X195413333Y-95567618D01*
X195460952Y-95472380D01*
X195508571Y-95424761D01*
X195603810Y-95377142D01*
X195841905Y-95377142D01*
X195937143Y-95424761D01*
X195984762Y-95472380D01*
X196032381Y-95567618D01*
X196032381Y-95853333D01*
X195984762Y-95948571D01*
X195937143Y-95996190D01*
X197572381Y-97329523D02*
X198286667Y-97329523D01*
X198429524Y-97377143D01*
X198524762Y-97472381D01*
X198572381Y-97615238D01*
X198572381Y-97710476D01*
X197572381Y-96948571D02*
X197572381Y-96329523D01*
X197953333Y-96662857D01*
X197953333Y-96519999D01*
X198000952Y-96424761D01*
X198048571Y-96377142D01*
X198143810Y-96329523D01*
X198381905Y-96329523D01*
X198477143Y-96377142D01*
X198524762Y-96424761D01*
X198572381Y-96519999D01*
X198572381Y-96805714D01*
X198524762Y-96900952D01*
X198477143Y-96948571D01*
X197905714Y-95472380D02*
X198572381Y-95472380D01*
X197524762Y-95710476D02*
X198239048Y-95948571D01*
X198239048Y-95329523D01*
X200112381Y-97329523D02*
X200826667Y-97329523D01*
X200969524Y-97377143D01*
X201064762Y-97472381D01*
X201112381Y-97615238D01*
X201112381Y-97710476D01*
X200112381Y-96948571D02*
X200112381Y-96329523D01*
X200493333Y-96662857D01*
X200493333Y-96519999D01*
X200540952Y-96424761D01*
X200588571Y-96377142D01*
X200683810Y-96329523D01*
X200921905Y-96329523D01*
X201017143Y-96377142D01*
X201064762Y-96424761D01*
X201112381Y-96519999D01*
X201112381Y-96805714D01*
X201064762Y-96900952D01*
X201017143Y-96948571D01*
X200112381Y-95424761D02*
X200112381Y-95900952D01*
X200588571Y-95948571D01*
X200540952Y-95900952D01*
X200493333Y-95805714D01*
X200493333Y-95567618D01*
X200540952Y-95472380D01*
X200588571Y-95424761D01*
X200683810Y-95377142D01*
X200921905Y-95377142D01*
X201017143Y-95424761D01*
X201064762Y-95472380D01*
X201112381Y-95567618D01*
X201112381Y-95805714D01*
X201064762Y-95900952D01*
X201017143Y-95948571D01*
X187412381Y-97329523D02*
X188126667Y-97329523D01*
X188269524Y-97377143D01*
X188364762Y-97472381D01*
X188412381Y-97615238D01*
X188412381Y-97710476D01*
X187412381Y-96948571D02*
X187412381Y-96329523D01*
X187793333Y-96662857D01*
X187793333Y-96519999D01*
X187840952Y-96424761D01*
X187888571Y-96377142D01*
X187983810Y-96329523D01*
X188221905Y-96329523D01*
X188317143Y-96377142D01*
X188364762Y-96424761D01*
X188412381Y-96519999D01*
X188412381Y-96805714D01*
X188364762Y-96900952D01*
X188317143Y-96948571D01*
X187412381Y-95472380D02*
X187412381Y-95662857D01*
X187460000Y-95758095D01*
X187507619Y-95805714D01*
X187650476Y-95900952D01*
X187840952Y-95948571D01*
X188221905Y-95948571D01*
X188317143Y-95900952D01*
X188364762Y-95853333D01*
X188412381Y-95758095D01*
X188412381Y-95567618D01*
X188364762Y-95472380D01*
X188317143Y-95424761D01*
X188221905Y-95377142D01*
X187983810Y-95377142D01*
X187888571Y-95424761D01*
X187840952Y-95472380D01*
X187793333Y-95567618D01*
X187793333Y-95758095D01*
X187840952Y-95853333D01*
X187888571Y-95900952D01*
X187983810Y-95948571D01*
X197572381Y-115109523D02*
X198286667Y-115109523D01*
X198429524Y-115157143D01*
X198524762Y-115252381D01*
X198572381Y-115395238D01*
X198572381Y-115490476D01*
X197572381Y-114728571D02*
X197572381Y-114109523D01*
X197953333Y-114442857D01*
X197953333Y-114299999D01*
X198000952Y-114204761D01*
X198048571Y-114157142D01*
X198143810Y-114109523D01*
X198381905Y-114109523D01*
X198477143Y-114157142D01*
X198524762Y-114204761D01*
X198572381Y-114299999D01*
X198572381Y-114585714D01*
X198524762Y-114680952D01*
X198477143Y-114728571D01*
X198000952Y-113538095D02*
X197953333Y-113633333D01*
X197905714Y-113680952D01*
X197810476Y-113728571D01*
X197762857Y-113728571D01*
X197667619Y-113680952D01*
X197620000Y-113633333D01*
X197572381Y-113538095D01*
X197572381Y-113347618D01*
X197620000Y-113252380D01*
X197667619Y-113204761D01*
X197762857Y-113157142D01*
X197810476Y-113157142D01*
X197905714Y-113204761D01*
X197953333Y-113252380D01*
X198000952Y-113347618D01*
X198000952Y-113538095D01*
X198048571Y-113633333D01*
X198096190Y-113680952D01*
X198191429Y-113728571D01*
X198381905Y-113728571D01*
X198477143Y-113680952D01*
X198524762Y-113633333D01*
X198572381Y-113538095D01*
X198572381Y-113347618D01*
X198524762Y-113252380D01*
X198477143Y-113204761D01*
X198381905Y-113157142D01*
X198191429Y-113157142D01*
X198096190Y-113204761D01*
X198048571Y-113252380D01*
X198000952Y-113347618D01*
X195032381Y-115109523D02*
X195746667Y-115109523D01*
X195889524Y-115157143D01*
X195984762Y-115252381D01*
X196032381Y-115395238D01*
X196032381Y-115490476D01*
X195032381Y-114728571D02*
X195032381Y-114109523D01*
X195413333Y-114442857D01*
X195413333Y-114299999D01*
X195460952Y-114204761D01*
X195508571Y-114157142D01*
X195603810Y-114109523D01*
X195841905Y-114109523D01*
X195937143Y-114157142D01*
X195984762Y-114204761D01*
X196032381Y-114299999D01*
X196032381Y-114585714D01*
X195984762Y-114680952D01*
X195937143Y-114728571D01*
X196032381Y-113633333D02*
X196032381Y-113442857D01*
X195984762Y-113347618D01*
X195937143Y-113299999D01*
X195794286Y-113204761D01*
X195603810Y-113157142D01*
X195222857Y-113157142D01*
X195127619Y-113204761D01*
X195080000Y-113252380D01*
X195032381Y-113347618D01*
X195032381Y-113538095D01*
X195080000Y-113633333D01*
X195127619Y-113680952D01*
X195222857Y-113728571D01*
X195460952Y-113728571D01*
X195556190Y-113680952D01*
X195603810Y-113633333D01*
X195651429Y-113538095D01*
X195651429Y-113347618D01*
X195603810Y-113252380D01*
X195556190Y-113204761D01*
X195460952Y-113157142D01*
X177252381Y-97329523D02*
X177966667Y-97329523D01*
X178109524Y-97377143D01*
X178204762Y-97472381D01*
X178252381Y-97615238D01*
X178252381Y-97710476D01*
X177585714Y-96424761D02*
X178252381Y-96424761D01*
X177204762Y-96662857D02*
X177919048Y-96900952D01*
X177919048Y-96281904D01*
X177252381Y-95710476D02*
X177252381Y-95615237D01*
X177300000Y-95519999D01*
X177347619Y-95472380D01*
X177442857Y-95424761D01*
X177633333Y-95377142D01*
X177871429Y-95377142D01*
X178061905Y-95424761D01*
X178157143Y-95472380D01*
X178204762Y-95519999D01*
X178252381Y-95615237D01*
X178252381Y-95710476D01*
X178204762Y-95805714D01*
X178157143Y-95853333D01*
X178061905Y-95900952D01*
X177871429Y-95948571D01*
X177633333Y-95948571D01*
X177442857Y-95900952D01*
X177347619Y-95853333D01*
X177300000Y-95805714D01*
X177252381Y-95710476D01*
X179792381Y-97329523D02*
X180506667Y-97329523D01*
X180649524Y-97377143D01*
X180744762Y-97472381D01*
X180792381Y-97615238D01*
X180792381Y-97710476D01*
X180125714Y-96424761D02*
X180792381Y-96424761D01*
X179744762Y-96662857D02*
X180459048Y-96900952D01*
X180459048Y-96281904D01*
X179887619Y-95948571D02*
X179840000Y-95900952D01*
X179792381Y-95805714D01*
X179792381Y-95567618D01*
X179840000Y-95472380D01*
X179887619Y-95424761D01*
X179982857Y-95377142D01*
X180078095Y-95377142D01*
X180220952Y-95424761D01*
X180792381Y-95996190D01*
X180792381Y-95377142D01*
X182332381Y-97329523D02*
X183046667Y-97329523D01*
X183189524Y-97377143D01*
X183284762Y-97472381D01*
X183332381Y-97615238D01*
X183332381Y-97710476D01*
X182665714Y-96424761D02*
X183332381Y-96424761D01*
X182284762Y-96662857D02*
X182999048Y-96900952D01*
X182999048Y-96281904D01*
X182332381Y-95424761D02*
X182332381Y-95900952D01*
X182808571Y-95948571D01*
X182760952Y-95900952D01*
X182713333Y-95805714D01*
X182713333Y-95567618D01*
X182760952Y-95472380D01*
X182808571Y-95424761D01*
X182903810Y-95377142D01*
X183141905Y-95377142D01*
X183237143Y-95424761D01*
X183284762Y-95472380D01*
X183332381Y-95567618D01*
X183332381Y-95805714D01*
X183284762Y-95900952D01*
X183237143Y-95948571D01*
X184872381Y-97329523D02*
X185586667Y-97329523D01*
X185729524Y-97377143D01*
X185824762Y-97472381D01*
X185872381Y-97615238D01*
X185872381Y-97710476D01*
X185205714Y-96424761D02*
X185872381Y-96424761D01*
X184824762Y-96662857D02*
X185539048Y-96900952D01*
X185539048Y-96281904D01*
X184872381Y-95472380D02*
X184872381Y-95662857D01*
X184920000Y-95758095D01*
X184967619Y-95805714D01*
X185110476Y-95900952D01*
X185300952Y-95948571D01*
X185681905Y-95948571D01*
X185777143Y-95900952D01*
X185824762Y-95853333D01*
X185872381Y-95758095D01*
X185872381Y-95567618D01*
X185824762Y-95472380D01*
X185777143Y-95424761D01*
X185681905Y-95377142D01*
X185443810Y-95377142D01*
X185348571Y-95424761D01*
X185300952Y-95472380D01*
X185253333Y-95567618D01*
X185253333Y-95758095D01*
X185300952Y-95853333D01*
X185348571Y-95900952D01*
X185443810Y-95948571D01*
X187412381Y-115109523D02*
X188126667Y-115109523D01*
X188269524Y-115157143D01*
X188364762Y-115252381D01*
X188412381Y-115395238D01*
X188412381Y-115490476D01*
X187745714Y-114204761D02*
X188412381Y-114204761D01*
X187364762Y-114442857D02*
X188079048Y-114680952D01*
X188079048Y-114061904D01*
X187412381Y-113776190D02*
X187412381Y-113109523D01*
X188412381Y-113538095D01*
X189952381Y-115109523D02*
X190666667Y-115109523D01*
X190809524Y-115157143D01*
X190904762Y-115252381D01*
X190952381Y-115395238D01*
X190952381Y-115490476D01*
X190285714Y-114204761D02*
X190952381Y-114204761D01*
X189904762Y-114442857D02*
X190619048Y-114680952D01*
X190619048Y-114061904D01*
X190380952Y-113538095D02*
X190333333Y-113633333D01*
X190285714Y-113680952D01*
X190190476Y-113728571D01*
X190142857Y-113728571D01*
X190047619Y-113680952D01*
X190000000Y-113633333D01*
X189952381Y-113538095D01*
X189952381Y-113347618D01*
X190000000Y-113252380D01*
X190047619Y-113204761D01*
X190142857Y-113157142D01*
X190190476Y-113157142D01*
X190285714Y-113204761D01*
X190333333Y-113252380D01*
X190380952Y-113347618D01*
X190380952Y-113538095D01*
X190428571Y-113633333D01*
X190476190Y-113680952D01*
X190571429Y-113728571D01*
X190761905Y-113728571D01*
X190857143Y-113680952D01*
X190904762Y-113633333D01*
X190952381Y-113538095D01*
X190952381Y-113347618D01*
X190904762Y-113252380D01*
X190857143Y-113204761D01*
X190761905Y-113157142D01*
X190571429Y-113157142D01*
X190476190Y-113204761D01*
X190428571Y-113252380D01*
X190380952Y-113347618D01*
X192492381Y-115109523D02*
X193206667Y-115109523D01*
X193349524Y-115157143D01*
X193444762Y-115252381D01*
X193492381Y-115395238D01*
X193492381Y-115490476D01*
X192825714Y-114204761D02*
X193492381Y-114204761D01*
X192444762Y-114442857D02*
X193159048Y-114680952D01*
X193159048Y-114061904D01*
X193492381Y-113633333D02*
X193492381Y-113442857D01*
X193444762Y-113347618D01*
X193397143Y-113299999D01*
X193254286Y-113204761D01*
X193063810Y-113157142D01*
X192682857Y-113157142D01*
X192587619Y-113204761D01*
X192540000Y-113252380D01*
X192492381Y-113347618D01*
X192492381Y-113538095D01*
X192540000Y-113633333D01*
X192587619Y-113680952D01*
X192682857Y-113728571D01*
X192920952Y-113728571D01*
X193016190Y-113680952D01*
X193063810Y-113633333D01*
X193111429Y-113538095D01*
X193111429Y-113347618D01*
X193063810Y-113252380D01*
X193016190Y-113204761D01*
X192920952Y-113157142D01*
X205192381Y-103679523D02*
X205906667Y-103679523D01*
X206049524Y-103727143D01*
X206144762Y-103822381D01*
X206192381Y-103965238D01*
X206192381Y-104060476D01*
X206192381Y-102679523D02*
X206192381Y-103250952D01*
X206192381Y-102965238D02*
X205192381Y-102965238D01*
X205335238Y-103060476D01*
X205430476Y-103155714D01*
X205478095Y-103250952D01*
X205192381Y-101774761D02*
X205192381Y-102250952D01*
X205668571Y-102298571D01*
X205620952Y-102250952D01*
X205573333Y-102155714D01*
X205573333Y-101917618D01*
X205620952Y-101822380D01*
X205668571Y-101774761D01*
X205763810Y-101727142D01*
X206001905Y-101727142D01*
X206097143Y-101774761D01*
X206144762Y-101822380D01*
X206192381Y-101917618D01*
X206192381Y-102155714D01*
X206144762Y-102250952D01*
X206097143Y-102298571D01*
X172172381Y-103679523D02*
X172886667Y-103679523D01*
X173029524Y-103727143D01*
X173124762Y-103822381D01*
X173172381Y-103965238D01*
X173172381Y-104060476D01*
X173172381Y-102679523D02*
X173172381Y-103250952D01*
X173172381Y-102965238D02*
X172172381Y-102965238D01*
X172315238Y-103060476D01*
X172410476Y-103155714D01*
X172458095Y-103250952D01*
X172172381Y-101822380D02*
X172172381Y-102012857D01*
X172220000Y-102108095D01*
X172267619Y-102155714D01*
X172410476Y-102250952D01*
X172600952Y-102298571D01*
X172981905Y-102298571D01*
X173077143Y-102250952D01*
X173124762Y-102203333D01*
X173172381Y-102108095D01*
X173172381Y-101917618D01*
X173124762Y-101822380D01*
X173077143Y-101774761D01*
X172981905Y-101727142D01*
X172743810Y-101727142D01*
X172648571Y-101774761D01*
X172600952Y-101822380D01*
X172553333Y-101917618D01*
X172553333Y-102108095D01*
X172600952Y-102203333D01*
X172648571Y-102250952D01*
X172743810Y-102298571D01*
X174712381Y-113839523D02*
X175426667Y-113839523D01*
X175569524Y-113887143D01*
X175664762Y-113982381D01*
X175712381Y-114125238D01*
X175712381Y-114220476D01*
X175712381Y-112839523D02*
X175712381Y-113410952D01*
X175712381Y-113125238D02*
X174712381Y-113125238D01*
X174855238Y-113220476D01*
X174950476Y-113315714D01*
X174998095Y-113410952D01*
X175140952Y-112268095D02*
X175093333Y-112363333D01*
X175045714Y-112410952D01*
X174950476Y-112458571D01*
X174902857Y-112458571D01*
X174807619Y-112410952D01*
X174760000Y-112363333D01*
X174712381Y-112268095D01*
X174712381Y-112077618D01*
X174760000Y-111982380D01*
X174807619Y-111934761D01*
X174902857Y-111887142D01*
X174950476Y-111887142D01*
X175045714Y-111934761D01*
X175093333Y-111982380D01*
X175140952Y-112077618D01*
X175140952Y-112268095D01*
X175188571Y-112363333D01*
X175236190Y-112410952D01*
X175331429Y-112458571D01*
X175521905Y-112458571D01*
X175617143Y-112410952D01*
X175664762Y-112363333D01*
X175712381Y-112268095D01*
X175712381Y-112077618D01*
X175664762Y-111982380D01*
X175617143Y-111934761D01*
X175521905Y-111887142D01*
X175331429Y-111887142D01*
X175236190Y-111934761D01*
X175188571Y-111982380D01*
X175140952Y-112077618D01*
X169632381Y-110029523D02*
X170346667Y-110029523D01*
X170489524Y-110077143D01*
X170584762Y-110172381D01*
X170632381Y-110315238D01*
X170632381Y-110410476D01*
X170632381Y-109029523D02*
X170632381Y-109600952D01*
X170632381Y-109315238D02*
X169632381Y-109315238D01*
X169775238Y-109410476D01*
X169870476Y-109505714D01*
X169918095Y-109600952D01*
X170632381Y-108553333D02*
X170632381Y-108362857D01*
X170584762Y-108267618D01*
X170537143Y-108219999D01*
X170394286Y-108124761D01*
X170203810Y-108077142D01*
X169822857Y-108077142D01*
X169727619Y-108124761D01*
X169680000Y-108172380D01*
X169632381Y-108267618D01*
X169632381Y-108458095D01*
X169680000Y-108553333D01*
X169727619Y-108600952D01*
X169822857Y-108648571D01*
X170060952Y-108648571D01*
X170156190Y-108600952D01*
X170203810Y-108553333D01*
X170251429Y-108458095D01*
X170251429Y-108267618D01*
X170203810Y-108172380D01*
X170156190Y-108124761D01*
X170060952Y-108077142D01*
X184872381Y-116379523D02*
X185586667Y-116379523D01*
X185729524Y-116427143D01*
X185824762Y-116522381D01*
X185872381Y-116665238D01*
X185872381Y-116760476D01*
X184967619Y-115950952D02*
X184920000Y-115903333D01*
X184872381Y-115808095D01*
X184872381Y-115569999D01*
X184920000Y-115474761D01*
X184967619Y-115427142D01*
X185062857Y-115379523D01*
X185158095Y-115379523D01*
X185300952Y-115427142D01*
X185872381Y-115998571D01*
X185872381Y-115379523D01*
X184872381Y-114760476D02*
X184872381Y-114665237D01*
X184920000Y-114569999D01*
X184967619Y-114522380D01*
X185062857Y-114474761D01*
X185253333Y-114427142D01*
X185491429Y-114427142D01*
X185681905Y-114474761D01*
X185777143Y-114522380D01*
X185824762Y-114569999D01*
X185872381Y-114665237D01*
X185872381Y-114760476D01*
X185824762Y-114855714D01*
X185777143Y-114903333D01*
X185681905Y-114950952D01*
X185491429Y-114998571D01*
X185253333Y-114998571D01*
X185062857Y-114950952D01*
X184967619Y-114903333D01*
X184920000Y-114855714D01*
X184872381Y-114760476D01*
X182332381Y-116379523D02*
X183046667Y-116379523D01*
X183189524Y-116427143D01*
X183284762Y-116522381D01*
X183332381Y-116665238D01*
X183332381Y-116760476D01*
X182427619Y-115950952D02*
X182380000Y-115903333D01*
X182332381Y-115808095D01*
X182332381Y-115569999D01*
X182380000Y-115474761D01*
X182427619Y-115427142D01*
X182522857Y-115379523D01*
X182618095Y-115379523D01*
X182760952Y-115427142D01*
X183332381Y-115998571D01*
X183332381Y-115379523D01*
X183332381Y-114427142D02*
X183332381Y-114998571D01*
X183332381Y-114712857D02*
X182332381Y-114712857D01*
X182475238Y-114808095D01*
X182570476Y-114903333D01*
X182618095Y-114998571D01*
X179792381Y-116379523D02*
X180506667Y-116379523D01*
X180649524Y-116427143D01*
X180744762Y-116522381D01*
X180792381Y-116665238D01*
X180792381Y-116760476D01*
X179887619Y-115950952D02*
X179840000Y-115903333D01*
X179792381Y-115808095D01*
X179792381Y-115569999D01*
X179840000Y-115474761D01*
X179887619Y-115427142D01*
X179982857Y-115379523D01*
X180078095Y-115379523D01*
X180220952Y-115427142D01*
X180792381Y-115998571D01*
X180792381Y-115379523D01*
X179887619Y-114998571D02*
X179840000Y-114950952D01*
X179792381Y-114855714D01*
X179792381Y-114617618D01*
X179840000Y-114522380D01*
X179887619Y-114474761D01*
X179982857Y-114427142D01*
X180078095Y-114427142D01*
X180220952Y-114474761D01*
X180792381Y-115046190D01*
X180792381Y-114427142D01*
X177252381Y-116379523D02*
X177966667Y-116379523D01*
X178109524Y-116427143D01*
X178204762Y-116522381D01*
X178252381Y-116665238D01*
X178252381Y-116760476D01*
X177347619Y-115950952D02*
X177300000Y-115903333D01*
X177252381Y-115808095D01*
X177252381Y-115569999D01*
X177300000Y-115474761D01*
X177347619Y-115427142D01*
X177442857Y-115379523D01*
X177538095Y-115379523D01*
X177680952Y-115427142D01*
X178252381Y-115998571D01*
X178252381Y-115379523D01*
X177252381Y-115046190D02*
X177252381Y-114427142D01*
X177633333Y-114760476D01*
X177633333Y-114617618D01*
X177680952Y-114522380D01*
X177728571Y-114474761D01*
X177823810Y-114427142D01*
X178061905Y-114427142D01*
X178157143Y-114474761D01*
X178204762Y-114522380D01*
X178252381Y-114617618D01*
X178252381Y-114903333D01*
X178204762Y-114998571D01*
X178157143Y-115046190D01*
X205192381Y-112093333D02*
X205906667Y-112093333D01*
X206049524Y-112140953D01*
X206144762Y-112236191D01*
X206192381Y-112379048D01*
X206192381Y-112474286D01*
X205620952Y-111474286D02*
X205573333Y-111569524D01*
X205525714Y-111617143D01*
X205430476Y-111664762D01*
X205382857Y-111664762D01*
X205287619Y-111617143D01*
X205240000Y-111569524D01*
X205192381Y-111474286D01*
X205192381Y-111283809D01*
X205240000Y-111188571D01*
X205287619Y-111140952D01*
X205382857Y-111093333D01*
X205430476Y-111093333D01*
X205525714Y-111140952D01*
X205573333Y-111188571D01*
X205620952Y-111283809D01*
X205620952Y-111474286D01*
X205668571Y-111569524D01*
X205716190Y-111617143D01*
X205811429Y-111664762D01*
X206001905Y-111664762D01*
X206097143Y-111617143D01*
X206144762Y-111569524D01*
X206192381Y-111474286D01*
X206192381Y-111283809D01*
X206144762Y-111188571D01*
X206097143Y-111140952D01*
X206001905Y-111093333D01*
X205811429Y-111093333D01*
X205716190Y-111140952D01*
X205668571Y-111188571D01*
X205620952Y-111283809D01*
X172172381Y-112093333D02*
X172886667Y-112093333D01*
X173029524Y-112140953D01*
X173124762Y-112236191D01*
X173172381Y-112379048D01*
X173172381Y-112474286D01*
X173172381Y-111093333D02*
X173172381Y-111664762D01*
X173172381Y-111379048D02*
X172172381Y-111379048D01*
X172315238Y-111474286D01*
X172410476Y-111569524D01*
X172458095Y-111664762D01*
X202652381Y-115109523D02*
X203366667Y-115109523D01*
X203509524Y-115157143D01*
X203604762Y-115252381D01*
X203652381Y-115395238D01*
X203652381Y-115490476D01*
X203652381Y-114109523D02*
X203652381Y-114680952D01*
X203652381Y-114395238D02*
X202652381Y-114395238D01*
X202795238Y-114490476D01*
X202890476Y-114585714D01*
X202938095Y-114680952D01*
X202747619Y-113728571D02*
X202700000Y-113680952D01*
X202652381Y-113585714D01*
X202652381Y-113347618D01*
X202700000Y-113252380D01*
X202747619Y-113204761D01*
X202842857Y-113157142D01*
X202938095Y-113157142D01*
X203080952Y-113204761D01*
X203652381Y-113776190D01*
X203652381Y-113157142D01*
X200112381Y-116379523D02*
X200826667Y-116379523D01*
X200969524Y-116427143D01*
X201064762Y-116522381D01*
X201112381Y-116665238D01*
X201112381Y-116760476D01*
X201112381Y-115379523D02*
X201112381Y-115950952D01*
X201112381Y-115665238D02*
X200112381Y-115665238D01*
X200255238Y-115760476D01*
X200350476Y-115855714D01*
X200398095Y-115950952D01*
X200112381Y-115046190D02*
X200112381Y-114427142D01*
X200493333Y-114760476D01*
X200493333Y-114617618D01*
X200540952Y-114522380D01*
X200588571Y-114474761D01*
X200683810Y-114427142D01*
X200921905Y-114427142D01*
X201017143Y-114474761D01*
X201064762Y-114522380D01*
X201112381Y-114617618D01*
X201112381Y-114903333D01*
X201064762Y-114998571D01*
X201017143Y-115046190D01*
X202652381Y-101139523D02*
X203366667Y-101139523D01*
X203509524Y-101187143D01*
X203604762Y-101282381D01*
X203652381Y-101425238D01*
X203652381Y-101520476D01*
X203652381Y-100139523D02*
X203652381Y-100710952D01*
X203652381Y-100425238D02*
X202652381Y-100425238D01*
X202795238Y-100520476D01*
X202890476Y-100615714D01*
X202938095Y-100710952D01*
X202985714Y-99282380D02*
X203652381Y-99282380D01*
X202604762Y-99520476D02*
X203319048Y-99758571D01*
X203319048Y-99139523D01*
M02*
