G04 #@! TF.FileFunction,Copper,L2,Bot,Signal*
%FSLAX46Y46*%
G04 Gerber Fmt 4.6, Leading zero omitted, Abs format (unit mm)*
G04 Created by KiCad (PCBNEW 4.0.7-e2-6376~58~ubuntu14.04.1) date Sat Apr 21 17:00:56 2018*
%MOMM*%
%LPD*%
G01*
G04 APERTURE LIST*
%ADD10C,0.100000*%
%ADD11R,1.700000X1.700000*%
%ADD12O,1.700000X1.700000*%
%ADD13C,1.700000*%
%ADD14C,0.250000*%
G04 APERTURE END LIST*
D10*
D11*
X196480000Y-85000000D03*
D12*
X193940000Y-85000000D03*
X191400000Y-85000000D03*
X188860000Y-85000000D03*
X186320000Y-85000000D03*
X183780000Y-85000000D03*
X181240000Y-85000000D03*
X178700000Y-85000000D03*
D11*
X196140000Y-125340000D03*
D12*
X193600000Y-125340000D03*
X191060000Y-125340000D03*
X188520000Y-125340000D03*
D10*
G36*
X168331122Y-104347696D02*
X167481122Y-105819940D01*
X166008878Y-104969940D01*
X166858878Y-103497696D01*
X168331122Y-104347696D01*
X168331122Y-104347696D01*
G37*
D13*
X168440000Y-102459113D02*
X168440000Y-102459113D01*
X169710000Y-100259409D02*
X169710000Y-100259409D01*
X170980000Y-98059704D02*
X170980000Y-98059704D01*
X172250000Y-95860000D02*
X172250000Y-95860000D01*
X173520000Y-93660295D02*
X173520000Y-93660295D01*
D10*
G36*
X204578878Y-92811417D02*
X203728878Y-91339173D01*
X205201122Y-90489173D01*
X206051122Y-91961417D01*
X204578878Y-92811417D01*
X204578878Y-92811417D01*
G37*
D13*
X206160000Y-93850000D02*
X206160000Y-93850000D01*
X207430000Y-96049704D02*
X207430000Y-96049704D01*
X208700000Y-98249409D02*
X208700000Y-98249409D01*
X209970000Y-100449113D02*
X209970000Y-100449113D01*
X211240000Y-102648818D02*
X211240000Y-102648818D01*
X212510000Y-104848522D02*
X212510000Y-104848522D01*
D11*
X210820000Y-109220000D03*
X200660000Y-84930000D03*
X175260000Y-96520000D03*
D12*
X175260000Y-99060000D03*
X175260000Y-101600000D03*
X175260000Y-104140000D03*
D11*
X208280000Y-106680000D03*
D12*
X208280000Y-109220000D03*
X208280000Y-111760000D03*
X208280000Y-114300000D03*
D11*
X190500000Y-88900000D03*
D12*
X190500000Y-91440000D03*
X190500000Y-93980000D03*
X190500000Y-96520000D03*
X190500000Y-99060000D03*
X190500000Y-101600000D03*
X190500000Y-104140000D03*
D11*
X193040000Y-88900000D03*
D12*
X193040000Y-91440000D03*
X193040000Y-93980000D03*
X193040000Y-96520000D03*
X193040000Y-99060000D03*
X193040000Y-101600000D03*
X193040000Y-104140000D03*
D11*
X195580000Y-88900000D03*
D12*
X195580000Y-91440000D03*
X195580000Y-93980000D03*
X195580000Y-96520000D03*
X195580000Y-99060000D03*
X195580000Y-101600000D03*
X195580000Y-104140000D03*
D11*
X198120000Y-88900000D03*
D12*
X198120000Y-91440000D03*
X198120000Y-93980000D03*
X198120000Y-96520000D03*
X198120000Y-99060000D03*
X198120000Y-101600000D03*
X198120000Y-104140000D03*
D11*
X200660000Y-88900000D03*
D12*
X200660000Y-91440000D03*
X200660000Y-93980000D03*
X200660000Y-96520000D03*
X200660000Y-99060000D03*
X200660000Y-101600000D03*
X200660000Y-104140000D03*
D11*
X187960000Y-88900000D03*
D12*
X187960000Y-91440000D03*
X187960000Y-93980000D03*
X187960000Y-96520000D03*
X187960000Y-99060000D03*
X187960000Y-101600000D03*
X187960000Y-104140000D03*
D11*
X198120000Y-106680000D03*
D12*
X198120000Y-109220000D03*
X198120000Y-111760000D03*
X198120000Y-114300000D03*
X198120000Y-116840000D03*
X198120000Y-119380000D03*
X198120000Y-121920000D03*
D11*
X195580000Y-106680000D03*
D12*
X195580000Y-109220000D03*
X195580000Y-111760000D03*
X195580000Y-114300000D03*
X195580000Y-116840000D03*
X195580000Y-119380000D03*
X195580000Y-121920000D03*
D11*
X177800000Y-88900000D03*
D12*
X177800000Y-91440000D03*
X177800000Y-93980000D03*
X177800000Y-96520000D03*
X177800000Y-99060000D03*
X177800000Y-101600000D03*
X177800000Y-104140000D03*
D11*
X180340000Y-88900000D03*
D12*
X180340000Y-91440000D03*
X180340000Y-93980000D03*
X180340000Y-96520000D03*
X180340000Y-99060000D03*
X180340000Y-101600000D03*
X180340000Y-104140000D03*
D11*
X182880000Y-88900000D03*
D12*
X182880000Y-91440000D03*
X182880000Y-93980000D03*
X182880000Y-96520000D03*
X182880000Y-99060000D03*
X182880000Y-101600000D03*
X182880000Y-104140000D03*
D11*
X185420000Y-88900000D03*
D12*
X185420000Y-91440000D03*
X185420000Y-93980000D03*
X185420000Y-96520000D03*
X185420000Y-99060000D03*
X185420000Y-101600000D03*
X185420000Y-104140000D03*
D11*
X187960000Y-106680000D03*
D12*
X187960000Y-109220000D03*
X187960000Y-111760000D03*
X187960000Y-114300000D03*
X187960000Y-116840000D03*
X187960000Y-119380000D03*
X187960000Y-121920000D03*
D11*
X190500000Y-106680000D03*
D12*
X190500000Y-109220000D03*
X190500000Y-111760000D03*
X190500000Y-114300000D03*
X190500000Y-116840000D03*
X190500000Y-119380000D03*
X190500000Y-121920000D03*
D11*
X193040000Y-106680000D03*
D12*
X193040000Y-109220000D03*
X193040000Y-111760000D03*
X193040000Y-114300000D03*
X193040000Y-116840000D03*
X193040000Y-119380000D03*
X193040000Y-121920000D03*
D11*
X205740000Y-101600000D03*
D12*
X205740000Y-104140000D03*
D11*
X172720000Y-101600000D03*
D12*
X172720000Y-104140000D03*
D11*
X175260000Y-106680000D03*
D12*
X175260000Y-109220000D03*
X175260000Y-111760000D03*
X175260000Y-114300000D03*
X175260000Y-116840000D03*
X175260000Y-119380000D03*
D11*
X170180000Y-106680000D03*
D12*
X170180000Y-109220000D03*
X170180000Y-111760000D03*
D11*
X185420000Y-106680000D03*
D12*
X185420000Y-109220000D03*
X185420000Y-111760000D03*
X185420000Y-114300000D03*
X185420000Y-116840000D03*
X185420000Y-119380000D03*
X185420000Y-121920000D03*
X185420000Y-124460000D03*
D11*
X182880000Y-106680000D03*
D12*
X182880000Y-109220000D03*
X182880000Y-111760000D03*
X182880000Y-114300000D03*
X182880000Y-116840000D03*
X182880000Y-119380000D03*
X182880000Y-121920000D03*
X182880000Y-124460000D03*
D11*
X180340000Y-106680000D03*
D12*
X180340000Y-109220000D03*
X180340000Y-111760000D03*
X180340000Y-114300000D03*
X180340000Y-116840000D03*
X180340000Y-119380000D03*
X180340000Y-121920000D03*
X180340000Y-124460000D03*
D11*
X177800000Y-106680000D03*
D12*
X177800000Y-109220000D03*
X177800000Y-111760000D03*
X177800000Y-114300000D03*
X177800000Y-116840000D03*
X177800000Y-119380000D03*
X177800000Y-121920000D03*
X177800000Y-124460000D03*
D11*
X205740000Y-106680000D03*
D12*
X205740000Y-109220000D03*
X205740000Y-111760000D03*
X205740000Y-114300000D03*
X205740000Y-116840000D03*
D11*
X172720000Y-106680000D03*
D12*
X172720000Y-109220000D03*
X172720000Y-111760000D03*
X172720000Y-114300000D03*
X172720000Y-116840000D03*
D11*
X203200000Y-106680000D03*
D12*
X203200000Y-109220000D03*
X203200000Y-111760000D03*
X203200000Y-114300000D03*
X203200000Y-116840000D03*
X203200000Y-119380000D03*
X203200000Y-121920000D03*
D11*
X200660000Y-106680000D03*
D12*
X200660000Y-109220000D03*
X200660000Y-111760000D03*
X200660000Y-114300000D03*
X200660000Y-116840000D03*
X200660000Y-119380000D03*
X200660000Y-121920000D03*
X200660000Y-124460000D03*
D11*
X203200000Y-96520000D03*
D12*
X203200000Y-99060000D03*
X203200000Y-101600000D03*
X203200000Y-104140000D03*
D14*
X172720000Y-109220000D02*
X172720000Y-106680000D01*
X172720000Y-111760000D02*
X172720000Y-109220000D01*
X172720000Y-114300000D02*
X172720000Y-111760000D01*
X172720000Y-116840000D02*
X172720000Y-114300000D01*
X203200000Y-106680000D02*
X203200000Y-109220000D01*
X203200000Y-111760000D02*
X203200000Y-109220000D01*
X203200000Y-114300000D02*
X203200000Y-111760000D01*
X203200000Y-116840000D02*
X203200000Y-114300000D01*
X203200000Y-119380000D02*
X203200000Y-116840000D01*
X203200000Y-119380000D02*
X203200000Y-121920000D01*
X175260000Y-99060000D02*
X175260000Y-96520000D01*
X175260000Y-101600000D02*
X175260000Y-99060000D01*
X175260000Y-104140000D02*
X175260000Y-101600000D01*
X208280000Y-106680000D02*
X208280000Y-109220000D01*
X208280000Y-111760000D02*
X208280000Y-109220000D01*
X208280000Y-114300000D02*
X208280000Y-111760000D01*
X200660000Y-106680000D02*
X200660000Y-109220000D01*
X200660000Y-111760000D02*
X200660000Y-109220000D01*
X200660000Y-114300000D02*
X200660000Y-111760000D01*
X200660000Y-116840000D02*
X200660000Y-114300000D01*
X200660000Y-119380000D02*
X200660000Y-116840000D01*
X200660000Y-124460000D02*
X200660000Y-121920000D01*
X200660000Y-119380000D02*
X200660000Y-121920000D01*
X203200000Y-99060000D02*
X203200000Y-96520000D01*
X203200000Y-101600000D02*
X203200000Y-99060000D01*
X203200000Y-104140000D02*
X203200000Y-101600000D01*
X205740000Y-104140000D02*
X205740000Y-101600000D01*
X172720000Y-104140000D02*
X172720000Y-101600000D01*
X175260000Y-109220000D02*
X175260000Y-106680000D01*
X175260000Y-114300000D02*
X175260000Y-111760000D01*
X175260000Y-111760000D02*
X175260000Y-109220000D01*
X175260000Y-116840000D02*
X175260000Y-114300000D01*
X175260000Y-119380000D02*
X175260000Y-116840000D01*
X170180000Y-109220000D02*
X170180000Y-106680000D01*
X170180000Y-111760000D02*
X170180000Y-109220000D01*
X185420000Y-106680000D02*
X185420000Y-109220000D01*
X185420000Y-116840000D02*
X185420000Y-119380000D01*
X185420000Y-116840000D02*
X185420000Y-114300000D01*
X185420000Y-111760000D02*
X185420000Y-109220000D01*
X185420000Y-114300000D02*
X185420000Y-111760000D01*
X185420000Y-121920000D02*
X185420000Y-124460000D01*
X185420000Y-121920000D02*
X185420000Y-119380000D01*
X182880000Y-109220000D02*
X182880000Y-106680000D01*
X182880000Y-114300000D02*
X182880000Y-111760000D01*
X182880000Y-111760000D02*
X182880000Y-109220000D01*
X182880000Y-114300000D02*
X182880000Y-116840000D01*
X182880000Y-119380000D02*
X182880000Y-116840000D01*
X182880000Y-124460000D02*
X182880000Y-121920000D01*
X182880000Y-121920000D02*
X182880000Y-119380000D01*
X180340000Y-109220000D02*
X180340000Y-106680000D01*
X180340000Y-111760000D02*
X180340000Y-109220000D01*
X180340000Y-114300000D02*
X180340000Y-111760000D01*
X180340000Y-116840000D02*
X180340000Y-114300000D01*
X180340000Y-119380000D02*
X180340000Y-116840000D01*
X180340000Y-121920000D02*
X180340000Y-119380000D01*
X180340000Y-124460000D02*
X180340000Y-121920000D01*
X177800000Y-106680000D02*
X177800000Y-109220000D01*
X177800000Y-111760000D02*
X177800000Y-109220000D01*
X177800000Y-114300000D02*
X177800000Y-111760000D01*
X177800000Y-116840000D02*
X177800000Y-114300000D01*
X177800000Y-119380000D02*
X177800000Y-116840000D01*
X177800000Y-121920000D02*
X177800000Y-119380000D01*
X177800000Y-124460000D02*
X177800000Y-121920000D01*
X190500000Y-91440000D02*
X190500000Y-88900000D01*
X190500000Y-93980000D02*
X190500000Y-91440000D01*
X190500000Y-96520000D02*
X190500000Y-93980000D01*
X190500000Y-101600000D02*
X190500000Y-99060000D01*
X190500000Y-99060000D02*
X190500000Y-96520000D01*
X190500000Y-104140000D02*
X190500000Y-101600000D01*
X193040000Y-91440000D02*
X193040000Y-88900000D01*
X193040000Y-93980000D02*
X193040000Y-91440000D01*
X193040000Y-93980000D02*
X193040000Y-96520000D01*
X193040000Y-96520000D02*
X193040000Y-99060000D01*
X193040000Y-101600000D02*
X193040000Y-99060000D01*
X193040000Y-104140000D02*
X193040000Y-101600000D01*
X195580000Y-91440000D02*
X195580000Y-93980000D01*
X195580000Y-88900000D02*
X195580000Y-91440000D01*
X195580000Y-99060000D02*
X195580000Y-101600000D01*
X195580000Y-96520000D02*
X195580000Y-99060000D01*
X195580000Y-93980000D02*
X195580000Y-96520000D01*
X195580000Y-104140000D02*
X195580000Y-101600000D01*
X198120000Y-91440000D02*
X198120000Y-88900000D01*
X198120000Y-93980000D02*
X198120000Y-91440000D01*
X198120000Y-96520000D02*
X198120000Y-93980000D01*
X198120000Y-99060000D02*
X198120000Y-96520000D01*
X198120000Y-101600000D02*
X198120000Y-99060000D01*
X198120000Y-104140000D02*
X198120000Y-101600000D01*
X200660000Y-91440000D02*
X200660000Y-88900000D01*
X200660000Y-93980000D02*
X200660000Y-91440000D01*
X200660000Y-99060000D02*
X200660000Y-101600000D01*
X200660000Y-96520000D02*
X200660000Y-99060000D01*
X200660000Y-93980000D02*
X200660000Y-96520000D01*
X200660000Y-104140000D02*
X200660000Y-101600000D01*
X187960000Y-91440000D02*
X187960000Y-88900000D01*
X187960000Y-101600000D02*
X187960000Y-99060000D01*
X187960000Y-99060000D02*
X187960000Y-96520000D01*
X187960000Y-93980000D02*
X187960000Y-91440000D01*
X187960000Y-96520000D02*
X187960000Y-93980000D01*
X187960000Y-104140000D02*
X187960000Y-101600000D01*
X198120000Y-106680000D02*
X198120000Y-109220000D01*
X198120000Y-111760000D02*
X198120000Y-109220000D01*
X198120000Y-114300000D02*
X198120000Y-111760000D01*
X198120000Y-116840000D02*
X198120000Y-114300000D01*
X198120000Y-119380000D02*
X198120000Y-116840000D01*
X198120000Y-119380000D02*
X198120000Y-121920000D01*
X195580000Y-106680000D02*
X195580000Y-109220000D01*
X195580000Y-111760000D02*
X195580000Y-109220000D01*
X195580000Y-114300000D02*
X195580000Y-111760000D01*
X195580000Y-114300000D02*
X195580000Y-116840000D01*
X195580000Y-119380000D02*
X195580000Y-116840000D01*
X195580000Y-121920000D02*
X195580000Y-119380000D01*
X177800000Y-91440000D02*
X177800000Y-88900000D01*
X177800000Y-93980000D02*
X177800000Y-91440000D01*
X177800000Y-96520000D02*
X177800000Y-93980000D01*
X177800000Y-99060000D02*
X177800000Y-96520000D01*
X177800000Y-101600000D02*
X177800000Y-99060000D01*
X177800000Y-104140000D02*
X177800000Y-101600000D01*
X180340000Y-91440000D02*
X180340000Y-88900000D01*
X180340000Y-93980000D02*
X180340000Y-91440000D01*
X180340000Y-96520000D02*
X180340000Y-93980000D01*
X180340000Y-99060000D02*
X180340000Y-96520000D01*
X180340000Y-101600000D02*
X180340000Y-99060000D01*
X180340000Y-104140000D02*
X180340000Y-101600000D01*
X182880000Y-91440000D02*
X182880000Y-88900000D01*
X182880000Y-93980000D02*
X182880000Y-91440000D01*
X182880000Y-96520000D02*
X182880000Y-93980000D01*
X182880000Y-99060000D02*
X182880000Y-96520000D01*
X182880000Y-101600000D02*
X182880000Y-99060000D01*
X182880000Y-104140000D02*
X182880000Y-101600000D01*
X185420000Y-91440000D02*
X185420000Y-88900000D01*
X185420000Y-93980000D02*
X185420000Y-91440000D01*
X185420000Y-96520000D02*
X185420000Y-93980000D01*
X185420000Y-99060000D02*
X185420000Y-96520000D01*
X185420000Y-101600000D02*
X185420000Y-99060000D01*
X185420000Y-104140000D02*
X185420000Y-101600000D01*
X187960000Y-109220000D02*
X187960000Y-106680000D01*
X187960000Y-111760000D02*
X187960000Y-109220000D01*
X187960000Y-114300000D02*
X187960000Y-111760000D01*
X187960000Y-116840000D02*
X187960000Y-114300000D01*
X187960000Y-119380000D02*
X187960000Y-116840000D01*
X187960000Y-121920000D02*
X187960000Y-119380000D01*
X190500000Y-119380000D02*
X190500000Y-121920000D01*
X190500000Y-116840000D02*
X190500000Y-119380000D01*
X190500000Y-114300000D02*
X190500000Y-116840000D01*
X190500000Y-111760000D02*
X190500000Y-114300000D01*
X190500000Y-109220000D02*
X190500000Y-111760000D01*
X190500000Y-106680000D02*
X190500000Y-109220000D01*
X193040000Y-121920000D02*
X193040000Y-119380000D01*
X193040000Y-119380000D02*
X193040000Y-116840000D01*
X193040000Y-116840000D02*
X193040000Y-114300000D01*
X193040000Y-114300000D02*
X193040000Y-111760000D01*
X193040000Y-111760000D02*
X193040000Y-109220000D01*
X193040000Y-109220000D02*
X193040000Y-106680000D01*
X205740000Y-106680000D02*
X205740000Y-109220000D01*
X205740000Y-111760000D02*
X205740000Y-109220000D01*
X205740000Y-114300000D02*
X205740000Y-111760000D01*
X205740000Y-116840000D02*
X205740000Y-114300000D01*
M02*
