G04 #@! TF.FileFunction,Other,ECO1*
%FSLAX46Y46*%
G04 Gerber Fmt 4.6, Leading zero omitted, Abs format (unit mm)*
G04 Created by KiCad (PCBNEW 4.0.7-e2-6376~58~ubuntu14.04.1) date Sat Apr 21 17:00:56 2018*
%MOMM*%
%LPD*%
G01*
G04 APERTURE LIST*
%ADD10C,0.100000*%
%ADD11C,0.300000*%
G04 APERTURE END LIST*
D10*
D11*
X182460001Y-141744570D02*
X182460001Y-142744570D01*
X182102858Y-141173142D02*
X181745715Y-142244570D01*
X182674287Y-142244570D01*
X183960001Y-141244570D02*
X183245715Y-141244570D01*
X183174286Y-141958856D01*
X183245715Y-141887428D01*
X183388572Y-141815999D01*
X183745715Y-141815999D01*
X183888572Y-141887428D01*
X183960001Y-141958856D01*
X184031429Y-142101713D01*
X184031429Y-142458856D01*
X183960001Y-142601713D01*
X183888572Y-142673142D01*
X183745715Y-142744570D01*
X183388572Y-142744570D01*
X183245715Y-142673142D01*
X183174286Y-142601713D01*
X184674286Y-142601713D02*
X184745714Y-142673142D01*
X184674286Y-142744570D01*
X184602857Y-142673142D01*
X184674286Y-142601713D01*
X184674286Y-142744570D01*
X185245715Y-141244570D02*
X186245715Y-141244570D01*
X185602858Y-142744570D01*
X186745714Y-141387428D02*
X186817143Y-141315999D01*
X186960000Y-141244570D01*
X187317143Y-141244570D01*
X187460000Y-141315999D01*
X187531429Y-141387428D01*
X187602857Y-141530285D01*
X187602857Y-141673142D01*
X187531429Y-141887428D01*
X186674286Y-142744570D01*
X187602857Y-142744570D01*
X188531428Y-141244570D02*
X188674285Y-141244570D01*
X188817142Y-141315999D01*
X188888571Y-141387428D01*
X188960000Y-141530285D01*
X189031428Y-141815999D01*
X189031428Y-142173142D01*
X188960000Y-142458856D01*
X188888571Y-142601713D01*
X188817142Y-142673142D01*
X188674285Y-142744570D01*
X188531428Y-142744570D01*
X188388571Y-142673142D01*
X188317142Y-142601713D01*
X188245714Y-142458856D01*
X188174285Y-142173142D01*
X188174285Y-141815999D01*
X188245714Y-141530285D01*
X188317142Y-141387428D01*
X188388571Y-141315999D01*
X188531428Y-141244570D01*
X190817142Y-142744570D02*
X190817142Y-141744570D01*
X190817142Y-141887428D02*
X190888570Y-141815999D01*
X191031428Y-141744570D01*
X191245713Y-141744570D01*
X191388570Y-141815999D01*
X191459999Y-141958856D01*
X191459999Y-142744570D01*
X191459999Y-141958856D02*
X191531428Y-141815999D01*
X191674285Y-141744570D01*
X191888570Y-141744570D01*
X192031428Y-141815999D01*
X192102856Y-141958856D01*
X192102856Y-142744570D01*
X192817142Y-142744570D02*
X192817142Y-141744570D01*
X192817142Y-141887428D02*
X192888570Y-141815999D01*
X193031428Y-141744570D01*
X193245713Y-141744570D01*
X193388570Y-141815999D01*
X193459999Y-141958856D01*
X193459999Y-142744570D01*
X193459999Y-141958856D02*
X193531428Y-141815999D01*
X193674285Y-141744570D01*
X193888570Y-141744570D01*
X194031428Y-141815999D01*
X194102856Y-141958856D01*
X194102856Y-142744570D01*
X165100000Y-140715999D02*
X210820000Y-140715999D01*
X165100000Y-134620000D02*
X165100000Y-143415999D01*
X210820000Y-134620000D02*
X210820000Y-143415999D01*
X210820000Y-140715999D02*
X209693496Y-141302420D01*
X210820000Y-140715999D02*
X209693496Y-140129578D01*
X165100000Y-140715999D02*
X166226504Y-141302420D01*
X165100000Y-140715999D02*
X166226504Y-140129578D01*
X156877923Y-110909999D02*
X157877923Y-110909999D01*
X156306495Y-111267142D02*
X157377923Y-111624285D01*
X157377923Y-110695713D01*
X156377923Y-110267142D02*
X156377923Y-109338571D01*
X156949352Y-109838571D01*
X156949352Y-109624285D01*
X157020781Y-109481428D01*
X157092209Y-109409999D01*
X157235066Y-109338571D01*
X157592209Y-109338571D01*
X157735066Y-109409999D01*
X157806495Y-109481428D01*
X157877923Y-109624285D01*
X157877923Y-110052857D01*
X157806495Y-110195714D01*
X157735066Y-110267142D01*
X157735066Y-108695714D02*
X157806495Y-108624286D01*
X157877923Y-108695714D01*
X157806495Y-108767143D01*
X157735066Y-108695714D01*
X157877923Y-108695714D01*
X157877923Y-107195714D02*
X157877923Y-108052857D01*
X157877923Y-107624285D02*
X156377923Y-107624285D01*
X156592209Y-107767142D01*
X156735066Y-107910000D01*
X156806495Y-108052857D01*
X157020781Y-106338571D02*
X156949352Y-106481429D01*
X156877923Y-106552857D01*
X156735066Y-106624286D01*
X156663638Y-106624286D01*
X156520781Y-106552857D01*
X156449352Y-106481429D01*
X156377923Y-106338571D01*
X156377923Y-106052857D01*
X156449352Y-105910000D01*
X156520781Y-105838571D01*
X156663638Y-105767143D01*
X156735066Y-105767143D01*
X156877923Y-105838571D01*
X156949352Y-105910000D01*
X157020781Y-106052857D01*
X157020781Y-106338571D01*
X157092209Y-106481429D01*
X157163638Y-106552857D01*
X157306495Y-106624286D01*
X157592209Y-106624286D01*
X157735066Y-106552857D01*
X157806495Y-106481429D01*
X157877923Y-106338571D01*
X157877923Y-106052857D01*
X157806495Y-105910000D01*
X157735066Y-105838571D01*
X157592209Y-105767143D01*
X157306495Y-105767143D01*
X157163638Y-105838571D01*
X157092209Y-105910000D01*
X157020781Y-106052857D01*
X156377923Y-104838572D02*
X156377923Y-104695715D01*
X156449352Y-104552858D01*
X156520781Y-104481429D01*
X156663638Y-104410000D01*
X156949352Y-104338572D01*
X157306495Y-104338572D01*
X157592209Y-104410000D01*
X157735066Y-104481429D01*
X157806495Y-104552858D01*
X157877923Y-104695715D01*
X157877923Y-104838572D01*
X157806495Y-104981429D01*
X157735066Y-105052858D01*
X157592209Y-105124286D01*
X157306495Y-105195715D01*
X156949352Y-105195715D01*
X156663638Y-105124286D01*
X156520781Y-105052858D01*
X156449352Y-104981429D01*
X156377923Y-104838572D01*
X157877923Y-102552858D02*
X156877923Y-102552858D01*
X157020781Y-102552858D02*
X156949352Y-102481430D01*
X156877923Y-102338572D01*
X156877923Y-102124287D01*
X156949352Y-101981430D01*
X157092209Y-101910001D01*
X157877923Y-101910001D01*
X157092209Y-101910001D02*
X156949352Y-101838572D01*
X156877923Y-101695715D01*
X156877923Y-101481430D01*
X156949352Y-101338572D01*
X157092209Y-101267144D01*
X157877923Y-101267144D01*
X157877923Y-100552858D02*
X156877923Y-100552858D01*
X157020781Y-100552858D02*
X156949352Y-100481430D01*
X156877923Y-100338572D01*
X156877923Y-100124287D01*
X156949352Y-99981430D01*
X157092209Y-99910001D01*
X157877923Y-99910001D01*
X157092209Y-99910001D02*
X156949352Y-99838572D01*
X156877923Y-99695715D01*
X156877923Y-99481430D01*
X156949352Y-99338572D01*
X157092209Y-99267144D01*
X157877923Y-99267144D01*
X158549352Y-127000000D02*
X158549352Y-83820000D01*
X165100000Y-127000000D02*
X155849352Y-127000000D01*
X165100000Y-83820000D02*
X155849352Y-83820000D01*
X158549352Y-83820000D02*
X159135773Y-84946504D01*
X158549352Y-83820000D02*
X157962931Y-84946504D01*
X158549352Y-127000000D02*
X159135773Y-125873496D01*
X158549352Y-127000000D02*
X157962931Y-125873496D01*
M02*
