<?xml version="1.0" standalone="no"?>
 <!DOCTYPE svg PUBLIC "-//W3C//DTD SVG 1.1//EN" 
 "http://www.w3.org/Graphics/SVG/1.1/DTD/svg11.dtd"> 
<svg
  xmlns:svg="http://www.w3.org/2000/svg"
  xmlns="http://www.w3.org/2000/svg"
  xmlns:xlink="http://www.w3.org/1999/xlink"
  version="1.1"
  width="5.499100cm" height="2.799080cm" viewBox="0 0 21650 11020">
<title>SVG Picture created as linefollower-brd.svg date 2020/08/24 16:19:14 </title>
  <desc>Picture generated by PCBNEW </desc>
<g style="fill:#000000; fill-opacity:1;stroke:#000000; stroke-opacity:1;
stroke-linecap:round; stroke-linejoin:round;"
 transform="translate(0 0) scale(1 1)">
</g>
<g style="fill:#000000; fill-opacity:0.0; 
stroke:#000000; stroke-width:-0.000393701; stroke-opacity:1; 
stroke-linecap:round; stroke-linejoin:round;">
<g >
</g>
<g >
</g>
<g >
</g>
<g >
</g>
<g >
</g>
<g >
</g>
<g >
</g>
</g>
<g style="fill:#000000; fill-opacity:0.0; 
stroke:#000000; stroke-width:-0.000393701; stroke-opacity:1; 
stroke-linecap:round; stroke-linejoin:round;">
<g >
</g>
<g >
</g>
<g >
</g>
<g >
</g>
<g >
</g>
<g >
</g>
<g >
</g>
</g>
<g style="fill:#000000; fill-opacity:0.0; 
stroke:#000000; stroke-width:-0.000393701; stroke-opacity:1; 
stroke-linecap:round; stroke-linejoin:round;">
<g >
</g>
<g >
</g>
<g style="fill:#848400; fill-opacity:0.0; 
stroke:#848400; stroke-width:-0.000393701; stroke-opacity:1; 
stroke-linecap:round; stroke-linejoin:round;">
</g>
<g style="fill:#848400; fill-opacity:0.0; 
stroke:#848400; stroke-width:0; stroke-opacity:1; 
stroke-linecap:round; stroke-linejoin:round;">
</g>
<g style="fill:#848400; fill-opacity:1.0; 
stroke:#848400; stroke-width:0; stroke-opacity:1; 
stroke-linecap:round; stroke-linejoin:round;">
<path style="fill:#848400; fill-opacity:1.0; 
stroke:#848400; stroke-width:0; stroke-opacity:1; 
stroke-linecap:round; stroke-linejoin:round;fill-rule:evenodd;"
d="M 3940.94,8503.94
3940.94,9173.23
3271.65,9173.23
3271.65,8503.94
Z" /> 
</g>
<g style="fill:#848400; fill-opacity:1.0; 
stroke:#848400; stroke-width:669.291; stroke-opacity:1; 
stroke-linecap:round; stroke-linejoin:round;">
</g>
<g style="fill:#848400; fill-opacity:0.0; 
stroke:#848400; stroke-width:669.291; stroke-opacity:1; 
stroke-linecap:round; stroke-linejoin:round;">
<path d="M3606 7838
L3606 7838
" />
<path d="M3606 6838
L3606 6838
" />
<path d="M3606 5838
L3606 5838
" />
</g>
<g >
</g>
<g >
</g>
<g style="fill:#848400; fill-opacity:0.0; 
stroke:#848400; stroke-width:669.291; stroke-opacity:1; 
stroke-linecap:round; stroke-linejoin:round;">
</g>
<g style="fill:#848400; fill-opacity:0.0; 
stroke:#848400; stroke-width:0; stroke-opacity:1; 
stroke-linecap:round; stroke-linejoin:round;">
</g>
<g style="fill:#848400; fill-opacity:1.0; 
stroke:#848400; stroke-width:0; stroke-opacity:1; 
stroke-linecap:round; stroke-linejoin:round;">
<path style="fill:#848400; fill-opacity:1.0; 
stroke:#848400; stroke-width:0; stroke-opacity:1; 
stroke-linecap:round; stroke-linejoin:round;fill-rule:evenodd;"
d="M 6023.62,5933.07
5354.33,5933.07
5354.33,5263.78
6023.62,5263.78
Z" /> 
</g>
<g style="fill:#848400; fill-opacity:1.0; 
stroke:#848400; stroke-width:669.291; stroke-opacity:1; 
stroke-linecap:round; stroke-linejoin:round;">
</g>
<g style="fill:#848400; fill-opacity:0.0; 
stroke:#848400; stroke-width:669.291; stroke-opacity:1; 
stroke-linecap:round; stroke-linejoin:round;">
<path d="M5688 4598
L5688 4598
" />
<path d="M6688 5598
L6688 5598
" />
<path d="M6688 4598
L6688 4598
" />
<path d="M7688 5598
L7688 5598
" />
<path d="M7688 4598
L7688 4598
" />
</g>
<g >
</g>
<g >
</g>
<g >
</g>
<g style="fill:#C2C2C2; fill-opacity:0.0; 
stroke:#C2C2C2; stroke-width:669.291; stroke-opacity:1; 
stroke-linecap:round; stroke-linejoin:round;">
</g>
<g style="fill:#C2C2C2; fill-opacity:1.0; 
stroke:#C2C2C2; stroke-width:0; stroke-opacity:1; 
stroke-linecap:round; stroke-linejoin:round;">
<circle cx="8279" cy="9571.4" r="334.646" /> 
</g>
<g style="fill:#C2C2C2; fill-opacity:1.0; 
stroke:#C2C2C2; stroke-width:39.3701; stroke-opacity:1; 
stroke-linecap:round; stroke-linejoin:round;">
</g>
<g style="fill:#C2C2C2; fill-opacity:1.0; 
stroke:#C2C2C2; stroke-width:0; stroke-opacity:1; 
stroke-linecap:round; stroke-linejoin:round;">
<circle cx="10515.7" cy="10208.7" r="334.646" /> 
</g>
<g style="fill:#C2C2C2; fill-opacity:1.0; 
stroke:#C2C2C2; stroke-width:39.3701; stroke-opacity:1; 
stroke-linecap:round; stroke-linejoin:round;">
</g>
<g style="fill:#C2C2C2; fill-opacity:1.0; 
stroke:#C2C2C2; stroke-width:0; stroke-opacity:1; 
stroke-linecap:round; stroke-linejoin:round;">
<circle cx="12267.7" cy="4538.58" r="334.646" /> 
</g>
<g style="fill:#C2C2C2; fill-opacity:1.0; 
stroke:#C2C2C2; stroke-width:39.3701; stroke-opacity:1; 
stroke-linecap:round; stroke-linejoin:round;">
</g>
<g style="fill:#C2C2C2; fill-opacity:1.0; 
stroke:#C2C2C2; stroke-width:0; stroke-opacity:1; 
stroke-linecap:round; stroke-linejoin:round;">
<circle cx="8671.33" cy="4230.51" r="334.646" /> 
</g>
<g style="fill:#C2C2C2; fill-opacity:1.0; 
stroke:#C2C2C2; stroke-width:39.3701; stroke-opacity:1; 
stroke-linecap:round; stroke-linejoin:round;">
</g>
<g style="fill:#C2C2C2; fill-opacity:1.0; 
stroke:#C2C2C2; stroke-width:0; stroke-opacity:1; 
stroke-linecap:round; stroke-linejoin:round;">
<circle cx="6647.54" cy="3435.93" r="334.646" /> 
</g>
<g style="fill:#C2C2C2; fill-opacity:1.0; 
stroke:#C2C2C2; stroke-width:39.3701; stroke-opacity:1; 
stroke-linecap:round; stroke-linejoin:round;">
</g>
<g style="fill:#C2C2C2; fill-opacity:1.0; 
stroke:#C2C2C2; stroke-width:0; stroke-opacity:1; 
stroke-linecap:round; stroke-linejoin:round;">
<circle cx="10732.1" cy="3031.23" r="334.646" /> 
</g>
<g style="fill:#C2C2C2; fill-opacity:1.0; 
stroke:#C2C2C2; stroke-width:39.3701; stroke-opacity:1; 
stroke-linecap:round; stroke-linejoin:round;">
</g>
<g style="fill:#C2C2C2; fill-opacity:1.0; 
stroke:#C2C2C2; stroke-width:0; stroke-opacity:1; 
stroke-linecap:round; stroke-linejoin:round;">
<circle cx="7570.88" cy="6746.05" r="334.646" /> 
</g>
<g style="fill:#C2C2C2; fill-opacity:1.0; 
stroke:#C2C2C2; stroke-width:39.3701; stroke-opacity:1; 
stroke-linecap:round; stroke-linejoin:round;">
</g>
<g style="fill:#C2C2C2; fill-opacity:1.0; 
stroke:#C2C2C2; stroke-width:0; stroke-opacity:1; 
stroke-linecap:round; stroke-linejoin:round;">
<circle cx="8116.14" cy="8596.46" r="334.646" /> 
</g>
<g style="fill:#C2C2C2; fill-opacity:1.0; 
stroke:#C2C2C2; stroke-width:39.3701; stroke-opacity:1; 
stroke-linecap:round; stroke-linejoin:round;">
</g>
<g >
</g>
<g style="fill:#008400; fill-opacity:1.0; 
stroke:#008400; stroke-width:39.3701; stroke-opacity:1; 
stroke-linecap:round; stroke-linejoin:round;">
</g>
<g style="fill:#008400; fill-opacity:1.0; 
stroke:#008400; stroke-width:295.276; stroke-opacity:1; 
stroke-linecap:round; stroke-linejoin:round;">
</g>
<g style="fill:#008400; fill-opacity:0.0; 
stroke:#008400; stroke-width:295.276; stroke-opacity:1; 
stroke-linecap:round; stroke-linejoin:round;">
<path d="M8916 10208
L8278 9571
" />
<path d="M10515 10208
L8916 10208
" />
<path d="M8979 4538
L8671 4230
" />
<path d="M12267 4538
L8979 4538
" />
<path d="M6647 3435
L10327 3435
" />
<path d="M10327 3435
L10732 3031
" />
<path d="M7570 8051
L8116 8596
" />
<path d="M7570 6746
L7570 8051
" />
</g>
<g >
</g>
</g>
<g style="fill:#FFFFFF; fill-opacity:0.0; 
stroke:#FFFFFF; stroke-width:295.276; stroke-opacity:1; 
stroke-linecap:round; stroke-linejoin:round;">
</g>
<g style="fill:#FFFFFF; fill-opacity:1.0; 
stroke:#FFFFFF; stroke-width:0; stroke-opacity:1; 
stroke-linecap:round; stroke-linejoin:round;">
<circle cx="8279" cy="9571.4" r="196.85" /> 
</g>
<g style="fill:#FFFFFF; fill-opacity:1.0; 
stroke:#FFFFFF; stroke-width:39.3701; stroke-opacity:1; 
stroke-linecap:round; stroke-linejoin:round;">
</g>
<g style="fill:#FFFFFF; fill-opacity:1.0; 
stroke:#FFFFFF; stroke-width:0; stroke-opacity:1; 
stroke-linecap:round; stroke-linejoin:round;">
<circle cx="10515.7" cy="10208.7" r="196.85" /> 
</g>
<g style="fill:#FFFFFF; fill-opacity:1.0; 
stroke:#FFFFFF; stroke-width:39.3701; stroke-opacity:1; 
stroke-linecap:round; stroke-linejoin:round;">
</g>
<g style="fill:#FFFFFF; fill-opacity:1.0; 
stroke:#FFFFFF; stroke-width:0; stroke-opacity:1; 
stroke-linecap:round; stroke-linejoin:round;">
<circle cx="12267.7" cy="4538.58" r="196.85" /> 
</g>
<g style="fill:#FFFFFF; fill-opacity:1.0; 
stroke:#FFFFFF; stroke-width:39.3701; stroke-opacity:1; 
stroke-linecap:round; stroke-linejoin:round;">
</g>
<g style="fill:#FFFFFF; fill-opacity:1.0; 
stroke:#FFFFFF; stroke-width:0; stroke-opacity:1; 
stroke-linecap:round; stroke-linejoin:round;">
<circle cx="8671.33" cy="4230.51" r="196.85" /> 
</g>
<g style="fill:#FFFFFF; fill-opacity:1.0; 
stroke:#FFFFFF; stroke-width:39.3701; stroke-opacity:1; 
stroke-linecap:round; stroke-linejoin:round;">
</g>
<g style="fill:#FFFFFF; fill-opacity:1.0; 
stroke:#FFFFFF; stroke-width:0; stroke-opacity:1; 
stroke-linecap:round; stroke-linejoin:round;">
<circle cx="6647.54" cy="3435.93" r="196.85" /> 
</g>
<g style="fill:#FFFFFF; fill-opacity:1.0; 
stroke:#FFFFFF; stroke-width:39.3701; stroke-opacity:1; 
stroke-linecap:round; stroke-linejoin:round;">
</g>
<g style="fill:#FFFFFF; fill-opacity:1.0; 
stroke:#FFFFFF; stroke-width:0; stroke-opacity:1; 
stroke-linecap:round; stroke-linejoin:round;">
<circle cx="10732.1" cy="3031.23" r="196.85" /> 
</g>
<g style="fill:#FFFFFF; fill-opacity:1.0; 
stroke:#FFFFFF; stroke-width:39.3701; stroke-opacity:1; 
stroke-linecap:round; stroke-linejoin:round;">
</g>
<g style="fill:#FFFFFF; fill-opacity:1.0; 
stroke:#FFFFFF; stroke-width:0; stroke-opacity:1; 
stroke-linecap:round; stroke-linejoin:round;">
<circle cx="7570.88" cy="6746.05" r="196.85" /> 
</g>
<g style="fill:#FFFFFF; fill-opacity:1.0; 
stroke:#FFFFFF; stroke-width:39.3701; stroke-opacity:1; 
stroke-linecap:round; stroke-linejoin:round;">
</g>
<g style="fill:#FFFFFF; fill-opacity:1.0; 
stroke:#FFFFFF; stroke-width:0; stroke-opacity:1; 
stroke-linecap:round; stroke-linejoin:round;">
<circle cx="8116.14" cy="8596.46" r="196.85" /> 
</g>
<g style="fill:#FFFFFF; fill-opacity:1.0; 
stroke:#FFFFFF; stroke-width:39.3701; stroke-opacity:1; 
stroke-linecap:round; stroke-linejoin:round;">
</g>
<g style="fill:#FFFFFF; fill-opacity:1.0; 
stroke:#FFFFFF; stroke-width:0; stroke-opacity:1; 
stroke-linecap:round; stroke-linejoin:round;">
<circle cx="3606.3" cy="8838.58" r="196.85" /> 
</g>
<g style="fill:#FFFFFF; fill-opacity:1.0; 
stroke:#FFFFFF; stroke-width:39.3701; stroke-opacity:1; 
stroke-linecap:round; stroke-linejoin:round;">
</g>
<g style="fill:#FFFFFF; fill-opacity:1.0; 
stroke:#FFFFFF; stroke-width:0; stroke-opacity:1; 
stroke-linecap:round; stroke-linejoin:round;">
<circle cx="3606.3" cy="7838.58" r="196.85" /> 
</g>
<g style="fill:#FFFFFF; fill-opacity:1.0; 
stroke:#FFFFFF; stroke-width:39.3701; stroke-opacity:1; 
stroke-linecap:round; stroke-linejoin:round;">
</g>
<g style="fill:#FFFFFF; fill-opacity:1.0; 
stroke:#FFFFFF; stroke-width:0; stroke-opacity:1; 
stroke-linecap:round; stroke-linejoin:round;">
<circle cx="3606.3" cy="6838.58" r="196.85" /> 
</g>
<g style="fill:#FFFFFF; fill-opacity:1.0; 
stroke:#FFFFFF; stroke-width:39.3701; stroke-opacity:1; 
stroke-linecap:round; stroke-linejoin:round;">
</g>
<g style="fill:#FFFFFF; fill-opacity:1.0; 
stroke:#FFFFFF; stroke-width:0; stroke-opacity:1; 
stroke-linecap:round; stroke-linejoin:round;">
<circle cx="3606.3" cy="5838.58" r="196.85" /> 
</g>
<g style="fill:#FFFFFF; fill-opacity:1.0; 
stroke:#FFFFFF; stroke-width:39.3701; stroke-opacity:1; 
stroke-linecap:round; stroke-linejoin:round;">
</g>
<g style="fill:#FFFFFF; fill-opacity:1.0; 
stroke:#FFFFFF; stroke-width:0; stroke-opacity:1; 
stroke-linecap:round; stroke-linejoin:round;">
<circle cx="5688.98" cy="5598.43" r="196.85" /> 
</g>
<g style="fill:#FFFFFF; fill-opacity:1.0; 
stroke:#FFFFFF; stroke-width:39.3701; stroke-opacity:1; 
stroke-linecap:round; stroke-linejoin:round;">
</g>
<g style="fill:#FFFFFF; fill-opacity:1.0; 
stroke:#FFFFFF; stroke-width:0; stroke-opacity:1; 
stroke-linecap:round; stroke-linejoin:round;">
<circle cx="5688.98" cy="4598.43" r="196.85" /> 
</g>
<g style="fill:#FFFFFF; fill-opacity:1.0; 
stroke:#FFFFFF; stroke-width:39.3701; stroke-opacity:1; 
stroke-linecap:round; stroke-linejoin:round;">
</g>
<g style="fill:#FFFFFF; fill-opacity:1.0; 
stroke:#FFFFFF; stroke-width:0; stroke-opacity:1; 
stroke-linecap:round; stroke-linejoin:round;">
<circle cx="6688.98" cy="5598.43" r="196.85" /> 
</g>
<g style="fill:#FFFFFF; fill-opacity:1.0; 
stroke:#FFFFFF; stroke-width:39.3701; stroke-opacity:1; 
stroke-linecap:round; stroke-linejoin:round;">
</g>
<g style="fill:#FFFFFF; fill-opacity:1.0; 
stroke:#FFFFFF; stroke-width:0; stroke-opacity:1; 
stroke-linecap:round; stroke-linejoin:round;">
<circle cx="6688.98" cy="4598.43" r="196.85" /> 
</g>
<g style="fill:#FFFFFF; fill-opacity:1.0; 
stroke:#FFFFFF; stroke-width:39.3701; stroke-opacity:1; 
stroke-linecap:round; stroke-linejoin:round;">
</g>
<g style="fill:#FFFFFF; fill-opacity:1.0; 
stroke:#FFFFFF; stroke-width:0; stroke-opacity:1; 
stroke-linecap:round; stroke-linejoin:round;">
<circle cx="7688.98" cy="5598.43" r="196.85" /> 
</g>
<g style="fill:#FFFFFF; fill-opacity:1.0; 
stroke:#FFFFFF; stroke-width:39.3701; stroke-opacity:1; 
stroke-linecap:round; stroke-linejoin:round;">
</g>
<g style="fill:#FFFFFF; fill-opacity:1.0; 
stroke:#FFFFFF; stroke-width:0; stroke-opacity:1; 
stroke-linecap:round; stroke-linejoin:round;">
<circle cx="7688.98" cy="4598.43" r="196.85" /> 
</g>
<g style="fill:#FFFFFF; fill-opacity:1.0; 
stroke:#FFFFFF; stroke-width:39.3701; stroke-opacity:1; 
stroke-linecap:round; stroke-linejoin:round;">
</g>
<g style="fill:#000000; fill-opacity:1.0; 
stroke:#000000; stroke-width:39.3701; stroke-opacity:1; 
stroke-linecap:round; stroke-linejoin:round;">
<g >
</g>
<g style="fill:#840000; fill-opacity:1.0; 
stroke:#840000; stroke-width:39.3701; stroke-opacity:1; 
stroke-linecap:round; stroke-linejoin:round;">
</g>
<g style="fill:#840000; fill-opacity:1.0; 
stroke:#840000; stroke-width:0; stroke-opacity:1; 
stroke-linecap:round; stroke-linejoin:round;">
<path style="fill:#840000; fill-opacity:1.0; 
stroke:#840000; stroke-width:0; stroke-opacity:1; 
stroke-linecap:round; stroke-linejoin:round;fill-rule:evenodd;"
d="M 16606.3,4165.35
17629.9,4165.35
17629.9,4480.31
16606.3,4480.31
Z" /> 
<path style="fill:#840000; fill-opacity:1.0; 
stroke:#840000; stroke-width:0; stroke-opacity:1; 
stroke-linecap:round; stroke-linejoin:round;fill-rule:evenodd;"
d="M 15267.7,4165.35
16291.3,4165.35
16291.3,4480.31
15267.7,4480.31
Z" /> 
<path style="fill:#840000; fill-opacity:1.0; 
stroke:#840000; stroke-width:0; stroke-opacity:1; 
stroke-linecap:round; stroke-linejoin:round;fill-rule:evenodd;"
d="M 16606.3,5149.61
17629.9,5149.61
17629.9,5464.57
16606.3,5464.57
Z" /> 
<path style="fill:#840000; fill-opacity:1.0; 
stroke:#840000; stroke-width:0; stroke-opacity:1; 
stroke-linecap:round; stroke-linejoin:round;fill-rule:evenodd;"
d="M 15267.7,5149.61
16291.3,5149.61
16291.3,5464.57
15267.7,5464.57
Z" /> 
<path style="fill:#840000; fill-opacity:1.0; 
stroke:#840000; stroke-width:0; stroke-opacity:1; 
stroke-linecap:round; stroke-linejoin:round;fill-rule:evenodd;"
d="M 16606.3,6133.86
17629.9,6133.86
17629.9,6448.82
16606.3,6448.82
Z" /> 
<path style="fill:#840000; fill-opacity:1.0; 
stroke:#840000; stroke-width:0; stroke-opacity:1; 
stroke-linecap:round; stroke-linejoin:round;fill-rule:evenodd;"
d="M 15267.7,6133.86
16291.3,6133.86
16291.3,6448.82
15267.7,6448.82
Z" /> 
<path style="fill:#840000; fill-opacity:1.0; 
stroke:#840000; stroke-width:0; stroke-opacity:1; 
stroke-linecap:round; stroke-linejoin:round;fill-rule:evenodd;"
d="M 16606.3,7118.11
17629.9,7118.11
17629.9,7433.07
16606.3,7433.07
Z" /> 
<path style="fill:#840000; fill-opacity:1.0; 
stroke:#840000; stroke-width:0; stroke-opacity:1; 
stroke-linecap:round; stroke-linejoin:round;fill-rule:evenodd;"
d="M 15267.7,7118.11
16291.3,7118.11
16291.3,7433.07
15267.7,7433.07
Z" /> 
</g>
<g >
</g>
<g style="fill:#848400; fill-opacity:1.0; 
stroke:#848400; stroke-width:0; stroke-opacity:1; 
stroke-linecap:round; stroke-linejoin:round;">
<path style="fill:#848400; fill-opacity:1.0; 
stroke:#848400; stroke-width:0; stroke-opacity:1; 
stroke-linecap:round; stroke-linejoin:round;fill-rule:evenodd;"
d="M 3940.94,8503.94
3940.94,9173.23
3271.65,9173.23
3271.65,8503.94
Z" /> 
</g>
<g style="fill:#848400; fill-opacity:1.0; 
stroke:#848400; stroke-width:669.291; stroke-opacity:1; 
stroke-linecap:round; stroke-linejoin:round;">
</g>
<g style="fill:#848400; fill-opacity:0.0; 
stroke:#848400; stroke-width:669.291; stroke-opacity:1; 
stroke-linecap:round; stroke-linejoin:round;">
<path d="M3606 7838
L3606 7838
" />
<path d="M3606 6838
L3606 6838
" />
<path d="M3606 5838
L3606 5838
" />
</g>
<g >
</g>
<g style="fill:#840000; fill-opacity:0.0; 
stroke:#840000; stroke-width:669.291; stroke-opacity:1; 
stroke-linecap:round; stroke-linejoin:round;">
</g>
<g style="fill:#840000; fill-opacity:0.0; 
stroke:#840000; stroke-width:0; stroke-opacity:1; 
stroke-linecap:round; stroke-linejoin:round;">
</g>
<g style="fill:#840000; fill-opacity:1.0; 
stroke:#840000; stroke-width:0; stroke-opacity:1; 
stroke-linecap:round; stroke-linejoin:round;">
<path style="fill:#840000; fill-opacity:1.0; 
stroke:#840000; stroke-width:0; stroke-opacity:1; 
stroke-linecap:round; stroke-linejoin:round;fill-rule:evenodd;"
d="M 9816.93,8968.5
9561.02,8968.5
9561.02,8299.21
9816.93,8299.21
Z" /> 
<path style="fill:#840000; fill-opacity:1.0; 
stroke:#840000; stroke-width:0; stroke-opacity:1; 
stroke-linecap:round; stroke-linejoin:round;fill-rule:evenodd;"
d="M 10316.9,8968.5
10061,8968.5
10061,8299.21
10316.9,8299.21
Z" /> 
<path style="fill:#840000; fill-opacity:1.0; 
stroke:#840000; stroke-width:0; stroke-opacity:1; 
stroke-linecap:round; stroke-linejoin:round;fill-rule:evenodd;"
d="M 10816.9,8968.5
10561,8968.5
10561,8299.21
10816.9,8299.21
Z" /> 
<path style="fill:#840000; fill-opacity:1.0; 
stroke:#840000; stroke-width:0; stroke-opacity:1; 
stroke-linecap:round; stroke-linejoin:round;fill-rule:evenodd;"
d="M 11316.9,8968.5
11061,8968.5
11061,8299.21
11316.9,8299.21
Z" /> 
<path style="fill:#840000; fill-opacity:1.0; 
stroke:#840000; stroke-width:0; stroke-opacity:1; 
stroke-linecap:round; stroke-linejoin:round;fill-rule:evenodd;"
d="M 11316.9,6094.49
11061,6094.49
11061,5425.2
11316.9,5425.2
Z" /> 
<path style="fill:#840000; fill-opacity:1.0; 
stroke:#840000; stroke-width:0; stroke-opacity:1; 
stroke-linecap:round; stroke-linejoin:round;fill-rule:evenodd;"
d="M 10816.9,6094.49
10561,6094.49
10561,5425.2
10816.9,5425.2
Z" /> 
<path style="fill:#840000; fill-opacity:1.0; 
stroke:#840000; stroke-width:0; stroke-opacity:1; 
stroke-linecap:round; stroke-linejoin:round;fill-rule:evenodd;"
d="M 10316.9,6094.49
10061,6094.49
10061,5425.2
10316.9,5425.2
Z" /> 
<path style="fill:#840000; fill-opacity:1.0; 
stroke:#840000; stroke-width:0; stroke-opacity:1; 
stroke-linecap:round; stroke-linejoin:round;fill-rule:evenodd;"
d="M 9816.93,6094.49
9561.02,6094.49
9561.02,5425.2
9816.93,5425.2
Z" /> 
</g>
<g >
</g>
<g style="fill:#848400; fill-opacity:1.0; 
stroke:#848400; stroke-width:0; stroke-opacity:1; 
stroke-linecap:round; stroke-linejoin:round;">
<path style="fill:#848400; fill-opacity:1.0; 
stroke:#848400; stroke-width:0; stroke-opacity:1; 
stroke-linecap:round; stroke-linejoin:round;fill-rule:evenodd;"
d="M 6023.62,5933.07
5354.33,5933.07
5354.33,5263.78
6023.62,5263.78
Z" /> 
</g>
<g style="fill:#848400; fill-opacity:1.0; 
stroke:#848400; stroke-width:669.291; stroke-opacity:1; 
stroke-linecap:round; stroke-linejoin:round;">
</g>
<g style="fill:#848400; fill-opacity:0.0; 
stroke:#848400; stroke-width:669.291; stroke-opacity:1; 
stroke-linecap:round; stroke-linejoin:round;">
<path d="M5688 4598
L5688 4598
" />
<path d="M6688 5598
L6688 5598
" />
<path d="M6688 4598
L6688 4598
" />
<path d="M7688 5598
L7688 5598
" />
<path d="M7688 4598
L7688 4598
" />
</g>
<g >
</g>
<g style="fill:#840000; fill-opacity:0.0; 
stroke:#840000; stroke-width:669.291; stroke-opacity:1; 
stroke-linecap:round; stroke-linejoin:round;">
</g>
<g style="fill:#840000; fill-opacity:0.0; 
stroke:#840000; stroke-width:0; stroke-opacity:1; 
stroke-linecap:round; stroke-linejoin:round;">
</g>
<g style="fill:#840000; fill-opacity:1.0; 
stroke:#840000; stroke-width:0; stroke-opacity:1; 
stroke-linecap:round; stroke-linejoin:round;">
<path style="fill:#840000; fill-opacity:1.0; 
stroke:#840000; stroke-width:0; stroke-opacity:1; 
stroke-linecap:round; stroke-linejoin:round;fill-rule:evenodd;"
d="M 2509.65,6896.14
2519.2,6897.56
2528.57,6899.91
2537.67,6903.16
2546.4,6907.29
2554.68,6912.26
2562.44,6918.01
2569.6,6924.5
2576.08,6931.65
2581.84,6939.41
2586.8,6947.7
2590.93,6956.43
2594.19,6965.52
2596.53,6974.89
2597.95,6984.45
2598.43,6994.09
2598.43,7250
2597.95,7259.65
2596.53,7269.2
2594.19,7278.57
2590.93,7287.67
2586.8,7296.4
2581.84,7304.68
2576.08,7312.44
2569.6,7319.6
2562.44,7326.08
2554.68,7331.84
2546.4,7336.8
2537.67,7340.93
2528.57,7344.19
2519.2,7346.53
2509.65,7347.95
2500,7348.43
2145.67,7348.43
2136.02,7347.95
2126.47,7346.53
2117.1,7344.19
2108,7340.93
2099.27,7336.8
2090.99,7331.84
2083.23,7326.08
2076.07,7319.6
2069.59,7312.44
2063.83,7304.68
2058.87,7296.4
2054.74,7287.67
2051.48,7278.57
2049.14,7269.2
2047.72,7259.65
2047.24,7250
2047.24,6994.09
2047.72,6984.45
2049.14,6974.89
2051.48,6965.52
2054.74,6956.43
2058.87,6947.7
2063.83,6939.41
2069.59,6931.65
2076.07,6924.5
2083.23,6918.01
2090.99,6912.26
2099.27,6907.29
2108,6903.16
2117.1,6899.91
2126.47,6897.56
2136.02,6896.14
2145.67,6895.67
2500,6895.67
Z" /> 
<path style="fill:#840000; fill-opacity:1.0; 
stroke:#840000; stroke-width:0; stroke-opacity:1; 
stroke-linecap:round; stroke-linejoin:round;fill-rule:evenodd;"
d="M 2509.65,7703.23
2519.2,7704.65
2528.57,7706.99
2537.67,7710.25
2546.4,7714.38
2554.68,7719.34
2562.44,7725.1
2569.6,7731.58
2576.08,7738.74
2581.84,7746.5
2586.8,7754.78
2590.93,7763.52
2594.19,7772.61
2596.53,7781.98
2597.95,7791.53
2598.43,7801.18
2598.43,8057.09
2597.95,8066.73
2596.53,8076.29
2594.19,8085.66
2590.93,8094.75
2586.8,8103.48
2581.84,8111.77
2576.08,8119.53
2569.6,8126.68
2562.44,8133.17
2554.68,8138.92
2546.4,8143.89
2537.67,8148.02
2528.57,8151.27
2519.2,8153.62
2509.65,8155.04
2500,8155.51
2145.67,8155.51
2136.02,8155.04
2126.47,8153.62
2117.1,8151.27
2108,8148.02
2099.27,8143.89
2090.99,8138.92
2083.23,8133.17
2076.07,8126.68
2069.59,8119.53
2063.83,8111.77
2058.87,8103.48
2054.74,8094.75
2051.48,8085.66
2049.14,8076.29
2047.72,8066.73
2047.24,8057.09
2047.24,7801.18
2047.72,7791.53
2049.14,7781.98
2051.48,7772.61
2054.74,7763.52
2058.87,7754.78
2063.83,7746.5
2069.59,7738.74
2076.07,7731.58
2083.23,7725.1
2090.99,7719.34
2099.27,7714.38
2108,7710.25
2117.1,7706.99
2126.47,7704.65
2136.02,7703.23
2145.67,7702.76
2500,7702.76
Z" /> 
</g>
<g >
</g>
<g style="fill:#840000; fill-opacity:1.0; 
stroke:#840000; stroke-width:0; stroke-opacity:1; 
stroke-linecap:round; stroke-linejoin:round;">
<path style="fill:#840000; fill-opacity:1.0; 
stroke:#840000; stroke-width:0; stroke-opacity:1; 
stroke-linecap:round; stroke-linejoin:round;fill-rule:evenodd;"
d="M 7076.58,9177.64
7086.13,9179.06
7095.5,9181.4
7104.59,9184.66
7113.33,9188.79
7121.61,9193.75
7129.37,9199.51
7136.53,9205.99
7143.01,9213.15
7148.77,9220.91
7153.73,9229.19
7157.86,9237.92
7161.12,9247.02
7163.46,9256.39
7164.88,9265.94
7165.35,9275.59
7165.35,9531.5
7164.88,9541.14
7163.46,9550.7
7161.12,9560.07
7157.86,9569.16
7153.73,9577.89
7148.77,9586.18
7143.01,9593.94
7136.53,9601.09
7129.37,9607.58
7121.61,9613.33
7113.33,9618.3
7104.59,9622.43
7095.5,9625.68
7086.13,9628.03
7076.58,9629.45
7066.93,9629.92
6712.6,9629.92
6702.95,9629.45
6693.4,9628.03
6684.03,9625.68
6674.93,9622.43
6666.2,9618.3
6657.92,9613.33
6650.16,9607.58
6643,9601.09
6636.51,9593.94
6630.76,9586.18
6625.8,9577.89
6621.67,9569.16
6618.41,9560.07
6616.06,9550.7
6614.65,9541.14
6614.17,9531.5
6614.17,9275.59
6614.65,9265.94
6616.06,9256.39
6618.41,9247.02
6621.67,9237.92
6625.8,9229.19
6630.76,9220.91
6636.51,9213.15
6643,9205.99
6650.16,9199.51
6657.92,9193.75
6666.2,9188.79
6674.93,9184.66
6684.03,9181.4
6693.4,9179.06
6702.95,9177.64
6712.6,9177.17
7066.93,9177.17
Z" /> 
<path style="fill:#840000; fill-opacity:1.0; 
stroke:#840000; stroke-width:0; stroke-opacity:1; 
stroke-linecap:round; stroke-linejoin:round;fill-rule:evenodd;"
d="M 7076.58,8370.55
7086.13,8371.97
7095.5,8374.32
7104.59,8377.57
7113.33,8381.7
7121.61,8386.67
7129.37,8392.42
7136.53,8398.91
7143.01,8406.06
7148.77,8413.82
7153.73,8422.11
7157.86,8430.84
7161.12,8439.93
7163.46,8449.3
7164.88,8458.86
7165.35,8468.5
7165.35,8724.41
7164.88,8734.06
7163.46,8743.61
7161.12,8752.98
7157.86,8762.08
7153.73,8770.81
7148.77,8779.09
7143.01,8786.85
7136.53,8794.01
7129.37,8800.49
7121.61,8806.25
7113.33,8811.21
7104.59,8815.34
7095.5,8818.6
7086.13,8820.94
7076.58,8822.36
7066.93,8822.83
6712.6,8822.83
6702.95,8822.36
6693.4,8820.94
6684.03,8818.6
6674.93,8815.34
6666.2,8811.21
6657.92,8806.25
6650.16,8800.49
6643,8794.01
6636.51,8786.85
6630.76,8779.09
6625.8,8770.81
6621.67,8762.08
6618.41,8752.98
6616.06,8743.61
6614.65,8734.06
6614.17,8724.41
6614.17,8468.5
6614.65,8458.86
6616.06,8449.3
6618.41,8439.93
6621.67,8430.84
6625.8,8422.11
6630.76,8413.82
6636.51,8406.06
6643,8398.91
6650.16,8392.42
6657.92,8386.67
6666.2,8381.7
6674.93,8377.57
6684.03,8374.32
6693.4,8371.97
6702.95,8370.55
6712.6,8370.08
7066.93,8370.08
Z" /> 
</g>
<g >
</g>
<g style="fill:#C2C2C2; fill-opacity:1.0; 
stroke:#C2C2C2; stroke-width:0; stroke-opacity:1; 
stroke-linecap:round; stroke-linejoin:round;">
<circle cx="8279" cy="9571.4" r="334.646" /> 
</g>
<g style="fill:#C2C2C2; fill-opacity:1.0; 
stroke:#C2C2C2; stroke-width:39.3701; stroke-opacity:1; 
stroke-linecap:round; stroke-linejoin:round;">
</g>
<g style="fill:#C2C2C2; fill-opacity:1.0; 
stroke:#C2C2C2; stroke-width:0; stroke-opacity:1; 
stroke-linecap:round; stroke-linejoin:round;">
<circle cx="10515.7" cy="10208.7" r="334.646" /> 
</g>
<g style="fill:#C2C2C2; fill-opacity:1.0; 
stroke:#C2C2C2; stroke-width:39.3701; stroke-opacity:1; 
stroke-linecap:round; stroke-linejoin:round;">
</g>
<g style="fill:#C2C2C2; fill-opacity:1.0; 
stroke:#C2C2C2; stroke-width:0; stroke-opacity:1; 
stroke-linecap:round; stroke-linejoin:round;">
<circle cx="12267.7" cy="4538.58" r="334.646" /> 
</g>
<g style="fill:#C2C2C2; fill-opacity:1.0; 
stroke:#C2C2C2; stroke-width:39.3701; stroke-opacity:1; 
stroke-linecap:round; stroke-linejoin:round;">
</g>
<g style="fill:#C2C2C2; fill-opacity:1.0; 
stroke:#C2C2C2; stroke-width:0; stroke-opacity:1; 
stroke-linecap:round; stroke-linejoin:round;">
<circle cx="8671.33" cy="4230.51" r="334.646" /> 
</g>
<g style="fill:#C2C2C2; fill-opacity:1.0; 
stroke:#C2C2C2; stroke-width:39.3701; stroke-opacity:1; 
stroke-linecap:round; stroke-linejoin:round;">
</g>
<g style="fill:#C2C2C2; fill-opacity:1.0; 
stroke:#C2C2C2; stroke-width:0; stroke-opacity:1; 
stroke-linecap:round; stroke-linejoin:round;">
<circle cx="6647.54" cy="3435.93" r="334.646" /> 
</g>
<g style="fill:#C2C2C2; fill-opacity:1.0; 
stroke:#C2C2C2; stroke-width:39.3701; stroke-opacity:1; 
stroke-linecap:round; stroke-linejoin:round;">
</g>
<g style="fill:#C2C2C2; fill-opacity:1.0; 
stroke:#C2C2C2; stroke-width:0; stroke-opacity:1; 
stroke-linecap:round; stroke-linejoin:round;">
<circle cx="10732.1" cy="3031.23" r="334.646" /> 
</g>
<g style="fill:#C2C2C2; fill-opacity:1.0; 
stroke:#C2C2C2; stroke-width:39.3701; stroke-opacity:1; 
stroke-linecap:round; stroke-linejoin:round;">
</g>
<g style="fill:#C2C2C2; fill-opacity:1.0; 
stroke:#C2C2C2; stroke-width:0; stroke-opacity:1; 
stroke-linecap:round; stroke-linejoin:round;">
<circle cx="7570.88" cy="6746.05" r="334.646" /> 
</g>
<g style="fill:#C2C2C2; fill-opacity:1.0; 
stroke:#C2C2C2; stroke-width:39.3701; stroke-opacity:1; 
stroke-linecap:round; stroke-linejoin:round;">
</g>
<g style="fill:#C2C2C2; fill-opacity:1.0; 
stroke:#C2C2C2; stroke-width:0; stroke-opacity:1; 
stroke-linecap:round; stroke-linejoin:round;">
<circle cx="8116.14" cy="8596.46" r="334.646" /> 
</g>
<g style="fill:#C2C2C2; fill-opacity:1.0; 
stroke:#C2C2C2; stroke-width:39.3701; stroke-opacity:1; 
stroke-linecap:round; stroke-linejoin:round;">
</g>
<g >
</g>
<g style="fill:#840000; fill-opacity:1.0; 
stroke:#840000; stroke-width:39.3701; stroke-opacity:1; 
stroke-linecap:round; stroke-linejoin:round;">
</g>
<g style="fill:#840000; fill-opacity:1.0; 
stroke:#840000; stroke-width:295.276; stroke-opacity:1; 
stroke-linecap:round; stroke-linejoin:round;">
</g>
<g style="fill:#840000; fill-opacity:0.0; 
stroke:#840000; stroke-width:295.276; stroke-opacity:1; 
stroke-linecap:round; stroke-linejoin:round;">
<path d="M4285 7159
L3606 7838
" />
<path d="M4285 5528
L4285 7159
" />
<path d="M5215 4598
L4285 5528
" />
<path d="M5688 4598
L5215 4598
" />
<path d="M10316 4219
L8341 2244
" />
<path d="M8341 2244
L5335 2244
" />
<path d="M2435 5144
L2435 6667
" />
<path d="M2435 6667
L3606 7838
" />
<path d="M10316 4501
L10316 4219
" />
<path d="M9688 5129
L10316 4501
" />
<path d="M9688 5759
L9688 5129
" />
<path d="M5335 2244
L2435 5144
" />
<path d="M6529 9403
L6889 9403
" />
<path d="M4285 7159
L6529 9403
" />
<path d="M6889 9403
L8111 9403
" />
<path d="M8111 9403
L8278 9571
" />
<path d="M12846 10208
L15779 7275
" />
<path d="M10515 10208
L12846 10208
" />
<path d="M2322 6779
L2435 6667
" />
<path d="M2322 7122
L2322 6779
" />
<path d="M7688 4598
L8056 4230
" />
<path d="M8056 4230
L8671 4230
" />
<path d="M9066 10338
L10188 9216
" />
<path d="M10188 9216
L10188 8633
" />
<path d="M1267 8538
L3067 10338
" />
<path d="M1267 4638
L1267 8538
" />
<path d="M4667 1238
L1267 4638
" />
<path d="M3067 10338
L9066 10338
" />
<path d="M12695 1238
L9359 1238
" />
<path d="M15779 4322
L12695 1238
" />
<path d="M9359 1238
L4667 1238
" />
<path d="M5688 5598
L5688 6567
" />
<path d="M7039 7917
L9357 7917
" />
<path d="M5688 6567
L7039 7917
" />
<path d="M9357 7917
L10688 6585
" />
<path d="M10688 6585
L10688 5759
" />
<path d="M12737 5307
L15779 5307
" />
<path d="M11605 6438
L12737 5307
" />
<path d="M10785 6438
L11605 6438
" />
<path d="M10688 6342
L10785 6438
" />
<path d="M10688 5759
L10688 6342
" />
<path d="M12448 6291
L15779 6291
" />
<path d="M10688 8051
L12448 6291
" />
<path d="M10688 8633
L10688 8051
" />
<path d="M10188 6389
L10188 5759
" />
<path d="M8912 6791
L9787 6791
" />
<path d="M9787 6791
L10188 6389
" />
<path d="M2927 6159
L2927 5348
" />
<path d="M9611 4210
L9611 4265
" />
<path d="M8912 4964
L8912 6791
" />
<path d="M3606 6838
L2927 6159
" />
<path d="M9611 4265
L8912 4964
" />
<path d="M8137 2736
L9611 4210
" />
<path d="M5539 2736
L8137 2736
" />
<path d="M2927 5348
L5539 2736
" />
<path d="M8279 7425
L8912 6791
" />
<path d="M6688 6871
L7242 7425
" />
<path d="M7242 7425
L8279 7425
" />
<path d="M6688 5598
L6688 6871
" />
<path d="M6009 3919
L6688 4598
" />
<path d="M5052 3919
L6009 3919
" />
<path d="M3606 5365
L5052 3919
" />
<path d="M3606 5838
L3606 5365
" />
<path d="M6688 3477
L6647 3435
" />
<path d="M6688 4598
L6688 3477
" />
<path d="M11188 5759
L11188 3488
" />
<path d="M11188 3488
L10732 3031
" />
<path d="M7688 5598
L7688 6627
" />
<path d="M9688 8633
L8153 8633
" />
<path d="M6889 8596
L8116 8596
" />
<path d="M8153 8633
L8116 8596
" />
<path d="M7688 6627
L7570 6746
" />
</g>
<g >
</g>
<g style="fill:#840000; fill-opacity:0.0; 
stroke:#840000; stroke-width:295.276; stroke-opacity:1; 
stroke-linecap:round; stroke-linejoin:round;">
</g>
<g style="fill:#840000; fill-opacity:1.0; 
stroke:#840000; stroke-width:100; stroke-opacity:1; 
stroke-linecap:round; stroke-linejoin:round;">
<path style="fill:#840000; fill-opacity:1.0; 
stroke:#840000; stroke-width:100; stroke-opacity:1; 
stroke-linecap:round; stroke-linejoin:round;fill-rule:evenodd;"
d="M 21603.5,10973.6
50,10973.6
50,4638.58
868.155,4638.58
870.079,4658.11
870.079,8519.05
868.155,8538.58
875.833,8616.53
898.57,8691.49
929.504,8749.36
935.494,8760.57
985.184,8821.12
1000.35,8833.57
2772.73,10605.9
2785.18,10621.1
2845.73,10670.8
2914.81,10707.7
2989.77,10730.5
3048.19,10736.2
3048.19,10736.2
3067.72,10738.1
3087.25,10736.2
9047.4,10736.2
9066.93,10738.1
9144.88,10730.5
9157.07,10726.8
9219.84,10707.7
9288.91,10670.8
9349.46,10621.1
9361.91,10605.9
9970.43,9997.43
9953.57,10038.1
9931.1,10151.1
9931.1,10266.2
9953.57,10379.2
9997.64,10485.6
10061.6,10581.4
10143.1,10662.8
10238.8,10726.8
10345.2,10770.8
10458.2,10793.3
10573.3,10793.3
10686.3,10770.8
10792.7,10726.8
10888.4,10662.8
10944.9,10606.3
12826.9,10606.3
12846.5,10608.2
12924.4,10600.5
12999.4,10577.8
13068.4,10540.9
13129,10491.2
13141.4,10476
15933.2,7684.28
16291.3,7684.28
16340.3,7679.45
16387.5,7665.16
16430.9,7641.94
16448.8,7627.24
16466.7,7641.94
16510.2,7665.16
16557.3,7679.45
16606.3,7684.28
17629.9,7684.28
17678.9,7679.45
17726.1,7665.16
17769.5,7641.94
17807.6,7610.7
17838.8,7572.64
17862,7529.2
17876.3,7482.08
17881.1,7433.07
17881.1,7118.11
17876.3,7069.1
17862,7021.98
17838.8,6978.55
17807.6,6940.48
17769.5,6909.24
17726.1,6886.02
17678.9,6871.73
17629.9,6866.9
16606.3,6866.9
16557.3,6871.73
16510.2,6886.02
16466.7,6909.24
16448.8,6923.94
16430.9,6909.24
16387.5,6886.02
16340.3,6871.73
16291.3,6866.9
15267.7,6866.9
15218.7,6871.73
15171.6,6886.02
15128.2,6909.24
15090.1,6940.48
15058.8,6978.55
15035.6,7021.98
15021.3,7069.1
15016.5,7118.11
15016.5,7433.07
15020.4,7472.39
12681.8,9811.02
10944.9,9811.02
10888.4,9754.54
10792.7,9690.56
10686.3,9646.48
10573.3,9624.02
10458.2,9624.02
10345.2,9646.48
10304.5,9663.34
10456.3,9511.52
10471.5,9499.07
10521.2,9438.52
10558.1,9369.44
10580.9,9294.49
10586.6,9236.07
10586.6,9236.07
10588.2,9219.71
10816.9,9219.71
10865.9,9214.89
10913.1,9200.59
10939,9186.74
10964.9,9200.59
11012,9214.89
11061,9219.71
11076.5,9218.5
11139,9156
11139,8683.86
11239,8683.86
11239,9156
11301.5,9218.5
11316.9,9219.71
11365.9,9214.89
11413.1,9200.59
11456.5,9177.38
11494.6,9146.14
11525.8,9108.07
11549,9064.64
11563.3,9017.51
11568.1,8968.5
11566.9,8746.36
11504.4,8683.86
11239,8683.86
11139,8683.86
11131.1,8683.86
11131.1,8583.86
11139,8583.86
11139,8575.98
11239,8575.98
11239,8583.86
11504.4,8583.86
11566.9,8521.36
11568.1,8299.21
11563.3,8250.2
11549,8203.08
11525.8,8159.65
11494.6,8121.58
11456.5,8090.34
11413.1,8067.13
11365.9,8052.83
11316.9,8048
11301.5,8049.21
11239,8111.71
11239,8063.52
12613.5,6688.98
15198.2,6688.98
15218.7,6695.2
15267.7,6700.03
16291.3,6700.03
16340.3,6695.2
16387.5,6680.91
16430.9,6657.69
16448.8,6642.99
16466.7,6657.69
16510.2,6680.91
16557.3,6695.2
16606.3,6700.03
17005.6,6698.82
17068.1,6636.32
17068.1,6341.34
17168.1,6341.34
17168.1,6636.32
17230.6,6698.82
17629.9,6700.03
17678.9,6695.2
17726.1,6680.91
17769.5,6657.69
17807.6,6626.45
17838.8,6588.38
17862,6544.95
17876.3,6497.83
17881.1,6448.82
17879.9,6403.84
17817.4,6341.34
17168.1,6341.34
17068.1,6341.34
17060.2,6341.34
17060.2,6241.34
17068.1,6241.34
17068.1,5946.36
17168.1,5946.36
17168.1,6241.34
17817.4,6241.34
17879.9,6178.84
17881.1,6133.86
17876.3,6084.85
17862,6037.72
17838.8,5994.29
17807.6,5956.23
17769.5,5924.99
17726.1,5901.77
17678.9,5887.48
17629.9,5882.65
17230.6,5883.86
17168.1,5946.36
17068.1,5946.36
17005.6,5883.86
16606.3,5882.65
16557.3,5887.48
16510.2,5901.77
16466.7,5924.99
16448.8,5939.69
16430.9,5924.99
16387.5,5901.77
16340.3,5887.48
16291.3,5882.65
15267.7,5882.65
15218.7,5887.48
15198.2,5893.7
12712.8,5893.7
12901.8,5704.72
15198.2,5704.72
15218.7,5710.95
15267.7,5715.78
16291.3,5715.78
16340.3,5710.95
16387.5,5696.65
16430.9,5673.44
16448.8,5658.74
16466.7,5673.44
16510.2,5696.65
16557.3,5710.95
16606.3,5715.78
17005.6,5714.57
17068.1,5652.07
17068.1,5357.09
17168.1,5357.09
17168.1,5652.07
17230.6,5714.57
17629.9,5715.78
17678.9,5710.95
17726.1,5696.65
17769.5,5673.44
17807.6,5642.2
17838.8,5604.13
17862,5560.7
17876.3,5513.58
17881.1,5464.57
17879.9,5419.59
17817.4,5357.09
17168.1,5357.09
17068.1,5357.09
17060.2,5357.09
17060.2,5257.09
17068.1,5257.09
17068.1,4962.11
17168.1,4962.11
17168.1,5257.09
17817.4,5257.09
17879.9,5194.59
17881.1,5149.61
17876.3,5100.6
17862,5053.47
17838.8,5010.04
17807.6,4971.97
17769.5,4940.73
17726.1,4917.52
17678.9,4903.22
17629.9,4898.4
17230.6,4899.61
17168.1,4962.11
17068.1,4962.11
17005.6,4899.61
16606.3,4898.4
16557.3,4903.22
16510.2,4917.52
16466.7,4940.73
16448.8,4955.44
16430.9,4940.73
16387.5,4917.52
16340.3,4903.22
16291.3,4898.4
15267.7,4898.4
15218.7,4903.22
15198.2,4909.45
12756.6,4909.45
12737.1,4907.53
12717.6,4909.45
12717.6,4909.45
12659.1,4915.2
12584.2,4937.94
12515.1,4974.86
12454.6,5024.55
12442.1,5039.73
11568.1,5913.7
11568.1,5879.73
11580.9,5837.79
11586.6,5779.37
11586.6,3507.59
11588.5,3488.06
11585.6,3457.84
11580.9,3410.11
11558.1,3335.16
11521.2,3266.08
11471.5,3205.53
11456.3,3193.08
11316.8,3053.53
11316.8,2973.64
11294.3,2860.69
11250.2,2754.29
11186.3,2658.54
11104.8,2577.1
11009.1,2513.12
10902.7,2469.05
10789.7,2446.58
10674.6,2446.58
10561.6,2469.05
10455.2,2513.12
10359.5,2577.1
10278,2658.54
10214,2754.29
10170,2860.69
10147.5,2973.64
10147.5,3088.81
10170,3201.76
10214,3308.16
10278,3403.92
10359.5,3485.35
10455.2,3549.33
10561.6,3593.41
10674.6,3615.87
10754.4,3615.87
10791.3,3652.77
10791.3,5173.99
10561,5173.99
10512,5178.81
10464.9,5193.11
10439,5206.96
10413.1,5193.11
10365.9,5178.81
10316.9,5173.99
10207.3,5173.99
10584.3,4796.95
10599.5,4784.5
10649.2,4723.95
10686.1,4654.87
10699.2,4611.57
10708.8,4579.91
10716.5,4501.96
10714.6,4482.43
10714.6,4239.22
10716.5,4219.69
10708.8,4141.74
10686.1,4066.79
10657.7,4013.78
10649.2,3997.71
10599.5,3937.16
10584.3,3924.71
8636.71,1977.12
8624.26,1961.95
8563.71,1912.26
8494.63,1875.34
8419.68,1852.6
8361.26,1846.85
8341.73,1844.92
8322.2,1846.85
5354.71,1846.85
5335.18,1844.92
5257.23,1852.6
5182.28,1875.34
5113.2,1912.26
5052.65,1961.95
5040.2,1977.12
2167.67,4849.65
2152.5,4862.1
2102.81,4922.65
2066.65,4990.31
2065.89,4991.73
2043.15,5066.68
2035.47,5144.63
2037.4,5164.16
2037.4,6500.53
2027.85,6512.16
2027.85,6512.16
1990.61,6557.53
1953.69,6626.61
1930.95,6701.57
1928.96,6721.82
1898.44,6746.87
1854.96,6799.85
1822.65,6860.29
1802.75,6925.88
1796.03,6994.09
1796.03,7250
1802.75,7318.21
1822.65,7383.8
1854.96,7444.25
1898.44,7497.23
1901.02,7499.35
1869.61,7525.12
1838.37,7563.19
1815.16,7606.62
1800.86,7653.75
1796.03,7702.76
1797.24,7816.63
1859.74,7879.13
2272.83,7879.13
2272.83,7871.26
2372.83,7871.26
2372.83,7879.13
2785.93,7879.13
2848.43,7816.63
2849.63,7702.76
2844.81,7653.75
2838.58,7633.2
3021.65,7816.28
3021.65,7896.17
3044.12,8009.12
3088.19,8115.52
3152.18,8211.27
3204.09,8263.18
3175.52,8271.85
3132.09,8295.06
3094.02,8326.31
3062.78,8364.37
3039.57,8407.8
3025.27,8454.93
3020.44,8503.94
3021.65,8726.08
3084.15,8788.58
3556.3,8788.58
3556.3,8780.71
3656.3,8780.71
3656.3,8788.58
4128.44,8788.58
4190.94,8726.08
4192.15,8503.94
4187.33,8454.93
4173.03,8407.8
4149.82,8364.37
4118.58,8326.31
4080.51,8295.06
4037.08,8271.85
4008.51,8263.18
4060.42,8211.27
4124.41,8115.52
4168.48,8009.12
4190.94,7896.17
4190.94,7816.28
4285.43,7721.79
6234.55,9670.91
6247,9686.08
6307.54,9735.77
6319.09,9741.94
6376.62,9772.69
6451.58,9795.43
6490.38,9799.25
6518.35,9822.21
6578.8,9854.52
6644.39,9874.41
6712.6,9881.13
7066.93,9881.13
7135.14,9874.41
7200.73,9854.52
7261.18,9822.21
7286.8,9801.18
7741.36,9801.18
7760.89,9848.33
7822.77,9940.94
3232.42,9940.94
2464.71,9173.23
3020.44,9173.23
3025.27,9222.24
3039.57,9269.36
3062.78,9312.79
3094.02,9350.86
3132.09,9382.1
3175.52,9405.32
3222.64,9419.61
3271.65,9424.44
3493.8,9423.23
3556.3,9360.73
3556.3,8888.58
3656.3,8888.58
3656.3,9360.73
3718.8,9423.23
3940.94,9424.44
3989.95,9419.61
4037.08,9405.32
4080.51,9382.1
4118.58,9350.86
4149.82,9312.79
4173.03,9269.36
4187.33,9222.24
4192.15,9173.23
4190.94,8951.08
4128.44,8888.58
3656.3,8888.58
3556.3,8888.58
3084.15,8888.58
3021.65,8951.08
3020.44,9173.23
2464.71,9173.23
1665.35,8373.88
1665.35,8155.51
1796.03,8155.51
1800.86,8204.52
1815.16,8251.65
1838.37,8295.08
1869.61,8333.14
1907.68,8364.38
1951.11,8387.6
1998.24,8401.89
2047.24,8406.72
2210.33,8405.51
2272.83,8343.01
2272.83,7979.13
2372.83,7979.13
2372.83,8343.01
2435.33,8405.51
2598.43,8406.72
2647.43,8401.89
2694.56,8387.6
2737.99,8364.38
2776.06,8333.14
2807.3,8295.08
2830.51,8251.65
2844.81,8204.52
2849.63,8155.51
2848.43,8041.63
2785.93,7979.13
2372.83,7979.13
2272.83,7979.13
1859.74,7979.13
1797.24,8041.63
1796.03,8155.51
1665.35,8155.51
1665.35,4803.29
4832.42,1636.22
12530.6,1636.22
15020.4,4126.03
15016.5,4165.35
15016.5,4480.31
15021.3,4529.32
15035.6,4576.45
15058.8,4619.88
15090.1,4657.95
15128.2,4689.19
15171.6,4712.4
15218.7,4726.7
15267.7,4731.52
16291.3,4731.52
16340.3,4726.7
16387.5,4712.4
16430.9,4689.19
16448.8,4674.48
16466.7,4689.19
16510.2,4712.4
16557.3,4726.7
16606.3,4731.52
17629.9,4731.52
17678.9,4726.7
17726.1,4712.4
17769.5,4689.19
17807.6,4657.95
17838.8,4619.88
17862,4576.45
17876.3,4529.32
17881.1,4480.31
17881.1,4165.35
17876.3,4116.35
17862,4069.22
17838.8,4025.79
17807.6,3987.72
17769.5,3956.48
17726.1,3933.27
17678.9,3918.97
17629.9,3914.14
16606.3,3914.14
16557.3,3918.97
16510.2,3933.27
16466.7,3956.48
16448.8,3971.18
16430.9,3956.48
16387.5,3933.27
16340.3,3918.97
16291.3,3914.14
15933.2,3914.14
12990.3,971.223
12977.8,956.05
12917.3,906.359
12848.2,869.436
12773.2,846.699
12714.8,840.945
12695.3,839.021
12675.7,840.945
4687.25,840.945
4667.72,839.021
4648.19,840.945
4648.19,840.945
4589.77,846.699
4514.81,869.436
4445.73,906.359
4385.18,956.05
4372.73,971.223
1000.36,4343.6
985.184,4356.05
935.493,4416.6
903.882,4475.74
898.57,4485.68
875.833,4560.63
868.155,4638.58
50,4638.58
50,50
21603.5,50
Z" /> 
<path style="fill:#840000; fill-opacity:1.0; 
stroke:#840000; stroke-width:100; stroke-opacity:1; 
stroke-linecap:round; stroke-linejoin:round;fill-rule:evenodd;"
d="M 9077.11,4238.19
8645.36,4669.95
8630.18,4682.4
8580.49,4742.95
8543.57,4812.03
8543.57,4812.03
8520.83,4886.99
8513.16,4964.94
8515.08,4984.47
8515.08,6626.88
8114.4,7027.55
8085.93,7027.55
8088.98,7022.99
8133.06,6916.59
8155.52,6803.64
8155.52,6688.47
8133.06,6575.52
8088.98,6469.12
8086.61,6465.57
8086.61,6027.6
8143.1,5971.11
8207.08,5875.36
8251.15,5768.96
8273.62,5656.01
8273.62,5540.84
8251.15,5427.89
8207.08,5321.49
8143.1,5225.74
8061.67,5144.3
7992.36,5097.99
8082.78,5030.55
8159.52,4945.42
8218.17,4846.95
8256.49,4738.93
8208.98,4648.43
7738.98,4648.43
7738.98,4656.3
7638.98,4656.3
7638.98,4648.43
7631.1,4648.43
7631.1,4548.43
7638.98,4548.43
7638.98,4078.68
7738.98,4078.68
7738.98,4548.43
8208.98,4548.43
8256.49,4457.92
8218.17,4349.9
8159.52,4251.44
8082.78,4166.3
7990.91,4097.78
7887.44,4048.49
7829.48,4030.91
7738.98,4078.68
7638.98,4078.68
7548.47,4030.91
7490.51,4048.49
7387.04,4097.78
7295.17,4166.3
7218.43,4251.44
7191.02,4297.45
7143.1,4225.74
7086.61,4169.25
7086.61,3823.67
7101.66,3808.62
7165.64,3712.87
7209.71,3606.47
7232.18,3493.52
7232.18,3378.35
7209.71,3265.4
7165.64,3159
7149.11,3134.25
7973.17,3134.25
Z" /> 
</g>
</g>
<g style="fill:#FFFFFF; fill-opacity:1.0; 
stroke:#FFFFFF; stroke-width:100; stroke-opacity:1; 
stroke-linecap:round; stroke-linejoin:round;">
</g>
<g style="fill:#FFFFFF; fill-opacity:1.0; 
stroke:#FFFFFF; stroke-width:0; stroke-opacity:1; 
stroke-linecap:round; stroke-linejoin:round;">
<circle cx="8279" cy="9571.4" r="196.85" /> 
</g>
<g style="fill:#FFFFFF; fill-opacity:1.0; 
stroke:#FFFFFF; stroke-width:39.3701; stroke-opacity:1; 
stroke-linecap:round; stroke-linejoin:round;">
</g>
<g style="fill:#FFFFFF; fill-opacity:1.0; 
stroke:#FFFFFF; stroke-width:0; stroke-opacity:1; 
stroke-linecap:round; stroke-linejoin:round;">
<circle cx="10515.7" cy="10208.7" r="196.85" /> 
</g>
<g style="fill:#FFFFFF; fill-opacity:1.0; 
stroke:#FFFFFF; stroke-width:39.3701; stroke-opacity:1; 
stroke-linecap:round; stroke-linejoin:round;">
</g>
<g style="fill:#FFFFFF; fill-opacity:1.0; 
stroke:#FFFFFF; stroke-width:0; stroke-opacity:1; 
stroke-linecap:round; stroke-linejoin:round;">
<circle cx="12267.7" cy="4538.58" r="196.85" /> 
</g>
<g style="fill:#FFFFFF; fill-opacity:1.0; 
stroke:#FFFFFF; stroke-width:39.3701; stroke-opacity:1; 
stroke-linecap:round; stroke-linejoin:round;">
</g>
<g style="fill:#FFFFFF; fill-opacity:1.0; 
stroke:#FFFFFF; stroke-width:0; stroke-opacity:1; 
stroke-linecap:round; stroke-linejoin:round;">
<circle cx="8671.33" cy="4230.51" r="196.85" /> 
</g>
<g style="fill:#FFFFFF; fill-opacity:1.0; 
stroke:#FFFFFF; stroke-width:39.3701; stroke-opacity:1; 
stroke-linecap:round; stroke-linejoin:round;">
</g>
<g style="fill:#FFFFFF; fill-opacity:1.0; 
stroke:#FFFFFF; stroke-width:0; stroke-opacity:1; 
stroke-linecap:round; stroke-linejoin:round;">
<circle cx="6647.54" cy="3435.93" r="196.85" /> 
</g>
<g style="fill:#FFFFFF; fill-opacity:1.0; 
stroke:#FFFFFF; stroke-width:39.3701; stroke-opacity:1; 
stroke-linecap:round; stroke-linejoin:round;">
</g>
<g style="fill:#FFFFFF; fill-opacity:1.0; 
stroke:#FFFFFF; stroke-width:0; stroke-opacity:1; 
stroke-linecap:round; stroke-linejoin:round;">
<circle cx="10732.1" cy="3031.23" r="196.85" /> 
</g>
<g style="fill:#FFFFFF; fill-opacity:1.0; 
stroke:#FFFFFF; stroke-width:39.3701; stroke-opacity:1; 
stroke-linecap:round; stroke-linejoin:round;">
</g>
<g style="fill:#FFFFFF; fill-opacity:1.0; 
stroke:#FFFFFF; stroke-width:0; stroke-opacity:1; 
stroke-linecap:round; stroke-linejoin:round;">
<circle cx="7570.88" cy="6746.05" r="196.85" /> 
</g>
<g style="fill:#FFFFFF; fill-opacity:1.0; 
stroke:#FFFFFF; stroke-width:39.3701; stroke-opacity:1; 
stroke-linecap:round; stroke-linejoin:round;">
</g>
<g style="fill:#FFFFFF; fill-opacity:1.0; 
stroke:#FFFFFF; stroke-width:0; stroke-opacity:1; 
stroke-linecap:round; stroke-linejoin:round;">
<circle cx="8116.14" cy="8596.46" r="196.85" /> 
</g>
<g style="fill:#FFFFFF; fill-opacity:1.0; 
stroke:#FFFFFF; stroke-width:39.3701; stroke-opacity:1; 
stroke-linecap:round; stroke-linejoin:round;">
</g>
<g style="fill:#FFFFFF; fill-opacity:1.0; 
stroke:#FFFFFF; stroke-width:0; stroke-opacity:1; 
stroke-linecap:round; stroke-linejoin:round;">
<circle cx="3606.3" cy="8838.58" r="196.85" /> 
</g>
<g style="fill:#FFFFFF; fill-opacity:1.0; 
stroke:#FFFFFF; stroke-width:39.3701; stroke-opacity:1; 
stroke-linecap:round; stroke-linejoin:round;">
</g>
<g style="fill:#FFFFFF; fill-opacity:1.0; 
stroke:#FFFFFF; stroke-width:0; stroke-opacity:1; 
stroke-linecap:round; stroke-linejoin:round;">
<circle cx="3606.3" cy="7838.58" r="196.85" /> 
</g>
<g style="fill:#FFFFFF; fill-opacity:1.0; 
stroke:#FFFFFF; stroke-width:39.3701; stroke-opacity:1; 
stroke-linecap:round; stroke-linejoin:round;">
</g>
<g style="fill:#FFFFFF; fill-opacity:1.0; 
stroke:#FFFFFF; stroke-width:0; stroke-opacity:1; 
stroke-linecap:round; stroke-linejoin:round;">
<circle cx="3606.3" cy="6838.58" r="196.85" /> 
</g>
<g style="fill:#FFFFFF; fill-opacity:1.0; 
stroke:#FFFFFF; stroke-width:39.3701; stroke-opacity:1; 
stroke-linecap:round; stroke-linejoin:round;">
</g>
<g style="fill:#FFFFFF; fill-opacity:1.0; 
stroke:#FFFFFF; stroke-width:0; stroke-opacity:1; 
stroke-linecap:round; stroke-linejoin:round;">
<circle cx="3606.3" cy="5838.58" r="196.85" /> 
</g>
<g style="fill:#FFFFFF; fill-opacity:1.0; 
stroke:#FFFFFF; stroke-width:39.3701; stroke-opacity:1; 
stroke-linecap:round; stroke-linejoin:round;">
</g>
<g style="fill:#FFFFFF; fill-opacity:1.0; 
stroke:#FFFFFF; stroke-width:0; stroke-opacity:1; 
stroke-linecap:round; stroke-linejoin:round;">
<circle cx="5688.98" cy="5598.43" r="196.85" /> 
</g>
<g style="fill:#FFFFFF; fill-opacity:1.0; 
stroke:#FFFFFF; stroke-width:39.3701; stroke-opacity:1; 
stroke-linecap:round; stroke-linejoin:round;">
</g>
<g style="fill:#FFFFFF; fill-opacity:1.0; 
stroke:#FFFFFF; stroke-width:0; stroke-opacity:1; 
stroke-linecap:round; stroke-linejoin:round;">
<circle cx="5688.98" cy="4598.43" r="196.85" /> 
</g>
<g style="fill:#FFFFFF; fill-opacity:1.0; 
stroke:#FFFFFF; stroke-width:39.3701; stroke-opacity:1; 
stroke-linecap:round; stroke-linejoin:round;">
</g>
<g style="fill:#FFFFFF; fill-opacity:1.0; 
stroke:#FFFFFF; stroke-width:0; stroke-opacity:1; 
stroke-linecap:round; stroke-linejoin:round;">
<circle cx="6688.98" cy="5598.43" r="196.85" /> 
</g>
<g style="fill:#FFFFFF; fill-opacity:1.0; 
stroke:#FFFFFF; stroke-width:39.3701; stroke-opacity:1; 
stroke-linecap:round; stroke-linejoin:round;">
</g>
<g style="fill:#FFFFFF; fill-opacity:1.0; 
stroke:#FFFFFF; stroke-width:0; stroke-opacity:1; 
stroke-linecap:round; stroke-linejoin:round;">
<circle cx="6688.98" cy="4598.43" r="196.85" /> 
</g>
<g style="fill:#FFFFFF; fill-opacity:1.0; 
stroke:#FFFFFF; stroke-width:39.3701; stroke-opacity:1; 
stroke-linecap:round; stroke-linejoin:round;">
</g>
<g style="fill:#FFFFFF; fill-opacity:1.0; 
stroke:#FFFFFF; stroke-width:0; stroke-opacity:1; 
stroke-linecap:round; stroke-linejoin:round;">
<circle cx="7688.98" cy="5598.43" r="196.85" /> 
</g>
<g style="fill:#FFFFFF; fill-opacity:1.0; 
stroke:#FFFFFF; stroke-width:39.3701; stroke-opacity:1; 
stroke-linecap:round; stroke-linejoin:round;">
</g>
<g style="fill:#FFFFFF; fill-opacity:1.0; 
stroke:#FFFFFF; stroke-width:0; stroke-opacity:1; 
stroke-linecap:round; stroke-linejoin:round;">
<circle cx="7688.98" cy="4598.43" r="196.85" /> 
</g>
<g style="fill:#FFFFFF; fill-opacity:1.0; 
stroke:#FFFFFF; stroke-width:39.3701; stroke-opacity:1; 
stroke-linecap:round; stroke-linejoin:round;">
</g>
<g style="fill:#000000; fill-opacity:1.0; 
stroke:#000000; stroke-width:39.3701; stroke-opacity:1; 
stroke-linecap:round; stroke-linejoin:round;">
</g>
<g style="fill:#848484; fill-opacity:1.0; 
stroke:#848484; stroke-width:39.3701; stroke-opacity:1; 
stroke-linecap:round; stroke-linejoin:round;">
</g>
<g style="fill:#848484; fill-opacity:1.0; 
stroke:#848484; stroke-width:19.685; stroke-opacity:1; 
stroke-linecap:round; stroke-linejoin:round;">
</g>
<g style="fill:#848484; fill-opacity:0.0; 
stroke:#848484; stroke-width:19.685; stroke-opacity:1; 
stroke-linecap:round; stroke-linejoin:round;">
<path d="M17728 4066
L17728 7531
" />
<path d="M17728 7531
L15169 7531
" />
<path d="M15169 7531
L15169 4066
" />
<path d="M15169 4066
L17728 4066
" />
<path d="M2897 9547
L4314 9547
" />
<path d="M2897 5137
L2897 9547
" />
<path d="M4314 5137
L2897 5137
" />
<path d="M4314 9547
L4314 5137
" />
<path d="M11600 9066
L11600 5326
" />
<path d="M9277 9066
L9277 5326
" />
<path d="M9277 5326
L11600 5326
" />
<path d="M9277 9066
L11600 9066
" />
<path d="M4980 6307
L8385 6307
" />
<path d="M8385 6307
L8385 3885
" />
<path d="M8385 3885
L4980 3885
" />
<path d="M4980 3885
L4980 6307
" />
<path d="M1948 8253
L1948 6797
" />
<path d="M2696 8253
L1948 8253
" />
<path d="M2696 6797
L2696 8253
" />
<path d="M1948 6797
L2696 6797
" />
<path d="M7263 8271
L7263 9728
" />
<path d="M6515 8271
L7263 8271
" />
<path d="M6515 9728
L6515 8271
" />
<path d="M7263 9728
L6515 9728
" />
<g >
</g>
<g >
</g>
<g >
</g>
<g >
</g>
<g >
</g>
<g >
</g>
<g >
</g>
</g>
<g style="fill:#000000; fill-opacity:0.0; 
stroke:#000000; stroke-width:19.685; stroke-opacity:1; 
stroke-linecap:round; stroke-linejoin:round;">
</g>
<g style="fill:#C2C200; fill-opacity:0.0; 
stroke:#C2C200; stroke-width:19.685; stroke-opacity:1; 
stroke-linecap:round; stroke-linejoin:round;">
</g>
<g style="fill:#C2C200; fill-opacity:0.0; 
stroke:#C2C200; stroke-width:39.3701; stroke-opacity:1; 
stroke-linecap:round; stroke-linejoin:round;">
<path d="M4106 9088
L3856 9338
" />
<path d="M4106 5338
L4106 9088
" />
<path d="M3106 5338
L4106 5338
" />
<path d="M3106 9338
L3106 5338
" />
<path d="M3856 9338
L3106 9338
" />
</g>
<g style="fill:#C2C200; fill-opacity:0.0; 
stroke:#C2C200; stroke-width:59.0551; stroke-opacity:1; 
stroke-linecap:round; stroke-linejoin:round;">
<path d="M9789 8240
L9395 7846
" />
<path d="M11482 8240
L9789 8240
" />
<path d="M11482 6153
L11482 8240
" />
<path d="M9395 6153
L11482 6153
" />
<path d="M9395 7846
L9395 6153
" />
</g>
<g style="fill:#C2C200; fill-opacity:0.0; 
stroke:#C2C200; stroke-width:39.3701; stroke-opacity:1; 
stroke-linecap:round; stroke-linejoin:round;">
<path d="M5188 5598
L5188 4098
" />
<path d="M5188 4098
L8188 4098
" />
<path d="M8188 4098
L8188 6098
" />
<path d="M8188 6098
L5688 6098
" />
<path d="M5688 6098
L5188 5598
" />
<path d="M2086 7919
L2086 7131
" />
<path d="M2559 7919
L2086 7919
" />
<path d="M2559 7131
L2559 7919
" />
<path d="M2086 7131
L2559 7131
" />
<path d="M7125 8606
L7125 9393
" />
<path d="M6653 8606
L7125 8606
" />
<path d="M6653 9393
L6653 8606
" />
<path d="M7125 9393
L6653 9393
" />
<g >
</g>
<g >
</g>
<g >
</g>
<g >
</g>
<g >
</g>
<g >
</g>
</g>
<g style="fill:#C2C200; fill-opacity:0.0; 
stroke:#C2C200; stroke-width:39.3701; stroke-opacity:1; 
stroke-linecap:round; stroke-linejoin:round;">
</g>
<g style="fill:#C2C200; fill-opacity:0.0; 
stroke:#C2C200; stroke-width:59.0551; stroke-opacity:1; 
stroke-linecap:round; stroke-linejoin:round;">
<g transform="rotate(-90 16448.8 5799.21)">
<text x="16448.8" y="5996.06"
textLength="9358.53" font-size="524.934" lengthAdjust="spacingAndGlyphs"
text-anchor="middle" opacity="0">Conn_02x04_Counter_Clockwise</text>
</g>
<path d="M16589 10139
L16608 10158
L16626 10214
L16626 10251
L16608 10308
L16570 10345
L16533 10364
L16458 10383
L16401 10383
L16326 10364
L16289 10345
L16251 10308
L16233 10251
L16233 10214
L16251 10158
L16270 10139
" />
<path d="M16626 9914
L16608 9951
L16589 9970
L16551 9989
L16439 9989
L16401 9970
L16383 9951
L16364 9914
L16364 9858
L16383 9820
L16401 9801
L16439 9783
L16551 9783
L16589 9801
L16608 9820
L16626 9858
L16626 9914
" />
<path d="M16364 9614
L16626 9614
" />
<path d="M16401 9614
L16383 9595
L16364 9558
L16364 9501
L16383 9464
L16420 9445
L16626 9445
" />
<path d="M16364 9258
L16626 9258
" />
<path d="M16401 9258
L16383 9239
L16364 9201
L16364 9145
L16383 9108
L16420 9089
L16626 9089
" />
<path d="M16664 8995
L16664 8695
" />
<path d="M16233 8526
L16233 8489
L16251 8452
L16270 8433
L16308 8414
L16383 8395
L16476 8395
L16551 8414
L16589 8433
L16608 8452
L16626 8489
L16626 8526
L16608 8564
L16589 8583
L16551 8601
L16476 8620
L16383 8620
L16308 8601
L16270 8583
L16251 8564
L16233 8526
" />
<path d="M16270 8245
L16251 8227
L16233 8189
L16233 8095
L16251 8058
L16270 8039
L16308 8020
L16345 8020
L16401 8039
L16626 8264
L16626 8020
" />
<path d="M16626 7889
L16364 7683
" />
<path d="M16364 7889
L16626 7683
" />
<path d="M16233 7458
L16233 7420
L16251 7383
L16270 7364
L16308 7345
L16383 7327
L16476 7327
L16551 7345
L16589 7364
L16608 7383
L16626 7420
L16626 7458
L16608 7495
L16589 7514
L16551 7533
L16476 7552
L16383 7552
L16308 7533
L16270 7514
L16251 7495
L16233 7458
" />
<path d="M16364 6989
L16626 6989
" />
<path d="M16214 7083
L16495 7177
L16495 6933
" />
<path d="M16664 6877
L16664 6577
" />
<path d="M16589 6258
L16608 6277
L16626 6333
L16626 6371
L16608 6427
L16570 6464
L16533 6483
L16458 6502
L16401 6502
L16326 6483
L16289 6464
L16251 6427
L16233 6371
L16233 6333
L16251 6277
L16270 6258
" />
<path d="M16626 6033
L16608 6071
L16589 6089
L16551 6108
L16439 6108
L16401 6089
L16383 6071
L16364 6033
L16364 5977
L16383 5939
L16401 5921
L16439 5902
L16551 5902
L16589 5921
L16608 5939
L16626 5977
L16626 6033
" />
<path d="M16364 5564
L16626 5564
" />
<path d="M16364 5733
L16570 5733
L16608 5714
L16626 5677
L16626 5621
L16608 5583
L16589 5564
" />
<path d="M16364 5377
L16626 5377
" />
<path d="M16401 5377
L16383 5358
L16364 5321
L16364 5264
L16383 5227
L16420 5208
L16626 5208
" />
<path d="M16364 5077
L16364 4927
" />
<path d="M16233 5021
L16570 5021
L16608 5002
L16626 4964
L16626 4927
" />
<path d="M16608 4646
L16626 4683
L16626 4758
L16608 4796
L16570 4814
L16420 4814
L16383 4796
L16364 4758
L16364 4683
L16383 4646
L16420 4627
L16458 4627
L16495 4814
" />
<path d="M16626 4458
L16364 4458
" />
<path d="M16439 4458
L16401 4440
L16383 4421
L16364 4383
L16364 4346
" />
<path d="M16664 4308
L16664 4008
" />
<path d="M16589 3690
L16608 3708
L16626 3765
L16626 3802
L16608 3858
L16570 3896
L16533 3915
L16458 3933
L16401 3933
L16326 3915
L16289 3896
L16251 3858
L16233 3802
L16233 3765
L16251 3708
L16270 3690
" />
<path d="M16626 3465
L16608 3502
L16570 3521
L16233 3521
" />
<path d="M16626 3258
L16608 3296
L16589 3315
L16551 3333
L16439 3333
L16401 3315
L16383 3296
L16364 3258
L16364 3202
L16383 3165
L16401 3146
L16439 3127
L16551 3127
L16589 3146
L16608 3165
L16626 3202
L16626 3258
" />
<path d="M16608 2790
L16626 2827
L16626 2902
L16608 2940
L16589 2958
L16551 2977
L16439 2977
L16401 2958
L16383 2940
L16364 2902
L16364 2827
L16383 2790
" />
<path d="M16626 2621
L16233 2621
" />
<path d="M16476 2583
L16626 2471
" />
<path d="M16364 2471
L16514 2621
" />
<path d="M16364 2340
L16626 2265
L16439 2190
L16626 2115
L16364 2040
" />
<path d="M16626 1890
L16364 1890
" />
<path d="M16233 1890
L16251 1909
L16270 1890
L16251 1871
L16233 1890
L16270 1890
" />
<path d="M16608 1721
L16626 1684
L16626 1609
L16608 1571
L16570 1552
L16551 1552
L16514 1571
L16495 1609
L16495 1665
L16476 1702
L16439 1721
L16420 1721
L16383 1702
L16364 1665
L16364 1609
L16383 1571
" />
<path d="M16608 1234
L16626 1271
L16626 1346
L16608 1384
L16570 1402
L16420 1402
L16383 1384
L16364 1346
L16364 1271
L16383 1234
L16420 1215
L16458 1215
L16495 1402
" />
<text x="3606.3" y="5118.11"
textLength="5307.37" font-size="524.934" lengthAdjust="spacingAndGlyphs"
text-anchor="middle" opacity="0">Conn_01x04_Male</text>
<path d="M1309 5061
L1290 5080
L1234 5099
L1197 5099
L1140 5080
L1103 5043
L1084 5005
L1065 4930
L1065 4874
L1084 4799
L1103 4761
L1140 4724
L1197 4705
L1234 4705
L1290 4724
L1309 4743
" />
<path d="M1534 5099
L1497 5080
L1478 5061
L1459 5024
L1459 4911
L1478 4874
L1497 4855
L1534 4836
L1590 4836
L1628 4855
L1647 4874
L1665 4911
L1665 5024
L1647 5061
L1628 5080
L1590 5099
L1534 5099
" />
<path d="M1834 4836
L1834 5099
" />
<path d="M1834 4874
L1853 4855
L1890 4836
L1947 4836
L1984 4855
L2003 4893
L2003 5099
" />
<path d="M2190 4836
L2190 5099
" />
<path d="M2190 4874
L2209 4855
L2247 4836
L2303 4836
L2340 4855
L2359 4893
L2359 5099
" />
<path d="M2453 5136
L2753 5136
" />
<path d="M2922 4705
L2959 4705
L2997 4724
L3015 4743
L3034 4780
L3053 4855
L3053 4949
L3034 5024
L3015 5061
L2997 5080
L2959 5099
L2922 5099
L2884 5080
L2865 5061
L2847 5024
L2828 4949
L2828 4855
L2847 4780
L2865 4743
L2884 4724
L2922 4705
" />
<path d="M3428 5099
L3203 5099
" />
<path d="M3315 5099
L3315 4705
L3278 4761
L3240 4799
L3203 4818
" />
<path d="M3559 5099
L3765 4836
" />
<path d="M3559 4836
L3765 5099
" />
<path d="M3990 4705
L4028 4705
L4065 4724
L4084 4743
L4103 4780
L4121 4855
L4121 4949
L4103 5024
L4084 5061
L4065 5080
L4028 5099
L3990 5099
L3953 5080
L3934 5061
L3915 5024
L3896 4949
L3896 4855
L3915 4780
L3934 4743
L3953 4724
L3990 4705
" />
<path d="M4459 4836
L4459 5099
" />
<path d="M4365 4686
L4271 4968
L4515 4968
" />
<path d="M4571 5136
L4871 5136
" />
<path d="M4965 5099
L4965 4705
L5096 4986
L5227 4705
L5227 5099
" />
<path d="M5584 5099
L5584 4893
L5565 4855
L5527 4836
L5452 4836
L5415 4855
" />
<path d="M5584 5080
L5546 5099
L5452 5099
L5415 5080
L5396 5043
L5396 5005
L5415 4968
L5452 4949
L5546 4949
L5584 4930
" />
<path d="M5827 5099
L5790 5080
L5771 5043
L5771 4705
" />
<path d="M6127 5080
L6090 5099
L6015 5099
L5977 5080
L5959 5043
L5959 4893
L5977 4855
L6015 4836
L6090 4836
L6127 4855
L6146 4893
L6146 4930
L5959 4968
" />
<g transform="rotate(-90 3606.3 7338.58)">
<text x="3606.3" y="7535.43"
textLength="751.687" font-size="524.934" lengthAdjust="spacingAndGlyphs"
text-anchor="middle" opacity="0">J2</text>
</g>
<path d="M3390 7469
L3671 7469
L3728 7488
L3765 7526
L3784 7582
L3784 7619
" />
<path d="M3428 7301
L3409 7282
L3390 7244
L3390 7151
L3409 7113
L3428 7094
L3465 7076
L3503 7076
L3559 7094
L3784 7319
L3784 7076
" />
<g transform="rotate(-90 11887.8 7196.85)">
<text x="11887.8" y="7393.7"
textLength="4557.46" font-size="524.934" lengthAdjust="spacingAndGlyphs"
text-anchor="middle" opacity="0">ATtiny85-20SU</text>
</g>
<path d="M11953 9362
L11953 9174
" />
<path d="M12065 9399
L11672 9268
L12065 9137
" />
<path d="M11672 9062
L11672 8837
" />
<path d="M12065 8949
L11672 8949
" />
<path d="M11803 8762
L11803 8612
" />
<path d="M11672 8706
L12009 8706
L12047 8687
L12065 8649
L12065 8612
" />
<path d="M12065 8481
L11803 8481
" />
<path d="M11672 8481
L11690 8499
L11709 8481
L11690 8462
L11672 8481
L11709 8481
" />
<path d="M11803 8293
L12065 8293
" />
<path d="M11840 8293
L11822 8274
L11803 8237
L11803 8181
L11822 8143
L11859 8124
L12065 8124
" />
<path d="M11803 7974
L12065 7881
" />
<path d="M11803 7787
L12065 7881
L12159 7918
L12178 7937
L12197 7974
" />
<path d="M11840 7581
L11822 7618
L11803 7637
L11765 7656
L11747 7656
L11709 7637
L11690 7618
L11672 7581
L11672 7506
L11690 7468
L11709 7449
L11747 7431
L11765 7431
L11803 7449
L11822 7468
L11840 7506
L11840 7581
L11859 7618
L11878 7637
L11915 7656
L11990 7656
L12028 7637
L12047 7618
L12065 7581
L12065 7506
L12047 7468
L12028 7449
L11990 7431
L11915 7431
L11878 7449
L11859 7468
L11840 7506
" />
<path d="M11672 7074
L11672 7262
L11859 7281
L11840 7262
L11822 7224
L11822 7131
L11840 7093
L11859 7074
L11897 7056
L11990 7056
L12028 7074
L12047 7093
L12065 7131
L12065 7224
L12047 7262
L12028 7281
" />
<path d="M11915 6887
L11915 6587
" />
<path d="M11709 6418
L11690 6400
L11672 6362
L11672 6268
L11690 6231
L11709 6212
L11747 6193
L11784 6193
L11840 6212
L12065 6437
L12065 6193
" />
<path d="M11672 5950
L11672 5912
L11690 5875
L11709 5856
L11747 5837
L11822 5818
L11915 5818
L11990 5837
L12028 5856
L12047 5875
L12065 5912
L12065 5950
L12047 5987
L12028 6006
L11990 6025
L11915 6043
L11822 6043
L11747 6025
L11709 6006
L11690 5987
L11672 5950
" />
<path d="M12047 5668
L12065 5612
L12065 5518
L12047 5481
L12028 5462
L11990 5443
L11953 5443
L11915 5462
L11897 5481
L11878 5518
L11859 5593
L11840 5631
L11822 5650
L11784 5668
L11747 5668
L11709 5650
L11690 5631
L11672 5593
L11672 5500
L11690 5443
" />
<path d="M11672 5275
L11990 5275
L12028 5256
L12047 5237
L12065 5200
L12065 5125
L12047 5087
L12028 5068
L11990 5050
L11672 5050
" />
<g transform="rotate(-90 10439 7196.85)">
<text x="10439" y="7393.7"
textLength="864.173" font-size="524.934" lengthAdjust="spacingAndGlyphs"
text-anchor="middle" opacity="0">U1</text>
</g>
<path d="M10223 7496
L10542 7496
L10579 7478
L10598 7459
L10617 7421
L10617 7346
L10598 7309
L10579 7290
L10542 7271
L10223 7271
" />
<path d="M10617 6878
L10617 7103
" />
<path d="M10617 6990
L10223 6990
L10279 7028
L10317 7065
L10335 7103
" />
<g transform="rotate(-90 8606.3 5098.43)">
<text x="8606.3" y="5295.28"
textLength="9394.36" font-size="524.934" lengthAdjust="spacingAndGlyphs"
text-anchor="middle" opacity="0">Conn_02x03_Counter_Clockwise</text>
</g>
<path d="M8746 9438
L8765 9457
L8784 9513
L8784 9550
L8765 9607
L8728 9644
L8690 9663
L8615 9682
L8559 9682
L8484 9663
L8446 9644
L8409 9607
L8390 9550
L8390 9513
L8409 9457
L8428 9438
" />
<path d="M8784 9213
L8765 9251
L8746 9269
L8709 9288
L8596 9288
L8559 9269
L8540 9251
L8521 9213
L8521 9157
L8540 9119
L8559 9101
L8596 9082
L8709 9082
L8746 9101
L8765 9119
L8784 9157
L8784 9213
" />
<path d="M8521 8913
L8784 8913
" />
<path d="M8559 8913
L8540 8894
L8521 8857
L8521 8801
L8540 8763
L8578 8744
L8784 8744
" />
<path d="M8521 8557
L8784 8557
" />
<path d="M8559 8557
L8540 8538
L8521 8501
L8521 8444
L8540 8407
L8578 8388
L8784 8388
" />
<path d="M8821 8294
L8821 7994
" />
<path d="M8390 7826
L8390 7788
L8409 7751
L8428 7732
L8465 7713
L8540 7694
L8634 7694
L8709 7713
L8746 7732
L8765 7751
L8784 7788
L8784 7826
L8765 7863
L8746 7882
L8709 7901
L8634 7919
L8540 7919
L8465 7901
L8428 7882
L8409 7863
L8390 7826
" />
<path d="M8428 7544
L8409 7526
L8390 7488
L8390 7395
L8409 7357
L8428 7338
L8465 7320
L8503 7320
L8559 7338
L8784 7563
L8784 7320
" />
<path d="M8784 7188
L8521 6982
" />
<path d="M8521 7188
L8784 6982
" />
<path d="M8390 6757
L8390 6720
L8409 6682
L8428 6663
L8465 6645
L8540 6626
L8634 6626
L8709 6645
L8746 6663
L8765 6682
L8784 6720
L8784 6757
L8765 6795
L8746 6813
L8709 6832
L8634 6851
L8540 6851
L8465 6832
L8428 6813
L8409 6795
L8390 6757
" />
<path d="M8390 6495
L8390 6251
L8540 6382
L8540 6326
L8559 6288
L8578 6270
L8615 6251
L8709 6251
L8746 6270
L8765 6288
L8784 6326
L8784 6438
L8765 6476
L8746 6495
" />
<path d="M8821 6176
L8821 5876
" />
<path d="M8746 5557
L8765 5576
L8784 5632
L8784 5670
L8765 5726
L8728 5763
L8690 5782
L8615 5801
L8559 5801
L8484 5782
L8446 5763
L8409 5726
L8390 5670
L8390 5632
L8409 5576
L8428 5557
" />
<path d="M8784 5332
L8765 5370
L8746 5389
L8709 5407
L8596 5407
L8559 5389
L8540 5370
L8521 5332
L8521 5276
L8540 5239
L8559 5220
L8596 5201
L8709 5201
L8746 5220
L8765 5239
L8784 5276
L8784 5332
" />
<path d="M8521 4864
L8784 4864
" />
<path d="M8521 5032
L8728 5032
L8765 5014
L8784 4976
L8784 4920
L8765 4882
L8746 4864
" />
<path d="M8521 4676
L8784 4676
" />
<path d="M8559 4676
L8540 4657
L8521 4620
L8521 4564
L8540 4526
L8578 4507
L8784 4507
" />
<path d="M8521 4376
L8521 4226
" />
<path d="M8390 4320
L8728 4320
L8765 4301
L8784 4264
L8784 4226
" />
<path d="M8765 3945
L8784 3982
L8784 4057
L8765 4095
L8728 4114
L8578 4114
L8540 4095
L8521 4057
L8521 3982
L8540 3945
L8578 3926
L8615 3926
L8653 4114
" />
<path d="M8784 3757
L8521 3757
" />
<path d="M8596 3757
L8559 3739
L8540 3720
L8521 3682
L8521 3645
" />
<path d="M8821 3607
L8821 3308
" />
<path d="M8746 2989
L8765 3008
L8784 3064
L8784 3101
L8765 3158
L8728 3195
L8690 3214
L8615 3233
L8559 3233
L8484 3214
L8446 3195
L8409 3158
L8390 3101
L8390 3064
L8409 3008
L8428 2989
" />
<path d="M8784 2764
L8765 2801
L8728 2820
L8390 2820
" />
<path d="M8784 2558
L8765 2595
L8746 2614
L8709 2633
L8596 2633
L8559 2614
L8540 2595
L8521 2558
L8521 2501
L8540 2464
L8559 2445
L8596 2426
L8709 2426
L8746 2445
L8765 2464
L8784 2501
L8784 2558
" />
<path d="M8765 2089
L8784 2126
L8784 2201
L8765 2239
L8746 2258
L8709 2276
L8596 2276
L8559 2258
L8540 2239
L8521 2201
L8521 2126
L8540 2089
" />
<path d="M8784 1920
L8390 1920
" />
<path d="M8634 1883
L8784 1770
" />
<path d="M8521 1770
L8671 1920
" />
<path d="M8521 1639
L8784 1564
L8596 1489
L8784 1414
L8521 1339
" />
<path d="M8784 1189
L8521 1189
" />
<path d="M8390 1189
L8409 1208
L8428 1189
L8409 1170
L8390 1189
L8428 1189
" />
<path d="M8765 1020
L8784 983
L8784 908
L8765 870
L8728 852
L8709 852
L8671 870
L8653 908
L8653 964
L8634 1002
L8596 1020
L8578 1020
L8540 1002
L8521 964
L8521 908
L8540 870
" />
<path d="M8765 533
L8784 570
L8784 645
L8765 683
L8728 702
L8578 702
L8540 683
L8521 645
L8521 570
L8540 533
L8578 514
L8615 514
L8653 702
" />
<text x="6688.98" y="5295.28"
textLength="751.687" font-size="524.934" lengthAdjust="spacingAndGlyphs"
text-anchor="middle" opacity="0">J3</text>
<path d="M6557 4882
L6557 5164
L6538 5220
L6501 5257
L6445 5276
L6407 5276
" />
<path d="M6707 4882
L6951 4882
L6820 5032
L6876 5032
L6913 5051
L6932 5070
L6951 5107
L6951 5201
L6932 5239
L6913 5257
L6876 5276
L6763 5276
L6726 5257
L6707 5239
" />
<g transform="rotate(-90 1673.23 7525.59)">
<text x="1673.23" y="7722.44"
textLength="470.472" font-size="524.934" lengthAdjust="spacingAndGlyphs"
text-anchor="middle" opacity="0">C</text>
</g>
<path d="M1813 7403
L1832 7422
L1851 7478
L1851 7516
L1832 7572
L1795 7609
L1757 7628
L1682 7647
L1626 7647
L1551 7628
L1513 7609
L1476 7572
L1457 7516
L1457 7478
L1476 7422
L1495 7403
" />
</g>
<g style="fill:#C2C200; fill-opacity:0.0; 
stroke:#C2C200; stroke-width:31.4961; stroke-opacity:1; 
stroke-linecap:round; stroke-linejoin:round;">
<g transform="rotate(-90 2322.83 7525.59)">
<text x="2322.83" y="7624.02"
textLength="461.098" font-size="262.467" lengthAdjust="spacingAndGlyphs"
text-anchor="middle" opacity="0">C1</text>
</g>
<path d="M2393 7558
L2402 7567
L2411 7595
L2411 7614
L2402 7642
L2383 7661
L2365 7670
L2327 7680
L2299 7680
L2261 7670
L2243 7661
L2224 7642
L2215 7614
L2215 7595
L2224 7567
L2233 7558
" />
<path d="M2411 7370
L2411 7483
" />
<path d="M2411 7427
L2215 7427
L2243 7445
L2261 7464
L2271 7483
" />
</g>
<g style="fill:#C2C200; fill-opacity:0.0; 
stroke:#C2C200; stroke-width:59.0551; stroke-opacity:1; 
stroke-linecap:round; stroke-linejoin:round;">
<g transform="rotate(-90 7539.37 9000)">
<text x="7539.37" y="9196.85"
textLength="434.646" font-size="524.934" lengthAdjust="spacingAndGlyphs"
text-anchor="middle" opacity="0">R</text>
</g>
<path d="M7717 8878
L7529 9009
" />
<path d="M7717 9103
L7323 9103
L7323 8953
L7342 8915
L7361 8896
L7398 8878
L7455 8878
L7492 8896
L7511 8915
L7529 8953
L7529 9103
" />
</g>
<g style="fill:#C2C200; fill-opacity:0.0; 
stroke:#C2C200; stroke-width:31.4961; stroke-opacity:1; 
stroke-linecap:round; stroke-linejoin:round;">
<g transform="rotate(-90 6889.76 9000)">
<text x="6889.76" y="9098.43"
textLength="461.098" font-size="262.467" lengthAdjust="spacingAndGlyphs"
text-anchor="middle" opacity="0">R1</text>
</g>
<path d="M6978 9032
L6885 9098
" />
<path d="M6978 9145
L6781 9145
L6781 9070
L6791 9051
L6800 9042
L6819 9032
L6847 9032
L6866 9042
L6875 9051
L6885 9070
L6885 9145
" />
<path d="M6978 8845
L6978 8957
" />
<path d="M6978 8901
L6781 8901
L6810 8920
L6828 8939
L6838 8957
" />
<g >
</g>
</g>
<g style="fill:#000000; fill-opacity:0.0; 
stroke:#000000; stroke-width:31.4961; stroke-opacity:1; 
stroke-linecap:round; stroke-linejoin:round;">
<g >
</g>
<g >
</g>
<g >
</g>
<g >
</g>
<g >
</g>
<g >
</g>
<g >
</g>
</g>
<g style="fill:#000000; fill-opacity:0.0; 
stroke:#000000; stroke-width:31.4961; stroke-opacity:1; 
stroke-linecap:round; stroke-linejoin:round;">
<g >
</g>
<g >
</g>
<g >
</g>
<g >
</g>
<g >
</g>
<g >
</g>
<g >
</g>
</g> 
</svg>
