G04 #@! TF.FileFunction,Legend,Top*
%FSLAX46Y46*%
G04 Gerber Fmt 4.6, Leading zero omitted, Abs format (unit mm)*
G04 Created by KiCad (PCBNEW 4.0.7-e2-6376~58~ubuntu14.04.1) date Sat Apr 21 17:00:56 2018*
%MOMM*%
%LPD*%
G01*
G04 APERTURE LIST*
%ADD10C,0.100000*%
%ADD11C,0.120000*%
G04 APERTURE END LIST*
D10*
D11*
X177370000Y-83670000D02*
X177370000Y-86330000D01*
X195210000Y-83670000D02*
X177370000Y-83670000D01*
X195210000Y-86330000D02*
X177370000Y-86330000D01*
X195210000Y-83670000D02*
X195210000Y-86330000D01*
X196480000Y-83670000D02*
X197810000Y-83670000D01*
X197810000Y-83670000D02*
X197810000Y-85000000D01*
X187190000Y-124010000D02*
X187190000Y-126670000D01*
X194870000Y-124010000D02*
X187190000Y-124010000D01*
X194870000Y-126670000D02*
X187190000Y-126670000D01*
X194870000Y-124010000D02*
X194870000Y-126670000D01*
X196140000Y-124010000D02*
X197470000Y-124010000D01*
X197470000Y-124010000D02*
X197470000Y-125340000D01*
X175336814Y-93173482D02*
X173033186Y-91843482D01*
X168956814Y-104223966D02*
X175336814Y-93173482D01*
X166653186Y-102893966D02*
X173033186Y-91843482D01*
X168956814Y-104223966D02*
X166653186Y-102893966D01*
X168321814Y-105323818D02*
X167656814Y-106475632D01*
X167656814Y-106475632D02*
X166505000Y-105810632D01*
X212023186Y-106665336D02*
X214326814Y-105335336D01*
X204373186Y-93415147D02*
X212023186Y-106665336D01*
X206676814Y-92085147D02*
X214326814Y-105335336D01*
X204373186Y-93415147D02*
X206676814Y-92085147D01*
X203738186Y-92315295D02*
X203073186Y-91163481D01*
X203073186Y-91163481D02*
X204225000Y-90498481D01*
X209490000Y-110550000D02*
X212150000Y-110550000D01*
X209490000Y-110490000D02*
X209490000Y-110550000D01*
X212150000Y-110490000D02*
X212150000Y-110550000D01*
X209490000Y-110490000D02*
X212150000Y-110490000D01*
X209490000Y-109220000D02*
X209490000Y-107890000D01*
X209490000Y-107890000D02*
X210820000Y-107890000D01*
X201990000Y-86260000D02*
X201990000Y-83600000D01*
X201930000Y-86260000D02*
X201990000Y-86260000D01*
X201930000Y-83600000D02*
X201990000Y-83600000D01*
X201930000Y-86260000D02*
X201930000Y-83600000D01*
X200660000Y-86260000D02*
X199330000Y-86260000D01*
X199330000Y-86260000D02*
X199330000Y-84930000D01*
X173930000Y-105470000D02*
X176590000Y-105470000D01*
X173930000Y-97790000D02*
X173930000Y-105470000D01*
X176590000Y-97790000D02*
X176590000Y-105470000D01*
X173930000Y-97790000D02*
X176590000Y-97790000D01*
X173930000Y-96520000D02*
X173930000Y-95190000D01*
X173930000Y-95190000D02*
X175260000Y-95190000D01*
X206950000Y-115630000D02*
X209610000Y-115630000D01*
X206950000Y-107950000D02*
X206950000Y-115630000D01*
X209610000Y-107950000D02*
X209610000Y-115630000D01*
X206950000Y-107950000D02*
X209610000Y-107950000D01*
X206950000Y-106680000D02*
X206950000Y-105350000D01*
X206950000Y-105350000D02*
X208280000Y-105350000D01*
X189170000Y-105470000D02*
X191830000Y-105470000D01*
X189170000Y-90170000D02*
X189170000Y-105470000D01*
X191830000Y-90170000D02*
X191830000Y-105470000D01*
X189170000Y-90170000D02*
X191830000Y-90170000D01*
X189170000Y-88900000D02*
X189170000Y-87570000D01*
X189170000Y-87570000D02*
X190500000Y-87570000D01*
X191710000Y-105470000D02*
X194370000Y-105470000D01*
X191710000Y-90170000D02*
X191710000Y-105470000D01*
X194370000Y-90170000D02*
X194370000Y-105470000D01*
X191710000Y-90170000D02*
X194370000Y-90170000D01*
X191710000Y-88900000D02*
X191710000Y-87570000D01*
X191710000Y-87570000D02*
X193040000Y-87570000D01*
X194250000Y-105470000D02*
X196910000Y-105470000D01*
X194250000Y-90170000D02*
X194250000Y-105470000D01*
X196910000Y-90170000D02*
X196910000Y-105470000D01*
X194250000Y-90170000D02*
X196910000Y-90170000D01*
X194250000Y-88900000D02*
X194250000Y-87570000D01*
X194250000Y-87570000D02*
X195580000Y-87570000D01*
X196790000Y-105470000D02*
X199450000Y-105470000D01*
X196790000Y-90170000D02*
X196790000Y-105470000D01*
X199450000Y-90170000D02*
X199450000Y-105470000D01*
X196790000Y-90170000D02*
X199450000Y-90170000D01*
X196790000Y-88900000D02*
X196790000Y-87570000D01*
X196790000Y-87570000D02*
X198120000Y-87570000D01*
X199330000Y-105470000D02*
X201990000Y-105470000D01*
X199330000Y-90170000D02*
X199330000Y-105470000D01*
X201990000Y-90170000D02*
X201990000Y-105470000D01*
X199330000Y-90170000D02*
X201990000Y-90170000D01*
X199330000Y-88900000D02*
X199330000Y-87570000D01*
X199330000Y-87570000D02*
X200660000Y-87570000D01*
X186630000Y-105470000D02*
X189290000Y-105470000D01*
X186630000Y-90170000D02*
X186630000Y-105470000D01*
X189290000Y-90170000D02*
X189290000Y-105470000D01*
X186630000Y-90170000D02*
X189290000Y-90170000D01*
X186630000Y-88900000D02*
X186630000Y-87570000D01*
X186630000Y-87570000D02*
X187960000Y-87570000D01*
X196790000Y-123250000D02*
X199450000Y-123250000D01*
X196790000Y-107950000D02*
X196790000Y-123250000D01*
X199450000Y-107950000D02*
X199450000Y-123250000D01*
X196790000Y-107950000D02*
X199450000Y-107950000D01*
X196790000Y-106680000D02*
X196790000Y-105350000D01*
X196790000Y-105350000D02*
X198120000Y-105350000D01*
X194250000Y-123250000D02*
X196910000Y-123250000D01*
X194250000Y-107950000D02*
X194250000Y-123250000D01*
X196910000Y-107950000D02*
X196910000Y-123250000D01*
X194250000Y-107950000D02*
X196910000Y-107950000D01*
X194250000Y-106680000D02*
X194250000Y-105350000D01*
X194250000Y-105350000D02*
X195580000Y-105350000D01*
X176470000Y-105470000D02*
X179130000Y-105470000D01*
X176470000Y-90170000D02*
X176470000Y-105470000D01*
X179130000Y-90170000D02*
X179130000Y-105470000D01*
X176470000Y-90170000D02*
X179130000Y-90170000D01*
X176470000Y-88900000D02*
X176470000Y-87570000D01*
X176470000Y-87570000D02*
X177800000Y-87570000D01*
X179010000Y-105470000D02*
X181670000Y-105470000D01*
X179010000Y-90170000D02*
X179010000Y-105470000D01*
X181670000Y-90170000D02*
X181670000Y-105470000D01*
X179010000Y-90170000D02*
X181670000Y-90170000D01*
X179010000Y-88900000D02*
X179010000Y-87570000D01*
X179010000Y-87570000D02*
X180340000Y-87570000D01*
X181550000Y-105470000D02*
X184210000Y-105470000D01*
X181550000Y-90170000D02*
X181550000Y-105470000D01*
X184210000Y-90170000D02*
X184210000Y-105470000D01*
X181550000Y-90170000D02*
X184210000Y-90170000D01*
X181550000Y-88900000D02*
X181550000Y-87570000D01*
X181550000Y-87570000D02*
X182880000Y-87570000D01*
X184090000Y-105470000D02*
X186750000Y-105470000D01*
X184090000Y-90170000D02*
X184090000Y-105470000D01*
X186750000Y-90170000D02*
X186750000Y-105470000D01*
X184090000Y-90170000D02*
X186750000Y-90170000D01*
X184090000Y-88900000D02*
X184090000Y-87570000D01*
X184090000Y-87570000D02*
X185420000Y-87570000D01*
X186630000Y-123250000D02*
X189290000Y-123250000D01*
X186630000Y-107950000D02*
X186630000Y-123250000D01*
X189290000Y-107950000D02*
X189290000Y-123250000D01*
X186630000Y-107950000D02*
X189290000Y-107950000D01*
X186630000Y-106680000D02*
X186630000Y-105350000D01*
X186630000Y-105350000D02*
X187960000Y-105350000D01*
X189170000Y-123250000D02*
X191830000Y-123250000D01*
X189170000Y-107950000D02*
X189170000Y-123250000D01*
X191830000Y-107950000D02*
X191830000Y-123250000D01*
X189170000Y-107950000D02*
X191830000Y-107950000D01*
X189170000Y-106680000D02*
X189170000Y-105350000D01*
X189170000Y-105350000D02*
X190500000Y-105350000D01*
X191710000Y-123250000D02*
X194370000Y-123250000D01*
X191710000Y-107950000D02*
X191710000Y-123250000D01*
X194370000Y-107950000D02*
X194370000Y-123250000D01*
X191710000Y-107950000D02*
X194370000Y-107950000D01*
X191710000Y-106680000D02*
X191710000Y-105350000D01*
X191710000Y-105350000D02*
X193040000Y-105350000D01*
X204410000Y-105470000D02*
X207070000Y-105470000D01*
X204410000Y-102870000D02*
X204410000Y-105470000D01*
X207070000Y-102870000D02*
X207070000Y-105470000D01*
X204410000Y-102870000D02*
X207070000Y-102870000D01*
X204410000Y-101600000D02*
X204410000Y-100270000D01*
X204410000Y-100270000D02*
X205740000Y-100270000D01*
X171390000Y-105470000D02*
X174050000Y-105470000D01*
X171390000Y-102870000D02*
X171390000Y-105470000D01*
X174050000Y-102870000D02*
X174050000Y-105470000D01*
X171390000Y-102870000D02*
X174050000Y-102870000D01*
X171390000Y-101600000D02*
X171390000Y-100270000D01*
X171390000Y-100270000D02*
X172720000Y-100270000D01*
X173930000Y-120710000D02*
X176590000Y-120710000D01*
X173930000Y-107950000D02*
X173930000Y-120710000D01*
X176590000Y-107950000D02*
X176590000Y-120710000D01*
X173930000Y-107950000D02*
X176590000Y-107950000D01*
X173930000Y-106680000D02*
X173930000Y-105350000D01*
X173930000Y-105350000D02*
X175260000Y-105350000D01*
X168850000Y-113090000D02*
X171510000Y-113090000D01*
X168850000Y-107950000D02*
X168850000Y-113090000D01*
X171510000Y-107950000D02*
X171510000Y-113090000D01*
X168850000Y-107950000D02*
X171510000Y-107950000D01*
X168850000Y-106680000D02*
X168850000Y-105350000D01*
X168850000Y-105350000D02*
X170180000Y-105350000D01*
X184090000Y-125790000D02*
X186750000Y-125790000D01*
X184090000Y-107950000D02*
X184090000Y-125790000D01*
X186750000Y-107950000D02*
X186750000Y-125790000D01*
X184090000Y-107950000D02*
X186750000Y-107950000D01*
X184090000Y-106680000D02*
X184090000Y-105350000D01*
X184090000Y-105350000D02*
X185420000Y-105350000D01*
X181550000Y-125790000D02*
X184210000Y-125790000D01*
X181550000Y-107950000D02*
X181550000Y-125790000D01*
X184210000Y-107950000D02*
X184210000Y-125790000D01*
X181550000Y-107950000D02*
X184210000Y-107950000D01*
X181550000Y-106680000D02*
X181550000Y-105350000D01*
X181550000Y-105350000D02*
X182880000Y-105350000D01*
X179010000Y-125790000D02*
X181670000Y-125790000D01*
X179010000Y-107950000D02*
X179010000Y-125790000D01*
X181670000Y-107950000D02*
X181670000Y-125790000D01*
X179010000Y-107950000D02*
X181670000Y-107950000D01*
X179010000Y-106680000D02*
X179010000Y-105350000D01*
X179010000Y-105350000D02*
X180340000Y-105350000D01*
X176470000Y-125790000D02*
X179130000Y-125790000D01*
X176470000Y-107950000D02*
X176470000Y-125790000D01*
X179130000Y-107950000D02*
X179130000Y-125790000D01*
X176470000Y-107950000D02*
X179130000Y-107950000D01*
X176470000Y-106680000D02*
X176470000Y-105350000D01*
X176470000Y-105350000D02*
X177800000Y-105350000D01*
X204410000Y-118170000D02*
X207070000Y-118170000D01*
X204410000Y-107950000D02*
X204410000Y-118170000D01*
X207070000Y-107950000D02*
X207070000Y-118170000D01*
X204410000Y-107950000D02*
X207070000Y-107950000D01*
X204410000Y-106680000D02*
X204410000Y-105350000D01*
X204410000Y-105350000D02*
X205740000Y-105350000D01*
X171390000Y-118170000D02*
X174050000Y-118170000D01*
X171390000Y-107950000D02*
X171390000Y-118170000D01*
X174050000Y-107950000D02*
X174050000Y-118170000D01*
X171390000Y-107950000D02*
X174050000Y-107950000D01*
X171390000Y-106680000D02*
X171390000Y-105350000D01*
X171390000Y-105350000D02*
X172720000Y-105350000D01*
X201870000Y-123250000D02*
X204530000Y-123250000D01*
X201870000Y-107950000D02*
X201870000Y-123250000D01*
X204530000Y-107950000D02*
X204530000Y-123250000D01*
X201870000Y-107950000D02*
X204530000Y-107950000D01*
X201870000Y-106680000D02*
X201870000Y-105350000D01*
X201870000Y-105350000D02*
X203200000Y-105350000D01*
X199330000Y-125790000D02*
X201990000Y-125790000D01*
X199330000Y-107950000D02*
X199330000Y-125790000D01*
X201990000Y-107950000D02*
X201990000Y-125790000D01*
X199330000Y-107950000D02*
X201990000Y-107950000D01*
X199330000Y-106680000D02*
X199330000Y-105350000D01*
X199330000Y-105350000D02*
X200660000Y-105350000D01*
X201870000Y-105470000D02*
X204530000Y-105470000D01*
X201870000Y-97790000D02*
X201870000Y-105470000D01*
X204530000Y-97790000D02*
X204530000Y-105470000D01*
X201870000Y-97790000D02*
X204530000Y-97790000D01*
X201870000Y-96520000D02*
X201870000Y-95190000D01*
X201870000Y-95190000D02*
X203200000Y-95190000D01*
M02*
