G04 #@! TF.FileFunction,Other,User*
%FSLAX46Y46*%
G04 Gerber Fmt 4.6, Leading zero omitted, Abs format (unit mm)*
G04 Created by KiCad (PCBNEW 4.0.7-e2-6376~58~ubuntu14.04.1) date Sat Apr 21 17:00:56 2018*
%MOMM*%
%LPD*%
G01*
G04 APERTURE LIST*
%ADD10C,0.100000*%
%ADD11C,0.050000*%
G04 APERTURE END LIST*
D10*
D11*
X198280000Y-83200000D02*
X176930000Y-83200000D01*
X176930000Y-83200000D02*
X176930000Y-86800000D01*
X176930000Y-86800000D02*
X198280000Y-86800000D01*
X198280000Y-86800000D02*
X198280000Y-83200000D01*
X197940000Y-123540000D02*
X186740000Y-123540000D01*
X186740000Y-123540000D02*
X186740000Y-127140000D01*
X186740000Y-127140000D02*
X197940000Y-127140000D01*
X197940000Y-127140000D02*
X197940000Y-123540000D01*
X167828846Y-107117664D02*
X175978846Y-93001450D01*
X175978846Y-93001450D02*
X172861154Y-91201450D01*
X172861154Y-91201450D02*
X164711154Y-105317664D01*
X164711154Y-105317664D02*
X167828846Y-107117664D01*
X202431154Y-90991449D02*
X211856154Y-107316028D01*
X211856154Y-107316028D02*
X214973846Y-105516028D01*
X214973846Y-105516028D02*
X205548846Y-89191449D01*
X205548846Y-89191449D02*
X202431154Y-90991449D01*
X209020000Y-107420000D02*
X209020000Y-111020000D01*
X209020000Y-111020000D02*
X212620000Y-111020000D01*
X212620000Y-111020000D02*
X212620000Y-107420000D01*
X212620000Y-107420000D02*
X209020000Y-107420000D01*
X198860000Y-86730000D02*
X202460000Y-86730000D01*
X202460000Y-86730000D02*
X202460000Y-83130000D01*
X202460000Y-83130000D02*
X198860000Y-83130000D01*
X198860000Y-83130000D02*
X198860000Y-86730000D01*
X173460000Y-94720000D02*
X173460000Y-105920000D01*
X173460000Y-105920000D02*
X177060000Y-105920000D01*
X177060000Y-105920000D02*
X177060000Y-94720000D01*
X177060000Y-94720000D02*
X173460000Y-94720000D01*
X206480000Y-104880000D02*
X206480000Y-116080000D01*
X206480000Y-116080000D02*
X210080000Y-116080000D01*
X210080000Y-116080000D02*
X210080000Y-104880000D01*
X210080000Y-104880000D02*
X206480000Y-104880000D01*
X188700000Y-87100000D02*
X188700000Y-105950000D01*
X188700000Y-105950000D02*
X192300000Y-105950000D01*
X192300000Y-105950000D02*
X192300000Y-87100000D01*
X192300000Y-87100000D02*
X188700000Y-87100000D01*
X191240000Y-87100000D02*
X191240000Y-105950000D01*
X191240000Y-105950000D02*
X194840000Y-105950000D01*
X194840000Y-105950000D02*
X194840000Y-87100000D01*
X194840000Y-87100000D02*
X191240000Y-87100000D01*
X193780000Y-87100000D02*
X193780000Y-105950000D01*
X193780000Y-105950000D02*
X197380000Y-105950000D01*
X197380000Y-105950000D02*
X197380000Y-87100000D01*
X197380000Y-87100000D02*
X193780000Y-87100000D01*
X196320000Y-87100000D02*
X196320000Y-105950000D01*
X196320000Y-105950000D02*
X199920000Y-105950000D01*
X199920000Y-105950000D02*
X199920000Y-87100000D01*
X199920000Y-87100000D02*
X196320000Y-87100000D01*
X198860000Y-87100000D02*
X198860000Y-105950000D01*
X198860000Y-105950000D02*
X202460000Y-105950000D01*
X202460000Y-105950000D02*
X202460000Y-87100000D01*
X202460000Y-87100000D02*
X198860000Y-87100000D01*
X186160000Y-87100000D02*
X186160000Y-105950000D01*
X186160000Y-105950000D02*
X189760000Y-105950000D01*
X189760000Y-105950000D02*
X189760000Y-87100000D01*
X189760000Y-87100000D02*
X186160000Y-87100000D01*
X196320000Y-104880000D02*
X196320000Y-123730000D01*
X196320000Y-123730000D02*
X199920000Y-123730000D01*
X199920000Y-123730000D02*
X199920000Y-104880000D01*
X199920000Y-104880000D02*
X196320000Y-104880000D01*
X193780000Y-104880000D02*
X193780000Y-123730000D01*
X193780000Y-123730000D02*
X197380000Y-123730000D01*
X197380000Y-123730000D02*
X197380000Y-104880000D01*
X197380000Y-104880000D02*
X193780000Y-104880000D01*
X176000000Y-87100000D02*
X176000000Y-105950000D01*
X176000000Y-105950000D02*
X179600000Y-105950000D01*
X179600000Y-105950000D02*
X179600000Y-87100000D01*
X179600000Y-87100000D02*
X176000000Y-87100000D01*
X178540000Y-87100000D02*
X178540000Y-105950000D01*
X178540000Y-105950000D02*
X182140000Y-105950000D01*
X182140000Y-105950000D02*
X182140000Y-87100000D01*
X182140000Y-87100000D02*
X178540000Y-87100000D01*
X181080000Y-87100000D02*
X181080000Y-105950000D01*
X181080000Y-105950000D02*
X184680000Y-105950000D01*
X184680000Y-105950000D02*
X184680000Y-87100000D01*
X184680000Y-87100000D02*
X181080000Y-87100000D01*
X183620000Y-87100000D02*
X183620000Y-105950000D01*
X183620000Y-105950000D02*
X187220000Y-105950000D01*
X187220000Y-105950000D02*
X187220000Y-87100000D01*
X187220000Y-87100000D02*
X183620000Y-87100000D01*
X186160000Y-104880000D02*
X186160000Y-123730000D01*
X186160000Y-123730000D02*
X189760000Y-123730000D01*
X189760000Y-123730000D02*
X189760000Y-104880000D01*
X189760000Y-104880000D02*
X186160000Y-104880000D01*
X188700000Y-104880000D02*
X188700000Y-123730000D01*
X188700000Y-123730000D02*
X192300000Y-123730000D01*
X192300000Y-123730000D02*
X192300000Y-104880000D01*
X192300000Y-104880000D02*
X188700000Y-104880000D01*
X191240000Y-104880000D02*
X191240000Y-123730000D01*
X191240000Y-123730000D02*
X194840000Y-123730000D01*
X194840000Y-123730000D02*
X194840000Y-104880000D01*
X194840000Y-104880000D02*
X191240000Y-104880000D01*
X203940000Y-99800000D02*
X203940000Y-105950000D01*
X203940000Y-105950000D02*
X207540000Y-105950000D01*
X207540000Y-105950000D02*
X207540000Y-99800000D01*
X207540000Y-99800000D02*
X203940000Y-99800000D01*
X170920000Y-99800000D02*
X170920000Y-105950000D01*
X170920000Y-105950000D02*
X174520000Y-105950000D01*
X174520000Y-105950000D02*
X174520000Y-99800000D01*
X174520000Y-99800000D02*
X170920000Y-99800000D01*
X173460000Y-104880000D02*
X173460000Y-121180000D01*
X173460000Y-121180000D02*
X177060000Y-121180000D01*
X177060000Y-121180000D02*
X177060000Y-104880000D01*
X177060000Y-104880000D02*
X173460000Y-104880000D01*
X168380000Y-104880000D02*
X168380000Y-113530000D01*
X168380000Y-113530000D02*
X171980000Y-113530000D01*
X171980000Y-113530000D02*
X171980000Y-104880000D01*
X171980000Y-104880000D02*
X168380000Y-104880000D01*
X183620000Y-104880000D02*
X183620000Y-126230000D01*
X183620000Y-126230000D02*
X187220000Y-126230000D01*
X187220000Y-126230000D02*
X187220000Y-104880000D01*
X187220000Y-104880000D02*
X183620000Y-104880000D01*
X181080000Y-104880000D02*
X181080000Y-126230000D01*
X181080000Y-126230000D02*
X184680000Y-126230000D01*
X184680000Y-126230000D02*
X184680000Y-104880000D01*
X184680000Y-104880000D02*
X181080000Y-104880000D01*
X178540000Y-104880000D02*
X178540000Y-126230000D01*
X178540000Y-126230000D02*
X182140000Y-126230000D01*
X182140000Y-126230000D02*
X182140000Y-104880000D01*
X182140000Y-104880000D02*
X178540000Y-104880000D01*
X176000000Y-104880000D02*
X176000000Y-126230000D01*
X176000000Y-126230000D02*
X179600000Y-126230000D01*
X179600000Y-126230000D02*
X179600000Y-104880000D01*
X179600000Y-104880000D02*
X176000000Y-104880000D01*
X203940000Y-104880000D02*
X203940000Y-118630000D01*
X203940000Y-118630000D02*
X207540000Y-118630000D01*
X207540000Y-118630000D02*
X207540000Y-104880000D01*
X207540000Y-104880000D02*
X203940000Y-104880000D01*
X170920000Y-104880000D02*
X170920000Y-118630000D01*
X170920000Y-118630000D02*
X174520000Y-118630000D01*
X174520000Y-118630000D02*
X174520000Y-104880000D01*
X174520000Y-104880000D02*
X170920000Y-104880000D01*
X201400000Y-104880000D02*
X201400000Y-123730000D01*
X201400000Y-123730000D02*
X205000000Y-123730000D01*
X205000000Y-123730000D02*
X205000000Y-104880000D01*
X205000000Y-104880000D02*
X201400000Y-104880000D01*
X198860000Y-104880000D02*
X198860000Y-126230000D01*
X198860000Y-126230000D02*
X202460000Y-126230000D01*
X202460000Y-126230000D02*
X202460000Y-104880000D01*
X202460000Y-104880000D02*
X198860000Y-104880000D01*
X201400000Y-94720000D02*
X201400000Y-105920000D01*
X201400000Y-105920000D02*
X205000000Y-105920000D01*
X205000000Y-105920000D02*
X205000000Y-94720000D01*
X205000000Y-94720000D02*
X201400000Y-94720000D01*
M02*
