%TF.GenerationSoftware,KiCad,Pcbnew,5.1.6-c6e7f7d~87~ubuntu18.04.1*%
%TF.CreationDate,2020-08-24T16:23:38+01:00*%
%TF.ProjectId,linefollower,6c696e65-666f-46c6-9c6f-7765722e6b69,rev?*%
%TF.SameCoordinates,Original*%
%TF.FileFunction,Copper,L1,Top*%
%TF.FilePolarity,Positive*%
%FSLAX46Y46*%
G04 Gerber Fmt 4.6, Leading zero omitted, Abs format (unit mm)*
G04 Created by KiCad (PCBNEW 5.1.6-c6e7f7d~87~ubuntu18.04.1) date 2020-08-24 16:23:38*
%MOMM*%
%LPD*%
G01*
G04 APERTURE LIST*
%TA.AperFunction,SMDPad,CuDef*%
%ADD10R,2.600000X0.800000*%
%TD*%
%TA.AperFunction,ComponentPad*%
%ADD11R,1.700000X1.700000*%
%TD*%
%TA.AperFunction,ComponentPad*%
%ADD12O,1.700000X1.700000*%
%TD*%
%TA.AperFunction,SMDPad,CuDef*%
%ADD13R,0.650000X1.700000*%
%TD*%
%TA.AperFunction,ViaPad*%
%ADD14C,1.700000*%
%TD*%
%TA.AperFunction,Conductor*%
%ADD15C,0.750000*%
%TD*%
%TA.AperFunction,Conductor*%
%ADD16C,0.254000*%
%TD*%
G04 APERTURE END LIST*
D10*
%TO.P,J1,8*%
%TO.N,N/C*%
X149480000Y-32980000D03*
%TO.P,J1,1*%
%TO.N,/SI*%
X146080000Y-32980000D03*
%TO.P,J1,7*%
%TO.N,Earth*%
X149480000Y-35480000D03*
%TO.P,J1,2*%
%TO.N,/CLK*%
X146080000Y-35480000D03*
%TO.P,J1,6*%
%TO.N,Earth*%
X149480000Y-37980000D03*
%TO.P,J1,3*%
%TO.N,/AO*%
X146080000Y-37980000D03*
%TO.P,J1,5*%
%TO.N,N/C*%
X149480000Y-40480000D03*
%TO.P,J1,4*%
%TO.N,VCC*%
X146080000Y-40480000D03*
%TD*%
D11*
%TO.P,J2,1*%
%TO.N,Earth*%
X115160000Y-44450000D03*
D12*
%TO.P,J2,2*%
%TO.N,VCC*%
X115160000Y-41910000D03*
%TO.P,J2,3*%
%TO.N,/SCL*%
X115160000Y-39370000D03*
%TO.P,J2,4*%
%TO.N,/SDA*%
X115160000Y-36830000D03*
%TD*%
D13*
%TO.P,U1,1*%
%TO.N,Net-(J3-Pad5)*%
X130610000Y-43930000D03*
%TO.P,U1,2*%
%TO.N,/SI*%
X131880000Y-43930000D03*
%TO.P,U1,3*%
%TO.N,/AO*%
X133150000Y-43930000D03*
%TO.P,U1,4*%
%TO.N,Earth*%
X134420000Y-43930000D03*
%TO.P,U1,5*%
%TO.N,/SDA*%
X134420000Y-36630000D03*
%TO.P,U1,6*%
%TO.N,/CLK*%
X133150000Y-36630000D03*
%TO.P,U1,7*%
%TO.N,/SCL*%
X131880000Y-36630000D03*
%TO.P,U1,8*%
%TO.N,VCC*%
X130610000Y-36630000D03*
%TD*%
D11*
%TO.P,J3,1*%
%TO.N,/CLK*%
X120450000Y-36220000D03*
D12*
%TO.P,J3,2*%
%TO.N,VCC*%
X120450000Y-33680000D03*
%TO.P,J3,3*%
%TO.N,/SCL*%
X122990000Y-36220000D03*
%TO.P,J3,4*%
%TO.N,/SDA*%
X122990000Y-33680000D03*
%TO.P,J3,5*%
%TO.N,Net-(J3-Pad5)*%
X125530000Y-36220000D03*
%TO.P,J3,6*%
%TO.N,Earth*%
X125530000Y-33680000D03*
%TD*%
%TO.P,C1,1*%
%TO.N,VCC*%
%TA.AperFunction,SMDPad,CuDef*%
G36*
G01*
X111449999Y-39515000D02*
X112350001Y-39515000D01*
G75*
G02*
X112600000Y-39764999I0J-249999D01*
G01*
X112600000Y-40415001D01*
G75*
G02*
X112350001Y-40665000I-249999J0D01*
G01*
X111449999Y-40665000D01*
G75*
G02*
X111200000Y-40415001I0J249999D01*
G01*
X111200000Y-39764999D01*
G75*
G02*
X111449999Y-39515000I249999J0D01*
G01*
G37*
%TD.AperFunction*%
%TO.P,C1,2*%
%TO.N,Earth*%
%TA.AperFunction,SMDPad,CuDef*%
G36*
G01*
X111449999Y-41565000D02*
X112350001Y-41565000D01*
G75*
G02*
X112600000Y-41814999I0J-249999D01*
G01*
X112600000Y-42465001D01*
G75*
G02*
X112350001Y-42715000I-249999J0D01*
G01*
X111449999Y-42715000D01*
G75*
G02*
X111200000Y-42465001I0J249999D01*
G01*
X111200000Y-41814999D01*
G75*
G02*
X111449999Y-41565000I249999J0D01*
G01*
G37*
%TD.AperFunction*%
%TD*%
%TO.P,R1,1*%
%TO.N,VCC*%
%TA.AperFunction,SMDPad,CuDef*%
G36*
G01*
X123950001Y-46460000D02*
X123049999Y-46460000D01*
G75*
G02*
X122800000Y-46210001I0J249999D01*
G01*
X122800000Y-45559999D01*
G75*
G02*
X123049999Y-45310000I249999J0D01*
G01*
X123950001Y-45310000D01*
G75*
G02*
X124200000Y-45559999I0J-249999D01*
G01*
X124200000Y-46210001D01*
G75*
G02*
X123950001Y-46460000I-249999J0D01*
G01*
G37*
%TD.AperFunction*%
%TO.P,R1,2*%
%TO.N,Net-(J3-Pad5)*%
%TA.AperFunction,SMDPad,CuDef*%
G36*
G01*
X123950001Y-44410000D02*
X123049999Y-44410000D01*
G75*
G02*
X122800000Y-44160001I0J249999D01*
G01*
X122800000Y-43509999D01*
G75*
G02*
X123049999Y-43260000I249999J0D01*
G01*
X123950001Y-43260000D01*
G75*
G02*
X124200000Y-43509999I0J-249999D01*
G01*
X124200000Y-44160001D01*
G75*
G02*
X123950001Y-44410000I-249999J0D01*
G01*
G37*
%TD.AperFunction*%
%TD*%
D14*
%TO.N,VCC*%
X127028659Y-46311359D03*
X132710000Y-47930000D03*
%TO.N,Earth*%
X137160000Y-33528000D03*
X128025174Y-32745492D03*
%TO.N,/SDA*%
X122884739Y-30727270D03*
X133259639Y-29699318D03*
%TO.N,Net-(J3-Pad5)*%
X125230031Y-39134977D03*
X126615000Y-43835000D03*
%TD*%
D15*
%TO.N,VCC*%
X116885001Y-40184999D02*
X115160000Y-41910000D01*
X116885001Y-36042918D02*
X116885001Y-40184999D01*
X119247919Y-33680000D02*
X116885001Y-36042918D01*
X120450000Y-33680000D02*
X119247919Y-33680000D01*
X132205013Y-32718015D02*
X127187986Y-27700988D01*
X127187986Y-27700988D02*
X119551368Y-27700988D01*
X112184988Y-35067368D02*
X112184989Y-38934989D01*
X112184989Y-38934989D02*
X115160000Y-41910000D01*
X132205013Y-33434987D02*
X132205013Y-32718015D01*
X130610000Y-35030000D02*
X132205013Y-33434987D01*
X130610000Y-36630000D02*
X130610000Y-35030000D01*
X119551368Y-27700988D02*
X112184988Y-35067368D01*
X122585002Y-45885000D02*
X123500000Y-45885000D01*
X116885001Y-40184999D02*
X122585002Y-45885000D01*
X123500000Y-45885000D02*
X126602300Y-45885000D01*
X126602300Y-45885000D02*
X127028659Y-46311359D01*
X138630000Y-47930000D02*
X146080000Y-40480000D01*
X132710000Y-47930000D02*
X138630000Y-47930000D01*
X111900000Y-39219978D02*
X112184989Y-38934989D01*
X111900000Y-40090000D02*
X111900000Y-39219978D01*
%TO.N,Earth*%
X125530000Y-33680000D02*
X126464508Y-32745492D01*
X126464508Y-32745492D02*
X128025174Y-32745492D01*
%TO.N,/SI*%
X129030002Y-48260000D02*
X131880000Y-45410002D01*
X131880000Y-45410002D02*
X131880000Y-43930000D01*
X109220000Y-43688000D02*
X113792000Y-48260000D01*
X109220000Y-33782000D02*
X109220000Y-43688000D01*
X117856000Y-25146000D02*
X109220000Y-33782000D01*
X113792000Y-48260000D02*
X129030002Y-48260000D01*
X138246000Y-25146000D02*
X129774000Y-25146000D01*
X146080000Y-32980000D02*
X138246000Y-25146000D01*
X129774000Y-25146000D02*
X117856000Y-25146000D01*
%TO.N,/CLK*%
X120450000Y-36220000D02*
X120450000Y-38680786D01*
X123879212Y-42109998D02*
X129767783Y-42109998D01*
X120450000Y-38680786D02*
X123879212Y-42109998D01*
X129767783Y-42109998D02*
X133150000Y-38727781D01*
X133150000Y-38727781D02*
X133150000Y-36630000D01*
X138352218Y-35480000D02*
X146080000Y-35480000D01*
X135477217Y-38355001D02*
X138352218Y-35480000D01*
X133394999Y-38355001D02*
X135477217Y-38355001D01*
X133150000Y-38110002D02*
X133394999Y-38355001D01*
X133150000Y-36630000D02*
X133150000Y-38110002D01*
%TO.N,/AO*%
X137619998Y-37980000D02*
X146080000Y-37980000D01*
X133150000Y-42449998D02*
X137619998Y-37980000D01*
X133150000Y-43930000D02*
X133150000Y-42449998D01*
%TO.N,/SCL*%
X131880000Y-38230000D02*
X131880000Y-36630000D01*
X128638300Y-39250620D02*
X130859380Y-39250620D01*
X130859380Y-39250620D02*
X131880000Y-38230000D01*
X113434999Y-37644999D02*
X113434999Y-35585139D01*
X130414228Y-32695012D02*
X130414228Y-32835012D01*
X128638300Y-34610940D02*
X128638300Y-39250620D01*
X115160000Y-39370000D02*
X113434999Y-37644999D01*
X130414228Y-32835012D02*
X128638300Y-34610940D01*
X126670215Y-28950999D02*
X130414228Y-32695012D01*
X120069139Y-28950999D02*
X126670215Y-28950999D01*
X113434999Y-35585139D02*
X120069139Y-28950999D01*
X127028933Y-40859987D02*
X128638300Y-39250620D01*
X122990000Y-39453004D02*
X124396983Y-40859987D01*
X124396983Y-40859987D02*
X127028933Y-40859987D01*
X122990000Y-36220000D02*
X122990000Y-39453004D01*
%TO.N,/SDA*%
X121264999Y-31954999D02*
X122990000Y-33680000D01*
X118832920Y-31954999D02*
X121264999Y-31954999D01*
X115160000Y-35627919D02*
X118832920Y-31954999D01*
X115160000Y-36830000D02*
X115160000Y-35627919D01*
X122990000Y-30832531D02*
X122884739Y-30727270D01*
X122990000Y-33680000D02*
X122990000Y-30832531D01*
X134420000Y-36630000D02*
X134420000Y-30859679D01*
X134420000Y-30859679D02*
X133259639Y-29699318D01*
%TO.N,Net-(J3-Pad5)*%
X125530000Y-36220000D02*
X125530000Y-38835008D01*
X130610000Y-43930000D02*
X126710000Y-43930000D01*
X123500000Y-43835000D02*
X126615000Y-43835000D01*
X126710000Y-43930000D02*
X126615000Y-43835000D01*
X125530000Y-38835008D02*
X125230031Y-39134977D01*
%TD*%
D16*
%TO.N,Earth*%
G36*
X160340000Y-50340000D02*
G01*
X106660000Y-50340000D01*
X106660000Y-33782000D01*
X108205114Y-33782000D01*
X108210000Y-33831608D01*
X108210001Y-43638382D01*
X108205114Y-43688000D01*
X108224615Y-43885994D01*
X108282368Y-44076379D01*
X108360941Y-44223379D01*
X108376154Y-44251840D01*
X108502368Y-44405633D01*
X108540901Y-44437256D01*
X113042739Y-48939094D01*
X113074367Y-48977633D01*
X113228160Y-49103847D01*
X113403620Y-49197632D01*
X113594006Y-49255385D01*
X113742392Y-49270000D01*
X113742394Y-49270000D01*
X113791999Y-49274886D01*
X113841604Y-49270000D01*
X128980394Y-49270000D01*
X129030002Y-49274886D01*
X129227996Y-49255385D01*
X129258967Y-49245990D01*
X129418382Y-49197632D01*
X129593842Y-49103847D01*
X129747635Y-48977633D01*
X129779263Y-48939094D01*
X131324885Y-47393473D01*
X131282068Y-47496842D01*
X131225000Y-47783740D01*
X131225000Y-48076260D01*
X131282068Y-48363158D01*
X131394010Y-48633411D01*
X131556525Y-48876632D01*
X131763368Y-49083475D01*
X132006589Y-49245990D01*
X132276842Y-49357932D01*
X132563740Y-49415000D01*
X132856260Y-49415000D01*
X133143158Y-49357932D01*
X133413411Y-49245990D01*
X133656632Y-49083475D01*
X133800107Y-48940000D01*
X138580392Y-48940000D01*
X138630000Y-48944886D01*
X138827994Y-48925385D01*
X139018380Y-48867632D01*
X139193840Y-48773847D01*
X139347633Y-48647633D01*
X139379261Y-48609094D01*
X146470283Y-41518072D01*
X147380000Y-41518072D01*
X147504482Y-41505812D01*
X147624180Y-41469502D01*
X147734494Y-41410537D01*
X147780000Y-41373191D01*
X147825506Y-41410537D01*
X147935820Y-41469502D01*
X148055518Y-41505812D01*
X148180000Y-41518072D01*
X150780000Y-41518072D01*
X150904482Y-41505812D01*
X151024180Y-41469502D01*
X151134494Y-41410537D01*
X151231185Y-41331185D01*
X151310537Y-41234494D01*
X151369502Y-41124180D01*
X151405812Y-41004482D01*
X151418072Y-40880000D01*
X151418072Y-40080000D01*
X151405812Y-39955518D01*
X151369502Y-39835820D01*
X151310537Y-39725506D01*
X151231185Y-39628815D01*
X151134494Y-39549463D01*
X151024180Y-39490498D01*
X150904482Y-39454188D01*
X150780000Y-39441928D01*
X148180000Y-39441928D01*
X148055518Y-39454188D01*
X147935820Y-39490498D01*
X147825506Y-39549463D01*
X147780000Y-39586809D01*
X147734494Y-39549463D01*
X147624180Y-39490498D01*
X147504482Y-39454188D01*
X147380000Y-39441928D01*
X144780000Y-39441928D01*
X144655518Y-39454188D01*
X144535820Y-39490498D01*
X144425506Y-39549463D01*
X144328815Y-39628815D01*
X144249463Y-39725506D01*
X144190498Y-39835820D01*
X144154188Y-39955518D01*
X144141928Y-40080000D01*
X144141928Y-40880000D01*
X144151765Y-40979880D01*
X138211645Y-46920000D01*
X133800107Y-46920000D01*
X133656632Y-46776525D01*
X133413411Y-46614010D01*
X133143158Y-46502068D01*
X132856260Y-46445000D01*
X132563740Y-46445000D01*
X132276842Y-46502068D01*
X132173473Y-46544885D01*
X132559100Y-46159258D01*
X132597633Y-46127635D01*
X132723847Y-45973842D01*
X132817632Y-45798382D01*
X132875385Y-45607996D01*
X132890000Y-45459610D01*
X132890000Y-45459609D01*
X132894091Y-45418072D01*
X133475000Y-45418072D01*
X133599482Y-45405812D01*
X133719180Y-45369502D01*
X133785000Y-45334320D01*
X133850820Y-45369502D01*
X133970518Y-45405812D01*
X134095000Y-45418072D01*
X134134250Y-45415000D01*
X134293000Y-45256250D01*
X134293000Y-44057000D01*
X134547000Y-44057000D01*
X134547000Y-45256250D01*
X134705750Y-45415000D01*
X134745000Y-45418072D01*
X134869482Y-45405812D01*
X134989180Y-45369502D01*
X135099494Y-45310537D01*
X135196185Y-45231185D01*
X135275537Y-45134494D01*
X135334502Y-45024180D01*
X135370812Y-44904482D01*
X135383072Y-44780000D01*
X135380000Y-44215750D01*
X135221250Y-44057000D01*
X134547000Y-44057000D01*
X134293000Y-44057000D01*
X134273000Y-44057000D01*
X134273000Y-43803000D01*
X134293000Y-43803000D01*
X134293000Y-43783000D01*
X134547000Y-43783000D01*
X134547000Y-43803000D01*
X135221250Y-43803000D01*
X135380000Y-43644250D01*
X135383072Y-43080000D01*
X135370812Y-42955518D01*
X135334502Y-42835820D01*
X135275537Y-42725506D01*
X135196185Y-42628815D01*
X135099494Y-42549463D01*
X134989180Y-42490498D01*
X134869482Y-42454188D01*
X134745000Y-42441928D01*
X134705750Y-42445000D01*
X134547002Y-42603748D01*
X134547002Y-42481351D01*
X138038354Y-38990000D01*
X144603393Y-38990000D01*
X144655518Y-39005812D01*
X144780000Y-39018072D01*
X147380000Y-39018072D01*
X147504482Y-39005812D01*
X147624180Y-38969502D01*
X147734494Y-38910537D01*
X147780000Y-38873191D01*
X147825506Y-38910537D01*
X147935820Y-38969502D01*
X148055518Y-39005812D01*
X148180000Y-39018072D01*
X149194250Y-39015000D01*
X149353000Y-38856250D01*
X149353000Y-38107000D01*
X149607000Y-38107000D01*
X149607000Y-38856250D01*
X149765750Y-39015000D01*
X150780000Y-39018072D01*
X150904482Y-39005812D01*
X151024180Y-38969502D01*
X151134494Y-38910537D01*
X151231185Y-38831185D01*
X151310537Y-38734494D01*
X151369502Y-38624180D01*
X151405812Y-38504482D01*
X151418072Y-38380000D01*
X151415000Y-38265750D01*
X151256250Y-38107000D01*
X149607000Y-38107000D01*
X149353000Y-38107000D01*
X149333000Y-38107000D01*
X149333000Y-37853000D01*
X149353000Y-37853000D01*
X149353000Y-37103750D01*
X149607000Y-37103750D01*
X149607000Y-37853000D01*
X151256250Y-37853000D01*
X151415000Y-37694250D01*
X151418072Y-37580000D01*
X151405812Y-37455518D01*
X151369502Y-37335820D01*
X151310537Y-37225506D01*
X151231185Y-37128815D01*
X151134494Y-37049463D01*
X151024180Y-36990498D01*
X150904482Y-36954188D01*
X150780000Y-36941928D01*
X149765750Y-36945000D01*
X149607000Y-37103750D01*
X149353000Y-37103750D01*
X149194250Y-36945000D01*
X148180000Y-36941928D01*
X148055518Y-36954188D01*
X147935820Y-36990498D01*
X147825506Y-37049463D01*
X147780000Y-37086809D01*
X147734494Y-37049463D01*
X147624180Y-36990498D01*
X147504482Y-36954188D01*
X147380000Y-36941928D01*
X144780000Y-36941928D01*
X144655518Y-36954188D01*
X144603393Y-36970000D01*
X138290573Y-36970000D01*
X138770573Y-36490000D01*
X144603393Y-36490000D01*
X144655518Y-36505812D01*
X144780000Y-36518072D01*
X147380000Y-36518072D01*
X147504482Y-36505812D01*
X147624180Y-36469502D01*
X147734494Y-36410537D01*
X147780000Y-36373191D01*
X147825506Y-36410537D01*
X147935820Y-36469502D01*
X148055518Y-36505812D01*
X148180000Y-36518072D01*
X149194250Y-36515000D01*
X149353000Y-36356250D01*
X149353000Y-35607000D01*
X149607000Y-35607000D01*
X149607000Y-36356250D01*
X149765750Y-36515000D01*
X150780000Y-36518072D01*
X150904482Y-36505812D01*
X151024180Y-36469502D01*
X151134494Y-36410537D01*
X151231185Y-36331185D01*
X151310537Y-36234494D01*
X151369502Y-36124180D01*
X151405812Y-36004482D01*
X151418072Y-35880000D01*
X151415000Y-35765750D01*
X151256250Y-35607000D01*
X149607000Y-35607000D01*
X149353000Y-35607000D01*
X149333000Y-35607000D01*
X149333000Y-35353000D01*
X149353000Y-35353000D01*
X149353000Y-34603750D01*
X149607000Y-34603750D01*
X149607000Y-35353000D01*
X151256250Y-35353000D01*
X151415000Y-35194250D01*
X151418072Y-35080000D01*
X151405812Y-34955518D01*
X151369502Y-34835820D01*
X151310537Y-34725506D01*
X151231185Y-34628815D01*
X151134494Y-34549463D01*
X151024180Y-34490498D01*
X150904482Y-34454188D01*
X150780000Y-34441928D01*
X149765750Y-34445000D01*
X149607000Y-34603750D01*
X149353000Y-34603750D01*
X149194250Y-34445000D01*
X148180000Y-34441928D01*
X148055518Y-34454188D01*
X147935820Y-34490498D01*
X147825506Y-34549463D01*
X147780000Y-34586809D01*
X147734494Y-34549463D01*
X147624180Y-34490498D01*
X147504482Y-34454188D01*
X147380000Y-34441928D01*
X144780000Y-34441928D01*
X144655518Y-34454188D01*
X144603393Y-34470000D01*
X138401822Y-34470000D01*
X138352217Y-34465114D01*
X138302612Y-34470000D01*
X138302610Y-34470000D01*
X138154224Y-34484615D01*
X137963838Y-34542368D01*
X137788378Y-34636153D01*
X137634585Y-34762367D01*
X137602957Y-34800906D01*
X135383072Y-37020791D01*
X135383072Y-36934516D01*
X135415385Y-36827994D01*
X135430000Y-36679608D01*
X135430000Y-30909283D01*
X135434886Y-30859678D01*
X135427326Y-30782923D01*
X135415385Y-30661685D01*
X135357632Y-30471299D01*
X135263847Y-30295839D01*
X135137633Y-30142046D01*
X135099094Y-30110418D01*
X134744639Y-29755963D01*
X134744639Y-29553058D01*
X134687571Y-29266160D01*
X134575629Y-28995907D01*
X134413114Y-28752686D01*
X134206271Y-28545843D01*
X133963050Y-28383328D01*
X133692797Y-28271386D01*
X133405899Y-28214318D01*
X133113379Y-28214318D01*
X132826481Y-28271386D01*
X132556228Y-28383328D01*
X132313007Y-28545843D01*
X132106164Y-28752686D01*
X131943649Y-28995907D01*
X131831707Y-29266160D01*
X131774639Y-29553058D01*
X131774639Y-29845578D01*
X131831707Y-30132476D01*
X131943649Y-30402729D01*
X132106164Y-30645950D01*
X132313007Y-30852793D01*
X132556228Y-31015308D01*
X132826481Y-31127250D01*
X133113379Y-31184318D01*
X133316284Y-31184318D01*
X133410001Y-31278035D01*
X133410000Y-35141928D01*
X132825000Y-35141928D01*
X132700518Y-35154188D01*
X132580820Y-35190498D01*
X132515000Y-35225680D01*
X132449180Y-35190498D01*
X132329482Y-35154188D01*
X132205000Y-35141928D01*
X131926427Y-35141928D01*
X132884107Y-34184248D01*
X132922646Y-34152620D01*
X133048860Y-33998827D01*
X133142645Y-33823367D01*
X133176003Y-33713400D01*
X133200398Y-33632982D01*
X133219899Y-33434988D01*
X133215013Y-33385380D01*
X133215013Y-32767623D01*
X133219899Y-32718015D01*
X133200398Y-32520020D01*
X133142645Y-32329635D01*
X133070681Y-32195000D01*
X133048860Y-32154175D01*
X132922646Y-32000382D01*
X132884113Y-31968759D01*
X127937247Y-27021894D01*
X127905619Y-26983355D01*
X127751826Y-26857141D01*
X127576366Y-26763356D01*
X127385980Y-26705603D01*
X127237594Y-26690988D01*
X127187986Y-26686102D01*
X127138378Y-26690988D01*
X119600976Y-26690988D01*
X119551368Y-26686102D01*
X119353373Y-26705603D01*
X119162988Y-26763356D01*
X118987528Y-26857141D01*
X118833735Y-26983355D01*
X118802112Y-27021888D01*
X111505888Y-34318113D01*
X111467355Y-34349736D01*
X111341141Y-34503529D01*
X111249282Y-34675385D01*
X111247356Y-34678989D01*
X111189603Y-34869374D01*
X111170102Y-35067368D01*
X111174988Y-35116976D01*
X111174990Y-38511335D01*
X111150745Y-38540878D01*
X111150744Y-38540879D01*
X111056154Y-38656138D01*
X110962368Y-38831599D01*
X110904615Y-39021984D01*
X110899548Y-39073427D01*
X110822038Y-39137038D01*
X110711595Y-39271613D01*
X110629528Y-39425149D01*
X110578992Y-39591745D01*
X110561928Y-39764999D01*
X110561928Y-40415001D01*
X110578992Y-40588255D01*
X110629528Y-40754851D01*
X110711595Y-40908387D01*
X110822038Y-41042962D01*
X110828594Y-41048342D01*
X110748815Y-41113815D01*
X110669463Y-41210506D01*
X110610498Y-41320820D01*
X110574188Y-41440518D01*
X110561928Y-41565000D01*
X110565000Y-41854250D01*
X110723750Y-42013000D01*
X111773000Y-42013000D01*
X111773000Y-41993000D01*
X112027000Y-41993000D01*
X112027000Y-42013000D01*
X113076250Y-42013000D01*
X113235000Y-41854250D01*
X113238072Y-41565000D01*
X113225812Y-41440518D01*
X113209984Y-41388339D01*
X113675000Y-41853356D01*
X113675000Y-42056260D01*
X113732068Y-42343158D01*
X113844010Y-42613411D01*
X114006525Y-42856632D01*
X114138380Y-42988487D01*
X114065820Y-43010498D01*
X113955506Y-43069463D01*
X113858815Y-43148815D01*
X113779463Y-43245506D01*
X113720498Y-43355820D01*
X113684188Y-43475518D01*
X113671928Y-43600000D01*
X113675000Y-44164250D01*
X113833750Y-44323000D01*
X115033000Y-44323000D01*
X115033000Y-44303000D01*
X115287000Y-44303000D01*
X115287000Y-44323000D01*
X116486250Y-44323000D01*
X116645000Y-44164250D01*
X116648072Y-43600000D01*
X116635812Y-43475518D01*
X116599502Y-43355820D01*
X116540537Y-43245506D01*
X116461185Y-43148815D01*
X116364494Y-43069463D01*
X116254180Y-43010498D01*
X116181620Y-42988487D01*
X116313475Y-42856632D01*
X116475990Y-42613411D01*
X116587932Y-42343158D01*
X116645000Y-42056260D01*
X116645000Y-41853355D01*
X116885001Y-41613354D01*
X121835745Y-46564099D01*
X121867369Y-46602633D01*
X122021162Y-46728847D01*
X122050479Y-46744517D01*
X122196622Y-46822632D01*
X122387007Y-46880385D01*
X122485558Y-46890092D01*
X122556613Y-46948405D01*
X122710149Y-47030472D01*
X122876745Y-47081008D01*
X123049999Y-47098072D01*
X123950001Y-47098072D01*
X124123255Y-47081008D01*
X124289851Y-47030472D01*
X124443387Y-46948405D01*
X124508461Y-46895000D01*
X125663059Y-46895000D01*
X125712669Y-47014770D01*
X125869845Y-47250000D01*
X114210355Y-47250000D01*
X112260355Y-45300000D01*
X113671928Y-45300000D01*
X113684188Y-45424482D01*
X113720498Y-45544180D01*
X113779463Y-45654494D01*
X113858815Y-45751185D01*
X113955506Y-45830537D01*
X114065820Y-45889502D01*
X114185518Y-45925812D01*
X114310000Y-45938072D01*
X114874250Y-45935000D01*
X115033000Y-45776250D01*
X115033000Y-44577000D01*
X115287000Y-44577000D01*
X115287000Y-45776250D01*
X115445750Y-45935000D01*
X116010000Y-45938072D01*
X116134482Y-45925812D01*
X116254180Y-45889502D01*
X116364494Y-45830537D01*
X116461185Y-45751185D01*
X116540537Y-45654494D01*
X116599502Y-45544180D01*
X116635812Y-45424482D01*
X116648072Y-45300000D01*
X116645000Y-44735750D01*
X116486250Y-44577000D01*
X115287000Y-44577000D01*
X115033000Y-44577000D01*
X113833750Y-44577000D01*
X113675000Y-44735750D01*
X113671928Y-45300000D01*
X112260355Y-45300000D01*
X110230000Y-43269645D01*
X110230000Y-42715000D01*
X110561928Y-42715000D01*
X110574188Y-42839482D01*
X110610498Y-42959180D01*
X110669463Y-43069494D01*
X110748815Y-43166185D01*
X110845506Y-43245537D01*
X110955820Y-43304502D01*
X111075518Y-43340812D01*
X111200000Y-43353072D01*
X111614250Y-43350000D01*
X111773000Y-43191250D01*
X111773000Y-42267000D01*
X112027000Y-42267000D01*
X112027000Y-43191250D01*
X112185750Y-43350000D01*
X112600000Y-43353072D01*
X112724482Y-43340812D01*
X112844180Y-43304502D01*
X112954494Y-43245537D01*
X113051185Y-43166185D01*
X113130537Y-43069494D01*
X113189502Y-42959180D01*
X113225812Y-42839482D01*
X113238072Y-42715000D01*
X113235000Y-42425750D01*
X113076250Y-42267000D01*
X112027000Y-42267000D01*
X111773000Y-42267000D01*
X110723750Y-42267000D01*
X110565000Y-42425750D01*
X110561928Y-42715000D01*
X110230000Y-42715000D01*
X110230000Y-34200355D01*
X118274355Y-26156000D01*
X137827645Y-26156000D01*
X144151765Y-32480120D01*
X144141928Y-32580000D01*
X144141928Y-33380000D01*
X144154188Y-33504482D01*
X144190498Y-33624180D01*
X144249463Y-33734494D01*
X144328815Y-33831185D01*
X144425506Y-33910537D01*
X144535820Y-33969502D01*
X144655518Y-34005812D01*
X144780000Y-34018072D01*
X147380000Y-34018072D01*
X147504482Y-34005812D01*
X147624180Y-33969502D01*
X147734494Y-33910537D01*
X147780000Y-33873191D01*
X147825506Y-33910537D01*
X147935820Y-33969502D01*
X148055518Y-34005812D01*
X148180000Y-34018072D01*
X150780000Y-34018072D01*
X150904482Y-34005812D01*
X151024180Y-33969502D01*
X151134494Y-33910537D01*
X151231185Y-33831185D01*
X151310537Y-33734494D01*
X151369502Y-33624180D01*
X151405812Y-33504482D01*
X151418072Y-33380000D01*
X151418072Y-32580000D01*
X151405812Y-32455518D01*
X151369502Y-32335820D01*
X151310537Y-32225506D01*
X151231185Y-32128815D01*
X151134494Y-32049463D01*
X151024180Y-31990498D01*
X150904482Y-31954188D01*
X150780000Y-31941928D01*
X148180000Y-31941928D01*
X148055518Y-31954188D01*
X147935820Y-31990498D01*
X147825506Y-32049463D01*
X147780000Y-32086809D01*
X147734494Y-32049463D01*
X147624180Y-31990498D01*
X147504482Y-31954188D01*
X147380000Y-31941928D01*
X146470283Y-31941928D01*
X138995261Y-24466906D01*
X138963633Y-24428367D01*
X138809840Y-24302153D01*
X138634380Y-24208368D01*
X138443994Y-24150615D01*
X138295608Y-24136000D01*
X138246000Y-24131114D01*
X138196392Y-24136000D01*
X117905604Y-24136000D01*
X117855999Y-24131114D01*
X117806394Y-24136000D01*
X117806392Y-24136000D01*
X117658006Y-24150615D01*
X117467620Y-24208368D01*
X117292160Y-24302153D01*
X117138367Y-24428367D01*
X117106739Y-24466906D01*
X108540906Y-33032739D01*
X108502367Y-33064367D01*
X108376153Y-33218160D01*
X108295860Y-33368379D01*
X108282368Y-33393621D01*
X108224615Y-33584006D01*
X108205114Y-33782000D01*
X106660000Y-33782000D01*
X106660000Y-22660000D01*
X160340001Y-22660000D01*
X160340000Y-50340000D01*
G37*
X160340000Y-50340000D02*
X106660000Y-50340000D01*
X106660000Y-33782000D01*
X108205114Y-33782000D01*
X108210000Y-33831608D01*
X108210001Y-43638382D01*
X108205114Y-43688000D01*
X108224615Y-43885994D01*
X108282368Y-44076379D01*
X108360941Y-44223379D01*
X108376154Y-44251840D01*
X108502368Y-44405633D01*
X108540901Y-44437256D01*
X113042739Y-48939094D01*
X113074367Y-48977633D01*
X113228160Y-49103847D01*
X113403620Y-49197632D01*
X113594006Y-49255385D01*
X113742392Y-49270000D01*
X113742394Y-49270000D01*
X113791999Y-49274886D01*
X113841604Y-49270000D01*
X128980394Y-49270000D01*
X129030002Y-49274886D01*
X129227996Y-49255385D01*
X129258967Y-49245990D01*
X129418382Y-49197632D01*
X129593842Y-49103847D01*
X129747635Y-48977633D01*
X129779263Y-48939094D01*
X131324885Y-47393473D01*
X131282068Y-47496842D01*
X131225000Y-47783740D01*
X131225000Y-48076260D01*
X131282068Y-48363158D01*
X131394010Y-48633411D01*
X131556525Y-48876632D01*
X131763368Y-49083475D01*
X132006589Y-49245990D01*
X132276842Y-49357932D01*
X132563740Y-49415000D01*
X132856260Y-49415000D01*
X133143158Y-49357932D01*
X133413411Y-49245990D01*
X133656632Y-49083475D01*
X133800107Y-48940000D01*
X138580392Y-48940000D01*
X138630000Y-48944886D01*
X138827994Y-48925385D01*
X139018380Y-48867632D01*
X139193840Y-48773847D01*
X139347633Y-48647633D01*
X139379261Y-48609094D01*
X146470283Y-41518072D01*
X147380000Y-41518072D01*
X147504482Y-41505812D01*
X147624180Y-41469502D01*
X147734494Y-41410537D01*
X147780000Y-41373191D01*
X147825506Y-41410537D01*
X147935820Y-41469502D01*
X148055518Y-41505812D01*
X148180000Y-41518072D01*
X150780000Y-41518072D01*
X150904482Y-41505812D01*
X151024180Y-41469502D01*
X151134494Y-41410537D01*
X151231185Y-41331185D01*
X151310537Y-41234494D01*
X151369502Y-41124180D01*
X151405812Y-41004482D01*
X151418072Y-40880000D01*
X151418072Y-40080000D01*
X151405812Y-39955518D01*
X151369502Y-39835820D01*
X151310537Y-39725506D01*
X151231185Y-39628815D01*
X151134494Y-39549463D01*
X151024180Y-39490498D01*
X150904482Y-39454188D01*
X150780000Y-39441928D01*
X148180000Y-39441928D01*
X148055518Y-39454188D01*
X147935820Y-39490498D01*
X147825506Y-39549463D01*
X147780000Y-39586809D01*
X147734494Y-39549463D01*
X147624180Y-39490498D01*
X147504482Y-39454188D01*
X147380000Y-39441928D01*
X144780000Y-39441928D01*
X144655518Y-39454188D01*
X144535820Y-39490498D01*
X144425506Y-39549463D01*
X144328815Y-39628815D01*
X144249463Y-39725506D01*
X144190498Y-39835820D01*
X144154188Y-39955518D01*
X144141928Y-40080000D01*
X144141928Y-40880000D01*
X144151765Y-40979880D01*
X138211645Y-46920000D01*
X133800107Y-46920000D01*
X133656632Y-46776525D01*
X133413411Y-46614010D01*
X133143158Y-46502068D01*
X132856260Y-46445000D01*
X132563740Y-46445000D01*
X132276842Y-46502068D01*
X132173473Y-46544885D01*
X132559100Y-46159258D01*
X132597633Y-46127635D01*
X132723847Y-45973842D01*
X132817632Y-45798382D01*
X132875385Y-45607996D01*
X132890000Y-45459610D01*
X132890000Y-45459609D01*
X132894091Y-45418072D01*
X133475000Y-45418072D01*
X133599482Y-45405812D01*
X133719180Y-45369502D01*
X133785000Y-45334320D01*
X133850820Y-45369502D01*
X133970518Y-45405812D01*
X134095000Y-45418072D01*
X134134250Y-45415000D01*
X134293000Y-45256250D01*
X134293000Y-44057000D01*
X134547000Y-44057000D01*
X134547000Y-45256250D01*
X134705750Y-45415000D01*
X134745000Y-45418072D01*
X134869482Y-45405812D01*
X134989180Y-45369502D01*
X135099494Y-45310537D01*
X135196185Y-45231185D01*
X135275537Y-45134494D01*
X135334502Y-45024180D01*
X135370812Y-44904482D01*
X135383072Y-44780000D01*
X135380000Y-44215750D01*
X135221250Y-44057000D01*
X134547000Y-44057000D01*
X134293000Y-44057000D01*
X134273000Y-44057000D01*
X134273000Y-43803000D01*
X134293000Y-43803000D01*
X134293000Y-43783000D01*
X134547000Y-43783000D01*
X134547000Y-43803000D01*
X135221250Y-43803000D01*
X135380000Y-43644250D01*
X135383072Y-43080000D01*
X135370812Y-42955518D01*
X135334502Y-42835820D01*
X135275537Y-42725506D01*
X135196185Y-42628815D01*
X135099494Y-42549463D01*
X134989180Y-42490498D01*
X134869482Y-42454188D01*
X134745000Y-42441928D01*
X134705750Y-42445000D01*
X134547002Y-42603748D01*
X134547002Y-42481351D01*
X138038354Y-38990000D01*
X144603393Y-38990000D01*
X144655518Y-39005812D01*
X144780000Y-39018072D01*
X147380000Y-39018072D01*
X147504482Y-39005812D01*
X147624180Y-38969502D01*
X147734494Y-38910537D01*
X147780000Y-38873191D01*
X147825506Y-38910537D01*
X147935820Y-38969502D01*
X148055518Y-39005812D01*
X148180000Y-39018072D01*
X149194250Y-39015000D01*
X149353000Y-38856250D01*
X149353000Y-38107000D01*
X149607000Y-38107000D01*
X149607000Y-38856250D01*
X149765750Y-39015000D01*
X150780000Y-39018072D01*
X150904482Y-39005812D01*
X151024180Y-38969502D01*
X151134494Y-38910537D01*
X151231185Y-38831185D01*
X151310537Y-38734494D01*
X151369502Y-38624180D01*
X151405812Y-38504482D01*
X151418072Y-38380000D01*
X151415000Y-38265750D01*
X151256250Y-38107000D01*
X149607000Y-38107000D01*
X149353000Y-38107000D01*
X149333000Y-38107000D01*
X149333000Y-37853000D01*
X149353000Y-37853000D01*
X149353000Y-37103750D01*
X149607000Y-37103750D01*
X149607000Y-37853000D01*
X151256250Y-37853000D01*
X151415000Y-37694250D01*
X151418072Y-37580000D01*
X151405812Y-37455518D01*
X151369502Y-37335820D01*
X151310537Y-37225506D01*
X151231185Y-37128815D01*
X151134494Y-37049463D01*
X151024180Y-36990498D01*
X150904482Y-36954188D01*
X150780000Y-36941928D01*
X149765750Y-36945000D01*
X149607000Y-37103750D01*
X149353000Y-37103750D01*
X149194250Y-36945000D01*
X148180000Y-36941928D01*
X148055518Y-36954188D01*
X147935820Y-36990498D01*
X147825506Y-37049463D01*
X147780000Y-37086809D01*
X147734494Y-37049463D01*
X147624180Y-36990498D01*
X147504482Y-36954188D01*
X147380000Y-36941928D01*
X144780000Y-36941928D01*
X144655518Y-36954188D01*
X144603393Y-36970000D01*
X138290573Y-36970000D01*
X138770573Y-36490000D01*
X144603393Y-36490000D01*
X144655518Y-36505812D01*
X144780000Y-36518072D01*
X147380000Y-36518072D01*
X147504482Y-36505812D01*
X147624180Y-36469502D01*
X147734494Y-36410537D01*
X147780000Y-36373191D01*
X147825506Y-36410537D01*
X147935820Y-36469502D01*
X148055518Y-36505812D01*
X148180000Y-36518072D01*
X149194250Y-36515000D01*
X149353000Y-36356250D01*
X149353000Y-35607000D01*
X149607000Y-35607000D01*
X149607000Y-36356250D01*
X149765750Y-36515000D01*
X150780000Y-36518072D01*
X150904482Y-36505812D01*
X151024180Y-36469502D01*
X151134494Y-36410537D01*
X151231185Y-36331185D01*
X151310537Y-36234494D01*
X151369502Y-36124180D01*
X151405812Y-36004482D01*
X151418072Y-35880000D01*
X151415000Y-35765750D01*
X151256250Y-35607000D01*
X149607000Y-35607000D01*
X149353000Y-35607000D01*
X149333000Y-35607000D01*
X149333000Y-35353000D01*
X149353000Y-35353000D01*
X149353000Y-34603750D01*
X149607000Y-34603750D01*
X149607000Y-35353000D01*
X151256250Y-35353000D01*
X151415000Y-35194250D01*
X151418072Y-35080000D01*
X151405812Y-34955518D01*
X151369502Y-34835820D01*
X151310537Y-34725506D01*
X151231185Y-34628815D01*
X151134494Y-34549463D01*
X151024180Y-34490498D01*
X150904482Y-34454188D01*
X150780000Y-34441928D01*
X149765750Y-34445000D01*
X149607000Y-34603750D01*
X149353000Y-34603750D01*
X149194250Y-34445000D01*
X148180000Y-34441928D01*
X148055518Y-34454188D01*
X147935820Y-34490498D01*
X147825506Y-34549463D01*
X147780000Y-34586809D01*
X147734494Y-34549463D01*
X147624180Y-34490498D01*
X147504482Y-34454188D01*
X147380000Y-34441928D01*
X144780000Y-34441928D01*
X144655518Y-34454188D01*
X144603393Y-34470000D01*
X138401822Y-34470000D01*
X138352217Y-34465114D01*
X138302612Y-34470000D01*
X138302610Y-34470000D01*
X138154224Y-34484615D01*
X137963838Y-34542368D01*
X137788378Y-34636153D01*
X137634585Y-34762367D01*
X137602957Y-34800906D01*
X135383072Y-37020791D01*
X135383072Y-36934516D01*
X135415385Y-36827994D01*
X135430000Y-36679608D01*
X135430000Y-30909283D01*
X135434886Y-30859678D01*
X135427326Y-30782923D01*
X135415385Y-30661685D01*
X135357632Y-30471299D01*
X135263847Y-30295839D01*
X135137633Y-30142046D01*
X135099094Y-30110418D01*
X134744639Y-29755963D01*
X134744639Y-29553058D01*
X134687571Y-29266160D01*
X134575629Y-28995907D01*
X134413114Y-28752686D01*
X134206271Y-28545843D01*
X133963050Y-28383328D01*
X133692797Y-28271386D01*
X133405899Y-28214318D01*
X133113379Y-28214318D01*
X132826481Y-28271386D01*
X132556228Y-28383328D01*
X132313007Y-28545843D01*
X132106164Y-28752686D01*
X131943649Y-28995907D01*
X131831707Y-29266160D01*
X131774639Y-29553058D01*
X131774639Y-29845578D01*
X131831707Y-30132476D01*
X131943649Y-30402729D01*
X132106164Y-30645950D01*
X132313007Y-30852793D01*
X132556228Y-31015308D01*
X132826481Y-31127250D01*
X133113379Y-31184318D01*
X133316284Y-31184318D01*
X133410001Y-31278035D01*
X133410000Y-35141928D01*
X132825000Y-35141928D01*
X132700518Y-35154188D01*
X132580820Y-35190498D01*
X132515000Y-35225680D01*
X132449180Y-35190498D01*
X132329482Y-35154188D01*
X132205000Y-35141928D01*
X131926427Y-35141928D01*
X132884107Y-34184248D01*
X132922646Y-34152620D01*
X133048860Y-33998827D01*
X133142645Y-33823367D01*
X133176003Y-33713400D01*
X133200398Y-33632982D01*
X133219899Y-33434988D01*
X133215013Y-33385380D01*
X133215013Y-32767623D01*
X133219899Y-32718015D01*
X133200398Y-32520020D01*
X133142645Y-32329635D01*
X133070681Y-32195000D01*
X133048860Y-32154175D01*
X132922646Y-32000382D01*
X132884113Y-31968759D01*
X127937247Y-27021894D01*
X127905619Y-26983355D01*
X127751826Y-26857141D01*
X127576366Y-26763356D01*
X127385980Y-26705603D01*
X127237594Y-26690988D01*
X127187986Y-26686102D01*
X127138378Y-26690988D01*
X119600976Y-26690988D01*
X119551368Y-26686102D01*
X119353373Y-26705603D01*
X119162988Y-26763356D01*
X118987528Y-26857141D01*
X118833735Y-26983355D01*
X118802112Y-27021888D01*
X111505888Y-34318113D01*
X111467355Y-34349736D01*
X111341141Y-34503529D01*
X111249282Y-34675385D01*
X111247356Y-34678989D01*
X111189603Y-34869374D01*
X111170102Y-35067368D01*
X111174988Y-35116976D01*
X111174990Y-38511335D01*
X111150745Y-38540878D01*
X111150744Y-38540879D01*
X111056154Y-38656138D01*
X110962368Y-38831599D01*
X110904615Y-39021984D01*
X110899548Y-39073427D01*
X110822038Y-39137038D01*
X110711595Y-39271613D01*
X110629528Y-39425149D01*
X110578992Y-39591745D01*
X110561928Y-39764999D01*
X110561928Y-40415001D01*
X110578992Y-40588255D01*
X110629528Y-40754851D01*
X110711595Y-40908387D01*
X110822038Y-41042962D01*
X110828594Y-41048342D01*
X110748815Y-41113815D01*
X110669463Y-41210506D01*
X110610498Y-41320820D01*
X110574188Y-41440518D01*
X110561928Y-41565000D01*
X110565000Y-41854250D01*
X110723750Y-42013000D01*
X111773000Y-42013000D01*
X111773000Y-41993000D01*
X112027000Y-41993000D01*
X112027000Y-42013000D01*
X113076250Y-42013000D01*
X113235000Y-41854250D01*
X113238072Y-41565000D01*
X113225812Y-41440518D01*
X113209984Y-41388339D01*
X113675000Y-41853356D01*
X113675000Y-42056260D01*
X113732068Y-42343158D01*
X113844010Y-42613411D01*
X114006525Y-42856632D01*
X114138380Y-42988487D01*
X114065820Y-43010498D01*
X113955506Y-43069463D01*
X113858815Y-43148815D01*
X113779463Y-43245506D01*
X113720498Y-43355820D01*
X113684188Y-43475518D01*
X113671928Y-43600000D01*
X113675000Y-44164250D01*
X113833750Y-44323000D01*
X115033000Y-44323000D01*
X115033000Y-44303000D01*
X115287000Y-44303000D01*
X115287000Y-44323000D01*
X116486250Y-44323000D01*
X116645000Y-44164250D01*
X116648072Y-43600000D01*
X116635812Y-43475518D01*
X116599502Y-43355820D01*
X116540537Y-43245506D01*
X116461185Y-43148815D01*
X116364494Y-43069463D01*
X116254180Y-43010498D01*
X116181620Y-42988487D01*
X116313475Y-42856632D01*
X116475990Y-42613411D01*
X116587932Y-42343158D01*
X116645000Y-42056260D01*
X116645000Y-41853355D01*
X116885001Y-41613354D01*
X121835745Y-46564099D01*
X121867369Y-46602633D01*
X122021162Y-46728847D01*
X122050479Y-46744517D01*
X122196622Y-46822632D01*
X122387007Y-46880385D01*
X122485558Y-46890092D01*
X122556613Y-46948405D01*
X122710149Y-47030472D01*
X122876745Y-47081008D01*
X123049999Y-47098072D01*
X123950001Y-47098072D01*
X124123255Y-47081008D01*
X124289851Y-47030472D01*
X124443387Y-46948405D01*
X124508461Y-46895000D01*
X125663059Y-46895000D01*
X125712669Y-47014770D01*
X125869845Y-47250000D01*
X114210355Y-47250000D01*
X112260355Y-45300000D01*
X113671928Y-45300000D01*
X113684188Y-45424482D01*
X113720498Y-45544180D01*
X113779463Y-45654494D01*
X113858815Y-45751185D01*
X113955506Y-45830537D01*
X114065820Y-45889502D01*
X114185518Y-45925812D01*
X114310000Y-45938072D01*
X114874250Y-45935000D01*
X115033000Y-45776250D01*
X115033000Y-44577000D01*
X115287000Y-44577000D01*
X115287000Y-45776250D01*
X115445750Y-45935000D01*
X116010000Y-45938072D01*
X116134482Y-45925812D01*
X116254180Y-45889502D01*
X116364494Y-45830537D01*
X116461185Y-45751185D01*
X116540537Y-45654494D01*
X116599502Y-45544180D01*
X116635812Y-45424482D01*
X116648072Y-45300000D01*
X116645000Y-44735750D01*
X116486250Y-44577000D01*
X115287000Y-44577000D01*
X115033000Y-44577000D01*
X113833750Y-44577000D01*
X113675000Y-44735750D01*
X113671928Y-45300000D01*
X112260355Y-45300000D01*
X110230000Y-43269645D01*
X110230000Y-42715000D01*
X110561928Y-42715000D01*
X110574188Y-42839482D01*
X110610498Y-42959180D01*
X110669463Y-43069494D01*
X110748815Y-43166185D01*
X110845506Y-43245537D01*
X110955820Y-43304502D01*
X111075518Y-43340812D01*
X111200000Y-43353072D01*
X111614250Y-43350000D01*
X111773000Y-43191250D01*
X111773000Y-42267000D01*
X112027000Y-42267000D01*
X112027000Y-43191250D01*
X112185750Y-43350000D01*
X112600000Y-43353072D01*
X112724482Y-43340812D01*
X112844180Y-43304502D01*
X112954494Y-43245537D01*
X113051185Y-43166185D01*
X113130537Y-43069494D01*
X113189502Y-42959180D01*
X113225812Y-42839482D01*
X113238072Y-42715000D01*
X113235000Y-42425750D01*
X113076250Y-42267000D01*
X112027000Y-42267000D01*
X111773000Y-42267000D01*
X110723750Y-42267000D01*
X110565000Y-42425750D01*
X110561928Y-42715000D01*
X110230000Y-42715000D01*
X110230000Y-34200355D01*
X118274355Y-26156000D01*
X137827645Y-26156000D01*
X144151765Y-32480120D01*
X144141928Y-32580000D01*
X144141928Y-33380000D01*
X144154188Y-33504482D01*
X144190498Y-33624180D01*
X144249463Y-33734494D01*
X144328815Y-33831185D01*
X144425506Y-33910537D01*
X144535820Y-33969502D01*
X144655518Y-34005812D01*
X144780000Y-34018072D01*
X147380000Y-34018072D01*
X147504482Y-34005812D01*
X147624180Y-33969502D01*
X147734494Y-33910537D01*
X147780000Y-33873191D01*
X147825506Y-33910537D01*
X147935820Y-33969502D01*
X148055518Y-34005812D01*
X148180000Y-34018072D01*
X150780000Y-34018072D01*
X150904482Y-34005812D01*
X151024180Y-33969502D01*
X151134494Y-33910537D01*
X151231185Y-33831185D01*
X151310537Y-33734494D01*
X151369502Y-33624180D01*
X151405812Y-33504482D01*
X151418072Y-33380000D01*
X151418072Y-32580000D01*
X151405812Y-32455518D01*
X151369502Y-32335820D01*
X151310537Y-32225506D01*
X151231185Y-32128815D01*
X151134494Y-32049463D01*
X151024180Y-31990498D01*
X150904482Y-31954188D01*
X150780000Y-31941928D01*
X148180000Y-31941928D01*
X148055518Y-31954188D01*
X147935820Y-31990498D01*
X147825506Y-32049463D01*
X147780000Y-32086809D01*
X147734494Y-32049463D01*
X147624180Y-31990498D01*
X147504482Y-31954188D01*
X147380000Y-31941928D01*
X146470283Y-31941928D01*
X138995261Y-24466906D01*
X138963633Y-24428367D01*
X138809840Y-24302153D01*
X138634380Y-24208368D01*
X138443994Y-24150615D01*
X138295608Y-24136000D01*
X138246000Y-24131114D01*
X138196392Y-24136000D01*
X117905604Y-24136000D01*
X117855999Y-24131114D01*
X117806394Y-24136000D01*
X117806392Y-24136000D01*
X117658006Y-24150615D01*
X117467620Y-24208368D01*
X117292160Y-24302153D01*
X117138367Y-24428367D01*
X117106739Y-24466906D01*
X108540906Y-33032739D01*
X108502367Y-33064367D01*
X108376153Y-33218160D01*
X108295860Y-33368379D01*
X108282368Y-33393621D01*
X108224615Y-33584006D01*
X108205114Y-33782000D01*
X106660000Y-33782000D01*
X106660000Y-22660000D01*
X160340001Y-22660000D01*
X160340000Y-50340000D01*
G36*
X129055872Y-32765012D02*
G01*
X127959206Y-33861679D01*
X127920667Y-33893307D01*
X127794453Y-34047100D01*
X127700669Y-34222560D01*
X127700668Y-34222561D01*
X127642915Y-34412946D01*
X127623414Y-34610940D01*
X127628300Y-34660548D01*
X127628301Y-38832263D01*
X126610578Y-39849987D01*
X126538271Y-39849987D01*
X126546021Y-39838388D01*
X126657963Y-39568135D01*
X126715031Y-39281237D01*
X126715031Y-38988717D01*
X126657963Y-38701819D01*
X126546021Y-38431566D01*
X126540000Y-38422555D01*
X126540000Y-37310107D01*
X126683475Y-37166632D01*
X126845990Y-36923411D01*
X126957932Y-36653158D01*
X127015000Y-36366260D01*
X127015000Y-36073740D01*
X126957932Y-35786842D01*
X126845990Y-35516589D01*
X126683475Y-35273368D01*
X126476632Y-35066525D01*
X126300594Y-34948900D01*
X126530269Y-34777588D01*
X126725178Y-34561355D01*
X126874157Y-34311252D01*
X126971481Y-34036891D01*
X126850814Y-33807000D01*
X125657000Y-33807000D01*
X125657000Y-33827000D01*
X125403000Y-33827000D01*
X125403000Y-33807000D01*
X125383000Y-33807000D01*
X125383000Y-33553000D01*
X125403000Y-33553000D01*
X125403000Y-32359845D01*
X125657000Y-32359845D01*
X125657000Y-33553000D01*
X126850814Y-33553000D01*
X126971481Y-33323109D01*
X126874157Y-33048748D01*
X126725178Y-32798645D01*
X126530269Y-32582412D01*
X126296920Y-32408359D01*
X126034099Y-32283175D01*
X125886890Y-32238524D01*
X125657000Y-32359845D01*
X125403000Y-32359845D01*
X125173110Y-32238524D01*
X125025901Y-32283175D01*
X124763080Y-32408359D01*
X124529731Y-32582412D01*
X124334822Y-32798645D01*
X124265195Y-32915534D01*
X124143475Y-32733368D01*
X124000000Y-32589893D01*
X124000000Y-31712116D01*
X124038214Y-31673902D01*
X124200729Y-31430681D01*
X124312671Y-31160428D01*
X124369739Y-30873530D01*
X124369739Y-30581010D01*
X124312671Y-30294112D01*
X124200729Y-30023859D01*
X124158727Y-29960999D01*
X126251860Y-29960999D01*
X129055872Y-32765012D01*
G37*
X129055872Y-32765012D02*
X127959206Y-33861679D01*
X127920667Y-33893307D01*
X127794453Y-34047100D01*
X127700669Y-34222560D01*
X127700668Y-34222561D01*
X127642915Y-34412946D01*
X127623414Y-34610940D01*
X127628300Y-34660548D01*
X127628301Y-38832263D01*
X126610578Y-39849987D01*
X126538271Y-39849987D01*
X126546021Y-39838388D01*
X126657963Y-39568135D01*
X126715031Y-39281237D01*
X126715031Y-38988717D01*
X126657963Y-38701819D01*
X126546021Y-38431566D01*
X126540000Y-38422555D01*
X126540000Y-37310107D01*
X126683475Y-37166632D01*
X126845990Y-36923411D01*
X126957932Y-36653158D01*
X127015000Y-36366260D01*
X127015000Y-36073740D01*
X126957932Y-35786842D01*
X126845990Y-35516589D01*
X126683475Y-35273368D01*
X126476632Y-35066525D01*
X126300594Y-34948900D01*
X126530269Y-34777588D01*
X126725178Y-34561355D01*
X126874157Y-34311252D01*
X126971481Y-34036891D01*
X126850814Y-33807000D01*
X125657000Y-33807000D01*
X125657000Y-33827000D01*
X125403000Y-33827000D01*
X125403000Y-33807000D01*
X125383000Y-33807000D01*
X125383000Y-33553000D01*
X125403000Y-33553000D01*
X125403000Y-32359845D01*
X125657000Y-32359845D01*
X125657000Y-33553000D01*
X126850814Y-33553000D01*
X126971481Y-33323109D01*
X126874157Y-33048748D01*
X126725178Y-32798645D01*
X126530269Y-32582412D01*
X126296920Y-32408359D01*
X126034099Y-32283175D01*
X125886890Y-32238524D01*
X125657000Y-32359845D01*
X125403000Y-32359845D01*
X125173110Y-32238524D01*
X125025901Y-32283175D01*
X124763080Y-32408359D01*
X124529731Y-32582412D01*
X124334822Y-32798645D01*
X124265195Y-32915534D01*
X124143475Y-32733368D01*
X124000000Y-32589893D01*
X124000000Y-31712116D01*
X124038214Y-31673902D01*
X124200729Y-31430681D01*
X124312671Y-31160428D01*
X124369739Y-30873530D01*
X124369739Y-30581010D01*
X124312671Y-30294112D01*
X124200729Y-30023859D01*
X124158727Y-29960999D01*
X126251860Y-29960999D01*
X129055872Y-32765012D01*
%TD*%
M02*
