<?xml version="1.0" standalone="no"?>
<!DOCTYPE svg PUBLIC "-//W3C//DTD SVG 1.1//EN"
"http://www.w3.org/Graphics/SVG/1.1/DTD/svg11.dtd">
<svg width="214.11" height="115.843" viewBox="0 0 4460.63 2413.39" version="1.1"
xmlns="http://www.w3.org/2000/svg"
xmlns:xlink="http://www.w3.org/1999/xlink">
<g fill-rule="evenodd"><path d="M 3386.22,961.024 L 3386.22,898.031 L 3590.94,898.031 L 3590.94,961.024 L 3386.22,961.024 z " style="fill-opacity:1.000000;fill:rgb(103,198,105);stroke:rgb(0,0,0);stroke-width:2"/></g>
<g fill-rule="evenodd"><path d="M 3386.22,1551.57 L 3386.22,1488.58 L 3590.94,1488.58 L 3590.94,1551.57 L 3386.22,1551.57 z " style="fill-opacity:1.000000;fill:rgb(115,81,255);stroke:rgb(0,0,0);stroke-width:2"/></g>
<g fill-rule="evenodd"><path d="M 106.929,992.677 L 106.929,116.929 L 107.121,114.978 L 108.614,111.373 L 111.373,108.614 L 114.978,107.121 L 4343.7,106.929 L 4347.53,107.69 L 4350.77,109.858 L 4352.02,111.373 L 4352.94,113.102 L 4353.7,116.929 L 4353.7,2296.46 L 4352.94,2300.28 L 4350.77,2303.53 L 4349.26,2304.77 L 4347.53,2305.7 L 4343.7,2306.46 L 116.929,2306.46 L 113.839,2305.97 L 111.051,2304.55 L 108.839,2302.33 L 107.419,2299.55 L 106.929,2296.46 L 106.929,992.677M 584.646,1670.79 L 584.646,1676.38 L 584.267,1680.22 L 583.147,1683.91 L 581.328,1687.31 L 578.88,1690.3 L 575.897,1692.75 L 572.494,1694.56 L 568.801,1695.68 L 564.961,1696.06 L 549.528,1696.06 L 549.528,1729.42 L 556.2,1736.09 L 584.193,1736.3 L 592.486,1735.48 L 600.026,1733.2 L 606.975,1729.48 L 613.067,1724.48 L 618.065,1718.39 L 621.78,1711.44 L 624.067,1703.91 L 624.882,1695.62 L 624.689,1677.47 L 618.003,1670.79 L 584.646,1670.79M 509.528,1696.06 L 494.094,1696.06 L 490.254,1695.68 L 486.561,1694.56 L 483.158,1692.75 L 480.175,1690.3 L 477.727,1687.31 L 475.908,1683.91 L 474.788,1680.22 L 474.409,1676.38 L 474.409,1670.79 L 441.052,1670.79 L 434.365,1677.47 L 434.173,1695.62 L 434.988,1703.91 L 437.276,1711.44 L 440.99,1718.39 L 445.988,1724.48 L 452.08,1729.48 L 459.029,1733.2 L 466.569,1735.48 L 474.863,1736.3 L 502.855,1736.09 L 509.528,1729.42 L 509.528,1696.06M 719.291,1852.68 L 685.933,1852.68 L 679.269,1859.34 L 679.052,1899.15 L 679.87,1907.45 L 682.157,1914.99 L 685.872,1921.94 L 690.87,1928.03 L 696.96,1933.03 L 703.909,1936.74 L 711.449,1939.03 L 719.756,1939.85 L 759.556,1939.63 L 766.22,1932.96 L 766.22,1899.61 L 719.291,1899.61 L 719.291,1852.68M 719.291,1812.68 L 719.291,1765.75 L 853.15,1765.75 L 853.15,1812.68 L 886.507,1812.68 L 893.172,1806.01 L 893.389,1766.21 L 892.571,1757.91 L 890.283,1750.37 L 886.57,1743.42 L 881.57,1737.33 L 875.479,1732.33 L 868.532,1728.61 L 863.76,1727.17 L 861.863,1726.37 L 860.168,1725.2 L 858.749,1723.71 L 857.666,1721.96 L 856.963,1720.03 L 856.671,1717.99 L 856.802,1715.94 L 857.351,1713.95 L 858.294,1712.12 L 869.279,1700.84 L 880.98,1683.33 L 889.04,1663.87 L 893.15,1643.21 L 893.15,1628.22 L 893.342,1626.27 L 894.835,1622.66 L 916.492,1601 L 920.096,1599.51 L 923.998,1599.51 L 925.874,1600.08 L 929.118,1602.25 L 1318.94,1992.07 L 1321.47,1995.07 L 1332.05,2003.76 L 1344.13,2010.22 L 1357.24,2014.19 L 1364.02,2014.86 L 1367.75,2015.99 L 1374.21,2021.05 L 1384.57,2026.58 L 1395.8,2029.99 L 1407.97,2031.19 L 1477.85,2031.19 L 1490.03,2029.99 L 1501.26,2026.58 L 1511.61,2021.05 L 1517.39,2016.5 L 1518.95,2015.78 L 1522.32,2015.2 L 1615.18,2015.39 L 1618.79,2016.88 L 1621.55,2019.64 L 1626,2029.89 L 1638.75,2049.32 L 1639.32,2051.2 L 1639.32,2055.1 L 1638.75,2056.98 L 1636.59,2060.22 L 1633.34,2062.39 L 1629.52,2063.15 L 709.494,2062.96 L 707.618,2062.39 L 704.374,2060.22 L 390.96,1746.81 L 388.793,1743.56 L 388.031,1739.74 L 388.031,1025.62 L 388.793,1021.79 L 390.96,1018.55 L 1024.37,385.134 L 1027.62,382.966 L 1031.45,382.205 L 2573.03,382.397 L 2574.9,382.966 L 2578.15,385.134 L 3076.11,883.096 L 3078.12,885.98 L 3079.01,889.382 L 3078.26,898.52 L 3078.26,960.535 L 3079.08,968.866 L 3081.37,976.404 L 3085.08,983.355 L 3090.08,989.445 L 3096.17,994.443 L 3103.12,998.158 L 3110.66,1000.44 L 3118.99,1001.27 L 3322.74,1001.27 L 3331.07,1000.44 L 3338.61,998.158 L 3345.56,994.443 L 3350.01,991.038 L 3353.74,989.906 L 3355.7,989.906 L 3359.44,991.038 L 3363.89,994.443 L 3370.84,998.158 L 3378.38,1000.44 L 3386.71,1001.27 L 3590.46,1001.27 L 3598.79,1000.44 L 3606.33,998.158 L 3613.28,994.443 L 3619.37,989.445 L 3624.36,983.355 L 3628.08,976.404 L 3630.37,968.866 L 3631.19,960.535 L 3631.19,898.52 L 3630.37,890.189 L 3628.08,882.65 L 3624.36,875.7 L 3619.37,869.61 L 3613.28,864.612 L 3606.33,860.898 L 3598.79,858.61 L 3590.45,857.79 L 3386.71,857.79 L 3378.38,858.61 L 3370.84,860.898 L 3363.89,864.612 L 3359.44,868.017 L 3357.63,868.767 L 3353.74,869.149 L 3350.01,868.017 L 3345.56,864.612 L 3338.61,860.898 L 3331.07,858.61 L 3322.74,857.79 L 3251.6,857.79 L 3247.77,857.028 L 3246.04,856.104 L 2655.94,266.276 L 2653.42,263.276 L 2642.83,254.587 L 2630.75,248.132 L 2617.64,244.156 L 2604.02,242.813 L 2600.11,243.15 L 1002.41,243.15 L 998.504,242.813 L 984.875,244.156 L 971.767,248.132 L 959.691,254.587 L 949.103,263.276 L 946.578,266.276 L 272.103,940.751 L 269.103,943.276 L 260.413,953.865 L 253.958,965.941 L 249.982,979.048 L 248.64,992.677 L 248.976,996.583 L 248.976,1768.77 L 248.64,1772.68 L 249.982,1786.31 L 253.959,1799.41 L 260.414,1811.49 L 269.103,1822.08 L 272.103,1824.6 L 626.578,2179.08 L 629.102,2182.08 L 639.689,2190.77 L 651.769,2197.22 L 664.873,2201.2 L 678.504,2202.54 L 682.41,2202.2 L 1874.44,2202.2 L 1878.35,2202.54 L 1891.98,2201.2 L 1905.08,2197.22 L 1917.16,2190.77 L 1927.75,2182.08 L 1930.27,2179.08 L 2051.97,2057.38 L 2055.22,2055.21 L 2059.05,2054.45 L 2061,2054.64 L 2064.6,2056.13 L 2067.36,2058.89 L 2068.85,2062.5 L 2068.85,2066.4 L 2065.29,2075.5 L 2061.18,2096.16 L 2061.18,2117.23 L 2065.29,2137.88 L 2073.35,2157.34 L 2085.05,2174.86 L 2099.95,2189.75 L 2117.46,2201.45 L 2136.92,2209.51 L 2157.58,2213.62 L 2178.64,2213.62 L 2199.3,2209.51 L 2218.76,2201.45 L 2236.27,2189.75 L 2248.39,2177.91 L 2250.12,2176.98 L 2253.95,2176.22 L 2630.35,2176.22 L 2634.25,2176.56 L 2647.88,2175.21 L 2660.99,2171.24 L 2673.07,2164.78 L 2683.65,2156.09 L 2686.18,2153.09 L 3246.04,1593.5 L 3247.77,1592.58 L 3251.6,1591.82 L 3322.74,1591.82 L 3331.07,1591 L 3338.61,1588.71 L 3345.56,1584.99 L 3350.01,1581.59 L 3353.74,1580.46 L 3355.7,1580.46 L 3359.44,1581.59 L 3363.89,1584.99 L 3370.84,1588.71 L 3378.38,1591 L 3386.71,1591.82 L 3590.45,1591.82 L 3598.79,1591 L 3606.33,1588.71 L 3613.27,1584.99 L 3619.37,1580 L 3624.36,1573.91 L 3628.08,1566.96 L 3630.37,1559.42 L 3631.19,1551.09 L 3631.19,1489.07 L 3630.37,1480.74 L 3628.08,1473.2 L 3624.36,1466.25 L 3619.37,1460.16 L 3613.27,1455.16 L 3606.33,1451.45 L 3598.79,1449.16 L 3590.46,1448.34 L 3386.71,1448.34 L 3378.38,1449.16 L 3370.84,1451.45 L 3363.89,1455.16 L 3359.44,1458.57 L 3357.63,1459.32 L 3353.74,1459.7 L 3350.01,1458.57 L 3345.56,1455.16 L 3338.61,1451.45 L 3331.07,1449.16 L 3322.74,1448.34 L 3118.99,1448.34 L 3110.66,1449.16 L 3103.12,1451.45 L 3096.17,1455.16 L 3090.08,1460.16 L 3085.08,1466.25 L 3081.37,1473.2 L 3079.08,1480.74 L 3078.26,1489.07 L 3078.26,1551.09 L 3079.01,1560.22 L 3078.12,1563.63 L 3076.11,1566.51 L 2606.87,2035.48 L 2605.14,2036.4 L 2601.31,2037.17 L 2253.95,2037.17 L 2250.12,2036.4 L 2248.39,2035.48 L 2236.27,2023.63 L 2218.76,2011.93 L 2199.3,2003.87 L 2178.64,1999.76 L 2157.58,1999.76 L 2136.92,2003.87 L 2127.81,2007.44 L 2125.86,2007.63 L 2122.04,2006.87 L 2118.79,2004.7 L 2116.63,2001.46 L 2115.86,1997.63 L 2116.63,1993.8 L 2118.79,1990.56 L 2149.16,1960.19 L 2152.16,1957.67 L 2160.85,1947.08 L 2167.3,1935 L 2171.28,1921.9 L 2173,1906.12 L 2174.65,1902.85 L 2177.36,1900.39 L 2180.78,1899.07 L 2182.61,1898.9 L 2227.85,1898.9 L 2236.19,1898.08 L 2243.73,1895.79 L 2248.04,1893.49 L 2251.78,1892.36 L 2255.66,1892.74 L 2261.78,1895.8 L 2269.32,1898.08 L 2276.03,1898.74 L 2282.76,1892.02 L 2282.76,1858.66 L 2277.17,1858.66 L 2277.17,1724.8 L 2328.35,1724.8 L 2328.35,1771.73 L 2361.7,1771.73 L 2368.37,1765.07 L 2368.59,1725.27 L 2367.77,1716.96 L 2365.48,1709.42 L 2361.77,1702.47 L 2356.77,1696.38 L 2350.68,1691.38 L 2343.73,1687.67 L 2336.19,1685.38 L 2329.48,1684.72 L 2318.31,1695.62 L 2314.71,1697.11 L 2312.76,1697.3 L 2308.93,1696.54 L 2307.2,1695.62 L 2304.44,1692.86 L 2302.95,1689.25 L 2302.76,1677.67 L 2302.95,1675.71 L 2304.44,1672.11 L 2580.59,1395.68 L 2583.84,1393.52 L 2587.67,1392.76 L 3104.6,1392.76 L 3107.5,1393.19 L 3110.66,1394.15 L 3118.99,1394.97 L 3322.74,1394.97 L 3331.07,1394.15 L 3338.61,1391.86 L 3345.56,1388.14 L 3350.01,1384.74 L 3351.82,1383.99 L 3355.7,1383.61 L 3359.44,1384.74 L 3363.89,1388.14 L 3370.84,1391.86 L 3378.38,1394.15 L 3386.69,1394.96 L 3461.93,1394.74 L 3468.58,1388.08 L 3468.58,1354.72 L 3386.22,1354.72 L 3386.22,1291.73 L 3468.58,1291.73 L 3468.58,1258.37 L 3461.93,1251.72 L 3386.7,1251.49 L 3378.38,1252.31 L 3370.84,1254.6 L 3363.89,1258.31 L 3359.44,1261.72 L 3355.7,1262.85 L 3353.74,1262.85 L 3350.01,1261.72 L 3345.56,1258.31 L 3338.61,1254.6 L 3331.07,1252.31 L 3322.74,1251.49 L 3119,1251.49 L 3110.66,1252.31 L 3107.5,1253.27 L 3104.6,1253.7 L 2607.53,1253.7 L 2605.57,1253.51 L 2601.97,1252.02 L 2599.21,1249.26 L 2597.72,1245.65 L 2597.72,1241.75 L 2599.21,1238.15 L 2639.77,1197.59 L 2641.49,1196.67 L 2645.32,1195.91 L 3104.6,1195.91 L 3107.5,1196.34 L 3110.66,1197.3 L 3119,1198.12 L 3322.74,1198.12 L 3331.07,1197.3 L 3338.61,1195.01 L 3345.56,1191.29 L 3350.01,1187.89 L 3351.82,1187.14 L 3355.7,1186.76 L 3359.44,1187.89 L 3363.89,1191.29 L 3370.84,1195.01 L 3378.38,1197.3 L 3386.7,1198.11 L 3461.93,1197.89 L 3468.58,1191.23 L 3468.58,1157.87 L 3386.22,1157.87 L 3386.22,1094.88 L 3468.58,1094.88 L 3468.58,1061.52 L 3461.93,1054.87 L 3386.69,1054.64 L 3378.38,1055.46 L 3370.84,1057.75 L 3363.89,1061.46 L 3359.44,1064.87 L 3355.7,1066 L 3353.74,1066 L 3350.01,1064.87 L 3345.56,1061.46 L 3338.61,1057.75 L 3331.07,1055.46 L 3322.74,1054.64 L 3118.99,1054.64 L 3110.66,1055.46 L 3107.5,1056.42 L 3104.6,1056.85 L 2616.29,1056.85 L 2612.38,1056.51 L 2598.75,1057.86 L 2585.64,1061.83 L 2573.56,1068.29 L 2562.98,1076.98 L 2560.45,1079.98 L 2385.66,1254.77 L 2382.42,1256.94 L 2380.54,1257.51 L 2376.64,1257.51 L 2374.76,1256.94 L 2371.52,1254.77 L 2369.35,1251.53 L 2368.59,1247.7 L 2368.7,1239.44 L 2371.28,1230.56 L 2372.28,1220.34 L 2372.28,766.479 L 2372.62,762.573 L 2371.28,748.942 L 2367.3,735.838 L 2360.85,723.758 L 2352.16,713.171 L 2349.16,710.647 L 2321.25,682.737 L 2319.08,679.493 L 2318.32,675.666 L 2318.32,660.676 L 2314.21,640.016 L 2306.15,620.556 L 2294.45,603.043 L 2279.55,588.149 L 2262.04,576.447 L 2242.58,568.386 L 2221.92,564.277 L 2200.86,564.277 L 2180.2,568.386 L 2160.74,576.447 L 2143.23,588.149 L 2128.33,603.042 L 2116.63,620.556 L 2108.57,640.016 L 2104.46,660.676 L 2104.46,681.737 L 2108.57,702.396 L 2116.63,721.856 L 2128.33,739.371 L 2143.22,754.263 L 2160.74,765.966 L 2180.2,774.026 L 2200.86,778.135 L 2215.85,778.135 L 2219.68,778.896 L 2221.4,779.821 L 2231.54,789.959 L 2232.47,791.688 L 2233.23,795.515 L 2233.04,1101.71 L 2231.54,1105.31 L 2230.3,1106.83 L 2228.78,1108.07 L 2225.18,1109.57 L 2177.66,1109.76 L 2169.32,1110.58 L 2161.78,1112.87 L 2155.66,1115.92 L 2151.78,1116.3 L 2148.04,1115.17 L 2143.73,1112.87 L 2136.19,1110.58 L 2127.85,1109.76 L 2106.41,1109.76 L 2102.58,1109 L 2099.34,1106.83 L 2098.1,1105.31 L 2096.6,1101.71 L 2096.6,1097.81 L 2098.1,1094.2 L 2099.34,1092.69 L 2174.75,1017.28 L 2177.75,1014.75 L 2186.44,1004.17 L 2192.89,992.09 L 2196.87,978.982 L 2198.21,965.354 L 2197.88,961.447 L 2197.88,912.805 L 2198.21,908.899 L 2196.87,895.27 L 2192.89,882.162 L 2186.44,870.085 L 2177.75,859.498 L 2174.75,856.973 L 1785.23,467.456 L 1782.71,464.456 L 1772.12,455.767 L 1760.04,449.312 L 1746.93,445.336 L 1733.31,443.993 L 1729.4,444.33 L 1135.9,444.33 L 1132,443.993 L 1118.37,445.336 L 1105.26,449.312 L 1093.18,455.767 L 1082.6,464.456 L 1080.07,467.456 L 505.566,1041.96 L 502.566,1044.49 L 493.878,1055.07 L 487.422,1067.15 L 483.446,1080.26 L 482.104,1093.89 L 482.44,1097.79 L 482.293,1366.78 L 481.141,1369.99 L 480.17,1371.41 L 471.437,1382.05 L 464.982,1394.13 L 461.006,1407.23 L 460.321,1412.23 L 459.571,1414.04 L 457.096,1417.06 L 451.753,1421.44 L 444.308,1430.51 L 438.774,1440.87 L 435.367,1452.1 L 434.168,1464.27 L 434.168,1514.47 L 435.367,1526.64 L 438.774,1537.87 L 444.308,1548.23 L 453.984,1560.12 L 454.734,1561.93 L 455.117,1565.81 L 454.734,1567.73 L 452.895,1571.17 L 445.988,1577.09 L 440.99,1583.18 L 437.276,1590.13 L 434.988,1597.67 L 434.173,1605.95 L 434.365,1624.1 L 441.052,1630.79 L 474.409,1630.79 L 474.409,1625.2 L 474.788,1621.36 L 475.908,1617.66 L 477.727,1614.26 L 480.175,1611.28 L 483.158,1608.83 L 486.561,1607.01 L 490.254,1605.89 L 494.094,1605.51 L 564.961,1605.51 L 568.801,1605.89 L 572.494,1607.01 L 575.897,1608.83 L 578.88,1611.28 L 581.328,1614.26 L 583.147,1617.66 L 584.267,1621.36 L 584.646,1625.2 L 584.646,1630.79 L 618.004,1630.79 L 624.689,1624.1 L 624.882,1605.95 L 624.067,1597.67 L 622.717,1592.51 L 622.74,1590.47 L 623.175,1588.48 L 624.003,1586.62 L 625.191,1584.97 L 626.689,1583.59 L 628.435,1582.55 L 630.356,1581.87 L 632.374,1581.61 L 634.404,1581.75 L 636.363,1582.31 L 638.169,1583.25 L 639.747,1584.53 L 677.606,1622.66 L 678.53,1624.39 L 679.291,1628.22 L 679.291,1643.21 L 683.401,1663.87 L 691.461,1683.33 L 703.163,1700.84 L 714.147,1712.12 L 715.09,1713.95 L 715.639,1715.94 L 715.77,1717.99 L 715.478,1720.03 L 714.775,1721.96 L 713.692,1723.71 L 712.272,1725.2 L 710.578,1726.37 L 708.681,1727.17 L 703.909,1728.61 L 696.962,1732.33 L 690.87,1737.33 L 685.872,1743.42 L 682.157,1750.37 L 679.87,1757.91 L 679.052,1766.21 L 679.269,1806.01 L 685.934,1812.68 L 719.291,1812.68M 853.15,1852.68 L 853.15,1899.61 L 806.22,1899.61 L 806.22,1932.96 L 812.885,1939.63 L 852.685,1939.85 L 860.992,1939.03 L 868.531,1936.74 L 875.481,1933.03 L 881.569,1928.03 L 886.57,1921.94 L 890.283,1914.99 L 892.571,1907.45 L 893.389,1899.14 L 893.172,1859.34 L 886.508,1852.68 L 853.15,1852.68M 2328.35,1811.73 L 2328.35,1858.66 L 2322.76,1858.66 L 2322.76,1892.02 L 2329.48,1898.74 L 2336.19,1898.08 L 2343.73,1895.79 L 2350.68,1892.08 L 2356.77,1887.08 L 2361.77,1880.99 L 2365.48,1874.04 L 2367.77,1866.5 L 2368.59,1858.2 L 2368.37,1818.4 L 2361.7,1811.73 L 2328.35,1811.73M 3508.58,1291.73 L 3590.94,1291.73 L 3590.94,1303.23 L 3624.3,1303.23 L 3631.06,1296.48 L 3631.17,1292.09 L 3630.37,1283.89 L 3628.08,1276.35 L 3624.36,1269.4 L 3619.37,1263.31 L 3613.28,1258.31 L 3606.33,1254.6 L 3598.79,1252.31 L 3590.47,1251.49 L 3515.24,1251.72 L 3508.58,1258.37 L 3508.58,1291.73M 3590.94,1343.23 L 3590.94,1354.72 L 3508.58,1354.72 L 3508.58,1388.08 L 3515.24,1394.74 L 3590.47,1394.96 L 3598.79,1394.15 L 3606.33,1391.86 L 3613.28,1388.14 L 3619.37,1383.15 L 3624.36,1377.06 L 3628.08,1370.1 L 3630.37,1362.57 L 3631.17,1354.37 L 3631.06,1349.98 L 3624.3,1343.23 L 3590.94,1343.23M 3508.58,1094.88 L 3590.94,1094.88 L 3590.94,1106.38 L 3624.3,1106.38 L 3631.06,1099.62 L 3631.17,1095.24 L 3630.37,1087.04 L 3628.08,1079.5 L 3624.36,1072.55 L 3619.37,1066.46 L 3613.27,1061.46 L 3606.33,1057.75 L 3598.79,1055.46 L 3590.47,1054.64 L 3515.24,1054.87 L 3508.58,1061.52 L 3508.58,1094.88M 3590.94,1146.38 L 3590.94,1157.87 L 3508.58,1157.87 L 3508.58,1191.23 L 3515.24,1197.89 L 3590.47,1198.11 L 3598.79,1197.3 L 3606.33,1195.01 L 3613.27,1191.29 L 3619.37,1186.3 L 3624.36,1180.21 L 3628.08,1173.26 L 3630.37,1165.72 L 3631.17,1157.52 L 3631.06,1153.13 L 3624.3,1146.38 L 3590.94,1146.38 z " style="fill-opacity:1.000000;fill:rgb(74,236,41);stroke:rgb(0,0,0);stroke-width:2"/></g>
<g fill-rule="evenodd"><path d="M 1632.28,1244.36 L 1632.28,1373.72 L 1633.28,1374.83 L 1640.28,1386.95 L 1644.6,1400.26 L 1646.07,1414.17 L 1644.6,1428.09 L 1640.28,1441.39 L 1633.28,1453.51 L 1623.92,1463.91 L 1612.6,1472.13 L 1599.82,1477.82 L 1586.13,1480.73 L 1572.14,1480.73 L 1558.45,1477.82 L 1545.67,1472.13 L 1534.35,1463.91 L 1524.99,1453.51 L 1517.99,1441.39 L 1513.67,1428.09 L 1512.21,1414.17 L 1513.67,1400.26 L 1517.99,1386.95 L 1524.99,1374.83 L 1534.35,1364.43 L 1545.67,1356.21 L 1558.45,1350.52 L 1572.14,1347.61 L 1573.23,1347.61 L 1573.23,1244.36 L 1569.29,1242.61 L 1557.97,1234.38 L 1548.61,1223.99 L 1541.61,1211.87 L 1537.29,1198.56 L 1535.83,1184.65 L 1537.29,1170.73 L 1541.61,1157.42 L 1548.61,1145.31 L 1557.97,1134.91 L 1569.29,1126.68 L 1582.07,1120.99 L 1595.76,1118.08 L 1609.75,1118.08 L 1623.44,1120.99 L 1636.22,1126.68 L 1647.54,1134.91 L 1656.9,1145.31 L 1663.9,1157.42 L 1668.22,1170.73 L 1669.69,1184.65 L 1668.22,1198.56 L 1663.9,1211.87 L 1656.9,1223.99 L 1647.54,1234.38 L 1636.22,1242.61 L 1632.28,1244.36 z " style="fill-opacity:1.000000;fill:rgb(205,186,171);stroke:rgb(0,0,0);stroke-width:2"/></g>
<g fill-rule="evenodd"><path d="M 1666.25,1004.65 L 1663.9,1011.87 L 1656.9,1023.99 L 1647.54,1034.38 L 1636.22,1042.61 L 1623.44,1048.3 L 1609.75,1051.21 L 1595.76,1051.21 L 1582.07,1048.3 L 1569.29,1042.61 L 1557.97,1034.38 L 1548.61,1023.99 L 1541.61,1011.87 L 1537.29,998.561 L 1535.83,984.646 L 1537.29,970.73 L 1541.61,957.423 L 1548.61,945.306 L 1557.97,934.908 L 1569.29,926.683 L 1582.76,920.847 L 1582.76,886.726 L 1573.62,881.906 L 1566.68,884.011 L 1547.56,893.121 L 1530.76,905.648 L 1516.73,921.212 L 1510.56,931.185 L 1509.06,932.529 L 1507.32,933.545 L 1505.42,934.194 L 1503.42,934.448 L 1501.42,934.298 L 1499.48,933.749 L 1497.7,932.823 L 1496.13,931.559 L 1485.81,916.482 L 1473.9,904.257 L 1472.95,902.394 L 1472.28,898.81 L 1472.48,827.743 L 1473.97,824.138 L 1477.52,820.311 L 1489.23,802.797 L 1497.29,783.337 L 1501.4,762.678 L 1501.4,741.617 L 1497.29,720.957 L 1489.23,701.497 L 1486.47,697.367 L 1484.97,693.762 L 1484.78,691.811 L 1485.54,687.984 L 1486.47,686.255 L 1489.23,683.496 L 1492.83,682.003 L 1494.78,681.811 L 1659.6,681.811 L 1661.55,682.003 L 1665.15,683.496 L 1841.23,859.305 L 1844.01,861.324 L 1850.88,868.956 L 1887.45,905.528 L 1888.7,907.044 L 1890.19,910.648 L 1890.19,914.55 L 1888.7,918.155 L 1887.45,919.67 L 1801.1,1006.02 L 1798.1,1008.55 L 1789.41,1019.13 L 1782.96,1031.21 L 1778.98,1044.32 L 1777.64,1057.95 L 1777.98,1061.85 L 1777.78,1392.29 L 1777.22,1394.16 L 1775.05,1397.41 L 1694.91,1477.54 L 1691.67,1479.71 L 1687.84,1480.47 L 1680.2,1480.28 L 1676.59,1478.79 L 1675.08,1477.54 L 1672.91,1474.3 L 1672.15,1470.47 L 1672.91,1466.64 L 1681.96,1445.36 L 1686.07,1424.7 L 1686.07,1403.64 L 1681.96,1382.98 L 1673.04,1361.9 L 1672.28,1358.08 L 1672.28,1270.48 L 1672.48,1268.53 L 1673.97,1264.93 L 1685.81,1252.81 L 1697.52,1235.29 L 1705.58,1215.84 L 1709.68,1195.18 L 1709.68,1174.11 L 1705.58,1153.46 L 1697.52,1134 L 1685.81,1116.48 L 1670.92,1101.59 L 1656.4,1091.67 L 1654.25,1088.53 L 1653.44,1084.82 L 1654.06,1081.07 L 1656.04,1077.83 L 1674.75,1063.64 L 1688.78,1048.08 L 1699.5,1030.08 L 1705.37,1013.52 L 1700.71,1004.65 L 1666.25,1004.65M 1666.25,964.646 L 1700.71,964.646 L 1705.37,955.767 L 1699.99,940.59 L 1688.57,940.59 L 1665.82,963.339 L 1666.25,964.646M 1622.76,920.847 L 1624.28,921.366 L 1654.27,891.368 L 1638.83,884.011 L 1631.89,881.906 L 1622.76,886.726 L 1622.76,920.847 z " style="fill-opacity:1.000000;fill:rgb(242,251,227);stroke:rgb(0,0,0);stroke-width:2"/></g>
<g fill-rule="evenodd"><path d="M 2277.17,1231.34 L 2275.78,1228.94 L 2273.87,1223.07 L 2273.23,1216.93 L 2273.23,774.804 L 2232.91,734.486 L 2218.38,737.769 L 2204.39,737.769 L 2190.71,734.86 L 2177.92,729.168 L 2166.6,720.944 L 2157.24,710.546 L 2150.25,698.429 L 2145.92,685.121 L 2144.46,671.206 L 2145.92,657.291 L 2150.25,643.984 L 2157.24,631.866 L 2166.6,621.468 L 2177.92,613.244 L 2190.71,607.553 L 2204.39,604.644 L 2218.38,604.644 L 2232.07,607.553 L 2244.85,613.244 L 2256.17,621.468 L 2265.54,631.866 L 2272.53,643.984 L 2276.86,657.291 L 2278.32,671.206 L 2276.86,685.121 L 2274.45,692.513 L 2323.64,741.694 L 2327.31,746.169 L 2330.04,751.273 L 2331.72,756.813 L 2332.28,762.573 L 2332.28,1216.93 L 2331.64,1223.07 L 2329.73,1228.94 L 2328.35,1231.34 L 2328.35,1283.86 L 2277.17,1283.86 L 2277.17,1231.34 z " style="fill-opacity:1.000000;fill:rgb(70,124,194);stroke:rgb(0,0,0);stroke-width:2"/></g>
<g fill-rule="evenodd"><path d="M 2228.35,1806.14 L 2228.35,1858.66 L 2177.17,1858.66 L 2177.17,1806.14 L 2175.78,1803.74 L 2173.87,1797.87 L 2173.23,1791.73 L 2173.23,1675.2 L 2173.8,1669.44 L 2175.48,1663.9 L 2178.2,1658.79 L 2181.88,1654.32 L 2533.85,1302.35 L 2538.32,1298.68 L 2543.42,1295.95 L 2548.96,1294.27 L 2554.72,1293.7 L 3118.5,1293.7 L 3118.5,1291.73 L 3323.23,1291.73 L 3323.23,1354.72 L 3118.5,1354.72 L 3118.5,1352.76 L 2566.96,1352.76 L 2232.28,1687.43 L 2232.28,1791.73 L 2231.64,1797.87 L 2229.73,1803.74 L 2228.35,1806.14 z " style="fill-opacity:1.000000;fill:rgb(84,248,27);stroke:rgb(0,0,0);stroke-width:2"/></g>
<g fill-rule="evenodd"><path d="M 756.693,1172.96 L 756.693,1138.03 L 757.26,1132.26 L 758.941,1126.73 L 761.669,1121.62 L 765.341,1117.15 L 1054.55,827.94 L 1059.02,824.268 L 1064.13,821.539 L 1069.67,819.859 L 1075.43,819.291 L 1266.93,819.291 L 1272.69,819.859 L 1278.23,821.539 L 1283.33,824.268 L 1287.81,827.94 L 1373.23,913.36 L 1373.23,815.553 L 1361,810.11 L 1349.68,801.885 L 1340.32,791.487 L 1333.32,779.37 L 1329,766.063 L 1327.54,752.147 L 1329,738.232 L 1333.32,724.925 L 1340.32,712.807 L 1349.68,702.409 L 1361,694.185 L 1373.79,688.494 L 1387.47,685.585 L 1401.46,685.585 L 1415.15,688.494 L 1427.93,694.185 L 1439.25,702.409 L 1448.61,712.807 L 1455.61,724.925 L 1459.93,738.232 L 1461.4,752.147 L 1459.93,766.063 L 1455.61,779.37 L 1448.61,791.487 L 1439.25,801.885 L 1432.28,806.948 L 1432.28,924.931 L 1436.22,926.683 L 1447.54,934.908 L 1456.9,945.306 L 1463.9,957.423 L 1468.22,970.73 L 1469.69,984.646 L 1468.22,998.561 L 1463.9,1011.87 L 1456.9,1023.99 L 1447.54,1034.38 L 1436.22,1042.61 L 1423.44,1048.3 L 1409.75,1051.21 L 1395.76,1051.21 L 1382.07,1048.3 L 1369.29,1042.61 L 1357.97,1034.38 L 1348.61,1023.99 L 1341.61,1011.87 L 1337.29,998.561 L 1335.83,984.646 L 1337.29,970.73 L 1339.69,963.339 L 1254.7,878.346 L 1087.66,878.346 L 815.748,1150.26 L 815.748,1172.96 L 819.685,1174.71 L 831.005,1182.94 L 840.367,1193.34 L 847.363,1205.45 L 851.687,1218.76 L 853.15,1232.68 L 851.687,1246.59 L 847.363,1259.9 L 840.367,1272.02 L 831.005,1282.42 L 819.685,1290.64 L 806.903,1296.33 L 793.216,1299.24 L 779.224,1299.24 L 765.538,1296.33 L 752.756,1290.64 L 741.436,1282.42 L 732.074,1272.02 L 725.078,1259.9 L 720.754,1246.59 L 719.291,1232.68 L 720.754,1218.76 L 725.078,1205.45 L 732.074,1193.34 L 741.436,1182.94 L 752.756,1174.71 L 756.693,1172.96 z " style="fill-opacity:1.000000;fill:rgb(232,231,141);stroke:rgb(0,0,0);stroke-width:2"/></g>
<g fill-rule="evenodd"><path d="M 764.699,1569.4 L 779.224,1566.11 L 793.216,1566.11 L 807.742,1569.4 L 892.52,1484.62 L 892.52,1170.7 L 893.087,1164.94 L 894.767,1159.4 L 897.496,1154.3 L 901.168,1149.82 L 1087.22,963.767 L 1091.7,960.094 L 1096.8,957.366 L 1102.34,955.685 L 1108.1,955.118 L 1142.94,955.118 L 1148.61,945.306 L 1157.97,934.908 L 1169.29,926.683 L 1182.07,920.992 L 1195.76,918.083 L 1209.75,918.083 L 1223.44,920.992 L 1236.22,926.683 L 1247.54,934.908 L 1256.9,945.306 L 1263.9,957.423 L 1268.22,970.73 L 1269.69,984.646 L 1268.22,998.561 L 1263.9,1011.87 L 1256.9,1023.99 L 1247.54,1034.38 L 1236.22,1042.61 L 1223.44,1048.3 L 1209.75,1051.21 L 1195.76,1051.21 L 1182.07,1048.3 L 1169.29,1042.61 L 1157.97,1034.38 L 1148.61,1023.99 L 1142.94,1014.17 L 1120.33,1014.17 L 951.575,1182.93 L 951.575,1484.62 L 1383.1,1916.14 L 1388.2,1916.14 L 1389.29,1912.55 L 1391.11,1909.14 L 1393.56,1906.16 L 1396.54,1903.71 L 1399.95,1901.89 L 1403.64,1900.77 L 1407.48,1900.39 L 1478.35,1900.39 L 1482.19,1900.77 L 1485.88,1901.89 L 1489.28,1903.71 L 1492.27,1906.16 L 1494.71,1909.14 L 1496.53,1912.55 L 1497.62,1916.14 L 1687.19,1916.14 L 1692.95,1916.71 L 1695.69,1917.54 L 1700.08,1915.59 L 1713.76,1912.68 L 1727.76,1912.68 L 1741.44,1915.59 L 1754.23,1921.28 L 1765.54,1929.5 L 1774.91,1939.9 L 1781.9,1952.02 L 1786.23,1965.33 L 1787.69,1979.24 L 1786.23,1993.16 L 1781.9,2006.46 L 1774.91,2018.58 L 1765.54,2028.98 L 1754.23,2037.2 L 1741.44,2042.89 L 1727.76,2045.8 L 1713.76,2045.8 L 1700.08,2042.89 L 1687.3,2037.2 L 1675.98,2028.98 L 1666.61,2018.58 L 1659.62,2006.46 L 1655.29,1993.16 L 1653.83,1979.24 L 1654.26,1975.2 L 1497.62,1975.2 L 1496.53,1978.79 L 1494.71,1982.2 L 1492.27,1985.18 L 1489.28,1987.63 L 1485.88,1989.45 L 1482.19,1990.57 L 1478.35,1990.94 L 1407.48,1990.94 L 1403.64,1990.57 L 1399.95,1989.45 L 1396.54,1987.63 L 1393.56,1985.18 L 1391.11,1982.2 L 1389.29,1978.79 L 1388.2,1975.2 L 1370.87,1975.2 L 1365.11,1974.63 L 1359.57,1972.95 L 1354.46,1970.22 L 1349.99,1966.55 L 922.047,1538.61 L 849.285,1611.37 L 851.687,1618.76 L 853.15,1632.68 L 851.687,1646.59 L 847.363,1659.9 L 840.367,1672.02 L 831.005,1682.42 L 819.685,1690.64 L 806.903,1696.33 L 793.216,1699.24 L 779.224,1699.24 L 765.538,1696.33 L 752.756,1690.64 L 741.436,1682.42 L 732.074,1672.02 L 725.078,1659.9 L 720.754,1646.59 L 719.291,1632.68 L 720.754,1618.76 L 723.155,1611.37 L 584.646,1472.86 L 584.646,1514.96 L 584.267,1518.8 L 583.147,1522.49 L 581.328,1525.9 L 578.88,1528.88 L 575.897,1531.33 L 572.494,1533.15 L 568.801,1534.27 L 564.961,1534.65 L 494.094,1534.65 L 490.254,1534.27 L 486.561,1533.15 L 483.158,1531.33 L 480.175,1528.88 L 477.727,1525.9 L 475.908,1522.49 L 474.788,1518.8 L 474.409,1514.96 L 474.409,1463.78 L 474.788,1459.94 L 475.908,1456.25 L 477.727,1452.84 L 480.175,1449.86 L 483.158,1447.41 L 486.561,1445.59 L 490.254,1444.47 L 494.094,1444.09 L 500,1444.09 L 500,1420.86 L 500.567,1415.1 L 502.248,1409.56 L 504.976,1404.46 L 508.648,1399.99 L 522.44,1386.19 L 522.44,1093.89 L 523.007,1088.13 L 524.688,1082.59 L 527.416,1077.48 L 531.088,1073.01 L 1111.12,492.978 L 1115.59,489.306 L 1120.7,486.577 L 1126.24,484.897 L 1132,484.33 L 1733.31,484.33 L 1739.07,484.897 L 1744.61,486.577 L 1749.71,489.306 L 1754.19,492.978 L 2149.23,888.02 L 2152.9,892.494 L 2155.63,897.599 L 2157.31,903.138 L 2157.88,908.899 L 2157.88,965.353 L 2157.31,971.114 L 2155.63,976.653 L 2152.9,981.758 L 2149.23,986.232 L 2032.28,1103.18 L 2032.28,1216.93 L 2031.64,1223.07 L 2029.73,1228.94 L 2028.35,1231.34 L 2028.35,1283.86 L 1977.17,1283.86 L 1977.17,1231.34 L 1975.78,1228.94 L 1973.87,1223.07 L 1973.23,1216.93 L 1973.23,1090.94 L 1973.8,1085.18 L 1975.48,1079.65 L 1978.2,1074.54 L 1981.88,1070.07 L 2098.82,953.123 L 2098.82,921.129 L 1721.08,543.385 L 1144.23,543.385 L 581.495,1106.12 L 581.495,1386.19 L 764.699,1569.4 z " style="fill-opacity:1.000000;fill:rgb(118,90,46);stroke:rgb(0,0,0);stroke-width:2"/></g>
<g fill-rule="evenodd"><path d="M 764.699,1369.4 L 779.224,1366.11 L 793.216,1366.11 L 806.903,1369.02 L 819.685,1374.71 L 831.005,1382.94 L 840.367,1393.34 L 847.363,1405.45 L 851.687,1418.76 L 853.15,1432.68 L 851.687,1446.59 L 847.363,1459.9 L 840.367,1472.02 L 831.005,1482.42 L 819.685,1490.64 L 806.903,1496.33 L 793.216,1499.24 L 779.224,1499.24 L 765.538,1496.33 L 752.756,1490.64 L 741.436,1482.42 L 732.074,1472.02 L 725.078,1459.9 L 720.754,1446.59 L 719.291,1432.68 L 720.754,1418.76 L 723.155,1411.37 L 629.514,1317.73 L 625.842,1313.25 L 623.114,1308.15 L 621.433,1302.61 L 620.866,1296.85 L 620.866,1134.66 L 621.433,1128.9 L 623.114,1123.36 L 625.842,1118.25 L 629.514,1113.78 L 1151.89,591.404 L 1156.36,587.732 L 1161.47,585.003 L 1167.01,583.323 L 1172.77,582.756 L 1692.54,582.756 L 1698.3,583.323 L 1703.84,585.003 L 1708.94,587.732 L 1713.42,591.404 L 2008.22,886.208 L 2011.89,890.683 L 2014.62,895.788 L 2016.3,901.327 L 2016.87,907.088 L 2016.87,918.111 L 2016.3,923.872 L 2014.62,929.411 L 2011.89,934.516 L 2008.22,938.99 L 1877.03,1070.18 L 1877.03,1393.75 L 2010.16,1393.75 L 2073.23,1330.68 L 2073.23,1216.93 L 2073.87,1210.79 L 2075.78,1204.92 L 2077.17,1202.52 L 2077.17,1150 L 2128.35,1150 L 2128.35,1202.52 L 2129.73,1204.92 L 2131.64,1210.79 L 2132.28,1216.93 L 2132.28,1342.91 L 2131.72,1348.67 L 2130.04,1354.21 L 2127.31,1359.32 L 2123.64,1363.79 L 2043.27,1444.16 L 2038.8,1447.83 L 2033.69,1450.56 L 2028.15,1452.24 L 2022.39,1452.8 L 1859.73,1452.8 L 1741.66,1570.88 L 1737.19,1574.55 L 1732.08,1577.28 L 1726.54,1578.96 L 1720.78,1579.53 L 1513.54,1579.53 L 1507.78,1578.96 L 1502.24,1577.28 L 1497.14,1574.55 L 1492.66,1570.88 L 1381.88,1460.09 L 1378.2,1455.62 L 1375.48,1450.51 L 1373.8,1444.97 L 1373.23,1439.21 L 1373.23,1244.36 L 1369.29,1242.61 L 1357.97,1234.38 L 1348.61,1223.99 L 1341.61,1211.87 L 1337.29,1198.56 L 1335.83,1184.65 L 1337.29,1170.73 L 1341.61,1157.42 L 1348.61,1145.31 L 1357.97,1134.91 L 1369.29,1126.68 L 1382.07,1120.99 L 1395.76,1118.08 L 1409.75,1118.08 L 1423.44,1120.99 L 1436.22,1126.68 L 1447.54,1134.91 L 1456.9,1145.31 L 1463.9,1157.42 L 1468.22,1170.73 L 1469.69,1184.65 L 1468.22,1198.56 L 1463.9,1211.87 L 1456.9,1223.99 L 1447.54,1234.38 L 1436.22,1242.61 L 1432.28,1244.36 L 1432.28,1426.98 L 1525.77,1520.47 L 1708.55,1520.47 L 1817.98,1411.05 L 1817.98,1057.95 L 1818.54,1052.19 L 1820.22,1046.65 L 1822.95,1041.54 L 1826.62,1037.07 L 1951.09,912.599 L 1680.31,641.811 L 1185,641.811 L 679.921,1146.89 L 679.921,1284.62 L 764.699,1369.4 z " style="fill-opacity:1.000000;fill:rgb(99,51,159);stroke:rgb(0,0,0);stroke-width:2"/></g>
<g fill-rule="evenodd"><path d="M 1977.17,1762.2 L 1977.17,1724.8 L 2028.35,1724.8 L 2028.35,1777.01 L 2030.84,1782.61 L 2032.12,1788.65 L 2032.12,1794.82 L 2030.84,1800.86 L 2028.35,1806.45 L 2028.35,1858.66 L 1977.17,1858.66 L 1977.17,1821.26 L 1743.68,1821.26 L 1742.34,1823.59 L 1732.97,1833.99 L 1721.65,1842.21 L 1708.87,1847.91 L 1695.18,1850.81 L 1681.19,1850.81 L 1667.51,1847.91 L 1654.72,1842.21 L 1643.4,1833.99 L 1634.04,1823.59 L 1628.38,1813.78 L 1497.62,1813.78 L 1496.53,1817.38 L 1494.71,1820.78 L 1492.27,1823.76 L 1489.28,1826.21 L 1485.88,1828.03 L 1482.19,1829.15 L 1478.35,1829.53 L 1407.48,1829.53 L 1403.64,1829.15 L 1399.95,1828.03 L 1396.54,1826.21 L 1393.56,1823.76 L 1391.11,1820.78 L 1389.29,1817.38 L 1388.17,1813.68 L 1387.8,1809.84 L 1387.8,1758.66 L 1388.17,1754.82 L 1389.29,1751.13 L 1391.11,1747.72 L 1393.56,1744.74 L 1396.54,1742.29 L 1399.95,1740.47 L 1403.64,1739.35 L 1407.48,1738.98 L 1478.35,1738.98 L 1482.19,1739.35 L 1485.88,1740.47 L 1489.28,1742.29 L 1492.27,1744.74 L 1494.71,1747.72 L 1496.53,1751.13 L 1497.62,1754.72 L 1628.38,1754.72 L 1634.04,1744.91 L 1643.4,1734.51 L 1654.72,1726.29 L 1667.51,1720.6 L 1681.19,1717.69 L 1695.18,1717.69 L 1708.87,1720.6 L 1721.65,1726.29 L 1732.97,1734.51 L 1742.34,1744.91 L 1749.33,1757.03 L 1751.01,1762.2 L 1977.17,1762.2 z " style="fill-opacity:1.000000;fill:rgb(201,154,102);stroke:rgb(0,0,0);stroke-width:2"/></g>
<g fill-rule="evenodd"><path d="M 2077.17,1777.33 L 2077.17,1724.8 L 2128.35,1724.8 L 2128.35,1777.32 L 2129.73,1779.72 L 2131.64,1785.59 L 2132.28,1791.73 L 2132.28,1908.27 L 2131.72,1914.03 L 2130.04,1919.57 L 2127.31,1924.67 L 2123.64,1929.15 L 1899.23,2153.56 L 1894.75,2157.23 L 1889.65,2159.96 L 1884.11,2161.64 L 1878.35,2162.2 L 678.504,2162.2 L 672.743,2161.64 L 667.204,2159.96 L 662.099,2157.23 L 657.625,2153.56 L 297.625,1793.56 L 293.953,1789.08 L 291.224,1783.98 L 289.544,1778.44 L 288.976,1772.68 L 288.976,992.677 L 289.544,986.917 L 291.224,981.377 L 293.953,976.273 L 297.625,971.798 L 977.625,291.798 L 982.099,288.126 L 987.204,285.397 L 992.743,283.717 L 998.504,283.15 L 2604.02,283.15 L 2609.78,283.717 L 2615.32,285.397 L 2620.42,288.126 L 2624.89,291.798 L 3231.13,898.031 L 3323.23,898.031 L 3323.23,961.024 L 3118.5,961.024 L 3118.5,898.031 L 3147.61,898.031 L 2591.79,342.205 L 1010.73,342.205 L 348.031,1004.91 L 348.032,1760.45 L 690.735,2103.15 L 1866.12,2103.15 L 2073.23,1896.04 L 2073.23,1791.73 L 2073.87,1785.59 L 2075.78,1779.72 L 2077.17,1777.33 z " style="fill-opacity:1.000000;fill:rgb(50,13,183);stroke:rgb(0,0,0);stroke-width:2"/></g>
<g fill-rule="evenodd"><path d="M 3147.61,1551.57 L 3118.5,1551.57 L 3118.5,1488.58 L 3323.23,1488.58 L 3323.23,1551.57 L 3231.13,1551.57 L 2655.13,2127.57 L 2650.66,2131.24 L 2645.55,2133.97 L 2640.01,2135.65 L 2634.25,2136.22 L 2227.92,2136.22 L 2222.26,2146.03 L 2212.89,2156.43 L 2201.57,2164.66 L 2188.79,2170.35 L 2175.11,2173.26 L 2161.11,2173.26 L 2147.43,2170.35 L 2134.65,2164.66 L 2123.33,2156.43 L 2113.96,2146.03 L 2106.97,2133.92 L 2102.64,2120.61 L 2101.18,2106.69 L 2102.64,2092.78 L 2106.97,2079.47 L 2113.96,2067.35 L 2123.33,2056.95 L 2134.65,2048.73 L 2147.43,2043.04 L 2161.11,2040.13 L 2175.11,2040.13 L 2188.79,2043.04 L 2201.57,2048.73 L 2212.89,2056.95 L 2222.26,2067.35 L 2227.92,2077.17 L 2622.02,2077.17 L 3147.61,1551.57 z " style="fill-opacity:1.000000;fill:rgb(49,88,163);stroke:rgb(0,0,0);stroke-width:2"/></g>
<g fill-rule="evenodd"><path d="M 3118.5,1096.85 L 3118.5,1094.88 L 3323.23,1094.88 L 3323.23,1157.87 L 3118.5,1157.87 L 3118.5,1155.91 L 2624.61,1155.91 L 2406.88,1373.64 L 2402.41,1377.31 L 2397.3,1380.04 L 2391.76,1381.72 L 2386,1382.28 L 2232.27,1382.28 L 2231.72,1387.87 L 2230.04,1393.41 L 2227.31,1398.51 L 2223.64,1402.99 L 1957.32,1669.3 L 1952.84,1672.98 L 1947.74,1675.7 L 1942.2,1677.39 L 1936.44,1677.95 L 1472.77,1677.95 L 1467.01,1677.39 L 1461.47,1675.7 L 1456.37,1672.98 L 1451.89,1669.3 L 1181.88,1399.29 L 1178.2,1394.81 L 1175.48,1389.71 L 1173.8,1384.17 L 1173.23,1378.41 L 1173.23,1251.57 L 1135.83,1251.57 L 1135.83,1117.72 L 1269.69,1117.72 L 1269.69,1251.57 L 1232.28,1251.57 L 1232.28,1366.18 L 1485,1618.9 L 1924.21,1618.9 L 2173.23,1369.88 L 2173.23,1216.93 L 2173.87,1210.79 L 2175.78,1204.92 L 2177.17,1202.52 L 2177.17,1150 L 2228.35,1150 L 2228.35,1202.52 L 2229.73,1204.92 L 2231.64,1210.79 L 2232.28,1216.93 L 2232.28,1321.23 L 2234.28,1323.23 L 2373.77,1323.23 L 2591.5,1105.5 L 2595.97,1101.83 L 2601.08,1099.1 L 2606.62,1097.42 L 2612.38,1096.85 L 3118.5,1096.85 z " style="fill-opacity:1.000000;fill:rgb(90,37,93);stroke:rgb(0,0,0);stroke-width:2"/></g>
</svg>
