<?xml version="1.0" standalone="no"?>
<!DOCTYPE svg PUBLIC "-//W3C//DTD SVG 1.1//EN"
"http://www.w3.org/Graphics/SVG/1.1/DTD/svg11.dtd">
<svg width="214.11" height="115.843" viewBox="0 0 4460.63 2413.39" version="1.1"
xmlns="http://www.w3.org/2000/svg"
xmlns:xlink="http://www.w3.org/1999/xlink">
<polyline points="33.4639,2348.43 33.4639,64.9592 34.0679,58.8152 35.8619,52.9072 38.7719,47.4612 42.6879,42.6892 47.4619,38.7712 52.9059,35.8612 58.8159,34.0692 64.9599,33.4632 4395.67,33.4632 4401.81,34.0692 4407.72,35.8612 4413.17,38.7712 4417.94,42.6892 4421.86,47.4612 4424.77,52.9072 4426.56,58.8152 4427.16,64.9592 4427.16,2348.43 4426.56,2354.57 4424.77,2360.48 4421.86,2365.92 4417.94,2370.7 4413.17,2374.61 4407.72,2377.52 4401.81,2379.32 4395.67,2379.92 64.9599,2379.92 58.8159,2379.32 52.9059,2377.52 47.4619,2374.61 42.6879,2370.7 38.7719,2365.92 35.8619,2360.48 34.0679,2354.57 33.4639,2348.43" style="stroke:rgb(103,198,105);stroke-width:62.992126;fill:none;stroke-opacity:0.5;stroke-linecap:round;stroke-linejoin:round;;fill:none"/>
<polyline points="33.4639,2348.43 33.4639,64.9592 34.0679,58.8152 35.8619,52.9072 38.7719,47.4612 42.6879,42.6892 47.4619,38.7712 52.9059,35.8612 58.8159,34.0692 64.9599,33.4632 4395.67,33.4632 4401.81,34.0692 4407.72,35.8612 4413.17,38.7712 4417.94,42.6892 4421.86,47.4612 4424.77,52.9072 4426.56,58.8152 4427.16,64.9592 4427.16,2348.43 4426.56,2354.57 4424.77,2360.48 4421.86,2365.92 4417.94,2370.7 4413.17,2374.61 4407.72,2377.52 4401.81,2379.32 4395.67,2379.92 64.9599,2379.92 58.8159,2379.32 52.9059,2377.52 47.4619,2374.61 42.6879,2370.7 38.7719,2365.92 35.8619,2360.48 34.0679,2354.57 33.4639,2348.43" style="stroke:rgb(0,0,0);stroke-width:1px;fill:none;stroke-opacity:1;stroke-linecap:round;stroke-linejoin:round;;fill:none"/>
</svg>
