<?xml version="1.0" standalone="no"?>
<!DOCTYPE svg PUBLIC "-//W3C//DTD SVG 1.1//EN"
"http://www.w3.org/Graphics/SVG/1.1/DTD/svg11.dtd">
<svg width="214.11" height="115.843" viewBox="0 0 4460.63 2413.39" version="1.1"
xmlns="http://www.w3.org/2000/svg"
xmlns:xlink="http://www.w3.org/1999/xlink">
<polyline points="3366.53,961.023 3366.91,894.189 3372.3,884.111 3382.38,878.723 3590.94,878.345 3598.48,879.843 3604.86,884.111 3610.25,894.189 3610.25,964.863 3604.86,974.941 3594.78,980.329 3386.22,980.707 3378.69,979.209 3372.3,974.941 3368.03,968.555 3366.53,961.023" style="stroke:rgb(103,198,105);stroke-width:39.370079;fill:none;stroke-opacity:0.5;stroke-linecap:round;stroke-linejoin:round;;fill:none"/>
<polyline points="3366.53,961.023 3366.91,894.189 3372.3,884.111 3382.38,878.723 3590.94,878.345 3598.48,879.843 3604.86,884.111 3610.25,894.189 3610.25,964.863 3604.86,974.941 3594.78,980.329 3386.22,980.707 3378.69,979.209 3372.3,974.941 3368.03,968.555 3366.53,961.023" style="stroke:rgb(0,0,0);stroke-width:1px;fill:none;stroke-opacity:1;stroke-linecap:round;stroke-linejoin:round;;fill:none"/>
<polyline points="3366.53,1551.57 3366.91,1484.74 3372.3,1474.66 3382.38,1469.28 3590.94,1468.9 3601.88,1472.21 3607.31,1477.65 3610.25,1484.74 3610.25,1555.41 3604.86,1565.49 3594.78,1570.88 3386.22,1571.26 3378.69,1569.76 3372.3,1565.49 3368.03,1559.11 3366.53,1551.57" style="stroke:rgb(115,81,255);stroke-width:39.370079;fill:none;stroke-opacity:0.5;stroke-linecap:round;stroke-linejoin:round;;fill:none"/>
<polyline points="3366.53,1551.57 3366.91,1484.74 3372.3,1474.66 3382.38,1469.28 3590.94,1468.9 3601.88,1472.21 3607.31,1477.65 3610.25,1484.74 3610.25,1555.41 3604.86,1565.49 3594.78,1570.88 3386.22,1571.26 3378.69,1569.76 3372.3,1565.49 3368.03,1559.11 3366.53,1551.57" style="stroke:rgb(0,0,0);stroke-width:1px;fill:none;stroke-opacity:1;stroke-linecap:round;stroke-linejoin:round;;fill:none"/>
<polyline points="87.2439,2296.46 87.2439,116.927 88.0259,110.193 92.2459,100.435 97.4539,94.6932 103.84,90.4272 114.976,87.4352 4343.7,87.2432 4351.37,88.3832 4358.46,91.3212 4365.99,97.3692 4370.3,103.821 4373.38,116.927 4373.38,2296.46 4372.25,2304.12 4369.31,2311.22 4363.26,2318.74 4356.81,2323.06 4343.7,2326.14 116.928,2326.14 104.902,2323.51 94.9179,2316.25 88.6959,2305.63 87.2439,2296.46" style="stroke:rgb(74,236,41);stroke-width:39.370079;fill:none;stroke-opacity:0.5;stroke-linecap:round;stroke-linejoin:round;;fill:none"/>
<polyline points="87.2439,2296.46 87.2439,116.927 88.0259,110.193 92.2459,100.435 97.4539,94.6932 103.84,90.4272 114.976,87.4352 4343.7,87.2432 4351.37,88.3832 4358.46,91.3212 4365.99,97.3692 4370.3,103.821 4373.38,116.927 4373.38,2296.46 4372.25,2304.12 4369.31,2311.22 4363.26,2318.74 4356.81,2323.06 4343.7,2326.14 116.928,2326.14 104.902,2323.51 94.9179,2316.25 88.6959,2305.63 87.2439,2296.46" style="stroke:rgb(0,0,0);stroke-width:1px;fill:none;stroke-opacity:1;stroke-linecap:round;stroke-linejoin:round;;fill:none"/>
<polyline points="268.408,1772.56 268.408,992.797 269.382,982.907 272.232,973.509 276.858,964.853 283.166,957.167 962.994,277.339 970.68,271.033 979.336,266.405 988.734,263.555 998.624,262.581 2603.89,262.581 2613.78,263.555 2623.18,266.405 2631.84,271.033 2639.52,277.339 3232.12,870.025 3236.76,873.463 3243.93,876.335 3251.6,877.473 3327.21,878.009 3334.87,881.219 3341.03,885.533 3351.81,888.739 3362.41,887.861 3369.27,885.071 3378.41,879.171 3387.68,877.473 3589.48,877.473 3594.93,878.009 3602.29,881.057 3607.92,886.689 3610.96,894.047 3610.96,965.007 3605.38,975.457 3594.93,981.043 3387.67,981.579 3378.41,979.883 3368.42,973.519 3355.7,970.219 3344.3,972.199 3331.04,979.883 3321.77,981.579 3119.96,981.579 3110.69,979.883 3104.07,975.457 3098.48,965.007 3098.62,887.671 3095.99,877.737 3090.03,869.175 2592.06,371.213 2583.32,365.169 2575.91,362.923 1031.45,362.519 1023.78,363.657 1016.68,366.597 1010.45,371.213 377.04,1004.63 370.606,1014.26 368.724,1021.78 368.346,1739.74 370.606,1751.1 377.04,1760.73 690.454,2074.14 699.202,2080.18 709.49,2082.64 1629.51,2082.83 1640.87,2080.57 1647.52,2076.59 1652.95,2071.16 1658.16,2060.81 1658.79,2048.31 1656.58,2040.98 1643.38,2020.5 1637.82,2008.56 1629.72,2000.51 1619.04,1996.09 1522.36,1995.51 1510.75,1997.88 1493.69,2008.31 1486.17,2010.59 1476.88,2011.5 1408.94,2011.5 1399.66,2010.59 1392.14,2008.31 1376.82,1998.52 1351.7,1991.94 1343.04,1987.31 1335.36,1981.01 943.036,1588.33 931.588,1581.24 923.998,1579.83 916.256,1580.2 905.554,1584.64 878.466,1611.72 874.246,1621.48 873.464,1641.27 870.11,1658.13 863.534,1674 853.914,1688.4 842.318,1700.62 837.83,1710.69 837.476,1722.82 842.014,1734.08 850.686,1742.57 864.488,1748.77 872.008,1757.93 873.698,1767.12 873.556,1792.99 872.834,1765.75 871.336,1758.21 864.086,1749.38 853.148,1746.06 719.29,1746.06 711.758,1747.56 705.37,1751.83 699.984,1761.91 698.882,1792.99 698.742,1767.12 700.432,1757.94 707.95,1748.77 721.754,1742.57 730.424,1734.08 734.964,1722.82 734.61,1710.69 730.12,1700.62 718.526,1688.4 708.904,1674 702.328,1658.13 698.976,1641.27 698.598,1624.38 694.966,1613.38 653.716,1570.66 645.444,1564.84 635.814,1562.12 627.762,1562.36 618.314,1565.66 609.204,1573.48 605.192,1580.47 603.056,1590.25 605.14,1611.1 601.632,1611.1 594.096,1598.79 585.176,1591.47 574.514,1587.05 564.96,1585.83 494.094,1585.83 484.538,1587.05 470.67,1593.61 462.51,1601.77 457.42,1611.1 453.912,1611.1 455.55,1597.7 460.108,1590.91 470.254,1580.45 473.268,1574.36 474.778,1566.78 473.828,1557.14 472.17,1552.58 460.772,1537.27 454.766,1522.78 453.852,1513.5 454.766,1455.96 460.754,1441.5 476.454,1424.16 483.256,1401.7 487.882,1393.04 498.668,1378.95 501.686,1370.15 501.87,1094.01 502.844,1084.12 505.696,1074.72 510.326,1066.06 516.63,1058.38 1096.49,478.519 1104.17,472.213 1112.83,467.585 1122.23,464.735 1132.12,463.761 1733.18,463.761 1743.08,464.735 1752.47,467.587 1761.13,472.213 1768.81,478.521 2163.68,873.389 2169.99,881.073 2174.62,889.731 2177.47,899.127 2178.44,909.019 2178.44,965.231 2177.47,975.121 2174.62,984.519 2169.99,993.177 2163.68,1000.86 2084.12,1080.2 2078.42,1090.27 2076.92,1097.81 2077.3,1105.55 2081.21,1115.43 2086.12,1121.41 2095.05,1127.18 2106.41,1129.44 2132.33,1129.98 2149.85,1135.89 2161.11,1134.84 2169.09,1131.22 2178.66,1129.44 2229.06,1128.86 2238.9,1124.96 2245.52,1119.32 2249.73,1112.85 2252.34,1105.56 2252.91,795.525 2251,785.055 2247.35,778.231 2230.68,762.459 2219.69,758.827 2202.8,758.449 2185.94,755.095 2170.06,748.519 2155.77,738.971 2143.62,726.821 2134.07,712.529 2127.5,696.655 2124.14,679.797 2124.14,662.613 2127.5,645.755 2134.07,629.879 2143.62,615.589 2155.77,603.439 2170.06,593.889 2185.94,587.315 2202.8,583.961 2219.98,583.961 2236.84,587.315 2252.71,593.891 2267,603.437 2279.16,615.591 2288.7,629.879 2295.28,645.757 2298.63,662.615 2298.63,675.665 2300.89,687.025 2307.33,696.655 2338.09,727.063 2344.4,734.747 2349.03,743.405 2351.88,752.801 2352.85,762.693 2352.6,1219.37 2349.23,1236.54 2348.9,1247.44 2351.16,1259.06 2355.15,1265.71 2360.58,1271.14 2370.92,1276.35 2376.64,1277.19 2386.25,1276.35 2393.35,1273.31 2399.58,1268.69 2576.87,1091.04 2584.55,1084.74 2593.21,1080.11 2602.61,1077.26 2612.5,1076.28 3104.6,1076.54 3119.96,1074.32 3321.77,1074.32 3331.04,1076.02 3344.3,1083.7 3355.7,1085.68 3368.42,1082.38 3374.58,1078.07 3382.24,1074.86 3448.9,1074.52 3382.38,1075.57 3372.3,1080.96 3368.03,1087.35 3366.53,1094.88 3366.53,1157.87 3368.03,1165.41 3372.3,1171.79 3378.69,1176.06 3386.22,1177.56 3448.9,1178.24 3382.24,1177.89 3365.15,1169.05 3353.77,1167.17 3342.48,1169.7 3331.04,1176.73 3321.77,1178.43 3119.96,1178.43 3104.6,1176.22 2645.32,1176.22 2634.86,1178.13 2628.04,1181.78 2585.29,1224.23 2581.02,1230.61 2578.41,1237.91 2578.41,1249.49 2582.84,1260.19 2591.03,1268.38 2600.79,1272.6 3104.6,1273.39 3119.96,1271.18 3321.77,1271.18 3331.04,1272.87 3344.3,1280.55 3355.7,1282.54 3368.42,1279.23 3374.58,1274.92 3382.24,1271.71 3448.9,1271.37 3382.38,1272.43 3372.3,1277.81 3368.03,1284.2 3366.53,1291.73 3366.53,1354.72 3368.03,1362.26 3372.3,1368.64 3378.69,1372.91 3386.22,1374.41 3448.9,1375.09 3382.24,1374.75 3365.15,1365.9 3353.77,1364.02 3342.48,1366.55 3331.04,1373.58 3321.77,1375.28 3119.96,1375.28 3104.6,1373.07 2587.66,1373.07 2576.3,1375.33 2566.67,1381.77 2288.07,1661.18 2283.36,1673.78 2283.26,1689.58 2284.76,1696.79 2289.16,1705.12 2277.16,1705.12 2269.63,1706.62 2260.8,1713.87 2257.86,1720.96 2257.48,1858.66 2258.98,1866.19 2263.07,1872.37 2263.07,1874.59 2249.85,1872.77 2232.33,1878.68 2226.88,1879.22 2178.97,1879.47 2167.03,1883.63 2161.43,1888.26 2157.06,1894 2154.12,1900.53 2151.91,1917.94 2149.03,1927.43 2144.4,1936.09 2138.09,1943.78 2104.87,1976.64 2098.44,1986.27 2096.18,1997.63 2098.44,2008.99 2104.87,2018.62 2114.5,2025.05 2122.02,2026.94 2129.74,2027.03 2142.47,2022.84 2159.52,2019.45 2176.7,2019.45 2193.56,2022.8 2209.44,2029.38 2223.82,2038.99 2239.11,2052.84 2246.28,2055.71 2253.94,2056.85 2601.31,2056.85 2608.98,2055.71 2616.14,2052.84 2620.78,2049.4 3090.02,1580.43 3095.99,1571.87 3098.62,1561.93 3098.48,1484.6 3101.53,1477.24 3110.69,1469.72 3119.96,1468.03 3321.77,1468.03 3331.04,1469.72 3344.3,1477.41 3355.67,1479.29 3366.97,1476.75 3378.41,1469.72 3387.68,1468.03 3594.93,1468.56 3605.38,1474.15 3610.96,1484.6 3611.5,1550.12 3609.8,1559.39 3602.29,1568.55 3594.93,1571.6 3589.48,1572.13 3387.68,1572.13 3378.41,1570.43 3365.15,1562.75 3353.74,1560.77 3341.03,1564.07 3334.87,1568.39 3327.21,1571.6 3251.6,1572.13 3243.93,1573.27 3236.76,1576.14 3232.12,1579.58 2669.76,2142.03 2662.08,2148.34 2653.42,2152.96 2644.02,2155.81 2634.13,2156.79 2253.94,2156.54 2246.28,2157.67 2239.11,2160.54 2223.82,2174.4 2209.43,2184.01 2193.56,2190.58 2176.7,2193.94 2159.52,2193.94 2142.66,2190.58 2126.78,2184.01 2112.49,2174.46 2100.34,2162.31 2090.79,2148.02 2084.22,2132.14 2080.87,2115.29 2080.87,2098.1 2084.26,2081.05 2088.2,2070.05 2088.54,2062.5 2087.04,2054.96 2083.73,2047.95 2075.54,2039.76 2065.78,2035.54 2058.08,2034.79 2047.69,2037.02 2038.05,2043.46 1913.86,2168.01 1906.17,2174.32 1897.51,2178.95 1888.12,2181.8 1878.22,2182.77 678.624,2182.77 668.732,2181.8 659.338,2178.95 650.678,2174.32 642.994,2168.01 283.166,1808.19 276.86,1800.5 272.232,1791.84 269.382,1782.45 268.408,1772.56" style="stroke:rgb(74,236,41);stroke-width:39.370079;fill:none;stroke-opacity:0.5;stroke-linecap:round;stroke-linejoin:round;;fill:none"/>
<polyline points="268.408,1772.56 268.408,992.797 269.382,982.907 272.232,973.509 276.858,964.853 283.166,957.167 962.994,277.339 970.68,271.033 979.336,266.405 988.734,263.555 998.624,262.581 2603.89,262.581 2613.78,263.555 2623.18,266.405 2631.84,271.033 2639.52,277.339 3232.12,870.025 3236.76,873.463 3243.93,876.335 3251.6,877.473 3327.21,878.009 3334.87,881.219 3341.03,885.533 3351.81,888.739 3362.41,887.861 3369.27,885.071 3378.41,879.171 3387.68,877.473 3589.48,877.473 3594.93,878.009 3602.29,881.057 3607.92,886.689 3610.96,894.047 3610.96,965.007 3605.38,975.457 3594.93,981.043 3387.67,981.579 3378.41,979.883 3368.42,973.519 3355.7,970.219 3344.3,972.199 3331.04,979.883 3321.77,981.579 3119.96,981.579 3110.69,979.883 3104.07,975.457 3098.48,965.007 3098.62,887.671 3095.99,877.737 3090.03,869.175 2592.06,371.213 2583.32,365.169 2575.91,362.923 1031.45,362.519 1023.78,363.657 1016.68,366.597 1010.45,371.213 377.04,1004.63 370.606,1014.26 368.724,1021.78 368.346,1739.74 370.606,1751.1 377.04,1760.73 690.454,2074.14 699.202,2080.18 709.49,2082.64 1629.51,2082.83 1640.87,2080.57 1647.52,2076.59 1652.95,2071.16 1658.16,2060.81 1658.79,2048.31 1656.58,2040.98 1643.38,2020.5 1637.82,2008.56 1629.72,2000.51 1619.04,1996.09 1522.36,1995.51 1510.75,1997.88 1493.69,2008.31 1486.17,2010.59 1476.88,2011.5 1408.94,2011.5 1399.66,2010.59 1392.14,2008.31 1376.82,1998.52 1351.7,1991.94 1343.04,1987.31 1335.36,1981.01 943.036,1588.33 931.588,1581.24 923.998,1579.83 916.256,1580.2 905.554,1584.64 878.466,1611.72 874.246,1621.48 873.464,1641.27 870.11,1658.13 863.534,1674 853.914,1688.4 842.318,1700.62 837.83,1710.69 837.476,1722.82 842.014,1734.08 850.686,1742.57 864.488,1748.77 872.008,1757.93 873.698,1767.12 873.556,1792.99 872.834,1765.75 871.336,1758.21 864.086,1749.38 853.148,1746.06 719.29,1746.06 711.758,1747.56 705.37,1751.83 699.984,1761.91 698.882,1792.99 698.742,1767.12 700.432,1757.94 707.95,1748.77 721.754,1742.57 730.424,1734.08 734.964,1722.82 734.61,1710.69 730.12,1700.62 718.526,1688.4 708.904,1674 702.328,1658.13 698.976,1641.27 698.598,1624.38 694.966,1613.38 653.716,1570.66 645.444,1564.84 635.814,1562.12 627.762,1562.36 618.314,1565.66 609.204,1573.48 605.192,1580.47 603.056,1590.25 605.14,1611.1 601.632,1611.1 594.096,1598.79 585.176,1591.47 574.514,1587.05 564.96,1585.83 494.094,1585.83 484.538,1587.05 470.67,1593.61 462.51,1601.77 457.42,1611.1 453.912,1611.1 455.55,1597.7 460.108,1590.91 470.254,1580.45 473.268,1574.36 474.778,1566.78 473.828,1557.14 472.17,1552.58 460.772,1537.27 454.766,1522.78 453.852,1513.5 454.766,1455.96 460.754,1441.5 476.454,1424.16 483.256,1401.7 487.882,1393.04 498.668,1378.95 501.686,1370.15 501.87,1094.01 502.844,1084.12 505.696,1074.72 510.326,1066.06 516.63,1058.38 1096.49,478.519 1104.17,472.213 1112.83,467.585 1122.23,464.735 1132.12,463.761 1733.18,463.761 1743.08,464.735 1752.47,467.587 1761.13,472.213 1768.81,478.521 2163.68,873.389 2169.99,881.073 2174.62,889.731 2177.47,899.127 2178.44,909.019 2178.44,965.231 2177.47,975.121 2174.62,984.519 2169.99,993.177 2163.68,1000.86 2084.12,1080.2 2078.42,1090.27 2076.92,1097.81 2077.3,1105.55 2081.21,1115.43 2086.12,1121.41 2095.05,1127.18 2106.41,1129.44 2132.33,1129.98 2149.85,1135.89 2161.11,1134.84 2169.09,1131.22 2178.66,1129.44 2229.06,1128.86 2238.9,1124.96 2245.52,1119.32 2249.73,1112.85 2252.34,1105.56 2252.91,795.525 2251,785.055 2247.35,778.231 2230.68,762.459 2219.69,758.827 2202.8,758.449 2185.94,755.095 2170.06,748.519 2155.77,738.971 2143.62,726.821 2134.07,712.529 2127.5,696.655 2124.14,679.797 2124.14,662.613 2127.5,645.755 2134.07,629.879 2143.62,615.589 2155.77,603.439 2170.06,593.889 2185.94,587.315 2202.8,583.961 2219.98,583.961 2236.84,587.315 2252.71,593.891 2267,603.437 2279.16,615.591 2288.7,629.879 2295.28,645.757 2298.63,662.615 2298.63,675.665 2300.89,687.025 2307.33,696.655 2338.09,727.063 2344.4,734.747 2349.03,743.405 2351.88,752.801 2352.85,762.693 2352.6,1219.37 2349.23,1236.54 2348.9,1247.44 2351.16,1259.06 2355.15,1265.71 2360.58,1271.14 2370.92,1276.35 2376.64,1277.19 2386.25,1276.35 2393.35,1273.31 2399.58,1268.69 2576.87,1091.04 2584.55,1084.74 2593.21,1080.11 2602.61,1077.26 2612.5,1076.28 3104.6,1076.54 3119.96,1074.32 3321.77,1074.32 3331.04,1076.02 3344.3,1083.7 3355.7,1085.68 3368.42,1082.38 3374.58,1078.07 3382.24,1074.86 3448.9,1074.52 3382.38,1075.57 3372.3,1080.96 3368.03,1087.35 3366.53,1094.88 3366.53,1157.87 3368.03,1165.41 3372.3,1171.79 3378.69,1176.06 3386.22,1177.56 3448.9,1178.24 3382.24,1177.89 3365.15,1169.05 3353.77,1167.17 3342.48,1169.7 3331.04,1176.73 3321.77,1178.43 3119.96,1178.43 3104.6,1176.22 2645.32,1176.22 2634.86,1178.13 2628.04,1181.78 2585.29,1224.23 2581.02,1230.61 2578.41,1237.91 2578.41,1249.49 2582.84,1260.19 2591.03,1268.38 2600.79,1272.6 3104.6,1273.39 3119.96,1271.18 3321.77,1271.18 3331.04,1272.87 3344.3,1280.55 3355.7,1282.54 3368.42,1279.23 3374.58,1274.92 3382.24,1271.71 3448.9,1271.37 3382.38,1272.43 3372.3,1277.81 3368.03,1284.2 3366.53,1291.73 3366.53,1354.72 3368.03,1362.26 3372.3,1368.64 3378.69,1372.91 3386.22,1374.41 3448.9,1375.09 3382.24,1374.75 3365.15,1365.9 3353.77,1364.02 3342.48,1366.55 3331.04,1373.58 3321.77,1375.28 3119.96,1375.28 3104.6,1373.07 2587.66,1373.07 2576.3,1375.33 2566.67,1381.77 2288.07,1661.18 2283.36,1673.78 2283.26,1689.58 2284.76,1696.79 2289.16,1705.12 2277.16,1705.12 2269.63,1706.62 2260.8,1713.87 2257.86,1720.96 2257.48,1858.66 2258.98,1866.19 2263.07,1872.37 2263.07,1874.59 2249.85,1872.77 2232.33,1878.68 2226.88,1879.22 2178.97,1879.47 2167.03,1883.63 2161.43,1888.26 2157.06,1894 2154.12,1900.53 2151.91,1917.94 2149.03,1927.43 2144.4,1936.09 2138.09,1943.78 2104.87,1976.64 2098.44,1986.27 2096.18,1997.63 2098.44,2008.99 2104.87,2018.62 2114.5,2025.05 2122.02,2026.94 2129.74,2027.03 2142.47,2022.84 2159.52,2019.45 2176.7,2019.45 2193.56,2022.8 2209.44,2029.38 2223.82,2038.99 2239.11,2052.84 2246.28,2055.71 2253.94,2056.85 2601.31,2056.85 2608.98,2055.71 2616.14,2052.84 2620.78,2049.4 3090.02,1580.43 3095.99,1571.87 3098.62,1561.93 3098.48,1484.6 3101.53,1477.24 3110.69,1469.72 3119.96,1468.03 3321.77,1468.03 3331.04,1469.72 3344.3,1477.41 3355.67,1479.29 3366.97,1476.75 3378.41,1469.72 3387.68,1468.03 3594.93,1468.56 3605.38,1474.15 3610.96,1484.6 3611.5,1550.12 3609.8,1559.39 3602.29,1568.55 3594.93,1571.6 3589.48,1572.13 3387.68,1572.13 3378.41,1570.43 3365.15,1562.75 3353.74,1560.77 3341.03,1564.07 3334.87,1568.39 3327.21,1571.6 3251.6,1572.13 3243.93,1573.27 3236.76,1576.14 3232.12,1579.58 2669.76,2142.03 2662.08,2148.34 2653.42,2152.96 2644.02,2155.81 2634.13,2156.79 2253.94,2156.54 2246.28,2157.67 2239.11,2160.54 2223.82,2174.4 2209.43,2184.01 2193.56,2190.58 2176.7,2193.94 2159.52,2193.94 2142.66,2190.58 2126.78,2184.01 2112.49,2174.46 2100.34,2162.31 2090.79,2148.02 2084.22,2132.14 2080.87,2115.29 2080.87,2098.1 2084.26,2081.05 2088.2,2070.05 2088.54,2062.5 2087.04,2054.96 2083.73,2047.95 2075.54,2039.76 2065.78,2035.54 2058.08,2034.79 2047.69,2037.02 2038.05,2043.46 1913.86,2168.01 1906.17,2174.32 1897.51,2178.95 1888.12,2181.8 1878.22,2182.77 678.624,2182.77 668.732,2181.8 659.338,2178.95 650.678,2174.32 642.994,2168.01 283.166,1808.19 276.86,1800.5 272.232,1791.84 269.382,1782.45 268.408,1772.56" style="stroke:rgb(0,0,0);stroke-width:1px;fill:none;stroke-opacity:1;stroke-linecap:round;stroke-linejoin:round;;fill:none"/>
<polyline points="698.742,1898.23 699.606,1872.36 699.984,1903.45 705.37,1913.53 715.45,1918.91 746.534,1920.01 720.67,1920.16 711.478,1918.47 702.318,1910.95 699.27,1903.59 698.742,1898.23" style="stroke:rgb(74,236,41);stroke-width:39.370079;fill:none;stroke-opacity:0.5;stroke-linecap:round;stroke-linejoin:round;;fill:none"/>
<polyline points="698.742,1898.23 699.606,1872.36 699.984,1903.45 705.37,1913.53 715.45,1918.91 746.534,1920.01 720.67,1920.16 711.478,1918.47 702.318,1910.95 699.27,1903.59 698.742,1898.23" style="stroke:rgb(0,0,0);stroke-width:1px;fill:none;stroke-opacity:1;stroke-linecap:round;stroke-linejoin:round;;fill:none"/>
<polyline points="825.904,1920.01 856.99,1918.91 867.068,1913.53 872.456,1903.45 873.556,1872.36 873.17,1903.59 867.582,1914.04 857.132,1919.63 825.904,1920.01" style="stroke:rgb(74,236,41);stroke-width:39.370079;fill:none;stroke-opacity:0.5;stroke-linecap:round;stroke-linejoin:round;;fill:none"/>
<polyline points="825.904,1920.01 856.99,1918.91 867.068,1913.53 872.456,1903.45 873.556,1872.36 873.17,1903.59 867.582,1914.04 857.132,1919.63 825.904,1920.01" style="stroke:rgb(0,0,0);stroke-width:1px;fill:none;stroke-opacity:1;stroke-linecap:round;stroke-linejoin:round;;fill:none"/>
<polyline points="453.868,1694.76 453.912,1690.47 457.42,1690.47 462.51,1699.8 470.67,1707.96 480.846,1713.4 489.842,1715.42 489.842,1716.5 470.426,1716.08 463.068,1713.04 455.55,1703.87 453.868,1694.76" style="stroke:rgb(74,236,41);stroke-width:39.370079;fill:none;stroke-opacity:0.5;stroke-linecap:round;stroke-linejoin:round;;fill:none"/>
<polyline points="453.868,1694.76 453.912,1690.47 457.42,1690.47 462.51,1699.8 470.67,1707.96 480.846,1713.4 489.842,1715.42 489.842,1716.5 470.426,1716.08 463.068,1713.04 455.55,1703.87 453.868,1694.76" style="stroke:rgb(0,0,0);stroke-width:1px;fill:none;stroke-opacity:1;stroke-linecap:round;stroke-linejoin:round;;fill:none"/>
<polyline points="569.212,1716.5 569.212,1715.42 578.208,1713.4 588.384,1707.96 596.544,1699.8 601.632,1690.47 605.14,1690.47 603.504,1703.87 595.984,1713.04 588.626,1716.08 569.212,1716.5" style="stroke:rgb(74,236,41);stroke-width:39.370079;fill:none;stroke-opacity:0.5;stroke-linecap:round;stroke-linejoin:round;;fill:none"/>
<polyline points="569.212,1716.5 569.212,1715.42 578.208,1713.4 588.384,1707.96 596.544,1699.8 601.632,1690.47 605.14,1690.47 603.504,1703.87 595.984,1713.04 588.626,1716.08 569.212,1716.5" style="stroke:rgb(0,0,0);stroke-width:1px;fill:none;stroke-opacity:1;stroke-linecap:round;stroke-linejoin:round;;fill:none"/>
<polyline points="2342.44,1873.37 2347.65,1862.5 2348.75,1831.42 2348.37,1862.65 2345.32,1870 2342.44,1873.37" style="stroke:rgb(74,236,41);stroke-width:39.370079;fill:none;stroke-opacity:0.5;stroke-linecap:round;stroke-linejoin:round;;fill:none"/>
<polyline points="2342.44,1873.37 2347.65,1862.5 2348.75,1831.42 2348.37,1862.65 2345.32,1870 2342.44,1873.37" style="stroke:rgb(0,0,0);stroke-width:1px;fill:none;stroke-opacity:1;stroke-linecap:round;stroke-linejoin:round;;fill:none"/>
<polyline points="2335.38,1706.47 2342.26,1710.88 2347.65,1720.96 2348.75,1752.05 2348.37,1720.82 2342.78,1710.37 2336.16,1705.94 2335.38,1706.47" style="stroke:rgb(74,236,41);stroke-width:39.370079;fill:none;stroke-opacity:0.5;stroke-linecap:round;stroke-linejoin:round;;fill:none"/>
<polyline points="2335.38,1706.47 2342.26,1710.88 2347.65,1720.96 2348.75,1752.05 2348.37,1720.82 2342.78,1710.37 2336.16,1705.94 2335.38,1706.47" style="stroke:rgb(0,0,0);stroke-width:1px;fill:none;stroke-opacity:1;stroke-linecap:round;stroke-linejoin:round;;fill:none"/>
<polyline points="3528.27,1272.05 3594.93,1271.71 3602.29,1274.76 3609.6,1283.54 3601.88,1275.36 3594.78,1272.43 3528.27,1272.05" style="stroke:rgb(74,236,41);stroke-width:39.370079;fill:none;stroke-opacity:0.5;stroke-linecap:round;stroke-linejoin:round;;fill:none"/>
<polyline points="3528.27,1272.05 3594.93,1271.71 3602.29,1274.76 3609.6,1283.54 3601.88,1275.36 3594.78,1272.43 3528.27,1272.05" style="stroke:rgb(0,0,0);stroke-width:1px;fill:none;stroke-opacity:1;stroke-linecap:round;stroke-linejoin:round;;fill:none"/>
<polyline points="3528.27,1375.09 3594.78,1374.03 3601.88,1371.09 3609.6,1362.91 3602.29,1371.7 3594.93,1374.75 3528.27,1375.09" style="stroke:rgb(74,236,41);stroke-width:39.370079;fill:none;stroke-opacity:0.5;stroke-linecap:round;stroke-linejoin:round;;fill:none"/>
<polyline points="3528.27,1375.09 3594.78,1374.03 3601.88,1371.09 3609.6,1362.91 3602.29,1371.7 3594.93,1374.75 3528.27,1375.09" style="stroke:rgb(0,0,0);stroke-width:1px;fill:none;stroke-opacity:1;stroke-linecap:round;stroke-linejoin:round;;fill:none"/>
<polyline points="3528.27,1075.2 3594.93,1074.86 3602.28,1077.91 3609.6,1086.69 3601.88,1078.51 3594.78,1075.57 3528.27,1075.2" style="stroke:rgb(74,236,41);stroke-width:39.370079;fill:none;stroke-opacity:0.5;stroke-linecap:round;stroke-linejoin:round;;fill:none"/>
<polyline points="3528.27,1075.2 3594.93,1074.86 3602.28,1077.91 3609.6,1086.69 3601.88,1078.51 3594.78,1075.57 3528.27,1075.2" style="stroke:rgb(0,0,0);stroke-width:1px;fill:none;stroke-opacity:1;stroke-linecap:round;stroke-linejoin:round;;fill:none"/>
<polyline points="3528.27,1178.24 3594.78,1177.18 3601.88,1174.24 3609.6,1166.06 3602.28,1174.85 3594.93,1177.9 3528.27,1178.24" style="stroke:rgb(74,236,41);stroke-width:39.370079;fill:none;stroke-opacity:0.5;stroke-linecap:round;stroke-linejoin:round;;fill:none"/>
<polyline points="3528.27,1178.24 3594.78,1177.18 3601.88,1174.24 3609.6,1166.06 3602.28,1174.85 3594.93,1177.9 3528.27,1178.24" style="stroke:rgb(0,0,0);stroke-width:1px;fill:none;stroke-opacity:1;stroke-linecap:round;stroke-linejoin:round;;fill:none"/>
<polyline points="1492.52,1414.17 1494.09,1430.14 1499.27,1447.48 1509.06,1465.08 1521.18,1478.54 1534.1,1488.06 1554.36,1497.08 1568.05,1499.99 1586.13,1500.42 1607.82,1495.81 1624.17,1488.06 1637.09,1478.54 1649.21,1465.08 1657.33,1451.24 1663.32,1434.17 1665.75,1414.17 1663.32,1394.17 1659,1380.87 1651.97,1367.83 1651.97,1255.5 1660.71,1249.01 1671.53,1237.16 1680.95,1221.71 1686.94,1204.64 1689.37,1184.65 1686.94,1164.65 1680.95,1147.58 1673.95,1135.46 1660.71,1120.28 1644.23,1108.7 1629.52,1102.27 1609.75,1098.4 1591.67,1098.83 1575.99,1102.27 1561.28,1108.7 1544.8,1120.28 1532.68,1133.73 1524.56,1147.58 1517.71,1168.67 1516.14,1184.65 1517.71,1200.62 1522.89,1217.95 1532.68,1235.56 1544.8,1249.01 1553.54,1255.5 1553.54,1331.48 1534.1,1340.28 1521.18,1349.8 1509.06,1363.26 1499.27,1380.87 1494.09,1398.2 1492.52,1414.17" style="stroke:rgb(205,186,171);stroke-width:39.370079;fill:none;stroke-opacity:0.5;stroke-linecap:round;stroke-linejoin:round;;fill:none"/>
<polyline points="1492.52,1414.17 1494.09,1430.14 1499.27,1447.48 1509.06,1465.08 1521.18,1478.54 1534.1,1488.06 1554.36,1497.08 1568.05,1499.99 1586.13,1500.42 1607.82,1495.81 1624.17,1488.06 1637.09,1478.54 1649.21,1465.08 1657.33,1451.24 1663.32,1434.17 1665.75,1414.17 1663.32,1394.17 1659,1380.87 1651.97,1367.83 1651.97,1255.5 1660.71,1249.01 1671.53,1237.16 1680.95,1221.71 1686.94,1204.64 1689.37,1184.65 1686.94,1164.65 1680.95,1147.58 1673.95,1135.46 1660.71,1120.28 1644.23,1108.7 1629.52,1102.27 1609.75,1098.4 1591.67,1098.83 1575.99,1102.27 1561.28,1108.7 1544.8,1120.28 1532.68,1133.73 1524.56,1147.58 1517.71,1168.67 1516.14,1184.65 1517.71,1200.62 1522.89,1217.95 1532.68,1235.56 1544.8,1249.01 1553.54,1255.5 1553.54,1331.48 1534.1,1340.28 1521.18,1349.8 1509.06,1363.26 1499.27,1380.87 1494.09,1398.2 1492.52,1414.17" style="stroke:rgb(0,0,0);stroke-width:1px;fill:none;stroke-opacity:1;stroke-linecap:round;stroke-linejoin:round;;fill:none"/>
<polyline points="1452.6,898.757 1453.17,823.875 1457.4,813.503 1471.78,793.473 1478.36,777.593 1481.71,760.737 1481.71,743.555 1478.36,726.697 1468.28,704.899 1465.38,695.691 1465.12,690.843 1467.01,681.351 1472.55,672.335 1481.69,665.309 1492.85,662.219 1659.59,662.125 1669.08,663.815 1679.06,669.565 1901.37,891.607 1905.58,896.923 1908.38,903.115 1909.88,910.647 1909.5,918.389 1903.91,930.641 1812.17,1022.44 1805.86,1030.12 1801.23,1038.78 1798.38,1048.18 1797.41,1058.07 1797.47,1392.3 1796.05,1399.88 1788.97,1411.33 1708.83,1491.46 1699.2,1497.9 1689.52,1500.08 1679.7,1499.96 1666.47,1495.67 1660.49,1490.76 1656.54,1485.23 1652.84,1474.31 1653.6,1462.8 1663.04,1439.53 1666.38,1422.76 1666.38,1405.58 1663.04,1388.79 1654.91,1369.57 1652.6,1358.08 1652.88,1266.6 1657.54,1254.08 1670.46,1240.35 1680.07,1225.97 1686.65,1210.09 1690,1193.24 1690,1176.05 1686.65,1159.2 1680.07,1143.32 1670.52,1129.03 1658.3,1116.81 1645.29,1107.92 1640.14,1102.77 1636.19,1096.34 1633.76,1085.33 1635.61,1074.2 1641.43,1064.63 1661.37,1049.08 1672.86,1036.34 1680.01,1024.33 1672.83,1035.56 1660.71,1049.01 1644.23,1060.59 1629.52,1067.02 1613.84,1070.46 1595.76,1070.89 1575.99,1067.02 1561.28,1060.59 1544.8,1049.01 1531.56,1033.83 1522.89,1017.95 1518.57,1004.64 1516.14,984.645 1518.57,964.647 1524.56,947.579 1531.56,935.463 1544.8,920.277 1563.07,907.535 1557.77,910.059 1544.09,920.267 1532.54,933.077 1522.21,947.179 1511.76,952.827 1499.94,953.927 1490.43,951.227 1481.67,944.915 1470.53,929.003 1457.9,915.725 1454.31,908.721 1452.6,898.757" style="stroke:rgb(242,251,227);stroke-width:39.370079;fill:none;stroke-opacity:0.5;stroke-linecap:round;stroke-linejoin:round;;fill:none"/>
<polyline points="1452.6,898.757 1453.17,823.875 1457.4,813.503 1471.78,793.473 1478.36,777.593 1481.71,760.737 1481.71,743.555 1478.36,726.697 1468.28,704.899 1465.38,695.691 1465.12,690.843 1467.01,681.351 1472.55,672.335 1481.69,665.309 1492.85,662.219 1659.59,662.125 1669.08,663.815 1679.06,669.565 1901.37,891.607 1905.58,896.923 1908.38,903.115 1909.88,910.647 1909.5,918.389 1903.91,930.641 1812.17,1022.44 1805.86,1030.12 1801.23,1038.78 1798.38,1048.18 1797.41,1058.07 1797.47,1392.3 1796.05,1399.88 1788.97,1411.33 1708.83,1491.46 1699.2,1497.9 1689.52,1500.08 1679.7,1499.96 1666.47,1495.67 1660.49,1490.76 1656.54,1485.23 1652.84,1474.31 1653.6,1462.8 1663.04,1439.53 1666.38,1422.76 1666.38,1405.58 1663.04,1388.79 1654.91,1369.57 1652.6,1358.08 1652.88,1266.6 1657.54,1254.08 1670.46,1240.35 1680.07,1225.97 1686.65,1210.09 1690,1193.24 1690,1176.05 1686.65,1159.2 1680.07,1143.32 1670.52,1129.03 1658.3,1116.81 1645.29,1107.92 1640.14,1102.77 1636.19,1096.34 1633.76,1085.33 1635.61,1074.2 1641.43,1064.63 1661.37,1049.08 1672.86,1036.34 1680.01,1024.33 1672.83,1035.56 1660.71,1049.01 1644.23,1060.59 1629.52,1067.02 1613.84,1070.46 1595.76,1070.89 1575.99,1067.02 1561.28,1060.59 1544.8,1049.01 1531.56,1033.83 1522.89,1017.95 1518.57,1004.64 1516.14,984.645 1518.57,964.647 1524.56,947.579 1531.56,935.463 1544.8,920.277 1563.07,907.535 1557.77,910.059 1544.09,920.267 1532.54,933.077 1522.21,947.179 1511.76,952.827 1499.94,953.927 1490.43,951.227 1481.67,944.915 1470.53,929.003 1457.9,915.725 1454.31,908.721 1452.6,898.757" style="stroke:rgb(0,0,0);stroke-width:1px;fill:none;stroke-opacity:1;stroke-linecap:round;stroke-linejoin:round;;fill:none"/>
<polyline points="2124.77,671.205 2127.2,691.203 2133.2,708.271 2141.32,722.115 2153.43,735.571 2169.92,747.151 2184.62,753.579 2204.39,757.453 2220.57,757.331 2226.66,756.077 2253.54,782.957 2253.54,1216.93 2254.62,1227.16 2257.48,1235.97 2257.86,1287.7 2263.25,1297.78 2272.69,1302.97 2328.34,1303.54 2335.97,1302 2344.71,1294.79 2347.65,1287.7 2348.03,1235.97 2350.89,1227.16 2351.97,1216.93 2351.97,762.571 2348.87,745.559 2344.67,736.887 2338.85,729.205 2296.48,686.701 2298,671.205 2295.58,651.207 2289.58,634.139 2281.46,620.295 2269.34,606.839 2256.42,597.317 2238.15,588.831 2218.38,584.957 2200.3,585.387 2184.62,588.831 2166.35,597.317 2151.97,608.295 2141.32,620.295 2133.2,634.139 2127.2,651.207 2124.77,671.205" style="stroke:rgb(70,124,194);stroke-width:39.370079;fill:none;stroke-opacity:0.5;stroke-linecap:round;stroke-linejoin:round;;fill:none"/>
<polyline points="2124.77,671.205 2127.2,691.203 2133.2,708.271 2141.32,722.115 2153.43,735.571 2169.92,747.151 2184.62,753.579 2204.39,757.453 2220.57,757.331 2226.66,756.077 2253.54,782.957 2253.54,1216.93 2254.62,1227.16 2257.48,1235.97 2257.86,1287.7 2263.25,1297.78 2272.69,1302.97 2328.34,1303.54 2335.97,1302 2344.71,1294.79 2347.65,1287.7 2348.03,1235.97 2350.89,1227.16 2351.97,1216.93 2351.97,762.571 2348.87,745.559 2344.67,736.887 2338.85,729.205 2296.48,686.701 2298,671.205 2295.58,651.207 2289.58,634.139 2281.46,620.295 2269.34,606.839 2256.42,597.317 2238.15,588.831 2218.38,584.957 2200.3,585.387 2184.62,588.831 2166.35,597.317 2151.97,608.295 2141.32,620.295 2133.2,634.139 2127.2,651.207 2124.77,671.205" style="stroke:rgb(0,0,0);stroke-width:1px;fill:none;stroke-opacity:1;stroke-linecap:round;stroke-linejoin:round;;fill:none"/>
<polyline points="2153.54,1791.73 2153.64,1673.27 2156.64,1658.18 2162.99,1646.3 2519.92,1288.43 2534.14,1278.59 2543.25,1275.43 2554.72,1274.02 3110.09,1274.02 3118.5,1272.05 3323.23,1272.05 3334.16,1275.36 3341.41,1284.2 3342.91,1291.73 3342.53,1358.56 3337.15,1368.64 3327.07,1374.03 3118.5,1374.41 3110.09,1372.44 2575.11,1372.44 2251.97,1695.58 2251.86,1793.79 2250.89,1801.96 2248.03,1810.77 2247.65,1862.5 2242.26,1872.58 2235.88,1876.85 2228.35,1878.35 2177.16,1878.35 2169.63,1876.85 2163.25,1872.58 2157.86,1862.5 2157.48,1810.77 2154.62,1801.96 2153.54,1791.73" style="stroke:rgb(84,248,27);stroke-width:39.370079;fill:none;stroke-opacity:0.5;stroke-linecap:round;stroke-linejoin:round;;fill:none"/>
<polyline points="2153.54,1791.73 2153.64,1673.27 2156.64,1658.18 2162.99,1646.3 2519.92,1288.43 2534.14,1278.59 2543.25,1275.43 2554.72,1274.02 3110.09,1274.02 3118.5,1272.05 3323.23,1272.05 3334.16,1275.36 3341.41,1284.2 3342.91,1291.73 3342.53,1358.56 3337.15,1368.64 3327.07,1374.03 3118.5,1374.41 3110.09,1372.44 2575.11,1372.44 2251.97,1695.58 2251.86,1793.79 2250.89,1801.96 2248.03,1810.77 2247.65,1862.5 2242.26,1872.58 2235.88,1876.85 2228.35,1878.35 2177.16,1878.35 2169.63,1876.85 2163.25,1872.58 2157.86,1862.5 2157.48,1810.77 2154.62,1801.96 2153.54,1791.73" style="stroke:rgb(0,0,0);stroke-width:1px;fill:none;stroke-opacity:1;stroke-linecap:round;stroke-linejoin:round;;fill:none"/>
<polyline points="699.658,1233.68 702.032,1212.68 708.028,1195.61 717.444,1180.17 728.264,1168.31 737.006,1161.82 737.67,1130.33 741.578,1117.45 746.452,1109.13 1046.53,809.049 1058.41,802.701 1075.43,799.605 1274.62,800.267 1287.51,804.177 1300.3,812.721 1353.54,865.835 1353.54,828.335 1336.51,816.513 1324.39,803.057 1314.6,785.451 1309.42,768.119 1307.85,752.147 1310.28,732.147 1316.28,715.081 1324.39,701.235 1336.51,687.779 1353,676.201 1367.7,669.771 1387.47,665.899 1405.56,666.329 1419.24,669.237 1435.94,676.201 1452.42,687.779 1464.54,701.235 1472.66,715.081 1478.65,732.147 1480.97,754.203 1478.65,772.145 1472.66,789.211 1464.54,803.057 1451.97,816.881 1451.97,913.791 1460.71,920.277 1471.53,932.133 1480.95,947.579 1486.94,964.647 1489.37,984.645 1486.94,1004.64 1480.95,1021.71 1472.83,1035.56 1462.17,1047.56 1447.79,1058.53 1427.53,1067.55 1409.75,1070.89 1395.76,1070.89 1374.07,1066.28 1361.28,1060.59 1346.4,1050.31 1332.68,1035.56 1322.89,1017.95 1317.71,1000.62 1316.14,984.645 1317.66,969.147 1246.54,898.031 1095.81,898.031 835.432,1158.41 835.432,1161.82 844.176,1168.31 856.292,1181.77 864.41,1195.61 870.408,1212.68 872.726,1230.62 871.264,1248.65 866.084,1265.98 856.292,1283.59 844.176,1297.04 827.69,1308.62 812.984,1315.05 797.308,1318.49 775.13,1318.49 757.53,1314.31 744.748,1308.62 729.864,1298.34 716.148,1283.59 706.356,1265.98 701.176,1248.65 699.658,1233.68" style="stroke:rgb(232,231,141);stroke-width:39.370079;fill:none;stroke-opacity:0.5;stroke-linecap:round;stroke-linejoin:round;;fill:none"/>
<polyline points="699.658,1233.68 702.032,1212.68 708.028,1195.61 717.444,1180.17 728.264,1168.31 737.006,1161.82 737.67,1130.33 741.578,1117.45 746.452,1109.13 1046.53,809.049 1058.41,802.701 1075.43,799.605 1274.62,800.267 1287.51,804.177 1300.3,812.721 1353.54,865.835 1353.54,828.335 1336.51,816.513 1324.39,803.057 1314.6,785.451 1309.42,768.119 1307.85,752.147 1310.28,732.147 1316.28,715.081 1324.39,701.235 1336.51,687.779 1353,676.201 1367.7,669.771 1387.47,665.899 1405.56,666.329 1419.24,669.237 1435.94,676.201 1452.42,687.779 1464.54,701.235 1472.66,715.081 1478.65,732.147 1480.97,754.203 1478.65,772.145 1472.66,789.211 1464.54,803.057 1451.97,816.881 1451.97,913.791 1460.71,920.277 1471.53,932.133 1480.95,947.579 1486.94,964.647 1489.37,984.645 1486.94,1004.64 1480.95,1021.71 1472.83,1035.56 1462.17,1047.56 1447.79,1058.53 1427.53,1067.55 1409.75,1070.89 1395.76,1070.89 1374.07,1066.28 1361.28,1060.59 1346.4,1050.31 1332.68,1035.56 1322.89,1017.95 1317.71,1000.62 1316.14,984.645 1317.66,969.147 1246.54,898.031 1095.81,898.031 835.432,1158.41 835.432,1161.82 844.176,1168.31 856.292,1181.77 864.41,1195.61 870.408,1212.68 872.726,1230.62 871.264,1248.65 866.084,1265.98 856.292,1283.59 844.176,1297.04 827.69,1308.62 812.984,1315.05 797.308,1318.49 775.13,1318.49 757.53,1314.31 744.748,1308.62 729.864,1298.34 716.148,1283.59 706.356,1265.98 701.176,1248.65 699.658,1233.68" style="stroke:rgb(0,0,0);stroke-width:1px;fill:none;stroke-opacity:1;stroke-linecap:round;stroke-linejoin:round;;fill:none"/>
<polyline points="454.724,1514.96 454.724,1463.78 457.07,1450.53 464.958,1437.37 470.67,1432.2 480.314,1426.98 480.976,1413.17 484.886,1400.29 489.758,1391.97 502.754,1378.04 502.754,1093.89 504.17,1082.41 510.054,1068.2 517.168,1059.09 1097.2,479.057 1106.31,471.945 1114.98,467.739 1132,464.643 1733.31,464.643 1750.32,467.739 1758.99,471.945 1768.1,479.057 2163.15,874.099 2170.26,883.213 2174.46,891.883 2177.56,908.897 2177.56,965.353 2176.14,976.827 2170.26,991.037 2163.15,1000.15 2051.97,1111.33 2051.97,1216.93 2050.89,1227.16 2048.03,1235.97 2048.03,1283.86 2046.53,1291.39 2039.28,1300.23 2032.19,1303.16 1977.16,1303.54 1969.63,1302.04 1960.8,1294.79 1957.48,1283.86 1957.48,1235.97 1954.62,1227.16 1953.54,1216.93 1953.54,1090.94 1954.96,1079.47 1960.84,1065.26 1967.96,1056.15 2079.13,944.967 2079.13,929.283 1712.92,563.069 1152.38,563.069 601.18,1114.27 601.18,1378.04 770.944,1547.8 779.224,1546.43 795.398,1546.55 801.496,1547.8 872.834,1476.47 872.834,1170.7 875.93,1153.69 882.278,1141.81 1073.3,949.845 1082.42,942.733 1091.09,938.527 1100.41,936.095 1131.58,935.431 1144.8,920.277 1157.72,910.757 1175.99,902.269 1191.67,898.827 1209.75,898.397 1229.52,902.269 1244.23,908.699 1260.71,920.277 1272.83,933.733 1280.95,947.579 1286.94,964.647 1289.37,984.645 1287.8,1000.62 1282.62,1017.95 1272.83,1035.56 1260.71,1049.01 1244.23,1060.59 1229.52,1067.02 1209.75,1070.89 1191.67,1070.46 1175.99,1067.02 1157.72,1058.53 1144.8,1049.01 1131.58,1033.86 1128.49,1033.86 971.26,1191.09 971.258,1476.47 1383.63,1888.84 1394.23,1883.05 1405.55,1880.8 1478.35,1880.71 1487.9,1881.93 1495.16,1884.53 1501.77,1888.49 1509.77,1896.46 1693.87,1897.02 1709.67,1893.42 1727.76,1892.99 1749.45,1897.6 1765.79,1905.35 1777.11,1913.58 1790.83,1928.33 1800.62,1945.94 1805.8,1963.27 1807.37,1979.24 1805.8,1995.21 1798.95,2016.31 1789.54,2031.75 1778.72,2043.61 1765.79,2053.13 1747.52,2061.62 1727.76,2065.49 1709.67,2065.06 1693.99,2061.62 1675.72,2053.13 1662.8,2043.61 1650.69,2030.15 1640.9,2012.55 1635.68,1994.88 1509.77,1994.88 1498.56,2004.99 1484.12,2010.16 1407.48,2010.63 1397.92,2009.4 1390.67,2006.81 1384.05,2002.84 1376.06,1994.88 1359.39,1993.47 1345.18,1987.58 1336.07,1980.47 922.046,1566.45 871.314,1617.18 872.834,1632.68 871.264,1648.65 866.084,1665.98 856.292,1683.59 845.632,1695.59 831.254,1706.56 812.984,1715.05 793.216,1718.92 775.13,1718.49 759.454,1715.05 744.748,1708.62 728.264,1697.04 717.444,1685.19 708.028,1669.74 702.032,1652.68 699.606,1632.68 701.126,1617.18 603.93,1519.98 601.984,1528.21 596.544,1538.38 588.384,1546.54 578.208,1551.98 564.96,1554.33 494.094,1554.33 480.846,1551.98 467.686,1544.1 458.546,1531.77 455.95,1524.52 454.724,1514.96" style="stroke:rgb(118,90,46);stroke-width:39.370079;fill:none;stroke-opacity:0.5;stroke-linecap:round;stroke-linejoin:round;;fill:none"/>
<polyline points="454.724,1514.96 454.724,1463.78 457.07,1450.53 464.958,1437.37 470.67,1432.2 480.314,1426.98 480.976,1413.17 484.886,1400.29 489.758,1391.97 502.754,1378.04 502.754,1093.89 504.17,1082.41 510.054,1068.2 517.168,1059.09 1097.2,479.057 1106.31,471.945 1114.98,467.739 1132,464.643 1733.31,464.643 1750.32,467.739 1758.99,471.945 1768.1,479.057 2163.15,874.099 2170.26,883.213 2174.46,891.883 2177.56,908.897 2177.56,965.353 2176.14,976.827 2170.26,991.037 2163.15,1000.15 2051.97,1111.33 2051.97,1216.93 2050.89,1227.16 2048.03,1235.97 2048.03,1283.86 2046.53,1291.39 2039.28,1300.23 2032.19,1303.16 1977.16,1303.54 1969.63,1302.04 1960.8,1294.79 1957.48,1283.86 1957.48,1235.97 1954.62,1227.16 1953.54,1216.93 1953.54,1090.94 1954.96,1079.47 1960.84,1065.26 1967.96,1056.15 2079.13,944.967 2079.13,929.283 1712.92,563.069 1152.38,563.069 601.18,1114.27 601.18,1378.04 770.944,1547.8 779.224,1546.43 795.398,1546.55 801.496,1547.8 872.834,1476.47 872.834,1170.7 875.93,1153.69 882.278,1141.81 1073.3,949.845 1082.42,942.733 1091.09,938.527 1100.41,936.095 1131.58,935.431 1144.8,920.277 1157.72,910.757 1175.99,902.269 1191.67,898.827 1209.75,898.397 1229.52,902.269 1244.23,908.699 1260.71,920.277 1272.83,933.733 1280.95,947.579 1286.94,964.647 1289.37,984.645 1287.8,1000.62 1282.62,1017.95 1272.83,1035.56 1260.71,1049.01 1244.23,1060.59 1229.52,1067.02 1209.75,1070.89 1191.67,1070.46 1175.99,1067.02 1157.72,1058.53 1144.8,1049.01 1131.58,1033.86 1128.49,1033.86 971.26,1191.09 971.258,1476.47 1383.63,1888.84 1394.23,1883.05 1405.55,1880.8 1478.35,1880.71 1487.9,1881.93 1495.16,1884.53 1501.77,1888.49 1509.77,1896.46 1693.87,1897.02 1709.67,1893.42 1727.76,1892.99 1749.45,1897.6 1765.79,1905.35 1777.11,1913.58 1790.83,1928.33 1800.62,1945.94 1805.8,1963.27 1807.37,1979.24 1805.8,1995.21 1798.95,2016.31 1789.54,2031.75 1778.72,2043.61 1765.79,2053.13 1747.52,2061.62 1727.76,2065.49 1709.67,2065.06 1693.99,2061.62 1675.72,2053.13 1662.8,2043.61 1650.69,2030.15 1640.9,2012.55 1635.68,1994.88 1509.77,1994.88 1498.56,2004.99 1484.12,2010.16 1407.48,2010.63 1397.92,2009.4 1390.67,2006.81 1384.05,2002.84 1376.06,1994.88 1359.39,1993.47 1345.18,1987.58 1336.07,1980.47 922.046,1566.45 871.314,1617.18 872.834,1632.68 871.264,1648.65 866.084,1665.98 856.292,1683.59 845.632,1695.59 831.254,1706.56 812.984,1715.05 793.216,1718.92 775.13,1718.49 759.454,1715.05 744.748,1708.62 728.264,1697.04 717.444,1685.19 708.028,1669.74 702.032,1652.68 699.606,1632.68 701.126,1617.18 603.93,1519.98 601.984,1528.21 596.544,1538.38 588.384,1546.54 578.208,1551.98 564.96,1554.33 494.094,1554.33 480.846,1551.98 467.686,1544.1 458.546,1531.77 455.95,1524.52 454.724,1514.96" style="stroke:rgb(0,0,0);stroke-width:1px;fill:none;stroke-opacity:1;stroke-linecap:round;stroke-linejoin:round;;fill:none"/>
<polyline points="601.18,1296.85 601.274,1132.73 604.276,1117.64 610.624,1105.76 1137.97,577.483 1152.19,567.641 1161.29,564.485 1170.84,563.165 1692.54,563.069 1709.55,566.165 1718.22,570.371 1727.33,577.483 2023.44,873.719 2029.25,881.403 2033.46,890.073 2036.46,905.157 2035.89,925.801 2033.46,935.123 2029.25,943.795 2022.14,952.909 1896.72,1078.33 1896.72,1374.06 2002.01,1374.06 2053.54,1322.53 2053.54,1216.93 2054.62,1206.7 2057.48,1197.89 2057.48,1150 2060.8,1139.06 2066.23,1133.63 2073.32,1130.69 2132.19,1130.69 2139.28,1133.63 2144.71,1139.06 2148.03,1150 2148.03,1197.89 2150.89,1206.7 2151.97,1216.93 2151.97,1342.91 2148.87,1359.93 2144.67,1368.6 2137.55,1377.71 2051.28,1463.05 2039.41,1469.39 2024.32,1472.39 1867.89,1472.49 1755.58,1584.8 1746.47,1591.91 1732.26,1597.8 1720.78,1599.21 1513.52,1599.21 1502.07,1597.8 1492.96,1594.64 1478.74,1584.8 1367.96,1474.01 1360.84,1464.9 1356.64,1456.23 1353.54,1439.21 1353.54,1255.5 1344.8,1249.01 1333.98,1237.16 1324.56,1221.71 1318.57,1204.64 1316.25,1186.7 1318.57,1164.65 1324.56,1147.58 1331.56,1135.46 1344.8,1120.28 1361.28,1108.7 1375.99,1102.27 1391.67,1098.83 1409.75,1098.4 1429.52,1102.27 1447.79,1110.76 1462.17,1121.74 1472.83,1133.73 1480.95,1147.58 1486.94,1164.65 1489.26,1182.59 1486.94,1204.64 1480.95,1221.71 1472.83,1235.56 1460.71,1249.01 1451.97,1255.5 1451.97,1418.83 1533.93,1500.79 1700.4,1500.79 1798.29,1402.89 1798.29,1057.95 1801.39,1040.93 1805.59,1032.26 1812.7,1023.15 1923.25,912.599 1672.15,661.495 1193.15,661.495 699.606,1155.04 699.606,1276.47 770.944,1347.8 779.224,1346.43 797.308,1346.86 812.984,1350.3 827.69,1356.73 844.176,1368.31 854.996,1380.17 866.084,1399.37 871.264,1416.7 872.778,1431.61 871.264,1448.65 864.41,1469.74 856.292,1483.59 845.632,1495.59 831.254,1506.56 814.908,1514.31 793.216,1518.92 775.13,1518.49 759.454,1515.05 744.748,1508.62 728.264,1497.04 716.148,1483.59 706.356,1465.98 701.176,1448.65 699.606,1432.68 701.126,1417.18 614.296,1330.22 608.48,1322.53 604.276,1313.86 601.18,1296.85" style="stroke:rgb(99,51,159);stroke-width:39.370079;fill:none;stroke-opacity:0.5;stroke-linecap:round;stroke-linejoin:round;;fill:none"/>
<polyline points="601.18,1296.85 601.274,1132.73 604.276,1117.64 610.624,1105.76 1137.97,577.483 1152.19,567.641 1161.29,564.485 1170.84,563.165 1692.54,563.069 1709.55,566.165 1718.22,570.371 1727.33,577.483 2023.44,873.719 2029.25,881.403 2033.46,890.073 2036.46,905.157 2035.89,925.801 2033.46,935.123 2029.25,943.795 2022.14,952.909 1896.72,1078.33 1896.72,1374.06 2002.01,1374.06 2053.54,1322.53 2053.54,1216.93 2054.62,1206.7 2057.48,1197.89 2057.48,1150 2060.8,1139.06 2066.23,1133.63 2073.32,1130.69 2132.19,1130.69 2139.28,1133.63 2144.71,1139.06 2148.03,1150 2148.03,1197.89 2150.89,1206.7 2151.97,1216.93 2151.97,1342.91 2148.87,1359.93 2144.67,1368.6 2137.55,1377.71 2051.28,1463.05 2039.41,1469.39 2024.32,1472.39 1867.89,1472.49 1755.58,1584.8 1746.47,1591.91 1732.26,1597.8 1720.78,1599.21 1513.52,1599.21 1502.07,1597.8 1492.96,1594.64 1478.74,1584.8 1367.96,1474.01 1360.84,1464.9 1356.64,1456.23 1353.54,1439.21 1353.54,1255.5 1344.8,1249.01 1333.98,1237.16 1324.56,1221.71 1318.57,1204.64 1316.25,1186.7 1318.57,1164.65 1324.56,1147.58 1331.56,1135.46 1344.8,1120.28 1361.28,1108.7 1375.99,1102.27 1391.67,1098.83 1409.75,1098.4 1429.52,1102.27 1447.79,1110.76 1462.17,1121.74 1472.83,1133.73 1480.95,1147.58 1486.94,1164.65 1489.26,1182.59 1486.94,1204.64 1480.95,1221.71 1472.83,1235.56 1460.71,1249.01 1451.97,1255.5 1451.97,1418.83 1533.93,1500.79 1700.4,1500.79 1798.29,1402.89 1798.29,1057.95 1801.39,1040.93 1805.59,1032.26 1812.7,1023.15 1923.25,912.599 1672.15,661.495 1193.15,661.495 699.606,1155.04 699.606,1276.47 770.944,1347.8 779.224,1346.43 797.308,1346.86 812.984,1350.3 827.69,1356.73 844.176,1368.31 854.996,1380.17 866.084,1399.37 871.264,1416.7 872.778,1431.61 871.264,1448.65 864.41,1469.74 856.292,1483.59 845.632,1495.59 831.254,1506.56 814.908,1514.31 793.216,1518.92 775.13,1518.49 759.454,1515.05 744.748,1508.62 728.264,1497.04 716.148,1483.59 706.356,1465.98 701.176,1448.65 699.606,1432.68 701.126,1417.18 614.296,1330.22 608.48,1322.53 604.276,1313.86 601.18,1296.85" style="stroke:rgb(0,0,0);stroke-width:1px;fill:none;stroke-opacity:1;stroke-linecap:round;stroke-linejoin:round;;fill:none"/>
<polyline points="1368.11,1809.84 1368.11,1758.66 1370.46,1745.41 1375.9,1735.24 1384.05,1727.08 1390.67,1723.11 1401.71,1719.76 1484.12,1719.76 1498.56,1724.93 1509.77,1735.04 1617.02,1735.04 1630.23,1719.88 1646.72,1708.31 1661.42,1701.88 1677.1,1698.43 1695.18,1698 1714.95,1701.88 1733.22,1710.36 1747.6,1721.34 1758.26,1733.34 1763.68,1742.52 1957.48,1742.52 1957.48,1724.8 1958.98,1717.27 1966.23,1708.44 1977.16,1705.12 2032.19,1705.5 2042.26,1710.88 2047.65,1720.96 2048.03,1772.83 2051.81,1788.65 2051.38,1798.91 2048.03,1810.64 2047.65,1862.5 2042.26,1872.58 2032.19,1877.97 1977.16,1878.35 1969.63,1876.85 1963.24,1872.58 1958.98,1866.19 1957.48,1858.66 1957.48,1840.94 1753.2,1840.94 1746.14,1848.62 1729.66,1860.2 1714.95,1866.63 1695.18,1870.5 1677.1,1870.07 1661.42,1866.63 1646.72,1860.2 1630.23,1848.62 1617.01,1833.46 1509.77,1833.46 1498.56,1843.57 1484.12,1848.74 1401.71,1848.74 1390.67,1845.39 1378.34,1836.25 1370.46,1823.09 1368.11,1809.84" style="stroke:rgb(201,154,102);stroke-width:39.370079;fill:none;stroke-opacity:0.5;stroke-linecap:round;stroke-linejoin:round;;fill:none"/>
<polyline points="1368.11,1809.84 1368.11,1758.66 1370.46,1745.41 1375.9,1735.24 1384.05,1727.08 1390.67,1723.11 1401.71,1719.76 1484.12,1719.76 1498.56,1724.93 1509.77,1735.04 1617.02,1735.04 1630.23,1719.88 1646.72,1708.31 1661.42,1701.88 1677.1,1698.43 1695.18,1698 1714.95,1701.88 1733.22,1710.36 1747.6,1721.34 1758.26,1733.34 1763.68,1742.52 1957.48,1742.52 1957.48,1724.8 1958.98,1717.27 1966.23,1708.44 1977.16,1705.12 2032.19,1705.5 2042.26,1710.88 2047.65,1720.96 2048.03,1772.83 2051.81,1788.65 2051.38,1798.91 2048.03,1810.64 2047.65,1862.5 2042.26,1872.58 2032.19,1877.97 1977.16,1878.35 1969.63,1876.85 1963.24,1872.58 1958.98,1866.19 1957.48,1858.66 1957.48,1840.94 1753.2,1840.94 1746.14,1848.62 1729.66,1860.2 1714.95,1866.63 1695.18,1870.5 1677.1,1870.07 1661.42,1866.63 1646.72,1860.2 1630.23,1848.62 1617.01,1833.46 1509.77,1833.46 1498.56,1843.57 1484.12,1848.74 1401.71,1848.74 1390.67,1845.39 1378.34,1836.25 1370.46,1823.09 1368.11,1809.84" style="stroke:rgb(0,0,0);stroke-width:1px;fill:none;stroke-opacity:1;stroke-linecap:round;stroke-linejoin:round;;fill:none"/>
<polyline points="269.29,1772.68 269.29,992.677 270.706,981.201 273.862,972.097 283.704,957.877 963.704,277.877 972.818,270.765 987.028,264.879 998.504,263.463 2604.01,263.463 2615.49,264.879 2629.7,270.765 2638.81,277.877 3239.28,878.345 3327.07,878.723 3337.15,884.111 3342.53,894.189 3342.53,964.863 3339.59,971.959 3330.76,979.209 3323.23,980.707 3118.5,980.707 3107.57,977.389 3100.32,968.555 3098.82,961.023 3098.82,898.031 3100.32,890.497 3105.28,883.539 2583.63,361.889 1018.89,361.889 367.716,1013.06 367.716,1752.29 698.888,2083.46 1857.96,2083.46 2053.54,1887.88 2053.54,1791.73 2054.62,1781.5 2057.48,1772.69 2057.86,1720.96 2063.25,1710.88 2073.32,1705.5 2132.19,1705.5 2139.28,1708.44 2146.53,1717.27 2148.03,1724.8 2148.03,1772.69 2150.89,1781.5 2151.97,1791.73 2151.97,1908.27 2150.55,1919.74 2147.4,1928.85 2137.55,1943.07 1913.14,2167.48 1898.92,2177.32 1886.04,2181.23 676.574,2181.79 667.028,2180.47 657.924,2177.32 643.704,2167.48 283.704,1807.48 273.862,1793.26 270.706,1784.15 269.29,1772.68" style="stroke:rgb(50,13,183);stroke-width:39.370079;fill:none;stroke-opacity:0.5;stroke-linecap:round;stroke-linejoin:round;;fill:none"/>
<polyline points="269.29,1772.68 269.29,992.677 270.706,981.201 273.862,972.097 283.704,957.877 963.704,277.877 972.818,270.765 987.028,264.879 998.504,263.463 2604.01,263.463 2615.49,264.879 2629.7,270.765 2638.81,277.877 3239.28,878.345 3327.07,878.723 3337.15,884.111 3342.53,894.189 3342.53,964.863 3339.59,971.959 3330.76,979.209 3323.23,980.707 3118.5,980.707 3107.57,977.389 3100.32,968.555 3098.82,961.023 3098.82,898.031 3100.32,890.497 3105.28,883.539 2583.63,361.889 1018.89,361.889 367.716,1013.06 367.716,1752.29 698.888,2083.46 1857.96,2083.46 2053.54,1887.88 2053.54,1791.73 2054.62,1781.5 2057.48,1772.69 2057.86,1720.96 2063.25,1710.88 2073.32,1705.5 2132.19,1705.5 2139.28,1708.44 2146.53,1717.27 2148.03,1724.8 2148.03,1772.69 2150.89,1781.5 2151.97,1791.73 2151.97,1908.27 2150.55,1919.74 2147.4,1928.85 2137.55,1943.07 1913.14,2167.48 1898.92,2177.32 1886.04,2181.23 676.574,2181.79 667.028,2180.47 657.924,2177.32 643.704,2167.48 283.704,1807.48 273.862,1793.26 270.706,1784.15 269.29,1772.68" style="stroke:rgb(0,0,0);stroke-width:1px;fill:none;stroke-opacity:1;stroke-linecap:round;stroke-linejoin:round;;fill:none"/>
<polyline points="2081.5,2106.69 2083.07,2122.67 2088.24,2140 2098.04,2157.6 2108.7,2169.6 2123.07,2180.58 2139.42,2188.33 2161.11,2192.94 2175.11,2192.94 2192.88,2189.6 2209.58,2182.64 2226.07,2171.06 2239.28,2155.91 2634.25,2155.91 2645.73,2154.49 2654.83,2151.33 2669.05,2141.49 3239.28,1571.26 3323.23,1571.26 3330.76,1569.76 3337.15,1565.49 3341.41,1559.11 3342.91,1551.57 3342.91,1488.58 3341.41,1481.05 3334.16,1472.21 3323.23,1468.9 3118.5,1468.9 3107.57,1472.21 3100.32,1481.05 3098.82,1488.58 3098.82,1551.57 3100.32,1559.11 3105.28,1566.07 2613.87,2057.48 2239.28,2057.48 2226.07,2042.33 2209.58,2030.75 2192.88,2023.78 2175.11,2020.45 2161.11,2020.45 2139.42,2025.06 2123.07,2032.8 2108.7,2043.78 2098.04,2055.78 2088.24,2073.39 2083.07,2090.72 2081.5,2106.69" style="stroke:rgb(49,88,163);stroke-width:39.370079;fill:none;stroke-opacity:0.5;stroke-linecap:round;stroke-linejoin:round;;fill:none"/>
<polyline points="2081.5,2106.69 2083.07,2122.67 2088.24,2140 2098.04,2157.6 2108.7,2169.6 2123.07,2180.58 2139.42,2188.33 2161.11,2192.94 2175.11,2192.94 2192.88,2189.6 2209.58,2182.64 2226.07,2171.06 2239.28,2155.91 2634.25,2155.91 2645.73,2154.49 2654.83,2151.33 2669.05,2141.49 3239.28,1571.26 3323.23,1571.26 3330.76,1569.76 3337.15,1565.49 3341.41,1559.11 3342.91,1551.57 3342.91,1488.58 3341.41,1481.05 3334.16,1472.21 3323.23,1468.9 3118.5,1468.9 3107.57,1472.21 3100.32,1481.05 3098.82,1488.58 3098.82,1551.57 3100.32,1559.11 3105.28,1566.07 2613.87,2057.48 2239.28,2057.48 2226.07,2042.33 2209.58,2030.75 2192.88,2023.78 2175.11,2020.45 2161.11,2020.45 2139.42,2025.06 2123.07,2032.8 2108.7,2043.78 2098.04,2055.78 2088.24,2073.39 2083.07,2090.72 2081.5,2106.69" style="stroke:rgb(0,0,0);stroke-width:1px;fill:none;stroke-opacity:1;stroke-linecap:round;stroke-linejoin:round;;fill:none"/>
<polyline points="1116.14,1251.57 1116.14,1117.72 1117.64,1110.18 1121.91,1103.8 1128.29,1099.53 1135.83,1098.03 1269.68,1098.03 1277.22,1099.53 1286.05,1106.78 1289.37,1117.72 1289.37,1251.57 1286.05,1262.51 1277.22,1269.76 1269.68,1271.26 1251.97,1271.26 1251.97,1358.02 1493.16,1599.21 1916.05,1599.21 2153.54,1361.72 2153.54,1216.93 2154.62,1206.7 2157.48,1197.89 2157.48,1150 2160.8,1139.06 2169.63,1131.81 2177.16,1130.31 2232.19,1130.69 2239.28,1133.63 2246.53,1142.47 2248.03,1150 2248.03,1197.89 2250.89,1206.7 2251.97,1216.93 2251.97,1303.54 2365.62,1303.54 2577.58,1091.58 2586.69,1084.47 2600.9,1078.58 2612.38,1077.17 3110.09,1077.17 3118.5,1075.2 3323.23,1075.2 3330.76,1076.7 3337.15,1080.96 3341.41,1087.35 3342.91,1094.88 3342.53,1161.71 3337.15,1171.79 3327.07,1177.18 3118.5,1177.56 3110.09,1175.59 2632.76,1175.59 2420.8,1387.55 2411.68,1394.67 2397.48,1400.55 2386,1401.97 2247.69,1401.97 2237.55,1416.91 1971.24,1683.22 1957.02,1693.07 1947.91,1696.22 1938.37,1697.54 1472.77,1697.64 1461.3,1696.22 1447.09,1690.34 1437.97,1683.22 1162.99,1407.3 1156.64,1395.42 1153.64,1380.34 1153.54,1271.26 1135.83,1271.26 1128.29,1269.76 1119.46,1262.51 1116.14,1251.57" style="stroke:rgb(90,37,93);stroke-width:39.370079;fill:none;stroke-opacity:0.5;stroke-linecap:round;stroke-linejoin:round;;fill:none"/>
<polyline points="1116.14,1251.57 1116.14,1117.72 1117.64,1110.18 1121.91,1103.8 1128.29,1099.53 1135.83,1098.03 1269.68,1098.03 1277.22,1099.53 1286.05,1106.78 1289.37,1117.72 1289.37,1251.57 1286.05,1262.51 1277.22,1269.76 1269.68,1271.26 1251.97,1271.26 1251.97,1358.02 1493.16,1599.21 1916.05,1599.21 2153.54,1361.72 2153.54,1216.93 2154.62,1206.7 2157.48,1197.89 2157.48,1150 2160.8,1139.06 2169.63,1131.81 2177.16,1130.31 2232.19,1130.69 2239.28,1133.63 2246.53,1142.47 2248.03,1150 2248.03,1197.89 2250.89,1206.7 2251.97,1216.93 2251.97,1303.54 2365.62,1303.54 2577.58,1091.58 2586.69,1084.47 2600.9,1078.58 2612.38,1077.17 3110.09,1077.17 3118.5,1075.2 3323.23,1075.2 3330.76,1076.7 3337.15,1080.96 3341.41,1087.35 3342.91,1094.88 3342.53,1161.71 3337.15,1171.79 3327.07,1177.18 3118.5,1177.56 3110.09,1175.59 2632.76,1175.59 2420.8,1387.55 2411.68,1394.67 2397.48,1400.55 2386,1401.97 2247.69,1401.97 2237.55,1416.91 1971.24,1683.22 1957.02,1693.07 1947.91,1696.22 1938.37,1697.54 1472.77,1697.64 1461.3,1696.22 1447.09,1690.34 1437.97,1683.22 1162.99,1407.3 1156.64,1395.42 1153.64,1380.34 1153.54,1271.26 1135.83,1271.26 1128.29,1269.76 1119.46,1262.51 1116.14,1251.57" style="stroke:rgb(0,0,0);stroke-width:1px;fill:none;stroke-opacity:1;stroke-linecap:round;stroke-linejoin:round;;fill:none"/>
</svg>
