M48
METRIC,TZ
T1C0.700
T2C0.800
T3C0.900
T4C1.000
%
G90
G05
T1
X174.18Y-116.98
X181.8Y-116.98
T2
X186.436Y-108.458
X186.436Y-113.458
X186.436Y-115.824
X186.436Y-120.824
X199.644Y-111.506
X199.644Y-114.046
X199.644Y-116.586
T3
X171.71Y-111.92
X174.25Y-111.92
T4
X177.31Y-105.435
X178.981Y-103.88
X180.719Y-110.431
X181.102Y-98.044
X181.102Y-100.584
X181.879Y-106.989
X183.642Y-98.044
X183.642Y-100.584
X186.182Y-98.044
X186.182Y-100.584
X188.722Y-98.044
X188.722Y-100.584
X194.056Y-96.774
X194.056Y-100.584
X194.056Y-104.394
X196.342Y-119.888
X196.596Y-96.774
X196.596Y-100.584
X196.596Y-104.394
X198.882Y-119.888
X199.136Y-96.774
X199.136Y-100.584
X199.136Y-104.394
X204.978Y-106.172
X204.978Y-108.712
X204.978Y-111.252
X204.978Y-113.792
X204.978Y-116.332
T0
M30
