<?xml version="1.0" standalone="no"?>
<!DOCTYPE svg PUBLIC "-//W3C//DTD SVG 1.1//EN"
"http://www.w3.org/Graphics/SVG/1.1/DTD/svg11.dtd">
<svg width="4302.8" height="3802.8" viewBox="0 0 4302.8 3802.8" version="1.1"
xmlns="http://www.w3.org/2000/svg"
xmlns:xlink="http://www.w3.org/1999/xlink">
<circle cx="1536" cy="2831" r="27" style=""/>
<circle cx="936" cy="2831" r="27" style=""/>
<circle cx="2560" cy="2580" r="31" style=""/>
<circle cx="2560" cy="2380" r="31" style=""/>
<circle cx="2560" cy="2180" r="31" style=""/>
<circle cx="1901" cy="2160" r="31" style=""/>
<circle cx="1901" cy="2554" r="31" style=""/>
<circle cx="1901" cy="2740" r="31" style=""/>
<circle cx="1901" cy="3134" r="31" style=""/>
<circle cx="941" cy="2433" r="34" style=""/>
<circle cx="741" cy="2433" r="34" style=""/>
<circle cx="3180" cy="3060" r="38" style=""/>
<circle cx="3180" cy="2860" r="38" style=""/>
<circle cx="3180" cy="2660" r="38" style=""/>
<circle cx="3180" cy="2460" r="38" style=""/>
<circle cx="3180" cy="2260" r="38" style=""/>
<circle cx="2980" cy="1841" r="38" style=""/>
<circle cx="2780" cy="1841" r="38" style=""/>
<circle cx="2580" cy="1841" r="38" style=""/>
<circle cx="2580" cy="1541" r="38" style=""/>
<circle cx="2780" cy="1541" r="38" style=""/>
<circle cx="2980" cy="1541" r="38" style=""/>
<circle cx="2980" cy="1241" r="38" style=""/>
<circle cx="2780" cy="1241" r="38" style=""/>
<circle cx="2580" cy="1241" r="38" style=""/>
<circle cx="1881" cy="1341" r="38" style=""/>
<circle cx="1881" cy="1541" r="38" style=""/>
<circle cx="1681" cy="1541" r="38" style=""/>
<circle cx="1681" cy="1341" r="38" style=""/>
<circle cx="1481" cy="1341" r="38" style=""/>
<circle cx="1481" cy="1541" r="38" style=""/>
<circle cx="1281" cy="1541" r="38" style=""/>
<circle cx="1281" cy="1341" r="38" style=""/>
<circle cx="1322" cy="1795" r="38" style=""/>
<circle cx="1132" cy="1994" r="38" style=""/>
<circle cx="1472" cy="2337" r="38" style=""/>
<circle cx="1706" cy="1940" r="38" style=""/>
<circle cx="2487" cy="2821" r="38" style=""/>
<circle cx="2680" cy="3060" r="38" style=""/>
<circle cx="2880" cy="3060" r="38" style=""/>
<circle cx="2905" cy="2819" r="38" style=""/>
</svg>
