<?xml version="1.0" standalone="no"?>
<!DOCTYPE svg PUBLIC "-//W3C//DTD SVG 1.1//EN"
"http://www.w3.org/Graphics/SVG/1.1/DTD/svg11.dtd">
<svg width="4231" height="3731" viewBox="0 0 4231 3731" version="1.1"
xmlns="http://www.w3.org/2000/svg"
xmlns:xlink="http://www.w3.org/1999/xlink">
<g fill-rule="evenodd"><path d="M 4230,1826 L 4230,1828 L 3170,3727 L 3168,3729 L 3167,3730 L 3165,3731 L 1185,3731 L 1182,3730 L 1181,3729 L 1180,3728 L 0,1708 L 0,1707 L 0,1704 L 0,1702 L 1060,2 L 1062,0 L 1065,0 L 3185,0 L 3187,0 L 3188,1 L 3190,2 L 4230,1823 L 4230,1826M 1068,11 L 12,1705 L 1189,3719 L 3161,3719 L 4218,1825 L 3181,11 L 1068,11 z " style="fill-opacity:1.000000;fill:rgb(103,198,105);stroke:rgb(0,0,0);stroke-width:2"/></g>
</svg>
