<?xml version="1.0" standalone="no"?>
<!DOCTYPE svg PUBLIC "-//W3C//DTD SVG 1.1//EN"
"http://www.w3.org/Graphics/SVG/1.1/DTD/svg11.dtd">
<svg width="4015" height="3637" viewBox="0 0 4015 3637" version="1.1"
xmlns="http://www.w3.org/2000/svg"
xmlns:xlink="http://www.w3.org/1999/xlink">
<g fill-rule="evenodd"><path d="M 980,1818 L 980,1816 L 980,1405 L 980,1402 L 980,1400 L 981,1394 L 981,1393 L 982,1392 L 985,1388 L 987,1386 L 988,1384 L 999,1373 L 1001,1372 L 1003,1370 L 1007,1367 L 1008,1366 L 1009,1366 L 1016,1365 L 1018,1365 L 1022,1364 L 1025,1364 L 1030,1363 L 1035,1362 L 1037,1361 L 1040,1360 L 1044,1357 L 1048,1354 L 1050,1353 L 1055,1348 L 1058,1346 L 1060,1345 L 1063,1343 L 1065,1343 L 1068,1343 L 1069,1343 L 1073,1344 L 1074,1344 L 1075,1344 L 1078,1344 L 1087,1346 L 1089,1346 L 1090,1346 L 1097,1345 L 1100,1344 L 1113,1342 L 1117,1341 L 1122,1339 L 1130,1335 L 1133,1333 L 1144,1325 L 1147,1323 L 1150,1321 L 1156,1313 L 1159,1309 L 1164,1301 L 1166,1299 L 1166,1298 L 1167,1297 L 1168,1295 L 1169,1293 L 1171,1291 L 1174,1287 L 1176,1286 L 1178,1284 L 1180,1281 L 1182,1280 L 1182,1279 L 1188,1274 L 1189,1273 L 1190,1274 L 1193,1276 L 1196,1279 L 1198,1281 L 1203,1286 L 1204,1287 L 1204,1288 L 1207,1291 L 1207,1292 L 1209,1293 L 1211,1297 L 1213,1299 L 1214,1301 L 1215,1302 L 1217,1305 L 1225,1316 L 1227,1320 L 1228,1321 L 1238,1328 L 1241,1330 L 1246,1333 L 1247,1334 L 1249,1336 L 1252,1338 L 1253,1338 L 1255,1340 L 1256,1341 L 1259,1343 L 1261,1345 L 1265,1349 L 1267,1351 L 1267,1351 L 1272,1357 L 1272,1357 L 1273,1358 L 1272,1359 L 1267,1365 L 1265,1367 L 1264,1368 L 1260,1372 L 1260,1372 L 1259,1373 L 1255,1377 L 1253,1378 L 1249,1381 L 1249,1381 L 1247,1382 L 1246,1383 L 1245,1383 L 1234,1391 L 1231,1393 L 1229,1395 L 1222,1404 L 1220,1407 L 1212,1418 L 1210,1422 L 1210,1423 L 1206,1435 L 1205,1438 L 1203,1452 L 1203,1456 L 1202,1458 L 1204,1469 L 1204,1473 L 1207,1486 L 1209,1490 L 1210,1493 L 1215,1502 L 1217,1505 L 1225,1516 L 1227,1520 L 1228,1521 L 1236,1527 L 1238,1528 L 1238,1528 L 1240,1530 L 1241,1531 L 1244,1533 L 1246,1535 L 1247,1536 L 1248,1539 L 1249,1542 L 1249,1547 L 1249,1549 L 1249,1552 L 1249,1712 L 1249,1714 L 1249,1717 L 1248,1722 L 1248,1723 L 1247,1725 L 1244,1729 L 1242,1731 L 1241,1733 L 1074,1899 L 1072,1901 L 1071,1902 L 1067,1905 L 1065,1906 L 1061,1909 L 1059,1910 L 1055,1913 L 1052,1913 L 1046,1916 L 1044,1916 L 1038,1918 L 1037,1916 L 1037,1914 L 1036,1914 L 1033,1909 L 1032,1908 L 1031,1906 L 1029,1901 L 1028,1899 L 1027,1895 L 1026,1894 L 1025,1892 L 1025,1891 L 1025,1890 L 1020,1878 L 1018,1874 L 1013,1863 L 1012,1862 L 1009,1858 L 1000,1848 L 997,1845 L 988,1838 L 986,1836 L 986,1836 L 984,1834 L 982,1833 L 982,1833 L 981,1829 L 981,1826 L 980,1821 L 980,1818 z " style="fill-opacity:1.000000;fill:rgb(103,198,105);stroke:rgb(0,0,0);stroke-width:2"/></g>
<g fill-rule="evenodd"><path d="M 4014,1687 L 4014,1871 L 3029,3637 L 2531,3637 L 2530,3633 L 2529,3631 L 2529,3626 L 2529,3624 L 2529,3622 L 2529,3442 L 2528,3439 L 2527,3432 L 2523,3425 L 2516,3420 L 2508,3419 L 2505,3418 L 2492,3418 L 2486,3418 L 2484,3417 L 2479,3416 L 2477,3416 L 2472,3414 L 2469,3413 L 2464,3411 L 2462,3409 L 2455,3405 L 2454,3405 L 2455,3403 L 2457,3396 L 2457,3394 L 2459,3388 L 2460,3386 L 2463,3381 L 2464,3379 L 2466,3375 L 2468,3373 L 2470,3370 L 2472,3368 L 2473,3367 L 2515,3325 L 2517,3323 L 2518,3321 L 2520,3318 L 2522,3315 L 2524,3312 L 2525,3310 L 2526,3309 L 2527,3305 L 2527,3301 L 2528,3297 L 2528,3295 L 2529,3292 L 2529,3071 L 2529,3069 L 2529,3067 L 2529,3061 L 2530,3059 L 2530,3056 L 2532,3054 L 2533,3054 L 2534,3053 L 2538,3049 L 2540,3048 L 2542,3046 L 2544,3045 L 2547,3043 L 2549,3041 L 2556,3032 L 2558,3029 L 2566,3018 L 2568,3014 L 2568,3013 L 2572,3001 L 2573,2997 L 2575,2984 L 2575,2980 L 2576,2978 L 2574,2967 L 2574,2963 L 2571,2950 L 2569,2946 L 2568,2943 L 2563,2934 L 2561,2930 L 2553,2919 L 2551,2916 L 2549,2915 L 2542,2909 L 2540,2908 L 2540,2908 L 2538,2906 L 2537,2905 L 2534,2903 L 2532,2901 L 2531,2900 L 2530,2897 L 2529,2894 L 2529,2889 L 2529,2887 L 2529,2884 L 2529,2288 L 2529,2285 L 2529,2283 L 2529,2279 L 2530,2276 L 2531,2271 L 2531,2269 L 2533,2264 L 2534,2263 L 2535,2262 L 2540,2260 L 2542,2260 L 2547,2259 L 2549,2258 L 2554,2258 L 2556,2258 L 2559,2258 L 2851,2258 L 2854,2257 L 2857,2257 L 2862,2256 L 2867,2255 L 2869,2254 L 2871,2253 L 2876,2250 L 2880,2247 L 2882,2246 L 2885,2244 L 2889,2240 L 2893,2236 L 2895,2235 L 2900,2232 L 2902,2231 L 2907,2228 L 2909,2227 L 2910,2227 L 2912,2229 L 2915,2230 L 2917,2231 L 2921,2234 L 2923,2236 L 2924,2237 L 2925,2238 L 2927,2240 L 2938,2248 L 2941,2250 L 2946,2253 L 2948,2254 L 2950,2256 L 2952,2257 L 2954,2258 L 2955,2260 L 2956,2260 L 2959,2263 L 2961,2264 L 2966,2269 L 2967,2270 L 2967,2271 L 2972,2276 L 2973,2277 L 2974,2278 L 2973,2279 L 2968,2285 L 2966,2287 L 2964,2289 L 2961,2291 L 2960,2293 L 2959,2293 L 2955,2296 L 2954,2298 L 2950,2300 L 2948,2301 L 2948,2301 L 2946,2303 L 2945,2303 L 2934,2311 L 2931,2313 L 2926,2317 L 2921,2323 L 2919,2326 L 2912,2338 L 2910,2341 L 2908,2345 L 2905,2354 L 2904,2358 L 2902,2371 L 2901,2376 L 2901,2378 L 2903,2389 L 2903,2393 L 2906,2406 L 2907,2410 L 2908,2411 L 2914,2422 L 2916,2425 L 2924,2436 L 2926,2439 L 2927,2439 L 2938,2448 L 2941,2450 L 2953,2457 L 2954,2457 L 2956,2458 L 2970,2462 L 2973,2462 L 2987,2464 L 2989,2465 L 2990,2465 L 2997,2464 L 2999,2463 L 3013,2461 L 3017,2460 L 3024,2457 L 3029,2455 L 3032,2453 L 3044,2445 L 3047,2442 L 3052,2438 L 3056,2433 L 3059,2429 L 3066,2418 L 3068,2414 L 3070,2411 L 3072,2402 L 3073,2398 L 3076,2384 L 3076,2380 L 3076,2378 L 3075,2367 L 3074,2363 L 3071,2350 L 3070,2346 L 3070,2345 L 3063,2334 L 3061,2330 L 3053,2319 L 3052,2317 L 3051,2316 L 3040,2308 L 3037,2306 L 3031,2303 L 3029,2302 L 3028,2300 L 3025,2298 L 3024,2298 L 3022,2296 L 3022,2296 L 3018,2293 L 3016,2291 L 3012,2287 L 3011,2286 L 3010,2285 L 3006,2280 L 3004,2279 L 3004,2278 L 3004,2277 L 3010,2271 L 3012,2269 L 3014,2267 L 3017,2265 L 3018,2263 L 3018,2263 L 3022,2260 L 3024,2258 L 3028,2256 L 3029,2255 L 3030,2254 L 3031,2253 L 3032,2253 L 3044,2245 L 3047,2242 L 3052,2238 L 3056,2233 L 3059,2229 L 3066,2218 L 3068,2214 L 3070,2211 L 3072,2202 L 3073,2198 L 3076,2184 L 3076,2180 L 3076,2178 L 3075,2167 L 3074,2163 L 3071,2150 L 3070,2146 L 3070,2145 L 3063,2134 L 3061,2130 L 3053,2119 L 3052,2117 L 3051,2116 L 3040,2108 L 3037,2106 L 3025,2099 L 3024,2098 L 3021,2097 L 3008,2094 L 3004,2093 L 2991,2091 L 2989,2091 L 2988,2091 L 2981,2092 L 2978,2093 L 2965,2095 L 2961,2096 L 2954,2098 L 2949,2101 L 2945,2103 L 2934,2111 L 2931,2113 L 2926,2117 L 2921,2123 L 2920,2125 L 2919,2126 L 2919,2127 L 2917,2129 L 2914,2133 L 2912,2135 L 2910,2136 L 2908,2137 L 2905,2137 L 2901,2138 L 2894,2139 L 2892,2139 L 2887,2140 L 2882,2141 L 2879,2142 L 2877,2143 L 2873,2146 L 2868,2149 L 2866,2150 L 2864,2152 L 2847,2169 L 2845,2171 L 2843,2173 L 2838,2176 L 2837,2177 L 2836,2177 L 2831,2178 L 2828,2178 L 2825,2178 L 2518,2178 L 2515,2178 L 2512,2178 L 2507,2177 L 2506,2177 L 2505,2176 L 2500,2173 L 2498,2171 L 2497,2169 L 2457,2130 L 2456,2129 L 2454,2127 L 2451,2122 L 2449,2120 L 2448,2118 L 2448,2117 L 2448,2115 L 2448,2113 L 2448,2112 L 2448,2109 L 2449,2100 L 2449,2096 L 2448,2083 L 2448,2082 L 2447,2079 L 2443,2067 L 2441,2064 L 2436,2053 L 2435,2052 L 2432,2049 L 2424,2040 L 2421,2037 L 2417,2034 L 2415,2032 L 2413,2030 L 2412,2029 L 2411,2028 L 2410,2026 L 2410,2023 L 2409,2018 L 2409,2015 L 2409,2012 L 2409,2007 L 2409,2004 L 2409,2002 L 2410,1996 L 2410,1995 L 2411,1994 L 2414,1990 L 2416,1988 L 2417,1986 L 2550,1853 L 2552,1851 L 2554,1849 L 2558,1846 L 2560,1845 L 2563,1843 L 2565,1843 L 2568,1843 L 2569,1843 L 2573,1844 L 2573,1844 L 2575,1844 L 2578,1844 L 2587,1846 L 2589,1846 L 2590,1846 L 2597,1845 L 2600,1844 L 2613,1842 L 2617,1841 L 2622,1839 L 2629,1835 L 2633,1833 L 2644,1825 L 2647,1823 L 2650,1820 L 2650,1820 L 2654,1816 L 2656,1815 L 2657,1813 L 2659,1812 L 2660,1811 L 2661,1810 L 2665,1807 L 2667,1806 L 2672,1802 L 2672,1802 L 2674,1801 L 2679,1798 L 2681,1797 L 2684,1795 L 2685,1795 L 2690,1801 L 2691,1803 L 2695,1809 L 2696,1811 L 2698,1817 L 2699,1819 L 2701,1824 L 2701,1825 L 2701,1826 L 2703,1831 L 2703,1832 L 2707,1839 L 2714,1844 L 2722,1845 L 2725,1845 L 2853,1845 L 2856,1845 L 2863,1844 L 2870,1839 L 2874,1833 L 2876,1825 L 2876,1819 L 2877,1817 L 2877,1814 L 2878,1809 L 2879,1807 L 2881,1802 L 2882,1802 L 2884,1801 L 2889,1799 L 2892,1799 L 2895,1798 L 2896,1797 L 2898,1797 L 2899,1797 L 2901,1797 L 2903,1796 L 2908,1795 L 2910,1794 L 2912,1793 L 2917,1790 L 2921,1787 L 2923,1786 L 2925,1784 L 3194,1516 L 3195,1514 L 3197,1513 L 3200,1510 L 3202,1509 L 3206,1506 L 3208,1505 L 3212,1503 L 3215,1502 L 3220,1500 L 3223,1499 L 3230,1497 L 3231,1497 L 3232,1498 L 3236,1504 L 3237,1507 L 3240,1512 L 3240,1514 L 3242,1519 L 3243,1522 L 3244,1526 L 3244,1528 L 3245,1533 L 3245,1535 L 3245,1537 L 3245,2453 L 3245,2456 L 3244,2459 L 3244,2464 L 3244,2465 L 3243,2466 L 3239,2471 L 3238,2473 L 3236,2475 L 3026,2685 L 3024,2686 L 3022,2688 L 3018,2691 L 3016,2693 L 3015,2694 L 3011,2693 L 3008,2693 L 3008,2693 L 3004,2693 L 3004,2693 L 3001,2693 L 2999,2692 L 2991,2691 L 2989,2691 L 2988,2691 L 2981,2692 L 2978,2692 L 2965,2695 L 2961,2696 L 2954,2698 L 2949,2701 L 2945,2703 L 2934,2711 L 2931,2713 L 2926,2717 L 2921,2723 L 2919,2726 L 2912,2738 L 2910,2741 L 2908,2745 L 2905,2754 L 2904,2758 L 2902,2771 L 2901,2775 L 2901,2778 L 2903,2789 L 2903,2793 L 2906,2806 L 2907,2810 L 2908,2811 L 2914,2822 L 2916,2825 L 2924,2836 L 2926,2839 L 2927,2839 L 2927,2840 L 2931,2843 L 2932,2845 L 2935,2848 L 2936,2849 L 2937,2850 L 2939,2853 L 2940,2854 L 2941,2856 L 2945,2861 L 2946,2863 L 2948,2866 L 2950,2870 L 2951,2873 L 2952,2874 L 2952,2874 L 2946,2879 L 2944,2880 L 2938,2884 L 2936,2885 L 2930,2887 L 2928,2888 L 2923,2890 L 2922,2890 L 2921,2890 L 2916,2892 L 2915,2892 L 2908,2896 L 2903,2903 L 2902,2911 L 2901,2914 L 2901,3042 L 2902,3045 L 2903,3052 L 2907,3059 L 2914,3063 L 2922,3065 L 2925,3065 L 3053,3065 L 3056,3065 L 3063,3064 L 3070,3059 L 3074,3053 L 3076,3045 L 3076,3042 L 3076,2951 L 3076,2948 L 3076,2945 L 3077,2940 L 3077,2940 L 3079,2937 L 3082,2933 L 3084,2931 L 3085,2929 L 3475,2540 L 3477,2538 L 3478,2536 L 3481,2532 L 3484,2527 L 3485,2525 L 3486,2523 L 3487,2518 L 3488,2513 L 3488,2510 L 3488,2507 L 3488,1925 L 3488,1923 L 3489,1921 L 3489,1916 L 3489,1914 L 3490,1909 L 3491,1907 L 3493,1902 L 3494,1900 L 3496,1894 L 3498,1892 L 3502,1885 L 3503,1883 L 3507,1878 L 3510,1880 L 3513,1881 L 3515,1883 L 3520,1885 L 3522,1887 L 3527,1890 L 3529,1892 L 3533,1895 L 3535,1897 L 3538,1901 L 3540,1902 L 3542,1906 L 3544,1908 L 3545,1910 L 3564,1942 L 3565,1945 L 3570,1950 L 3577,1954 L 3585,1955 L 3593,1952 L 3596,1951 L 3762,1855 L 3764,1853 L 3770,1849 L 3773,1841 L 3774,1833 L 3771,1826 L 3770,1823 L 3734,1760 L 3732,1758 L 3727,1752 L 3720,1748 L 3712,1748 L 3704,1750 L 3702,1751 L 3534,1849 L 3533,1849 L 3532,1850 L 3530,1851 L 3525,1854 L 3523,1855 L 3517,1859 L 3515,1861 L 3506,1868 L 3506,1868 L 3504,1866 L 3499,1858 L 3498,1856 L 3494,1849 L 3493,1847 L 3491,1841 L 3491,1839 L 3490,1834 L 3489,1832 L 3489,1827 L 3488,1824 L 3488,1822 L 3488,1569 L 3488,1567 L 3489,1565 L 3489,1560 L 3489,1558 L 3490,1554 L 3491,1552 L 3491,1552 L 3494,1549 L 3496,1547 L 3500,1545 L 3501,1544 L 3503,1543 L 3562,1509 L 3564,1507 L 3570,1502 L 3573,1495 L 3574,1487 L 3572,1480 L 3572,1479 L 3570,1474 L 3569,1472 L 3568,1466 L 3568,1464 L 3567,1457 L 3567,1455 L 3567,1447 L 3567,1444 L 3569,1434 L 3569,1431 L 3570,1431 L 3581,1432 L 3583,1433 L 3591,1435 L 3594,1435 L 3600,1437 L 3602,1438 L 3607,1441 L 3609,1442 L 3614,1445 L 3615,1446 L 3619,1449 L 3621,1450 L 3622,1452 L 3667,1496 L 3669,1499 L 3672,1502 L 3675,1507 L 3676,1509 L 3679,1513 L 3680,1515 L 3682,1520 L 3683,1523 L 3683,1523 L 3680,1528 L 3678,1529 L 3675,1533 L 3673,1535 L 3669,1538 L 3667,1540 L 3663,1543 L 3662,1544 L 3659,1546 L 3653,1550 L 3650,1558 L 3649,1566 L 3652,1573 L 3653,1576 L 3689,1639 L 3691,1641 L 3696,1647 L 3703,1651 L 3711,1651 L 3719,1649 L 3721,1647 L 3878,1557 L 3880,1556 L 3882,1555 L 3886,1553 L 3888,1552 L 3891,1552 L 3893,1551 L 3896,1550 L 3902,1548 L 3904,1547 L 3913,1543 L 3917,1542 L 3928,1536 L 4014,1687 z " style="fill-opacity:1.000000;fill:rgb(115,81,255);stroke:rgb(0,0,0);stroke-width:2"/></g>
<g fill-rule="evenodd"><path d="M 2901,2376 L 2902,2371 L 2904,2358 L 2905,2354 L 2908,2345 L 2910,2341 L 2912,2338 L 2919,2326 L 2921,2323 L 2926,2317 L 2931,2313 L 2934,2311 L 2945,2303 L 2946,2303 L 2948,2301 L 2948,2301 L 2950,2300 L 2954,2298 L 2955,2296 L 2959,2293 L 2960,2293 L 2961,2291 L 2964,2289 L 2966,2287 L 2968,2285 L 2973,2279 L 2974,2278 L 2975,2278 L 2980,2278 L 2985,2278 L 2987,2278 L 2990,2278 L 2992,2278 L 2997,2278 L 3002,2278 L 3004,2278 L 3004,2279 L 3006,2280 L 3010,2285 L 3011,2286 L 3012,2287 L 3016,2291 L 3018,2293 L 3022,2296 L 3022,2296 L 3024,2298 L 3025,2298 L 3028,2300 L 3029,2302 L 3031,2303 L 3037,2306 L 3040,2308 L 3051,2316 L 3052,2317 L 3053,2319 L 3061,2330 L 3063,2334 L 3070,2345 L 3070,2346 L 3071,2350 L 3074,2363 L 3075,2367 L 3076,2378 L 3076,2380 L 3076,2384 L 3073,2398 L 3072,2402 L 3070,2411 L 3068,2414 L 3066,2418 L 3059,2429 L 3056,2433 L 3052,2438 L 3047,2442 L 3044,2445 L 3032,2453 L 3029,2455 L 3024,2457 L 3017,2460 L 3013,2461 L 2999,2463 L 2997,2464 L 2990,2465 L 2989,2465 L 2987,2464 L 2973,2462 L 2970,2462 L 2956,2458 L 2954,2457 L 2953,2457 L 2941,2450 L 2938,2448 L 2927,2439 L 2926,2439 L 2924,2436 L 2916,2425 L 2914,2422 L 2908,2411 L 2907,2410 L 2906,2406 L 2903,2393 L 2903,2389 L 2901,2378 L 2901,2376 z " style="fill-opacity:1.000000;fill:rgb(74,236,41);stroke:rgb(0,0,0);stroke-width:2"/></g>
<g fill-rule="evenodd"><path d="M 3597,957 L 3796,1304 L 3794,1306 L 3747,1302 L 3660,1291 L 3648,1290 L 3642,1289 L 3622,1289 L 3616,1290 L 3601,1292 L 3596,1293 L 3589,1294 L 3524,1312 L 3512,1314 L 3500,1313 L 3487,1310 L 3475,1304 L 3418,1271 L 3408,1266 L 3402,1263 L 3395,1260 L 3374,1250 L 3373,1250 L 3382,1229 L 3392,1210 L 3431,1150 L 3447,1119 L 3459,1083 L 3473,1029 L 3560,979 L 3560,979 L 3597,957 z " style="fill-opacity:1.000000;fill:rgb(205,186,171);stroke:rgb(0,0,0);stroke-width:2"/></g>
<g fill-rule="evenodd"><path d="M 3533,1849 L 3534,1849 L 3702,1751 L 3704,1750 L 3712,1748 L 3720,1748 L 3727,1752 L 3732,1758 L 3734,1760 L 3770,1823 L 3771,1826 L 3774,1833 L 3773,1841 L 3770,1849 L 3764,1853 L 3762,1855 L 3596,1951 L 3593,1952 L 3585,1955 L 3577,1954 L 3570,1950 L 3565,1945 L 3564,1942 L 3545,1910 L 3544,1908 L 3542,1906 L 3540,1902 L 3538,1901 L 3535,1897 L 3533,1895 L 3529,1892 L 3527,1890 L 3522,1887 L 3520,1885 L 3515,1883 L 3513,1881 L 3510,1880 L 3507,1878 L 3506,1868 L 3515,1861 L 3517,1859 L 3523,1855 L 3525,1854 L 3530,1851 L 3532,1850 L 3533,1849 z " style="fill-opacity:1.000000;fill:rgb(242,251,227);stroke:rgb(0,0,0);stroke-width:2"/></g>
<g fill-rule="evenodd"><path d="M 2325,3637 L 2332,3622 L 2334,3618 L 2341,3597 L 2342,3594 L 2406,3439 L 2410,3431 L 2415,3425 L 2422,3419 L 2430,3415 L 2454,3405 L 2455,3405 L 2462,3409 L 2464,3411 L 2469,3413 L 2472,3414 L 2477,3416 L 2479,3416 L 2484,3417 L 2486,3418 L 2492,3418 L 2505,3418 L 2508,3419 L 2516,3420 L 2523,3425 L 2527,3432 L 2528,3439 L 2529,3442 L 2529,3622 L 2529,3624 L 2529,3626 L 2529,3631 L 2530,3633 L 2531,3637 L 2325,3637 z " style="fill-opacity:1.000000;fill:rgb(70,124,194);stroke:rgb(0,0,0);stroke-width:2"/></g>
<g fill-rule="evenodd"><path d="M 2222,3395 L 2215,3390 L 2211,3383 L 2209,3376 L 2209,3373 L 2209,3181 L 2209,3178 L 2211,3170 L 2215,3164 L 2222,3159 L 2230,3158 L 2232,3158 L 2305,3158 L 2308,3158 L 2316,3160 L 2323,3164 L 2327,3171 L 2328,3178 L 2329,3181 L 2329,3326 L 2329,3328 L 2329,3330 L 2329,3335 L 2330,3337 L 2331,3342 L 2331,3344 L 2333,3349 L 2334,3351 L 2337,3357 L 2338,3359 L 2342,3366 L 2342,3366 L 2338,3376 L 2333,3386 L 2326,3394 L 2318,3401 L 2308,3406 L 2299,3410 L 2298,3409 L 2291,3405 L 2289,3404 L 2283,3402 L 2281,3401 L 2276,3399 L 2274,3398 L 2269,3397 L 2267,3397 L 2263,3397 L 2261,3396 L 2258,3396 L 2233,3396 L 2230,3396 L 2222,3395 z " style="fill-opacity:1.000000;fill:rgb(84,248,27);stroke:rgb(0,0,0);stroke-width:2"/></g>
<g fill-rule="evenodd"><path d="M 2462,476 L 2455,472 L 2451,465 L 2449,458 L 2449,455 L 2449,263 L 2449,260 L 2451,252 L 2455,246 L 2462,241 L 2470,240 L 2472,240 L 2545,240 L 2548,240 L 2556,241 L 2563,246 L 2567,253 L 2568,260 L 2569,263 L 2569,455 L 2568,458 L 2567,466 L 2562,472 L 2555,477 L 2548,478 L 2545,478 L 2473,478 L 2470,478 L 2462,476 z " style="fill-opacity:1.000000;fill:rgb(232,231,141);stroke:rgb(0,0,0);stroke-width:2"/></g>
<g fill-rule="evenodd"><path d="M 1509,518 L 1509,458 L 1509,358 L 1548,318 L 1574,289 L 1593,260 L 1625,197 L 1644,168 L 1670,139 L 1709,99 L 1748,139 L 1774,168 L 1793,197 L 1825,260 L 1844,290 L 1775,458 L 1770,466 L 1764,473 L 1757,479 L 1748,484 L 1670,516 L 1655,522 L 1638,525 L 1601,529 L 1558,526 L 1509,518 z " style="fill-opacity:1.000000;fill:rgb(118,90,46);stroke:rgb(0,0,0);stroke-width:2"/></g>
<g fill-rule="evenodd"><path d="M 1021,553 L 998,538 L 995,536 L 944,500 L 1000,458 L 1037,427 L 1070,397 L 1148,318 L 1174,289 L 1193,260 L 1225,197 L 1244,168 L 1270,139 L 1309,99 L 1348,139 L 1374,168 L 1393,197 L 1425,260 L 1444,289 L 1470,318 L 1509,358 L 1509,458 L 1509,518 L 1482,554 L 1450,587 L 1414,615 L 1374,638 L 1348,639 L 1270,639 L 1239,638 L 1207,634 L 1176,627 L 1145,618 L 1114,606 L 1083,591 L 1052,573 L 1021,553 z " style="fill-opacity:1.000000;fill:rgb(99,51,159);stroke:rgb(0,0,0);stroke-width:2"/></g>
<g fill-rule="evenodd"><path d="M 2371,0 L 2370,3 L 2369,5 L 2369,10 L 2369,12 L 2369,14 L 2369,194 L 2368,197 L 2367,205 L 2362,212 L 2355,216 L 2348,217 L 2345,218 L 2277,218 L 2275,218 L 2272,218 L 2270,218 L 2268,218 L 2265,219 L 2260,219 L 2257,219 L 2254,219 L 2251,213 L 2250,210 L 2249,205 L 2247,199 L 2247,197 L 2246,194 L 2244,188 L 2243,183 L 2241,179 L 2234,162 L 2232,158 L 2230,152 L 2223,141 L 2220,136 L 2209,122 L 2204,116 L 2196,107 L 2109,21 L 2109,0 L 2371,0 z " style="fill-opacity:1.000000;fill:rgb(201,154,102);stroke:rgb(0,0,0);stroke-width:2"/></g>
<g fill-rule="evenodd"><path d="M 2109,0 L 2109,21 L 2022,107 L 2014,116 L 2009,122 L 1998,136 L 1995,141 L 1988,152 L 1986,158 L 1984,162 L 1977,179 L 1976,181 L 1975,184 L 1973,189 L 1972,193 L 1971,197 L 1971,198 L 1970,202 L 1969,206 L 1968,210 L 1967,213 L 1960,226 L 1948,240 L 1933,255 L 1870,281 L 1844,290 L 1825,260 L 1793,197 L 1774,168 L 1748,139 L 1709,99 L 1709,0 L 2109,0 z " style="fill-opacity:1.000000;fill:rgb(50,13,183);stroke:rgb(0,0,0);stroke-width:2"/></g>
<g fill-rule="evenodd"><path d="M 1709,0 L 1709,99 L 1670,139 L 1644,168 L 1625,197 L 1593,260 L 1574,289 L 1548,318 L 1509,358 L 1470,318 L 1444,289 L 1425,260 L 1393,197 L 1374,168 L 1348,139 L 1309,99 L 1309,0 L 1709,0 z " style="fill-opacity:1.000000;fill:rgb(49,88,163);stroke:rgb(0,0,0);stroke-width:2"/></g>
<g fill-rule="evenodd"><path d="M 886,0 L 1309,0 L 1309,99 L 1270,139 L 1244,168 L 1225,197 L 1193,260 L 1174,289 L 1148,318 L 1070,397 L 1037,427 L 1000,458 L 944,500 L 932,499 L 927,499 L 845,492 L 841,491 L 815,489 L 767,452 L 722,411 L 664,355 L 886,0 z " style="fill-opacity:1.000000;fill:rgb(90,37,93);stroke:rgb(0,0,0);stroke-width:2"/></g>
<g fill-rule="evenodd"><path d="M 2007,3637 L 2008,3633 L 2008,3631 L 2009,3626 L 2009,3624 L 2009,3622 L 2009,3607 L 2009,3605 L 2009,3603 L 2008,3598 L 2008,3596 L 2007,3591 L 2006,3589 L 2004,3583 L 2004,3583 L 2002,3582 L 1997,3580 L 1995,3580 L 1990,3578 L 1988,3578 L 1983,3578 L 1981,3577 L 1979,3577 L 1888,3577 L 1885,3577 L 1883,3577 L 1877,3576 L 1873,3575 L 1870,3574 L 1868,3573 L 1863,3570 L 1859,3567 L 1857,3566 L 1855,3564 L 1683,3392 L 1681,3389 L 1680,3387 L 1677,3383 L 1674,3379 L 1673,3377 L 1672,3374 L 1671,3369 L 1670,3364 L 1670,3362 L 1669,3359 L 1669,3164 L 1669,3162 L 1669,3160 L 1669,3155 L 1668,3153 L 1667,3148 L 1666,3145 L 1664,3140 L 1664,3140 L 1662,3139 L 1657,3137 L 1655,3136 L 1650,3135 L 1648,3135 L 1646,3135 L 1645,3135 L 1638,3133 L 1632,3129 L 1627,3122 L 1626,3114 L 1626,3112 L 1626,2992 L 1626,2989 L 1627,2981 L 1632,2974 L 1639,2970 L 1646,2968 L 1649,2968 L 1769,2968 L 1772,2968 L 1780,2970 L 1786,2974 L 1791,2981 L 1792,2989 L 1792,2991 L 1792,3111 L 1792,3114 L 1791,3122 L 1786,3129 L 1779,3133 L 1773,3135 L 1772,3135 L 1771,3135 L 1768,3135 L 1764,3136 L 1761,3137 L 1756,3139 L 1754,3140 L 1754,3140 L 1752,3145 L 1751,3148 L 1750,3153 L 1749,3155 L 1749,3160 L 1749,3162 L 1749,3164 L 1749,3333 L 1749,3335 L 1749,3338 L 1750,3343 L 1750,3345 L 1751,3346 L 1754,3350 L 1756,3352 L 1757,3354 L 1893,3489 L 1895,3491 L 1897,3493 L 1901,3496 L 1902,3497 L 1903,3497 L 1909,3498 L 1911,3498 L 1914,3498 L 1979,3498 L 1981,3498 L 1983,3498 L 1988,3497 L 1990,3497 L 1995,3496 L 1997,3495 L 2002,3493 L 2004,3493 L 2004,3492 L 2006,3487 L 2007,3484 L 2008,3479 L 2008,3477 L 2009,3473 L 2009,3470 L 2009,3468 L 2009,3442 L 2009,3439 L 2011,3431 L 2016,3424 L 2022,3420 L 2030,3419 L 2032,3418 L 2105,3418 L 2108,3419 L 2116,3420 L 2123,3425 L 2127,3432 L 2129,3439 L 2129,3442 L 2129,3468 L 2129,3470 L 2129,3473 L 2130,3477 L 2130,3479 L 2131,3484 L 2132,3487 L 2134,3492 L 2134,3493 L 2136,3493 L 2141,3495 L 2143,3496 L 2148,3497 L 2150,3497 L 2155,3498 L 2157,3498 L 2159,3498 L 2217,3498 L 2220,3498 L 2223,3498 L 2228,3497 L 2229,3497 L 2230,3496 L 2235,3493 L 2237,3491 L 2239,3489 L 2280,3448 L 2281,3447 L 2283,3445 L 2285,3442 L 2287,3440 L 2289,3436 L 2290,3434 L 2293,3429 L 2293,3427 L 2296,3421 L 2296,3419 L 2298,3412 L 2299,3410 L 2308,3406 L 2318,3401 L 2326,3394 L 2333,3386 L 2338,3376 L 2342,3366 L 2344,3366 L 2351,3364 L 2354,3363 L 2359,3361 L 2362,3360 L 2366,3358 L 2368,3357 L 2372,3354 L 2374,3353 L 2377,3350 L 2379,3349 L 2380,3347 L 2440,3287 L 2442,3285 L 2444,3283 L 2447,3279 L 2448,3278 L 2448,3277 L 2449,3271 L 2449,3269 L 2449,3266 L 2449,3071 L 2449,3069 L 2449,3067 L 2448,3061 L 2448,3059 L 2447,3056 L 2446,3054 L 2444,3053 L 2441,3050 L 2440,3050 L 2438,3048 L 2438,3048 L 2436,3046 L 2428,3041 L 2427,3039 L 2425,3036 L 2417,3025 L 2414,3022 L 2409,3013 L 2408,3010 L 2407,3006 L 2404,2993 L 2404,2989 L 2402,2978 L 2402,2975 L 2403,2971 L 2405,2958 L 2406,2954 L 2409,2943 L 2410,2941 L 2412,2938 L 2419,2926 L 2422,2923 L 2428,2915 L 2431,2913 L 2434,2911 L 2436,2909 L 2438,2908 L 2440,2906 L 2444,2903 L 2444,2902 L 2445,2901 L 2447,2899 L 2448,2897 L 2448,2894 L 2449,2889 L 2449,2887 L 2449,2884 L 2449,2609 L 2449,2606 L 2449,2604 L 2448,2600 L 2448,2597 L 2447,2593 L 2446,2590 L 2444,2585 L 2444,2583 L 2443,2580 L 2447,2569 L 2449,2558 L 2449,2438 L 2447,2427 L 2443,2415 L 2444,2413 L 2444,2411 L 2446,2405 L 2447,2403 L 2448,2398 L 2448,2396 L 2449,2392 L 2449,2389 L 2449,2387 L 2449,2247 L 2449,2244 L 2449,2242 L 2448,2236 L 2448,2235 L 2447,2234 L 2444,2229 L 2442,2227 L 2440,2226 L 2401,2187 L 2399,2185 L 2398,2183 L 2393,2180 L 2391,2178 L 2389,2177 L 2386,2177 L 2383,2177 L 2380,2177 L 2379,2177 L 2375,2178 L 2363,2178 L 2358,2177 L 2353,2177 L 2346,2175 L 2342,2173 L 2331,2168 L 2327,2166 L 2324,2165 L 2317,2159 L 2314,2156 L 2305,2147 L 2303,2143 L 2302,2143 L 2297,2132 L 2295,2128 L 2291,2117 L 2290,2114 L 2290,2113 L 2289,2100 L 2289,2096 L 2290,2083 L 2290,2082 L 2291,2079 L 2295,2067 L 2297,2064 L 2302,2053 L 2303,2052 L 2305,2049 L 2314,2040 L 2317,2037 L 2321,2034 L 2323,2032 L 2325,2030 L 2326,2029 L 2327,2028 L 2328,2026 L 2328,2023 L 2329,2018 L 2329,2015 L 2329,2012 L 2329,1981 L 2330,1978 L 2330,1975 L 2331,1970 L 2332,1965 L 2333,1963 L 2334,1961 L 2336,1956 L 2339,1952 L 2341,1950 L 2343,1948 L 2496,1795 L 2498,1793 L 2499,1791 L 2502,1787 L 2504,1785 L 2504,1784 L 2505,1780 L 2504,1778 L 2504,1773 L 2504,1773 L 2504,1770 L 2503,1769 L 2503,1768 L 2502,1758 L 2502,1756 L 2503,1752 L 2505,1738 L 2506,1735 L 2509,1723 L 2510,1722 L 2512,1718 L 2519,1707 L 2522,1703 L 2528,1695 L 2531,1693 L 2534,1691 L 2536,1689 L 2538,1688 L 2540,1686 L 2544,1683 L 2544,1682 L 2545,1681 L 2547,1680 L 2548,1677 L 2548,1674 L 2549,1669 L 2549,1667 L 2549,1664 L 2549,1552 L 2549,1549 L 2549,1547 L 2548,1542 L 2548,1539 L 2547,1536 L 2546,1535 L 2544,1533 L 2541,1531 L 2540,1530 L 2538,1528 L 2538,1528 L 2536,1527 L 2528,1521 L 2527,1520 L 2525,1516 L 2517,1505 L 2514,1502 L 2509,1493 L 2508,1490 L 2507,1486 L 2504,1473 L 2504,1469 L 2502,1458 L 2502,1456 L 2503,1452 L 2505,1438 L 2506,1435 L 2509,1423 L 2510,1422 L 2512,1418 L 2519,1407 L 2522,1404 L 2528,1395 L 2531,1393 L 2534,1391 L 2536,1389 L 2538,1388 L 2540,1386 L 2544,1383 L 2544,1382 L 2545,1381 L 2547,1380 L 2548,1377 L 2548,1374 L 2549,1369 L 2549,1367 L 2549,1364 L 2549,1252 L 2549,1249 L 2549,1247 L 2548,1242 L 2548,1239 L 2547,1236 L 2546,1235 L 2544,1233 L 2541,1231 L 2540,1230 L 2538,1228 L 2538,1228 L 2536,1227 L 2528,1221 L 2527,1220 L 2525,1216 L 2517,1205 L 2514,1202 L 2509,1193 L 2508,1190 L 2507,1186 L 2504,1173 L 2504,1169 L 2502,1158 L 2502,1156 L 2503,1152 L 2505,1138 L 2506,1135 L 2509,1123 L 2510,1122 L 2512,1118 L 2519,1107 L 2522,1104 L 2528,1095 L 2531,1093 L 2534,1091 L 2545,1083 L 2548,1081 L 2556,1077 L 2561,1076 L 2565,1074 L 2578,1072 L 2581,1071 L 2588,1070 L 2589,1070 L 2591,1071 L 2604,1073 L 2608,1073 L 2621,1077 L 2622,1077 L 2625,1079 L 2637,1086 L 2640,1088 L 2650,1096 L 2650,1096 L 2651,1096 L 2654,1099 L 2654,1100 L 2656,1102 L 2659,1105 L 2661,1106 L 2664,1108 L 2665,1109 L 2667,1110 L 2668,1112 L 2672,1114 L 2674,1115 L 2681,1119 L 2682,1120 L 2684,1121 L 2686,1122 L 2686,1126 L 2688,1139 L 2688,1146 L 2689,1160 L 2689,1167 L 2688,1180 L 2687,1187 L 2684,1201 L 2682,1208 L 2679,1222 L 2678,1225 L 2676,1231 L 2672,1246 L 2670,1257 L 2680,1283 L 2696,1308 L 2680,1334 L 2670,1359 L 2672,1371 L 2675,1383 L 2677,1391 L 2679,1397 L 2682,1405 L 2685,1419 L 2686,1426 L 2688,1439 L 2688,1446 L 2689,1460 L 2689,1466 L 2688,1480 L 2687,1487 L 2684,1501 L 2682,1508 L 2679,1522 L 2678,1525 L 2676,1531 L 2672,1546 L 2670,1557 L 2680,1583 L 2696,1608 L 2680,1634 L 2670,1659 L 2672,1671 L 2675,1683 L 2677,1691 L 2679,1697 L 2682,1705 L 2685,1718 L 2686,1726 L 2688,1739 L 2688,1746 L 2689,1760 L 2689,1766 L 2688,1780 L 2687,1787 L 2685,1795 L 2684,1795 L 2681,1797 L 2679,1798 L 2674,1801 L 2672,1802 L 2672,1802 L 2667,1806 L 2665,1807 L 2661,1810 L 2660,1811 L 2659,1812 L 2657,1813 L 2656,1815 L 2654,1816 L 2650,1820 L 2650,1820 L 2647,1823 L 2644,1825 L 2633,1833 L 2629,1835 L 2622,1839 L 2617,1841 L 2613,1842 L 2600,1844 L 2597,1845 L 2590,1846 L 2589,1846 L 2587,1846 L 2578,1844 L 2575,1844 L 2573,1844 L 2573,1844 L 2569,1843 L 2568,1843 L 2565,1843 L 2563,1843 L 2560,1845 L 2558,1846 L 2554,1849 L 2552,1851 L 2550,1853 L 2417,1986 L 2416,1988 L 2414,1990 L 2411,1994 L 2410,1995 L 2410,1996 L 2409,2002 L 2409,2004 L 2409,2007 L 2409,2012 L 2409,2015 L 2409,2018 L 2410,2023 L 2410,2026 L 2411,2028 L 2412,2029 L 2413,2030 L 2415,2032 L 2417,2034 L 2421,2037 L 2424,2040 L 2432,2049 L 2435,2052 L 2436,2053 L 2441,2064 L 2443,2067 L 2447,2079 L 2448,2082 L 2448,2083 L 2449,2096 L 2449,2100 L 2448,2109 L 2448,2112 L 2448,2113 L 2448,2115 L 2448,2117 L 2448,2118 L 2449,2120 L 2451,2122 L 2454,2127 L 2456,2129 L 2457,2130 L 2497,2169 L 2498,2171 L 2500,2173 L 2505,2176 L 2506,2177 L 2507,2177 L 2512,2178 L 2515,2178 L 2518,2178 L 2825,2178 L 2828,2178 L 2831,2178 L 2836,2177 L 2837,2177 L 2838,2176 L 2843,2173 L 2845,2171 L 2847,2169 L 2864,2152 L 2866,2150 L 2868,2149 L 2873,2146 L 2877,2143 L 2879,2142 L 2882,2141 L 2887,2140 L 2892,2139 L 2894,2139 L 2901,2138 L 2905,2137 L 2908,2137 L 2910,2136 L 2912,2135 L 2914,2133 L 2917,2129 L 2919,2127 L 2919,2126 L 2920,2125 L 2921,2123 L 2926,2117 L 2931,2113 L 2934,2111 L 2945,2103 L 2949,2101 L 2954,2098 L 2961,2096 L 2965,2095 L 2978,2093 L 2981,2092 L 2988,2091 L 2989,2091 L 2991,2091 L 3004,2093 L 3008,2094 L 3021,2097 L 3024,2098 L 3025,2099 L 3037,2106 L 3040,2108 L 3051,2116 L 3052,2117 L 3053,2119 L 3061,2130 L 3063,2134 L 3070,2145 L 3070,2146 L 3071,2150 L 3074,2163 L 3075,2167 L 3076,2178 L 3076,2180 L 3076,2184 L 3073,2198 L 3072,2202 L 3070,2211 L 3068,2214 L 3066,2218 L 3059,2229 L 3056,2233 L 3052,2238 L 3047,2242 L 3044,2245 L 3032,2253 L 3031,2253 L 3030,2254 L 3029,2255 L 3028,2256 L 3024,2258 L 3022,2260 L 3018,2263 L 3018,2263 L 3017,2265 L 3014,2267 L 3012,2269 L 3010,2271 L 3004,2277 L 3004,2278 L 3002,2278 L 2997,2278 L 2992,2278 L 2990,2278 L 2987,2278 L 2985,2278 L 2980,2278 L 2975,2278 L 2974,2278 L 2973,2277 L 2972,2276 L 2967,2271 L 2967,2270 L 2966,2269 L 2961,2264 L 2959,2263 L 2956,2260 L 2955,2260 L 2954,2258 L 2952,2257 L 2950,2256 L 2948,2254 L 2946,2253 L 2941,2250 L 2938,2248 L 2927,2240 L 2925,2238 L 2924,2237 L 2923,2236 L 2921,2234 L 2917,2231 L 2915,2230 L 2912,2229 L 2910,2227 L 2909,2227 L 2907,2228 L 2902,2231 L 2900,2232 L 2895,2235 L 2893,2236 L 2889,2240 L 2885,2244 L 2882,2246 L 2880,2247 L 2876,2250 L 2871,2253 L 2869,2254 L 2867,2255 L 2862,2256 L 2857,2257 L 2854,2257 L 2851,2258 L 2559,2258 L 2556,2258 L 2554,2258 L 2549,2258 L 2547,2259 L 2542,2260 L 2540,2260 L 2535,2262 L 2534,2263 L 2533,2264 L 2531,2269 L 2531,2271 L 2530,2276 L 2529,2279 L 2529,2283 L 2529,2285 L 2529,2288 L 2529,2884 L 2529,2887 L 2529,2889 L 2529,2894 L 2530,2897 L 2531,2900 L 2532,2901 L 2534,2903 L 2537,2905 L 2538,2906 L 2540,2908 L 2540,2908 L 2542,2909 L 2549,2915 L 2551,2916 L 2553,2919 L 2561,2930 L 2563,2934 L 2568,2943 L 2569,2946 L 2571,2950 L 2574,2963 L 2574,2967 L 2576,2978 L 2575,2980 L 2575,2984 L 2573,2997 L 2572,3001 L 2568,3013 L 2568,3014 L 2566,3018 L 2558,3029 L 2556,3032 L 2549,3041 L 2547,3043 L 2544,3045 L 2542,3046 L 2540,3048 L 2538,3049 L 2534,3053 L 2533,3054 L 2532,3054 L 2530,3056 L 2530,3059 L 2529,3061 L 2529,3067 L 2529,3069 L 2529,3071 L 2529,3292 L 2528,3295 L 2528,3297 L 2527,3301 L 2527,3305 L 2526,3309 L 2525,3310 L 2524,3312 L 2522,3315 L 2520,3318 L 2518,3321 L 2517,3323 L 2515,3325 L 2473,3367 L 2472,3368 L 2470,3370 L 2468,3373 L 2466,3375 L 2464,3379 L 2463,3381 L 2460,3386 L 2459,3388 L 2457,3394 L 2457,3396 L 2455,3403 L 2454,3405 L 2430,3415 L 2422,3419 L 2415,3425 L 2410,3431 L 2406,3439 L 2342,3594 L 2341,3597 L 2334,3618 L 2332,3622 L 2325,3637 L 2007,3637 z " style="fill-opacity:1.000000;fill:rgb(5,23,88);stroke:rgb(0,0,0);stroke-width:2"/></g>
<g fill-rule="evenodd"><path d="M 1194,2257 L 1194,2253 L 1194,2239 L 1194,2238 L 1195,2235 L 1200,2221 L 1202,2218 L 1207,2208 L 1209,2205 L 1211,2202 L 1221,2192 L 1224,2189 L 1233,2181 L 1235,2180 L 1239,2178 L 1252,2173 L 1256,2171 L 1263,2169 L 1269,2168 L 1273,2168 L 1287,2168 L 1292,2168 L 1299,2169 L 1302,2169 L 1304,2169 L 1306,2169 L 1306,2169 L 1310,2167 L 1312,2166 L 1316,2163 L 1318,2161 L 1320,2159 L 1418,2061 L 1418,2061 L 1418,2060 L 1420,2057 L 1421,2057 L 1423,2053 L 1426,2050 L 1426,2050 L 1429,2048 L 1433,2045 L 1436,2043 L 1439,2042 L 1440,2041 L 1444,2040 L 1448,2039 L 1452,2039 L 1454,2039 L 1457,2038 L 1596,2038 L 1599,2038 L 1601,2038 L 1606,2038 L 1608,2037 L 1613,2036 L 1615,2035 L 1621,2033 L 1621,2033 L 1622,2031 L 1624,2026 L 1624,2024 L 1625,2019 L 1626,2017 L 1626,2015 L 1626,2014 L 1627,2007 L 1632,2001 L 1639,1996 L 1646,1995 L 1649,1994 L 1769,1994 L 1772,1995 L 1780,1996 L 1786,2001 L 1791,2008 L 1792,2014 L 1792,2015 L 1792,2016 L 1793,2018 L 1794,2023 L 1794,2026 L 1796,2031 L 1797,2033 L 1797,2033 L 1803,2035 L 1805,2036 L 1810,2037 L 1812,2038 L 1817,2038 L 1819,2038 L 1822,2038 L 1946,2038 L 1949,2039 L 1952,2039 L 1957,2040 L 1962,2041 L 1964,2042 L 1966,2043 L 1971,2046 L 1975,2049 L 1977,2050 L 1979,2052 L 2335,2408 L 2337,2410 L 2339,2412 L 2344,2415 L 2346,2417 L 2346,2417 L 2351,2417 L 2354,2417 L 2357,2418 L 2419,2418 L 2422,2417 L 2424,2417 L 2428,2417 L 2429,2417 L 2431,2417 L 2436,2416 L 2438,2416 L 2443,2415 L 2447,2427 L 2449,2438 L 2449,2558 L 2447,2569 L 2443,2580 L 2438,2580 L 2436,2580 L 2431,2579 L 2429,2579 L 2428,2579 L 2424,2578 L 2421,2578 L 2419,2578 L 2312,2578 L 2309,2578 L 2301,2576 L 2295,2572 L 2290,2565 L 2289,2558 L 2289,2555 L 2289,2486 L 2288,2483 L 2288,2480 L 2288,2475 L 2288,2475 L 2286,2473 L 2283,2468 L 2281,2466 L 2279,2464 L 1941,2126 L 1939,2125 L 1937,2123 L 1933,2120 L 1932,2119 L 1931,2119 L 1925,2118 L 1923,2118 L 1920,2118 L 1822,2118 L 1819,2118 L 1817,2118 L 1812,2118 L 1810,2119 L 1805,2120 L 1803,2121 L 1797,2123 L 1797,2123 L 1796,2125 L 1794,2130 L 1794,2132 L 1793,2137 L 1792,2139 L 1792,2141 L 1792,2142 L 1791,2149 L 1786,2155 L 1779,2160 L 1772,2161 L 1769,2161 L 1649,2161 L 1646,2161 L 1638,2160 L 1632,2155 L 1627,2148 L 1626,2142 L 1626,2141 L 1626,2140 L 1625,2137 L 1624,2133 L 1624,2130 L 1622,2125 L 1621,2123 L 1621,2123 L 1615,2121 L 1613,2120 L 1608,2119 L 1606,2118 L 1601,2118 L 1599,2118 L 1596,2118 L 1486,2118 L 1484,2118 L 1481,2118 L 1476,2119 L 1474,2119 L 1473,2120 L 1469,2123 L 1467,2125 L 1465,2126 L 1376,2215 L 1374,2217 L 1373,2219 L 1369,2223 L 1368,2226 L 1366,2229 L 1366,2231 L 1366,2234 L 1366,2234 L 1366,2236 L 1367,2239 L 1367,2253 L 1367,2257 L 1367,2271 L 1367,2272 L 1365,2275 L 1361,2288 L 1359,2292 L 1353,2304 L 1353,2305 L 1350,2308 L 1340,2318 L 1337,2321 L 1329,2328 L 1326,2329 L 1322,2331 L 1309,2337 L 1305,2338 L 1297,2341 L 1292,2341 L 1287,2342 L 1273,2342 L 1269,2341 L 1263,2341 L 1256,2338 L 1252,2337 L 1239,2331 L 1235,2329 L 1232,2328 L 1224,2321 L 1221,2318 L 1211,2308 L 1208,2305 L 1208,2303 L 1202,2292 L 1200,2288 L 1195,2275 L 1194,2272 L 1194,2271 L 1194,2257 z " style="fill-opacity:1.000000;fill:rgb(233,94,212);stroke:rgb(0,0,0);stroke-width:2"/></g>
<g fill-rule="evenodd"><path d="M 758,1923 L 748,1898 L 742,1884 L 733,1851 L 729,1836 L 721,1793 L 719,1776 L 717,1759 L 710,1742 L 722,1716 L 732,1704 L 736,1699 L 754,1677 L 770,1656 L 773,1651 L 794,1615 L 796,1610 L 804,1594 L 894,1376 L 895,1373 L 898,1368 L 901,1363 L 904,1358 L 907,1354 L 910,1350 L 912,1348 L 963,1297 L 965,1295 L 969,1292 L 973,1289 L 978,1286 L 983,1283 L 988,1280 L 991,1279 L 996,1277 L 996,1275 L 996,1275 L 997,1271 L 998,1269 L 999,1266 L 1001,1260 L 1001,1256 L 1001,1255 L 1002,1252 L 1002,1249 L 1003,1244 L 1003,1242 L 1004,1238 L 1004,1234 L 1007,1220 L 1008,1216 L 1008,1216 L 1017,1205 L 1020,1201 L 1029,1192 L 1032,1189 L 1043,1180 L 1047,1177 L 1047,1177 L 1060,1174 L 1065,1173 L 1078,1172 L 1081,1172 L 1088,1172 L 1091,1172 L 1105,1172 L 1109,1173 L 1122,1175 L 1127,1176 L 1141,1179 L 1143,1180 L 1146,1182 L 1156,1191 L 1159,1195 L 1168,1205 L 1172,1210 L 1180,1221 L 1184,1227 L 1189,1236 L 1189,1239 L 1189,1246 L 1189,1250 L 1189,1256 L 1189,1260 L 1189,1267 L 1189,1270 L 1189,1273 L 1188,1274 L 1182,1279 L 1182,1280 L 1180,1281 L 1178,1284 L 1176,1286 L 1174,1287 L 1171,1291 L 1169,1293 L 1168,1295 L 1167,1297 L 1166,1298 L 1166,1299 L 1164,1301 L 1159,1309 L 1156,1313 L 1150,1321 L 1147,1323 L 1144,1325 L 1133,1333 L 1130,1335 L 1122,1339 L 1117,1341 L 1113,1342 L 1100,1344 L 1097,1345 L 1090,1346 L 1089,1346 L 1087,1346 L 1078,1344 L 1075,1344 L 1074,1344 L 1073,1344 L 1069,1343 L 1068,1343 L 1065,1343 L 1063,1343 L 1060,1345 L 1058,1346 L 1055,1348 L 1050,1353 L 1048,1354 L 1044,1357 L 1040,1360 L 1037,1361 L 1035,1362 L 1030,1363 L 1025,1364 L 1022,1364 L 1018,1365 L 1016,1365 L 1009,1366 L 1008,1366 L 1007,1367 L 1003,1370 L 1001,1372 L 999,1373 L 988,1384 L 987,1386 L 985,1388 L 982,1392 L 981,1393 L 981,1394 L 980,1400 L 980,1402 L 980,1405 L 980,1816 L 980,1818 L 980,1821 L 981,1826 L 981,1829 L 982,1833 L 982,1833 L 984,1834 L 986,1836 L 986,1836 L 988,1838 L 997,1845 L 1000,1848 L 1009,1858 L 1012,1862 L 1013,1863 L 1018,1874 L 1020,1878 L 1025,1890 L 1025,1891 L 1025,1892 L 1026,1894 L 1027,1895 L 1028,1899 L 1029,1901 L 1031,1906 L 1032,1908 L 1033,1909 L 1036,1914 L 1037,1914 L 1037,1916 L 1038,1918 L 1033,1928 L 1031,1933 L 1023,1946 L 1020,1950 L 1012,1961 L 1009,1964 L 999,1974 L 996,1977 L 986,1986 L 982,1989 L 970,1997 L 966,2000 L 953,2007 L 947,2010 L 946,2010 L 933,2010 L 926,2010 L 912,2008 L 905,2007 L 891,2004 L 883,2002 L 869,1997 L 859,1994 L 845,1987 L 833,1981 L 819,1973 L 803,1963 L 789,1953 L 769,1936 L 760,1928 L 758,1923 z " style="fill-opacity:1.000000;fill:rgb(171,178,205);stroke:rgb(0,0,0);stroke-width:2"/></g>
<g fill-rule="evenodd"><path d="M 59,1533 L 59,1524 L 60,1515 L 68,1485 L 98,1446 L 105,1438 L 114,1433 L 124,1429 L 135,1426 L 295,1405 L 299,1422 L 311,1458 L 327,1489 L 365,1549 L 380,1577 L 517,1682 L 536,1695 L 556,1706 L 578,1716 L 601,1724 L 626,1731 L 653,1736 L 681,1740 L 710,1742 L 717,1759 L 719,1776 L 721,1793 L 729,1836 L 733,1851 L 742,1884 L 748,1898 L 758,1923 L 760,1928 L 769,1936 L 789,1953 L 803,1963 L 819,1973 L 833,1981 L 845,1987 L 859,1994 L 869,1997 L 883,2002 L 891,2004 L 905,2007 L 912,2008 L 926,2010 L 933,2010 L 946,2010 L 947,2010 L 953,2007 L 966,2000 L 970,1997 L 982,1989 L 986,1986 L 996,1977 L 999,1974 L 1009,1964 L 1012,1961 L 1020,1950 L 1023,1946 L 1031,1933 L 1033,1928 L 1038,1918 L 1044,1916 L 1046,1916 L 1052,1913 L 1055,1913 L 1059,1910 L 1061,1909 L 1065,1906 L 1067,1905 L 1071,1902 L 1072,1901 L 1074,1899 L 1241,1733 L 1242,1731 L 1244,1729 L 1247,1725 L 1248,1723 L 1248,1722 L 1249,1717 L 1249,1714 L 1249,1712 L 1249,1552 L 1249,1549 L 1249,1547 L 1249,1542 L 1248,1539 L 1247,1536 L 1246,1535 L 1244,1533 L 1241,1531 L 1240,1530 L 1238,1528 L 1238,1528 L 1236,1527 L 1228,1521 L 1227,1520 L 1225,1516 L 1217,1505 L 1215,1502 L 1210,1493 L 1209,1490 L 1207,1486 L 1204,1473 L 1204,1469 L 1202,1458 L 1203,1456 L 1203,1452 L 1205,1438 L 1206,1435 L 1210,1423 L 1210,1422 L 1212,1418 L 1220,1407 L 1222,1404 L 1229,1395 L 1231,1393 L 1234,1391 L 1245,1383 L 1246,1383 L 1247,1382 L 1249,1381 L 1249,1381 L 1253,1378 L 1255,1377 L 1259,1373 L 1260,1372 L 1260,1372 L 1264,1368 L 1265,1367 L 1267,1365 L 1272,1359 L 1273,1358 L 1275,1358 L 1281,1358 L 1286,1358 L 1287,1358 L 1291,1358 L 1292,1358 L 1298,1358 L 1303,1358 L 1306,1358 L 1313,1358 L 1317,1358 L 1325,1358 L 1328,1358 L 1337,1358 L 1339,1358 L 1350,1358 L 1352,1358 L 1366,1358 L 1367,1358 L 1384,1358 L 1384,1358 L 1389,1358 L 1389,1358 L 1389,1372 L 1389,1372 L 1389,1388 L 1389,1389 L 1389,1401 L 1389,1404 L 1389,1414 L 1389,1417 L 1389,1425 L 1389,1428 L 1389,1436 L 1389,1439 L 1389,1446 L 1389,1450 L 1389,1456 L 1389,1460 L 1389,1467 L 1389,1470 L 1389,1477 L 1389,1480 L 1389,1488 L 1389,1491 L 1389,1500 L 1389,1502 L 1389,1512 L 1389,1515 L 1389,1527 L 1389,1528 L 1389,1544 L 1389,1544 L 1389,1562 L 1389,1564 L 1389,1566 L 1389,1566 L 1389,1610 L 1335,1740 L 1334,1744 L 1331,1749 L 1328,1754 L 1325,1758 L 1322,1762 L 1319,1766 L 1317,1768 L 1198,1887 L 1197,1888 L 1195,1890 L 1192,1893 L 1189,1898 L 1186,1902 L 1184,1906 L 1182,1910 L 1181,1913 L 1180,1915 L 1150,1988 L 1022,2116 L 1016,2121 L 1012,2125 L 1000,2134 L 998,2135 L 996,2137 L 991,2140 L 987,2143 L 981,2147 L 976,2150 L 970,2154 L 967,2156 L 965,2157 L 943,2174 L 938,2179 L 925,2192 L 914,2203 L 890,2193 L 867,2186 L 844,2182 L 821,2181 L 705,2181 L 695,2180 L 691,2180 L 679,2179 L 672,2178 L 671,2178 L 670,2176 L 658,2159 L 655,2155 L 646,2138 L 644,2134 L 641,2126 L 623,2084 L 620,2078 L 618,2073 L 611,2062 L 609,2057 L 601,2048 L 598,2044 L 594,2040 L 446,1892 L 444,1876 L 441,1865 L 438,1855 L 432,1847 L 425,1841 L 267,1719 L 253,1710 L 237,1703 L 220,1698 L 200,1695 L 186,1662 L 169,1632 L 165,1626 L 162,1622 L 155,1613 L 152,1609 L 145,1602 L 141,1599 L 138,1596 L 68,1543 L 59,1533 z " style="fill-opacity:1.000000;fill:rgb(198,155,180);stroke:rgb(0,0,0);stroke-width:2"/></g>
<g fill-rule="evenodd"><path d="M 651,2496 L 638,2486 L 626,2476 L 627,2469 L 630,2448 L 633,2435 L 637,2421 L 638,2420 L 640,2411 L 644,2397 L 646,2390 L 648,2375 L 649,2368 L 650,2354 L 650,2347 L 649,2333 L 648,2326 L 646,2311 L 644,2304 L 640,2290 L 638,2281 L 637,2280 L 633,2266 L 630,2253 L 629,2247 L 635,2230 L 644,2213 L 656,2196 L 671,2178 L 672,2178 L 679,2179 L 691,2180 L 695,2180 L 705,2181 L 821,2181 L 844,2182 L 867,2186 L 890,2193 L 914,2203 L 920,2222 L 924,2241 L 927,2260 L 928,2280 L 928,2421 L 926,2448 L 921,2474 L 913,2500 L 902,2526 L 902,2545 L 853,2663 L 852,2672 L 850,2691 L 848,2704 L 845,2717 L 842,2729 L 839,2738 L 834,2750 L 831,2757 L 826,2767 L 823,2772 L 817,2782 L 814,2786 L 807,2795 L 804,2798 L 796,2806 L 793,2809 L 784,2816 L 781,2819 L 780,2819 L 769,2822 L 765,2822 L 754,2823 L 751,2823 L 745,2824 L 742,2824 L 731,2823 L 727,2823 L 716,2821 L 711,2820 L 708,2819 L 701,2814 L 698,2811 L 690,2804 L 686,2801 L 679,2792 L 676,2788 L 674,2785 L 672,2778 L 671,2773 L 670,2762 L 670,2758 L 669,2747 L 670,2743 L 670,2732 L 671,2728 L 673,2717 L 674,2712 L 677,2701 L 679,2695 L 684,2684 L 687,2676 L 690,2671 L 690,2615 L 690,2610 L 689,2605 L 688,2594 L 687,2589 L 684,2577 L 682,2572 L 680,2566 L 651,2496 z " style="fill-opacity:1.000000;fill:rgb(84,17,14);stroke:rgb(0,0,0);stroke-width:2"/></g>
<g fill-rule="evenodd"><path d="M 176,1876 L 168,1859 L 164,1841 L 163,1824 L 166,1807 L 187,1728 L 192,1712 L 200,1695 L 220,1698 L 237,1703 L 253,1710 L 267,1719 L 425,1841 L 432,1847 L 438,1855 L 441,1865 L 444,1876 L 446,1892 L 594,2040 L 598,2044 L 601,2048 L 609,2057 L 611,2062 L 618,2073 L 620,2078 L 623,2084 L 641,2126 L 644,2134 L 646,2138 L 655,2155 L 658,2159 L 670,2176 L 671,2178 L 656,2196 L 644,2213 L 635,2230 L 629,2247 L 630,2253 L 633,2266 L 637,2280 L 638,2281 L 640,2290 L 644,2304 L 646,2311 L 648,2326 L 649,2333 L 650,2347 L 650,2354 L 649,2368 L 648,2375 L 646,2390 L 644,2397 L 640,2411 L 638,2420 L 637,2421 L 633,2435 L 630,2448 L 627,2469 L 626,2476 L 613,2474 L 595,2471 L 582,2468 L 566,2463 L 557,2460 L 542,2454 L 536,2451 L 522,2443 L 518,2440 L 505,2432 L 502,2429 L 490,2419 L 487,2417 L 477,2406 L 474,2402 L 465,2391 L 463,2387 L 455,2374 L 452,2368 L 445,2354 L 442,2347 L 436,2331 L 433,2320 L 429,2304 L 426,2288 L 424,2269 L 422,2246 L 422,2225 L 395,2160 L 395,2152 L 395,2149 L 388,2135 L 386,2130 L 369,2101 L 366,2096 L 347,2072 L 344,2068 L 334,2057 L 281,2005 L 226,1962 L 176,1876 z " style="fill-opacity:1.000000;fill:rgb(130,116,65);stroke:rgb(0,0,0);stroke-width:2"/></g>
<g fill-rule="evenodd"><path d="M 2371,0 L 3050,0 L 3467,729 L 3455,736 L 3452,738 L 3444,743 L 3441,745 L 3436,748 L 3434,749 L 3431,752 L 3430,753 L 3429,754 L 3425,756 L 3424,757 L 3422,759 L 3261,851 L 3259,853 L 3254,858 L 3250,865 L 3249,873 L 3252,880 L 3253,883 L 3256,889 L 3259,895 L 3260,897 L 3261,902 L 3262,904 L 3262,906 L 3261,909 L 3260,911 L 3257,915 L 3256,917 L 3253,920 L 3251,922 L 3250,923 L 2928,1245 L 2926,1247 L 2925,1248 L 2921,1251 L 2920,1252 L 2916,1255 L 2914,1256 L 2909,1258 L 2907,1259 L 2901,1261 L 2899,1262 L 2891,1264 L 2889,1265 L 2879,1266 L 2876,1266 L 2872,1266 L 2874,1256 L 2874,1253 L 2875,1244 L 2875,1241 L 2876,1236 L 2876,1233 L 2876,1229 L 2876,1226 L 2876,1225 L 2876,1224 L 2876,1094 L 2876,1091 L 2875,1084 L 2870,1077 L 2868,1075 L 2863,1071 L 2861,1070 L 2856,1067 L 2856,1067 L 2854,1066 L 2849,1062 L 2849,1061 L 2850,1059 L 2852,1053 L 2853,1050 L 2855,1046 L 2856,1044 L 2859,1039 L 2860,1038 L 2863,1034 L 2864,1032 L 2866,1031 L 2974,923 L 2975,922 L 2977,920 L 2981,917 L 2982,916 L 2983,916 L 2985,916 L 2993,913 L 2996,912 L 3162,816 L 3164,814 L 3170,810 L 3173,802 L 3174,794 L 3172,787 L 3170,784 L 3134,721 L 3132,719 L 3127,713 L 3120,709 L 3112,709 L 3105,711 L 3102,712 L 2936,808 L 2933,810 L 2928,815 L 2924,822 L 2924,830 L 2925,836 L 2926,838 L 2926,838 L 2927,840 L 2928,844 L 2929,847 L 2930,850 L 2929,852 L 2928,854 L 2925,858 L 2924,860 L 2921,863 L 2920,865 L 2918,867 L 2763,1022 L 2761,1024 L 2759,1026 L 2756,1030 L 2754,1035 L 2753,1037 L 2752,1039 L 2751,1044 L 2750,1046 L 2750,1048 L 2750,1049 L 2749,1051 L 2749,1052 L 2748,1055 L 2748,1058 L 2746,1063 L 2745,1066 L 2744,1066 L 2740,1068 L 2737,1069 L 2732,1070 L 2730,1070 L 2727,1070 L 2722,1071 L 2715,1072 L 2708,1077 L 2703,1084 L 2703,1085 L 2701,1091 L 2701,1091 L 2701,1093 L 2699,1098 L 2698,1100 L 2696,1105 L 2695,1107 L 2691,1114 L 2690,1116 L 2686,1122 L 2684,1121 L 2682,1120 L 2681,1119 L 2674,1115 L 2672,1114 L 2668,1112 L 2667,1110 L 2665,1109 L 2664,1108 L 2661,1106 L 2659,1105 L 2656,1102 L 2654,1100 L 2654,1099 L 2651,1096 L 2650,1096 L 2650,1096 L 2640,1088 L 2637,1086 L 2625,1079 L 2622,1077 L 2621,1077 L 2608,1073 L 2604,1073 L 2591,1071 L 2589,1070 L 2588,1070 L 2581,1071 L 2578,1072 L 2565,1074 L 2561,1076 L 2556,1077 L 2548,1081 L 2545,1083 L 2534,1091 L 2531,1093 L 2528,1095 L 2522,1104 L 2519,1107 L 2512,1118 L 2510,1122 L 2509,1123 L 2506,1135 L 2505,1138 L 2503,1152 L 2502,1156 L 2502,1158 L 2504,1169 L 2504,1173 L 2507,1186 L 2508,1190 L 2509,1193 L 2514,1202 L 2517,1205 L 2525,1216 L 2527,1220 L 2528,1221 L 2536,1227 L 2538,1228 L 2538,1228 L 2540,1230 L 2541,1231 L 2544,1233 L 2546,1235 L 2547,1236 L 2548,1239 L 2548,1242 L 2549,1247 L 2549,1249 L 2549,1252 L 2549,1364 L 2549,1367 L 2549,1369 L 2548,1374 L 2548,1377 L 2547,1380 L 2545,1381 L 2544,1382 L 2544,1383 L 2540,1386 L 2538,1388 L 2536,1389 L 2534,1391 L 2531,1393 L 2528,1395 L 2522,1404 L 2519,1407 L 2512,1418 L 2510,1422 L 2509,1423 L 2506,1435 L 2505,1438 L 2503,1452 L 2502,1456 L 2502,1458 L 2504,1469 L 2504,1473 L 2507,1486 L 2508,1490 L 2509,1493 L 2514,1502 L 2517,1505 L 2525,1516 L 2527,1520 L 2528,1521 L 2536,1527 L 2538,1528 L 2538,1528 L 2540,1530 L 2541,1531 L 2544,1533 L 2546,1535 L 2547,1536 L 2548,1539 L 2548,1542 L 2549,1547 L 2549,1549 L 2549,1552 L 2549,1664 L 2549,1667 L 2549,1669 L 2548,1674 L 2548,1677 L 2547,1680 L 2545,1681 L 2544,1682 L 2544,1683 L 2540,1686 L 2538,1688 L 2536,1689 L 2534,1691 L 2531,1693 L 2528,1695 L 2522,1703 L 2519,1707 L 2512,1718 L 2510,1722 L 2509,1723 L 2506,1735 L 2505,1738 L 2503,1752 L 2502,1756 L 2502,1758 L 2503,1768 L 2503,1769 L 2504,1770 L 2504,1773 L 2504,1773 L 2504,1778 L 2505,1780 L 2504,1784 L 2504,1785 L 2502,1787 L 2499,1791 L 2498,1793 L 2496,1795 L 2343,1948 L 2341,1950 L 2339,1952 L 2336,1956 L 2334,1961 L 2333,1963 L 2332,1965 L 2331,1970 L 2330,1975 L 2330,1978 L 2329,1981 L 2329,2012 L 2329,2015 L 2329,2018 L 2328,2023 L 2328,2026 L 2327,2028 L 2326,2029 L 2325,2030 L 2323,2032 L 2321,2034 L 2317,2037 L 2314,2040 L 2305,2049 L 2303,2052 L 2302,2053 L 2297,2064 L 2295,2067 L 2291,2079 L 2290,2082 L 2290,2083 L 2289,2096 L 2289,2100 L 2290,2113 L 2290,2114 L 2291,2117 L 2295,2128 L 2297,2132 L 2302,2143 L 2303,2143 L 2305,2147 L 2314,2156 L 2317,2159 L 2324,2165 L 2327,2166 L 2331,2168 L 2342,2173 L 2346,2175 L 2353,2177 L 2358,2177 L 2363,2178 L 2375,2178 L 2379,2177 L 2380,2177 L 2383,2177 L 2386,2177 L 2389,2177 L 2391,2178 L 2393,2180 L 2398,2183 L 2399,2185 L 2401,2187 L 2440,2226 L 2442,2227 L 2444,2229 L 2447,2234 L 2448,2235 L 2448,2236 L 2449,2242 L 2449,2244 L 2449,2247 L 2449,2387 L 2449,2389 L 2449,2392 L 2448,2396 L 2448,2398 L 2447,2403 L 2446,2405 L 2444,2411 L 2444,2413 L 2443,2415 L 2438,2416 L 2436,2416 L 2431,2417 L 2429,2417 L 2428,2417 L 2424,2417 L 2422,2417 L 2419,2418 L 2357,2418 L 2354,2417 L 2351,2417 L 2346,2417 L 2346,2417 L 2344,2415 L 2339,2412 L 2337,2410 L 2335,2408 L 1979,2052 L 1977,2050 L 1975,2049 L 1971,2046 L 1966,2043 L 1964,2042 L 1962,2041 L 1957,2040 L 1952,2039 L 1949,2039 L 1946,2038 L 1822,2038 L 1819,2038 L 1817,2038 L 1812,2038 L 1810,2037 L 1805,2036 L 1803,2035 L 1797,2033 L 1797,2033 L 1796,2031 L 1794,2026 L 1794,2023 L 1793,2018 L 1792,2016 L 1792,2015 L 1792,2014 L 1791,2008 L 1786,2001 L 1780,1996 L 1772,1995 L 1769,1994 L 1649,1994 L 1646,1995 L 1639,1996 L 1632,2001 L 1627,2007 L 1626,2014 L 1626,2015 L 1626,2017 L 1625,2019 L 1624,2024 L 1624,2026 L 1622,2031 L 1621,2033 L 1621,2033 L 1615,2035 L 1613,2036 L 1608,2037 L 1606,2038 L 1601,2038 L 1599,2038 L 1596,2038 L 1457,2038 L 1454,2039 L 1452,2039 L 1448,2039 L 1444,2040 L 1440,2041 L 1439,2042 L 1436,2043 L 1433,2045 L 1429,2048 L 1426,2050 L 1426,2050 L 1423,2053 L 1421,2057 L 1420,2057 L 1418,2060 L 1418,2061 L 1418,2061 L 1320,2159 L 1318,2161 L 1316,2163 L 1312,2166 L 1310,2167 L 1306,2169 L 1306,2169 L 1304,2169 L 1302,2169 L 1299,2169 L 1292,2168 L 1287,2168 L 1273,2168 L 1269,2168 L 1263,2169 L 1256,2171 L 1252,2173 L 1239,2178 L 1235,2180 L 1233,2181 L 1224,2189 L 1221,2192 L 1211,2202 L 1209,2205 L 1207,2208 L 1202,2218 L 1200,2221 L 1195,2235 L 1194,2238 L 1194,2239 L 1194,2253 L 1194,2257 L 1194,2271 L 1194,2272 L 1195,2275 L 1200,2288 L 1202,2292 L 1208,2303 L 1208,2305 L 1211,2308 L 1221,2318 L 1224,2321 L 1232,2328 L 1235,2329 L 1239,2331 L 1252,2337 L 1256,2338 L 1263,2341 L 1269,2341 L 1273,2342 L 1287,2342 L 1292,2341 L 1297,2341 L 1305,2338 L 1309,2337 L 1322,2331 L 1326,2329 L 1329,2328 L 1337,2321 L 1340,2318 L 1350,2308 L 1353,2305 L 1353,2304 L 1359,2292 L 1361,2288 L 1365,2275 L 1367,2272 L 1367,2271 L 1367,2257 L 1367,2253 L 1367,2239 L 1366,2236 L 1366,2234 L 1366,2234 L 1366,2231 L 1366,2229 L 1368,2226 L 1369,2223 L 1373,2219 L 1374,2217 L 1376,2215 L 1465,2126 L 1467,2125 L 1469,2123 L 1473,2120 L 1474,2119 L 1476,2119 L 1481,2118 L 1484,2118 L 1486,2118 L 1596,2118 L 1599,2118 L 1601,2118 L 1606,2118 L 1608,2119 L 1613,2120 L 1615,2121 L 1621,2123 L 1621,2123 L 1622,2125 L 1624,2130 L 1624,2133 L 1625,2137 L 1626,2140 L 1626,2141 L 1626,2142 L 1627,2148 L 1632,2155 L 1638,2160 L 1646,2161 L 1649,2161 L 1769,2161 L 1772,2161 L 1779,2160 L 1786,2155 L 1791,2149 L 1792,2142 L 1792,2141 L 1792,2139 L 1793,2137 L 1794,2132 L 1794,2130 L 1796,2125 L 1797,2123 L 1797,2123 L 1803,2121 L 1805,2120 L 1810,2119 L 1812,2118 L 1817,2118 L 1819,2118 L 1822,2118 L 1920,2118 L 1923,2118 L 1925,2118 L 1931,2119 L 1932,2119 L 1933,2120 L 1937,2123 L 1939,2125 L 1941,2126 L 2279,2464 L 2281,2466 L 2283,2468 L 2286,2473 L 2288,2475 L 2288,2475 L 2288,2480 L 2288,2483 L 2289,2486 L 2289,2555 L 2289,2558 L 2290,2565 L 2295,2572 L 2301,2576 L 2309,2578 L 2312,2578 L 2419,2578 L 2421,2578 L 2424,2578 L 2428,2579 L 2429,2579 L 2431,2579 L 2436,2580 L 2438,2580 L 2443,2580 L 2444,2583 L 2444,2585 L 2446,2590 L 2447,2593 L 2448,2597 L 2448,2600 L 2449,2604 L 2449,2606 L 2449,2609 L 2449,2884 L 2449,2887 L 2449,2889 L 2448,2894 L 2448,2897 L 2447,2899 L 2445,2901 L 2444,2902 L 2444,2903 L 2440,2906 L 2438,2908 L 2436,2909 L 2434,2911 L 2431,2913 L 2428,2915 L 2422,2923 L 2419,2926 L 2412,2938 L 2410,2941 L 2409,2943 L 2406,2954 L 2405,2958 L 2403,2971 L 2402,2975 L 2402,2978 L 2404,2989 L 2404,2993 L 2407,3006 L 2408,3010 L 2409,3013 L 2414,3022 L 2417,3025 L 2425,3036 L 2427,3039 L 2428,3041 L 2436,3046 L 2438,3048 L 2438,3048 L 2440,3050 L 2441,3050 L 2444,3053 L 2446,3054 L 2447,3056 L 2448,3059 L 2448,3061 L 2449,3067 L 2449,3069 L 2449,3071 L 2449,3266 L 2449,3269 L 2449,3271 L 2448,3277 L 2448,3278 L 2447,3279 L 2444,3283 L 2442,3285 L 2440,3287 L 2380,3347 L 2379,3349 L 2377,3350 L 2374,3353 L 2372,3354 L 2368,3357 L 2366,3358 L 2362,3360 L 2359,3361 L 2354,3363 L 2351,3364 L 2344,3366 L 2342,3366 L 2342,3366 L 2338,3359 L 2337,3357 L 2334,3351 L 2333,3349 L 2331,3344 L 2331,3342 L 2330,3337 L 2329,3335 L 2329,3330 L 2329,3328 L 2329,3326 L 2329,3181 L 2328,3178 L 2327,3171 L 2323,3164 L 2316,3160 L 2308,3158 L 2305,3158 L 2232,3158 L 2230,3158 L 2222,3159 L 2215,3164 L 2211,3170 L 2209,3178 L 2209,3181 L 2209,3373 L 2209,3376 L 2211,3383 L 2215,3390 L 2222,3395 L 2230,3396 L 2233,3396 L 2258,3396 L 2261,3396 L 2263,3397 L 2267,3397 L 2269,3397 L 2274,3398 L 2276,3399 L 2281,3401 L 2283,3402 L 2289,3404 L 2291,3405 L 2298,3409 L 2299,3410 L 2298,3412 L 2296,3419 L 2296,3421 L 2293,3427 L 2293,3429 L 2290,3434 L 2289,3436 L 2287,3440 L 2285,3442 L 2283,3445 L 2281,3447 L 2280,3448 L 2239,3489 L 2237,3491 L 2235,3493 L 2230,3496 L 2229,3497 L 2228,3497 L 2223,3498 L 2220,3498 L 2217,3498 L 2159,3498 L 2157,3498 L 2155,3498 L 2150,3497 L 2148,3497 L 2143,3496 L 2141,3495 L 2136,3493 L 2134,3493 L 2134,3492 L 2132,3487 L 2131,3484 L 2130,3479 L 2130,3477 L 2129,3473 L 2129,3470 L 2129,3468 L 2129,3442 L 2129,3439 L 2127,3432 L 2123,3425 L 2116,3420 L 2108,3419 L 2105,3418 L 2032,3418 L 2030,3419 L 2022,3420 L 2016,3424 L 2011,3431 L 2009,3439 L 2009,3442 L 2009,3468 L 2009,3470 L 2009,3473 L 2008,3477 L 2008,3479 L 2007,3484 L 2006,3487 L 2004,3492 L 2004,3493 L 2002,3493 L 1997,3495 L 1995,3496 L 1990,3497 L 1988,3497 L 1983,3498 L 1981,3498 L 1979,3498 L 1914,3498 L 1911,3498 L 1909,3498 L 1903,3497 L 1902,3497 L 1901,3496 L 1897,3493 L 1895,3491 L 1893,3489 L 1757,3354 L 1756,3352 L 1754,3350 L 1751,3346 L 1750,3345 L 1750,3343 L 1749,3338 L 1749,3335 L 1749,3333 L 1749,3164 L 1749,3162 L 1749,3160 L 1749,3155 L 1750,3153 L 1751,3148 L 1752,3145 L 1754,3140 L 1754,3140 L 1756,3139 L 1761,3137 L 1764,3136 L 1768,3135 L 1771,3135 L 1772,3135 L 1773,3135 L 1779,3133 L 1786,3129 L 1791,3122 L 1792,3114 L 1792,3111 L 1792,2991 L 1792,2989 L 1791,2981 L 1786,2974 L 1780,2970 L 1772,2968 L 1769,2968 L 1649,2968 L 1646,2968 L 1639,2970 L 1632,2974 L 1627,2981 L 1626,2989 L 1626,2992 L 1626,3112 L 1626,3114 L 1627,3122 L 1632,3129 L 1638,3133 L 1645,3135 L 1646,3135 L 1648,3135 L 1650,3135 L 1655,3136 L 1657,3137 L 1662,3139 L 1664,3140 L 1664,3140 L 1666,3145 L 1667,3148 L 1668,3153 L 1669,3155 L 1669,3160 L 1669,3162 L 1669,3164 L 1669,3359 L 1670,3362 L 1670,3364 L 1671,3369 L 1672,3374 L 1673,3377 L 1674,3379 L 1677,3383 L 1680,3387 L 1681,3389 L 1683,3392 L 1855,3564 L 1857,3566 L 1859,3567 L 1863,3570 L 1868,3573 L 1870,3574 L 1873,3575 L 1877,3576 L 1883,3577 L 1885,3577 L 1888,3577 L 1979,3577 L 1981,3577 L 1983,3578 L 1988,3578 L 1990,3578 L 1995,3580 L 1997,3580 L 2002,3582 L 2004,3583 L 2004,3583 L 2006,3589 L 2007,3591 L 2008,3596 L 2008,3598 L 2009,3603 L 2009,3605 L 2009,3607 L 2009,3622 L 2009,3624 L 2009,3626 L 2008,3631 L 2008,3633 L 2007,3637 L 1007,3637 L 568,2884 L 576,2882 L 580,2881 L 602,2879 L 605,2879 L 619,2879 L 622,2879 L 632,2881 L 635,2881 L 643,2883 L 645,2884 L 651,2886 L 653,2887 L 658,2889 L 660,2890 L 661,2891 L 663,2893 L 664,2893 L 666,2894 L 667,2895 L 668,2895 L 672,2898 L 674,2899 L 677,2900 L 682,2901 L 687,2902 L 689,2902 L 692,2903 L 796,2903 L 799,2902 L 801,2902 L 807,2901 L 811,2900 L 814,2899 L 816,2898 L 821,2895 L 825,2892 L 827,2891 L 829,2889 L 1080,2638 L 1082,2636 L 1083,2634 L 1086,2631 L 1088,2628 L 1089,2625 L 1091,2623 L 1091,2622 L 1092,2618 L 1093,2614 L 1093,2610 L 1094,2608 L 1094,2605 L 1094,2294 L 1094,2290 L 1094,2288 L 1094,2224 L 1094,2221 L 1094,2215 L 1095,2209 L 1095,2209 L 1097,2205 L 1100,2202 L 1103,2198 L 1105,2196 L 1254,2048 L 1254,2047 L 1256,2045 L 1259,2041 L 1261,2037 L 1262,2035 L 1263,2032 L 1264,2027 L 1265,2022 L 1265,2020 L 1266,2017 L 1266,1944 L 1266,1941 L 1266,1938 L 1267,1933 L 1267,1932 L 1268,1931 L 1271,1926 L 1273,1924 L 1275,1922 L 1515,1682 L 1517,1680 L 1518,1678 L 1521,1673 L 1524,1669 L 1525,1667 L 1526,1664 L 1527,1659 L 1528,1654 L 1528,1652 L 1529,1649 L 1529,1552 L 1529,1549 L 1529,1547 L 1530,1542 L 1530,1539 L 1531,1537 L 1533,1535 L 1534,1534 L 1534,1533 L 1538,1530 L 1540,1528 L 1542,1527 L 1544,1525 L 1547,1523 L 1550,1521 L 1556,1513 L 1559,1509 L 1564,1501 L 1566,1499 L 1566,1498 L 1567,1497 L 1568,1495 L 1569,1493 L 1571,1491 L 1574,1487 L 1576,1486 L 1578,1484 L 1580,1481 L 1582,1479 L 1582,1479 L 1588,1474 L 1589,1473 L 1590,1474 L 1593,1476 L 1596,1479 L 1598,1481 L 1602,1486 L 1604,1487 L 1604,1488 L 1607,1491 L 1607,1491 L 1609,1493 L 1611,1497 L 1613,1499 L 1614,1501 L 1615,1502 L 1617,1505 L 1625,1516 L 1627,1520 L 1628,1521 L 1638,1528 L 1641,1530 L 1653,1537 L 1656,1539 L 1656,1539 L 1670,1543 L 1674,1544 L 1687,1546 L 1689,1546 L 1690,1546 L 1697,1545 L 1700,1544 L 1713,1542 L 1717,1541 L 1722,1539 L 1729,1535 L 1733,1533 L 1744,1525 L 1747,1523 L 1750,1521 L 1756,1513 L 1757,1511 L 1759,1509 L 1759,1509 L 1760,1507 L 1763,1504 L 1765,1502 L 1767,1500 L 1770,1499 L 1772,1499 L 1777,1498 L 1779,1498 L 1782,1498 L 1886,1498 L 1889,1497 L 1892,1497 L 1897,1496 L 1902,1495 L 1904,1494 L 1906,1493 L 1911,1490 L 1915,1487 L 1917,1486 L 1919,1484 L 2048,1355 L 2050,1353 L 2052,1351 L 2055,1346 L 2057,1342 L 2059,1340 L 2059,1337 L 2061,1332 L 2061,1327 L 2062,1325 L 2062,1322 L 2062,738 L 2062,736 L 2062,733 L 2063,728 L 2063,726 L 2064,725 L 2067,721 L 2069,719 L 2071,717 L 2230,558 L 2232,556 L 2233,554 L 2236,549 L 2239,545 L 2240,543 L 2241,540 L 2242,535 L 2243,530 L 2243,528 L 2244,525 L 2244,521 L 2244,520 L 2244,517 L 2245,517 L 2246,513 L 2246,507 L 2247,505 L 2247,502 L 2247,248 L 2247,246 L 2247,244 L 2248,239 L 2248,237 L 2249,232 L 2250,230 L 2252,224 L 2253,222 L 2254,219 L 2257,219 L 2260,219 L 2265,219 L 2268,218 L 2270,218 L 2272,218 L 2275,218 L 2277,218 L 2345,218 L 2348,217 L 2355,216 L 2362,212 L 2367,205 L 2368,197 L 2369,194 L 2369,14 L 2369,12 L 2369,10 L 2369,5 L 2370,3 L 2371,0M 2449,455 L 2449,458 L 2451,465 L 2455,472 L 2462,476 L 2470,478 L 2473,478 L 2545,478 L 2548,478 L 2555,477 L 2562,472 L 2567,466 L 2568,458 L 2569,455 L 2569,263 L 2568,260 L 2567,253 L 2563,246 L 2556,241 L 2548,240 L 2545,240 L 2472,240 L 2470,240 L 2462,241 L 2455,246 L 2451,252 L 2449,260 L 2449,263 L 2449,455 z " style="fill-opacity:1.000000;fill:rgb(33,61,220);stroke:rgb(0,0,0);stroke-width:2"/></g>
<g fill-rule="evenodd"><path d="M 527,1091 L 511,1056 L 507,1048 L 507,1047 L 537,1007 L 538,1007 L 576,1000 L 611,998 L 682,1001 L 706,1001 L 728,977 L 776,914 L 792,890 L 805,863 L 815,833 L 823,801 L 827,766 L 829,728 L 828,687 L 824,643 L 823,631 L 819,594 L 819,587 L 816,540 L 815,489 L 841,491 L 845,492 L 927,499 L 932,499 L 944,500 L 995,536 L 998,538 L 1021,553 L 1052,573 L 1083,591 L 1114,606 L 1145,618 L 1176,627 L 1207,634 L 1239,638 L 1270,639 L 1348,639 L 1374,638 L 1414,615 L 1450,587 L 1482,554 L 1509,518 L 1558,526 L 1601,529 L 1638,525 L 1655,522 L 1670,516 L 1748,484 L 1757,479 L 1764,473 L 1770,466 L 1775,458 L 1844,290 L 1870,281 L 1933,255 L 1948,240 L 1960,226 L 1967,213 L 1968,210 L 1969,206 L 1970,202 L 1971,198 L 1971,197 L 1972,193 L 1973,189 L 1975,184 L 1976,181 L 1977,179 L 1984,162 L 1986,158 L 1988,152 L 1995,141 L 1998,136 L 2009,122 L 2014,116 L 2022,107 L 2109,21 L 2196,107 L 2204,116 L 2209,122 L 2220,136 L 2223,141 L 2230,152 L 2232,158 L 2234,162 L 2241,179 L 2243,183 L 2244,188 L 2246,194 L 2247,197 L 2247,199 L 2249,205 L 2250,210 L 2251,213 L 2254,219 L 2253,222 L 2252,224 L 2250,230 L 2249,232 L 2248,237 L 2248,239 L 2247,244 L 2247,246 L 2247,248 L 2247,502 L 2247,505 L 2246,507 L 2246,513 L 2245,517 L 2244,517 L 2244,520 L 2244,521 L 2244,525 L 2243,528 L 2243,530 L 2242,535 L 2241,540 L 2240,543 L 2239,545 L 2236,549 L 2233,554 L 2232,556 L 2230,558 L 2071,717 L 2069,719 L 2067,721 L 2064,725 L 2063,726 L 2063,728 L 2062,733 L 2062,736 L 2062,738 L 2062,1322 L 2062,1325 L 2061,1327 L 2061,1332 L 2059,1337 L 2059,1340 L 2057,1342 L 2055,1346 L 2052,1351 L 2050,1353 L 2048,1355 L 1919,1484 L 1917,1486 L 1915,1487 L 1911,1490 L 1906,1493 L 1904,1494 L 1902,1495 L 1897,1496 L 1892,1497 L 1889,1497 L 1886,1498 L 1782,1498 L 1779,1498 L 1777,1498 L 1772,1499 L 1770,1499 L 1767,1500 L 1765,1502 L 1763,1504 L 1760,1507 L 1759,1509 L 1759,1509 L 1757,1511 L 1756,1513 L 1750,1521 L 1747,1523 L 1744,1525 L 1733,1533 L 1729,1535 L 1722,1539 L 1717,1541 L 1713,1542 L 1700,1544 L 1697,1545 L 1690,1546 L 1689,1546 L 1687,1546 L 1674,1544 L 1670,1543 L 1656,1539 L 1656,1539 L 1653,1537 L 1641,1530 L 1638,1528 L 1628,1521 L 1627,1520 L 1625,1516 L 1617,1505 L 1615,1502 L 1614,1501 L 1613,1499 L 1611,1497 L 1609,1493 L 1607,1491 L 1607,1491 L 1604,1488 L 1604,1487 L 1602,1486 L 1598,1481 L 1596,1479 L 1593,1476 L 1590,1474 L 1589,1473 L 1589,1470 L 1589,1467 L 1589,1460 L 1589,1456 L 1589,1450 L 1589,1446 L 1589,1439 L 1589,1436 L 1589,1428 L 1589,1425 L 1589,1417 L 1589,1414 L 1589,1404 L 1589,1401 L 1589,1389 L 1589,1388 L 1589,1372 L 1589,1372 L 1589,1358 L 1594,1358 L 1594,1358 L 1611,1358 L 1612,1358 L 1626,1358 L 1628,1358 L 1639,1358 L 1641,1358 L 1651,1358 L 1653,1358 L 1662,1358 L 1665,1358 L 1672,1358 L 1675,1358 L 1681,1358 L 1686,1358 L 1687,1358 L 1691,1358 L 1692,1358 L 1697,1358 L 1703,1358 L 1706,1358 L 1713,1358 L 1716,1358 L 1725,1358 L 1727,1358 L 1737,1358 L 1739,1358 L 1750,1358 L 1752,1358 L 1766,1358 L 1767,1358 L 1784,1358 L 1784,1358 L 1797,1358 L 1802,1356 L 1819,1347 L 1833,1340 L 1839,1336 L 1847,1324 L 1855,1312 L 1866,1292 L 1873,1279 L 1877,1270 L 1881,1266 L 1944,1113 L 1947,1107 L 1948,1103 L 1951,1094 L 1952,1090 L 1954,1081 L 1954,1077 L 1955,1067 L 1956,1063 L 1956,1058 L 1956,709 L 1956,703 L 1956,698 L 1958,685 L 1959,680 L 1963,667 L 1964,662 L 1967,654 L 2003,567 L 2028,542 L 2050,538 L 2070,531 L 2141,501 L 2148,496 L 2148,495 L 2152,492 L 2155,490 L 2165,474 L 2167,466 L 2168,458 L 2168,260 L 2167,252 L 2165,244 L 2156,241 L 2148,240 L 2070,240 L 2061,241 L 2053,244 L 2051,252 L 2050,260 L 2050,287 L 2050,289 L 2049,294 L 2049,300 L 2048,305 L 2046,311 L 2044,316 L 2043,319 L 2039,328 L 2030,332 L 2027,334 L 2022,336 L 2017,339 L 2012,342 L 2008,345 L 2004,349 L 2002,350 L 1861,492 L 1860,493 L 1857,496 L 1855,499 L 1853,502 L 1851,505 L 1848,508 L 1846,513 L 1844,517 L 1843,519 L 1659,963 L 1636,987 L 1627,991 L 1615,998 L 1592,1011 L 1591,1012 L 1589,1013 L 1587,1013 L 1572,1015 L 1558,1017 L 1534,1020 L 1529,1020 L 1525,1021 L 1482,1009 L 1477,1007 L 1457,1000 L 1362,960 L 1349,956 L 1344,954 L 1320,947 L 1315,946 L 1293,944 L 1288,943 L 1277,943 L 1063,943 L 1004,967 L 996,971 L 992,973 L 979,980 L 975,983 L 965,991 L 961,994 L 956,998 L 837,1118 L 833,1122 L 833,1123 L 834,1130 L 835,1132 L 837,1143 L 838,1149 L 839,1156 L 839,1162 L 840,1165 L 838,1180 L 835,1189 L 792,1245 L 786,1251 L 779,1256 L 770,1260 L 759,1262 L 752,1263 L 649,1235 L 578,1181 L 568,1172 L 559,1162 L 552,1151 L 546,1139 L 542,1131 L 540,1126 L 531,1103 L 528,1096 L 527,1091 z " style="fill-opacity:1.000000;fill:rgb(135,112,233);stroke:rgb(0,0,0);stroke-width:2"/></g>
<g fill-rule="evenodd"><path d="M 0,1911 L 0,1421 L 664,355 L 722,411 L 767,452 L 815,489 L 816,540 L 819,587 L 819,594 L 823,631 L 824,643 L 828,687 L 829,728 L 827,766 L 823,801 L 815,833 L 805,863 L 792,890 L 776,914 L 728,977 L 706,1001 L 682,1001 L 611,998 L 576,1000 L 538,1007 L 537,1007 L 507,1047 L 491,1053 L 457,1067 L 333,1084 L 323,1086 L 314,1089 L 306,1094 L 300,1101 L 266,1145 L 260,1168 L 259,1177 L 259,1185 L 261,1193 L 265,1202 L 302,1265 L 306,1273 L 309,1279 L 319,1303 L 321,1310 L 331,1347 L 332,1355 L 333,1355 L 323,1368 L 295,1405 L 135,1426 L 124,1429 L 114,1433 L 105,1438 L 98,1446 L 68,1485 L 60,1515 L 59,1524 L 59,1533 L 68,1543 L 138,1596 L 141,1599 L 145,1602 L 152,1609 L 155,1613 L 162,1622 L 165,1626 L 169,1632 L 186,1662 L 200,1695 L 192,1712 L 187,1728 L 166,1807 L 163,1824 L 164,1841 L 168,1859 L 176,1876 L 226,1962 L 281,2005 L 334,2057 L 344,2068 L 347,2072 L 366,2096 L 369,2101 L 386,2130 L 388,2135 L 395,2149 L 395,2152 L 395,2160 L 422,2225 L 422,2246 L 424,2269 L 426,2288 L 429,2304 L 433,2320 L 436,2331 L 442,2347 L 445,2354 L 452,2368 L 455,2374 L 463,2387 L 465,2391 L 474,2402 L 477,2406 L 487,2417 L 490,2419 L 502,2429 L 505,2432 L 518,2440 L 522,2443 L 536,2451 L 542,2454 L 557,2460 L 566,2463 L 582,2468 L 595,2471 L 613,2474 L 626,2476 L 638,2486 L 651,2496 L 680,2566 L 682,2572 L 684,2577 L 687,2589 L 688,2594 L 689,2605 L 690,2610 L 690,2615 L 690,2671 L 687,2676 L 684,2684 L 679,2695 L 677,2701 L 674,2712 L 673,2717 L 671,2728 L 670,2732 L 670,2743 L 669,2747 L 670,2758 L 670,2762 L 671,2773 L 672,2778 L 674,2785 L 676,2788 L 679,2792 L 686,2801 L 690,2804 L 698,2811 L 701,2814 L 708,2819 L 711,2820 L 716,2821 L 727,2823 L 731,2823 L 742,2824 L 745,2824 L 751,2823 L 754,2823 L 765,2822 L 769,2822 L 780,2819 L 781,2819 L 784,2816 L 793,2809 L 796,2806 L 804,2798 L 807,2795 L 814,2786 L 817,2782 L 823,2772 L 826,2767 L 831,2757 L 834,2750 L 839,2738 L 842,2729 L 845,2717 L 848,2704 L 850,2691 L 852,2672 L 853,2663 L 902,2545 L 902,2526 L 913,2500 L 921,2474 L 926,2448 L 928,2421 L 928,2280 L 927,2260 L 924,2241 L 920,2222 L 914,2203 L 925,2192 L 938,2179 L 943,2174 L 965,2157 L 967,2156 L 970,2154 L 976,2150 L 981,2147 L 987,2143 L 991,2140 L 996,2137 L 998,2135 L 1000,2134 L 1012,2125 L 1016,2121 L 1022,2116 L 1150,1988 L 1180,1915 L 1181,1913 L 1182,1910 L 1184,1906 L 1186,1902 L 1189,1898 L 1192,1893 L 1195,1890 L 1197,1888 L 1198,1887 L 1317,1768 L 1319,1766 L 1322,1762 L 1325,1758 L 1328,1754 L 1331,1749 L 1334,1744 L 1335,1740 L 1389,1610 L 1389,1566 L 1389,1566 L 1389,1564 L 1389,1562 L 1389,1544 L 1389,1544 L 1389,1528 L 1389,1527 L 1389,1515 L 1389,1512 L 1389,1502 L 1389,1500 L 1389,1491 L 1389,1488 L 1389,1480 L 1389,1477 L 1389,1470 L 1389,1467 L 1389,1460 L 1389,1456 L 1389,1450 L 1389,1446 L 1389,1439 L 1389,1436 L 1389,1428 L 1389,1425 L 1389,1417 L 1389,1414 L 1389,1404 L 1389,1401 L 1389,1389 L 1389,1388 L 1389,1372 L 1389,1372 L 1389,1358 L 1394,1358 L 1394,1358 L 1411,1358 L 1412,1358 L 1426,1358 L 1428,1358 L 1439,1358 L 1441,1358 L 1451,1358 L 1453,1358 L 1462,1358 L 1465,1358 L 1472,1358 L 1475,1358 L 1481,1358 L 1486,1358 L 1487,1358 L 1491,1358 L 1492,1358 L 1498,1358 L 1503,1358 L 1506,1358 L 1513,1358 L 1517,1358 L 1525,1358 L 1528,1358 L 1537,1358 L 1539,1358 L 1550,1358 L 1552,1358 L 1566,1358 L 1567,1358 L 1584,1358 L 1584,1358 L 1589,1358 L 1589,1358 L 1589,1372 L 1589,1372 L 1589,1388 L 1589,1389 L 1589,1401 L 1589,1404 L 1589,1414 L 1589,1417 L 1589,1425 L 1589,1428 L 1589,1436 L 1589,1439 L 1589,1446 L 1589,1450 L 1589,1456 L 1589,1460 L 1589,1467 L 1589,1470 L 1589,1473 L 1588,1474 L 1582,1479 L 1582,1479 L 1580,1481 L 1578,1484 L 1576,1486 L 1574,1487 L 1571,1491 L 1569,1493 L 1568,1495 L 1567,1497 L 1566,1498 L 1566,1499 L 1564,1501 L 1559,1509 L 1556,1513 L 1550,1521 L 1547,1523 L 1544,1525 L 1542,1527 L 1540,1528 L 1538,1530 L 1534,1533 L 1534,1534 L 1533,1535 L 1531,1537 L 1530,1539 L 1530,1542 L 1529,1547 L 1529,1549 L 1529,1552 L 1529,1649 L 1528,1652 L 1528,1654 L 1527,1659 L 1526,1664 L 1525,1667 L 1524,1669 L 1521,1673 L 1518,1678 L 1517,1680 L 1515,1682 L 1275,1922 L 1273,1924 L 1271,1926 L 1268,1931 L 1267,1932 L 1267,1933 L 1266,1938 L 1266,1941 L 1266,1944 L 1266,2017 L 1265,2020 L 1265,2022 L 1264,2027 L 1263,2032 L 1262,2035 L 1261,2037 L 1259,2041 L 1256,2045 L 1254,2047 L 1254,2048 L 1105,2196 L 1103,2198 L 1100,2202 L 1097,2205 L 1095,2209 L 1095,2209 L 1094,2215 L 1094,2221 L 1094,2224 L 1094,2288 L 1094,2290 L 1094,2294 L 1094,2605 L 1094,2608 L 1093,2610 L 1093,2614 L 1092,2618 L 1091,2622 L 1091,2623 L 1089,2625 L 1088,2628 L 1086,2631 L 1083,2634 L 1082,2636 L 1080,2638 L 829,2889 L 827,2891 L 825,2892 L 821,2895 L 816,2898 L 814,2899 L 811,2900 L 807,2901 L 801,2902 L 799,2902 L 796,2903 L 692,2903 L 689,2902 L 687,2902 L 682,2901 L 677,2900 L 674,2899 L 672,2898 L 668,2895 L 667,2895 L 666,2894 L 664,2893 L 663,2893 L 661,2891 L 660,2890 L 658,2889 L 653,2887 L 651,2886 L 645,2884 L 643,2883 L 635,2881 L 632,2881 L 622,2879 L 619,2879 L 605,2879 L 602,2879 L 580,2881 L 576,2882 L 568,2884 L 0,1911 z " style="fill-opacity:1.000000;fill:rgb(62,161,65);stroke:rgb(0,0,0);stroke-width:2"/></g>
<g fill-rule="evenodd"><path d="M 265,1202 L 261,1193 L 259,1185 L 259,1177 L 260,1168 L 266,1145 L 300,1101 L 306,1094 L 314,1089 L 323,1086 L 333,1084 L 457,1067 L 491,1053 L 507,1047 L 507,1048 L 511,1056 L 527,1091 L 528,1096 L 531,1103 L 540,1126 L 542,1131 L 546,1139 L 552,1151 L 559,1162 L 568,1172 L 578,1181 L 649,1235 L 752,1263 L 759,1262 L 770,1260 L 779,1256 L 786,1251 L 792,1245 L 835,1189 L 838,1180 L 840,1165 L 839,1162 L 839,1156 L 838,1149 L 837,1143 L 835,1132 L 834,1130 L 833,1123 L 833,1122 L 837,1118 L 956,998 L 961,994 L 965,991 L 975,983 L 979,980 L 992,973 L 996,971 L 1004,967 L 1063,943 L 1277,943 L 1288,943 L 1293,944 L 1315,946 L 1320,947 L 1344,954 L 1349,956 L 1362,960 L 1457,1000 L 1477,1007 L 1482,1009 L 1525,1021 L 1529,1020 L 1534,1020 L 1558,1017 L 1572,1015 L 1587,1013 L 1589,1013 L 1589,1043 L 1589,1064 L 1589,1092 L 1589,1103 L 1589,1126 L 1589,1131 L 1589,1152 L 1589,1154 L 1589,1172 L 1589,1172 L 1589,1188 L 1589,1189 L 1589,1201 L 1589,1204 L 1589,1214 L 1589,1217 L 1589,1225 L 1589,1228 L 1589,1236 L 1589,1239 L 1589,1246 L 1589,1250 L 1589,1256 L 1589,1260 L 1589,1267 L 1589,1270 L 1589,1277 L 1589,1280 L 1589,1288 L 1589,1291 L 1589,1300 L 1589,1302 L 1589,1312 L 1589,1315 L 1589,1327 L 1589,1328 L 1589,1344 L 1589,1344 L 1589,1358 L 1584,1358 L 1584,1358 L 1567,1358 L 1566,1358 L 1552,1358 L 1550,1358 L 1539,1358 L 1537,1358 L 1528,1358 L 1525,1358 L 1517,1358 L 1513,1358 L 1506,1358 L 1503,1358 L 1498,1358 L 1492,1358 L 1491,1358 L 1487,1358 L 1486,1358 L 1481,1358 L 1475,1358 L 1472,1358 L 1465,1358 L 1462,1358 L 1453,1358 L 1451,1358 L 1441,1358 L 1439,1358 L 1428,1358 L 1426,1358 L 1412,1358 L 1411,1358 L 1394,1358 L 1394,1358 L 1389,1358 L 1389,1358 L 1389,1344 L 1389,1344 L 1389,1328 L 1389,1327 L 1389,1315 L 1389,1312 L 1389,1302 L 1389,1300 L 1389,1291 L 1389,1288 L 1389,1280 L 1389,1277 L 1389,1270 L 1389,1267 L 1389,1260 L 1389,1256 L 1389,1250 L 1389,1246 L 1389,1239 L 1389,1236 L 1384,1227 L 1380,1221 L 1372,1210 L 1368,1205 L 1359,1195 L 1355,1191 L 1346,1182 L 1341,1178 L 1330,1170 L 1325,1166 L 1313,1159 L 1306,1156 L 1293,1149 L 1287,1147 L 1280,1144 L 1272,1141 L 1247,1116 L 1199,1096 L 1196,1095 L 1192,1094 L 1186,1092 L 1182,1091 L 1177,1090 L 1172,1089 L 1168,1089 L 1165,1089 L 1163,1089 L 1029,1089 L 1026,1089 L 1022,1089 L 1021,1090 L 1015,1093 L 1011,1096 L 1007,1099 L 1003,1103 L 1001,1104 L 935,1170 L 934,1172 L 930,1176 L 927,1180 L 925,1182 L 925,1185 L 924,1190 L 924,1195 L 924,1198 L 924,1209 L 924,1211 L 924,1214 L 923,1218 L 923,1223 L 922,1225 L 920,1227 L 918,1231 L 915,1233 L 913,1236 L 912,1237 L 803,1346 L 801,1348 L 797,1351 L 793,1354 L 789,1357 L 783,1360 L 779,1363 L 775,1364 L 670,1408 L 614,1408 L 607,1408 L 603,1407 L 590,1406 L 587,1406 L 574,1403 L 573,1403 L 570,1401 L 557,1393 L 553,1391 L 547,1386 L 497,1348 L 482,1348 L 411,1344 L 376,1346 L 338,1354 L 333,1355 L 332,1355 L 331,1347 L 321,1310 L 319,1303 L 309,1279 L 306,1273 L 302,1265 L 265,1202 z " style="fill-opacity:1.000000;fill:rgb(225,252,103);stroke:rgb(0,0,0);stroke-width:2"/></g>
<g fill-rule="evenodd"><path d="M 327,1489 L 311,1458 L 299,1422 L 295,1405 L 323,1368 L 333,1355 L 338,1354 L 376,1346 L 411,1344 L 482,1348 L 497,1348 L 547,1386 L 553,1391 L 557,1393 L 570,1401 L 573,1403 L 574,1403 L 587,1406 L 590,1406 L 603,1407 L 607,1408 L 614,1408 L 670,1408 L 775,1364 L 779,1363 L 783,1360 L 789,1357 L 793,1354 L 797,1351 L 801,1348 L 803,1346 L 912,1237 L 913,1236 L 915,1233 L 918,1231 L 920,1227 L 922,1225 L 923,1223 L 923,1218 L 924,1214 L 924,1211 L 924,1209 L 924,1198 L 924,1195 L 924,1190 L 925,1185 L 925,1182 L 927,1180 L 930,1176 L 934,1172 L 935,1170 L 1001,1104 L 1003,1103 L 1007,1099 L 1011,1096 L 1015,1093 L 1021,1090 L 1022,1089 L 1026,1089 L 1029,1089 L 1163,1089 L 1165,1089 L 1168,1089 L 1172,1089 L 1177,1090 L 1182,1091 L 1186,1092 L 1192,1094 L 1196,1095 L 1199,1096 L 1247,1116 L 1272,1141 L 1280,1144 L 1287,1147 L 1293,1149 L 1306,1156 L 1313,1159 L 1325,1166 L 1330,1170 L 1341,1178 L 1346,1182 L 1355,1191 L 1359,1195 L 1368,1205 L 1372,1210 L 1380,1221 L 1384,1227 L 1389,1236 L 1389,1239 L 1389,1246 L 1389,1250 L 1389,1256 L 1389,1260 L 1389,1267 L 1389,1270 L 1389,1277 L 1389,1280 L 1389,1288 L 1389,1291 L 1389,1300 L 1389,1302 L 1389,1312 L 1389,1315 L 1389,1327 L 1389,1328 L 1389,1344 L 1389,1344 L 1389,1358 L 1384,1358 L 1384,1358 L 1367,1358 L 1366,1358 L 1352,1358 L 1350,1358 L 1339,1358 L 1337,1358 L 1328,1358 L 1325,1358 L 1317,1358 L 1313,1358 L 1306,1358 L 1303,1358 L 1298,1358 L 1292,1358 L 1291,1358 L 1287,1358 L 1286,1358 L 1281,1358 L 1275,1358 L 1273,1358 L 1272,1357 L 1272,1357 L 1267,1351 L 1267,1351 L 1265,1349 L 1261,1345 L 1259,1343 L 1256,1341 L 1255,1340 L 1253,1338 L 1252,1338 L 1249,1336 L 1247,1334 L 1246,1333 L 1241,1330 L 1238,1328 L 1228,1321 L 1227,1320 L 1225,1316 L 1217,1305 L 1215,1302 L 1214,1301 L 1213,1299 L 1211,1297 L 1209,1293 L 1207,1292 L 1207,1291 L 1204,1288 L 1204,1287 L 1203,1286 L 1198,1281 L 1196,1279 L 1193,1276 L 1190,1274 L 1189,1273 L 1189,1270 L 1189,1267 L 1189,1260 L 1189,1256 L 1189,1250 L 1189,1246 L 1189,1239 L 1189,1236 L 1184,1227 L 1180,1221 L 1172,1210 L 1168,1205 L 1159,1195 L 1156,1191 L 1146,1182 L 1143,1180 L 1141,1179 L 1127,1176 L 1122,1175 L 1109,1173 L 1105,1172 L 1091,1172 L 1088,1172 L 1081,1172 L 1078,1172 L 1065,1173 L 1060,1174 L 1047,1177 L 1047,1177 L 1043,1180 L 1032,1189 L 1029,1192 L 1020,1201 L 1017,1205 L 1008,1216 L 1008,1216 L 1007,1220 L 1004,1234 L 1004,1238 L 1003,1242 L 1003,1244 L 1002,1249 L 1002,1252 L 1001,1255 L 1001,1256 L 1001,1260 L 999,1266 L 998,1269 L 997,1271 L 996,1275 L 996,1275 L 996,1277 L 991,1279 L 988,1280 L 983,1283 L 978,1286 L 973,1289 L 969,1292 L 965,1295 L 963,1297 L 912,1348 L 910,1350 L 907,1354 L 904,1358 L 901,1363 L 898,1368 L 895,1373 L 894,1376 L 804,1594 L 796,1610 L 794,1615 L 773,1651 L 770,1656 L 754,1677 L 736,1699 L 732,1704 L 722,1716 L 710,1742 L 681,1740 L 653,1736 L 626,1731 L 601,1724 L 578,1716 L 556,1706 L 536,1695 L 517,1682 L 380,1577 L 365,1549 L 327,1489 z " style="fill-opacity:1.000000;fill:rgb(62,1,126);stroke:rgb(0,0,0);stroke-width:2"/></g>
<g fill-rule="evenodd"><path d="M 1589,1256 L 1589,1250 L 1589,1246 L 1589,1239 L 1589,1236 L 1589,1228 L 1589,1225 L 1589,1217 L 1589,1214 L 1589,1204 L 1589,1201 L 1589,1189 L 1589,1188 L 1589,1172 L 1589,1172 L 1589,1154 L 1589,1152 L 1589,1131 L 1589,1126 L 1589,1103 L 1589,1092 L 1589,1064 L 1589,1043 L 1589,1013 L 1591,1012 L 1592,1011 L 1615,998 L 1627,991 L 1636,987 L 1659,963 L 1843,519 L 1844,517 L 1846,513 L 1848,508 L 1851,505 L 1853,502 L 1855,499 L 1857,496 L 1860,493 L 1861,492 L 2002,350 L 2004,349 L 2008,345 L 2012,342 L 2017,339 L 2022,336 L 2027,334 L 2030,332 L 2039,328 L 2043,319 L 2044,316 L 2046,311 L 2048,305 L 2049,300 L 2049,294 L 2050,289 L 2050,287 L 2050,260 L 2051,252 L 2053,244 L 2061,241 L 2070,240 L 2148,240 L 2156,241 L 2165,244 L 2167,252 L 2168,260 L 2168,458 L 2167,466 L 2165,474 L 2155,490 L 2152,492 L 2148,495 L 2148,496 L 2141,501 L 2070,531 L 2050,538 L 2028,542 L 2003,567 L 1967,654 L 1964,662 L 1963,667 L 1959,680 L 1958,685 L 1956,698 L 1956,703 L 1956,709 L 1956,1058 L 1956,1063 L 1955,1067 L 1954,1077 L 1954,1081 L 1952,1090 L 1951,1094 L 1948,1103 L 1947,1107 L 1944,1113 L 1881,1266 L 1877,1270 L 1873,1279 L 1866,1292 L 1855,1312 L 1847,1324 L 1839,1336 L 1833,1340 L 1819,1347 L 1802,1356 L 1797,1358 L 1784,1358 L 1784,1358 L 1767,1358 L 1766,1358 L 1752,1358 L 1750,1358 L 1739,1358 L 1737,1358 L 1727,1358 L 1725,1358 L 1716,1358 L 1713,1358 L 1706,1358 L 1703,1358 L 1697,1358 L 1692,1358 L 1691,1358 L 1687,1358 L 1686,1358 L 1681,1358 L 1675,1358 L 1672,1358 L 1665,1358 L 1662,1358 L 1653,1358 L 1651,1358 L 1641,1358 L 1639,1358 L 1628,1358 L 1626,1358 L 1612,1358 L 1611,1358 L 1594,1358 L 1594,1358 L 1589,1358 L 1589,1358 L 1589,1344 L 1589,1344 L 1589,1328 L 1589,1327 L 1589,1315 L 1589,1312 L 1589,1302 L 1589,1300 L 1589,1291 L 1589,1288 L 1589,1280 L 1589,1277 L 1589,1270 L 1589,1267 L 1589,1260 L 1589,1256 z " style="fill-opacity:1.000000;fill:rgb(151,234,220);stroke:rgb(0,0,0);stroke-width:2"/></g>
<g fill-rule="evenodd"><path d="M 2914,3063 L 2907,3059 L 2903,3052 L 2902,3045 L 2901,3042 L 2901,2914 L 2902,2911 L 2903,2903 L 2908,2896 L 2915,2892 L 2916,2892 L 2921,2890 L 2922,2890 L 2923,2890 L 2928,2888 L 2930,2887 L 2936,2885 L 2938,2884 L 2944,2880 L 2946,2879 L 2952,2874 L 2965,2876 L 2972,2877 L 2985,2878 L 2990,2878 L 2997,2878 L 3002,2877 L 3006,2877 L 3015,2872 L 3020,2869 L 3032,2861 L 3036,2858 L 3047,2849 L 3050,2846 L 3060,2836 L 3063,2832 L 3072,2821 L 3075,2817 L 3082,2805 L 3086,2800 L 3092,2787 L 3095,2779 L 3101,2765 L 3103,2760 L 3332,2530 L 3337,2526 L 3340,2522 L 3348,2511 L 3351,2507 L 3358,2495 L 3361,2490 L 3364,2482 L 3367,2476 L 3367,1649 L 3354,1629 L 3346,1609 L 3325,1531 L 3324,1522 L 3325,1512 L 3333,1503 L 3442,1420 L 3504,1403 L 3512,1402 L 3521,1402 L 3529,1404 L 3537,1408 L 3564,1423 L 3569,1431 L 3569,1434 L 3567,1444 L 3567,1447 L 3567,1455 L 3567,1457 L 3568,1464 L 3568,1466 L 3569,1472 L 3570,1474 L 3572,1479 L 3572,1480 L 3574,1487 L 3573,1495 L 3570,1502 L 3564,1507 L 3562,1509 L 3503,1543 L 3501,1544 L 3500,1545 L 3496,1547 L 3494,1549 L 3491,1552 L 3491,1552 L 3490,1554 L 3489,1558 L 3489,1560 L 3489,1565 L 3488,1567 L 3488,1569 L 3488,1822 L 3488,1824 L 3489,1827 L 3489,1832 L 3490,1834 L 3491,1839 L 3491,1841 L 3493,1847 L 3494,1849 L 3498,1856 L 3499,1858 L 3504,1866 L 3506,1868 L 3506,1868 L 3507,1878 L 3503,1883 L 3502,1885 L 3498,1892 L 3496,1894 L 3494,1900 L 3493,1902 L 3491,1907 L 3490,1909 L 3489,1914 L 3489,1916 L 3489,1921 L 3488,1923 L 3488,1925 L 3488,2507 L 3488,2510 L 3488,2513 L 3487,2518 L 3486,2523 L 3485,2525 L 3484,2527 L 3481,2532 L 3478,2536 L 3477,2538 L 3475,2540 L 3085,2929 L 3084,2931 L 3082,2933 L 3079,2937 L 3077,2940 L 3077,2940 L 3076,2945 L 3076,2948 L 3076,2951 L 3076,3042 L 3076,3045 L 3074,3053 L 3070,3059 L 3063,3064 L 3056,3065 L 3053,3065 L 2925,3065 L 2922,3065 L 2914,3063 z " style="fill-opacity:1.000000;fill:rgb(107,150,143);stroke:rgb(0,0,0);stroke-width:2"/></g>
<g fill-rule="evenodd"><path d="M 2714,1844 L 2707,1839 L 2703,1832 L 2703,1831 L 2701,1826 L 2701,1825 L 2701,1824 L 2699,1819 L 2698,1817 L 2696,1811 L 2695,1809 L 2691,1803 L 2690,1801 L 2685,1795 L 2687,1787 L 2688,1780 L 2689,1766 L 2689,1760 L 2688,1746 L 2688,1739 L 2686,1726 L 2685,1718 L 2682,1705 L 2679,1697 L 2677,1691 L 2675,1683 L 2672,1671 L 2670,1659 L 2680,1634 L 2696,1608 L 2722,1608 L 2856,1608 L 2890,1608 L 2911,1592 L 2929,1572 L 2945,1550 L 2957,1525 L 2986,1455 L 3099,1342 L 3099,1341 L 3099,1314 L 3101,1289 L 3114,1191 L 3117,1180 L 3120,1170 L 3126,1162 L 3133,1155 L 3291,1034 L 3311,1022 L 3336,1013 L 3365,1009 L 3398,1009 L 3420,1014 L 3473,1029 L 3459,1083 L 3447,1119 L 3431,1150 L 3392,1210 L 3382,1229 L 3373,1250 L 3370,1251 L 3369,1252 L 3355,1276 L 3353,1282 L 3348,1292 L 3301,1404 L 3299,1408 L 3297,1413 L 3293,1420 L 3290,1424 L 3286,1430 L 3283,1434 L 3280,1436 L 3253,1464 L 3250,1466 L 3247,1470 L 3243,1476 L 3240,1480 L 3236,1487 L 3234,1492 L 3232,1496 L 3231,1497 L 3230,1497 L 3223,1499 L 3220,1500 L 3215,1502 L 3212,1503 L 3208,1505 L 3206,1506 L 3202,1509 L 3200,1510 L 3197,1513 L 3195,1514 L 3194,1516 L 2925,1784 L 2923,1786 L 2921,1787 L 2917,1790 L 2912,1793 L 2910,1794 L 2908,1795 L 2903,1796 L 2901,1797 L 2899,1797 L 2898,1797 L 2896,1797 L 2895,1798 L 2892,1799 L 2889,1799 L 2884,1801 L 2882,1802 L 2881,1802 L 2879,1807 L 2878,1809 L 2877,1814 L 2877,1817 L 2876,1819 L 2876,1825 L 2874,1833 L 2870,1839 L 2863,1844 L 2856,1845 L 2853,1845 L 2725,1845 L 2722,1845 L 2714,1844 z " style="fill-opacity:1.000000;fill:rgb(56,92,42);stroke:rgb(0,0,0);stroke-width:2"/></g>
<g fill-rule="evenodd"><path d="M 3796,1304 L 3928,1536 L 3917,1542 L 3913,1543 L 3904,1547 L 3902,1548 L 3896,1550 L 3893,1551 L 3891,1552 L 3888,1552 L 3886,1553 L 3882,1555 L 3880,1556 L 3878,1557 L 3721,1647 L 3719,1649 L 3711,1651 L 3703,1651 L 3696,1647 L 3691,1641 L 3689,1639 L 3653,1576 L 3652,1573 L 3649,1566 L 3650,1558 L 3653,1550 L 3659,1546 L 3662,1544 L 3663,1543 L 3667,1540 L 3669,1538 L 3673,1535 L 3675,1533 L 3678,1529 L 3680,1528 L 3683,1523 L 3683,1523 L 3682,1520 L 3680,1515 L 3679,1513 L 3676,1509 L 3675,1507 L 3672,1502 L 3669,1499 L 3667,1496 L 3622,1452 L 3621,1450 L 3619,1449 L 3615,1446 L 3614,1445 L 3609,1442 L 3607,1441 L 3602,1438 L 3600,1437 L 3594,1435 L 3591,1435 L 3583,1433 L 3581,1432 L 3570,1431 L 3569,1431 L 3564,1423 L 3537,1408 L 3529,1404 L 3521,1402 L 3512,1402 L 3504,1403 L 3442,1420 L 3333,1503 L 3325,1512 L 3324,1522 L 3325,1531 L 3346,1609 L 3354,1629 L 3367,1649 L 3367,2476 L 3364,2482 L 3361,2490 L 3358,2495 L 3351,2507 L 3348,2511 L 3340,2522 L 3337,2526 L 3332,2530 L 3103,2760 L 3101,2765 L 3095,2779 L 3092,2787 L 3086,2800 L 3082,2805 L 3075,2817 L 3072,2821 L 3063,2832 L 3060,2836 L 3050,2846 L 3047,2849 L 3036,2858 L 3032,2861 L 3020,2869 L 3015,2872 L 3006,2877 L 3002,2877 L 2997,2878 L 2990,2878 L 2985,2878 L 2972,2877 L 2965,2876 L 2952,2874 L 2952,2874 L 2951,2873 L 2950,2870 L 2948,2866 L 2946,2863 L 2945,2861 L 2941,2856 L 2940,2854 L 2939,2853 L 2937,2850 L 2936,2849 L 2935,2848 L 2932,2845 L 2931,2843 L 2927,2840 L 2927,2839 L 2926,2839 L 2924,2836 L 2916,2825 L 2914,2822 L 2908,2811 L 2907,2810 L 2906,2806 L 2903,2793 L 2903,2789 L 2901,2778 L 2901,2775 L 2902,2771 L 2904,2758 L 2905,2754 L 2908,2745 L 2910,2741 L 2912,2738 L 2919,2726 L 2921,2723 L 2926,2717 L 2931,2713 L 2934,2711 L 2945,2703 L 2949,2701 L 2954,2698 L 2961,2696 L 2965,2695 L 2978,2692 L 2981,2692 L 2988,2691 L 2989,2691 L 2991,2691 L 2999,2692 L 3001,2693 L 3004,2693 L 3004,2693 L 3008,2693 L 3008,2693 L 3011,2693 L 3015,2694 L 3016,2693 L 3018,2691 L 3022,2688 L 3024,2686 L 3026,2685 L 3236,2475 L 3238,2473 L 3239,2471 L 3243,2466 L 3244,2465 L 3244,2464 L 3244,2459 L 3245,2456 L 3245,2453 L 3245,1537 L 3245,1535 L 3245,1533 L 3244,1528 L 3244,1526 L 3243,1522 L 3242,1519 L 3240,1514 L 3240,1512 L 3237,1507 L 3236,1504 L 3232,1498 L 3231,1497 L 3232,1496 L 3234,1492 L 3236,1487 L 3240,1480 L 3243,1476 L 3247,1470 L 3250,1466 L 3253,1464 L 3280,1436 L 3283,1434 L 3286,1430 L 3290,1424 L 3293,1420 L 3297,1413 L 3299,1408 L 3301,1404 L 3348,1292 L 3353,1282 L 3355,1276 L 3369,1252 L 3370,1251 L 3373,1250 L 3374,1250 L 3395,1260 L 3402,1263 L 3408,1266 L 3418,1271 L 3475,1304 L 3487,1310 L 3500,1313 L 3512,1314 L 3524,1312 L 3589,1294 L 3596,1293 L 3601,1292 L 3616,1290 L 3622,1289 L 3642,1289 L 3648,1290 L 3660,1291 L 3747,1302 L 3794,1306 L 3796,1304 z " style="fill-opacity:1.000000;fill:rgb(236,176,59);stroke:rgb(0,0,0);stroke-width:2"/></g>
<g fill-rule="evenodd"><path d="M 3467,729 L 3597,957 L 3560,979 L 3560,979 L 3473,1029 L 3420,1014 L 3398,1009 L 3365,1009 L 3336,1013 L 3311,1022 L 3291,1034 L 3133,1155 L 3126,1162 L 3120,1170 L 3117,1180 L 3114,1191 L 3101,1289 L 3099,1314 L 3099,1341 L 3099,1342 L 2986,1455 L 2957,1525 L 2945,1550 L 2929,1572 L 2911,1592 L 2890,1608 L 2856,1608 L 2722,1608 L 2696,1608 L 2680,1583 L 2670,1557 L 2672,1546 L 2676,1531 L 2678,1525 L 2679,1522 L 2682,1508 L 2684,1501 L 2687,1487 L 2688,1480 L 2689,1466 L 2689,1460 L 2688,1446 L 2688,1439 L 2686,1426 L 2685,1419 L 2682,1405 L 2679,1397 L 2677,1391 L 2675,1383 L 2672,1371 L 2670,1359 L 2680,1334 L 2696,1308 L 2722,1308 L 2776,1308 L 2856,1275 L 2872,1266 L 2876,1266 L 2879,1266 L 2889,1265 L 2891,1264 L 2899,1262 L 2901,1261 L 2907,1259 L 2909,1258 L 2914,1256 L 2916,1255 L 2920,1252 L 2921,1251 L 2925,1248 L 2926,1247 L 2928,1245 L 3250,923 L 3251,922 L 3253,920 L 3256,917 L 3257,915 L 3260,911 L 3261,909 L 3262,906 L 3262,904 L 3261,902 L 3260,897 L 3259,895 L 3256,889 L 3253,883 L 3252,880 L 3249,873 L 3250,865 L 3254,858 L 3259,853 L 3261,851 L 3422,759 L 3424,757 L 3425,756 L 3429,754 L 3430,753 L 3431,752 L 3434,749 L 3436,748 L 3441,745 L 3444,743 L 3452,738 L 3455,736 L 3467,729 z " style="fill-opacity:1.000000;fill:rgb(251,50,175);stroke:rgb(0,0,0);stroke-width:2"/></g>
<g fill-rule="evenodd"><path d="M 2696,1308 L 2680,1283 L 2670,1257 L 2672,1246 L 2676,1231 L 2678,1225 L 2679,1222 L 2682,1208 L 2684,1201 L 2687,1187 L 2688,1180 L 2689,1167 L 2689,1160 L 2688,1146 L 2688,1139 L 2686,1126 L 2686,1122 L 2690,1116 L 2691,1114 L 2695,1107 L 2696,1105 L 2698,1100 L 2699,1098 L 2701,1093 L 2701,1091 L 2701,1091 L 2703,1085 L 2703,1084 L 2708,1077 L 2715,1072 L 2722,1071 L 2727,1070 L 2730,1070 L 2732,1070 L 2737,1069 L 2740,1068 L 2744,1066 L 2745,1066 L 2746,1063 L 2748,1058 L 2748,1055 L 2749,1052 L 2749,1051 L 2750,1049 L 2750,1048 L 2750,1046 L 2751,1044 L 2752,1039 L 2753,1037 L 2754,1035 L 2756,1030 L 2759,1026 L 2761,1024 L 2763,1022 L 2918,867 L 2920,865 L 2921,863 L 2924,860 L 2925,858 L 2928,854 L 2929,852 L 2930,850 L 2929,847 L 2928,844 L 2927,840 L 2926,838 L 2926,838 L 2925,836 L 2924,830 L 2924,822 L 2928,815 L 2933,810 L 2936,808 L 3102,712 L 3105,711 L 3112,709 L 3120,709 L 3127,713 L 3132,719 L 3134,721 L 3170,784 L 3172,787 L 3174,794 L 3173,802 L 3170,810 L 3164,814 L 3162,816 L 2996,912 L 2993,913 L 2985,916 L 2983,916 L 2982,916 L 2981,917 L 2977,920 L 2975,922 L 2974,923 L 2866,1031 L 2864,1032 L 2863,1034 L 2860,1038 L 2859,1039 L 2856,1044 L 2855,1046 L 2853,1050 L 2852,1053 L 2850,1059 L 2849,1061 L 2849,1062 L 2854,1066 L 2856,1067 L 2856,1067 L 2861,1070 L 2863,1071 L 2868,1075 L 2870,1077 L 2875,1084 L 2876,1091 L 2876,1094 L 2876,1224 L 2876,1225 L 2876,1226 L 2876,1229 L 2876,1233 L 2876,1236 L 2875,1241 L 2875,1244 L 2874,1253 L 2874,1256 L 2872,1266 L 2856,1275 L 2776,1308 L 2722,1308 L 2696,1308 z " style="fill-opacity:1.000000;fill:rgb(60,84,236);stroke:rgb(0,0,0);stroke-width:2"/></g>
</svg>
