<?xml version="1.0" standalone="no"?>
<!DOCTYPE svg PUBLIC "-//W3C//DTD SVG 1.1//EN"
"http://www.w3.org/Graphics/SVG/1.1/DTD/svg11.dtd">
<svg width="4015" height="3637" viewBox="0 0 4015 3637" version="1.1"
xmlns="http://www.w3.org/2000/svg"
xmlns:xlink="http://www.w3.org/1999/xlink">
<g fill-rule="evenodd"><path d="M 1031,1851 L 1003,1823 L 1001,1821 L 1000,1818 L 1000,1816 L 1000,1405 L 1000,1402 L 1001,1400 L 1003,1398 L 1013,1388 L 1015,1386 L 1017,1385 L 1021,1385 L 1045,1380 L 1067,1365 L 1069,1364 L 1071,1364 L 1074,1364 L 1089,1367 L 1130,1359 L 1165,1336 L 1181,1312 L 1182,1310 L 1184,1309 L 1186,1308 L 1188,1307 L 1190,1307 L 1192,1308 L 1194,1309 L 1196,1310 L 1197,1312 L 1214,1336 L 1234,1350 L 1236,1351 L 1237,1353 L 1238,1355 L 1239,1357 L 1239,1359 L 1238,1361 L 1237,1363 L 1236,1365 L 1234,1366 L 1214,1380 L 1190,1415 L 1182,1457 L 1182,1459 L 1190,1501 L 1214,1536 L 1225,1543 L 1227,1545 L 1228,1547 L 1229,1549 L 1229,1552 L 1229,1712 L 1229,1714 L 1228,1717 L 1226,1719 L 1060,1885 L 1058,1887 L 1056,1888 L 1054,1888 L 1052,1888 L 1050,1888 L 1048,1887 L 1046,1886 L 1045,1884 L 1043,1882 L 1031,1851 z " style="fill-opacity:1.000000;fill:rgb(103,198,105);stroke:rgb(0,0,0);stroke-width:2"/></g>
<g fill-rule="evenodd"><path d="M 4014,1778 L 4014,1781 L 4013,1783 L 2985,3627 L 2983,3628 L 2982,3630 L 2980,3631 L 2978,3632 L 2976,3632 L 2559,3632 L 2557,3632 L 2555,3631 L 2553,3630 L 2551,3628 L 2550,3626 L 2549,3624 L 2549,3622 L 2549,3440 L 2546,3424 L 2537,3410 L 2524,3401 L 2507,3398 L 2492,3398 L 2490,3397 L 2488,3396 L 2487,3394 L 2486,3393 L 2485,3391 L 2484,3389 L 2485,3386 L 2485,3384 L 2486,3383 L 2487,3381 L 2530,3338 L 2544,3318 L 2549,3294 L 2549,3071 L 2549,3069 L 2550,3067 L 2551,3065 L 2553,3063 L 2564,3056 L 2587,3021 L 2596,2979 L 2596,2976 L 2587,2935 L 2564,2900 L 2553,2892 L 2551,2891 L 2550,2889 L 2549,2887 L 2549,2884 L 2549,2288 L 2549,2285 L 2550,2283 L 2551,2281 L 2552,2280 L 2554,2279 L 2556,2278 L 2559,2278 L 2853,2278 L 2877,2273 L 2897,2259 L 2902,2255 L 2904,2254 L 2907,2253 L 2909,2253 L 2911,2254 L 2913,2255 L 2935,2270 L 2937,2271 L 2938,2273 L 2939,2275 L 2940,2277 L 2940,2279 L 2939,2281 L 2938,2283 L 2937,2285 L 2935,2286 L 2911,2302 L 2888,2337 L 2880,2378 L 2888,2419 L 2911,2453 L 2946,2476 L 2987,2485 L 2990,2485 L 3032,2476 L 3067,2453 L 3090,2419 L 3098,2378 L 3090,2337 L 3067,2302 L 3042,2286 L 3041,2285 L 3039,2283 L 3038,2281 L 3038,2279 L 3038,2277 L 3038,2275 L 3039,2273 L 3041,2271 L 3042,2270 L 3067,2253 L 3090,2219 L 3098,2178 L 3090,2137 L 3067,2102 L 3032,2079 L 2990,2071 L 2987,2071 L 2946,2079 L 2911,2102 L 2903,2114 L 2902,2116 L 2900,2117 L 2898,2118 L 2871,2123 L 2851,2136 L 2832,2155 L 2830,2157 L 2828,2158 L 2825,2158 L 2518,2158 L 2515,2158 L 2513,2157 L 2511,2155 L 2472,2116 L 2470,2114 L 2469,2112 L 2469,2109 L 2469,2078 L 2454,2041 L 2431,2019 L 2430,2017 L 2429,2015 L 2429,2012 L 2429,2007 L 2429,2004 L 2430,2002 L 2431,2000 L 2565,1867 L 2566,1865 L 2569,1864 L 2571,1864 L 2574,1864 L 2589,1867 L 2630,1859 L 2664,1836 L 2667,1832 L 2668,1831 L 2670,1830 L 2673,1830 L 2675,1830 L 2677,1830 L 2679,1831 L 2680,1832 L 2682,1834 L 2683,1836 L 2684,1840 L 2693,1853 L 2706,1862 L 2723,1866 L 2855,1866 L 2870,1863 L 2884,1854 L 2893,1841 L 2897,1823 L 2898,1821 L 2899,1819 L 2900,1818 L 2902,1816 L 2905,1816 L 2918,1813 L 2938,1800 L 3208,1530 L 3209,1528 L 3211,1528 L 3213,1527 L 3215,1527 L 3218,1527 L 3220,1528 L 3221,1529 L 3223,1531 L 3224,1533 L 3225,1535 L 3225,1537 L 3225,2453 L 3224,2456 L 3223,2458 L 3222,2460 L 3012,2671 L 3010,2672 L 3007,2673 L 3005,2674 L 3003,2673 L 2990,2671 L 2987,2671 L 2946,2679 L 2911,2702 L 2888,2737 L 2880,2778 L 2888,2819 L 2911,2853 L 2914,2856 L 2916,2857 L 2917,2859 L 2917,2861 L 2917,2864 L 2917,2866 L 2916,2868 L 2914,2869 L 2913,2871 L 2911,2872 L 2907,2873 L 2893,2882 L 2884,2895 L 2881,2912 L 2881,3044 L 2884,3059 L 2893,3073 L 2906,3082 L 2923,3086 L 3055,3086 L 3070,3083 L 3084,3074 L 3093,3061 L 3097,3044 L 3097,2951 L 3097,2948 L 3098,2946 L 3100,2943 L 3490,2553 L 3504,2533 L 3508,2509 L 3508,1925 L 3509,1923 L 3509,1921 L 3510,1919 L 3512,1917 L 3514,1916 L 3516,1915 L 3518,1915 L 3520,1915 L 3522,1916 L 3524,1917 L 3526,1918 L 3527,1920 L 3547,1954 L 3557,1966 L 3572,1974 L 3588,1975 L 3604,1970 L 3774,1872 L 3786,1861 L 3793,1847 L 3794,1831 L 3789,1815 L 3751,1748 L 3740,1736 L 3726,1728 L 3710,1727 L 3693,1733 L 3523,1831 L 3521,1832 L 3519,1832 L 3517,1832 L 3514,1831 L 3512,1830 L 3511,1829 L 3509,1827 L 3509,1824 L 3508,1822 L 3508,1569 L 3509,1567 L 3509,1565 L 3510,1563 L 3512,1562 L 3513,1560 L 3574,1525 L 3586,1515 L 3593,1501 L 3594,1485 L 3591,1474 L 3591,1472 L 3592,1470 L 3593,1468 L 3594,1466 L 3596,1464 L 3598,1464 L 3600,1463 L 3602,1463 L 3604,1464 L 3606,1465 L 3608,1466 L 3653,1511 L 3655,1514 L 3656,1516 L 3656,1518 L 3656,1520 L 3655,1522 L 3654,1524 L 3652,1525 L 3649,1527 L 3637,1537 L 3630,1552 L 3629,1568 L 3634,1584 L 3673,1651 L 3683,1663 L 3697,1670 L 3714,1672 L 3730,1666 L 3888,1575 L 3890,1574 L 3892,1574 L 3895,1574 L 3897,1574 L 3899,1575 L 3900,1577 L 3902,1579 L 4013,1773 L 4014,1776 L 4014,1778 z " style="fill-opacity:1.000000;fill:rgb(115,81,255);stroke:rgb(0,0,0);stroke-width:2"/></g>
<g fill-rule="evenodd"><path d="M 2989,2445 L 2975,2443 L 2962,2439 L 2951,2433 L 2940,2424 L 2932,2413 L 2926,2401 L 2923,2388 L 2922,2375 L 2924,2361 L 2929,2348 L 2936,2337 L 2945,2327 L 2956,2319 L 2969,2314 L 2982,2311 L 2989,2311 L 3002,2312 L 3015,2316 L 3027,2323 L 3037,2332 L 3046,2343 L 3052,2355 L 3055,2368 L 3056,2381 L 3054,2395 L 3049,2407 L 3042,2419 L 3032,2429 L 3021,2436 L 3009,2442 L 2996,2444 L 2989,2445 z " style="fill-opacity:1.000000;fill:rgb(74,236,41);stroke:rgb(0,0,0);stroke-width:2"/></g>
<g fill-rule="evenodd"><path d="M 3640,1118 L 3680,1186 L 3509,1285 L 3469,1217 L 3640,1118 z " style="fill-opacity:1.000000;fill:rgb(205,186,171);stroke:rgb(0,0,0);stroke-width:2"/></g>
<g fill-rule="evenodd"><path d="M 3715,1768 L 3754,1836 L 3583,1935 L 3543,1867 L 3715,1768 z " style="fill-opacity:1.000000;fill:rgb(242,251,227);stroke:rgb(0,0,0);stroke-width:2"/></g>
<g fill-rule="evenodd"><path d="M 2508,3637 L 2430,3637 L 2430,3439 L 2508,3439 L 2508,3637 z " style="fill-opacity:1.000000;fill:rgb(70,124,194);stroke:rgb(0,0,0);stroke-width:2"/></g>
<g fill-rule="evenodd"><path d="M 2230,3376 L 2230,3178 L 2308,3178 L 2308,3376 L 2230,3376 z " style="fill-opacity:1.000000;fill:rgb(84,248,27);stroke:rgb(0,0,0);stroke-width:2"/></g>
<g fill-rule="evenodd"><path d="M 2470,458 L 2470,260 L 2548,260 L 2548,458 L 2470,458 z " style="fill-opacity:1.000000;fill:rgb(232,231,141);stroke:rgb(0,0,0);stroke-width:2"/></g>
<g fill-rule="evenodd"><path d="M 1670,458 L 1670,260 L 1748,260 L 1748,458 L 1670,458 z " style="fill-opacity:1.000000;fill:rgb(118,90,46);stroke:rgb(0,0,0);stroke-width:2"/></g>
<g fill-rule="evenodd"><path d="M 1270,458 L 1270,260 L 1348,260 L 1348,458 L 1270,458 z " style="fill-opacity:1.000000;fill:rgb(99,51,159);stroke:rgb(0,0,0);stroke-width:2"/></g>
<g fill-rule="evenodd"><path d="M 2270,0 L 2348,0 L 2348,197 L 2270,197 L 2270,0 z " style="fill-opacity:1.000000;fill:rgb(201,154,102);stroke:rgb(0,0,0);stroke-width:2"/></g>
<g fill-rule="evenodd"><path d="M 1870,0 L 1948,0 L 1948,197 L 1870,197 L 1870,0 z " style="fill-opacity:1.000000;fill:rgb(50,13,183);stroke:rgb(0,0,0);stroke-width:2"/></g>
<g fill-rule="evenodd"><path d="M 1470,0 L 1548,0 L 1548,197 L 1470,197 L 1470,0 z " style="fill-opacity:1.000000;fill:rgb(49,88,163);stroke:rgb(0,0,0);stroke-width:2"/></g>
<g fill-rule="evenodd"><path d="M 1070,0 L 1148,0 L 1148,197 L 1070,197 L 1070,0 z " style="fill-opacity:1.000000;fill:rgb(90,37,93);stroke:rgb(0,0,0);stroke-width:2"/></g>
<g fill-rule="evenodd"><path d="M 2108,3637 L 2030,3637 L 2030,3557 L 1885,3557 L 1880,3557 L 1875,3555 L 1871,3552 L 1695,3376 L 1692,3371 L 1690,3367 L 1689,3362 L 1689,3114 L 1646,3114 L 1646,2989 L 1772,2989 L 1772,3114 L 1729,3114 L 1729,3353 L 1893,3518 L 2030,3518 L 2030,3439 L 2108,3439 L 2108,3518 L 2238,3518 L 2469,3287 L 2469,3041 L 2462,3039 L 2451,3033 L 2440,3024 L 2432,3013 L 2426,3001 L 2423,2988 L 2422,2974 L 2424,2961 L 2429,2948 L 2436,2937 L 2445,2927 L 2456,2919 L 2469,2914 L 2469,2226 L 2395,2152 L 2387,2155 L 2375,2157 L 2363,2157 L 2350,2155 L 2339,2150 L 2329,2142 L 2320,2133 L 2314,2122 L 2310,2110 L 2309,2098 L 2310,2086 L 2314,2074 L 2320,2063 L 2329,2053 L 2339,2046 L 2349,2042 L 2349,1978 L 2350,1973 L 2352,1968 L 2355,1964 L 2530,1789 L 2526,1781 L 2523,1768 L 2522,1755 L 2524,1741 L 2529,1729 L 2536,1717 L 2545,1707 L 2556,1700 L 2569,1694 L 2569,1522 L 2562,1520 L 2551,1513 L 2540,1504 L 2532,1493 L 2526,1481 L 2523,1468 L 2522,1455 L 2524,1441 L 2529,1429 L 2536,1417 L 2545,1407 L 2556,1400 L 2569,1394 L 2569,1222 L 2562,1220 L 2551,1213 L 2540,1204 L 2532,1194 L 2526,1181 L 2523,1168 L 2522,1155 L 2524,1141 L 2529,1129 L 2536,1117 L 2545,1107 L 2556,1100 L 2569,1094 L 2582,1092 L 2589,1091 L 2602,1093 L 2615,1097 L 2627,1103 L 2637,1112 L 2646,1123 L 2652,1135 L 2655,1148 L 2656,1162 L 2654,1175 L 2649,1188 L 2642,1199 L 2632,1209 L 2621,1217 L 2609,1222 L 2609,1394 L 2615,1397 L 2627,1403 L 2637,1412 L 2646,1423 L 2652,1435 L 2655,1448 L 2656,1461 L 2654,1475 L 2649,1488 L 2642,1499 L 2632,1509 L 2621,1517 L 2609,1522 L 2609,1694 L 2615,1697 L 2627,1703 L 2637,1712 L 2646,1723 L 2652,1735 L 2655,1748 L 2656,1761 L 2654,1775 L 2649,1787 L 2642,1799 L 2632,1809 L 2621,1817 L 2609,1822 L 2596,1825 L 2589,1825 L 2575,1824 L 2562,1820 L 2558,1817 L 2389,1986 L 2389,2042 L 2399,2046 L 2409,2053 L 2417,2063 L 2424,2074 L 2427,2086 L 2429,2098 L 2427,2110 L 2424,2122 L 2423,2124 L 2497,2198 L 2846,2198 L 2880,2164 L 2884,2161 L 2889,2159 L 2894,2158 L 2925,2158 L 2929,2148 L 2936,2137 L 2945,2127 L 2956,2119 L 2969,2114 L 2982,2111 L 2989,2111 L 3002,2112 L 3015,2116 L 3027,2123 L 3037,2132 L 3046,2143 L 3052,2155 L 3055,2168 L 3056,2181 L 3054,2195 L 3049,2207 L 3042,2219 L 3032,2229 L 3021,2236 L 3009,2242 L 2996,2245 L 2989,2245 L 2975,2243 L 2962,2239 L 2951,2233 L 2940,2224 L 2932,2213 L 2926,2201 L 2925,2198 L 2902,2198 L 2868,2232 L 2864,2235 L 2859,2237 L 2854,2238 L 2509,2238 L 2509,2914 L 2515,2916 L 2527,2923 L 2537,2932 L 2546,2942 L 2552,2955 L 2555,2968 L 2556,2981 L 2554,2995 L 2549,3007 L 2542,3019 L 2532,3029 L 2521,3036 L 2509,3042 L 2509,3295 L 2508,3299 L 2507,3303 L 2505,3306 L 2503,3309 L 2270,3542 L 2268,3546 L 2266,3550 L 2263,3553 L 2259,3555 L 2255,3557 L 2250,3557 L 2108,3557 L 2108,3637 z " style="fill-opacity:1.000000;fill:rgb(5,23,88);stroke:rgb(0,0,0);stroke-width:2"/></g>
<g fill-rule="evenodd"><path d="M 2337,2438 L 2429,2438 L 2429,2558 L 2309,2558 L 2309,2466 L 1941,2098 L 1772,2098 L 1772,2141 L 1646,2141 L 1646,2098 L 1465,2098 L 1339,2224 L 1342,2228 L 1346,2241 L 1347,2255 L 1346,2269 L 1342,2282 L 1335,2294 L 1325,2305 L 1314,2313 L 1301,2318 L 1287,2321 L 1273,2321 L 1260,2318 L 1247,2313 L 1236,2305 L 1226,2294 L 1219,2282 L 1215,2269 L 1214,2255 L 1215,2241 L 1219,2228 L 1226,2215 L 1236,2205 L 1247,2197 L 1260,2191 L 1273,2188 L 1287,2188 L 1301,2191 L 1312,2196 L 1435,2073 L 1437,2068 L 1439,2065 L 1442,2062 L 1446,2060 L 1450,2059 L 1454,2058 L 1646,2058 L 1646,2015 L 1772,2015 L 1772,2058 L 1949,2058 L 1954,2059 L 1959,2061 L 1963,2064 L 2337,2438 z " style="fill-opacity:1.000000;fill:rgb(233,94,212);stroke:rgb(0,0,0);stroke-width:2"/></g>
<g fill-rule="evenodd"><path d="M 960,1848 L 973,1853 L 985,1862 L 994,1872 L 1001,1884 L 1005,1897 L 1007,1911 L 1005,1925 L 1001,1939 L 994,1951 L 985,1961 L 973,1969 L 961,1975 L 947,1978 L 933,1978 L 919,1975 L 906,1969 L 895,1961 L 886,1951 L 879,1939 L 875,1925 L 873,1911 L 875,1897 L 879,1884 L 886,1872 L 895,1862 L 906,1853 L 920,1848 L 920,1376 L 921,1371 L 923,1366 L 926,1362 L 977,1311 L 981,1308 L 986,1306 L 991,1305 L 1014,1305 L 1030,1289 L 1026,1281 L 1023,1268 L 1022,1255 L 1024,1241 L 1029,1229 L 1036,1217 L 1046,1207 L 1057,1200 L 1069,1194 L 1082,1192 L 1089,1191 L 1103,1193 L 1116,1197 L 1127,1203 L 1138,1212 L 1146,1223 L 1152,1235 L 1155,1248 L 1156,1261 L 1154,1275 L 1149,1288 L 1142,1299 L 1133,1309 L 1122,1317 L 1109,1322 L 1096,1325 L 1089,1325 L 1076,1324 L 1063,1320 L 1058,1317 L 1036,1339 L 1032,1342 L 1027,1344 L 1022,1345 L 999,1345 L 960,1384 L 960,1848 z " style="fill-opacity:1.000000;fill:rgb(171,178,205);stroke:rgb(0,0,0);stroke-width:2"/></g>
<g fill-rule="evenodd"><path d="M 225,1610 L 78,1525 L 118,1457 L 289,1556 L 266,1595 L 713,2042 L 959,2042 L 1269,1732 L 1269,1522 L 1263,1520 L 1251,1513 L 1241,1504 L 1232,1493 L 1226,1481 L 1223,1468 L 1222,1455 L 1224,1441 L 1229,1429 L 1236,1417 L 1246,1407 L 1257,1400 L 1269,1394 L 1282,1391 L 1289,1391 L 1303,1393 L 1315,1397 L 1327,1403 L 1338,1412 L 1346,1423 L 1352,1435 L 1355,1448 L 1356,1461 L 1354,1475 L 1349,1488 L 1342,1499 L 1333,1509 L 1322,1517 L 1309,1522 L 1309,1740 L 1308,1745 L 1306,1750 L 1303,1754 L 981,2076 L 977,2079 L 973,2081 L 967,2082 L 705,2082 L 701,2081 L 698,2080 L 694,2079 L 691,2076 L 225,1610 z " style="fill-opacity:1.000000;fill:rgb(198,155,180);stroke:rgb(0,0,0);stroke-width:2"/></g>
<g fill-rule="evenodd"><path d="M 730,2696 L 730,2421 L 679,2421 L 679,2280 L 821,2280 L 821,2421 L 769,2421 L 769,2700 L 776,2704 L 784,2711 L 791,2720 L 796,2730 L 799,2741 L 799,2752 L 797,2763 L 794,2773 L 788,2783 L 780,2791 L 771,2797 L 761,2801 L 750,2804 L 744,2804 L 733,2803 L 722,2800 L 713,2794 L 704,2787 L 697,2778 L 692,2768 L 690,2757 L 689,2746 L 691,2735 L 695,2725 L 701,2715 L 708,2707 L 717,2701 L 728,2696 L 730,2696 z " style="fill-opacity:1.000000;fill:rgb(84,17,14);stroke:rgb(0,0,0);stroke-width:2"/></g>
<g fill-rule="evenodd"><path d="M 351,1914 L 204,1829 L 243,1761 L 415,1859 L 392,1899 L 564,2071 L 567,2075 L 569,2079 L 569,2084 L 569,2283 L 572,2283 L 585,2289 L 597,2298 L 607,2309 L 614,2322 L 619,2336 L 621,2351 L 619,2365 L 614,2379 L 607,2392 L 597,2403 L 585,2412 L 572,2418 L 557,2421 L 542,2421 L 528,2418 L 514,2412 L 502,2403 L 492,2392 L 485,2379 L 480,2365 L 479,2351 L 480,2336 L 485,2322 L 492,2309 L 502,2298 L 514,2289 L 528,2283 L 530,2283 L 530,2093 L 351,1914 z " style="fill-opacity:1.000000;fill:rgb(130,116,65);stroke:rgb(0,0,0);stroke-width:2"/></g>
<g fill-rule="evenodd"><path d="M 1114,2292 L 1113,2288 L 1113,2224 L 1114,2218 L 1116,2214 L 1119,2210 L 1269,2060 L 1281,2042 L 1286,2019 L 1286,1944 L 1286,1941 L 1287,1939 L 1289,1936 L 1531,1695 L 1544,1675 L 1549,1651 L 1549,1552 L 1549,1549 L 1550,1547 L 1551,1545 L 1553,1543 L 1565,1536 L 1581,1512 L 1582,1510 L 1584,1509 L 1586,1508 L 1588,1507 L 1590,1507 L 1592,1508 L 1594,1509 L 1596,1510 L 1597,1512 L 1614,1536 L 1648,1559 L 1689,1567 L 1730,1559 L 1764,1536 L 1774,1522 L 1775,1520 L 1777,1519 L 1779,1518 L 1782,1518 L 1888,1518 L 1912,1513 L 1932,1500 L 2064,1368 L 2077,1347 L 2082,1324 L 2082,738 L 2082,736 L 2083,733 L 2085,731 L 2245,571 L 2259,551 L 2264,527 L 2264,520 L 2267,504 L 2267,248 L 2267,246 L 2268,244 L 2269,242 L 2271,240 L 2273,239 L 2275,238 L 2277,238 L 2347,238 L 2363,235 L 2377,226 L 2386,213 L 2389,196 L 2389,14 L 2389,12 L 2390,10 L 2391,8 L 2393,6 L 2395,5 L 2397,4 L 2399,4 L 2996,4 L 2998,4 L 3000,5 L 3002,6 L 3004,8 L 3005,9 L 3415,727 L 3416,730 L 3417,732 L 3416,734 L 3416,736 L 3415,738 L 3413,740 L 3412,741 L 3249,834 L 3237,845 L 3230,859 L 3229,875 L 3234,892 L 3238,899 L 3239,901 L 3239,904 L 3238,906 L 3237,908 L 3236,909 L 2914,1231 L 2912,1233 L 2910,1234 L 2908,1234 L 2906,1234 L 2904,1234 L 2902,1233 L 2900,1232 L 2899,1230 L 2898,1228 L 2897,1226 L 2897,1224 L 2897,1092 L 2894,1076 L 2885,1063 L 2880,1059 L 2878,1057 L 2878,1055 L 2877,1053 L 2877,1051 L 2878,1049 L 2879,1047 L 2880,1045 L 2988,937 L 2990,936 L 2992,935 L 3004,931 L 3174,833 L 3186,822 L 3193,808 L 3194,792 L 3189,775 L 3151,709 L 3140,697 L 3126,689 L 3110,688 L 3093,694 L 2924,792 L 2912,802 L 2904,816 L 2903,832 L 2906,842 L 2907,844 L 2907,846 L 2906,849 L 2905,851 L 2904,852 L 2747,1009 L 2734,1029 L 2731,1042 L 2731,1045 L 2729,1047 L 2728,1048 L 2726,1049 L 2723,1050 L 2707,1053 L 2693,1062 L 2684,1075 L 2683,1081 L 2682,1083 L 2681,1084 L 2679,1085 L 2677,1086 L 2675,1087 L 2673,1087 L 2671,1086 L 2669,1085 L 2667,1084 L 2664,1080 L 2630,1057 L 2589,1049 L 2548,1057 L 2513,1080 L 2490,1115 L 2482,1157 L 2482,1159 L 2490,1201 L 2513,1236 L 2525,1243 L 2527,1245 L 2528,1247 L 2529,1249 L 2529,1252 L 2529,1364 L 2529,1367 L 2528,1369 L 2527,1371 L 2525,1373 L 2513,1380 L 2490,1415 L 2482,1457 L 2482,1459 L 2490,1501 L 2513,1536 L 2525,1543 L 2527,1545 L 2528,1547 L 2529,1549 L 2529,1552 L 2529,1664 L 2529,1667 L 2528,1669 L 2527,1671 L 2525,1673 L 2513,1680 L 2490,1715 L 2482,1757 L 2482,1759 L 2484,1772 L 2485,1774 L 2484,1777 L 2483,1779 L 2482,1781 L 2327,1935 L 2314,1955 L 2309,1979 L 2309,2012 L 2309,2015 L 2308,2017 L 2306,2019 L 2284,2041 L 2269,2078 L 2269,2118 L 2284,2154 L 2312,2183 L 2349,2198 L 2380,2198 L 2383,2198 L 2385,2199 L 2387,2201 L 2426,2240 L 2428,2242 L 2429,2244 L 2429,2247 L 2429,2387 L 2429,2389 L 2428,2391 L 2427,2393 L 2425,2395 L 2424,2396 L 2421,2397 L 2419,2397 L 2357,2397 L 2354,2397 L 2352,2396 L 2350,2394 L 1992,2036 L 1972,2023 L 1948,2018 L 1822,2018 L 1819,2018 L 1817,2017 L 1815,2016 L 1814,2014 L 1813,2012 L 1812,2010 L 1810,2000 L 1801,1987 L 1788,1977 L 1771,1974 L 1647,1974 L 1631,1977 L 1618,1986 L 1608,1999 L 1606,2010 L 1606,2012 L 1604,2014 L 1603,2016 L 1601,2017 L 1599,2018 L 1596,2018 L 1455,2018 L 1431,2023 L 1412,2036 L 1404,2046 L 1306,2145 L 1304,2147 L 1301,2148 L 1299,2148 L 1259,2148 L 1221,2164 L 1189,2196 L 1174,2233 L 1174,2276 L 1190,2315 L 1220,2345 L 1259,2362 L 1302,2362 L 1341,2345 L 1371,2315 L 1387,2276 L 1387,2236 L 1388,2234 L 1389,2231 L 1390,2229 L 1479,2141 L 1481,2139 L 1484,2138 L 1486,2138 L 1596,2138 L 1599,2138 L 1601,2139 L 1603,2140 L 1604,2142 L 1605,2144 L 1606,2146 L 1608,2156 L 1617,2169 L 1630,2178 L 1647,2182 L 1771,2182 L 1787,2179 L 1800,2170 L 1810,2157 L 1812,2146 L 1813,2143 L 1814,2142 L 1815,2140 L 1817,2139 L 1819,2138 L 1822,2138 L 1920,2138 L 1923,2138 L 1925,2139 L 1927,2141 L 2265,2479 L 2267,2481 L 2268,2483 L 2268,2486 L 2268,2557 L 2271,2572 L 2280,2586 L 2293,2595 L 2310,2599 L 2419,2599 L 2421,2599 L 2424,2600 L 2425,2601 L 2427,2602 L 2428,2604 L 2429,2606 L 2429,2609 L 2429,2884 L 2429,2887 L 2428,2889 L 2427,2891 L 2425,2892 L 2413,2900 L 2390,2935 L 2382,2976 L 2382,2979 L 2390,3021 L 2413,3056 L 2425,3063 L 2427,3065 L 2428,3067 L 2429,3069 L 2429,3071 L 2429,3266 L 2429,3269 L 2428,3271 L 2426,3273 L 2366,3333 L 2365,3334 L 2363,3335 L 2361,3336 L 2359,3336 L 2356,3336 L 2354,3335 L 2353,3334 L 2351,3332 L 2350,3330 L 2349,3328 L 2349,3326 L 2349,3179 L 2346,3164 L 2338,3150 L 2324,3141 L 2307,3137 L 2230,3137 L 2215,3140 L 2201,3149 L 2192,3162 L 2189,3179 L 2189,3375 L 2192,3391 L 2200,3404 L 2214,3413 L 2231,3417 L 2258,3417 L 2261,3417 L 2263,3418 L 2264,3419 L 2266,3420 L 2267,3422 L 2268,3424 L 2268,3426 L 2268,3428 L 2268,3430 L 2267,3432 L 2266,3434 L 2224,3475 L 2222,3477 L 2220,3478 L 2217,3478 L 2159,3478 L 2157,3478 L 2155,3477 L 2153,3476 L 2151,3474 L 2150,3472 L 2150,3470 L 2149,3468 L 2149,3440 L 2146,3424 L 2138,3410 L 2124,3401 L 2107,3398 L 2031,3398 L 2015,3401 L 2001,3410 L 1992,3423 L 1989,3440 L 1989,3468 L 1988,3470 L 1988,3472 L 1986,3474 L 1985,3476 L 1983,3477 L 1981,3478 L 1979,3478 L 1914,3478 L 1911,3478 L 1909,3477 L 1907,3475 L 1772,3340 L 1770,3338 L 1769,3335 L 1769,3333 L 1769,3164 L 1769,3162 L 1770,3160 L 1771,3158 L 1773,3156 L 1775,3155 L 1777,3154 L 1787,3152 L 1800,3144 L 1810,3130 L 1813,3113 L 1813,2989 L 1810,2974 L 1801,2960 L 1788,2951 L 1771,2948 L 1647,2948 L 1631,2950 L 1618,2959 L 1608,2973 L 1605,2989 L 1605,3114 L 1608,3129 L 1617,3143 L 1630,3152 L 1641,3154 L 1643,3155 L 1645,3156 L 1647,3158 L 1648,3160 L 1649,3162 L 1649,3164 L 1649,3361 L 1654,3384 L 1668,3404 L 1842,3579 L 1862,3593 L 1886,3597 L 1979,3597 L 1981,3598 L 1983,3598 L 1985,3600 L 1986,3601 L 1988,3603 L 1988,3605 L 1989,3607 L 1989,3622 L 1988,3624 L 1988,3626 L 1986,3628 L 1985,3630 L 1983,3631 L 1981,3632 L 1979,3632 L 1061,3632 L 1059,3631 L 1056,3630 L 1054,3629 L 1053,3627 L 642,2925 L 641,2923 L 641,2920 L 641,2918 L 642,2916 L 643,2914 L 644,2912 L 646,2911 L 648,2910 L 650,2910 L 652,2910 L 655,2910 L 657,2911 L 667,2918 L 690,2923 L 798,2923 L 822,2918 L 842,2905 L 1096,2651 L 1109,2630 L 1114,2607 L 1114,2292M 2429,457 L 2431,472 L 2440,486 L 2454,495 L 2471,499 L 2547,499 L 2563,496 L 2577,487 L 2586,474 L 2589,457 L 2589,261 L 2586,245 L 2577,232 L 2564,223 L 2547,219 L 2470,219 L 2455,222 L 2441,231 L 2432,244 L 2429,261 L 2429,457 z " style="fill-opacity:1.000000;fill:rgb(33,61,220);stroke:rgb(0,0,0);stroke-width:2"/></g>
<g fill-rule="evenodd"><path d="M 756,1133 L 814,1167 L 775,1235 L 604,1136 L 643,1068 L 720,1112 L 1007,826 L 1010,823 L 1014,822 L 1018,820 L 1021,820 L 1449,820 L 1991,278 L 1991,213 L 1991,209 L 1993,205 L 1995,201 L 1997,199 L 2008,187 L 2013,184 L 2017,182 L 2022,181 L 2196,181 L 2201,182 L 2205,184 L 2209,187 L 2221,199 L 2224,203 L 2226,208 L 2227,213 L 2227,505 L 2226,510 L 2224,515 L 2224,516 L 2224,528 L 2223,533 L 2221,538 L 2218,542 L 2042,717 L 2042,1325 L 2041,1330 L 2039,1335 L 2036,1339 L 1903,1472 L 1899,1475 L 1894,1477 L 1889,1478 L 1753,1478 L 1749,1488 L 1742,1499 L 1733,1509 L 1721,1517 L 1709,1522 L 1696,1525 L 1689,1525 L 1676,1524 L 1663,1520 L 1651,1513 L 1641,1504 L 1632,1493 L 1626,1481 L 1623,1468 L 1622,1455 L 1624,1441 L 1629,1429 L 1636,1417 L 1645,1407 L 1657,1400 L 1669,1394 L 1682,1391 L 1689,1391 L 1702,1393 L 1715,1397 L 1727,1403 L 1738,1412 L 1746,1423 L 1752,1435 L 1753,1438 L 1881,1438 L 2003,1317 L 2003,709 L 2003,704 L 2005,699 L 2008,695 L 2184,520 L 2184,505 L 2185,501 L 2188,497 L 2188,221 L 2187,221 L 2030,221 L 2030,221 L 2030,287 L 2030,292 L 2028,296 L 2024,301 L 1471,854 L 1467,857 L 1462,859 L 1457,860 L 1029,860 L 756,1133 z " style="fill-opacity:1.000000;fill:rgb(135,112,233);stroke:rgb(0,0,0);stroke-width:2"/></g>
<g fill-rule="evenodd"><path d="M 0,1550 L 0,1465 L 0,1461 L 1,1458 L 3,1454 L 5,1451 L 200,1256 L 200,1126 L 200,1120 L 202,1116 L 205,1112 L 482,835 L 478,833 L 518,764 L 689,863 L 649,931 L 539,868 L 505,868 L 239,1134 L 239,1265 L 238,1270 L 236,1274 L 233,1279 L 39,1473 L 39,1542 L 116,1618 L 119,1622 L 121,1627 L 121,1632 L 121,2006 L 253,2138 L 256,2142 L 258,2146 L 259,2152 L 259,2216 L 644,2601 L 647,2605 L 649,2610 L 650,2615 L 650,2796 L 698,2843 L 791,2843 L 1035,2600 L 1035,2192 L 1035,2186 L 1037,2182 L 1040,2178 L 1206,2012 L 1206,1915 L 1207,1912 L 1208,1908 L 1210,1903 L 1212,1901 L 1469,1644 L 1469,1522 L 1463,1520 L 1451,1513 L 1441,1504 L 1432,1493 L 1426,1481 L 1423,1468 L 1422,1455 L 1424,1441 L 1429,1429 L 1436,1417 L 1445,1407 L 1457,1400 L 1469,1394 L 1482,1391 L 1489,1391 L 1503,1393 L 1515,1397 L 1527,1403 L 1538,1412 L 1546,1423 L 1552,1435 L 1555,1448 L 1556,1461 L 1554,1475 L 1549,1488 L 1542,1499 L 1533,1509 L 1522,1517 L 1509,1522 L 1509,1652 L 1508,1657 L 1506,1662 L 1503,1666 L 1246,1923 L 1246,2020 L 1245,2025 L 1243,2030 L 1240,2034 L 1074,2200 L 1074,2608 L 1073,2612 L 1072,2616 L 1071,2618 L 1068,2622 L 813,2877 L 809,2880 L 804,2882 L 799,2883 L 689,2883 L 684,2882 L 680,2880 L 675,2877 L 616,2818 L 614,2815 L 612,2811 L 611,2808 L 610,2804 L 610,2623 L 225,2238 L 222,2234 L 220,2230 L 220,2224 L 220,2160 L 88,2028 L 85,2025 L 83,2021 L 82,2018 L 82,2014 L 82,1640 L 5,1564 L 2,1560 L 0,1555 L 0,1550 z " style="fill-opacity:1.000000;fill:rgb(62,161,65);stroke:rgb(0,0,0);stroke-width:2"/></g>
<g fill-rule="evenodd"><path d="M 485,1216 L 449,1278 L 278,1179 L 318,1111 L 428,1175 L 491,1175 L 496,1175 L 500,1177 L 504,1180 L 623,1298 L 767,1298 L 865,1201 L 865,1165 L 865,1160 L 867,1155 L 871,1151 L 990,1032 L 994,1029 L 999,1027 L 1004,1026 L 1277,1026 L 1282,1027 L 1287,1029 L 1291,1032 L 1458,1199 L 1469,1194 L 1482,1192 L 1489,1191 L 1503,1193 L 1515,1197 L 1527,1203 L 1538,1212 L 1546,1223 L 1552,1235 L 1555,1248 L 1556,1261 L 1554,1275 L 1549,1288 L 1542,1299 L 1533,1309 L 1522,1317 L 1509,1322 L 1496,1325 L 1489,1325 L 1476,1324 L 1463,1320 L 1451,1313 L 1441,1304 L 1432,1293 L 1426,1281 L 1423,1268 L 1422,1255 L 1424,1241 L 1429,1229 L 1430,1227 L 1269,1065 L 1012,1065 L 904,1173 L 904,1209 L 904,1212 L 902,1217 L 900,1221 L 898,1223 L 789,1332 L 785,1335 L 780,1337 L 775,1338 L 614,1338 L 610,1337 L 607,1336 L 604,1335 L 600,1332 L 485,1216 z " style="fill-opacity:1.000000;fill:rgb(225,252,103);stroke:rgb(0,0,0);stroke-width:2"/></g>
<g fill-rule="evenodd"><path d="M 554,1478 L 699,1478 L 943,1233 L 943,1198 L 944,1193 L 946,1188 L 949,1184 L 1015,1118 L 1019,1115 L 1024,1113 L 1029,1112 L 1163,1112 L 1166,1113 L 1170,1114 L 1174,1116 L 1177,1118 L 1258,1199 L 1269,1194 L 1282,1192 L 1289,1191 L 1303,1193 L 1315,1197 L 1327,1203 L 1338,1212 L 1346,1223 L 1352,1235 L 1355,1248 L 1356,1261 L 1354,1275 L 1349,1288 L 1342,1299 L 1333,1309 L 1322,1317 L 1309,1322 L 1296,1325 L 1289,1325 L 1276,1324 L 1263,1320 L 1251,1313 L 1241,1304 L 1232,1293 L 1226,1281 L 1223,1268 L 1222,1255 L 1224,1241 L 1229,1229 L 1230,1227 L 1155,1152 L 1037,1152 L 983,1206 L 983,1242 L 982,1247 L 980,1251 L 977,1255 L 721,1512 L 717,1515 L 712,1517 L 707,1517 L 612,1517 L 575,1581 L 404,1482 L 443,1414 L 554,1478 z " style="fill-opacity:1.000000;fill:rgb(62,1,126);stroke:rgb(0,0,0);stroke-width:2"/></g>
<g fill-rule="evenodd"><path d="M 1748,1227 L 1752,1235 L 1755,1248 L 1756,1261 L 1754,1275 L 1749,1288 L 1742,1299 L 1733,1309 L 1721,1317 L 1709,1322 L 1696,1325 L 1689,1325 L 1676,1324 L 1663,1320 L 1651,1313 L 1641,1304 L 1632,1293 L 1626,1281 L 1623,1268 L 1622,1255 L 1624,1241 L 1629,1229 L 1636,1217 L 1645,1207 L 1657,1200 L 1669,1194 L 1682,1192 L 1689,1191 L 1702,1193 L 1715,1197 L 1720,1199 L 1869,1050 L 1869,519 L 1870,515 L 1871,511 L 1872,509 L 1875,506 L 2016,364 L 2020,361 L 2025,359 L 2030,359 L 2070,359 L 2070,260 L 2148,260 L 2148,458 L 2070,458 L 2070,398 L 2038,398 L 1909,528 L 1909,1058 L 1908,1062 L 1907,1066 L 1905,1069 L 1903,1072 L 1748,1227 z " style="fill-opacity:1.000000;fill:rgb(151,234,220);stroke:rgb(0,0,0);stroke-width:2"/></g>
<g fill-rule="evenodd"><path d="M 3429,1562 L 3383,1588 L 3343,1520 L 3515,1421 L 3554,1490 L 3468,1539 L 3468,2510 L 3468,2515 L 3466,2520 L 3463,2524 L 3056,2931 L 3056,3045 L 2922,3045 L 2922,2911 L 3020,2911 L 3429,2502 L 3429,1562 z " style="fill-opacity:1.000000;fill:rgb(107,150,143);stroke:rgb(0,0,0);stroke-width:2"/></g>
<g fill-rule="evenodd"><path d="M 2856,1778 L 2856,1825 L 2722,1825 L 2722,1691 L 2856,1691 L 2856,1738 L 2887,1738 L 3229,1396 L 3229,1215 L 3183,1242 L 3143,1174 L 3315,1075 L 3354,1143 L 3268,1193 L 3268,1404 L 3268,1409 L 3266,1414 L 3263,1418 L 2909,1772 L 2905,1775 L 2900,1777 L 2895,1778 L 2856,1778 z " style="fill-opacity:1.000000;fill:rgb(56,92,42);stroke:rgb(0,0,0);stroke-width:2"/></g>
<g fill-rule="evenodd"><path d="M 3048,2747 L 3052,2755 L 3055,2768 L 3056,2781 L 3054,2795 L 3049,2807 L 3042,2819 L 3032,2829 L 3021,2836 L 3009,2842 L 2996,2844 L 2989,2845 L 2975,2843 L 2962,2839 L 2951,2833 L 2940,2824 L 2932,2813 L 2926,2801 L 2923,2788 L 2922,2774 L 2924,2761 L 2929,2748 L 2936,2737 L 2945,2727 L 2956,2719 L 2969,2714 L 2982,2711 L 2989,2711 L 3002,2712 L 3015,2716 L 3020,2719 L 3265,2474 L 3265,1496 L 3265,1491 L 3267,1486 L 3270,1482 L 3404,1348 L 3408,1345 L 3413,1343 L 3418,1343 L 3589,1343 L 3594,1343 L 3599,1345 L 3603,1348 L 3763,1509 L 3840,1464 L 3880,1532 L 3708,1631 L 3669,1563 L 3728,1529 L 3581,1382 L 3426,1382 L 3304,1504 L 3304,2482 L 3303,2487 L 3301,2492 L 3298,2496 L 3048,2747 z " style="fill-opacity:1.000000;fill:rgb(236,176,59);stroke:rgb(0,0,0);stroke-width:2"/></g>
<g fill-rule="evenodd"><path d="M 2810,1391 L 3292,910 L 3269,870 L 3440,772 L 3480,840 L 3333,925 L 2856,1402 L 2856,1525 L 2722,1525 L 2722,1391 L 2810,1391 z " style="fill-opacity:1.000000;fill:rgb(251,50,175);stroke:rgb(0,0,0);stroke-width:2"/></g>
<g fill-rule="evenodd"><path d="M 2959,854 L 2944,827 L 3115,729 L 3154,797 L 2983,896 L 2979,889 L 2809,1060 L 2809,1091 L 2856,1091 L 2856,1225 L 2722,1225 L 2722,1091 L 2769,1091 L 2769,1052 L 2770,1047 L 2772,1042 L 2775,1038 L 2959,854 z " style="fill-opacity:1.000000;fill:rgb(60,84,236);stroke:rgb(0,0,0);stroke-width:2"/></g>
</svg>
