<?xml version="1.0" standalone="no"?>
<!DOCTYPE svg PUBLIC "-//W3C//DTD SVG 1.1//EN"
"http://www.w3.org/Graphics/SVG/1.1/DTD/svg11.dtd">
<svg width="3880" height="3637" viewBox="0 0 3880 3637" version="1.1"
xmlns="http://www.w3.org/2000/svg"
xmlns:xlink="http://www.w3.org/1999/xlink">
<g fill-rule="evenodd"><path d="M 2989,2445 L 2975,2443 L 2962,2439 L 2950,2433 L 2940,2424 L 2932,2413 L 2926,2401 L 2923,2388 L 2922,2375 L 2924,2361 L 2929,2348 L 2936,2337 L 2945,2327 L 2956,2319 L 2969,2314 L 2982,2311 L 2989,2311 L 3002,2312 L 3015,2316 L 3027,2323 L 3037,2332 L 3045,2343 L 3051,2355 L 3055,2368 L 3056,2381 L 3053,2395 L 3049,2407 L 3042,2419 L 3032,2429 L 3021,2436 L 3009,2442 L 2995,2444 L 2989,2445 z " style="fill-opacity:1.000000;fill:rgb(103,198,105);stroke:rgb(0,0,0);stroke-width:2"/></g>
<g fill-rule="evenodd"><path d="M 3640,1118 L 3680,1186 L 3508,1285 L 3469,1217 L 3640,1118 z " style="fill-opacity:1.000000;fill:rgb(115,81,255);stroke:rgb(0,0,0);stroke-width:2"/></g>
<g fill-rule="evenodd"><path d="M 3714,1768 L 3754,1836 L 3583,1935 L 3543,1867 L 3714,1768 z " style="fill-opacity:1.000000;fill:rgb(74,236,41);stroke:rgb(0,0,0);stroke-width:2"/></g>
<g fill-rule="evenodd"><path d="M 2508,3636 L 2429,3636 L 2429,3439 L 2508,3439 L 2508,3636 z " style="fill-opacity:1.000000;fill:rgb(205,186,171);stroke:rgb(0,0,0);stroke-width:2"/></g>
<g fill-rule="evenodd"><path d="M 2229,3376 L 2229,3178 L 2308,3178 L 2308,3376 L 2229,3376 z " style="fill-opacity:1.000000;fill:rgb(242,251,227);stroke:rgb(0,0,0);stroke-width:2"/></g>
<g fill-rule="evenodd"><path d="M 2469,458 L 2469,260 L 2548,260 L 2548,458 L 2469,458 z " style="fill-opacity:1.000000;fill:rgb(70,124,194);stroke:rgb(0,0,0);stroke-width:2"/></g>
<g fill-rule="evenodd"><path d="M 1670,458 L 1670,260 L 1748,260 L 1748,458 L 1670,458 z " style="fill-opacity:1.000000;fill:rgb(84,248,27);stroke:rgb(0,0,0);stroke-width:2"/></g>
<g fill-rule="evenodd"><path d="M 1270,458 L 1270,260 L 1348,260 L 1348,458 L 1270,458 z " style="fill-opacity:1.000000;fill:rgb(232,231,141);stroke:rgb(0,0,0);stroke-width:2"/></g>
<g fill-rule="evenodd"><path d="M 2269,0 L 2348,0 L 2348,197 L 2269,197 L 2269,0 z " style="fill-opacity:1.000000;fill:rgb(118,90,46);stroke:rgb(0,0,0);stroke-width:2"/></g>
<g fill-rule="evenodd"><path d="M 1870,0 L 1948,0 L 1948,197 L 1870,197 L 1870,0 z " style="fill-opacity:1.000000;fill:rgb(99,51,159);stroke:rgb(0,0,0);stroke-width:2"/></g>
<g fill-rule="evenodd"><path d="M 1470,0 L 1548,0 L 1548,197 L 1470,197 L 1470,0 z " style="fill-opacity:1.000000;fill:rgb(201,154,102);stroke:rgb(0,0,0);stroke-width:2"/></g>
<g fill-rule="evenodd"><path d="M 1070,0 L 1148,0 L 1148,197 L 1070,197 L 1070,0 z " style="fill-opacity:1.000000;fill:rgb(50,13,183);stroke:rgb(0,0,0);stroke-width:2"/></g>
<g fill-rule="evenodd"><path d="M 1578,1838 L 2201,1838 L 2228,1811 L 2232,1808 L 2237,1806 L 2242,1805 L 2314,1805 L 2330,1789 L 2326,1781 L 2323,1768 L 2322,1755 L 2324,1741 L 2329,1729 L 2336,1717 L 2345,1707 L 2356,1700 L 2369,1694 L 2369,1522 L 2362,1520 L 2351,1513 L 2340,1504 L 2332,1493 L 2326,1481 L 2323,1468 L 2322,1455 L 2324,1441 L 2329,1429 L 2336,1417 L 2345,1407 L 2356,1400 L 2369,1394 L 2369,1222 L 2362,1220 L 2351,1213 L 2340,1204 L 2332,1194 L 2326,1181 L 2323,1168 L 2322,1155 L 2324,1141 L 2329,1129 L 2336,1117 L 2345,1107 L 2356,1100 L 2369,1094 L 2382,1092 L 2389,1091 L 2402,1093 L 2415,1097 L 2427,1103 L 2437,1112 L 2446,1123 L 2452,1135 L 2455,1148 L 2456,1162 L 2454,1175 L 2449,1188 L 2442,1199 L 2432,1209 L 2421,1217 L 2408,1222 L 2408,1394 L 2415,1397 L 2427,1403 L 2437,1412 L 2446,1423 L 2452,1435 L 2455,1448 L 2456,1461 L 2454,1475 L 2449,1488 L 2442,1499 L 2432,1509 L 2421,1517 L 2408,1522 L 2408,1694 L 2415,1697 L 2427,1703 L 2437,1712 L 2446,1723 L 2452,1735 L 2455,1748 L 2456,1761 L 2454,1775 L 2449,1787 L 2442,1799 L 2432,1809 L 2421,1817 L 2409,1822 L 2396,1825 L 2389,1825 L 2375,1824 L 2362,1820 L 2358,1817 L 2336,1839 L 2332,1842 L 2327,1844 L 2322,1845 L 2250,1845 L 2226,1868 L 2227,1871 L 2228,1874 L 2229,1878 L 2229,2130 L 2343,2244 L 2350,2241 L 2363,2238 L 2375,2238 L 2387,2241 L 2399,2246 L 2409,2253 L 2417,2263 L 2423,2274 L 2427,2285 L 2429,2298 L 2427,2310 L 2423,2322 L 2417,2333 L 2409,2342 L 2399,2350 L 2387,2355 L 2375,2357 L 2363,2357 L 2350,2355 L 2339,2350 L 2329,2342 L 2320,2333 L 2314,2322 L 2310,2310 L 2309,2298 L 2310,2285 L 2314,2274 L 2315,2272 L 2195,2152 L 2192,2148 L 2190,2143 L 2189,2138 L 2189,1886 L 2181,1877 L 1578,1877 L 1576,1885 L 1569,1897 L 1560,1907 L 1548,1916 L 1535,1921 L 1522,1924 L 1508,1924 L 1494,1921 L 1484,1917 L 1448,1952 L 1444,1955 L 1440,1957 L 1435,1958 L 1427,1958 L 1153,2232 L 1153,2279 L 1365,2492 L 1650,2492 L 1647,2485 L 1646,2472 L 1647,2458 L 1651,2446 L 1658,2435 L 1667,2425 L 1677,2417 L 1689,2412 L 1702,2409 L 1715,2409 L 1728,2412 L 1740,2417 L 1751,2425 L 1760,2435 L 1766,2446 L 1771,2458 L 1772,2472 L 1771,2485 L 1766,2497 L 1760,2509 L 1751,2518 L 1740,2526 L 1729,2531 L 1729,2598 L 1740,2603 L 1751,2611 L 1760,2621 L 1766,2632 L 1771,2645 L 1772,2658 L 1771,2671 L 1766,2683 L 1765,2686 L 1869,2790 L 1934,2725 L 1938,2722 L 1943,2720 L 1948,2719 L 2232,2719 L 2235,2712 L 2242,2700 L 2251,2689 L 2262,2681 L 2275,2675 L 2289,2672 L 2303,2672 L 2317,2675 L 2329,2681 L 2341,2689 L 2350,2700 L 2357,2712 L 2361,2725 L 2363,2739 L 2361,2753 L 2357,2766 L 2350,2778 L 2341,2789 L 2329,2797 L 2317,2803 L 2303,2805 L 2289,2805 L 2275,2803 L 2262,2797 L 2251,2789 L 2242,2778 L 2235,2766 L 2232,2759 L 1956,2759 L 1889,2826 L 1889,3178 L 1908,3178 L 1908,3376 L 1830,3376 L 1830,3178 L 1849,3178 L 1849,2826 L 1737,2714 L 1728,2718 L 1715,2720 L 1702,2720 L 1689,2718 L 1677,2712 L 1667,2705 L 1658,2695 L 1651,2683 L 1647,2671 L 1646,2658 L 1647,2645 L 1651,2632 L 1658,2621 L 1667,2611 L 1677,2603 L 1689,2598 L 1689,2531 L 1365,2531 L 1364,2533 L 1364,2698 L 1371,2701 L 1381,2708 L 1389,2716 L 1394,2726 L 1398,2737 L 1399,2749 L 1398,2760 L 1394,2771 L 1389,2781 L 1381,2790 L 1371,2797 L 1361,2801 L 1350,2804 L 1338,2804 L 1327,2801 L 1316,2797 L 1307,2790 L 1299,2781 L 1294,2771 L 1290,2760 L 1289,2749 L 1290,2737 L 1294,2726 L 1299,2716 L 1307,2708 L 1316,2701 L 1324,2698 L 1324,2524 L 1325,2519 L 1327,2515 L 1329,2512 L 1119,2302 L 1117,2299 L 1115,2296 L 1114,2292 L 1113,2288 L 1113,2224 L 1114,2219 L 1116,2214 L 1119,2210 L 1405,1924 L 1409,1921 L 1414,1919 L 1419,1918 L 1426,1918 L 1456,1889 L 1454,1885 L 1449,1872 L 1448,1858 L 1449,1844 L 1454,1831 L 1461,1818 L 1470,1808 L 1481,1800 L 1494,1794 L 1508,1791 L 1522,1791 L 1535,1794 L 1548,1800 L 1560,1808 L 1569,1818 L 1576,1831 L 1578,1838 z " style="fill-opacity:1.000000;fill:rgb(49,88,163);stroke:rgb(0,0,0);stroke-width:2"/></g>
<g fill-rule="evenodd"><path d="M 1646,2058 L 1646,2015 L 1772,2015 L 1772,2058 L 1949,2058 L 1954,2059 L 1959,2061 L 1963,2064 L 2337,2438 L 2429,2438 L 2429,2558 L 2309,2558 L 2309,2466 L 1941,2098 L 1772,2098 L 1772,2141 L 1646,2141 L 1646,2098 L 1465,2098 L 1339,2224 L 1341,2228 L 1346,2241 L 1347,2255 L 1346,2269 L 1341,2282 L 1334,2294 L 1325,2305 L 1314,2313 L 1301,2318 L 1287,2321 L 1273,2321 L 1260,2318 L 1247,2313 L 1236,2305 L 1226,2294 L 1219,2282 L 1215,2269 L 1213,2255 L 1215,2241 L 1219,2228 L 1226,2215 L 1236,2205 L 1247,2197 L 1260,2191 L 1273,2188 L 1287,2188 L 1301,2191 L 1312,2196 L 1435,2073 L 1437,2068 L 1439,2065 L 1442,2062 L 1446,2060 L 1450,2059 L 1454,2058 L 1646,2058 z " style="fill-opacity:1.000000;fill:rgb(90,37,93);stroke:rgb(0,0,0);stroke-width:2"/></g>
<g fill-rule="evenodd"><path d="M 2108,3636 L 2029,3636 L 2029,3557 L 1885,3557 L 1880,3557 L 1875,3555 L 1871,3552 L 1695,3375 L 1692,3371 L 1690,3367 L 1689,3362 L 1689,3114 L 1646,3114 L 1646,2988 L 1772,2988 L 1772,3114 L 1729,3114 L 1729,3353 L 1893,3518 L 2029,3518 L 2029,3439 L 2108,3439 L 2108,3518 L 2238,3518 L 2469,3287 L 2469,3041 L 2462,3039 L 2451,3033 L 2440,3024 L 2432,3013 L 2426,3001 L 2423,2988 L 2422,2974 L 2424,2961 L 2429,2948 L 2436,2937 L 2445,2927 L 2456,2919 L 2469,2914 L 2469,2226 L 2395,2152 L 2387,2155 L 2375,2157 L 2363,2157 L 2350,2155 L 2339,2150 L 2329,2142 L 2320,2133 L 2314,2122 L 2310,2110 L 2309,2098 L 2310,2086 L 2314,2074 L 2320,2063 L 2329,2053 L 2339,2046 L 2349,2042 L 2349,1978 L 2350,1973 L 2352,1968 L 2355,1964 L 2530,1789 L 2526,1781 L 2523,1768 L 2522,1755 L 2524,1741 L 2529,1729 L 2536,1717 L 2545,1707 L 2556,1700 L 2569,1694 L 2569,1522 L 2562,1520 L 2551,1513 L 2540,1504 L 2532,1493 L 2526,1481 L 2523,1468 L 2522,1455 L 2524,1441 L 2529,1429 L 2536,1417 L 2545,1407 L 2556,1400 L 2569,1394 L 2569,1222 L 2562,1220 L 2551,1213 L 2540,1204 L 2532,1194 L 2526,1181 L 2523,1168 L 2522,1155 L 2524,1141 L 2529,1129 L 2536,1117 L 2545,1107 L 2556,1100 L 2569,1094 L 2582,1092 L 2589,1091 L 2602,1093 L 2615,1097 L 2627,1103 L 2637,1112 L 2646,1123 L 2652,1135 L 2655,1148 L 2656,1162 L 2654,1175 L 2649,1188 L 2642,1199 L 2632,1209 L 2621,1217 L 2608,1222 L 2608,1394 L 2615,1397 L 2627,1403 L 2637,1412 L 2646,1423 L 2652,1435 L 2655,1448 L 2656,1461 L 2654,1475 L 2649,1488 L 2642,1499 L 2632,1509 L 2621,1517 L 2608,1522 L 2608,1694 L 2615,1697 L 2627,1703 L 2637,1712 L 2646,1723 L 2652,1735 L 2655,1748 L 2656,1761 L 2654,1775 L 2649,1787 L 2642,1799 L 2632,1809 L 2621,1817 L 2609,1822 L 2596,1825 L 2589,1825 L 2575,1824 L 2562,1820 L 2558,1817 L 2388,1986 L 2388,2042 L 2399,2046 L 2409,2053 L 2417,2063 L 2423,2074 L 2427,2086 L 2429,2098 L 2427,2110 L 2423,2122 L 2423,2124 L 2497,2198 L 2846,2198 L 2880,2164 L 2884,2161 L 2889,2159 L 2894,2158 L 2925,2158 L 2929,2148 L 2936,2137 L 2945,2127 L 2956,2119 L 2969,2114 L 2982,2111 L 2989,2111 L 3002,2112 L 3015,2116 L 3027,2123 L 3037,2132 L 3045,2143 L 3051,2155 L 3055,2168 L 3056,2181 L 3053,2195 L 3049,2207 L 3042,2219 L 3032,2229 L 3021,2236 L 3009,2242 L 2995,2245 L 2989,2245 L 2975,2243 L 2962,2239 L 2950,2233 L 2940,2224 L 2932,2213 L 2926,2201 L 2925,2198 L 2902,2198 L 2868,2232 L 2864,2235 L 2859,2237 L 2854,2238 L 2508,2238 L 2508,2914 L 2515,2916 L 2527,2923 L 2537,2932 L 2546,2942 L 2552,2955 L 2555,2968 L 2556,2981 L 2554,2995 L 2549,3007 L 2542,3019 L 2532,3029 L 2521,3036 L 2508,3042 L 2508,3295 L 2508,3299 L 2507,3303 L 2505,3306 L 2503,3309 L 2270,3542 L 2268,3546 L 2266,3550 L 2263,3553 L 2259,3555 L 2255,3557 L 2250,3557 L 2108,3557 L 2108,3636 z " style="fill-opacity:1.000000;fill:rgb(5,23,88);stroke:rgb(0,0,0);stroke-width:2"/></g>
<g fill-rule="evenodd"><path d="M 960,1848 L 973,1853 L 985,1862 L 994,1872 L 1001,1884 L 1005,1897 L 1007,1911 L 1005,1925 L 1001,1939 L 994,1951 L 985,1961 L 973,1969 L 961,1975 L 947,1978 L 933,1978 L 919,1975 L 906,1969 L 895,1961 L 886,1951 L 879,1939 L 874,1925 L 873,1911 L 874,1897 L 879,1884 L 886,1872 L 895,1862 L 906,1853 L 920,1848 L 920,1376 L 921,1371 L 923,1366 L 926,1362 L 977,1311 L 981,1308 L 986,1306 L 991,1305 L 1014,1305 L 1030,1289 L 1026,1281 L 1023,1268 L 1022,1255 L 1024,1241 L 1029,1229 L 1036,1217 L 1045,1207 L 1057,1200 L 1069,1194 L 1082,1192 L 1089,1191 L 1102,1193 L 1115,1197 L 1127,1203 L 1138,1212 L 1146,1223 L 1152,1235 L 1155,1248 L 1156,1261 L 1154,1275 L 1149,1288 L 1142,1299 L 1133,1309 L 1121,1317 L 1109,1322 L 1096,1325 L 1089,1325 L 1076,1324 L 1063,1320 L 1058,1317 L 1036,1339 L 1032,1342 L 1027,1344 L 1022,1345 L 999,1345 L 960,1384 L 960,1848 z " style="fill-opacity:1.000000;fill:rgb(233,94,212);stroke:rgb(0,0,0);stroke-width:2"/></g>
<g fill-rule="evenodd"><path d="M 225,1610 L 78,1525 L 118,1457 L 289,1556 L 266,1595 L 713,2042 L 959,2042 L 1269,1732 L 1269,1522 L 1263,1520 L 1251,1513 L 1240,1504 L 1232,1493 L 1226,1481 L 1223,1468 L 1222,1455 L 1224,1441 L 1229,1429 L 1236,1417 L 1245,1407 L 1257,1400 L 1269,1394 L 1282,1391 L 1289,1391 L 1302,1393 L 1315,1397 L 1327,1403 L 1337,1412 L 1346,1423 L 1352,1435 L 1355,1448 L 1356,1461 L 1354,1475 L 1349,1488 L 1342,1499 L 1333,1509 L 1321,1517 L 1309,1522 L 1309,1740 L 1308,1745 L 1306,1750 L 1303,1754 L 981,2076 L 977,2079 L 972,2081 L 967,2082 L 705,2082 L 701,2081 L 698,2080 L 694,2079 L 691,2076 L 225,1610 z " style="fill-opacity:1.000000;fill:rgb(171,178,205);stroke:rgb(0,0,0);stroke-width:2"/></g>
<g fill-rule="evenodd"><path d="M 730,2696 L 730,2421 L 679,2421 L 679,2280 L 820,2280 L 820,2421 L 769,2421 L 769,2700 L 776,2704 L 784,2711 L 791,2720 L 796,2730 L 799,2741 L 799,2752 L 797,2763 L 794,2773 L 788,2783 L 780,2791 L 771,2797 L 761,2801 L 750,2804 L 744,2804 L 733,2803 L 722,2799 L 713,2794 L 704,2787 L 697,2778 L 692,2768 L 690,2757 L 689,2746 L 691,2735 L 695,2725 L 700,2715 L 708,2707 L 717,2701 L 728,2696 L 730,2696 z " style="fill-opacity:1.000000;fill:rgb(198,155,180);stroke:rgb(0,0,0);stroke-width:2"/></g>
<g fill-rule="evenodd"><path d="M 351,1914 L 204,1829 L 243,1761 L 414,1859 L 392,1899 L 564,2071 L 567,2075 L 569,2079 L 569,2084 L 569,2283 L 571,2283 L 585,2289 L 597,2298 L 607,2309 L 614,2322 L 619,2336 L 620,2351 L 619,2365 L 614,2379 L 607,2392 L 597,2403 L 585,2412 L 571,2418 L 557,2421 L 542,2421 L 528,2418 L 514,2412 L 502,2403 L 492,2392 L 485,2379 L 480,2365 L 479,2351 L 480,2336 L 485,2322 L 492,2309 L 502,2298 L 514,2289 L 528,2283 L 530,2283 L 530,2093 L 351,1914 z " style="fill-opacity:1.000000;fill:rgb(84,17,14);stroke:rgb(0,0,0);stroke-width:2"/></g>
<g fill-rule="evenodd"><path d="M 756,1133 L 814,1167 L 775,1235 L 604,1136 L 643,1068 L 720,1112 L 1007,826 L 1010,823 L 1013,822 L 1017,820 L 1021,820 L 1449,820 L 1991,278 L 1991,213 L 1991,209 L 1992,205 L 1995,201 L 1997,199 L 2008,187 L 2012,184 L 2017,182 L 2022,181 L 2195,181 L 2201,182 L 2205,184 L 2209,187 L 2221,199 L 2224,203 L 2226,208 L 2227,213 L 2227,505 L 2226,510 L 2224,515 L 2223,516 L 2223,528 L 2223,533 L 2221,538 L 2218,542 L 2042,717 L 2042,1325 L 2041,1330 L 2039,1335 L 2036,1339 L 1903,1472 L 1899,1475 L 1894,1477 L 1889,1478 L 1753,1478 L 1749,1488 L 1742,1499 L 1733,1509 L 1721,1517 L 1709,1522 L 1696,1525 L 1689,1525 L 1675,1524 L 1663,1520 L 1651,1513 L 1640,1504 L 1632,1493 L 1626,1481 L 1623,1468 L 1622,1455 L 1624,1441 L 1629,1429 L 1636,1417 L 1645,1407 L 1656,1400 L 1669,1394 L 1682,1391 L 1689,1391 L 1702,1393 L 1715,1397 L 1727,1403 L 1737,1412 L 1746,1423 L 1752,1435 L 1753,1438 L 1881,1438 L 2003,1317 L 2003,709 L 2003,704 L 2005,699 L 2008,695 L 2184,520 L 2184,505 L 2185,501 L 2188,497 L 2188,221 L 2187,221 L 2030,221 L 2030,221 L 2030,287 L 2029,292 L 2027,296 L 2024,301 L 1471,854 L 1467,857 L 1462,859 L 1457,860 L 1029,860 L 756,1133 z " style="fill-opacity:1.000000;fill:rgb(130,116,65);stroke:rgb(0,0,0);stroke-width:2"/></g>
<g fill-rule="evenodd"><path d="M 0,1550 L 0,1465 L 0,1461 L 1,1458 L 3,1454 L 5,1451 L 199,1256 L 199,1126 L 200,1120 L 202,1116 L 205,1112 L 482,835 L 478,833 L 518,764 L 689,863 L 649,931 L 539,868 L 505,868 L 239,1134 L 239,1265 L 238,1270 L 236,1274 L 233,1279 L 39,1473 L 39,1542 L 116,1618 L 119,1622 L 121,1627 L 121,1632 L 121,2006 L 253,2138 L 256,2142 L 258,2146 L 259,2152 L 259,2216 L 644,2601 L 647,2605 L 649,2610 L 650,2615 L 650,2795 L 697,2843 L 791,2843 L 1034,2600 L 1034,2192 L 1035,2186 L 1037,2182 L 1040,2178 L 1206,2012 L 1206,1915 L 1207,1912 L 1208,1908 L 1210,1903 L 1212,1901 L 1469,1644 L 1469,1522 L 1463,1520 L 1451,1513 L 1440,1504 L 1432,1493 L 1426,1481 L 1423,1468 L 1422,1455 L 1424,1441 L 1429,1429 L 1436,1417 L 1445,1407 L 1456,1400 L 1469,1394 L 1482,1391 L 1489,1391 L 1502,1393 L 1515,1397 L 1527,1403 L 1537,1412 L 1546,1423 L 1552,1435 L 1555,1448 L 1556,1461 L 1554,1475 L 1549,1488 L 1542,1499 L 1533,1509 L 1521,1517 L 1509,1522 L 1509,1652 L 1508,1657 L 1506,1662 L 1503,1666 L 1246,1923 L 1246,2020 L 1245,2025 L 1243,2030 L 1240,2034 L 1074,2200 L 1074,2608 L 1073,2612 L 1072,2616 L 1071,2618 L 1068,2622 L 813,2877 L 809,2880 L 804,2882 L 799,2883 L 689,2883 L 684,2882 L 679,2880 L 675,2877 L 616,2818 L 614,2815 L 612,2811 L 611,2808 L 610,2804 L 610,2623 L 225,2238 L 222,2234 L 220,2230 L 220,2224 L 220,2160 L 88,2028 L 85,2025 L 83,2021 L 82,2018 L 82,2014 L 82,1640 L 5,1564 L 2,1560 L 0,1555 L 0,1550 z " style="fill-opacity:1.000000;fill:rgb(33,61,220);stroke:rgb(0,0,0);stroke-width:2"/></g>
<g fill-rule="evenodd"><path d="M 485,1216 L 449,1278 L 278,1179 L 318,1111 L 428,1175 L 490,1175 L 496,1175 L 500,1177 L 504,1180 L 622,1298 L 767,1298 L 865,1201 L 865,1165 L 865,1160 L 867,1155 L 870,1151 L 990,1032 L 994,1029 L 999,1027 L 1004,1026 L 1277,1026 L 1282,1027 L 1286,1029 L 1291,1032 L 1458,1199 L 1469,1194 L 1482,1192 L 1489,1191 L 1502,1193 L 1515,1197 L 1527,1203 L 1537,1212 L 1546,1223 L 1552,1235 L 1555,1248 L 1556,1261 L 1554,1275 L 1549,1288 L 1542,1299 L 1533,1309 L 1521,1317 L 1509,1322 L 1496,1325 L 1489,1325 L 1475,1324 L 1463,1320 L 1451,1313 L 1440,1304 L 1432,1293 L 1426,1281 L 1423,1268 L 1422,1255 L 1424,1241 L 1429,1229 L 1430,1227 L 1268,1065 L 1012,1065 L 904,1173 L 904,1209 L 904,1212 L 902,1217 L 900,1221 L 898,1223 L 789,1332 L 785,1335 L 780,1337 L 775,1338 L 614,1338 L 610,1337 L 607,1336 L 604,1335 L 600,1332 L 485,1216 z " style="fill-opacity:1.000000;fill:rgb(135,112,233);stroke:rgb(0,0,0);stroke-width:2"/></g>
<g fill-rule="evenodd"><path d="M 554,1478 L 699,1478 L 943,1233 L 943,1198 L 944,1193 L 946,1188 L 949,1184 L 1015,1118 L 1019,1115 L 1023,1113 L 1029,1112 L 1163,1112 L 1166,1113 L 1170,1114 L 1174,1116 L 1177,1118 L 1258,1199 L 1269,1194 L 1282,1192 L 1289,1191 L 1302,1193 L 1315,1197 L 1327,1203 L 1337,1212 L 1346,1223 L 1352,1235 L 1355,1248 L 1356,1261 L 1354,1275 L 1349,1288 L 1342,1299 L 1333,1309 L 1321,1317 L 1309,1322 L 1296,1325 L 1289,1325 L 1276,1324 L 1263,1320 L 1251,1313 L 1240,1304 L 1232,1293 L 1226,1281 L 1223,1268 L 1222,1255 L 1224,1241 L 1229,1229 L 1230,1227 L 1155,1152 L 1037,1152 L 983,1206 L 983,1242 L 982,1247 L 980,1251 L 977,1255 L 721,1512 L 717,1515 L 712,1517 L 707,1517 L 612,1517 L 575,1581 L 404,1482 L 443,1414 L 554,1478 z " style="fill-opacity:1.000000;fill:rgb(62,161,65);stroke:rgb(0,0,0);stroke-width:2"/></g>
<g fill-rule="evenodd"><path d="M 1072,1681 L 1071,1679 L 1070,1676 L 1069,1672 L 1069,1525 L 1022,1525 L 1022,1391 L 1156,1391 L 1156,1525 L 1109,1525 L 1109,1650 L 1123,1646 L 1137,1646 L 1151,1649 L 1164,1655 L 1175,1663 L 1184,1673 L 1191,1686 L 1196,1699 L 1197,1713 L 1196,1727 L 1191,1740 L 1184,1752 L 1175,1763 L 1164,1771 L 1151,1776 L 1137,1779 L 1123,1779 L 1109,1776 L 1097,1771 L 1085,1763 L 1076,1752 L 1069,1740 L 1065,1727 L 1063,1713 L 1065,1699 L 1069,1686 L 1072,1681 z " style="fill-opacity:1.000000;fill:rgb(225,252,103);stroke:rgb(0,0,0);stroke-width:2"/></g>
<g fill-rule="evenodd"><path d="M 1748,1227 L 1752,1235 L 1755,1248 L 1756,1261 L 1754,1275 L 1749,1288 L 1742,1299 L 1733,1309 L 1721,1317 L 1709,1322 L 1696,1325 L 1689,1325 L 1675,1324 L 1663,1320 L 1651,1313 L 1640,1304 L 1632,1293 L 1626,1281 L 1623,1268 L 1622,1255 L 1624,1241 L 1629,1229 L 1636,1217 L 1645,1207 L 1656,1200 L 1669,1194 L 1682,1192 L 1689,1191 L 1702,1193 L 1715,1197 L 1720,1199 L 1869,1050 L 1869,519 L 1870,515 L 1871,511 L 1872,509 L 1875,506 L 2016,364 L 2020,361 L 2025,359 L 2030,359 L 2069,359 L 2069,260 L 2148,260 L 2148,458 L 2069,458 L 2069,398 L 2038,398 L 1909,528 L 1909,1058 L 1908,1062 L 1907,1066 L 1905,1069 L 1903,1072 L 1748,1227 z " style="fill-opacity:1.000000;fill:rgb(62,1,126);stroke:rgb(0,0,0);stroke-width:2"/></g>
<g fill-rule="evenodd"><path d="M 3429,1562 L 3383,1588 L 3343,1520 L 3514,1421 L 3554,1490 L 3468,1539 L 3468,2510 L 3468,2515 L 3466,2520 L 3463,2524 L 3056,2931 L 3056,3045 L 2922,3045 L 2922,2911 L 3020,2911 L 3429,2502 L 3429,1562 z " style="fill-opacity:1.000000;fill:rgb(151,234,220);stroke:rgb(0,0,0);stroke-width:2"/></g>
<g fill-rule="evenodd"><path d="M 2856,1778 L 2856,1825 L 2722,1825 L 2722,1691 L 2856,1691 L 2856,1738 L 2887,1738 L 3229,1396 L 3229,1215 L 3183,1242 L 3143,1174 L 3315,1075 L 3354,1143 L 3268,1193 L 3268,1404 L 3268,1409 L 3266,1414 L 3263,1418 L 2909,1772 L 2905,1775 L 2900,1777 L 2895,1778 L 2856,1778 z " style="fill-opacity:1.000000;fill:rgb(107,150,143);stroke:rgb(0,0,0);stroke-width:2"/></g>
<g fill-rule="evenodd"><path d="M 2925,2558 L 2929,2548 L 2936,2537 L 2945,2527 L 2956,2519 L 2969,2514 L 2982,2511 L 2989,2511 L 3002,2512 L 3015,2516 L 3027,2523 L 3037,2532 L 3045,2542 L 3051,2555 L 3055,2568 L 3056,2581 L 3053,2595 L 3049,2607 L 3042,2619 L 3032,2629 L 3021,2636 L 3009,2642 L 2995,2644 L 2989,2645 L 2975,2643 L 2962,2639 L 2950,2633 L 2940,2624 L 2932,2613 L 2926,2601 L 2925,2598 L 2880,2598 L 2772,2705 L 2774,2709 L 2779,2722 L 2780,2736 L 2779,2750 L 2774,2763 L 2767,2776 L 2758,2786 L 2747,2794 L 2734,2800 L 2720,2803 L 2708,2803 L 2708,2911 L 2756,2911 L 2756,3045 L 2622,3045 L 2622,2911 L 2669,2911 L 2669,2786 L 2659,2776 L 2652,2763 L 2648,2750 L 2646,2736 L 2648,2722 L 2652,2709 L 2659,2697 L 2668,2686 L 2680,2678 L 2693,2673 L 2706,2670 L 2720,2670 L 2734,2673 L 2744,2677 L 2858,2564 L 2862,2561 L 2866,2559 L 2872,2558 L 2925,2558 z " style="fill-opacity:1.000000;fill:rgb(56,92,42);stroke:rgb(0,0,0);stroke-width:2"/></g>
<g fill-rule="evenodd"><path d="M 3880,1532 L 3708,1631 L 3669,1563 L 3728,1529 L 3581,1382 L 3426,1382 L 3304,1504 L 3304,2482 L 3303,2487 L 3301,2492 L 3298,2496 L 3048,2747 L 3051,2755 L 3055,2768 L 3056,2781 L 3053,2795 L 3049,2807 L 3042,2819 L 3032,2829 L 3021,2836 L 3009,2842 L 2995,2844 L 2989,2845 L 2975,2843 L 2962,2839 L 2950,2833 L 2940,2824 L 2932,2813 L 2926,2801 L 2923,2788 L 2922,2774 L 2924,2761 L 2929,2748 L 2936,2737 L 2945,2727 L 2956,2719 L 2969,2714 L 2982,2711 L 2989,2711 L 3002,2712 L 3015,2716 L 3020,2719 L 3265,2474 L 3265,1496 L 3265,1491 L 3267,1486 L 3270,1482 L 3404,1348 L 3408,1345 L 3413,1343 L 3418,1343 L 3589,1343 L 3594,1343 L 3599,1345 L 3603,1348 L 3763,1509 L 3840,1464 L 3880,1532 z " style="fill-opacity:1.000000;fill:rgb(236,176,59);stroke:rgb(0,0,0);stroke-width:2"/></g>
<g fill-rule="evenodd"><path d="M 2810,1391 L 3292,910 L 3269,870 L 3440,772 L 3480,840 L 3333,925 L 2856,1402 L 2856,1525 L 2722,1525 L 2722,1391 L 2810,1391 z " style="fill-opacity:1.000000;fill:rgb(251,50,175);stroke:rgb(0,0,0);stroke-width:2"/></g>
<g fill-rule="evenodd"><path d="M 2959,854 L 2943,827 L 3115,729 L 3154,797 L 2983,896 L 2979,889 L 2808,1060 L 2808,1091 L 2856,1091 L 2856,1225 L 2722,1225 L 2722,1091 L 2769,1091 L 2769,1052 L 2770,1047 L 2772,1042 L 2775,1038 L 2959,854 z " style="fill-opacity:1.000000;fill:rgb(60,84,236);stroke:rgb(0,0,0);stroke-width:2"/></g>
</svg>
