<?xml version="1.0" standalone="no"?>
<!DOCTYPE svg PUBLIC "-//W3C//DTD SVG 1.1//EN"
"http://www.w3.org/Graphics/SVG/1.1/DTD/svg11.dtd">
<svg width="3880" height="3637" viewBox="0 0 3880 3637" version="1.1"
xmlns="http://www.w3.org/2000/svg"
xmlns:xlink="http://www.w3.org/1999/xlink">
<g fill-rule="evenodd"><path d="M 2778,2382 L 2804,2356 L 2818,2345 L 2838,2329 L 2851,2320 L 2854,2318 L 2864,2312 L 2867,2310 L 2869,2308 L 2879,2301 L 2884,2297 L 2888,2294 L 2890,2293 L 2900,2285 L 2901,2284 L 2905,2280 L 2909,2278 L 2911,2278 L 2912,2278 L 2925,2278 L 2927,2278 L 2938,2278 L 2941,2278 L 2950,2278 L 2953,2278 L 2961,2278 L 2964,2278 L 2972,2278 L 2975,2278 L 2980,2278 L 2985,2278 L 2987,2278 L 2990,2278 L 2992,2278 L 2997,2278 L 3002,2278 L 3006,2278 L 3013,2278 L 3016,2278 L 3024,2278 L 3027,2278 L 3036,2278 L 3039,2278 L 3050,2278 L 3052,2278 L 3066,2278 L 3067,2278 L 3083,2278 L 3084,2278 L 3104,2278 L 3107,2278 L 3129,2278 L 3136,2278 L 3145,2278 L 3149,2292 L 3152,2305 L 3156,2327 L 3158,2341 L 3160,2362 L 3160,2376 L 3159,2397 L 3158,2411 L 3156,2429 L 3154,2432 L 3147,2444 L 3135,2461 L 3126,2472 L 3121,2478 L 3107,2478 L 3104,2478 L 3084,2478 L 3083,2478 L 3067,2478 L 3066,2478 L 3052,2478 L 3050,2478 L 3039,2478 L 3036,2478 L 3027,2478 L 3024,2478 L 3016,2478 L 3013,2478 L 3006,2478 L 3002,2478 L 2997,2478 L 2992,2478 L 2990,2478 L 2987,2478 L 2985,2478 L 2980,2478 L 2975,2478 L 2972,2478 L 2964,2478 L 2961,2478 L 2953,2478 L 2950,2478 L 2941,2478 L 2938,2478 L 2927,2478 L 2925,2478 L 2912,2478 L 2911,2478 L 2894,2478 L 2893,2478 L 2881,2478 L 2874,2475 L 2872,2474 L 2861,2469 L 2860,2468 L 2854,2466 L 2839,2459 L 2822,2452 L 2822,2452 L 2816,2450 L 2786,2437 L 2764,2429 L 2760,2428 L 2751,2425 L 2742,2421 L 2764,2396 L 2778,2382 z " style="fill-opacity:1.000000;fill:rgb(103,198,105);stroke:rgb(0,0,0);stroke-width:2"/></g>
<g fill-rule="evenodd"><path d="M 3597,957 L 3796,1305 L 3794,1306 L 3747,1302 L 3660,1291 L 3648,1290 L 3642,1289 L 3622,1289 L 3616,1290 L 3601,1292 L 3595,1293 L 3589,1294 L 3524,1312 L 3512,1314 L 3499,1313 L 3487,1310 L 3475,1304 L 3418,1271 L 3408,1266 L 3402,1263 L 3395,1260 L 3374,1250 L 3373,1250 L 3382,1229 L 3392,1210 L 3431,1150 L 3446,1119 L 3459,1083 L 3473,1029 L 3560,979 L 3560,979 L 3597,957 z " style="fill-opacity:1.000000;fill:rgb(115,81,255);stroke:rgb(0,0,0);stroke-width:2"/></g>
<g fill-rule="evenodd"><path d="M 3880,2113 L 3827,2208 L 3697,2133 L 3663,2112 L 3632,2091 L 3606,2070 L 3583,2049 L 3564,2028 L 3548,2007 L 3537,1986 L 3530,1965 L 3508,1887 L 3506,1871 L 3507,1855 L 3511,1839 L 3518,1823 L 3595,1690 L 3603,1692 L 3641,1699 L 3676,1701 L 3747,1698 L 3781,1699 L 3819,1707 L 3880,1723 L 3880,2113 z " style="fill-opacity:1.000000;fill:rgb(74,236,41);stroke:rgb(0,0,0);stroke-width:2"/></g>
<g fill-rule="evenodd"><path d="M 2325,3636 L 2332,3622 L 2334,3618 L 2341,3597 L 2342,3594 L 2406,3439 L 2410,3431 L 2415,3425 L 2422,3419 L 2429,3415 L 2508,3383 L 2534,3375 L 2565,3371 L 2579,3371 L 2585,3371 L 2623,3370 L 2630,3370 L 2710,3369 L 2723,3369 L 2834,3369 L 2839,3372 L 2903,3439 L 2922,3458 L 3055,3591 L 3029,3636 L 2325,3636 z " style="fill-opacity:1.000000;fill:rgb(205,186,171);stroke:rgb(0,0,0);stroke-width:2"/></g>
<g fill-rule="evenodd"><path d="M 2208,3445 L 2186,3440 L 2185,3439 L 2152,3376 L 2134,3347 L 2108,3318 L 2069,3278 L 2069,3178 L 2069,3096 L 2077,3068 L 2087,3040 L 2099,3012 L 2114,2984 L 2138,2978 L 2180,2982 L 2195,2983 L 2229,2988 L 2232,2988 L 2242,2997 L 2275,3026 L 2289,3037 L 2308,3050 L 2315,3055 L 2328,3064 L 2347,3079 L 2358,3087 L 2367,3095 L 2376,3116 L 2383,3137 L 2387,3157 L 2389,3178 L 2389,3253 L 2338,3376 L 2333,3386 L 2326,3394 L 2318,3401 L 2308,3406 L 2229,3438 L 2208,3445 z " style="fill-opacity:1.000000;fill:rgb(242,251,227);stroke:rgb(0,0,0);stroke-width:2"/></g>
<g fill-rule="evenodd"><path d="M 3050,0 L 3128,136 L 3025,260 L 2997,295 L 2971,331 L 2947,366 L 2926,402 L 2893,458 L 2872,492 L 2850,524 L 2827,554 L 2802,582 L 2664,730 L 2628,753 L 2590,773 L 2573,774 L 2566,775 L 2548,776 L 2518,778 L 2504,779 L 2489,781 L 2469,779 L 2436,775 L 2428,752 L 2406,686 L 2403,677 L 2379,603 L 2377,597 L 2363,551 L 2362,546 L 2360,540 L 2357,527 L 2356,522 L 2353,505 L 2349,481 L 2348,458 L 2348,318 L 2374,289 L 2392,260 L 2425,197 L 2444,168 L 2469,139 L 2548,60 L 2581,30 L 2618,0 L 3050,0 z " style="fill-opacity:1.000000;fill:rgb(70,124,194);stroke:rgb(0,0,0);stroke-width:2"/></g>
<g fill-rule="evenodd"><path d="M 1509,518 L 1509,458 L 1509,358 L 1548,318 L 1574,289 L 1593,260 L 1625,197 L 1644,168 L 1670,139 L 1709,99 L 1748,139 L 1774,168 L 1793,197 L 1825,260 L 1844,290 L 1774,458 L 1770,466 L 1764,473 L 1757,479 L 1748,484 L 1670,516 L 1655,522 L 1638,525 L 1601,529 L 1558,526 L 1509,518 z " style="fill-opacity:1.000000;fill:rgb(84,248,27);stroke:rgb(0,0,0);stroke-width:2"/></g>
<g fill-rule="evenodd"><path d="M 1021,553 L 998,538 L 995,536 L 944,500 L 1000,458 L 1037,427 L 1070,397 L 1148,318 L 1174,289 L 1193,260 L 1225,197 L 1244,168 L 1270,139 L 1309,99 L 1348,139 L 1374,168 L 1393,197 L 1425,260 L 1444,289 L 1470,318 L 1509,358 L 1509,458 L 1509,518 L 1482,554 L 1450,587 L 1414,615 L 1374,638 L 1348,639 L 1270,639 L 1238,638 L 1207,634 L 1176,627 L 1145,618 L 1114,606 L 1083,591 L 1052,573 L 1021,553 z " style="fill-opacity:1.000000;fill:rgb(232,231,141);stroke:rgb(0,0,0);stroke-width:2"/></g>
<g fill-rule="evenodd"><path d="M 2618,0 L 2581,30 L 2548,60 L 2469,139 L 2444,168 L 2425,197 L 2392,260 L 2374,289 L 2348,318 L 2269,240 L 2258,226 L 2251,213 L 2250,210 L 2248,205 L 2247,199 L 2247,197 L 2246,194 L 2244,188 L 2243,183 L 2241,179 L 2234,162 L 2232,158 L 2230,152 L 2223,141 L 2220,136 L 2208,122 L 2204,116 L 2195,107 L 2109,21 L 2109,0 L 2618,0 z " style="fill-opacity:1.000000;fill:rgb(118,90,46);stroke:rgb(0,0,0);stroke-width:2"/></g>
<g fill-rule="evenodd"><path d="M 2109,0 L 2109,21 L 2022,107 L 2014,116 L 2009,122 L 1998,136 L 1995,141 L 1988,152 L 1986,158 L 1983,162 L 1977,179 L 1976,181 L 1975,184 L 1973,189 L 1972,193 L 1971,197 L 1971,198 L 1970,202 L 1969,206 L 1967,210 L 1967,213 L 1960,226 L 1948,240 L 1933,255 L 1870,281 L 1844,290 L 1825,260 L 1793,197 L 1774,168 L 1748,139 L 1709,99 L 1709,0 L 2109,0 z " style="fill-opacity:1.000000;fill:rgb(99,51,159);stroke:rgb(0,0,0);stroke-width:2"/></g>
<g fill-rule="evenodd"><path d="M 1709,0 L 1709,99 L 1670,139 L 1644,168 L 1625,197 L 1593,260 L 1574,289 L 1548,318 L 1509,358 L 1470,318 L 1444,289 L 1425,260 L 1393,197 L 1374,168 L 1348,139 L 1309,99 L 1309,0 L 1709,0 z " style="fill-opacity:1.000000;fill:rgb(201,154,102);stroke:rgb(0,0,0);stroke-width:2"/></g>
<g fill-rule="evenodd"><path d="M 886,0 L 1309,0 L 1309,99 L 1270,139 L 1244,168 L 1225,197 L 1193,260 L 1174,289 L 1148,318 L 1070,397 L 1037,427 L 1000,458 L 944,500 L 932,499 L 927,499 L 845,492 L 841,491 L 815,489 L 767,452 L 722,411 L 664,355 L 886,0 z " style="fill-opacity:1.000000;fill:rgb(50,13,183);stroke:rgb(0,0,0);stroke-width:2"/></g>
<g fill-rule="evenodd"><path d="M 1094,2290 L 1093,2288 L 1093,2224 L 1094,2222 L 1094,2216 L 1095,2211 L 1095,2209 L 1097,2206 L 1100,2202 L 1103,2198 L 1105,2196 L 1254,2048 L 1256,2046 L 1259,2042 L 1262,2037 L 1265,2033 L 1268,2028 L 1271,2023 L 1272,2020 L 1302,1946 L 1365,1884 L 1370,1879 L 1374,1875 L 1386,1866 L 1388,1865 L 1389,1864 L 1394,1852 L 1400,1839 L 1405,1829 L 1413,1817 L 1418,1810 L 1426,1799 L 1432,1792 L 1441,1782 L 1447,1776 L 1458,1767 L 1465,1762 L 1476,1754 L 1485,1749 L 1497,1742 L 1508,1737 L 1522,1731 L 1536,1727 L 1551,1722 L 1557,1720 L 1570,1717 L 1570,1717 L 1576,1715 L 1587,1712 L 1611,1705 L 1619,1703 L 1619,1703 L 1641,1696 L 1648,1694 L 1664,1681 L 1673,1681 L 1697,1681 L 1704,1681 L 1728,1680 L 1741,1678 L 1774,1673 L 1787,1671 L 1822,1661 L 1834,1658 L 1889,1658 L 1913,1657 L 1918,1657 L 1942,1654 L 1966,1650 L 1971,1649 L 1996,1643 L 2022,1636 L 2027,1634 L 2054,1624 L 2116,1598 L 2116,1598 L 2119,1583 L 2130,1532 L 2134,1517 L 2147,1477 L 2152,1463 L 2155,1457 L 2163,1436 L 2165,1431 L 2165,1431 L 2170,1418 L 2180,1393 L 2181,1389 L 2182,1388 L 2186,1376 L 2195,1350 L 2196,1346 L 2197,1345 L 2201,1333 L 2203,1325 L 2206,1318 L 2206,1297 L 2204,1293 L 2195,1261 L 2192,1247 L 2186,1218 L 2185,1204 L 2182,1175 L 2182,1162 L 2183,1133 L 2184,1120 L 2187,1091 L 2190,1077 L 2197,1047 L 2201,1033 L 2212,1000 L 2218,986 L 2235,949 L 2242,935 L 2267,892 L 2276,879 L 2313,830 L 2314,829 L 2327,822 L 2367,802 L 2374,799 L 2420,781 L 2435,776 L 2436,775 L 2469,779 L 2489,781 L 2488,818 L 2488,863 L 2489,909 L 2489,943 L 2489,964 L 2489,992 L 2489,1003 L 2489,1026 L 2489,1031 L 2489,1052 L 2489,1054 L 2489,1072 L 2489,1072 L 2489,1088 L 2489,1089 L 2489,1102 L 2489,1104 L 2489,1114 L 2489,1117 L 2489,1125 L 2489,1128 L 2489,1136 L 2489,1139 L 2489,1146 L 2489,1150 L 2489,1156 L 2489,1160 L 2489,1167 L 2489,1170 L 2489,1177 L 2489,1180 L 2489,1188 L 2489,1191 L 2489,1200 L 2489,1202 L 2489,1212 L 2489,1215 L 2489,1227 L 2489,1228 L 2489,1244 L 2489,1244 L 2489,1262 L 2489,1264 L 2489,1266 L 2489,1266 L 2489,1350 L 2489,1350 L 2489,1352 L 2489,1354 L 2489,1372 L 2489,1372 L 2489,1388 L 2489,1389 L 2489,1401 L 2489,1404 L 2489,1414 L 2489,1417 L 2489,1425 L 2489,1428 L 2489,1436 L 2489,1439 L 2489,1446 L 2489,1450 L 2489,1456 L 2489,1460 L 2489,1467 L 2489,1470 L 2489,1477 L 2489,1480 L 2489,1488 L 2489,1491 L 2489,1500 L 2489,1502 L 2489,1512 L 2489,1515 L 2489,1527 L 2489,1528 L 2489,1544 L 2489,1544 L 2489,1562 L 2489,1564 L 2489,1566 L 2489,1566 L 2489,1650 L 2489,1650 L 2489,1652 L 2489,1654 L 2489,1672 L 2489,1672 L 2489,1688 L 2489,1689 L 2489,1701 L 2489,1704 L 2489,1714 L 2489,1716 L 2489,1725 L 2489,1728 L 2489,1736 L 2489,1739 L 2489,1746 L 2489,1750 L 2489,1756 L 2489,1760 L 2489,1766 L 2489,1770 L 2489,1777 L 2489,1780 L 2489,1780 L 2485,1786 L 2478,1798 L 2474,1803 L 2465,1814 L 2462,1818 L 2452,1828 L 2448,1832 L 2438,1840 L 2433,1844 L 2422,1852 L 2416,1855 L 2403,1862 L 2398,1865 L 2391,1868 L 2384,1870 L 2372,1875 L 2372,1875 L 2367,1879 L 2363,1883 L 2352,1891 L 2348,1894 L 2335,1902 L 2330,1904 L 2322,1908 L 2305,1915 L 2301,1917 L 2299,1921 L 2297,1926 L 2293,1944 L 2292,1949 L 2290,1965 L 2289,1970 L 2289,1978 L 2289,2008 L 2286,2015 L 2281,2028 L 2278,2038 L 2275,2051 L 2273,2060 L 2271,2073 L 2270,2081 L 2269,2094 L 2269,2102 L 2270,2113 L 2270,2115 L 2274,2122 L 2281,2133 L 2285,2139 L 2293,2149 L 2297,2154 L 2306,2163 L 2310,2168 L 2320,2176 L 2325,2180 L 2336,2187 L 2343,2191 L 2354,2197 L 2355,2198 L 2363,2198 L 2375,2198 L 2383,2198 L 2384,2198 L 2395,2205 L 2402,2209 L 2412,2216 L 2418,2220 L 2427,2228 L 2432,2233 L 2438,2239 L 2439,2243 L 2441,2249 L 2445,2261 L 2446,2266 L 2448,2279 L 2448,2283 L 2449,2296 L 2449,2300 L 2448,2313 L 2448,2317 L 2446,2329 L 2445,2334 L 2441,2347 L 2439,2353 L 2435,2366 L 2431,2373 L 2425,2386 L 2422,2391 L 2417,2392 L 2405,2395 L 2396,2396 L 2384,2397 L 2375,2398 L 2363,2398 L 2354,2397 L 2354,2397 L 2343,2391 L 2336,2387 L 2325,2380 L 2320,2376 L 2310,2368 L 2306,2363 L 2297,2354 L 2293,2349 L 2285,2339 L 2281,2333 L 2274,2322 L 2270,2315 L 2265,2303 L 2260,2293 L 2259,2288 L 2159,2188 L 2155,2183 L 2151,2179 L 2143,2168 L 2140,2164 L 2132,2151 L 2130,2146 L 2126,2138 L 2068,1998 L 2040,1987 L 2026,1981 L 2021,1980 L 1995,1973 L 1990,1972 L 1966,1969 L 1961,1968 L 1949,1968 L 1849,1968 L 1830,1958 L 1810,1952 L 1791,1948 L 1772,1946 L 1646,1946 L 1618,1949 L 1611,1954 L 1600,1963 L 1590,1973 L 1578,1984 L 1578,1984 L 1565,1987 L 1550,1989 L 1536,1991 L 1522,1991 L 1508,1991 L 1504,1991 L 1492,1996 L 1485,1999 L 1479,2001 L 1465,2005 L 1460,2006 L 1454,2007 L 1450,2007 L 1448,2008 L 1444,2010 L 1435,2015 L 1432,2017 L 1424,2022 L 1421,2025 L 1414,2031 L 1411,2033 L 1405,2040 L 1402,2043 L 1398,2048 L 1300,2147 L 1296,2148 L 1287,2151 L 1273,2156 L 1267,2159 L 1254,2166 L 1250,2169 L 1238,2177 L 1235,2180 L 1224,2189 L 1221,2192 L 1211,2202 L 1209,2205 L 1200,2216 L 1197,2220 L 1190,2233 L 1187,2238 L 1183,2245 L 1183,2252 L 1183,2258 L 1184,2267 L 1186,2272 L 1189,2277 L 1196,2289 L 1199,2294 L 1208,2305 L 1211,2308 L 1220,2318 L 1223,2321 L 1234,2330 L 1238,2333 L 1250,2341 L 1254,2344 L 1267,2351 L 1273,2354 L 1287,2360 L 1296,2363 L 1311,2367 L 1324,2371 L 1341,2374 L 1360,2376 L 1378,2378 L 1407,2378 L 1412,2378 L 1423,2373 L 1449,2360 L 1463,2352 L 1494,2332 L 1508,2321 L 1525,2309 L 1529,2301 L 1531,2297 L 1536,2292 L 1568,2289 L 1584,2288 L 1618,2284 L 1632,2282 L 1646,2280 L 1661,2278 L 1674,2276 L 1702,2275 L 1715,2275 L 1744,2276 L 1757,2278 L 1772,2280 L 1786,2282 L 1800,2284 L 1834,2288 L 1849,2289 L 1876,2291 L 1887,2302 L 1896,2312 L 1921,2341 L 1929,2352 L 1952,2386 L 1959,2397 L 1981,2436 L 1987,2449 L 2003,2488 L 2130,2540 L 2147,2558 L 2162,2571 L 2167,2574 L 2192,2584 L 2225,2596 L 2243,2602 L 2261,2607 L 2276,2611 L 2289,2613 L 2303,2615 L 2309,2615 L 2315,2616 L 2329,2617 L 2342,2619 L 2355,2622 L 2369,2626 L 2383,2630 L 2393,2634 L 2395,2640 L 2401,2654 L 2405,2668 L 2409,2682 L 2412,2694 L 2414,2708 L 2415,2719 L 2416,2733 L 2416,2744 L 2415,2758 L 2414,2770 L 2412,2784 L 2409,2796 L 2405,2810 L 2401,2824 L 2395,2838 L 2388,2854 L 2382,2867 L 2381,2868 L 2371,2875 L 2366,2879 L 2356,2887 L 2355,2889 L 2345,2896 L 2338,2902 L 2327,2911 L 2326,2912 L 2315,2921 L 2303,2930 L 2290,2941 L 2289,2942 L 2276,2952 L 2254,2970 L 2237,2984 L 2237,2984 L 2232,2988 L 2229,2988 L 2195,2983 L 2180,2982 L 2138,2978 L 2114,2984 L 2099,3012 L 2087,3040 L 2077,3068 L 2069,3096 L 2069,3178 L 2069,3278 L 2029,3318 L 2004,3347 L 1985,3376 L 1953,3439 L 1952,3440 L 1923,3446 L 1908,3441 L 1830,3408 L 1819,3403 L 1810,3396 L 1803,3387 L 1797,3376 L 1779,3333 L 1779,3178 L 1780,3165 L 1806,3142 L 1809,3128 L 1811,3114 L 1811,2988 L 1808,2969 L 1801,2950 L 1789,2931 L 1772,2911 L 1734,2874 L 1687,2854 L 1674,2853 L 1661,2852 L 1646,2850 L 1632,2847 L 1618,2845 L 1584,2842 L 1568,2840 L 1555,2839 L 1541,2856 L 1533,2865 L 1512,2892 L 1504,2901 L 1483,2930 L 1476,2940 L 1451,2975 L 1443,2986 L 1442,2988 L 1410,3032 L 1401,3044 L 1377,3072 L 1350,3100 L 1338,3111 L 1335,3114 L 1255,3193 L 1240,3209 L 1139,3311 L 1139,3311 L 1138,3301 L 1129,3245 L 1126,3223 L 1120,3184 L 1113,3133 L 1108,3084 L 1106,3066 L 1104,3018 L 1104,2973 L 1104,2957 L 1106,2923 L 1109,2891 L 1111,2877 L 1120,2828 L 1123,2814 L 1134,2777 L 1139,2765 L 1151,2734 L 1156,2723 L 1161,2714 L 1167,2702 L 1169,2698 L 1169,2698 L 1175,2688 L 1180,2678 L 1181,2675 L 1186,2664 L 1191,2654 L 1191,2654 L 1193,2651 L 1197,2641 L 1198,2625 L 1199,2621 L 1199,2608 L 1199,2559 L 1100,2320 L 1099,2318 L 1098,2315 L 1097,2311 L 1096,2307 L 1095,2302 L 1094,2298 L 1094,2294 L 1094,2290 z " style="fill-opacity:1.000000;fill:rgb(49,88,163);stroke:rgb(0,0,0);stroke-width:2"/></g>
<g fill-rule="evenodd"><path d="M 1183,2258 L 1183,2252 L 1183,2245 L 1187,2238 L 1190,2233 L 1197,2220 L 1200,2216 L 1209,2205 L 1211,2202 L 1221,2192 L 1224,2189 L 1235,2180 L 1238,2177 L 1250,2169 L 1254,2166 L 1267,2159 L 1273,2156 L 1287,2151 L 1296,2148 L 1300,2147 L 1398,2048 L 1402,2043 L 1405,2040 L 1411,2033 L 1414,2031 L 1421,2025 L 1424,2022 L 1432,2017 L 1435,2015 L 1444,2010 L 1448,2008 L 1450,2007 L 1454,2007 L 1460,2006 L 1465,2005 L 1479,2001 L 1485,1999 L 1492,1996 L 1504,1991 L 1508,1991 L 1522,1991 L 1536,1991 L 1550,1989 L 1565,1987 L 1578,1984 L 1578,1984 L 1590,1973 L 1600,1963 L 1611,1954 L 1618,1949 L 1646,1946 L 1772,1946 L 1791,1948 L 1810,1952 L 1830,1958 L 1849,1968 L 1949,1968 L 1961,1968 L 1966,1969 L 1990,1972 L 1995,1973 L 2021,1980 L 2026,1981 L 2040,1987 L 2068,1998 L 2126,2138 L 2130,2146 L 2132,2151 L 2140,2164 L 2143,2168 L 2151,2179 L 2155,2183 L 2159,2188 L 2259,2288 L 2260,2293 L 2265,2303 L 2270,2315 L 2274,2322 L 2281,2333 L 2285,2339 L 2293,2349 L 2297,2354 L 2306,2363 L 2310,2368 L 2320,2376 L 2325,2380 L 2336,2387 L 2343,2391 L 2354,2397 L 2354,2397 L 2363,2398 L 2375,2398 L 2384,2397 L 2396,2396 L 2405,2395 L 2417,2392 L 2422,2391 L 2429,2398 L 2437,2408 L 2444,2418 L 2448,2428 L 2449,2438 L 2449,2558 L 2448,2568 L 2444,2578 L 2437,2588 L 2429,2598 L 2393,2634 L 2383,2630 L 2369,2626 L 2355,2622 L 2342,2619 L 2329,2617 L 2315,2616 L 2309,2615 L 2303,2615 L 2289,2613 L 2276,2611 L 2261,2607 L 2243,2602 L 2225,2596 L 2192,2584 L 2167,2574 L 2162,2571 L 2147,2558 L 2130,2540 L 2003,2488 L 1987,2449 L 1981,2436 L 1959,2397 L 1952,2386 L 1929,2352 L 1921,2341 L 1896,2312 L 1887,2302 L 1876,2291 L 1849,2289 L 1834,2288 L 1800,2284 L 1786,2282 L 1772,2280 L 1757,2278 L 1744,2276 L 1715,2275 L 1702,2275 L 1674,2276 L 1661,2278 L 1646,2280 L 1632,2282 L 1618,2284 L 1584,2288 L 1568,2289 L 1536,2292 L 1531,2297 L 1529,2301 L 1525,2309 L 1508,2321 L 1494,2332 L 1463,2352 L 1449,2360 L 1423,2373 L 1412,2378 L 1407,2378 L 1378,2378 L 1360,2376 L 1341,2374 L 1324,2371 L 1311,2367 L 1296,2363 L 1287,2360 L 1273,2354 L 1267,2351 L 1254,2344 L 1250,2341 L 1238,2333 L 1234,2330 L 1223,2321 L 1220,2318 L 1211,2308 L 1208,2305 L 1199,2294 L 1196,2289 L 1189,2277 L 1186,2272 L 1184,2267 L 1183,2258 z " style="fill-opacity:1.000000;fill:rgb(90,37,93);stroke:rgb(0,0,0);stroke-width:2"/></g>
<g fill-rule="evenodd"><path d="M 1007,3636 L 986,3601 L 1052,3481 L 1055,3475 L 1070,3448 L 1073,3443 L 1117,3362 L 1134,3329 L 1139,3311 L 1240,3209 L 1255,3193 L 1335,3114 L 1338,3111 L 1350,3100 L 1377,3072 L 1401,3044 L 1410,3032 L 1442,2988 L 1443,2986 L 1451,2975 L 1476,2940 L 1483,2930 L 1504,2901 L 1512,2892 L 1533,2865 L 1541,2856 L 1555,2839 L 1568,2840 L 1584,2842 L 1618,2845 L 1632,2847 L 1646,2850 L 1661,2852 L 1674,2853 L 1687,2854 L 1734,2874 L 1772,2911 L 1789,2931 L 1801,2950 L 1808,2969 L 1811,2988 L 1811,3114 L 1809,3128 L 1806,3142 L 1780,3165 L 1779,3178 L 1779,3333 L 1797,3376 L 1803,3387 L 1810,3396 L 1819,3403 L 1830,3408 L 1908,3441 L 1923,3446 L 1952,3440 L 1953,3439 L 1985,3376 L 2004,3347 L 2029,3318 L 2069,3278 L 2108,3318 L 2134,3347 L 2152,3376 L 2185,3439 L 2186,3440 L 2208,3445 L 2229,3438 L 2308,3406 L 2318,3401 L 2326,3394 L 2333,3386 L 2338,3376 L 2389,3253 L 2389,3178 L 2387,3157 L 2383,3137 L 2376,3116 L 2367,3095 L 2358,3087 L 2347,3079 L 2328,3064 L 2315,3055 L 2308,3050 L 2289,3037 L 2275,3026 L 2242,2997 L 2232,2988 L 2237,2984 L 2237,2984 L 2254,2970 L 2276,2952 L 2289,2942 L 2290,2941 L 2303,2930 L 2315,2921 L 2326,2912 L 2327,2911 L 2338,2902 L 2345,2896 L 2355,2889 L 2356,2887 L 2366,2879 L 2371,2875 L 2381,2868 L 2382,2867 L 2388,2854 L 2395,2838 L 2401,2824 L 2405,2810 L 2409,2796 L 2412,2784 L 2414,2770 L 2415,2758 L 2416,2744 L 2416,2733 L 2415,2719 L 2414,2708 L 2412,2694 L 2409,2682 L 2405,2668 L 2401,2654 L 2395,2640 L 2393,2634 L 2429,2598 L 2437,2588 L 2444,2578 L 2448,2568 L 2449,2558 L 2449,2438 L 2448,2428 L 2444,2418 L 2437,2408 L 2429,2398 L 2422,2391 L 2425,2386 L 2431,2373 L 2435,2366 L 2439,2353 L 2441,2347 L 2445,2334 L 2446,2329 L 2448,2317 L 2448,2313 L 2449,2300 L 2449,2296 L 2448,2283 L 2448,2279 L 2446,2266 L 2445,2261 L 2441,2249 L 2439,2243 L 2438,2239 L 2432,2233 L 2427,2228 L 2418,2220 L 2412,2216 L 2402,2209 L 2395,2205 L 2384,2198 L 2383,2198 L 2375,2198 L 2363,2198 L 2355,2198 L 2354,2197 L 2343,2191 L 2336,2187 L 2325,2180 L 2320,2176 L 2310,2168 L 2306,2163 L 2297,2154 L 2293,2149 L 2285,2139 L 2281,2133 L 2274,2122 L 2270,2115 L 2270,2113 L 2269,2102 L 2269,2094 L 2270,2081 L 2271,2073 L 2273,2060 L 2275,2051 L 2278,2038 L 2281,2028 L 2286,2015 L 2289,2008 L 2289,1978 L 2289,1970 L 2290,1965 L 2292,1949 L 2293,1944 L 2297,1926 L 2299,1921 L 2301,1917 L 2305,1915 L 2322,1908 L 2330,1904 L 2335,1902 L 2348,1894 L 2352,1891 L 2363,1883 L 2367,1879 L 2372,1875 L 2372,1875 L 2384,1870 L 2391,1868 L 2398,1865 L 2403,1862 L 2416,1855 L 2422,1852 L 2433,1844 L 2438,1840 L 2448,1832 L 2452,1828 L 2462,1818 L 2465,1814 L 2474,1803 L 2478,1798 L 2485,1786 L 2489,1780 L 2489,1780 L 2489,1777 L 2489,1770 L 2489,1766 L 2489,1760 L 2489,1756 L 2489,1750 L 2489,1746 L 2489,1739 L 2489,1736 L 2489,1728 L 2489,1725 L 2489,1716 L 2489,1714 L 2489,1704 L 2489,1701 L 2489,1689 L 2489,1688 L 2489,1672 L 2489,1672 L 2489,1654 L 2489,1652 L 2489,1650 L 2489,1650 L 2489,1566 L 2489,1566 L 2489,1564 L 2489,1562 L 2489,1544 L 2489,1544 L 2489,1528 L 2489,1527 L 2489,1515 L 2489,1512 L 2489,1502 L 2489,1500 L 2489,1491 L 2489,1488 L 2489,1480 L 2489,1477 L 2489,1470 L 2489,1467 L 2489,1460 L 2489,1456 L 2489,1450 L 2489,1446 L 2489,1439 L 2489,1436 L 2489,1428 L 2489,1425 L 2489,1417 L 2489,1414 L 2489,1404 L 2489,1401 L 2489,1389 L 2489,1388 L 2489,1372 L 2489,1372 L 2489,1354 L 2489,1352 L 2489,1350 L 2489,1350 L 2489,1266 L 2489,1266 L 2489,1264 L 2489,1262 L 2489,1244 L 2489,1244 L 2489,1228 L 2489,1227 L 2489,1215 L 2489,1212 L 2489,1202 L 2489,1200 L 2489,1191 L 2489,1188 L 2489,1180 L 2489,1177 L 2489,1170 L 2489,1167 L 2489,1160 L 2489,1156 L 2489,1150 L 2489,1146 L 2489,1139 L 2489,1136 L 2489,1128 L 2489,1125 L 2489,1117 L 2489,1114 L 2489,1104 L 2489,1102 L 2489,1089 L 2489,1088 L 2489,1072 L 2489,1072 L 2489,1054 L 2489,1052 L 2489,1031 L 2489,1026 L 2489,1003 L 2489,992 L 2489,964 L 2489,943 L 2489,909 L 2488,863 L 2488,818 L 2489,781 L 2504,779 L 2518,778 L 2548,776 L 2566,775 L 2573,774 L 2590,773 L 2615,838 L 2625,867 L 2636,899 L 2649,942 L 2649,942 L 2652,950 L 2657,964 L 2663,981 L 2664,1008 L 2666,1033 L 2669,1054 L 2672,1071 L 2675,1083 L 2677,1091 L 2679,1097 L 2682,1105 L 2685,1119 L 2686,1126 L 2688,1139 L 2688,1146 L 2689,1160 L 2689,1167 L 2687,1180 L 2687,1187 L 2684,1201 L 2682,1208 L 2678,1222 L 2678,1225 L 2676,1231 L 2672,1246 L 2670,1257 L 2680,1283 L 2696,1308 L 2680,1334 L 2670,1359 L 2672,1371 L 2675,1383 L 2677,1391 L 2679,1397 L 2682,1405 L 2685,1419 L 2686,1426 L 2688,1439 L 2688,1446 L 2689,1460 L 2689,1466 L 2687,1480 L 2687,1487 L 2684,1501 L 2682,1508 L 2678,1522 L 2678,1525 L 2676,1531 L 2672,1546 L 2670,1557 L 2680,1583 L 2696,1608 L 2680,1634 L 2670,1659 L 2672,1671 L 2675,1683 L 2677,1691 L 2679,1697 L 2682,1705 L 2685,1718 L 2686,1726 L 2688,1739 L 2688,1746 L 2689,1760 L 2689,1766 L 2687,1780 L 2687,1787 L 2684,1801 L 2682,1808 L 2678,1822 L 2678,1825 L 2676,1831 L 2672,1846 L 2669,1861 L 2666,1881 L 2664,1915 L 2662,1946 L 2660,2007 L 2691,2010 L 2722,2012 L 2772,2012 L 2817,2000 L 2823,1999 L 2834,1996 L 2850,1991 L 2856,1989 L 2864,1987 L 2895,1976 L 2907,1971 L 2937,1960 L 2950,1955 L 2973,1944 L 2980,1941 L 3007,1928 L 3009,1927 L 3020,1925 L 3021,1924 L 3025,1923 L 3053,1916 L 3058,1914 L 3063,1920 L 3073,1933 L 3097,1970 L 3105,1983 L 3121,2014 L 3127,2027 L 3138,2054 L 3142,2068 L 3149,2092 L 3152,2105 L 3156,2128 L 3158,2141 L 3160,2162 L 3160,2176 L 3159,2197 L 3158,2211 L 3156,2233 L 3153,2246 L 3148,2269 L 3145,2278 L 3136,2278 L 3129,2278 L 3107,2278 L 3104,2278 L 3084,2278 L 3083,2278 L 3067,2278 L 3066,2278 L 3052,2278 L 3050,2278 L 3039,2278 L 3036,2278 L 3027,2278 L 3024,2278 L 3016,2278 L 3013,2278 L 3006,2278 L 3002,2278 L 2997,2278 L 2992,2278 L 2990,2278 L 2987,2278 L 2985,2278 L 2980,2278 L 2975,2278 L 2972,2278 L 2964,2278 L 2961,2278 L 2953,2278 L 2950,2278 L 2941,2278 L 2938,2278 L 2927,2278 L 2925,2278 L 2912,2278 L 2911,2278 L 2909,2278 L 2905,2280 L 2901,2284 L 2900,2285 L 2890,2293 L 2888,2294 L 2884,2297 L 2879,2301 L 2869,2308 L 2867,2310 L 2864,2312 L 2854,2318 L 2851,2320 L 2838,2329 L 2818,2345 L 2804,2356 L 2778,2382 L 2764,2396 L 2742,2421 L 2722,2429 L 2706,2435 L 2679,2501 L 2672,2510 L 2661,2524 L 2639,2553 L 2630,2567 L 2616,2591 L 2609,2605 L 2600,2625 L 2595,2639 L 2589,2657 L 2585,2670 L 2582,2686 L 2580,2700 L 2578,2715 L 2578,2729 L 2578,2743 L 2578,2757 L 2580,2772 L 2582,2786 L 2585,2802 L 2589,2814 L 2589,2838 L 2577,2858 L 2570,2879 L 2572,2891 L 2575,2903 L 2577,2911 L 2579,2916 L 2582,2925 L 2585,2938 L 2586,2946 L 2588,2959 L 2588,2966 L 2589,2980 L 2589,2986 L 2587,3000 L 2587,3007 L 2584,3020 L 2582,3028 L 2578,3042 L 2578,3045 L 2576,3051 L 2572,3066 L 2570,3077 L 2577,3097 L 2589,3118 L 2603,3138 L 2622,3158 L 2756,3292 L 2759,3295 L 2789,3325 L 2793,3329 L 2834,3369 L 2723,3369 L 2710,3369 L 2630,3370 L 2623,3370 L 2585,3371 L 2579,3371 L 2565,3371 L 2534,3375 L 2508,3383 L 2429,3415 L 2422,3419 L 2415,3425 L 2410,3431 L 2406,3439 L 2342,3594 L 2341,3597 L 2334,3618 L 2332,3622 L 2325,3636 L 1007,3636 z " style="fill-opacity:1.000000;fill:rgb(5,23,88);stroke:rgb(0,0,0);stroke-width:2"/></g>
<g fill-rule="evenodd"><path d="M 758,1923 L 747,1898 L 742,1884 L 733,1851 L 729,1836 L 721,1793 L 719,1776 L 717,1759 L 710,1742 L 721,1716 L 732,1704 L 736,1699 L 754,1677 L 770,1656 L 773,1651 L 794,1615 L 796,1610 L 803,1594 L 894,1376 L 895,1373 L 898,1368 L 901,1363 L 904,1358 L 907,1354 L 910,1350 L 912,1348 L 963,1297 L 965,1295 L 969,1292 L 973,1289 L 977,1286 L 983,1283 L 988,1280 L 991,1279 L 996,1277 L 996,1275 L 996,1275 L 997,1271 L 998,1270 L 999,1266 L 1000,1260 L 1001,1256 L 1001,1255 L 1002,1252 L 1002,1249 L 1003,1244 L 1003,1242 L 1004,1238 L 1004,1234 L 1007,1220 L 1008,1216 L 1008,1216 L 1016,1205 L 1020,1201 L 1029,1192 L 1032,1189 L 1043,1180 L 1047,1177 L 1047,1177 L 1060,1174 L 1065,1173 L 1078,1172 L 1081,1172 L 1088,1172 L 1091,1172 L 1105,1172 L 1109,1173 L 1122,1175 L 1127,1176 L 1141,1179 L 1143,1180 L 1145,1182 L 1155,1191 L 1159,1195 L 1168,1205 L 1172,1210 L 1180,1221 L 1183,1227 L 1189,1236 L 1189,1239 L 1189,1246 L 1189,1250 L 1189,1256 L 1189,1260 L 1189,1267 L 1189,1270 L 1189,1277 L 1189,1280 L 1189,1288 L 1189,1291 L 1189,1300 L 1189,1302 L 1189,1312 L 1189,1315 L 1189,1327 L 1189,1328 L 1189,1339 L 1185,1340 L 1169,1343 L 1158,1346 L 1156,1347 L 1145,1350 L 1137,1352 L 1123,1355 L 1116,1356 L 1103,1358 L 1097,1358 L 1091,1358 L 1086,1358 L 1072,1357 L 1067,1357 L 1058,1361 L 1054,1362 L 1049,1364 L 1042,1366 L 1037,1367 L 1030,1367 L 1025,1368 L 1022,1368 L 1022,1368 L 1009,1370 L 1000,1379 L 993,1391 L 991,1397 L 991,1525 L 992,1539 L 997,1552 L 1004,1566 L 1014,1579 L 1014,1672 L 1015,1675 L 1013,1682 L 1012,1693 L 1012,1707 L 1012,1718 L 1012,1732 L 1013,1743 L 1016,1757 L 1018,1769 L 1022,1783 L 1026,1797 L 1030,1808 L 1033,1810 L 1037,1814 L 1043,1820 L 1047,1824 L 1054,1830 L 1059,1835 L 1060,1836 L 1058,1851 L 1055,1867 L 1051,1883 L 1048,1893 L 1043,1908 L 1040,1915 L 1033,1928 L 1031,1933 L 1023,1946 L 1020,1950 L 1012,1961 L 1009,1964 L 999,1974 L 996,1977 L 986,1986 L 982,1989 L 970,1997 L 966,2000 L 953,2007 L 947,2010 L 946,2010 L 933,2010 L 926,2010 L 912,2008 L 905,2007 L 891,2004 L 883,2002 L 869,1997 L 859,1994 L 845,1987 L 833,1981 L 819,1973 L 803,1963 L 789,1953 L 769,1936 L 760,1928 L 758,1923 z " style="fill-opacity:1.000000;fill:rgb(233,94,212);stroke:rgb(0,0,0);stroke-width:2"/></g>
<g fill-rule="evenodd"><path d="M 59,1533 L 59,1524 L 60,1515 L 68,1485 L 98,1446 L 105,1438 L 113,1433 L 124,1429 L 135,1426 L 295,1405 L 299,1422 L 311,1459 L 327,1489 L 365,1549 L 380,1577 L 517,1682 L 536,1695 L 556,1706 L 578,1716 L 601,1724 L 626,1731 L 652,1736 L 680,1740 L 710,1742 L 717,1759 L 719,1776 L 721,1793 L 729,1836 L 733,1851 L 742,1884 L 747,1898 L 758,1923 L 760,1928 L 769,1936 L 789,1953 L 803,1963 L 819,1973 L 833,1981 L 845,1987 L 859,1994 L 869,1997 L 883,2002 L 891,2004 L 905,2007 L 912,2008 L 926,2010 L 933,2010 L 946,2010 L 947,2010 L 953,2007 L 966,2000 L 970,1997 L 982,1989 L 986,1986 L 996,1977 L 999,1974 L 1009,1964 L 1012,1961 L 1020,1950 L 1023,1946 L 1031,1933 L 1033,1928 L 1040,1915 L 1043,1908 L 1048,1893 L 1051,1883 L 1055,1867 L 1058,1851 L 1060,1836 L 1068,1835 L 1085,1831 L 1098,1828 L 1114,1824 L 1123,1820 L 1137,1815 L 1144,1811 L 1157,1804 L 1162,1801 L 1174,1793 L 1178,1790 L 1188,1781 L 1192,1778 L 1201,1768 L 1205,1764 L 1213,1753 L 1216,1748 L 1224,1736 L 1227,1730 L 1233,1717 L 1233,1717 L 1233,1709 L 1232,1695 L 1232,1687 L 1229,1673 L 1227,1665 L 1224,1651 L 1221,1641 L 1215,1627 L 1210,1615 L 1203,1601 L 1195,1588 L 1203,1572 L 1208,1557 L 1206,1545 L 1203,1533 L 1200,1525 L 1199,1520 L 1196,1511 L 1193,1498 L 1192,1490 L 1190,1477 L 1189,1470 L 1189,1456 L 1189,1450 L 1190,1436 L 1191,1429 L 1194,1416 L 1195,1408 L 1199,1394 L 1200,1391 L 1202,1385 L 1206,1370 L 1208,1358 L 1211,1358 L 1212,1358 L 1226,1358 L 1228,1358 L 1239,1358 L 1241,1358 L 1251,1358 L 1253,1358 L 1262,1358 L 1265,1358 L 1272,1358 L 1275,1358 L 1281,1358 L 1286,1358 L 1287,1358 L 1291,1358 L 1292,1358 L 1297,1358 L 1303,1358 L 1306,1358 L 1313,1358 L 1316,1358 L 1325,1358 L 1327,1358 L 1337,1358 L 1339,1358 L 1350,1358 L 1352,1358 L 1366,1358 L 1367,1358 L 1384,1358 L 1384,1358 L 1389,1358 L 1389,1358 L 1389,1372 L 1389,1372 L 1389,1388 L 1389,1389 L 1389,1401 L 1389,1404 L 1389,1414 L 1389,1417 L 1389,1425 L 1389,1428 L 1389,1436 L 1389,1439 L 1389,1446 L 1389,1450 L 1389,1456 L 1389,1460 L 1389,1467 L 1389,1470 L 1389,1477 L 1389,1480 L 1389,1488 L 1389,1491 L 1389,1500 L 1389,1502 L 1389,1512 L 1389,1515 L 1389,1527 L 1389,1528 L 1389,1544 L 1389,1544 L 1389,1562 L 1389,1564 L 1389,1566 L 1389,1566 L 1389,1610 L 1335,1740 L 1334,1744 L 1331,1749 L 1328,1754 L 1325,1758 L 1322,1762 L 1319,1766 L 1317,1768 L 1198,1887 L 1197,1888 L 1195,1890 L 1192,1893 L 1189,1898 L 1186,1902 L 1184,1906 L 1182,1910 L 1181,1913 L 1180,1915 L 1150,1988 L 1021,2116 L 1016,2121 L 1012,2125 L 1000,2134 L 998,2135 L 996,2137 L 991,2140 L 987,2143 L 981,2147 L 976,2150 L 970,2154 L 967,2156 L 965,2157 L 943,2174 L 938,2179 L 925,2192 L 914,2203 L 890,2193 L 867,2186 L 844,2182 L 820,2181 L 705,2181 L 695,2180 L 690,2180 L 679,2179 L 672,2178 L 671,2178 L 669,2176 L 658,2159 L 655,2155 L 646,2138 L 644,2134 L 641,2126 L 623,2084 L 620,2078 L 618,2073 L 611,2062 L 608,2057 L 601,2048 L 598,2044 L 594,2040 L 446,1892 L 444,1876 L 441,1865 L 437,1855 L 432,1847 L 425,1841 L 267,1719 L 253,1710 L 237,1703 L 219,1698 L 200,1695 L 186,1662 L 169,1632 L 165,1626 L 162,1622 L 155,1613 L 152,1609 L 145,1602 L 141,1599 L 138,1596 L 68,1543 L 59,1533 z " style="fill-opacity:1.000000;fill:rgb(171,178,205);stroke:rgb(0,0,0);stroke-width:2"/></g>
<g fill-rule="evenodd"><path d="M 650,2496 L 638,2486 L 626,2476 L 627,2469 L 630,2448 L 633,2435 L 637,2421 L 638,2420 L 640,2411 L 644,2397 L 646,2390 L 648,2375 L 649,2368 L 649,2354 L 649,2347 L 649,2333 L 648,2326 L 646,2311 L 644,2304 L 640,2290 L 638,2281 L 637,2280 L 633,2266 L 630,2253 L 629,2247 L 635,2230 L 644,2213 L 656,2196 L 671,2178 L 672,2178 L 679,2179 L 690,2180 L 695,2180 L 705,2181 L 820,2181 L 844,2182 L 867,2186 L 890,2193 L 914,2203 L 920,2222 L 924,2241 L 927,2260 L 927,2280 L 927,2421 L 926,2448 L 921,2474 L 913,2500 L 902,2526 L 902,2545 L 853,2663 L 852,2672 L 850,2691 L 848,2704 L 845,2717 L 842,2729 L 839,2738 L 834,2750 L 831,2757 L 826,2767 L 823,2772 L 817,2782 L 814,2786 L 807,2795 L 804,2798 L 796,2806 L 793,2809 L 784,2816 L 781,2819 L 780,2819 L 769,2821 L 765,2822 L 754,2823 L 751,2823 L 745,2824 L 742,2824 L 731,2823 L 727,2823 L 716,2821 L 711,2820 L 707,2819 L 701,2814 L 698,2811 L 690,2804 L 686,2801 L 679,2792 L 676,2788 L 674,2785 L 672,2778 L 671,2773 L 670,2762 L 670,2758 L 669,2747 L 669,2743 L 670,2732 L 671,2728 L 673,2717 L 674,2712 L 677,2701 L 679,2695 L 684,2684 L 687,2676 L 690,2671 L 690,2615 L 690,2610 L 689,2605 L 688,2594 L 687,2589 L 684,2577 L 682,2572 L 679,2565 L 650,2496 z " style="fill-opacity:1.000000;fill:rgb(198,155,180);stroke:rgb(0,0,0);stroke-width:2"/></g>
<g fill-rule="evenodd"><path d="M 176,1876 L 168,1859 L 164,1841 L 163,1824 L 166,1807 L 187,1728 L 192,1712 L 200,1695 L 219,1698 L 237,1703 L 253,1710 L 267,1719 L 425,1841 L 432,1847 L 437,1855 L 441,1865 L 444,1876 L 446,1892 L 594,2040 L 598,2044 L 601,2048 L 608,2057 L 611,2062 L 618,2073 L 620,2078 L 623,2084 L 641,2126 L 644,2134 L 646,2138 L 655,2155 L 658,2159 L 669,2176 L 671,2178 L 656,2196 L 644,2213 L 635,2230 L 629,2247 L 630,2253 L 633,2266 L 637,2280 L 638,2281 L 640,2290 L 644,2304 L 646,2311 L 648,2326 L 649,2333 L 649,2347 L 649,2354 L 649,2368 L 648,2375 L 646,2390 L 644,2397 L 640,2411 L 638,2420 L 637,2421 L 633,2435 L 630,2448 L 627,2469 L 626,2476 L 613,2474 L 595,2471 L 582,2468 L 566,2463 L 557,2460 L 542,2454 L 536,2451 L 522,2443 L 518,2440 L 505,2432 L 502,2429 L 490,2419 L 487,2416 L 477,2406 L 474,2402 L 465,2391 L 463,2387 L 455,2374 L 452,2368 L 445,2354 L 442,2347 L 436,2331 L 433,2320 L 429,2304 L 426,2288 L 424,2269 L 422,2246 L 421,2225 L 394,2160 L 394,2152 L 394,2149 L 388,2135 L 386,2130 L 369,2101 L 366,2096 L 347,2072 L 344,2068 L 334,2057 L 281,2005 L 226,1962 L 176,1876 z " style="fill-opacity:1.000000;fill:rgb(84,17,14);stroke:rgb(0,0,0);stroke-width:2"/></g>
<g fill-rule="evenodd"><path d="M 526,1091 L 511,1056 L 507,1048 L 507,1047 L 537,1007 L 538,1007 L 576,1000 L 611,998 L 682,1001 L 706,1001 L 728,977 L 776,914 L 792,890 L 805,863 L 815,833 L 823,801 L 827,766 L 829,728 L 828,687 L 824,643 L 823,631 L 819,594 L 819,587 L 816,540 L 815,489 L 841,491 L 845,492 L 927,499 L 932,499 L 944,500 L 995,536 L 998,538 L 1021,553 L 1052,573 L 1083,591 L 1114,606 L 1145,618 L 1176,627 L 1207,634 L 1238,638 L 1270,639 L 1348,639 L 1374,638 L 1414,615 L 1450,587 L 1482,554 L 1509,518 L 1558,526 L 1601,529 L 1638,525 L 1655,522 L 1670,516 L 1748,484 L 1757,479 L 1764,473 L 1770,466 L 1774,458 L 1844,290 L 1870,281 L 1933,255 L 1948,240 L 1960,226 L 1967,213 L 1967,210 L 1969,206 L 1970,202 L 1971,198 L 1971,197 L 1972,193 L 1973,189 L 1975,184 L 1976,181 L 1977,179 L 1983,162 L 1986,158 L 1988,152 L 1995,141 L 1998,136 L 2009,122 L 2014,116 L 2022,107 L 2109,21 L 2195,107 L 2204,116 L 2208,122 L 2220,136 L 2223,141 L 2230,152 L 2232,158 L 2234,162 L 2241,179 L 2243,183 L 2244,188 L 2246,194 L 2247,197 L 2247,199 L 2248,205 L 2250,210 L 2251,213 L 2258,226 L 2269,240 L 2348,318 L 2348,458 L 2349,481 L 2353,505 L 2356,522 L 2357,527 L 2360,540 L 2362,546 L 2363,551 L 2377,597 L 2379,603 L 2403,677 L 2406,686 L 2428,752 L 2436,775 L 2435,776 L 2420,781 L 2374,799 L 2367,802 L 2327,822 L 2314,829 L 2313,830 L 2276,879 L 2267,892 L 2242,935 L 2235,949 L 2218,986 L 2212,1000 L 2201,1033 L 2197,1047 L 2190,1077 L 2187,1091 L 2184,1120 L 2183,1133 L 2182,1162 L 2182,1175 L 2185,1204 L 2186,1218 L 2192,1247 L 2195,1261 L 2204,1293 L 2206,1297 L 2206,1318 L 2203,1325 L 2201,1333 L 2197,1345 L 2196,1346 L 2195,1350 L 2186,1376 L 2182,1388 L 2181,1389 L 2180,1393 L 2170,1418 L 2165,1431 L 2165,1431 L 2163,1436 L 2155,1457 L 2152,1463 L 2147,1477 L 2134,1517 L 2130,1532 L 2119,1583 L 2116,1598 L 2116,1598 L 2054,1624 L 2027,1634 L 2022,1636 L 1996,1643 L 1971,1649 L 1966,1650 L 1942,1654 L 1918,1657 L 1913,1657 L 1889,1658 L 1834,1658 L 1822,1661 L 1787,1671 L 1774,1673 L 1741,1678 L 1728,1680 L 1704,1681 L 1697,1681 L 1673,1681 L 1664,1681 L 1661,1677 L 1660,1676 L 1656,1671 L 1641,1652 L 1637,1646 L 1627,1633 L 1612,1610 L 1604,1597 L 1595,1578 L 1589,1566 L 1589,1564 L 1589,1562 L 1589,1544 L 1589,1544 L 1589,1528 L 1589,1527 L 1589,1515 L 1589,1512 L 1589,1502 L 1589,1500 L 1589,1491 L 1589,1488 L 1589,1480 L 1589,1477 L 1589,1470 L 1589,1467 L 1589,1460 L 1589,1456 L 1589,1450 L 1589,1446 L 1589,1439 L 1589,1436 L 1589,1428 L 1589,1425 L 1589,1417 L 1589,1414 L 1589,1404 L 1589,1401 L 1589,1389 L 1589,1388 L 1589,1372 L 1589,1372 L 1589,1358 L 1594,1358 L 1594,1358 L 1611,1358 L 1612,1358 L 1626,1358 L 1628,1358 L 1639,1358 L 1641,1358 L 1650,1358 L 1653,1358 L 1661,1358 L 1665,1358 L 1672,1358 L 1675,1358 L 1680,1358 L 1686,1358 L 1687,1358 L 1691,1358 L 1692,1358 L 1697,1358 L 1703,1358 L 1706,1358 L 1713,1358 L 1716,1358 L 1724,1358 L 1727,1358 L 1737,1358 L 1739,1358 L 1750,1358 L 1752,1358 L 1766,1358 L 1767,1358 L 1784,1358 L 1784,1358 L 1797,1358 L 1802,1356 L 1819,1347 L 1833,1340 L 1838,1336 L 1847,1324 L 1855,1312 L 1866,1292 L 1873,1279 L 1877,1270 L 1881,1266 L 1944,1113 L 1946,1107 L 1948,1103 L 1951,1094 L 1952,1090 L 1954,1081 L 1954,1077 L 1955,1067 L 1955,1063 L 1956,1058 L 1956,709 L 1956,703 L 1956,698 L 1958,685 L 1959,680 L 1962,667 L 1964,662 L 1967,654 L 2003,567 L 2028,542 L 2050,538 L 2069,531 L 2141,501 L 2148,496 L 2148,495 L 2152,492 L 2155,490 L 2165,474 L 2167,466 L 2168,458 L 2168,260 L 2167,252 L 2165,244 L 2156,241 L 2148,240 L 2069,240 L 2061,241 L 2053,244 L 2051,252 L 2050,260 L 2050,287 L 2050,289 L 2049,294 L 2049,300 L 2048,305 L 2046,311 L 2044,316 L 2043,319 L 2039,328 L 2030,332 L 2027,334 L 2022,336 L 2017,339 L 2012,342 L 2008,345 L 2004,349 L 2002,350 L 1861,492 L 1860,493 L 1857,496 L 1855,499 L 1853,502 L 1850,505 L 1848,508 L 1846,513 L 1844,517 L 1843,519 L 1659,963 L 1635,987 L 1627,991 L 1615,998 L 1592,1011 L 1591,1012 L 1589,1013 L 1587,1013 L 1572,1015 L 1557,1017 L 1534,1020 L 1529,1020 L 1524,1021 L 1482,1009 L 1477,1007 L 1457,1000 L 1362,960 L 1349,956 L 1344,954 L 1320,947 L 1315,946 L 1293,944 L 1287,943 L 1277,943 L 1063,943 L 1004,967 L 996,971 L 991,973 L 979,980 L 975,983 L 965,991 L 961,994 L 956,998 L 837,1118 L 833,1122 L 833,1123 L 834,1130 L 834,1132 L 837,1143 L 838,1149 L 839,1156 L 839,1162 L 839,1165 L 838,1180 L 835,1189 L 792,1245 L 786,1251 L 779,1256 L 770,1260 L 759,1262 L 752,1263 L 649,1235 L 578,1181 L 568,1172 L 559,1162 L 552,1151 L 546,1139 L 542,1131 L 540,1126 L 531,1103 L 528,1096 L 526,1091 z " style="fill-opacity:1.000000;fill:rgb(130,116,65);stroke:rgb(0,0,0);stroke-width:2"/></g>
<g fill-rule="evenodd"><path d="M 0,1911 L 0,1421 L 664,355 L 722,411 L 767,452 L 815,489 L 816,540 L 819,587 L 819,594 L 823,631 L 824,643 L 828,687 L 829,728 L 827,766 L 823,801 L 815,833 L 805,863 L 792,890 L 776,914 L 728,977 L 706,1001 L 682,1001 L 611,998 L 576,1000 L 538,1007 L 537,1007 L 507,1047 L 490,1053 L 457,1067 L 333,1084 L 323,1086 L 314,1089 L 306,1094 L 300,1101 L 266,1145 L 260,1168 L 259,1177 L 259,1185 L 261,1193 L 265,1202 L 301,1265 L 306,1273 L 309,1279 L 319,1303 L 321,1310 L 331,1347 L 332,1355 L 332,1355 L 323,1368 L 295,1405 L 135,1426 L 124,1429 L 113,1433 L 105,1438 L 98,1446 L 68,1485 L 60,1515 L 59,1524 L 59,1533 L 68,1543 L 138,1596 L 141,1599 L 145,1602 L 152,1609 L 155,1613 L 162,1622 L 165,1626 L 169,1632 L 186,1662 L 200,1695 L 192,1712 L 187,1728 L 166,1807 L 163,1824 L 164,1841 L 168,1859 L 176,1876 L 226,1962 L 281,2005 L 334,2057 L 344,2068 L 347,2072 L 366,2096 L 369,2101 L 386,2130 L 388,2135 L 394,2149 L 394,2152 L 394,2160 L 421,2225 L 422,2246 L 424,2269 L 426,2288 L 429,2304 L 433,2320 L 436,2331 L 442,2347 L 445,2354 L 452,2368 L 455,2374 L 463,2387 L 465,2391 L 474,2402 L 477,2406 L 487,2416 L 490,2419 L 502,2429 L 505,2432 L 518,2440 L 522,2443 L 536,2451 L 542,2454 L 557,2460 L 566,2463 L 582,2468 L 595,2471 L 613,2474 L 626,2476 L 638,2486 L 650,2496 L 679,2565 L 682,2572 L 684,2577 L 687,2589 L 688,2594 L 689,2605 L 690,2610 L 690,2615 L 690,2671 L 687,2676 L 684,2684 L 679,2695 L 677,2701 L 674,2712 L 673,2717 L 671,2728 L 670,2732 L 669,2743 L 669,2747 L 670,2758 L 670,2762 L 671,2773 L 672,2778 L 674,2785 L 676,2788 L 679,2792 L 686,2801 L 690,2804 L 698,2811 L 701,2814 L 707,2819 L 711,2820 L 716,2821 L 727,2823 L 731,2823 L 742,2824 L 745,2824 L 751,2823 L 754,2823 L 765,2822 L 769,2821 L 780,2819 L 781,2819 L 784,2816 L 793,2809 L 796,2806 L 804,2798 L 807,2795 L 814,2786 L 817,2782 L 823,2772 L 826,2767 L 831,2757 L 834,2750 L 839,2738 L 842,2729 L 845,2717 L 848,2704 L 850,2691 L 852,2672 L 853,2663 L 902,2545 L 902,2526 L 913,2500 L 921,2474 L 926,2448 L 927,2421 L 927,2280 L 927,2260 L 924,2241 L 920,2222 L 914,2203 L 925,2192 L 938,2179 L 943,2174 L 965,2157 L 967,2156 L 970,2154 L 976,2150 L 981,2147 L 987,2143 L 991,2140 L 996,2137 L 998,2135 L 1000,2134 L 1012,2125 L 1016,2121 L 1021,2116 L 1150,1988 L 1180,1915 L 1181,1913 L 1182,1910 L 1184,1906 L 1186,1902 L 1189,1898 L 1192,1893 L 1195,1890 L 1197,1888 L 1198,1887 L 1317,1768 L 1319,1766 L 1322,1762 L 1325,1758 L 1328,1754 L 1331,1749 L 1334,1744 L 1335,1740 L 1389,1610 L 1389,1566 L 1389,1566 L 1389,1564 L 1389,1562 L 1389,1544 L 1389,1544 L 1389,1528 L 1389,1527 L 1389,1515 L 1389,1512 L 1389,1502 L 1389,1500 L 1389,1491 L 1389,1488 L 1389,1480 L 1389,1477 L 1389,1470 L 1389,1467 L 1389,1460 L 1389,1456 L 1389,1450 L 1389,1446 L 1389,1439 L 1389,1436 L 1389,1428 L 1389,1425 L 1389,1417 L 1389,1414 L 1389,1404 L 1389,1401 L 1389,1389 L 1389,1388 L 1389,1372 L 1389,1372 L 1389,1358 L 1394,1358 L 1394,1358 L 1411,1358 L 1412,1358 L 1426,1358 L 1428,1358 L 1439,1358 L 1441,1358 L 1450,1358 L 1453,1358 L 1461,1358 L 1465,1358 L 1472,1358 L 1475,1358 L 1480,1358 L 1486,1358 L 1487,1358 L 1491,1358 L 1492,1358 L 1497,1358 L 1503,1358 L 1506,1358 L 1513,1358 L 1516,1358 L 1525,1358 L 1527,1358 L 1537,1358 L 1539,1358 L 1550,1358 L 1552,1358 L 1566,1358 L 1567,1358 L 1584,1358 L 1584,1358 L 1589,1358 L 1589,1358 L 1589,1372 L 1589,1372 L 1589,1388 L 1589,1389 L 1589,1401 L 1589,1404 L 1589,1414 L 1589,1417 L 1589,1425 L 1589,1428 L 1589,1436 L 1589,1439 L 1589,1446 L 1589,1450 L 1589,1456 L 1589,1460 L 1589,1467 L 1589,1470 L 1589,1477 L 1589,1480 L 1589,1488 L 1589,1491 L 1589,1500 L 1589,1502 L 1589,1512 L 1589,1515 L 1589,1527 L 1589,1528 L 1589,1544 L 1589,1544 L 1589,1562 L 1589,1564 L 1589,1566 L 1595,1578 L 1604,1597 L 1612,1610 L 1627,1633 L 1637,1646 L 1641,1652 L 1656,1671 L 1660,1676 L 1661,1677 L 1664,1681 L 1648,1694 L 1641,1696 L 1619,1703 L 1619,1703 L 1611,1705 L 1587,1712 L 1576,1715 L 1570,1717 L 1570,1717 L 1557,1720 L 1551,1722 L 1536,1727 L 1522,1731 L 1508,1737 L 1497,1742 L 1485,1749 L 1476,1754 L 1465,1762 L 1458,1767 L 1447,1776 L 1441,1782 L 1432,1792 L 1426,1799 L 1418,1810 L 1413,1817 L 1405,1829 L 1400,1839 L 1394,1852 L 1389,1864 L 1388,1865 L 1386,1866 L 1374,1875 L 1370,1879 L 1365,1884 L 1302,1946 L 1272,2020 L 1271,2023 L 1268,2028 L 1265,2033 L 1262,2037 L 1259,2042 L 1256,2046 L 1254,2048 L 1105,2196 L 1103,2198 L 1100,2202 L 1097,2206 L 1095,2209 L 1095,2211 L 1094,2216 L 1094,2222 L 1093,2224 L 1093,2288 L 1094,2290 L 1094,2294 L 1094,2298 L 1095,2302 L 1096,2307 L 1097,2311 L 1098,2315 L 1099,2318 L 1100,2320 L 1199,2559 L 1199,2608 L 1199,2621 L 1198,2625 L 1197,2641 L 1193,2651 L 1191,2654 L 1191,2654 L 1186,2664 L 1181,2675 L 1180,2678 L 1175,2688 L 1169,2698 L 1169,2698 L 1167,2702 L 1161,2714 L 1156,2723 L 1151,2734 L 1139,2765 L 1134,2777 L 1123,2814 L 1120,2828 L 1111,2877 L 1109,2891 L 1106,2923 L 1104,2957 L 1104,2973 L 1104,3018 L 1106,3066 L 1108,3084 L 1113,3133 L 1120,3184 L 1126,3223 L 1129,3245 L 1138,3301 L 1139,3311 L 1139,3311 L 1134,3329 L 1117,3362 L 1073,3443 L 1070,3448 L 1055,3475 L 1052,3481 L 986,3601 L 0,1911 z " style="fill-opacity:1.000000;fill:rgb(33,61,220);stroke:rgb(0,0,0);stroke-width:2"/></g>
<g fill-rule="evenodd"><path d="M 265,1202 L 261,1193 L 259,1185 L 259,1177 L 260,1168 L 266,1145 L 300,1101 L 306,1094 L 314,1089 L 323,1086 L 333,1084 L 457,1067 L 490,1053 L 507,1047 L 507,1048 L 511,1056 L 526,1091 L 528,1096 L 531,1103 L 540,1126 L 542,1131 L 546,1139 L 552,1151 L 559,1162 L 568,1172 L 578,1181 L 649,1235 L 752,1263 L 759,1262 L 770,1260 L 779,1256 L 786,1251 L 792,1245 L 835,1189 L 838,1180 L 839,1165 L 839,1162 L 839,1156 L 838,1149 L 837,1143 L 834,1132 L 834,1130 L 833,1123 L 833,1122 L 837,1118 L 956,998 L 961,994 L 965,991 L 975,983 L 979,980 L 991,973 L 996,971 L 1004,967 L 1063,943 L 1277,943 L 1287,943 L 1293,944 L 1315,946 L 1320,947 L 1344,954 L 1349,956 L 1362,960 L 1457,1000 L 1477,1007 L 1482,1009 L 1524,1021 L 1529,1020 L 1534,1020 L 1557,1017 L 1572,1015 L 1587,1013 L 1589,1013 L 1589,1043 L 1589,1064 L 1589,1092 L 1589,1103 L 1589,1126 L 1589,1131 L 1589,1152 L 1589,1154 L 1589,1172 L 1589,1172 L 1589,1188 L 1589,1189 L 1589,1201 L 1589,1204 L 1589,1214 L 1589,1217 L 1589,1225 L 1589,1228 L 1589,1236 L 1589,1239 L 1589,1246 L 1589,1250 L 1589,1256 L 1589,1260 L 1589,1267 L 1589,1270 L 1589,1277 L 1589,1280 L 1589,1288 L 1589,1291 L 1589,1300 L 1589,1302 L 1589,1312 L 1589,1315 L 1589,1327 L 1589,1328 L 1589,1344 L 1589,1344 L 1589,1358 L 1584,1358 L 1584,1358 L 1567,1358 L 1566,1358 L 1552,1358 L 1550,1358 L 1539,1358 L 1537,1358 L 1527,1358 L 1525,1358 L 1516,1358 L 1513,1358 L 1506,1358 L 1503,1358 L 1497,1358 L 1492,1358 L 1491,1358 L 1487,1358 L 1486,1358 L 1480,1358 L 1475,1358 L 1472,1358 L 1465,1358 L 1461,1358 L 1453,1358 L 1450,1358 L 1441,1358 L 1439,1358 L 1428,1358 L 1426,1358 L 1412,1358 L 1411,1358 L 1394,1358 L 1394,1358 L 1389,1358 L 1389,1358 L 1389,1344 L 1389,1344 L 1389,1328 L 1389,1327 L 1389,1315 L 1389,1312 L 1389,1302 L 1389,1300 L 1389,1291 L 1389,1288 L 1389,1280 L 1389,1277 L 1389,1270 L 1389,1267 L 1389,1260 L 1389,1256 L 1389,1250 L 1389,1246 L 1389,1239 L 1389,1236 L 1383,1227 L 1380,1221 L 1372,1210 L 1368,1205 L 1359,1195 L 1355,1191 L 1345,1182 L 1341,1178 L 1330,1170 L 1325,1166 L 1313,1159 L 1306,1156 L 1293,1149 L 1287,1147 L 1280,1144 L 1272,1141 L 1247,1116 L 1199,1096 L 1196,1095 L 1192,1094 L 1186,1092 L 1182,1091 L 1176,1090 L 1172,1089 L 1168,1089 L 1165,1089 L 1163,1089 L 1029,1089 L 1025,1089 L 1022,1089 L 1020,1090 L 1015,1093 L 1011,1096 L 1006,1099 L 1003,1103 L 1001,1104 L 935,1170 L 933,1172 L 930,1176 L 927,1180 L 925,1182 L 925,1185 L 924,1190 L 924,1195 L 924,1198 L 924,1209 L 924,1211 L 924,1214 L 923,1218 L 922,1223 L 922,1225 L 920,1227 L 918,1231 L 915,1233 L 913,1236 L 912,1237 L 803,1346 L 801,1348 L 797,1351 L 793,1354 L 789,1357 L 783,1360 L 778,1363 L 775,1364 L 670,1408 L 614,1408 L 607,1408 L 603,1407 L 590,1406 L 587,1406 L 574,1403 L 573,1403 L 570,1401 L 556,1393 L 553,1391 L 547,1386 L 497,1348 L 482,1348 L 411,1344 L 376,1346 L 338,1354 L 332,1355 L 332,1355 L 331,1347 L 321,1310 L 319,1303 L 309,1279 L 306,1273 L 301,1265 L 265,1202 z " style="fill-opacity:1.000000;fill:rgb(135,112,233);stroke:rgb(0,0,0);stroke-width:2"/></g>
<g fill-rule="evenodd"><path d="M 327,1489 L 311,1459 L 299,1422 L 295,1405 L 323,1368 L 332,1355 L 338,1354 L 376,1346 L 411,1344 L 482,1348 L 497,1348 L 547,1386 L 553,1391 L 556,1393 L 570,1401 L 573,1403 L 574,1403 L 587,1406 L 590,1406 L 603,1407 L 607,1408 L 614,1408 L 670,1408 L 775,1364 L 778,1363 L 783,1360 L 789,1357 L 793,1354 L 797,1351 L 801,1348 L 803,1346 L 912,1237 L 913,1236 L 915,1233 L 918,1231 L 920,1227 L 922,1225 L 922,1223 L 923,1218 L 924,1214 L 924,1211 L 924,1209 L 924,1198 L 924,1195 L 924,1190 L 925,1185 L 925,1182 L 927,1180 L 930,1176 L 933,1172 L 935,1170 L 1001,1104 L 1003,1103 L 1006,1099 L 1011,1096 L 1015,1093 L 1020,1090 L 1022,1089 L 1025,1089 L 1029,1089 L 1163,1089 L 1165,1089 L 1168,1089 L 1172,1089 L 1176,1090 L 1182,1091 L 1186,1092 L 1192,1094 L 1196,1095 L 1199,1096 L 1247,1116 L 1272,1141 L 1280,1144 L 1287,1147 L 1293,1149 L 1306,1156 L 1313,1159 L 1325,1166 L 1330,1170 L 1341,1178 L 1345,1182 L 1355,1191 L 1359,1195 L 1368,1205 L 1372,1210 L 1380,1221 L 1383,1227 L 1389,1236 L 1389,1239 L 1389,1246 L 1389,1250 L 1389,1256 L 1389,1260 L 1389,1267 L 1389,1270 L 1389,1277 L 1389,1280 L 1389,1288 L 1389,1291 L 1389,1300 L 1389,1302 L 1389,1312 L 1389,1315 L 1389,1327 L 1389,1328 L 1389,1344 L 1389,1344 L 1389,1358 L 1384,1358 L 1384,1358 L 1367,1358 L 1366,1358 L 1352,1358 L 1350,1358 L 1339,1358 L 1337,1358 L 1327,1358 L 1325,1358 L 1316,1358 L 1313,1358 L 1306,1358 L 1303,1358 L 1297,1358 L 1292,1358 L 1291,1358 L 1287,1358 L 1286,1358 L 1281,1358 L 1275,1358 L 1272,1358 L 1265,1358 L 1262,1358 L 1253,1358 L 1251,1358 L 1241,1358 L 1239,1358 L 1228,1358 L 1226,1358 L 1212,1358 L 1211,1358 L 1208,1358 L 1201,1350 L 1192,1342 L 1189,1339 L 1189,1328 L 1189,1327 L 1189,1315 L 1189,1312 L 1189,1302 L 1189,1300 L 1189,1291 L 1189,1288 L 1189,1280 L 1189,1277 L 1189,1270 L 1189,1267 L 1189,1260 L 1189,1256 L 1189,1250 L 1189,1246 L 1189,1239 L 1189,1236 L 1183,1227 L 1180,1221 L 1172,1210 L 1168,1205 L 1159,1195 L 1155,1191 L 1145,1182 L 1143,1180 L 1141,1179 L 1127,1176 L 1122,1175 L 1109,1173 L 1105,1172 L 1091,1172 L 1088,1172 L 1081,1172 L 1078,1172 L 1065,1173 L 1060,1174 L 1047,1177 L 1047,1177 L 1043,1180 L 1032,1189 L 1029,1192 L 1020,1201 L 1016,1205 L 1008,1216 L 1008,1216 L 1007,1220 L 1004,1234 L 1004,1238 L 1003,1242 L 1003,1244 L 1002,1249 L 1002,1252 L 1001,1255 L 1001,1256 L 1000,1260 L 999,1266 L 998,1270 L 997,1271 L 996,1275 L 996,1275 L 996,1277 L 991,1279 L 988,1280 L 983,1283 L 977,1286 L 973,1289 L 969,1292 L 965,1295 L 963,1297 L 912,1348 L 910,1350 L 907,1354 L 904,1358 L 901,1363 L 898,1368 L 895,1373 L 894,1376 L 803,1594 L 796,1610 L 794,1615 L 773,1651 L 770,1656 L 754,1677 L 736,1699 L 732,1704 L 721,1716 L 710,1742 L 680,1740 L 652,1736 L 626,1731 L 601,1724 L 578,1716 L 556,1706 L 536,1695 L 517,1682 L 380,1577 L 365,1549 L 327,1489 z " style="fill-opacity:1.000000;fill:rgb(62,161,65);stroke:rgb(0,0,0);stroke-width:2"/></g>
<g fill-rule="evenodd"><path d="M 1014,1579 L 1004,1566 L 997,1552 L 992,1539 L 991,1525 L 991,1397 L 993,1391 L 1000,1379 L 1009,1370 L 1022,1368 L 1022,1368 L 1025,1368 L 1030,1367 L 1037,1367 L 1042,1366 L 1049,1364 L 1054,1362 L 1058,1361 L 1067,1357 L 1072,1357 L 1086,1358 L 1091,1358 L 1097,1358 L 1103,1358 L 1116,1356 L 1123,1355 L 1137,1352 L 1145,1350 L 1156,1347 L 1158,1346 L 1169,1343 L 1185,1340 L 1189,1339 L 1192,1342 L 1201,1350 L 1208,1358 L 1206,1370 L 1202,1385 L 1200,1391 L 1199,1394 L 1195,1408 L 1194,1416 L 1191,1429 L 1190,1436 L 1189,1450 L 1189,1456 L 1189,1470 L 1190,1477 L 1192,1490 L 1193,1498 L 1196,1511 L 1199,1520 L 1200,1525 L 1203,1533 L 1206,1545 L 1208,1557 L 1203,1572 L 1195,1588 L 1203,1601 L 1210,1615 L 1215,1627 L 1221,1641 L 1224,1651 L 1227,1665 L 1229,1673 L 1232,1687 L 1232,1695 L 1233,1709 L 1233,1717 L 1233,1717 L 1227,1730 L 1224,1736 L 1216,1748 L 1213,1753 L 1205,1764 L 1201,1768 L 1192,1778 L 1188,1781 L 1178,1790 L 1174,1793 L 1162,1801 L 1157,1804 L 1144,1811 L 1137,1815 L 1123,1820 L 1114,1824 L 1098,1828 L 1085,1831 L 1068,1835 L 1060,1836 L 1059,1835 L 1054,1830 L 1047,1824 L 1043,1820 L 1037,1814 L 1033,1810 L 1030,1808 L 1026,1797 L 1022,1783 L 1018,1769 L 1016,1757 L 1013,1743 L 1012,1732 L 1012,1718 L 1012,1707 L 1012,1693 L 1013,1682 L 1015,1675 L 1014,1672 L 1014,1579 z " style="fill-opacity:1.000000;fill:rgb(225,252,103);stroke:rgb(0,0,0);stroke-width:2"/></g>
<g fill-rule="evenodd"><path d="M 1589,1256 L 1589,1250 L 1589,1246 L 1589,1239 L 1589,1236 L 1589,1228 L 1589,1225 L 1589,1217 L 1589,1214 L 1589,1204 L 1589,1201 L 1589,1189 L 1589,1188 L 1589,1172 L 1589,1172 L 1589,1154 L 1589,1152 L 1589,1131 L 1589,1126 L 1589,1103 L 1589,1092 L 1589,1064 L 1589,1043 L 1589,1013 L 1591,1012 L 1592,1011 L 1615,998 L 1627,991 L 1635,987 L 1659,963 L 1843,519 L 1844,517 L 1846,513 L 1848,508 L 1850,505 L 1853,502 L 1855,499 L 1857,496 L 1860,493 L 1861,492 L 2002,350 L 2004,349 L 2008,345 L 2012,342 L 2017,339 L 2022,336 L 2027,334 L 2030,332 L 2039,328 L 2043,319 L 2044,316 L 2046,311 L 2048,305 L 2049,300 L 2049,294 L 2050,289 L 2050,287 L 2050,260 L 2051,252 L 2053,244 L 2061,241 L 2069,240 L 2148,240 L 2156,241 L 2165,244 L 2167,252 L 2168,260 L 2168,458 L 2167,466 L 2165,474 L 2155,490 L 2152,492 L 2148,495 L 2148,496 L 2141,501 L 2069,531 L 2050,538 L 2028,542 L 2003,567 L 1967,654 L 1964,662 L 1962,667 L 1959,680 L 1958,685 L 1956,698 L 1956,703 L 1956,709 L 1956,1058 L 1955,1063 L 1955,1067 L 1954,1077 L 1954,1081 L 1952,1090 L 1951,1094 L 1948,1103 L 1946,1107 L 1944,1113 L 1881,1266 L 1877,1270 L 1873,1279 L 1866,1292 L 1855,1312 L 1847,1324 L 1838,1336 L 1833,1340 L 1819,1347 L 1802,1356 L 1797,1358 L 1784,1358 L 1784,1358 L 1767,1358 L 1766,1358 L 1752,1358 L 1750,1358 L 1739,1358 L 1737,1358 L 1727,1358 L 1724,1358 L 1716,1358 L 1713,1358 L 1706,1358 L 1703,1358 L 1697,1358 L 1692,1358 L 1691,1358 L 1687,1358 L 1686,1358 L 1680,1358 L 1675,1358 L 1672,1358 L 1665,1358 L 1661,1358 L 1653,1358 L 1650,1358 L 1641,1358 L 1639,1358 L 1628,1358 L 1626,1358 L 1612,1358 L 1611,1358 L 1594,1358 L 1594,1358 L 1589,1358 L 1589,1358 L 1589,1344 L 1589,1344 L 1589,1328 L 1589,1327 L 1589,1315 L 1589,1312 L 1589,1302 L 1589,1300 L 1589,1291 L 1589,1288 L 1589,1280 L 1589,1277 L 1589,1270 L 1589,1267 L 1589,1260 L 1589,1256 z " style="fill-opacity:1.000000;fill:rgb(62,1,126);stroke:rgb(0,0,0);stroke-width:2"/></g>
<g fill-rule="evenodd"><path d="M 3827,2208 L 3055,3591 L 2922,3458 L 2903,3439 L 2839,3372 L 2839,3045 L 2839,2911 L 2839,2853 L 2849,2854 L 2876,2857 L 2894,2860 L 2907,2862 L 2922,2866 L 2922,2867 L 2930,2869 L 2944,2873 L 2951,2874 L 2965,2876 L 2972,2877 L 2985,2878 L 2990,2878 L 2997,2878 L 3002,2877 L 3006,2877 L 3015,2872 L 3020,2869 L 3032,2861 L 3036,2858 L 3046,2849 L 3050,2846 L 3060,2836 L 3063,2832 L 3071,2821 L 3075,2817 L 3082,2805 L 3085,2800 L 3092,2787 L 3095,2779 L 3101,2765 L 3102,2760 L 3332,2530 L 3337,2526 L 3340,2522 L 3348,2511 L 3351,2507 L 3358,2495 L 3360,2490 L 3364,2482 L 3366,2476 L 3366,1649 L 3354,1629 L 3346,1609 L 3325,1531 L 3324,1522 L 3324,1512 L 3333,1503 L 3442,1420 L 3504,1403 L 3512,1402 L 3521,1402 L 3529,1404 L 3537,1408 L 3564,1423 L 3596,1465 L 3603,1476 L 3609,1489 L 3618,1517 L 3592,1556 L 3581,1576 L 3572,1599 L 3576,1617 L 3595,1690 L 3518,1823 L 3511,1839 L 3507,1855 L 3506,1871 L 3508,1887 L 3530,1965 L 3537,1986 L 3548,2007 L 3564,2028 L 3583,2049 L 3606,2070 L 3632,2091 L 3663,2112 L 3697,2133 L 3827,2208 z " style="fill-opacity:1.000000;fill:rgb(151,234,220);stroke:rgb(0,0,0);stroke-width:2"/></g>
<g fill-rule="evenodd"><path d="M 2660,2007 L 2662,1946 L 2664,1915 L 2666,1881 L 2669,1861 L 2672,1846 L 2676,1831 L 2678,1825 L 2678,1822 L 2682,1808 L 2684,1801 L 2687,1787 L 2687,1780 L 2689,1766 L 2689,1760 L 2688,1746 L 2688,1739 L 2686,1726 L 2685,1718 L 2682,1705 L 2679,1697 L 2677,1691 L 2675,1683 L 2672,1671 L 2670,1659 L 2680,1634 L 2696,1608 L 2722,1608 L 2856,1608 L 2890,1608 L 2911,1592 L 2929,1572 L 2945,1550 L 2957,1525 L 2986,1455 L 3099,1342 L 3099,1341 L 3099,1314 L 3101,1289 L 3114,1191 L 3117,1180 L 3120,1170 L 3126,1162 L 3133,1155 L 3291,1034 L 3311,1022 L 3336,1013 L 3365,1009 L 3398,1009 L 3420,1014 L 3473,1029 L 3459,1083 L 3446,1119 L 3431,1150 L 3392,1210 L 3382,1229 L 3373,1250 L 3370,1251 L 3369,1252 L 3355,1276 L 3353,1282 L 3348,1292 L 3301,1404 L 3299,1408 L 3297,1413 L 3293,1420 L 3290,1424 L 3286,1430 L 3283,1434 L 3280,1436 L 3253,1464 L 3250,1466 L 3247,1470 L 3243,1476 L 3240,1480 L 3236,1487 L 3234,1492 L 3232,1496 L 3058,1914 L 3053,1916 L 3025,1923 L 3021,1924 L 3020,1925 L 3009,1927 L 3007,1928 L 2980,1941 L 2973,1944 L 2950,1955 L 2937,1960 L 2907,1971 L 2895,1976 L 2864,1987 L 2856,1989 L 2850,1991 L 2834,1996 L 2823,1999 L 2817,2000 L 2772,2012 L 2722,2012 L 2691,2010 L 2660,2007 z " style="fill-opacity:1.000000;fill:rgb(107,150,143);stroke:rgb(0,0,0);stroke-width:2"/></g>
<g fill-rule="evenodd"><path d="M 2570,3077 L 2572,3066 L 2576,3051 L 2578,3045 L 2578,3042 L 2582,3028 L 2584,3020 L 2587,3007 L 2587,3000 L 2589,2986 L 2589,2980 L 2588,2966 L 2588,2959 L 2586,2946 L 2585,2938 L 2582,2925 L 2579,2916 L 2577,2911 L 2575,2903 L 2572,2891 L 2570,2879 L 2577,2858 L 2589,2838 L 2589,2814 L 2585,2802 L 2582,2786 L 2580,2772 L 2578,2757 L 2578,2743 L 2578,2729 L 2578,2715 L 2580,2700 L 2582,2686 L 2585,2670 L 2589,2657 L 2595,2639 L 2600,2625 L 2609,2605 L 2616,2591 L 2630,2567 L 2639,2553 L 2661,2524 L 2672,2510 L 2679,2501 L 2706,2435 L 2722,2429 L 2742,2421 L 2751,2425 L 2760,2428 L 2764,2429 L 2786,2437 L 2816,2450 L 2822,2452 L 2822,2452 L 2839,2459 L 2854,2466 L 2860,2468 L 2861,2469 L 2872,2474 L 2874,2475 L 2881,2478 L 2893,2478 L 2894,2478 L 2911,2478 L 2912,2478 L 2925,2478 L 2927,2478 L 2938,2478 L 2941,2478 L 2950,2478 L 2953,2478 L 2961,2478 L 2964,2478 L 2972,2478 L 2975,2478 L 2980,2478 L 2985,2478 L 2987,2478 L 2990,2478 L 2992,2478 L 2997,2478 L 3002,2478 L 3006,2478 L 3013,2478 L 3016,2478 L 3024,2478 L 3027,2478 L 3036,2478 L 3039,2478 L 3050,2478 L 3052,2478 L 3066,2478 L 3067,2478 L 3083,2478 L 3084,2478 L 3104,2478 L 3107,2478 L 3121,2478 L 3120,2485 L 3118,2507 L 3115,2523 L 3112,2539 L 3108,2554 L 3104,2565 L 3099,2579 L 3095,2587 L 3089,2600 L 3085,2606 L 3077,2618 L 3074,2623 L 3065,2634 L 3062,2638 L 3052,2648 L 3048,2651 L 3038,2660 L 3033,2664 L 3021,2671 L 3016,2675 L 3011,2678 L 3006,2678 L 3002,2678 L 2997,2678 L 2992,2678 L 2990,2678 L 2987,2678 L 2985,2678 L 2980,2678 L 2975,2678 L 2972,2678 L 2964,2678 L 2961,2678 L 2953,2678 L 2950,2678 L 2941,2678 L 2938,2678 L 2927,2678 L 2925,2678 L 2912,2678 L 2911,2678 L 2897,2678 L 2895,2680 L 2886,2689 L 2876,2700 L 2868,2711 L 2859,2723 L 2855,2729 L 2854,2735 L 2853,2744 L 2852,2750 L 2851,2758 L 2850,2763 L 2848,2773 L 2848,2778 L 2846,2787 L 2846,2792 L 2844,2804 L 2843,2809 L 2842,2818 L 2841,2823 L 2838,2839 L 2838,2844 L 2837,2850 L 2839,2853 L 2839,2911 L 2839,3045 L 2839,3372 L 2834,3369 L 2793,3329 L 2789,3325 L 2759,3295 L 2756,3292 L 2622,3158 L 2603,3138 L 2589,3118 L 2577,3097 L 2570,3077 z " style="fill-opacity:1.000000;fill:rgb(56,92,42);stroke:rgb(0,0,0);stroke-width:2"/></g>
<g fill-rule="evenodd"><path d="M 3880,1451 L 3880,1723 L 3819,1707 L 3781,1699 L 3747,1698 L 3676,1701 L 3641,1699 L 3603,1692 L 3595,1690 L 3576,1617 L 3572,1599 L 3581,1576 L 3592,1556 L 3618,1517 L 3609,1489 L 3603,1476 L 3596,1465 L 3564,1423 L 3537,1408 L 3529,1404 L 3521,1402 L 3512,1402 L 3504,1403 L 3442,1420 L 3333,1503 L 3324,1512 L 3324,1522 L 3325,1531 L 3346,1609 L 3354,1629 L 3366,1649 L 3366,2476 L 3364,2482 L 3360,2490 L 3358,2495 L 3351,2507 L 3348,2511 L 3340,2522 L 3337,2526 L 3332,2530 L 3102,2760 L 3101,2765 L 3095,2779 L 3092,2787 L 3085,2800 L 3082,2805 L 3075,2817 L 3071,2821 L 3063,2832 L 3060,2836 L 3050,2846 L 3046,2849 L 3036,2858 L 3032,2861 L 3020,2869 L 3015,2872 L 3006,2877 L 3002,2877 L 2997,2878 L 2990,2878 L 2985,2878 L 2972,2877 L 2965,2876 L 2951,2874 L 2944,2873 L 2930,2869 L 2922,2867 L 2922,2866 L 2907,2862 L 2894,2860 L 2876,2857 L 2849,2854 L 2839,2853 L 2837,2850 L 2838,2844 L 2838,2839 L 2841,2823 L 2842,2818 L 2843,2809 L 2844,2804 L 2846,2792 L 2846,2787 L 2848,2778 L 2848,2773 L 2850,2763 L 2851,2758 L 2852,2750 L 2853,2744 L 2854,2735 L 2855,2729 L 2859,2723 L 2868,2711 L 2876,2700 L 2886,2689 L 2895,2680 L 2897,2678 L 2911,2678 L 2912,2678 L 2925,2678 L 2927,2678 L 2938,2678 L 2941,2678 L 2950,2678 L 2953,2678 L 2961,2678 L 2964,2678 L 2972,2678 L 2975,2678 L 2980,2678 L 2985,2678 L 2987,2678 L 2990,2678 L 2992,2678 L 2997,2678 L 3002,2678 L 3006,2678 L 3011,2678 L 3016,2675 L 3021,2671 L 3033,2664 L 3038,2660 L 3048,2651 L 3052,2648 L 3062,2638 L 3065,2634 L 3074,2623 L 3077,2618 L 3085,2606 L 3089,2600 L 3095,2587 L 3099,2579 L 3104,2565 L 3108,2554 L 3112,2539 L 3115,2523 L 3118,2507 L 3120,2485 L 3121,2478 L 3126,2472 L 3135,2461 L 3147,2444 L 3154,2432 L 3156,2429 L 3158,2411 L 3159,2397 L 3160,2376 L 3160,2362 L 3158,2341 L 3156,2327 L 3152,2305 L 3149,2292 L 3145,2278 L 3148,2269 L 3153,2246 L 3156,2233 L 3158,2211 L 3159,2197 L 3160,2176 L 3160,2162 L 3158,2141 L 3156,2128 L 3152,2105 L 3149,2092 L 3142,2068 L 3138,2054 L 3127,2027 L 3121,2014 L 3105,1983 L 3097,1970 L 3073,1933 L 3063,1920 L 3058,1914 L 3232,1496 L 3234,1492 L 3236,1487 L 3240,1480 L 3243,1476 L 3247,1470 L 3250,1466 L 3253,1464 L 3280,1436 L 3283,1434 L 3286,1430 L 3290,1424 L 3293,1420 L 3297,1413 L 3299,1408 L 3301,1404 L 3348,1292 L 3353,1282 L 3355,1276 L 3369,1252 L 3370,1251 L 3373,1250 L 3374,1250 L 3395,1260 L 3402,1263 L 3408,1266 L 3418,1271 L 3475,1304 L 3487,1310 L 3499,1313 L 3512,1314 L 3524,1312 L 3589,1294 L 3595,1293 L 3601,1292 L 3616,1290 L 3622,1289 L 3642,1289 L 3648,1290 L 3660,1291 L 3747,1302 L 3794,1306 L 3796,1305 L 3880,1451 z " style="fill-opacity:1.000000;fill:rgb(236,176,59);stroke:rgb(0,0,0);stroke-width:2"/></g>
<g fill-rule="evenodd"><path d="M 3315,464 L 3597,957 L 3560,979 L 3560,979 L 3473,1029 L 3420,1014 L 3398,1009 L 3365,1009 L 3336,1013 L 3311,1022 L 3291,1034 L 3133,1155 L 3126,1162 L 3120,1170 L 3117,1180 L 3114,1191 L 3101,1289 L 3099,1314 L 3099,1341 L 3099,1342 L 2986,1455 L 2957,1525 L 2945,1550 L 2929,1572 L 2911,1592 L 2890,1608 L 2856,1608 L 2722,1608 L 2696,1608 L 2680,1583 L 2670,1557 L 2672,1546 L 2676,1531 L 2678,1525 L 2678,1522 L 2682,1508 L 2684,1501 L 2687,1487 L 2687,1480 L 2689,1466 L 2689,1460 L 2688,1446 L 2688,1439 L 2686,1426 L 2685,1419 L 2682,1405 L 2679,1397 L 2677,1391 L 2675,1383 L 2672,1371 L 2670,1359 L 2680,1334 L 2696,1308 L 2722,1308 L 2776,1308 L 2856,1275 L 2872,1266 L 2886,1255 L 2897,1241 L 2906,1225 L 2961,1091 L 2970,1065 L 3033,1002 L 3041,996 L 3178,891 L 3192,864 L 3231,804 L 3247,773 L 3259,736 L 3288,629 L 3298,585 L 3305,538 L 3315,464 z " style="fill-opacity:1.000000;fill:rgb(251,50,175);stroke:rgb(0,0,0);stroke-width:2"/></g>
<g fill-rule="evenodd"><path d="M 3128,136 L 3315,464 L 3305,538 L 3298,585 L 3288,629 L 3259,736 L 3247,773 L 3231,804 L 3192,864 L 3178,891 L 3041,996 L 3033,1002 L 2970,1065 L 2961,1091 L 2906,1225 L 2897,1241 L 2886,1255 L 2872,1266 L 2856,1275 L 2776,1308 L 2722,1308 L 2696,1308 L 2680,1283 L 2670,1257 L 2672,1246 L 2676,1231 L 2678,1225 L 2678,1222 L 2682,1208 L 2684,1201 L 2687,1187 L 2687,1180 L 2689,1167 L 2689,1160 L 2688,1146 L 2688,1139 L 2686,1126 L 2685,1119 L 2682,1105 L 2679,1097 L 2677,1091 L 2675,1083 L 2672,1071 L 2669,1054 L 2666,1033 L 2664,1008 L 2663,981 L 2657,964 L 2652,950 L 2649,942 L 2649,942 L 2636,899 L 2625,867 L 2615,838 L 2590,773 L 2628,753 L 2664,730 L 2802,582 L 2827,554 L 2850,524 L 2872,492 L 2893,458 L 2926,402 L 2947,366 L 2971,331 L 2997,295 L 3025,260 L 3128,136 z " style="fill-opacity:1.000000;fill:rgb(60,84,236);stroke:rgb(0,0,0);stroke-width:2"/></g>
</svg>
