<?xml version="1.0" standalone="no"?>
<!DOCTYPE svg PUBLIC "-//W3C//DTD SVG 1.1//EN"
"http://www.w3.org/Graphics/SVG/1.1/DTD/svg11.dtd">
<svg width="4514" height="4034" viewBox="0 0 4514 4034" version="1.1"
xmlns="http://www.w3.org/2000/svg"
xmlns:xlink="http://www.w3.org/1999/xlink">
<g fill-rule="evenodd"><path d="M 1177,0 L 3376,0 L 3383,0 L 3385,1 L 3392,3 L 3397,6 L 3399,8 L 3406,15 L 3407,16 L 3409,18 L 4508,1938 L 4512,1945 L 4512,1948 L 4513,1956 L 4512,1964 L 4512,1967 L 4509,1975 L 3369,4014 L 3365,4020 L 3363,4022 L 3356,4028 L 3354,4029 L 3345,4032 L 3343,4033 L 3336,4033 L 1216,4014 L 1210,4013 L 1207,4012 L 1198,4008 L 1197,4008 L 1189,4001 L 1188,4000 L 1184,3994 L 4,1834 L 3,1831 L 2,1830 L 0,1820 L 0,1818 L 1,1805 L 2,1803 L 5,1796 L 1145,17 L 1150,11 L 1152,9 L 1159,4 L 1166,1 L 1169,0 L 1177,0M 1239,3939 L 3314,3959 L 4433,1957 L 3355,74 L 1197,74 L 80,1818 L 1239,3939 z " style="fill-opacity:1.000000;fill:rgb(103,198,105);stroke:rgb(0,0,0);stroke-width:2"/></g>
</svg>
