<?xml version="1.0" standalone="no"?>
 <!DOCTYPE svg PUBLIC "-//W3C//DTD SVG 1.1//EN" 
 "http://www.w3.org/Graphics/SVG/1.1/DTD/svg11.dtd"> 
<svg xmlns="http://www.w3.org/2000/svg" version="1.1" 
    width="7.0231cm" height="6.36016cm" viewBox="0 0 27650 25040 ">
<title>SVG Picture created as proto-brd.svg date 2019/03/20 18:30:37 </title>
  <desc>Picture generated by PCBNEW </desc>
<g style="fill:#000000; fill-opacity:1;stroke:#000000; stroke-opacity:1;
stroke-linecap:round; stroke-linejoin:round; "
 transform="translate(0 0) scale(1 1)">
</g>
<g style="fill:#000000; fill-opacity:0.0; 
stroke:#000000; stroke-width:-0.000393701; stroke-opacity:1; 
stroke-linecap:round; stroke-linejoin:round;">
</g>
<g style="fill:#840000; fill-opacity:0.0; 
stroke:#840000; stroke-width:-0.000393701; stroke-opacity:1; 
stroke-linecap:round; stroke-linejoin:round;">
</g>
<g style="fill:#840000; fill-opacity:0.0; 
stroke:#840000; stroke-width:39.3701; stroke-opacity:1; 
stroke-linecap:round; stroke-linejoin:round;">
<path d="M14369 17426
L14369 18426
" />
<path d="M18369 18052
L18369 17426
" />
<path d="M14369 18426
L17995 18426
" />
<path d="M17995 18426
L18369 18052
" />
<path d="M18369 17426
L14369 17426
" />
<path d="M17995 18426
L17995 18926
" />
<path d="M17995 18926
L17743 18926
" />
<path d="M17743 18926
L17743 18426
" />
<path d="M15995 18426
L15995 18926
" />
<path d="M15995 18926
L15743 18926
" />
<path d="M15743 18926
L15743 18426
" />
<path d="M16995 17426
L16995 16926
" />
<path d="M16995 16926
L16743 16926
" />
<path d="M16743 16926
L16743 17426
" />
<path d="M14995 17426
L14995 16926
" />
<path d="M14995 16926
L14743 16926
" />
<path d="M14743 16926
L14743 17426
" />
<path d="M9688 5269
L8822 4769
" />
<path d="M6146 10152
L6688 10465
" />
<path d="M8822 4769
L6009 9641
" />
<path d="M6009 9641
L6146 10152
" />
<path d="M6688 10465
L9688 5269
" />
<path d="M6009 9641
L5576 9391
" />
<path d="M5576 9391
L5702 9173
" />
<path d="M5702 9173
L6135 9423
" />
<path d="M7009 7909
L6576 7659
" />
<path d="M6576 7659
L6702 7440
" />
<path d="M6702 7440
L7135 7690
" />
<path d="M8009 6177
L7576 5927
" />
<path d="M7576 5927
L7702 5708
" />
<path d="M7702 5708
L8135 5958
" />
<path d="M7375 9275
L7808 9525
" />
<path d="M7808 9525
L7934 9307
" />
<path d="M7934 9307
L7501 9057
" />
<path d="M8375 7543
L8808 7793
" />
<path d="M8808 7793
L8934 7574
" />
<path d="M8934 7574
L8501 7324
" />
<path d="M9375 5811
L9808 6061
" />
<path d="M9808 6061
L9934 5842
" />
<path d="M9934 5842
L9501 5592
" />
<path d="M24150 10501
L25016 10001
" />
<path d="M21192 4125
L20650 4438
" />
<path d="M25016 10001
L21703 4262
" />
<path d="M21703 4262
L21192 4125
" />
<path d="M20650 4438
L24150 10501
" />
<path d="M21703 4262
L22136 4012
" />
<path d="M22136 4012
L22262 4230
" />
<path d="M22262 4230
L21829 4480
" />
<path d="M22703 5994
L23136 5744
" />
<path d="M23136 5744
L23262 5963
" />
<path d="M23262 5963
L22829 6213
" />
<path d="M23703 7726
L24136 7476
" />
<path d="M24136 7476
L24262 7695
" />
<path d="M24262 7695
L23829 7945
" />
<path d="M24703 9458
L25136 9208
" />
<path d="M25136 9208
L25262 9427
" />
<path d="M25262 9427
L24829 9677
" />
<path d="M21337 5628
L20904 5878
" />
<path d="M20904 5878
L21030 6097
" />
<path d="M21030 6097
L21463 5847
" />
<path d="M22337 7360
L21904 7610
" />
<path d="M21904 7610
L22030 7829
" />
<path d="M22030 7829
L22463 7579
" />
<path d="M23337 9092
L22904 9342
" />
<path d="M22904 9342
L23030 9561
" />
<path d="M23030 9561
L23463 9311
" />
<path d="M10569 1529
L10569 2529
" />
<path d="M18569 2155
L18569 1529
" />
<path d="M10569 2529
L18195 2529
" />
<path d="M18195 2529
L18569 2155
" />
<path d="M18569 1529
L10569 1529
" />
<path d="M18195 2529
L18195 3029
" />
<path d="M18195 3029
L17943 3029
" />
<path d="M17943 3029
L17943 2529
" />
<path d="M16195 2529
L16195 3029
" />
<path d="M16195 3029
L15943 3029
" />
<path d="M15943 3029
L15943 2529
" />
<path d="M14195 2529
L14195 3029
" />
<path d="M14195 3029
L13943 3029
" />
<path d="M13943 3029
L13943 2529
" />
<path d="M12195 2529
L12195 3029
" />
<path d="M12195 3029
L11943 3029
" />
<path d="M11943 3029
L11943 2529
" />
<path d="M17195 1529
L17195 1029
" />
<path d="M17195 1029
L16943 1029
" />
<path d="M16943 1029
L16943 1529
" />
<path d="M15195 1529
L15195 1029
" />
<path d="M15195 1029
L14943 1029
" />
<path d="M14943 1029
L14943 1529
" />
<path d="M13195 1529
L13195 1029
" />
<path d="M13195 1029
L12943 1029
" />
<path d="M12943 1029
L12943 1529
" />
<path d="M11195 1529
L11195 1029
" />
<path d="M11195 1029
L10943 1029
" />
<path d="M10943 1029
L10943 1529
" />
</g>
<g style="fill:#840000; fill-opacity:0.0; 
stroke:#840000; stroke-width:59.0551; stroke-opacity:1; 
stroke-linecap:round; stroke-linejoin:round;">
<path d="M14130 16492
L13736 16492
L13736 16642
L13755 16679
L13774 16698
L13811 16717
L13867 16717
L13905 16698
L13924 16679
L13942 16642
L13942 16492
" />
<path d="M14130 16941
L14111 16904
L14092 16885
L14055 16866
L13942 16866
L13905 16885
L13886 16904
L13867 16941
L13867 16998
L13886 17035
L13905 17054
L13942 17073
L14055 17073
L14092 17054
L14111 17035
L14130 16998
L14130 16941
" />
<path d="M13867 17204
L14130 17279
L13942 17354
L14130 17429
L13867 17504
" />
<path d="M14111 17804
L14130 17766
L14130 17691
L14111 17654
L14074 17635
L13924 17635
L13886 17654
L13867 17691
L13867 17766
L13886 17804
L13924 17823
L13961 17823
L13999 17635
" />
<path d="M14130 17991
L13867 17991
" />
<path d="M13942 17991
L13905 18010
L13886 18029
L13867 18066
L13867 18104
" />
<path d="M13717 18516
L14224 18179
" />
<path d="M14130 18648
L13867 18648
" />
<path d="M13736 18648
L13755 18629
L13774 18648
L13755 18666
L13736 18648
L13774 18648
" />
<path d="M13774 18816
L13755 18835
L13736 18872
L13736 18966
L13755 19004
L13774 19022
L13811 19041
L13849 19041
L13905 19022
L14130 18797
L14130 19041
" />
<path d="M14111 19379
L14130 19341
L14130 19266
L14111 19229
L14092 19210
L14055 19191
L13942 19191
L13905 19210
L13886 19229
L13867 19266
L13867 19341
L13886 19379
" />
<path d="M16500 17710
L16500 17991
L16519 18048
L16557 18085
L16613 18104
L16650 18104
" />
<path d="M16332 17748
L16313 17729
L16275 17710
L16182 17710
L16144 17729
L16125 17748
L16107 17785
L16107 17823
L16125 17879
L16350 18104
L16107 18104
" />
<path d="M10121 5243
L10318 4902
L10188 4827
L10146 4824
L10121 4831
L10086 4854
L10058 4903
L10055 4945
L10062 4970
L10085 5005
L10215 5080
" />
<path d="M9732 5018
L9773 5020
L9799 5013
L9834 4990
L9890 4893
L9893 4851
L9886 4825
L9863 4790
L9814 4762
L9772 4760
L9747 4766
L9712 4790
L9655 4887
L9653 4929
L9660 4954
L9683 4989
L9732 5018
" />
<path d="M9472 4868
L9603 4640
" />
<path d="M9566 4705
L9568 4663
L9561 4638
L9538 4603
L9506 4584
" />
<path d="M9441 4547
L9311 4472
" />
<path d="M9458 4405
L9289 4697
L9254 4720
L9212 4718
L9180 4699
" />
<path d="M8796 4239
L8737 4227
L8712 4234
L8677 4257
L8649 4306
L8646 4348
L8653 4373
L8676 4408
L8806 4483
L9003 4142
L8889 4077
L8847 4074
L8822 4081
L8787 4104
L8768 4137
L8766 4178
L8772 4204
L8796 4239
L8909 4305
" />
<path d="M7634 7395
L7877 7536
L7935 7548
L7987 7534
L8031 7495
L8050 7462
" />
<path d="M7559 7525
L7437 7736
L7632 7697
L7604 7746
L7602 7788
L7609 7814
L7632 7849
L7713 7895
L7755 7898
L7780 7891
L7815 7868
L7872 7771
L7874 7729
L7867 7703
" />
<path d="M25628 10335
L25431 9994
L25301 10069
L25278 10104
L25271 10130
L25274 10171
L25302 10220
L25337 10243
L25362 10250
L25404 10248
L25534 10173
" />
<path d="M25238 10560
L25261 10525
L25268 10499
L25266 10458
L25209 10360
L25174 10337
L25149 10330
L25107 10333
L25058 10361
L25035 10396
L25028 10421
L25031 10463
L25087 10561
L25122 10584
L25148 10591
L25190 10588
L25238 10560
" />
<path d="M24978 10710
L24847 10483
" />
<path d="M24885 10548
L24850 10525
L24824 10518
L24782 10520
L24750 10539
" />
<path d="M24685 10576
L24555 10651
" />
<path d="M24571 10491
L24739 10783
L24742 10825
L24719 10860
L24686 10879
" />
<path d="M24099 11174
L24125 11181
L24183 11169
L24215 11151
L24255 11106
L24268 11055
L24266 11013
L24245 10939
L24217 10890
L24163 10835
L24128 10811
L24077 10798
L24019 10810
L23986 10828
L23947 10873
L23940 10898
" />
<path d="M23086 7225
L22842 7366
L22803 7410
L22789 7462
L22801 7520
L22820 7552
" />
<path d="M22794 6982
L22567 7114
" />
<path d="M22971 6989
L22774 7210
L22652 6999
" />
<path d="M10330 1166
L9936 1166
L9936 1316
L9955 1354
L9974 1373
L10011 1391
L10067 1391
L10105 1373
L10124 1354
L10142 1316
L10142 1166
" />
<path d="M10330 1616
L10311 1579
L10292 1560
L10255 1541
L10142 1541
L10105 1560
L10086 1579
L10067 1616
L10067 1673
L10086 1710
L10105 1729
L10142 1748
L10255 1748
L10292 1729
L10311 1710
L10330 1673
L10330 1616
" />
<path d="M10330 1916
L10067 1916
" />
<path d="M10142 1916
L10105 1935
L10086 1954
L10067 1991
L10067 2029
" />
<path d="M10067 2104
L10067 2254
" />
<path d="M9936 2160
L10274 2160
L10311 2179
L10330 2216
L10330 2254
" />
<path d="M10330 2685
L9936 2685
L9936 2779
L9955 2835
L9992 2873
L10030 2891
L10105 2910
L10161 2910
L10236 2891
L10274 2873
L10311 2835
L10330 2779
L10330 2685
" />
<path d="M14700 1813
L14700 2094
L14719 2151
L14757 2188
L14813 2207
L14850 2207
" />
<path d="M14325 1813
L14513 1813
L14532 2001
L14513 1982
L14475 1963
L14382 1963
L14344 1982
L14325 2001
L14307 2038
L14307 2132
L14325 2169
L14344 2188
L14382 2207
L14475 2207
L14513 2188
L14532 2169
" />
</g>
<g style="fill:#000000; fill-opacity:0.0; 
stroke:#000000; stroke-width:59.0551; stroke-opacity:1; 
stroke-linecap:round; stroke-linejoin:round;">
</g>
<g style="fill:#C2C200; fill-opacity:0.0; 
stroke:#C2C200; stroke-width:59.0551; stroke-opacity:1; 
stroke-linecap:round; stroke-linejoin:round;">
</g>
<g style="fill:#C2C200; fill-opacity:0.0; 
stroke:#C2C200; stroke-width:19.685; stroke-opacity:1; 
stroke-linecap:round; stroke-linejoin:round;">
<path d="M18574 19284
L14164 19284
" />
<path d="M14164 19284
L14164 16567
" />
<path d="M14164 16567
L18574 16567
" />
<path d="M18574 16567
L18574 19284
" />
<path d="M4974 9716
L8183 4159
" />
<path d="M8183 4159
L10535 5517
" />
<path d="M10535 5517
L7327 11074
" />
<path d="M7327 11074
L4974 9716
" />
<path d="M22159 3335
L25860 9745
" />
<path d="M25860 9745
L23507 11104
" />
<path d="M23507 11104
L19807 4694
" />
<path d="M19807 4694
L22159 3335
" />
<path d="M18782 3387
L10356 3387
" />
<path d="M10356 3387
L10356 671
" />
<path d="M10356 671
L18782 671
" />
<path d="M18782 671
L18782 3387
" />
</g>
<g style="fill:#000000; fill-opacity:0.0; 
stroke:#000000; stroke-width:19.685; stroke-opacity:1; 
stroke-linecap:round; stroke-linejoin:round;">
</g>
<g style="fill:#848484; fill-opacity:0.0; 
stroke:#848484; stroke-width:19.685; stroke-opacity:1; 
stroke-linecap:round; stroke-linejoin:round;">
<path d="M22645 2695
L24063 2695
" />
<path d="M24063 2695
L24063 1278
" />
<path d="M24063 1278
L22645 1278
" />
<path d="M22645 1278
L22645 2695
" />
<path d="M24960 12869
L24960 14286
" />
<path d="M24960 14286
L26378 14286
" />
<path d="M26378 14286
L26378 12869
" />
<path d="M26378 12869
L24960 12869
" />
<path d="M17790 13564
L15349 13564
" />
<path d="M15349 13564
L15349 16359
" />
<path d="M15349 16359
L17790 16359
" />
<path d="M17790 16359
L17790 13564
" />
<path d="M18194 15852
L18194 13703
" />
<path d="M18194 15852
L20060 15852
" />
<path d="M20060 13703
L18194 13703
" />
<path d="M20060 13703
L20060 15852
" />
<path d="M12618 15085
L12618 14180
" />
<path d="M12618 14180
L8858 14180
" />
<path d="M8858 14180
L8858 15085
" />
<path d="M8858 15085
L12618 15085
" />
<path d="M9724 13526
L9724 11754
" />
<path d="M9724 11754
L7815 11754
" />
<path d="M7815 11754
L7815 13526
" />
<path d="M7815 13526
L9724 13526
" />
<path d="M10649 18359
L13090 18359
" />
<path d="M13090 18359
L13090 15564
" />
<path d="M13090 15564
L10649 15564
" />
<path d="M10649 15564
L10649 18359
" />
<path d="M19778 5969
L16372 5969
" />
<path d="M16372 5969
L16372 7386
" />
<path d="M16372 7386
L19778 7386
" />
<path d="M19778 7386
L19778 5969
" />
<path d="M19778 7469
L16372 7469
" />
<path d="M16372 7469
L16372 8886
" />
<path d="M16372 8886
L19778 8886
" />
<path d="M19778 8886
L19778 7469
" />
<path d="M19778 8969
L16372 8969
" />
<path d="M16372 8969
L16372 10386
" />
<path d="M16372 10386
L19778 10386
" />
<path d="M19778 10386
L19778 8969
" />
<path d="M20660 9769
L20660 15182
" />
<path d="M20660 15182
L22078 15182
" />
<path d="M22078 15182
L22078 9769
" />
<path d="M22078 9769
L20660 9769
" />
<path d="M11260 8886
L15670 8886
" />
<path d="M15670 8886
L15670 6465
" />
<path d="M15670 6465
L11260 6465
" />
<path d="M11260 6465
L11260 8886
" />
<path d="M20478 17269
L18056 17269
" />
<path d="M18056 17269
L18056 18686
" />
<path d="M18056 18686
L20478 18686
" />
<path d="M20478 18686
L20478 17269
" />
</g>
<g style="fill:#000000; fill-opacity:0.0; 
stroke:#000000; stroke-width:19.685; stroke-opacity:1; 
stroke-linecap:round; stroke-linejoin:round;">
</g>
<g style="fill:#C2C200; fill-opacity:0.0; 
stroke:#C2C200; stroke-width:19.685; stroke-opacity:1; 
stroke-linecap:round; stroke-linejoin:round;">
</g>
<g style="fill:#C2C200; fill-opacity:0.0; 
stroke:#C2C200; stroke-width:39.3701; stroke-opacity:1; 
stroke-linecap:round; stroke-linejoin:round;">
<path d="M22854 2237
L22854 1487
" />
<path d="M22854 1487
L23854 1487
" />
<path d="M23854 1487
L23854 2487
" />
<path d="M23854 2487
L23104 2487
" />
<path d="M23104 2487
L22854 2237
" />
<path d="M25419 13077
L26169 13077
" />
<path d="M26169 13077
L26169 14077
" />
<path d="M26169 14077
L25169 14077
" />
<path d="M25169 14077
L25169 13327
" />
<path d="M25169 13327
L25419 13077
" />
<circle cx="16569.5" cy="14962.1" r="1082.68" /> 
<path d="M16569 13111
L16569 13584
" />
<path d="M16825 13347
L16313 13347
" />
<path d="M19958 15474
L19958 14096
" />
<path d="M19959.9 14087.4 A976.378 976.378 0.0 0 0 18293.2 14777.8 " />
<path d="M18293.2 14777.8 A976.378 976.378 0.0 0 0 19959.9 15468.2 " />
<path d="M11453 14947
L11453 14317
" />
<path d="M11453 14317
L10035 14317
" />
<path d="M10035 14317
L10035 14947
" />
<path d="M10035 14947
L11453 14947
" />
<path d="M12244 14632
L11453 14632
" />
<path d="M9244 14632
L10035 14632
" />
<path d="M9362.68 12181.9 A748.031 748.031 0.0 1 0 9362.46 13099.9 " />
<circle cx="8771.91" cy="12640.8" r="590.551" /> 
<path d="M9362 13099
L9362 12181
" />
<circle cx="11869.5" cy="16962.1" r="1082.68" /> 
<path d="M11869 18812
L11869 18340
" />
<path d="M11613 18576
L12125 18576
" />
<path d="M19569 6427
L19569 7177
" />
<path d="M19569 7177
L16569 7177
" />
<path d="M16569 7177
L16569 6177
" />
<path d="M16569 6177
L19319 6177
" />
<path d="M19319 6177
L19569 6427
" />
<path d="M19569 7927
L19569 8677
" />
<path d="M19569 8677
L16569 8677
" />
<path d="M16569 8677
L16569 7677
" />
<path d="M16569 7677
L19319 7677
" />
<path d="M19319 7677
L19569 7927
" />
<path d="M19569 9427
L19569 10177
" />
<path d="M19569 10177
L16569 10177
" />
<path d="M16569 10177
L16569 9177
" />
<path d="M16569 9177
L19319 9177
" />
<path d="M19319 9177
L19569 9427
" />
<path d="M21119 9977
L21869 9977
" />
<path d="M21869 9977
L21869 14977
" />
<path d="M21869 14977
L20869 14977
" />
<path d="M20869 14977
L20869 10227
" />
<path d="M20869 10227
L21119 9977
" />
<path d="M11469 8177
L11469 6677
" />
<path d="M11469 6677
L15469 6677
" />
<path d="M15469 6677
L15469 8677
" />
<path d="M15469 8677
L11969 8677
" />
<path d="M11969 8677
L11469 8177
" />
<path d="M20269 17727
L20269 18477
" />
<path d="M20269 18477
L18269 18477
" />
<path d="M18269 18477
L18269 17477
" />
<path d="M18269 17477
L20019 17477
" />
<path d="M20019 17477
L20269 17727
" />
</g>
<g style="fill:#C2C200; fill-opacity:0.0; 
stroke:#C2C200; stroke-width:59.0551; stroke-opacity:1; 
stroke-linecap:round; stroke-linejoin:round;">
<path d="M24412 3458
L24431 3477
L24450 3533
L24450 3571
L24431 3627
L24393 3665
L24356 3683
L24281 3702
L24225 3702
L24150 3683
L24112 3665
L24075 3627
L24056 3571
L24056 3533
L24075 3477
L24093 3458
" />
<path d="M24450 3233
L24431 3271
L24412 3290
L24375 3308
L24262 3308
L24225 3290
L24206 3271
L24187 3233
L24187 3177
L24206 3140
L24225 3121
L24262 3102
L24375 3102
L24412 3121
L24431 3140
L24450 3177
L24450 3233
" />
<path d="M24187 2934
L24450 2934
" />
<path d="M24225 2934
L24206 2915
L24187 2877
L24187 2821
L24206 2784
L24243 2765
L24450 2765
" />
<path d="M24187 2577
L24450 2577
" />
<path d="M24225 2577
L24206 2559
L24187 2521
L24187 2465
L24206 2427
L24243 2409
L24450 2409
" />
<path d="M24487 2315
L24487 2015
" />
<path d="M24056 1846
L24056 1809
L24075 1771
L24093 1752
L24131 1734
L24206 1715
L24300 1715
L24375 1734
L24412 1752
L24431 1771
L24450 1809
L24450 1846
L24431 1884
L24412 1902
L24375 1921
L24300 1940
L24206 1940
L24131 1921
L24093 1902
L24075 1884
L24056 1846
" />
<path d="M24450 1340
L24450 1565
" />
<path d="M24450 1452
L24056 1452
L24112 1490
L24150 1527
L24168 1565
" />
<path d="M24450 1209
L24187 1002
" />
<path d="M24187 1209
L24450 1002
" />
<path d="M24056 778
L24056 740
L24075 703
L24093 684
L24131 665
L24206 646
L24300 646
L24375 665
L24412 684
L24431 703
L24450 740
L24450 778
L24431 815
L24412 834
L24375 853
L24300 871
L24206 871
L24131 853
L24093 834
L24075 815
L24056 778
" />
<path d="M24450 271
L24450 496
" />
<path d="M24450 384
L24056 384
L24112 421
L24150 459
L24168 496
" />
<path d="M23223 1771
L23223 2052
L23204 2109
L23167 2146
L23110 2165
L23073 2165
" />
<path d="M23429 2165
L23504 2165
L23542 2146
L23560 2127
L23598 2071
L23617 1996
L23617 1846
L23598 1809
L23579 1790
L23542 1771
L23467 1771
L23429 1790
L23410 1809
L23392 1846
L23392 1940
L23410 1977
L23429 1996
L23467 2015
L23542 2015
L23579 1996
L23598 1977
L23617 1940
" />
<path d="M24197 14635
L24179 14654
L24122 14673
L24085 14673
L24029 14654
L23991 14616
L23972 14579
L23954 14504
L23954 14448
L23972 14373
L23991 14335
L24029 14298
L24085 14279
L24122 14279
L24179 14298
L24197 14317
" />
<path d="M24422 14673
L24385 14654
L24366 14635
L24347 14598
L24347 14485
L24366 14448
L24385 14429
L24422 14410
L24479 14410
L24516 14429
L24535 14448
L24554 14485
L24554 14598
L24535 14635
L24516 14654
L24479 14673
L24422 14673
" />
<path d="M24722 14410
L24722 14673
" />
<path d="M24722 14448
L24741 14429
L24779 14410
L24835 14410
L24872 14429
L24891 14467
L24891 14673
" />
<path d="M25078 14410
L25078 14673
" />
<path d="M25078 14448
L25097 14429
L25135 14410
L25191 14410
L25228 14429
L25247 14467
L25247 14673
" />
<path d="M25341 14710
L25641 14710
" />
<path d="M25810 14279
L25847 14279
L25885 14298
L25903 14317
L25922 14354
L25941 14429
L25941 14523
L25922 14598
L25903 14635
L25885 14654
L25847 14673
L25810 14673
L25772 14654
L25753 14635
L25735 14598
L25716 14523
L25716 14429
L25735 14354
L25753 14317
L25772 14298
L25810 14279
" />
<path d="M26316 14673
L26091 14673
" />
<path d="M26203 14673
L26203 14279
L26166 14335
L26128 14373
L26091 14392
" />
<path d="M26447 14673
L26653 14410
" />
<path d="M26447 14410
L26653 14673
" />
<path d="M26878 14279
L26916 14279
L26953 14298
L26972 14317
L26991 14354
L27010 14429
L27010 14523
L26991 14598
L26972 14635
L26953 14654
L26916 14673
L26878 14673
L26841 14654
L26822 14635
L26803 14598
L26785 14523
L26785 14429
L26803 14354
L26822 14317
L26841 14298
L26878 14279
" />
<path d="M27384 14673
L27159 14673
" />
<path d="M27272 14673
L27272 14279
L27234 14335
L27197 14373
L27159 14392
" />
<path d="M25453 13896
L25735 13896
L25791 13915
L25828 13952
L25847 14008
L25847 14046
" />
<path d="M25847 13502
L25847 13727
" />
<path d="M25847 13615
L25453 13615
L25510 13652
L25547 13690
L25566 13727
" />
<path d="M25453 13259
L25453 13221
L25472 13184
L25491 13165
L25528 13146
L25603 13127
L25697 13127
L25772 13146
L25810 13165
L25828 13184
L25847 13221
L25847 13259
L25828 13296
L25810 13315
L25772 13334
L25697 13352
L25603 13352
L25528 13334
L25491 13315
L25472 13296
L25453 13259
" />
<path d="M15111 15037
L15130 15055
L15149 15112
L15149 15149
L15130 15205
L15092 15243
L15055 15262
L14980 15280
L14924 15280
L14849 15262
L14811 15243
L14774 15205
L14755 15149
L14755 15112
L14774 15055
L14793 15037
" />
<path d="M15149 14868
L14755 14868
L14755 14718
L14774 14680
L14793 14662
L14830 14643
L14886 14643
L14924 14662
L14942 14680
L14961 14718
L14961 14868
" />
<path d="M16682 15067
L16701 15085
L16720 15142
L16720 15179
L16701 15235
L16663 15273
L16626 15292
L16551 15310
L16495 15310
L16420 15292
L16382 15273
L16345 15235
L16326 15179
L16326 15142
L16345 15085
L16363 15067
" />
<path d="M16363 14917
L16345 14898
L16326 14860
L16326 14767
L16345 14729
L16363 14710
L16401 14692
L16438 14692
L16495 14710
L16720 14935
L16720 14692
" />
<path d="M20546 18105
L20152 18105
L20433 17974
L20152 17843
L20546 17843
" />
<path d="M20508 17430
L20527 17449
L20546 17505
L20546 17543
L20527 17599
L20489 17636
L20452 17655
L20377 17674
L20321 17674
L20246 17655
L20208 17636
L20171 17599
L20152 17543
L20152 17505
L20171 17449
L20189 17430
" />
<path d="M20546 17261
L20152 17261
L20152 17111
L20171 17074
L20189 17055
L20227 17036
L20283 17036
L20321 17055
L20339 17074
L20358 17111
L20358 17261
" />
<path d="M20546 16661
L20546 16886
" />
<path d="M20546 16774
L20152 16774
L20208 16811
L20246 16849
L20264 16886
" />
<path d="M20152 16530
L20152 16268
L20546 16436
" />
<path d="M20152 16043
L20152 16005
L20171 15968
L20189 15949
L20227 15930
L20302 15912
L20396 15912
L20471 15930
L20508 15949
L20527 15968
L20546 16005
L20546 16043
L20527 16080
L20508 16099
L20471 16118
L20396 16137
L20302 16137
L20227 16118
L20189 16099
L20171 16080
L20152 16043
" />
<path d="M20152 15668
L20152 15630
L20171 15593
L20189 15574
L20227 15555
L20302 15537
L20396 15537
L20471 15555
L20508 15574
L20527 15593
L20546 15630
L20546 15668
L20527 15705
L20508 15724
L20471 15743
L20396 15762
L20302 15762
L20227 15743
L20189 15724
L20171 15705
L20152 15668
" />
<path d="M20396 15368
L20396 15068
" />
<path d="M20152 14918
L20152 14674
L20302 14805
L20302 14749
L20321 14712
L20339 14693
L20377 14674
L20471 14674
L20508 14693
L20527 14712
L20546 14749
L20546 14862
L20527 14899
L20508 14918
" />
<path d="M20152 14543
L20152 14299
L20302 14430
L20302 14374
L20321 14337
L20339 14318
L20377 14299
L20471 14299
L20508 14318
L20527 14337
L20546 14374
L20546 14487
L20527 14524
L20508 14543
" />
<path d="M20152 14056
L20152 14018
L20171 13981
L20189 13962
L20227 13943
L20302 13924
L20396 13924
L20471 13943
L20508 13962
L20527 13981
L20546 14018
L20546 14056
L20527 14093
L20508 14112
L20471 14131
L20396 14149
L20302 14149
L20227 14131
L20189 14112
L20171 14093
L20152 14056
" />
<path d="M20189 13774
L20171 13756
L20152 13718
L20152 13624
L20171 13587
L20189 13568
L20227 13549
L20264 13549
L20321 13568
L20546 13793
L20546 13549
" />
<path d="M20339 13381
L20339 13249
" />
<path d="M20546 13193
L20546 13381
L20152 13381
L20152 13193
" />
<path d="M20583 13118
L20583 12818
" />
<path d="M20152 12781
L20152 12556
" />
<path d="M20546 12668
L20152 12668
" />
<path d="M20152 12349
L20152 12274
L20171 12237
L20208 12200
L20283 12181
L20414 12181
L20489 12200
L20527 12237
L20546 12274
L20546 12349
L20527 12387
L20489 12424
L20414 12443
L20283 12443
L20208 12424
L20171 12387
L20152 12349
" />
<path d="M20546 11993
L20546 11918
L20527 11881
L20508 11862
L20452 11825
L20377 11806
L20227 11806
L20189 11825
L20171 11843
L20152 11881
L20152 11956
L20171 11993
L20189 12012
L20227 12031
L20321 12031
L20358 12012
L20377 11993
L20396 11956
L20396 11881
L20377 11843
L20358 11825
L20321 11806
" />
<path d="M20189 11656
L20171 11637
L20152 11600
L20152 11506
L20171 11468
L20189 11450
L20227 11431
L20264 11431
L20321 11450
L20546 11675
L20546 11431
" />
<path d="M17652 15077
L17971 15077
L18008 15059
L18027 15040
L18046 15002
L18046 14927
L18027 14890
L18008 14871
L17971 14852
L17652 14852
" />
<path d="M18046 14459
L18046 14684
" />
<path d="M18046 14571
L17652 14571
L17708 14609
L17746 14646
L17764 14684
" />
<path d="M10866 14078
L10734 13891
" />
<path d="M10641 14078
L10641 13685
L10791 13685
L10828 13703
L10847 13722
L10866 13760
L10866 13816
L10847 13853
L10828 13872
L10791 13891
L10641 13891
" />
<path d="M8518 11653
L8331 11653
L8331 11259
" />
<path d="M8650 11447
L8781 11447
" />
<path d="M8837 11653
L8650 11653
L8650 11259
L8837 11259
" />
<path d="M9006 11653
L9006 11259
L9099 11259
L9156 11278
L9193 11316
L9212 11353
L9231 11428
L9231 11484
L9212 11559
L9193 11597
L9156 11634
L9099 11653
L9006 11653
" />
<path d="M13608 17037
L13627 17055
L13646 17112
L13646 17149
L13627 17205
L13589 17243
L13552 17262
L13477 17280
L13421 17280
L13346 17262
L13308 17243
L13271 17205
L13252 17149
L13252 17112
L13271 17055
L13289 17037
" />
<path d="M13646 16868
L13252 16868
L13252 16718
L13271 16680
L13289 16662
L13327 16643
L13383 16643
L13421 16662
L13439 16680
L13458 16718
L13458 16868
" />
<path d="M12010 17027
L12028 17046
L12047 17102
L12047 17140
L12028 17196
L11991 17233
L11953 17252
L11878 17271
L11822 17271
L11747 17252
L11710 17233
L11672 17196
L11653 17140
L11653 17102
L11672 17046
L11691 17027
" />
<path d="M12047 16652
L12047 16877
" />
<path d="M12047 16765
L11653 16765
L11710 16802
L11747 16840
L11766 16877
" />
<path d="M16311 7746
L16330 7690
L16330 7596
L16311 7558
L16292 7540
L16255 7521
L16217 7521
L16180 7540
L16161 7558
L16142 7596
L16124 7671
L16105 7708
L16086 7727
L16049 7746
L16011 7746
L15974 7727
L15955 7708
L15936 7671
L15936 7577
L15955 7521
" />
<path d="M16311 7202
L16330 7240
L16330 7315
L16311 7352
L16274 7371
L16124 7371
L16086 7352
L16067 7315
L16067 7240
L16086 7202
L16124 7183
L16161 7183
L16199 7371
" />
<path d="M16330 7015
L16067 7015
" />
<path d="M16142 7015
L16105 6996
L16086 6977
L16067 6940
L16067 6902
" />
<path d="M16067 6809
L16330 6715
L16067 6621
" />
<path d="M16330 6415
L16311 6452
L16292 6471
L16255 6490
L16142 6490
L16105 6471
L16086 6452
L16067 6415
L16067 6359
L16086 6321
L16105 6302
L16142 6284
L16255 6284
L16292 6302
L16311 6321
L16330 6359
L16330 6415
" />
<path d="M16330 5609
L16330 5834
" />
<path d="M16330 5721
L15936 5721
L15992 5759
L16030 5796
L16049 5834
" />
<path d="M17938 6462
L17938 6743
L17919 6799
L17882 6837
L17825 6855
L17788 6855
" />
<path d="M18332 6855
L18107 6855
" />
<path d="M18219 6855
L18219 6462
L18182 6518
L18144 6555
L18107 6574
" />
<path d="M16311 9246
L16330 9190
L16330 9096
L16311 9058
L16292 9040
L16255 9021
L16217 9021
L16180 9040
L16161 9058
L16142 9096
L16124 9171
L16105 9208
L16086 9227
L16049 9246
L16011 9246
L15974 9227
L15955 9208
L15936 9171
L15936 9077
L15955 9021
" />
<path d="M16311 8702
L16330 8740
L16330 8815
L16311 8852
L16274 8871
L16124 8871
L16086 8852
L16067 8815
L16067 8740
L16086 8702
L16124 8683
L16161 8683
L16199 8871
" />
<path d="M16330 8515
L16067 8515
" />
<path d="M16142 8515
L16105 8496
L16086 8477
L16067 8440
L16067 8402
" />
<path d="M16067 8309
L16330 8215
L16067 8121
" />
<path d="M16330 7915
L16311 7952
L16292 7971
L16255 7990
L16142 7990
L16105 7971
L16086 7952
L16067 7915
L16067 7859
L16086 7821
L16105 7802
L16142 7784
L16255 7784
L16292 7802
L16311 7821
L16330 7859
L16330 7915
" />
<path d="M15974 7334
L15955 7315
L15936 7277
L15936 7184
L15955 7146
L15974 7127
L16011 7109
L16049 7109
L16105 7127
L16330 7352
L16330 7109
" />
<path d="M17938 7962
L17938 8243
L17919 8299
L17882 8337
L17825 8355
L17788 8355
" />
<path d="M18294 7962
L18219 7962
L18182 7980
L18163 7999
L18125 8055
L18107 8130
L18107 8280
L18125 8318
L18144 8337
L18182 8355
L18257 8355
L18294 8337
L18313 8318
L18332 8280
L18332 8187
L18313 8149
L18294 8130
L18257 8112
L18182 8112
L18144 8130
L18125 8149
L18107 8187
" />
<path d="M16311 10746
L16330 10690
L16330 10596
L16311 10558
L16292 10540
L16255 10521
L16217 10521
L16180 10540
L16161 10558
L16142 10596
L16124 10671
L16105 10708
L16086 10727
L16049 10746
L16011 10746
L15974 10727
L15955 10708
L15936 10671
L15936 10577
L15955 10521
" />
<path d="M16311 10202
L16330 10240
L16330 10315
L16311 10352
L16274 10371
L16124 10371
L16086 10352
L16067 10315
L16067 10240
L16086 10202
L16124 10183
L16161 10183
L16199 10371
" />
<path d="M16330 10015
L16067 10015
" />
<path d="M16142 10015
L16105 9996
L16086 9977
L16067 9940
L16067 9902
" />
<path d="M16067 9809
L16330 9715
L16067 9621
" />
<path d="M16330 9415
L16311 9452
L16292 9471
L16255 9490
L16142 9490
L16105 9471
L16086 9452
L16067 9415
L16067 9359
L16086 9321
L16105 9302
L16142 9284
L16255 9284
L16292 9302
L16311 9321
L16330 9359
L16330 9415
" />
<path d="M15936 8852
L15936 8609
L16086 8740
L16086 8684
L16105 8646
L16124 8627
L16161 8609
L16255 8609
L16292 8627
L16311 8646
L16330 8684
L16330 8796
L16311 8834
L16292 8852
" />
<path d="M17938 9462
L17938 9743
L17919 9799
L17882 9837
L17825 9855
L17788 9855
" />
<path d="M18088 9462
L18350 9462
L18182 9855
" />
<path d="M20291 15554
L20347 15573
L20441 15573
L20479 15554
L20497 15535
L20516 15498
L20516 15460
L20497 15423
L20479 15404
L20441 15385
L20366 15367
L20329 15348
L20310 15329
L20291 15292
L20291 15254
L20310 15217
L20329 15198
L20366 15179
L20460 15179
L20516 15198
" />
<path d="M20835 15554
L20797 15573
L20722 15573
L20685 15554
L20666 15516
L20666 15367
L20685 15329
L20722 15310
L20797 15310
L20835 15329
L20853 15367
L20853 15404
L20666 15441
" />
<path d="M21022 15310
L21022 15573
" />
<path d="M21022 15348
L21041 15329
L21078 15310
L21135 15310
L21172 15329
L21191 15367
L21191 15573
" />
<path d="M21360 15554
L21397 15573
L21472 15573
L21510 15554
L21528 15516
L21528 15498
L21510 15460
L21472 15441
L21416 15441
L21378 15423
L21360 15385
L21360 15367
L21378 15329
L21416 15310
L21472 15310
L21510 15329
" />
<path d="M21753 15573
L21716 15554
L21697 15535
L21678 15498
L21678 15385
L21697 15348
L21716 15329
L21753 15310
L21810 15310
L21847 15329
L21866 15348
L21885 15385
L21885 15498
L21866 15535
L21847 15554
L21810 15573
L21753 15573
" />
<path d="M22053 15573
L22053 15310
" />
<path d="M22053 15385
L22072 15348
L22091 15329
L22128 15310
L22166 15310
" />
<path d="M22278 15554
L22316 15573
L22391 15573
L22428 15554
L22447 15516
L22447 15498
L22428 15460
L22391 15441
L22335 15441
L22297 15423
L22278 15385
L22278 15367
L22297 15329
L22335 15310
L22391 15310
L22428 15329
" />
<path d="M21153 12796
L21435 12796
L21491 12815
L21528 12852
L21547 12908
L21547 12946
" />
<path d="M21547 12402
L21547 12627
" />
<path d="M21547 12515
L21153 12515
L21210 12552
L21247 12590
L21266 12627
" />
<path d="M21547 12027
L21547 12252
" />
<path d="M21547 12140
L21153 12140
L21210 12177
L21247 12215
L21266 12252
" />
<path d="M16027 12017
L16046 12036
L16064 12092
L16064 12130
L16046 12186
L16008 12224
L15971 12242
L15896 12261
L15839 12261
L15765 12242
L15727 12224
L15690 12186
L15671 12130
L15671 12092
L15690 12036
L15708 12017
" />
<path d="M16064 11792
L16046 11830
L16027 11849
L15989 11867
L15877 11867
L15839 11849
L15821 11830
L15802 11792
L15802 11736
L15821 11699
L15839 11680
L15877 11661
L15989 11661
L16027 11680
L16046 11699
L16064 11736
L16064 11792
" />
<path d="M15802 11492
L16064 11492
" />
<path d="M15839 11492
L15821 11474
L15802 11436
L15802 11380
L15821 11342
L15858 11324
L16064 11324
" />
<path d="M15802 11136
L16064 11136
" />
<path d="M15839 11136
L15821 11117
L15802 11080
L15802 11024
L15821 10986
L15858 10968
L16064 10968
" />
<path d="M16102 10874
L16102 10574
" />
<path d="M15671 10405
L15671 10368
L15690 10330
L15708 10311
L15746 10293
L15821 10274
L15914 10274
L15989 10293
L16027 10311
L16046 10330
L16064 10368
L16064 10405
L16046 10443
L16027 10461
L15989 10480
L15914 10499
L15821 10499
L15746 10480
L15708 10461
L15690 10443
L15671 10405
" />
<path d="M15708 10124
L15690 10105
L15671 10068
L15671 9974
L15690 9936
L15708 9918
L15746 9899
L15783 9899
L15839 9918
L16064 10143
L16064 9899
" />
<path d="M16064 9768
L15802 9561
" />
<path d="M15802 9768
L16064 9561
" />
<path d="M15671 9336
L15671 9299
L15690 9261
L15708 9243
L15746 9224
L15821 9205
L15914 9205
L15989 9224
L16027 9243
L16046 9261
L16064 9299
L16064 9336
L16046 9374
L16027 9393
L15989 9411
L15914 9430
L15821 9430
L15746 9411
L15708 9393
L15690 9374
L15671 9336
" />
<path d="M15802 8868
L16064 8868
" />
<path d="M15652 8962
L15933 9055
L15933 8812
" />
<path d="M16102 8755
L16102 8455
" />
<path d="M16027 8137
L16046 8155
L16064 8212
L16064 8249
L16046 8305
L16008 8343
L15971 8362
L15896 8380
L15839 8380
L15765 8362
L15727 8343
L15690 8305
L15671 8249
L15671 8212
L15690 8155
L15708 8137
" />
<path d="M16064 7912
L16046 7949
L16027 7968
L15989 7987
L15877 7987
L15839 7968
L15821 7949
L15802 7912
L15802 7855
L15821 7818
L15839 7799
L15877 7780
L15989 7780
L16027 7799
L16046 7818
L16064 7855
L16064 7912
" />
<path d="M15802 7443
L16064 7443
" />
<path d="M15802 7612
L16008 7612
L16046 7593
L16064 7555
L16064 7499
L16046 7462
L16027 7443
" />
<path d="M15802 7255
L16064 7255
" />
<path d="M15839 7255
L15821 7237
L15802 7199
L15802 7143
L15821 7105
L15858 7087
L16064 7087
" />
<path d="M15802 6956
L15802 6806
" />
<path d="M15671 6899
L16008 6899
L16046 6881
L16064 6843
L16064 6806
" />
<path d="M16046 6524
L16064 6562
L16064 6637
L16046 6674
L16008 6693
L15858 6693
L15821 6674
L15802 6637
L15802 6562
L15821 6524
L15858 6506
L15896 6506
L15933 6693
" />
<path d="M16064 6337
L15802 6337
" />
<path d="M15877 6337
L15839 6318
L15821 6299
L15802 6262
L15802 6224
" />
<path d="M16102 6187
L16102 5887
" />
<path d="M16027 5568
L16046 5587
L16064 5643
L16064 5681
L16046 5737
L16008 5774
L15971 5793
L15896 5812
L15839 5812
L15765 5793
L15727 5774
L15690 5737
L15671 5681
L15671 5643
L15690 5587
L15708 5568
" />
<path d="M16064 5343
L16046 5381
L16008 5399
L15671 5399
" />
<path d="M16064 5137
L16046 5174
L16027 5193
L15989 5212
L15877 5212
L15839 5193
L15821 5174
L15802 5137
L15802 5081
L15821 5043
L15839 5025
L15877 5006
L15989 5006
L16027 5025
L16046 5043
L16064 5081
L16064 5137
" />
<path d="M16046 4668
L16064 4706
L16064 4781
L16046 4818
L16027 4837
L15989 4856
L15877 4856
L15839 4837
L15821 4818
L15802 4781
L15802 4706
L15821 4668
" />
<path d="M16064 4500
L15671 4500
" />
<path d="M15914 4462
L16064 4350
" />
<path d="M15802 4350
L15952 4500
" />
<path d="M15802 4218
L16064 4143
L15877 4068
L16064 3993
L15802 3918
" />
<path d="M16064 3768
L15802 3768
" />
<path d="M15671 3768
L15690 3787
L15708 3768
L15690 3750
L15671 3768
L15708 3768
" />
<path d="M16046 3600
L16064 3562
L16064 3487
L16046 3450
L16008 3431
L15989 3431
L15952 3450
L15933 3487
L15933 3543
L15914 3581
L15877 3600
L15858 3600
L15821 3581
L15802 3543
L15802 3487
L15821 3450
" />
<path d="M16046 3112
L16064 3150
L16064 3225
L16046 3262
L16008 3281
L15858 3281
L15821 3262
L15802 3225
L15802 3150
L15821 3112
L15858 3094
L15896 3094
L15933 3281
" />
<path d="M13338 7462
L13338 7743
L13319 7799
L13282 7837
L13225 7855
L13188 7855
" />
<path d="M13582 7630
L13544 7612
L13525 7593
L13507 7555
L13507 7537
L13525 7499
L13544 7480
L13582 7462
L13657 7462
L13694 7480
L13713 7499
L13732 7537
L13732 7555
L13713 7593
L13694 7612
L13657 7630
L13582 7630
L13544 7649
L13525 7668
L13507 7705
L13507 7780
L13525 7818
L13544 7837
L13582 7855
L13657 7855
L13694 7837
L13713 7818
L13732 7780
L13732 7705
L13713 7668
L13694 7649
L13657 7630
" />
<path d="M17992 19449
L18011 19468
L18030 19524
L18030 19561
L18011 19618
L17974 19655
L17936 19674
L17861 19693
L17805 19693
L17730 19674
L17692 19655
L17655 19618
L17636 19561
L17636 19524
L17655 19468
L17674 19449
" />
<path d="M18030 19224
L18011 19262
L17992 19280
L17955 19299
L17842 19299
L17805 19280
L17786 19262
L17767 19224
L17767 19168
L17786 19130
L17805 19112
L17842 19093
L17955 19093
L17992 19112
L18011 19130
L18030 19168
L18030 19224
" />
<path d="M17767 18924
L18030 18924
" />
<path d="M17805 18924
L17786 18905
L17767 18868
L17767 18812
L17786 18774
L17824 18755
L18030 18755
" />
<path d="M17767 18568
L18030 18568
" />
<path d="M17805 18568
L17786 18549
L17767 18512
L17767 18455
L17786 18418
L17824 18399
L18030 18399
" />
<path d="M18067 18305
L18067 18005
" />
<path d="M17636 17837
L17636 17799
L17655 17762
L17674 17743
L17711 17724
L17786 17705
L17880 17705
L17955 17724
L17992 17743
L18011 17762
L18030 17799
L18030 17837
L18011 17874
L17992 17893
L17955 17912
L17880 17930
L17786 17930
L17711 17912
L17674 17893
L17655 17874
L17636 17837
" />
<path d="M18030 17331
L18030 17555
" />
<path d="M18030 17443
L17636 17443
L17692 17480
L17730 17518
L17749 17555
" />
<path d="M18030 17199
L17767 16993
" />
<path d="M17767 17199
L18030 16993
" />
<path d="M17636 16768
L17636 16731
L17655 16693
L17674 16674
L17711 16656
L17786 16637
L17880 16637
L17955 16656
L17992 16674
L18011 16693
L18030 16731
L18030 16768
L18011 16806
L17992 16824
L17955 16843
L17880 16862
L17786 16862
L17711 16843
L17674 16824
L17655 16806
L17636 16768
" />
<path d="M17674 16487
L17655 16468
L17636 16431
L17636 16337
L17655 16299
L17674 16281
L17711 16262
L17749 16262
L17805 16281
L18030 16506
L18030 16262
" />
<path d="M19053 18296
L19335 18296
L19391 18315
L19428 18352
L19447 18408
L19447 18446
" />
<path d="M19447 17902
L19447 18127
" />
<path d="M19447 18015
L19053 18015
L19110 18052
L19147 18090
L19166 18127
" />
<path d="M19091 17752
L19072 17734
L19053 17696
L19053 17602
L19072 17565
L19091 17546
L19128 17527
L19166 17527
L19222 17546
L19447 17771
L19447 17527
" />
</g>
<g style="fill:#000000; fill-opacity:0.0; 
stroke:#000000; stroke-width:59.0551; stroke-opacity:1; 
stroke-linecap:round; stroke-linejoin:round;">
</g>
<g style="fill:#C2C200; fill-opacity:0.0; 
stroke:#C2C200; stroke-width:59.0551; stroke-opacity:1; 
stroke-linecap:round; stroke-linejoin:round;">
<path d="M25402 10032
L20402 1371
" />
<path d="M20402 1371
L10402 1371
" />
<path d="M10402 1371
L5402 10032
" />
<path d="M10402 18692
L5402 10032
" />
<path d="M20402 18692
L10402 18692
" />
<path d="M25402 10032
L20402 18692
" />
</g>
<g style="fill:#000000; fill-opacity:0.0; 
stroke:#000000; stroke-width:59.0551; stroke-opacity:1; 
stroke-linecap:round; stroke-linejoin:round;">
</g>
<g style="fill:#C2C200; fill-opacity:0.0; 
stroke:#C2C200; stroke-width:59.0551; stroke-opacity:1; 
stroke-linecap:round; stroke-linejoin:round;">
<path d="M4269 10077
L9769 19577
" />
<path d="M10069 677
L4269 10077
" />
<path d="M20669 677
L10069 677
" />
<path d="M25969 9977
L20669 677
" />
<path d="M20569 19577
L25969 9977
" />
<path d="M9769 19577
L20569 19577
" />
</g> 
</svg>
