<?xml version="1.0" standalone="no"?>
<!DOCTYPE svg PUBLIC "-//W3C//DTD SVG 1.1//EN"
"http://www.w3.org/Graphics/SVG/1.1/DTD/svg11.dtd">
<svg width="4402.8" height="3862.8" viewBox="0 0 4402.8 3862.8" version="1.1"
xmlns="http://www.w3.org/2000/svg"
xmlns:xlink="http://www.w3.org/1999/xlink">
<circle cx="1636" cy="2831" r="27" style=""/>
<circle cx="1036" cy="2831" r="27" style=""/>
<circle cx="3040" cy="2800" r="31" style=""/>
<circle cx="3040" cy="2600" r="31" style=""/>
<circle cx="3040" cy="2400" r="31" style=""/>
<circle cx="2001" cy="2554" r="31" style=""/>
<circle cx="2001" cy="2740" r="31" style=""/>
<circle cx="2001" cy="3134" r="31" style=""/>
<circle cx="2001" cy="2160" r="31" style=""/>
<circle cx="1041" cy="2433" r="34" style=""/>
<circle cx="841" cy="2433" r="34" style=""/>
<circle cx="3460" cy="2780" r="38" style=""/>
<circle cx="3460" cy="2580" r="38" style=""/>
<circle cx="3460" cy="2380" r="38" style=""/>
<circle cx="3460" cy="2180" r="38" style=""/>
<circle cx="3460" cy="1980" r="38" style=""/>
<circle cx="3000" cy="1841" r="38" style=""/>
<circle cx="2800" cy="1841" r="38" style=""/>
<circle cx="2600" cy="1841" r="38" style=""/>
<circle cx="2600" cy="1541" r="38" style=""/>
<circle cx="2800" cy="1541" r="38" style=""/>
<circle cx="3000" cy="1541" r="38" style=""/>
<circle cx="3000" cy="1241" r="38" style=""/>
<circle cx="2800" cy="1241" r="38" style=""/>
<circle cx="2600" cy="1241" r="38" style=""/>
<circle cx="2181" cy="1341" r="38" style=""/>
<circle cx="2181" cy="1541" r="38" style=""/>
<circle cx="1981" cy="1541" r="38" style=""/>
<circle cx="1981" cy="1341" r="38" style=""/>
<circle cx="1781" cy="1341" r="38" style=""/>
<circle cx="1781" cy="1541" r="38" style=""/>
<circle cx="1581" cy="1541" r="38" style=""/>
<circle cx="1581" cy="1341" r="38" style=""/>
<circle cx="1414" cy="1800" r="38" style=""/>
<circle cx="1282" cy="1922" r="38" style=""/>
<circle cx="1642" cy="2045" r="38" style=""/>
<circle cx="1550" cy="2316" r="38" style=""/>
<circle cx="2780" cy="3060" r="38" style=""/>
<circle cx="2980" cy="3060" r="38" style=""/>
</svg>
