<?xml version="1.0" standalone="no"?>
<!DOCTYPE svg PUBLIC "-//W3C//DTD SVG 1.1//EN"
"http://www.w3.org/Graphics/SVG/1.1/DTD/svg11.dtd">
<svg width="4225" height="3766" viewBox="0 0 4225 3766" version="1.1"
xmlns="http://www.w3.org/2000/svg"
xmlns:xlink="http://www.w3.org/1999/xlink">
<g fill-rule="evenodd"><path d="M 4047,1474 L 4087,1543 L 4089,1547 L 4089,1551 L 4089,1555 L 4088,1560 L 4086,1563 L 4083,1567 L 4080,1569 L 3908,1668 L 3904,1670 L 3900,1671 L 3896,1671 L 3891,1670 L 3888,1667 L 3884,1665 L 3882,1661 L 3842,1593 L 3840,1589 L 3840,1584 L 3840,1580 L 3841,1576 L 3843,1572 L 3846,1569 L 3849,1566 L 4021,1467 L 4025,1465 L 4029,1465 L 4033,1465 L 4038,1466 L 4041,1468 L 4045,1471 L 4047,1474 z " style="fill-opacity:1.000000;fill:rgb(103,198,105);stroke:rgb(0,0,0);stroke-width:2"/></g>
<g fill-rule="evenodd"><path d="M 3922,1778 L 3961,1846 L 3963,1850 L 3964,1854 L 3964,1859 L 3962,1863 L 3960,1867 L 3957,1870 L 3954,1873 L 3783,1972 L 3779,1973 L 3774,1974 L 3770,1974 L 3766,1973 L 3762,1971 L 3758,1968 L 3756,1965 L 3717,1896 L 3715,1892 L 3714,1888 L 3714,1884 L 3715,1879 L 3717,1875 L 3720,1872 L 3724,1869 L 3895,1771 L 3899,1769 L 3903,1768 L 3908,1768 L 3912,1769 L 3916,1771 L 3919,1774 L 3922,1778 z " style="fill-opacity:1.000000;fill:rgb(115,81,255);stroke:rgb(0,0,0);stroke-width:2"/></g>
<g fill-rule="evenodd"><path d="M 2600,3657 L 2600,3459 L 2600,3455 L 2602,3450 L 2604,3447 L 2607,3444 L 2611,3441 L 2615,3440 L 2620,3439 L 2698,3439 L 2703,3440 L 2707,3441 L 2711,3444 L 2714,3447 L 2716,3450 L 2717,3455 L 2718,3459 L 2718,3657 L 2717,3661 L 2716,3665 L 2714,3669 L 2711,3672 L 2707,3674 L 2703,3676 L 2698,3676 L 2620,3676 L 2615,3676 L 2611,3674 L 2607,3672 L 2604,3669 L 2602,3665 L 2600,3661 L 2600,3657 z " style="fill-opacity:1.000000;fill:rgb(74,236,41);stroke:rgb(0,0,0);stroke-width:2"/></g>
<g fill-rule="evenodd"><path d="M 2400,3396 L 2400,3198 L 2400,3194 L 2402,3190 L 2404,3186 L 2407,3183 L 2411,3181 L 2415,3179 L 2420,3179 L 2498,3179 L 2503,3179 L 2507,3181 L 2511,3183 L 2514,3186 L 2516,3190 L 2518,3194 L 2518,3198 L 2518,3396 L 2518,3400 L 2516,3405 L 2514,3408 L 2511,3411 L 2507,3414 L 2503,3415 L 2498,3416 L 2420,3416 L 2415,3415 L 2411,3414 L 2407,3411 L 2404,3408 L 2402,3405 L 2400,3400 L 2400,3396 z " style="fill-opacity:1.000000;fill:rgb(205,186,171);stroke:rgb(0,0,0);stroke-width:2"/></g>
<g fill-rule="evenodd"><path d="M 2640,478 L 2640,280 L 2640,276 L 2642,271 L 2644,268 L 2647,265 L 2651,262 L 2655,261 L 2660,260 L 2738,260 L 2743,261 L 2747,262 L 2751,265 L 2754,268 L 2756,271 L 2757,276 L 2758,280 L 2758,478 L 2757,482 L 2756,486 L 2754,490 L 2751,493 L 2747,495 L 2743,497 L 2738,497 L 2660,497 L 2655,497 L 2651,495 L 2647,493 L 2644,490 L 2642,486 L 2640,482 L 2640,478 z " style="fill-opacity:1.000000;fill:rgb(242,251,227);stroke:rgb(0,0,0);stroke-width:2"/></g>
<g fill-rule="evenodd"><path d="M 1840,478 L 1840,280 L 1840,276 L 1842,271 L 1844,268 L 1847,265 L 1851,262 L 1855,261 L 1860,260 L 1938,260 L 1943,261 L 1947,262 L 1951,265 L 1954,268 L 1956,271 L 1958,276 L 1958,280 L 1958,478 L 1958,482 L 1956,486 L 1954,490 L 1951,493 L 1947,495 L 1943,497 L 1938,497 L 1860,497 L 1855,497 L 1851,495 L 1847,493 L 1844,490 L 1842,486 L 1840,482 L 1840,478 z " style="fill-opacity:1.000000;fill:rgb(70,124,194);stroke:rgb(0,0,0);stroke-width:2"/></g>
<g fill-rule="evenodd"><path d="M 1440,478 L 1440,280 L 1440,276 L 1442,271 L 1444,268 L 1447,265 L 1451,262 L 1455,261 L 1460,260 L 1538,260 L 1543,261 L 1547,262 L 1551,265 L 1554,268 L 1556,271 L 1558,276 L 1558,280 L 1558,478 L 1558,482 L 1556,486 L 1554,490 L 1551,493 L 1547,495 L 1543,497 L 1538,497 L 1460,497 L 1455,497 L 1451,495 L 1447,493 L 1444,490 L 1442,486 L 1440,482 L 1440,478 z " style="fill-opacity:1.000000;fill:rgb(84,248,27);stroke:rgb(0,0,0);stroke-width:2"/></g>
<g fill-rule="evenodd"><path d="M 2460,0 L 2538,0 L 2543,0 L 2547,2 L 2551,4 L 2554,7 L 2556,11 L 2557,15 L 2558,19 L 2558,217 L 2557,221 L 2556,225 L 2554,229 L 2551,232 L 2547,235 L 2543,236 L 2538,237 L 2460,237 L 2455,236 L 2451,235 L 2447,232 L 2444,229 L 2442,225 L 2440,221 L 2440,217 L 2440,19 L 2440,15 L 2442,11 L 2444,7 L 2447,4 L 2451,2 L 2455,0 L 2460,0 z " style="fill-opacity:1.000000;fill:rgb(232,231,141);stroke:rgb(0,0,0);stroke-width:2"/></g>
<g fill-rule="evenodd"><path d="M 2060,0 L 2138,0 L 2143,0 L 2147,2 L 2151,4 L 2154,7 L 2156,11 L 2158,15 L 2158,19 L 2158,217 L 2158,221 L 2156,225 L 2154,229 L 2151,232 L 2147,235 L 2143,236 L 2138,237 L 2060,237 L 2055,236 L 2051,235 L 2047,232 L 2044,229 L 2042,225 L 2040,221 L 2040,217 L 2040,19 L 2040,15 L 2042,11 L 2044,7 L 2047,4 L 2051,2 L 2055,0 L 2060,0 z " style="fill-opacity:1.000000;fill:rgb(118,90,46);stroke:rgb(0,0,0);stroke-width:2"/></g>
<g fill-rule="evenodd"><path d="M 1660,0 L 1738,0 L 1743,0 L 1747,2 L 1751,4 L 1754,7 L 1756,11 L 1758,15 L 1758,19 L 1758,217 L 1758,221 L 1756,225 L 1754,229 L 1751,232 L 1747,235 L 1743,236 L 1738,237 L 1660,237 L 1655,236 L 1651,235 L 1647,232 L 1644,229 L 1642,225 L 1640,221 L 1640,217 L 1640,19 L 1640,15 L 1642,11 L 1644,7 L 1647,4 L 1651,2 L 1655,0 L 1660,0 z " style="fill-opacity:1.000000;fill:rgb(99,51,159);stroke:rgb(0,0,0);stroke-width:2"/></g>
<g fill-rule="evenodd"><path d="M 1260,0 L 1338,0 L 1343,0 L 1347,2 L 1351,4 L 1354,7 L 1356,11 L 1358,15 L 1358,19 L 1358,217 L 1358,221 L 1356,225 L 1354,229 L 1351,232 L 1347,235 L 1343,236 L 1338,237 L 1260,237 L 1255,236 L 1251,235 L 1247,232 L 1244,229 L 1242,225 L 1241,221 L 1240,217 L 1240,19 L 1241,15 L 1242,11 L 1244,7 L 1247,4 L 1251,2 L 1255,0 L 1260,0 z " style="fill-opacity:1.000000;fill:rgb(201,154,102);stroke:rgb(0,0,0);stroke-width:2"/></g>
<g fill-rule="evenodd"><path d="M 3355,2204 L 3343,2203 L 3340,2202 L 3330,2199 L 3327,2198 L 3323,2197 L 3314,2192 L 3311,2190 L 3308,2188 L 3307,2187 L 3298,2179 L 3295,2176 L 3287,2165 L 3284,2162 L 3278,2150 L 3277,2146 L 3274,2133 L 3273,2129 L 3272,2116 L 3273,2112 L 3275,2098 L 3276,2094 L 3280,2082 L 3282,2078 L 3289,2067 L 3292,2063 L 3301,2054 L 3304,2051 L 3315,2043 L 3319,2041 L 3331,2036 L 3335,2035 L 3348,2032 L 3351,2032 L 3358,2031 L 3361,2031 L 3374,2033 L 3378,2034 L 3391,2038 L 3395,2039 L 3404,2044 L 3407,2046 L 3410,2048 L 3411,2049 L 3420,2057 L 3423,2060 L 3431,2071 L 3433,2074 L 3439,2086 L 3441,2090 L 3444,2103 L 3445,2107 L 3445,2120 L 3445,2124 L 3443,2138 L 3442,2142 L 3437,2154 L 3436,2158 L 3428,2169 L 3426,2172 L 3417,2182 L 3414,2185 L 3407,2189 L 3403,2193 L 3401,2193 L 3399,2195 L 3388,2199 L 3387,2200 L 3383,2201 L 3370,2203 L 3367,2204 L 3362,2204 L 3360,2205 L 3357,2204 L 3355,2204 z " style="fill-opacity:1.000000;fill:rgb(50,13,183);stroke:rgb(0,0,0);stroke-width:2"/></g>
<g fill-rule="evenodd"><path d="M 1547,1331 L 1549,1329 L 1552,1325 L 1554,1321 L 1556,1319 L 1557,1317 L 1560,1314 L 1562,1313 L 1566,1311 L 1568,1310 L 1572,1308 L 1574,1308 L 1578,1307 L 1580,1307 L 1584,1308 L 1587,1308 L 1591,1310 L 1593,1311 L 1596,1313 L 1598,1314 L 1601,1317 L 1602,1319 L 1604,1321 L 1604,1321 L 1605,1322 L 1607,1325 L 1609,1328 L 1618,1342 L 1635,1353 L 1637,1355 L 1639,1356 L 1642,1359 L 1643,1361 L 1645,1365 L 1646,1366 L 1648,1371 L 1648,1373 L 1648,1377 L 1648,1379 L 1648,1383 L 1648,1385 L 1646,1390 L 1645,1392 L 1643,1395 L 1642,1397 L 1639,1400 L 1637,1401 L 1635,1403 L 1618,1414 L 1611,1425 L 1609,1427 L 1607,1431 L 1599,1443 L 1598,1450 L 1596,1455 L 1595,1458 L 1593,1472 L 1593,1475 L 1592,1478 L 1593,1483 L 1594,1488 L 1594,1489 L 1594,1490 L 1594,1493 L 1594,1493 L 1594,1495 L 1594,1498 L 1594,1500 L 1592,1505 L 1591,1507 L 1588,1512 L 1586,1514 L 1584,1517 L 1583,1519 L 1581,1522 L 1579,1525 L 1577,1528 L 1576,1530 L 1576,1530 L 1576,1530 L 1575,1531 L 1574,1535 L 1574,1539 L 1573,1543 L 1573,1545 L 1572,1548 L 1572,1587 L 1572,1589 L 1572,1592 L 1570,1597 L 1569,1599 L 1567,1604 L 1565,1606 L 1563,1608 L 1378,1793 L 1371,1800 L 1368,1803 L 1367,1804 L 1317,1854 L 1315,1856 L 1314,1857 L 1310,1859 L 1308,1860 L 1304,1862 L 1302,1862 L 1298,1863 L 1295,1863 L 1291,1863 L 1289,1862 L 1285,1861 L 1283,1860 L 1279,1858 L 1278,1856 L 1274,1854 L 1273,1852 L 1270,1848 L 1269,1847 L 1268,1845 L 1254,1811 L 1229,1785 L 1227,1783 L 1226,1781 L 1223,1777 L 1222,1774 L 1221,1769 L 1221,1767 L 1220,1764 L 1220,1511 L 1221,1508 L 1221,1506 L 1222,1501 L 1223,1498 L 1226,1494 L 1227,1492 L 1229,1490 L 1376,1343 L 1378,1341 L 1380,1340 L 1384,1337 L 1386,1336 L 1390,1335 L 1392,1334 L 1397,1334 L 1399,1334 L 1403,1335 L 1406,1335 L 1410,1337 L 1412,1338 L 1414,1339 L 1446,1360 L 1479,1367 L 1512,1360 L 1540,1342 L 1547,1331 z " style="fill-opacity:1.000000;fill:rgb(49,88,163);stroke:rgb(0,0,0);stroke-width:2"/></g>
<g fill-rule="evenodd"><path d="M 981,1267 L 977,1270 L 976,1271 L 972,1273 L 968,1274 L 964,1274 L 959,1274 L 955,1272 L 784,1173 L 780,1170 L 778,1167 L 776,1163 L 774,1159 L 774,1154 L 775,1150 L 777,1146 L 816,1078 L 819,1074 L 822,1071 L 826,1069 L 830,1068 L 835,1068 L 839,1069 L 843,1071 L 907,1108 L 1183,832 L 1184,831 L 1187,828 L 1191,826 L 1195,824 L 1198,822 L 1202,821 L 1206,821 L 1209,820 L 1211,820 L 1631,820 L 2161,290 L 2161,233 L 2161,231 L 2162,227 L 2163,223 L 2164,219 L 2166,215 L 2168,211 L 2170,208 L 2172,206 L 2173,205 L 2185,193 L 2186,191 L 2191,188 L 2195,186 L 2200,184 L 2205,182 L 2210,182 L 2212,182 L 2386,182 L 2388,182 L 2393,182 L 2398,184 L 2403,186 L 2407,188 L 2411,191 L 2413,193 L 2425,205 L 2427,207 L 2430,211 L 2433,215 L 2435,220 L 2436,225 L 2437,230 L 2437,233 L 2437,525 L 2437,525 L 2436,527 L 2436,532 L 2435,537 L 2434,537 L 2434,538 L 2433,541 L 2433,548 L 2433,548 L 2433,550 L 2432,555 L 2431,560 L 2431,562 L 2430,564 L 2429,565 L 2426,569 L 2423,573 L 2422,575 L 2422,575 L 2252,745 L 2252,1345 L 2252,1345 L 2251,1347 L 2251,1352 L 2249,1357 L 2249,1359 L 2248,1361 L 2247,1362 L 2245,1366 L 2242,1370 L 2240,1372 L 2240,1372 L 2161,1451 L 2164,1461 L 2164,1463 L 2164,1463 L 2164,1466 L 2164,1467 L 2164,1468 L 2165,1473 L 2165,1480 L 2165,1481 L 2165,1484 L 2163,1498 L 2162,1501 L 2160,1506 L 2158,1514 L 2156,1518 L 2151,1525 L 2149,1529 L 2147,1531 L 2146,1533 L 2137,1542 L 2134,1545 L 2123,1553 L 2119,1555 L 2107,1560 L 2103,1561 L 2090,1564 L 2087,1564 L 2080,1565 L 2077,1565 L 2064,1563 L 2060,1562 L 2047,1558 L 2043,1557 L 2031,1550 L 2028,1548 L 2018,1539 L 2015,1536 L 2009,1528 L 2007,1525 L 2005,1522 L 2004,1521 L 1999,1510 L 1997,1506 L 1994,1493 L 1993,1489 L 1992,1476 L 1993,1472 L 1995,1458 L 1996,1454 L 2000,1442 L 2002,1438 L 2009,1427 L 2012,1423 L 2021,1414 L 2024,1411 L 2035,1403 L 2039,1401 L 2051,1396 L 2055,1395 L 2068,1392 L 2071,1392 L 2078,1391 L 2081,1392 L 2094,1393 L 2098,1394 L 2105,1396 L 2173,1328 L 2173,729 L 2173,727 L 2174,722 L 2175,717 L 2177,712 L 2180,707 L 2183,703 L 2185,701 L 2355,531 L 2355,525 L 2355,520 L 2357,516 L 2358,512 L 2358,260 L 2240,260 L 2240,306 L 2240,309 L 2239,314 L 2238,319 L 2236,324 L 2233,328 L 2230,332 L 2228,334 L 1675,888 L 1673,889 L 1669,892 L 1665,895 L 1660,897 L 1655,898 L 1650,899 L 1647,899 L 1227,899 L 978,1148 L 1014,1170 L 1018,1172 L 1021,1175 L 1023,1179 L 1024,1184 L 1024,1188 L 1023,1192 L 1021,1196 L 982,1265 L 981,1267 z " style="fill-opacity:1.000000;fill:rgb(90,37,93);stroke:rgb(0,0,0);stroke-width:2"/></g>
<g fill-rule="evenodd"><path d="M 2977,3765 L 2019,3765 L 2016,3765 L 2011,3765 L 2006,3763 L 2002,3761 L 1997,3759 L 1993,3756 L 1991,3754 L 1969,3732 L 1071,3732 L 1069,3731 L 1066,3731 L 1061,3730 L 1059,3729 L 1054,3726 L 1052,3725 L 1049,3721 L 1047,3719 L 1046,3717 L 3,1917 L 2,1914 L 1,1912 L 0,1907 L 0,1904 L 0,1902 L 0,1819 L 0,1816 L 0,1813 L 2,1808 L 3,1805 L 4,1803 L 131,1598 L 132,1596 L 133,1594 L 136,1591 L 138,1589 L 142,1587 L 144,1586 L 148,1585 L 150,1584 L 154,1584 L 157,1583 L 161,1584 L 163,1584 L 167,1586 L 169,1587 L 173,1589 L 175,1590 L 178,1593 L 178,1593 L 179,1595 L 180,1595 L 181,1597 L 181,1597 L 183,1600 L 243,1660 L 245,1662 L 246,1664 L 249,1668 L 250,1671 L 251,1676 L 251,1678 L 252,1681 L 252,2031 L 252,2034 L 253,2036 L 253,2042 L 255,2046 L 255,2048 L 255,2049 L 256,2050 L 257,2051 L 259,2056 L 262,2060 L 264,2061 L 265,2064 L 381,2179 L 382,2181 L 384,2183 L 386,2188 L 387,2190 L 389,2195 L 389,2198 L 389,2200 L 389,2242 L 390,2245 L 390,2247 L 391,2252 L 392,2257 L 393,2258 L 393,2260 L 393,2261 L 394,2262 L 397,2266 L 400,2270 L 401,2272 L 403,2275 L 771,2643 L 773,2645 L 774,2647 L 777,2651 L 778,2654 L 779,2659 L 780,2661 L 780,2664 L 780,2821 L 781,2824 L 781,2826 L 782,2831 L 783,2836 L 783,2838 L 783,2839 L 784,2840 L 785,2841 L 787,2845 L 790,2850 L 792,2851 L 794,2854 L 849,2909 L 852,2911 L 853,2912 L 858,2915 L 862,2918 L 863,2919 L 864,2919 L 865,2920 L 867,2920 L 872,2921 L 877,2922 L 879,2922 L 882,2923 L 986,2923 L 989,2922 L 991,2922 L 995,2922 L 998,2921 L 1001,2920 L 1004,2920 L 1004,2919 L 1004,2919 L 1005,2919 L 1008,2917 L 1012,2915 L 1015,2912 L 1016,2911 L 1019,2909 L 1270,2658 L 1272,2655 L 1274,2654 L 1277,2649 L 1279,2645 L 1280,2644 L 1281,2643 L 1281,2642 L 1281,2640 L 1282,2635 L 1283,2630 L 1283,2628 L 1284,2625 L 1284,2314 L 1284,2310 L 1284,2308 L 1284,2193 L 1284,2190 L 1284,2187 L 1284,2124 L 1284,2121 L 1285,2119 L 1286,2114 L 1287,2111 L 1290,2107 L 1291,2105 L 1293,2103 L 1826,1570 L 1828,1568 L 1830,1567 L 1834,1564 L 1836,1563 L 1841,1562 L 1843,1561 L 1848,1561 L 1850,1561 L 1853,1562 L 1879,1567 L 1912,1560 L 1940,1542 L 1947,1531 L 1949,1529 L 1952,1525 L 1954,1521 L 1956,1519 L 1957,1517 L 1960,1514 L 1962,1513 L 1965,1511 L 1967,1510 L 1972,1508 L 1974,1508 L 1978,1507 L 1980,1507 L 1984,1508 L 1986,1508 L 1991,1510 L 1993,1511 L 1996,1513 L 1998,1514 L 2001,1517 L 2002,1519 L 2004,1521 L 2004,1521 L 2005,1522 L 2007,1525 L 2009,1528 L 2018,1542 L 2046,1560 L 2079,1567 L 2112,1560 L 2140,1542 L 2147,1531 L 2149,1529 L 2151,1525 L 2159,1513 L 2160,1506 L 2162,1501 L 2163,1498 L 2165,1484 L 2165,1481 L 2166,1478 L 2165,1473 L 2164,1468 L 2164,1467 L 2164,1466 L 2164,1463 L 2164,1463 L 2164,1461 L 2164,1458 L 2164,1456 L 2166,1451 L 2167,1449 L 2169,1445 L 2171,1443 L 2172,1441 L 2239,1375 L 2240,1372 L 2242,1370 L 2245,1366 L 2247,1362 L 2248,1361 L 2249,1360 L 2249,1359 L 2249,1357 L 2251,1352 L 2251,1347 L 2252,1345 L 2252,1342 L 2252,758 L 2253,755 L 2253,753 L 2254,748 L 2255,746 L 2258,741 L 2259,739 L 2261,737 L 2420,578 L 2422,575 L 2423,573 L 2426,569 L 2429,565 L 2430,564 L 2430,563 L 2431,562 L 2431,560 L 2432,555 L 2433,550 L 2433,548 L 2434,544 L 2434,540 L 2434,538 L 2434,537 L 2435,537 L 2436,532 L 2436,527 L 2437,525 L 2437,522 L 2437,268 L 2437,266 L 2438,264 L 2439,259 L 2439,257 L 2441,253 L 2443,251 L 2445,248 L 2447,246 L 2450,243 L 2452,242 L 2456,240 L 2458,240 L 2463,239 L 2465,238 L 2467,238 L 2536,238 L 2546,236 L 2553,232 L 2557,225 L 2560,214 L 2560,34 L 2560,32 L 2560,30 L 2561,25 L 2562,23 L 2564,19 L 2565,17 L 2568,14 L 2569,12 L 2573,10 L 2574,8 L 2578,6 L 2581,6 L 2585,5 L 2587,4 L 2589,4 L 3186,4 L 3188,4 L 3191,5 L 3195,6 L 3197,6 L 3200,8 L 3202,9 L 3206,11 L 3207,13 L 3210,16 L 3211,18 L 3212,19 L 3622,737 L 3623,739 L 3624,741 L 3626,746 L 3626,749 L 3626,754 L 3626,756 L 3625,761 L 3624,764 L 3621,769 L 3620,770 L 3616,774 L 3614,776 L 3612,778 L 3451,870 L 3443,877 L 3439,885 L 3439,893 L 3442,904 L 3446,910 L 3448,915 L 3448,917 L 3448,922 L 3448,924 L 3448,928 L 3447,930 L 3446,934 L 3445,936 L 3443,940 L 3441,941 L 3440,943 L 2999,1384 L 2997,1385 L 2996,1387 L 2991,1389 L 2989,1390 L 2985,1392 L 2982,1392 L 2977,1392 L 2975,1392 L 2972,1392 L 2963,1390 L 2835,1390 L 2825,1392 L 2818,1396 L 2813,1403 L 2812,1405 L 2810,1410 L 2809,1412 L 2807,1416 L 2805,1417 L 2802,1420 L 2800,1421 L 2797,1423 L 2795,1424 L 2791,1425 L 2789,1426 L 2784,1426 L 2782,1426 L 2778,1426 L 2776,1425 L 2772,1424 L 2770,1423 L 2767,1421 L 2765,1419 L 2761,1416 L 2761,1415 L 2752,1409 L 2750,1408 L 2748,1406 L 2745,1402 L 2744,1400 L 2741,1396 L 2741,1394 L 2739,1389 L 2739,1387 L 2739,1384 L 2739,1272 L 2739,1269 L 2739,1267 L 2741,1262 L 2741,1260 L 2744,1256 L 2745,1254 L 2748,1250 L 2750,1248 L 2752,1247 L 2761,1241 L 2761,1241 L 2765,1237 L 2767,1236 L 2770,1233 L 2772,1233 L 2776,1231 L 2778,1231 L 2782,1230 L 2784,1230 L 2789,1230 L 2791,1231 L 2795,1232 L 2797,1233 L 2800,1235 L 2802,1236 L 2805,1239 L 2807,1241 L 2809,1244 L 2810,1246 L 2812,1251 L 2812,1252 L 2817,1259 L 2824,1264 L 2835,1266 L 2963,1266 L 2973,1264 L 2980,1260 L 2985,1253 L 2987,1242 L 2987,1114 L 2985,1104 L 2981,1097 L 2974,1092 L 2963,1090 L 2961,1089 L 2958,1089 L 2954,1087 L 2952,1085 L 2949,1083 L 2947,1081 L 2944,1078 L 2943,1076 L 2941,1072 L 2940,1070 L 2939,1065 L 2939,1063 L 2939,1061 L 2939,1027 L 2939,1024 L 2939,1022 L 2941,1017 L 2942,1014 L 2944,1010 L 2946,1008 L 2948,1006 L 3073,881 L 3075,879 L 3077,877 L 3081,875 L 3084,874 L 3089,873 L 3091,872 L 3094,872 L 3106,872 L 3108,872 L 3110,872 L 3114,873 L 3116,874 L 3120,876 L 3122,877 L 3125,879 L 3127,880 L 3129,883 L 3131,885 L 3132,887 L 3153,924 L 3160,932 L 3167,935 L 3176,936 L 3186,932 L 3352,837 L 3360,830 L 3364,822 L 3365,814 L 3361,804 L 3325,740 L 3318,733 L 3310,729 L 3302,728 L 3292,732 L 3194,788 L 3191,789 L 3189,790 L 3184,792 L 3181,792 L 3179,792 L 3068,792 L 3064,793 L 3062,793 L 3057,794 L 3052,795 L 3051,795 L 3050,796 L 3049,796 L 3048,797 L 3043,800 L 3039,803 L 3037,804 L 3035,806 L 2873,968 L 2871,971 L 2869,972 L 2866,976 L 2864,981 L 2863,982 L 2862,983 L 2862,984 L 2862,985 L 2861,990 L 2860,996 L 2860,998 L 2859,1001 L 2859,1061 L 2859,1063 L 2859,1065 L 2857,1070 L 2857,1072 L 2855,1076 L 2853,1078 L 2851,1081 L 2849,1083 L 2845,1086 L 2843,1087 L 2839,1089 L 2837,1089 L 2835,1090 L 2825,1092 L 2818,1096 L 2813,1103 L 2812,1105 L 2810,1110 L 2809,1112 L 2807,1116 L 2805,1117 L 2802,1120 L 2800,1121 L 2797,1123 L 2795,1124 L 2791,1125 L 2789,1126 L 2784,1126 L 2782,1126 L 2778,1126 L 2776,1125 L 2772,1124 L 2770,1123 L 2767,1121 L 2765,1119 L 2761,1116 L 2761,1115 L 2732,1096 L 2699,1089 L 2666,1096 L 2638,1114 L 2631,1125 L 2629,1127 L 2627,1131 L 2619,1143 L 2617,1150 L 2616,1155 L 2615,1158 L 2613,1172 L 2612,1175 L 2612,1178 L 2613,1183 L 2614,1189 L 2614,1193 L 2617,1206 L 2618,1208 L 2619,1213 L 2624,1221 L 2625,1222 L 2627,1225 L 2629,1228 L 2638,1242 L 2646,1247 L 2648,1248 L 2650,1250 L 2653,1254 L 2654,1256 L 2656,1260 L 2657,1262 L 2658,1267 L 2659,1269 L 2659,1272 L 2659,1384 L 2659,1387 L 2658,1389 L 2657,1394 L 2656,1396 L 2654,1400 L 2653,1402 L 2650,1406 L 2648,1408 L 2646,1409 L 2638,1414 L 2631,1425 L 2629,1427 L 2627,1431 L 2619,1443 L 2617,1450 L 2616,1455 L 2615,1458 L 2613,1472 L 2612,1475 L 2612,1478 L 2613,1483 L 2614,1489 L 2614,1493 L 2617,1506 L 2618,1508 L 2619,1513 L 2624,1521 L 2625,1522 L 2627,1525 L 2629,1528 L 2638,1542 L 2646,1547 L 2648,1548 L 2650,1550 L 2653,1554 L 2654,1556 L 2656,1560 L 2657,1562 L 2658,1567 L 2659,1569 L 2659,1572 L 2659,1684 L 2659,1687 L 2658,1689 L 2657,1694 L 2656,1696 L 2654,1700 L 2653,1702 L 2650,1706 L 2648,1708 L 2646,1709 L 2638,1714 L 2631,1725 L 2629,1727 L 2627,1731 L 2619,1743 L 2617,1750 L 2616,1755 L 2615,1758 L 2613,1772 L 2612,1775 L 2612,1778 L 2613,1783 L 2614,1789 L 2614,1793 L 2617,1806 L 2618,1808 L 2619,1813 L 2624,1821 L 2625,1822 L 2627,1825 L 2629,1828 L 2638,1842 L 2646,1847 L 2648,1848 L 2650,1850 L 2653,1854 L 2654,1856 L 2656,1860 L 2657,1862 L 2658,1867 L 2659,1869 L 2659,1872 L 2659,2075 L 2660,2078 L 2660,2080 L 2660,2084 L 2661,2089 L 2662,2092 L 2663,2093 L 2663,2094 L 2665,2097 L 2667,2101 L 2670,2104 L 2671,2105 L 2671,2106 L 2672,2106 L 2673,2107 L 2676,2110 L 2680,2112 L 2683,2114 L 2684,2114 L 2685,2115 L 2688,2115 L 2692,2116 L 2697,2117 L 2699,2117 L 2702,2118 L 2886,2118 L 2889,2118 L 2891,2118 L 2896,2120 L 2899,2121 L 2903,2123 L 2905,2125 L 2907,2127 L 2992,2211 L 2993,2213 L 2995,2215 L 2997,2218 L 2998,2220 L 2999,2224 L 3000,2226 L 3000,2230 L 3001,2232 L 3000,2236 L 3000,2238 L 2999,2242 L 2998,2244 L 2996,2248 L 2995,2250 L 2992,2253 L 2991,2254 L 2988,2257 L 2986,2258 L 2982,2260 L 2980,2261 L 2976,2262 L 2974,2262 L 2970,2262 L 2968,2262 L 2964,2261 L 2962,2260 L 2960,2260 L 2955,2258 L 2923,2258 L 2894,2270 L 2871,2292 L 2859,2322 L 2859,2349 L 2859,2352 L 2858,2354 L 2857,2359 L 2856,2362 L 2853,2366 L 2852,2368 L 2850,2370 L 2773,2448 L 2771,2450 L 2769,2452 L 2766,2456 L 2764,2461 L 2763,2462 L 2762,2463 L 2762,2464 L 2762,2465 L 2761,2470 L 2760,2475 L 2760,2477 L 2759,2481 L 2759,2568 L 2759,2570 L 2759,2573 L 2758,2577 L 2757,2579 L 2755,2583 L 2754,2585 L 2751,2588 L 2749,2590 L 2746,2593 L 2744,2594 L 2740,2596 L 2738,2597 L 2734,2598 L 2731,2598 L 2729,2598 L 2328,2598 L 2325,2598 L 2323,2597 L 2318,2596 L 2315,2595 L 2311,2592 L 2309,2591 L 2307,2589 L 2243,2525 L 2241,2523 L 2239,2521 L 2237,2517 L 2236,2514 L 2234,2509 L 2234,2507 L 2234,2504 L 2234,2333 L 2233,2330 L 2233,2328 L 2232,2323 L 2231,2318 L 2231,2317 L 2230,2315 L 2230,2315 L 2229,2313 L 2226,2309 L 2223,2305 L 2222,2303 L 2220,2300 L 2032,2112 L 2029,2110 L 2027,2109 L 2023,2106 L 2019,2103 L 2017,2102 L 2016,2102 L 2015,2101 L 2014,2101 L 2009,2100 L 2007,2099 L 2005,2099 L 2004,2099 L 2004,2099 L 2003,2098 L 1999,2097 L 1997,2095 L 1993,2093 L 1992,2091 L 1989,2088 L 1987,2086 L 1985,2082 L 1985,2079 L 1984,2075 L 1983,2073 L 1983,2071 L 1983,2038 L 1981,2028 L 1977,2021 L 1970,2016 L 1967,2015 L 1830,2015 L 1829,2016 L 1822,2020 L 1817,2027 L 1815,2034 L 1815,2036 L 1814,2039 L 1812,2043 L 1811,2045 L 1808,2048 L 1807,2050 L 1803,2053 L 1801,2054 L 1797,2056 L 1795,2057 L 1791,2058 L 1789,2058 L 1786,2058 L 1607,2058 L 1604,2059 L 1602,2059 L 1597,2060 L 1592,2061 L 1590,2061 L 1589,2062 L 1588,2062 L 1587,2063 L 1583,2066 L 1578,2069 L 1577,2070 L 1574,2072 L 1488,2157 L 1486,2159 L 1484,2161 L 1480,2163 L 1477,2164 L 1472,2166 L 1470,2166 L 1467,2166 L 1432,2166 L 1399,2179 L 1375,2204 L 1362,2234 L 1362,2272 L 1375,2303 L 1399,2327 L 1431,2340 L 1466,2341 L 1498,2327 L 1523,2303 L 1536,2271 L 1536,2235 L 1536,2232 L 1537,2230 L 1538,2225 L 1539,2222 L 1542,2218 L 1543,2216 L 1545,2214 L 1612,2147 L 1614,2145 L 1616,2143 L 1620,2141 L 1623,2140 L 1628,2138 L 1630,2138 L 1633,2138 L 1786,2138 L 1789,2138 L 1791,2138 L 1795,2139 L 1797,2140 L 1801,2142 L 1803,2143 L 1807,2146 L 1808,2148 L 1811,2152 L 1812,2154 L 1814,2158 L 1815,2160 L 1815,2162 L 1817,2168 L 1821,2175 L 1828,2180 L 1839,2182 L 1959,2182 L 1969,2180 L 1971,2180 L 1974,2180 L 1978,2180 L 1981,2181 L 1985,2182 L 1988,2183 L 1992,2186 L 1994,2187 L 1995,2189 L 2145,2338 L 2147,2340 L 2149,2342 L 2151,2347 L 2152,2349 L 2153,2354 L 2154,2357 L 2154,2359 L 2154,2530 L 2155,2533 L 2155,2535 L 2155,2539 L 2156,2542 L 2157,2545 L 2157,2548 L 2158,2548 L 2158,2548 L 2158,2549 L 2160,2552 L 2162,2556 L 2165,2559 L 2166,2560 L 2168,2563 L 2269,2664 L 2271,2666 L 2273,2667 L 2277,2670 L 2282,2673 L 2283,2674 L 2284,2674 L 2285,2675 L 2286,2675 L 2291,2676 L 2296,2677 L 2299,2677 L 2302,2678 L 2796,2678 L 2799,2677 L 2801,2677 L 2805,2676 L 2810,2675 L 2813,2674 L 2814,2674 L 2815,2674 L 2818,2672 L 2821,2670 L 2825,2667 L 2826,2666 L 2827,2666 L 2827,2665 L 2828,2664 L 2831,2660 L 2833,2657 L 2835,2654 L 2835,2653 L 2835,2652 L 2836,2649 L 2837,2644 L 2838,2640 L 2838,2638 L 2839,2635 L 2839,2621 L 2840,2615 L 2841,2613 L 2843,2609 L 2844,2607 L 2846,2604 L 2848,2602 L 2851,2599 L 2853,2598 L 2856,2596 L 2858,2595 L 2862,2594 L 2864,2594 L 2869,2593 L 2871,2593 L 2875,2594 L 2877,2595 L 2881,2596 L 2883,2597 L 2886,2599 L 2888,2601 L 2890,2602 L 2893,2606 L 2923,2618 L 2955,2618 L 2977,2609 L 2979,2608 L 2981,2608 L 2985,2607 L 2987,2607 L 2992,2607 L 2994,2607 L 2998,2608 L 3000,2609 L 3004,2611 L 3005,2612 L 3009,2615 L 3010,2617 L 3013,2620 L 3014,2622 L 3016,2626 L 3017,2628 L 3017,2632 L 3018,2634 L 3018,2636 L 3018,2673 L 3018,2674 L 3018,2678 L 3018,2798 L 3018,2802 L 3018,2803 L 3018,2804 L 3017,2807 L 3016,2811 L 3016,2813 L 3014,2817 L 3013,2819 L 3010,2822 L 3008,2824 L 3005,2827 L 3003,2828 L 2999,2830 L 2997,2831 L 2993,2832 L 2990,2832 L 2988,2832 L 2713,2832 L 2710,2833 L 2708,2833 L 2703,2834 L 2698,2835 L 2696,2835 L 2695,2835 L 2694,2836 L 2693,2837 L 2689,2839 L 2684,2842 L 2683,2844 L 2680,2846 L 2653,2873 L 2651,2876 L 2650,2877 L 2647,2882 L 2644,2886 L 2643,2887 L 2643,2888 L 2642,2889 L 2642,2891 L 2641,2896 L 2640,2901 L 2640,2903 L 2640,2904 L 2638,2910 L 2637,2914 L 2636,2916 L 2634,2920 L 2633,2922 L 2630,2926 L 2628,2927 L 2626,2929 L 2618,2934 L 2611,2945 L 2609,2947 L 2607,2951 L 2599,2962 L 2597,2969 L 2596,2974 L 2595,2978 L 2593,2992 L 2592,2994 L 2592,2998 L 2593,3003 L 2594,3009 L 2594,3013 L 2597,3026 L 2598,3028 L 2599,3033 L 2604,3041 L 2605,3042 L 2607,3045 L 2609,3048 L 2618,3061 L 2626,3067 L 2628,3068 L 2630,3070 L 2633,3073 L 2634,3075 L 2636,3080 L 2637,3082 L 2638,3087 L 2639,3089 L 2639,3092 L 2639,3286 L 2639,3289 L 2638,3291 L 2637,3296 L 2636,3299 L 2634,3303 L 2632,3305 L 2630,3307 L 2570,3367 L 2569,3369 L 2567,3370 L 2563,3372 L 2562,3373 L 2558,3375 L 2556,3375 L 2551,3376 L 2549,3376 L 2545,3376 L 2543,3375 L 2539,3374 L 2537,3373 L 2533,3371 L 2532,3370 L 2528,3367 L 2527,3366 L 2524,3362 L 2523,3360 L 2522,3357 L 2521,3355 L 2520,3350 L 2520,3348 L 2520,3346 L 2520,3201 L 2518,3191 L 2513,3184 L 2506,3179 L 2495,3177 L 2422,3177 L 2412,3179 L 2405,3184 L 2401,3190 L 2398,3201 L 2398,3393 L 2400,3403 L 2405,3410 L 2412,3415 L 2423,3417 L 2448,3417 L 2451,3417 L 2453,3418 L 2457,3419 L 2459,3419 L 2463,3421 L 2465,3422 L 2468,3425 L 2469,3426 L 2472,3429 L 2473,3431 L 2475,3435 L 2476,3437 L 2477,3441 L 2478,3443 L 2478,3447 L 2478,3449 L 2477,3453 L 2477,3455 L 2475,3459 L 2474,3461 L 2472,3465 L 2471,3466 L 2469,3468 L 2428,3509 L 2426,3511 L 2424,3512 L 2420,3515 L 2417,3516 L 2412,3517 L 2410,3518 L 2407,3518 L 2349,3518 L 2347,3518 L 2345,3517 L 2341,3516 L 2338,3516 L 2335,3514 L 2333,3513 L 2329,3510 L 2328,3508 L 2325,3505 L 2324,3503 L 2322,3499 L 2321,3497 L 2320,3493 L 2320,3490 L 2320,3488 L 2320,3462 L 2318,3452 L 2313,3445 L 2306,3440 L 2295,3438 L 2222,3438 L 2212,3440 L 2205,3444 L 2201,3451 L 2198,3462 L 2198,3488 L 2198,3490 L 2198,3493 L 2197,3497 L 2196,3499 L 2194,3503 L 2193,3505 L 2190,3508 L 2189,3510 L 2185,3513 L 2183,3514 L 2179,3516 L 2177,3516 L 2173,3517 L 2171,3518 L 2169,3518 L 2104,3518 L 2101,3518 L 2099,3517 L 2094,3516 L 2091,3515 L 2087,3512 L 2085,3511 L 2083,3509 L 1948,3374 L 1946,3372 L 1944,3370 L 1942,3365 L 1941,3363 L 1940,3358 L 1939,3355 L 1939,3353 L 1939,3184 L 1939,3182 L 1939,3180 L 1940,3175 L 1941,3173 L 1943,3169 L 1944,3167 L 1947,3164 L 1949,3162 L 1953,3159 L 1955,3158 L 1959,3156 L 1961,3156 L 1963,3155 L 1969,3154 L 1976,3149 L 1981,3143 L 1983,3132 L 1983,3011 L 1981,3001 L 1977,2994 L 1970,2990 L 1959,2987 L 1839,2987 L 1829,2989 L 1822,2994 L 1817,3001 L 1815,3012 L 1815,3132 L 1817,3142 L 1821,3149 L 1828,3154 L 1835,3155 L 1837,3156 L 1840,3156 L 1844,3158 L 1846,3159 L 1849,3162 L 1851,3164 L 1854,3167 L 1855,3169 L 1857,3173 L 1858,3175 L 1859,3180 L 1859,3182 L 1859,3184 L 1859,3379 L 1860,3382 L 1860,3384 L 1861,3389 L 1862,3394 L 1862,3396 L 1863,3397 L 1863,3398 L 1864,3399 L 1867,3403 L 1870,3407 L 1871,3409 L 1873,3412 L 2045,3584 L 2048,3586 L 2049,3587 L 2053,3590 L 2058,3593 L 2059,3594 L 2060,3594 L 2061,3594 L 2063,3595 L 2067,3596 L 2073,3597 L 2075,3597 L 2078,3598 L 2169,3598 L 2171,3598 L 2173,3598 L 2177,3599 L 2179,3600 L 2183,3602 L 2185,3603 L 2189,3606 L 2190,3607 L 2193,3611 L 2194,3613 L 2196,3617 L 2197,3619 L 2198,3623 L 2198,3625 L 2198,3627 L 2198,3654 L 2200,3664 L 2205,3671 L 2214,3677 L 2216,3679 L 2217,3680 L 2220,3683 L 2221,3685 L 2223,3687 L 2695,3687 L 2697,3684 L 2698,3682 L 2701,3679 L 2703,3678 L 2704,3677 L 2713,3671 L 2717,3665 L 2720,3654 L 2720,3462 L 2718,3452 L 2713,3445 L 2706,3440 L 2695,3438 L 2685,3438 L 2682,3438 L 2680,3437 L 2676,3436 L 2674,3436 L 2670,3434 L 2668,3433 L 2665,3430 L 2664,3429 L 2661,3426 L 2660,3424 L 2658,3420 L 2657,3418 L 2656,3414 L 2655,3412 L 2655,3408 L 2655,3406 L 2656,3402 L 2656,3400 L 2658,3396 L 2659,3394 L 2661,3390 L 2662,3389 L 2664,3387 L 2705,3345 L 2707,3343 L 2708,3341 L 2711,3337 L 2714,3332 L 2715,3331 L 2715,3330 L 2716,3329 L 2716,3328 L 2717,3323 L 2718,3318 L 2718,3315 L 2719,3312 L 2719,3092 L 2719,3089 L 2719,3087 L 2721,3082 L 2721,3080 L 2724,3075 L 2725,3073 L 2728,3070 L 2730,3068 L 2732,3067 L 2740,3061 L 2747,3051 L 2748,3049 L 2751,3045 L 2759,3033 L 2760,3026 L 2762,3021 L 2763,3018 L 2765,3004 L 2765,3001 L 2766,2998 L 2765,2993 L 2764,2987 L 2764,2983 L 2761,2970 L 2760,2968 L 2759,2962 L 2756,2958 L 2755,2956 L 2754,2954 L 2752,2950 L 2752,2948 L 2751,2944 L 2751,2942 L 2751,2938 L 2752,2936 L 2753,2931 L 2754,2929 L 2756,2926 L 2757,2924 L 2760,2921 L 2761,2919 L 2765,2917 L 2766,2916 L 2770,2914 L 2772,2913 L 2776,2912 L 2779,2912 L 2781,2912 L 2807,2912 L 2808,2912 L 2812,2911 L 2946,2911 L 2950,2912 L 2951,2912 L 3021,2912 L 3024,2911 L 3025,2911 L 3028,2911 L 3032,2910 L 3037,2909 L 3038,2908 L 3039,2908 L 3039,2908 L 3041,2907 L 3044,2905 L 3047,2903 L 3050,2901 L 3051,2900 L 3054,2898 L 3084,2868 L 3086,2865 L 3087,2864 L 3090,2860 L 3093,2855 L 3094,2854 L 3094,2853 L 3094,2852 L 3095,2850 L 3096,2846 L 3097,2840 L 3097,2838 L 3098,2835 L 3098,2248 L 3098,2245 L 3098,2243 L 3100,2238 L 3101,2235 L 3103,2231 L 3105,2229 L 3106,2227 L 3222,2112 L 3223,2110 L 3225,2109 L 3228,2107 L 3230,2106 L 3234,2104 L 3236,2104 L 3241,2103 L 3243,2103 L 3247,2103 L 3249,2104 L 3253,2105 L 3255,2106 L 3259,2108 L 3261,2109 L 3264,2112 L 3265,2114 L 3268,2117 L 3269,2119 L 3271,2123 L 3271,2125 L 3272,2127 L 3277,2151 L 3295,2179 L 3307,2187 L 3308,2188 L 3311,2190 L 3314,2192 L 3323,2198 L 3330,2199 L 3340,2202 L 3343,2203 L 3355,2204 L 3359,2205 L 3362,2204 L 3367,2204 L 3370,2203 L 3383,2201 L 3387,2200 L 3388,2199 L 3394,2198 L 3401,2193 L 3403,2193 L 3407,2189 L 3422,2179 L 3441,2151 L 3448,2118 L 3441,2085 L 3422,2057 L 3411,2049 L 3410,2048 L 3407,2046 L 3404,2044 L 3401,2043 L 3400,2041 L 3398,2040 L 3395,2037 L 3394,2035 L 3392,2031 L 3391,2029 L 3389,2025 L 3389,2023 L 3388,2019 L 3388,2017 L 3389,2013 L 3389,2010 L 3391,2006 L 3392,2004 L 3394,2001 L 3395,1999 L 3398,1996 L 3400,1995 L 3401,1994 L 3401,1993 L 3403,1993 L 3407,1989 L 3422,1979 L 3441,1951 L 3448,1918 L 3441,1885 L 3422,1857 L 3411,1849 L 3410,1848 L 3407,1846 L 3404,1844 L 3394,1838 L 3388,1837 L 3378,1834 L 3374,1833 L 3363,1832 L 3359,1831 L 3356,1832 L 3351,1832 L 3348,1833 L 3335,1835 L 3331,1836 L 3330,1837 L 3323,1838 L 3316,1843 L 3315,1843 L 3310,1847 L 3295,1857 L 3277,1885 L 3270,1918 L 3272,1929 L 3273,1932 L 3273,1934 L 3272,1939 L 3272,1941 L 3271,1946 L 3270,1948 L 3267,1952 L 3266,1954 L 3264,1956 L 3078,2142 L 3076,2144 L 3075,2145 L 3071,2147 L 3069,2148 L 3065,2150 L 3062,2150 L 3058,2151 L 3056,2151 L 3052,2150 L 3049,2150 L 3045,2148 L 3043,2147 L 3039,2145 L 3038,2144 L 3036,2142 L 2945,2052 L 2943,2050 L 2941,2049 L 2937,2046 L 2932,2043 L 2931,2042 L 2930,2042 L 2929,2041 L 2928,2041 L 2923,2040 L 2918,2039 L 2916,2039 L 2912,2038 L 2769,2038 L 2766,2038 L 2764,2038 L 2760,2037 L 2758,2036 L 2754,2034 L 2752,2033 L 2748,2030 L 2747,2028 L 2744,2025 L 2743,2023 L 2741,2019 L 2740,2017 L 2739,2013 L 2739,2010 L 2739,2008 L 2739,1872 L 2739,1869 L 2739,1867 L 2741,1862 L 2741,1860 L 2744,1856 L 2745,1854 L 2748,1850 L 2750,1848 L 2752,1847 L 2761,1841 L 2761,1841 L 2765,1837 L 2767,1836 L 2770,1833 L 2772,1832 L 2776,1831 L 2778,1831 L 2782,1830 L 2784,1830 L 2789,1830 L 2791,1831 L 2795,1832 L 2797,1833 L 2800,1835 L 2802,1836 L 2805,1839 L 2807,1841 L 2809,1844 L 2810,1846 L 2812,1851 L 2812,1852 L 2817,1859 L 2824,1864 L 2835,1866 L 2963,1866 L 2973,1864 L 2980,1860 L 2985,1853 L 2988,1839 L 2988,1837 L 2989,1835 L 2991,1831 L 2992,1829 L 2995,1825 L 2997,1824 L 3000,1821 L 3002,1819 L 3006,1818 L 3008,1817 L 3008,1817 L 3009,1817 L 3011,1817 L 3013,1816 L 3018,1815 L 3019,1815 L 3020,1814 L 3021,1814 L 3023,1813 L 3027,1810 L 3031,1807 L 3033,1806 L 3036,1804 L 3110,1730 L 3112,1727 L 3113,1725 L 3116,1721 L 3119,1717 L 3120,1715 L 3120,1714 L 3121,1713 L 3121,1712 L 3122,1707 L 3123,1702 L 3123,1700 L 3124,1696 L 3124,1561 L 3124,1559 L 3124,1557 L 3126,1552 L 3126,1550 L 3129,1545 L 3130,1543 L 3134,1539 L 3137,1537 L 3404,1270 L 3406,1268 L 3408,1266 L 3410,1265 L 3552,1183 L 3560,1176 L 3564,1169 L 3565,1161 L 3561,1150 L 3525,1087 L 3518,1079 L 3510,1075 L 3502,1074 L 3501,1075 L 3499,1075 L 3496,1076 L 3492,1076 L 3490,1076 L 3485,1076 L 3483,1075 L 3479,1074 L 3477,1073 L 3473,1070 L 3472,1069 L 3469,1066 L 3467,1064 L 3465,1060 L 3464,1058 L 3463,1054 L 3462,1052 L 3462,1048 L 3462,1046 L 3462,1041 L 3463,1039 L 3464,1035 L 3465,1033 L 3467,1029 L 3469,1027 L 3470,1026 L 3530,966 L 3532,964 L 3534,963 L 3536,961 L 3672,883 L 3674,882 L 3676,881 L 3680,880 L 3682,880 L 3686,879 L 3689,879 L 3693,880 L 3695,881 L 3699,882 L 3701,883 L 3705,886 L 3707,887 L 3710,891 L 3711,892 L 3712,894 L 3821,1085 L 3822,1087 L 3823,1090 L 3825,1095 L 3825,1097 L 3825,1101 L 3825,1103 L 3824,1107 L 3823,1109 L 3821,1113 L 3820,1115 L 3818,1118 L 3816,1120 L 3813,1123 L 3812,1124 L 3810,1125 L 3651,1217 L 3643,1223 L 3639,1231 L 3639,1239 L 3642,1250 L 3679,1313 L 3686,1321 L 3693,1325 L 3701,1325 L 3712,1322 L 3719,1318 L 3720,1317 L 3722,1316 L 3726,1315 L 3728,1314 L 3732,1314 L 3735,1314 L 3739,1314 L 3741,1315 L 3745,1316 L 3746,1317 L 3750,1319 L 3752,1320 L 3755,1323 L 3756,1325 L 3759,1328 L 3760,1330 L 3761,1333 L 3762,1335 L 3763,1339 L 3763,1341 L 3763,1344 L 3763,1400 L 3763,1402 L 3763,1404 L 3762,1409 L 3761,1411 L 3759,1415 L 3758,1417 L 3755,1420 L 3753,1422 L 3750,1425 L 3748,1426 L 3744,1428 L 3742,1428 L 3737,1429 L 3735,1429 L 3731,1429 L 3728,1429 L 3724,1428 L 3722,1427 L 3720,1426 L 3710,1421 L 3702,1421 L 3691,1424 L 3525,1520 L 3518,1527 L 3514,1534 L 3513,1543 L 3517,1553 L 3522,1562 L 3523,1564 L 3523,1566 L 3525,1570 L 3525,1572 L 3525,1577 L 3525,1579 L 3525,1582 L 3524,1589 L 3523,1591 L 3522,1596 L 3521,1601 L 3521,1603 L 3520,1606 L 3520,2288 L 3520,2290 L 3520,2293 L 3518,2298 L 3517,2300 L 3515,2305 L 3513,2307 L 3511,2309 L 3396,2425 L 3394,2426 L 3392,2428 L 3388,2430 L 3385,2431 L 3381,2433 L 3378,2433 L 3376,2433 L 3374,2433 L 3374,2433 L 3371,2433 L 3369,2432 L 3363,2432 L 3359,2431 L 3356,2431 L 3351,2432 L 3348,2432 L 3335,2435 L 3331,2436 L 3330,2437 L 3323,2438 L 3316,2443 L 3315,2443 L 3310,2446 L 3295,2457 L 3277,2485 L 3272,2506 L 3272,2530 L 3277,2551 L 3296,2580 L 3296,2580 L 3300,2584 L 3301,2585 L 3303,2589 L 3304,2591 L 3306,2595 L 3306,2597 L 3307,2601 L 3307,2603 L 3306,2608 L 3306,2610 L 3305,2614 L 3304,2616 L 3302,2619 L 3300,2621 L 3298,2624 L 3296,2626 L 3293,2628 L 3291,2629 L 3286,2631 L 3285,2631 L 3278,2636 L 3273,2643 L 3272,2646 L 3272,2791 L 3273,2792 L 3277,2799 L 3284,2804 L 3295,2806 L 3423,2806 L 3433,2804 L 3440,2800 L 3445,2793 L 3448,2779 L 3448,2777 L 3449,2775 L 3451,2771 L 3452,2769 L 3455,2765 L 3457,2763 L 3460,2761 L 3462,2759 L 3466,2757 L 3468,2757 L 3468,2757 L 3469,2757 L 3471,2756 L 3473,2756 L 3478,2755 L 3479,2755 L 3480,2754 L 3481,2754 L 3482,2753 L 3487,2750 L 3491,2747 L 3493,2746 L 3495,2744 L 3665,2575 L 3667,2572 L 3668,2570 L 3671,2566 L 3674,2562 L 3675,2560 L 3675,2559 L 3675,2558 L 3676,2557 L 3677,2552 L 3678,2547 L 3678,2545 L 3679,2541 L 3679,1945 L 3679,1943 L 3679,1941 L 3680,1937 L 3681,1935 L 3683,1931 L 3684,1929 L 3686,1925 L 3688,1924 L 3691,1921 L 3693,1920 L 3697,1918 L 3699,1917 L 3703,1916 L 3705,1916 L 3709,1915 L 3712,1916 L 3716,1916 L 3718,1917 L 3722,1919 L 3724,1920 L 3727,1922 L 3729,1923 L 3732,1927 L 3733,1928 L 3734,1930 L 3753,1963 L 3760,1971 L 3767,1975 L 3775,1975 L 3786,1972 L 3952,1876 L 3960,1869 L 3964,1861 L 3965,1853 L 3961,1843 L 3925,1779 L 3918,1772 L 3910,1768 L 3902,1767 L 3891,1771 L 3723,1868 L 3721,1869 L 3719,1870 L 3715,1871 L 3713,1871 L 3708,1872 L 3706,1872 L 3701,1871 L 3699,1870 L 3695,1868 L 3693,1867 L 3689,1864 L 3687,1863 L 3684,1859 L 3683,1857 L 3681,1853 L 3680,1851 L 3679,1847 L 3679,1844 L 3679,1842 L 3679,1727 L 3679,1725 L 3679,1722 L 3681,1717 L 3682,1715 L 3684,1710 L 3686,1708 L 3688,1706 L 3799,1595 L 3800,1594 L 3802,1592 L 3806,1590 L 3808,1589 L 3812,1587 L 3814,1587 L 3819,1586 L 3821,1587 L 3826,1587 L 3828,1588 L 3832,1589 L 3834,1590 L 3838,1593 L 3840,1594 L 3843,1598 L 3844,1599 L 3845,1601 L 3879,1659 L 3886,1667 L 3893,1671 L 3901,1672 L 3912,1668 L 4068,1578 L 4070,1577 L 4072,1576 L 4077,1575 L 4079,1574 L 4083,1574 L 4086,1574 L 4090,1575 L 4092,1575 L 4096,1577 L 4098,1578 L 4102,1580 L 4103,1582 L 4106,1585 L 4108,1587 L 4109,1589 L 4221,1784 L 4222,1786 L 4223,1789 L 4224,1793 L 4224,1796 L 4224,1801 L 4224,1803 L 4223,1808 L 4222,1811 L 4221,1813 L 3192,3716 L 3191,3718 L 3189,3720 L 3187,3723 L 3185,3724 L 3182,3727 L 3180,3728 L 3176,3730 L 3174,3730 L 3170,3731 L 3168,3731 L 3166,3732 L 3027,3732 L 3005,3754 L 3004,3755 L 3001,3757 L 2998,3759 L 2993,3762 L 2990,3763 L 2987,3764 L 2983,3765 L 2979,3765 L 2977,3765M 2645,492 L 2652,497 L 2663,499 L 2736,499 L 2746,497 L 2753,492 L 2757,486 L 2760,475 L 2760,283 L 2758,273 L 2753,266 L 2746,261 L 2735,259 L 2662,259 L 2652,261 L 2645,265 L 2640,272 L 2638,283 L 2638,475 L 2640,485 L 2645,492 z " style="fill-opacity:1.000000;fill:rgb(5,23,88);stroke:rgb(0,0,0);stroke-width:2"/></g>
<g fill-rule="evenodd"><path d="M 2629,1828 L 2627,1825 L 2625,1822 L 2624,1821 L 2618,1810 L 2618,1808 L 2617,1806 L 2614,1793 L 2614,1789 L 2613,1783 L 2612,1776 L 2612,1775 L 2613,1772 L 2615,1758 L 2616,1755 L 2617,1750 L 2620,1742 L 2622,1738 L 2627,1731 L 2629,1727 L 2631,1725 L 2632,1723 L 2641,1714 L 2644,1711 L 2655,1703 L 2659,1701 L 2660,1701 L 2660,1555 L 2651,1550 L 2648,1548 L 2638,1539 L 2635,1536 L 2629,1528 L 2627,1525 L 2625,1522 L 2624,1521 L 2618,1510 L 2618,1508 L 2617,1506 L 2614,1493 L 2614,1489 L 2613,1483 L 2612,1476 L 2612,1475 L 2613,1472 L 2615,1458 L 2616,1455 L 2617,1450 L 2620,1442 L 2622,1438 L 2627,1431 L 2629,1427 L 2631,1425 L 2632,1423 L 2641,1414 L 2644,1411 L 2655,1403 L 2659,1401 L 2660,1401 L 2660,1255 L 2651,1250 L 2648,1248 L 2638,1239 L 2635,1236 L 2629,1228 L 2627,1225 L 2625,1222 L 2624,1221 L 2618,1210 L 2618,1208 L 2617,1206 L 2614,1193 L 2614,1189 L 2613,1183 L 2612,1176 L 2612,1175 L 2613,1172 L 2615,1158 L 2616,1155 L 2617,1150 L 2620,1142 L 2622,1138 L 2627,1131 L 2629,1127 L 2631,1125 L 2632,1124 L 2641,1114 L 2644,1111 L 2655,1103 L 2659,1101 L 2671,1096 L 2675,1095 L 2688,1092 L 2691,1092 L 2698,1091 L 2701,1092 L 2714,1093 L 2718,1094 L 2731,1098 L 2735,1099 L 2747,1106 L 2750,1108 L 2760,1117 L 2763,1120 L 2771,1131 L 2773,1134 L 2779,1146 L 2781,1150 L 2784,1163 L 2785,1167 L 2785,1180 L 2785,1184 L 2783,1198 L 2782,1202 L 2777,1214 L 2776,1218 L 2769,1229 L 2766,1233 L 2757,1242 L 2754,1245 L 2743,1253 L 2739,1255 L 2738,1255 L 2738,1401 L 2747,1406 L 2750,1408 L 2760,1417 L 2763,1420 L 2771,1431 L 2773,1434 L 2779,1446 L 2781,1450 L 2784,1463 L 2785,1467 L 2785,1480 L 2785,1484 L 2783,1498 L 2782,1502 L 2777,1514 L 2776,1518 L 2769,1529 L 2766,1533 L 2757,1542 L 2754,1545 L 2743,1553 L 2739,1555 L 2738,1555 L 2738,1701 L 2747,1706 L 2750,1708 L 2760,1717 L 2763,1720 L 2771,1731 L 2773,1734 L 2779,1746 L 2781,1750 L 2784,1763 L 2785,1767 L 2785,1780 L 2785,1784 L 2783,1798 L 2782,1802 L 2777,1814 L 2776,1818 L 2769,1829 L 2766,1833 L 2757,1842 L 2754,1845 L 2743,1853 L 2739,1855 L 2738,1855 L 2738,2039 L 2915,2039 L 2916,2039 L 2918,2039 L 2923,2040 L 2928,2041 L 2929,2041 L 2931,2042 L 2932,2043 L 2937,2046 L 2941,2049 L 2943,2050 L 2943,2050 L 3057,2164 L 3277,1945 L 3274,1933 L 3273,1929 L 3272,1916 L 3273,1912 L 3275,1898 L 3276,1894 L 3280,1882 L 3282,1878 L 3289,1867 L 3292,1863 L 3301,1854 L 3304,1851 L 3311,1847 L 3315,1843 L 3316,1843 L 3319,1841 L 3330,1837 L 3331,1836 L 3335,1835 L 3348,1833 L 3351,1832 L 3356,1832 L 3358,1831 L 3361,1831 L 3363,1832 L 3374,1833 L 3378,1834 L 3388,1837 L 3391,1838 L 3395,1839 L 3404,1844 L 3407,1846 L 3410,1848 L 3411,1849 L 3420,1857 L 3423,1860 L 3431,1871 L 3433,1874 L 3439,1886 L 3441,1890 L 3444,1903 L 3445,1907 L 3445,1920 L 3445,1924 L 3443,1938 L 3442,1942 L 3437,1954 L 3436,1958 L 3428,1969 L 3426,1972 L 3417,1982 L 3414,1985 L 3407,1989 L 3403,1993 L 3402,1993 L 3399,1995 L 3387,2000 L 3383,2001 L 3370,2004 L 3367,2004 L 3360,2005 L 3357,2004 L 3343,2003 L 3340,2002 L 3332,2000 L 3097,2235 L 3097,2838 L 3097,2838 L 3097,2840 L 3096,2846 L 3095,2850 L 3094,2852 L 3094,2854 L 3093,2855 L 3090,2860 L 3087,2864 L 3086,2865 L 3086,2866 L 3052,2900 L 3051,2900 L 3050,2901 L 3047,2903 L 3044,2905 L 3041,2907 L 3040,2908 L 3038,2909 L 3037,2909 L 3032,2910 L 3028,2911 L 3025,2911 L 3024,2911 L 3024,2911 L 2727,2911 L 2718,2920 L 2718,2921 L 2727,2926 L 2730,2928 L 2740,2937 L 2743,2940 L 2751,2950 L 2753,2954 L 2759,2966 L 2760,2968 L 2761,2970 L 2764,2983 L 2764,2987 L 2765,2993 L 2765,3000 L 2765,3001 L 2765,3004 L 2763,3018 L 2762,3021 L 2760,3026 L 2757,3034 L 2756,3038 L 2751,3045 L 2748,3049 L 2747,3051 L 2746,3052 L 2737,3062 L 2734,3065 L 2723,3073 L 2719,3075 L 2718,3075 L 2718,3315 L 2718,3315 L 2718,3318 L 2717,3323 L 2716,3328 L 2716,3329 L 2715,3331 L 2714,3332 L 2711,3337 L 2708,3341 L 2707,3343 L 2707,3343 L 2477,3573 L 2475,3577 L 2473,3581 L 2470,3584 L 2467,3587 L 2463,3590 L 2460,3592 L 2456,3594 L 2451,3596 L 2447,3597 L 2443,3597 L 2441,3597 L 2318,3597 L 2318,3657 L 2318,3661 L 2316,3665 L 2314,3669 L 2311,3672 L 2307,3674 L 2303,3676 L 2298,3676 L 2220,3676 L 2215,3676 L 2211,3674 L 2207,3672 L 2204,3669 L 2202,3665 L 2200,3661 L 2200,3657 L 2200,3597 L 2075,3597 L 2075,3597 L 2073,3597 L 2067,3596 L 2063,3595 L 2061,3594 L 2059,3594 L 2058,3593 L 2053,3590 L 2049,3587 L 2048,3586 L 2047,3586 L 1871,3410 L 1871,3409 L 1870,3407 L 1867,3403 L 1864,3399 L 1863,3398 L 1862,3396 L 1862,3394 L 1861,3389 L 1860,3384 L 1860,3382 L 1860,3382 L 1860,3154 L 1836,3154 L 1832,3154 L 1827,3152 L 1824,3150 L 1821,3147 L 1818,3143 L 1817,3139 L 1816,3135 L 1816,3009 L 1817,3004 L 1818,3000 L 1821,2996 L 1824,2993 L 1827,2991 L 1832,2989 L 1836,2989 L 1962,2989 L 1966,2989 L 1971,2991 L 1974,2993 L 1977,2996 L 1980,3000 L 1981,3004 L 1982,3009 L 1982,3135 L 1981,3139 L 1980,3143 L 1977,3147 L 1974,3150 L 1971,3152 L 1966,3154 L 1962,3154 L 1938,3154 L 1938,3365 L 2091,3518 L 2200,3518 L 2200,3459 L 2200,3455 L 2202,3450 L 2204,3447 L 2207,3444 L 2211,3441 L 2215,3440 L 2220,3439 L 2298,3439 L 2303,3440 L 2307,3441 L 2311,3444 L 2314,3447 L 2316,3450 L 2318,3455 L 2318,3459 L 2318,3518 L 2420,3518 L 2640,3299 L 2640,3075 L 2631,3070 L 2628,3068 L 2618,3059 L 2615,3056 L 2609,3048 L 2607,3045 L 2605,3042 L 2604,3041 L 2599,3030 L 2598,3028 L 2597,3026 L 2594,3013 L 2594,3009 L 2593,3003 L 2592,2995 L 2592,2995 L 2593,2992 L 2595,2978 L 2596,2974 L 2597,2969 L 2600,2962 L 2602,2958 L 2607,2951 L 2609,2947 L 2611,2945 L 2612,2943 L 2621,2934 L 2624,2931 L 2635,2923 L 2639,2921 L 2640,2921 L 2640,2904 L 2640,2903 L 2640,2901 L 2641,2896 L 2642,2891 L 2642,2889 L 2643,2887 L 2644,2886 L 2647,2882 L 2650,2877 L 2651,2876 L 2651,2875 L 2682,2844 L 2683,2844 L 2684,2842 L 2689,2839 L 2693,2837 L 2694,2836 L 2696,2835 L 2698,2835 L 2703,2834 L 2708,2833 L 2710,2833 L 2710,2833 L 3007,2833 L 3018,2822 L 3018,2577 L 3008,2577 L 3004,2583 L 3002,2586 L 2994,2596 L 2991,2598 L 2980,2606 L 2977,2608 L 2965,2613 L 2961,2614 L 2949,2617 L 2945,2617 L 2933,2617 L 2929,2617 L 2916,2614 L 2912,2613 L 2901,2608 L 2897,2606 L 2887,2598 L 2884,2596 L 2876,2586 L 2873,2583 L 2867,2572 L 2866,2568 L 2862,2556 L 2861,2552 L 2859,2540 L 2859,2536 L 2861,2523 L 2862,2519 L 2866,2507 L 2867,2504 L 2873,2493 L 2876,2490 L 2884,2480 L 2887,2478 L 2897,2470 L 2901,2468 L 2912,2463 L 2916,2462 L 2929,2459 L 2933,2459 L 2945,2459 L 2949,2459 L 2961,2462 L 2965,2463 L 2977,2468 L 2980,2470 L 2991,2478 L 2994,2480 L 3002,2490 L 3004,2493 L 3008,2499 L 3018,2499 L 3018,2237 L 2899,2117 L 2699,2117 L 2699,2117 L 2697,2117 L 2692,2116 L 2688,2115 L 2685,2115 L 2684,2114 L 2683,2114 L 2680,2112 L 2676,2110 L 2673,2107 L 2672,2106 L 2671,2105 L 2670,2104 L 2667,2101 L 2665,2097 L 2663,2094 L 2663,2093 L 2662,2092 L 2661,2089 L 2660,2084 L 2660,2080 L 2660,2078 L 2660,2078 L 2660,1855 L 2651,1850 L 2648,1848 L 2638,1839 L 2635,1836 L 2629,1828 z " style="fill-opacity:1.000000;fill:rgb(233,94,212);stroke:rgb(0,0,0);stroke-width:2"/></g>
<g fill-rule="evenodd"><path d="M 2051,512 L 2192,370 L 2194,369 L 2198,365 L 2203,363 L 2208,361 L 2213,360 L 2218,359 L 2220,359 L 2240,359 L 2240,280 L 2240,276 L 2242,271 L 2244,268 L 2247,265 L 2251,262 L 2255,261 L 2260,260 L 2338,260 L 2343,261 L 2347,262 L 2351,265 L 2354,268 L 2356,271 L 2358,276 L 2358,280 L 2358,478 L 2358,482 L 2356,486 L 2354,490 L 2351,493 L 2347,495 L 2343,497 L 2338,497 L 2260,497 L 2255,497 L 2251,495 L 2247,493 L 2244,490 L 2242,486 L 2240,482 L 2240,478 L 2240,437 L 2237,437 L 2118,556 L 2118,1201 L 2127,1206 L 2130,1208 L 2140,1217 L 2143,1220 L 2151,1231 L 2153,1234 L 2159,1246 L 2161,1250 L 2164,1263 L 2165,1267 L 2165,1280 L 2165,1284 L 2163,1298 L 2162,1302 L 2158,1314 L 2156,1318 L 2149,1329 L 2146,1333 L 2137,1342 L 2134,1345 L 2123,1353 L 2119,1355 L 2107,1360 L 2103,1361 L 2090,1364 L 2087,1364 L 2080,1365 L 2077,1365 L 2064,1363 L 2060,1362 L 2047,1358 L 2043,1357 L 2031,1350 L 2028,1348 L 2018,1339 L 2015,1336 L 2007,1325 L 2005,1322 L 1999,1310 L 1997,1306 L 1994,1293 L 1993,1289 L 1992,1276 L 1993,1272 L 1995,1258 L 1996,1254 L 2000,1242 L 2002,1238 L 2009,1227 L 2012,1224 L 2021,1214 L 2024,1211 L 2035,1203 L 2039,1201 L 2040,1201 L 2040,539 L 2040,537 L 2040,533 L 2041,529 L 2042,525 L 2044,522 L 2045,519 L 2047,516 L 2050,513 L 2051,512 z " style="fill-opacity:1.000000;fill:rgb(171,178,205);stroke:rgb(0,0,0);stroke-width:2"/></g>
<g fill-rule="evenodd"><path d="M 606,1915 L 767,2077 L 769,2079 L 772,2083 L 775,2087 L 777,2092 L 778,2097 L 779,2102 L 779,2104 L 779,2289 L 783,2291 L 787,2293 L 799,2302 L 802,2305 L 812,2316 L 814,2319 L 821,2332 L 823,2336 L 828,2350 L 828,2354 L 830,2368 L 830,2373 L 828,2387 L 828,2391 L 823,2405 L 821,2409 L 814,2422 L 812,2425 L 802,2436 L 799,2439 L 787,2448 L 783,2450 L 769,2456 L 766,2457 L 751,2460 L 747,2461 L 732,2461 L 728,2460 L 714,2457 L 710,2456 L 696,2450 L 693,2448 L 681,2439 L 678,2436 L 668,2425 L 665,2422 L 658,2409 L 656,2405 L 652,2391 L 651,2387 L 649,2373 L 649,2368 L 651,2354 L 652,2350 L 656,2336 L 658,2332 L 665,2319 L 668,2316 L 678,2305 L 681,2302 L 693,2293 L 696,2291 L 700,2289 L 700,2121 L 529,1949 L 384,1866 L 380,1863 L 378,1860 L 376,1856 L 374,1852 L 374,1847 L 375,1843 L 377,1839 L 416,1771 L 419,1767 L 422,1764 L 426,1762 L 430,1761 L 435,1761 L 439,1762 L 443,1763 L 614,1862 L 618,1865 L 621,1868 L 623,1872 L 624,1876 L 624,1881 L 623,1885 L 621,1889 L 606,1915 z " style="fill-opacity:1.000000;fill:rgb(198,155,180);stroke:rgb(0,0,0);stroke-width:2"/></g>
<g fill-rule="evenodd"><path d="M 1573,1545 L 1573,1543 L 1574,1539 L 1574,1535 L 1575,1531 L 1576,1531 L 1576,1529 L 1577,1528 L 1579,1525 L 1581,1522 L 1583,1519 L 1584,1517 L 1584,1517 L 1597,1505 L 1594,1495 L 1594,1493 L 1594,1493 L 1594,1490 L 1594,1489 L 1594,1488 L 1593,1483 L 1593,1476 L 1593,1475 L 1593,1472 L 1595,1458 L 1596,1455 L 1598,1450 L 1600,1442 L 1602,1438 L 1607,1431 L 1609,1427 L 1611,1425 L 1612,1423 L 1621,1414 L 1624,1411 L 1635,1403 L 1639,1401 L 1651,1396 L 1655,1395 L 1668,1392 L 1671,1392 L 1678,1391 L 1681,1392 L 1694,1393 L 1698,1394 L 1711,1398 L 1715,1399 L 1727,1406 L 1730,1408 L 1740,1417 L 1743,1420 L 1751,1431 L 1753,1434 L 1759,1446 L 1761,1450 L 1764,1463 L 1765,1467 L 1766,1480 L 1765,1484 L 1763,1498 L 1762,1502 L 1758,1514 L 1756,1518 L 1749,1529 L 1746,1533 L 1737,1542 L 1734,1545 L 1723,1553 L 1719,1555 L 1707,1560 L 1703,1561 L 1690,1564 L 1687,1564 L 1680,1565 L 1677,1565 L 1664,1563 L 1660,1562 L 1653,1560 L 1651,1561 L 1651,1616 L 1651,1618 L 1651,1623 L 1649,1628 L 1647,1633 L 1645,1637 L 1642,1642 L 1640,1643 L 1250,2033 L 1248,2035 L 1244,2038 L 1239,2041 L 1235,2043 L 1230,2044 L 1225,2045 L 1222,2045 L 1134,2045 L 1132,2045 L 1128,2044 L 1124,2044 L 1121,2043 L 1117,2041 L 1113,2039 L 1109,2037 L 1107,2035 L 1106,2033 L 671,1599 L 670,1597 L 666,1593 L 664,1588 L 662,1584 L 661,1579 L 660,1574 L 660,1571 L 660,1563 L 584,1519 L 580,1517 L 578,1513 L 576,1509 L 574,1505 L 574,1501 L 575,1497 L 577,1492 L 616,1424 L 619,1421 L 622,1418 L 626,1416 L 630,1415 L 635,1414 L 639,1415 L 643,1417 L 814,1516 L 818,1519 L 821,1522 L 823,1526 L 824,1530 L 824,1534 L 823,1539 L 821,1543 L 787,1603 L 1150,1966 L 1206,1966 L 1573,1599 L 1573,1545 L 1573,1545 z " style="fill-opacity:1.000000;fill:rgb(84,17,14);stroke:rgb(0,0,0);stroke-width:2"/></g>
<g fill-rule="evenodd"><path d="M 401,2272 L 400,2270 L 397,2266 L 394,2262 L 393,2261 L 393,2258 L 392,2257 L 391,2252 L 390,2247 L 390,2245 L 390,2245 L 390,2188 L 264,2062 L 264,2061 L 262,2060 L 259,2056 L 257,2051 L 256,2050 L 255,2048 L 255,2046 L 253,2042 L 253,2036 L 252,2034 L 252,2034 L 252,1668 L 181,1597 L 181,1597 L 181,1597 L 180,1595 L 179,1595 L 178,1593 L 177,1592 L 176,1591 L 174,1587 L 172,1582 L 171,1577 L 170,1572 L 170,1570 L 170,1492 L 170,1489 L 171,1484 L 172,1479 L 174,1475 L 176,1470 L 180,1466 L 181,1464 L 252,1393 L 252,1350 L 252,1347 L 253,1342 L 254,1337 L 256,1332 L 259,1328 L 262,1324 L 264,1322 L 370,1216 L 370,1146 L 370,1143 L 371,1138 L 372,1133 L 374,1128 L 376,1124 L 380,1120 L 381,1118 L 455,1044 L 457,1042 L 460,1040 L 463,1038 L 466,1036 L 469,1035 L 473,1034 L 477,1033 L 481,1032 L 483,1032 L 553,1032 L 695,891 L 658,869 L 655,867 L 652,864 L 650,860 L 649,855 L 649,851 L 649,847 L 651,843 L 690,774 L 693,771 L 696,768 L 700,766 L 705,765 L 709,765 L 713,765 L 717,767 L 888,866 L 892,869 L 895,872 L 897,876 L 898,880 L 898,885 L 897,889 L 896,893 L 856,961 L 854,965 L 850,968 L 846,970 L 842,971 L 838,971 L 833,970 L 829,968 L 765,931 L 597,1099 L 595,1101 L 591,1104 L 587,1107 L 582,1109 L 577,1110 L 572,1111 L 570,1111 L 499,1111 L 448,1162 L 448,1210 L 450,1213 L 451,1217 L 452,1221 L 453,1225 L 453,1230 L 452,1234 L 451,1239 L 450,1243 L 448,1247 L 446,1250 L 443,1254 L 441,1255 L 331,1366 L 331,1418 L 331,1420 L 330,1424 L 330,1428 L 328,1432 L 327,1435 L 326,1437 L 325,1439 L 322,1443 L 320,1445 L 319,1447 L 316,1449 L 313,1451 L 310,1453 L 309,1453 L 306,1455 L 302,1456 L 301,1456 L 248,1508 L 248,1553 L 319,1624 L 320,1625 L 322,1628 L 325,1631 L 327,1634 L 328,1639 L 330,1643 L 331,1647 L 331,1651 L 331,1652 L 331,2018 L 457,2144 L 458,2145 L 461,2148 L 463,2152 L 465,2156 L 467,2159 L 468,2163 L 468,2167 L 469,2170 L 469,2172 L 469,2228 L 848,2607 L 849,2609 L 853,2613 L 855,2618 L 857,2622 L 858,2627 L 859,2633 L 859,2635 L 859,2807 L 896,2844 L 973,2844 L 1205,2611 L 1205,2095 L 1205,2092 L 1206,2087 L 1207,2082 L 1209,2078 L 1211,2073 L 1215,2069 L 1216,2067 L 1793,1490 L 1793,1489 L 1793,1476 L 1793,1472 L 1795,1458 L 1796,1454 L 1800,1442 L 1802,1438 L 1809,1427 L 1812,1423 L 1821,1414 L 1824,1411 L 1835,1403 L 1839,1401 L 1851,1396 L 1855,1395 L 1868,1392 L 1871,1392 L 1878,1391 L 1881,1392 L 1894,1393 L 1898,1394 L 1911,1398 L 1915,1399 L 1927,1406 L 1930,1408 L 1940,1417 L 1943,1420 L 1951,1431 L 1953,1434 L 1959,1446 L 1961,1450 L 1964,1463 L 1965,1467 L 1965,1480 L 1965,1484 L 1963,1498 L 1962,1502 L 1958,1514 L 1956,1518 L 1951,1525 L 1949,1529 L 1947,1531 L 1946,1533 L 1937,1542 L 1934,1545 L 1923,1553 L 1919,1555 L 1907,1560 L 1903,1561 L 1890,1564 L 1887,1564 L 1880,1565 L 1877,1565 L 1864,1563 L 1860,1562 L 1847,1558 L 1843,1557 L 1840,1555 L 1284,2111 L 1284,2628 L 1283,2628 L 1283,2630 L 1282,2635 L 1281,2640 L 1281,2642 L 1280,2644 L 1279,2645 L 1277,2649 L 1274,2654 L 1272,2655 L 1272,2656 L 1017,2911 L 1016,2911 L 1015,2912 L 1012,2915 L 1008,2917 L 1005,2919 L 1005,2919 L 1003,2920 L 1001,2920 L 998,2921 L 995,2922 L 991,2922 L 989,2922 L 989,2922 L 879,2922 L 879,2922 L 877,2922 L 872,2921 L 867,2920 L 865,2920 L 863,2919 L 862,2918 L 858,2915 L 853,2912 L 852,2911 L 851,2911 L 792,2852 L 792,2851 L 790,2850 L 787,2845 L 785,2841 L 784,2840 L 783,2838 L 783,2836 L 782,2831 L 781,2826 L 781,2824 L 781,2824 L 781,2651 L 401,2272 L 401,2272 z " style="fill-opacity:1.000000;fill:rgb(130,116,65);stroke:rgb(0,0,0);stroke-width:2"/></g>
<g fill-rule="evenodd"><path d="M 900,2702 L 900,2461 L 869,2461 L 864,2461 L 860,2459 L 856,2457 L 853,2454 L 851,2450 L 850,2446 L 849,2441 L 849,2300 L 850,2295 L 851,2291 L 853,2287 L 856,2284 L 860,2282 L 864,2280 L 869,2280 L 1010,2280 L 1015,2280 L 1019,2282 L 1023,2284 L 1026,2287 L 1028,2291 L 1030,2295 L 1030,2300 L 1030,2441 L 1030,2446 L 1028,2450 L 1026,2454 L 1023,2457 L 1019,2459 L 1015,2461 L 1010,2461 L 979,2461 L 979,2709 L 987,2716 L 990,2719 L 996,2728 L 998,2731 L 1003,2741 L 1005,2745 L 1008,2756 L 1008,2760 L 1009,2771 L 1009,2775 L 1007,2786 L 1006,2790 L 1002,2800 L 1000,2804 L 994,2813 L 992,2816 L 984,2824 L 981,2827 L 972,2833 L 969,2835 L 958,2840 L 955,2841 L 944,2843 L 941,2843 L 935,2844 L 932,2844 L 921,2842 L 917,2842 L 906,2838 L 903,2837 L 893,2831 L 890,2829 L 881,2822 L 879,2819 L 872,2810 L 870,2807 L 865,2797 L 863,2793 L 861,2782 L 860,2778 L 859,2767 L 860,2763 L 861,2752 L 862,2748 L 866,2738 L 868,2734 L 874,2725 L 876,2722 L 884,2714 L 887,2711 L 896,2705 L 900,2703 L 900,2702 z " style="fill-opacity:1.000000;fill:rgb(33,61,220);stroke:rgb(0,0,0);stroke-width:2"/></g>
<g fill-rule="evenodd"><path d="M 2029,2110 L 2029,2110 L 2222,2303 L 2222,2303 L 2223,2305 L 2226,2309 L 2229,2313 L 2230,2315 L 2231,2317 L 2231,2318 L 2232,2323 L 2233,2328 L 2233,2330 L 2233,2331 L 2233,2517 L 2315,2599 L 2760,2599 L 2760,2478 L 2760,2477 L 2760,2475 L 2761,2470 L 2762,2465 L 2762,2464 L 2763,2462 L 2764,2461 L 2766,2456 L 2769,2452 L 2771,2450 L 2771,2450 L 2862,2359 L 2862,2356 L 2861,2352 L 2859,2340 L 2859,2336 L 2861,2323 L 2862,2319 L 2866,2308 L 2867,2304 L 2873,2293 L 2876,2290 L 2884,2280 L 2887,2278 L 2897,2270 L 2901,2268 L 2912,2263 L 2916,2262 L 2929,2259 L 2933,2259 L 2945,2259 L 2949,2259 L 2961,2262 L 2965,2263 L 2977,2268 L 2980,2270 L 2991,2278 L 2994,2280 L 3002,2290 L 3004,2293 L 3011,2304 L 3012,2308 L 3016,2319 L 3017,2323 L 3018,2336 L 3018,2340 L 3017,2352 L 3016,2356 L 3012,2368 L 3011,2372 L 3004,2383 L 3002,2386 L 2994,2396 L 2991,2398 L 2980,2406 L 2977,2408 L 2965,2413 L 2961,2414 L 2949,2417 L 2945,2417 L 2933,2417 L 2929,2417 L 2918,2414 L 2838,2494 L 2838,2638 L 2838,2638 L 2838,2640 L 2837,2644 L 2836,2649 L 2835,2652 L 2835,2653 L 2835,2654 L 2833,2657 L 2831,2660 L 2828,2664 L 2827,2665 L 2826,2666 L 2825,2667 L 2821,2670 L 2818,2672 L 2815,2674 L 2814,2674 L 2813,2674 L 2810,2675 L 2805,2676 L 2801,2677 L 2799,2677 L 2799,2677 L 2299,2677 L 2299,2677 L 2296,2677 L 2291,2676 L 2286,2675 L 2285,2675 L 2283,2674 L 2282,2673 L 2277,2670 L 2273,2667 L 2271,2666 L 2271,2666 L 2166,2561 L 2166,2560 L 2165,2559 L 2162,2556 L 2160,2552 L 2158,2549 L 2158,2549 L 2157,2547 L 2157,2545 L 2156,2542 L 2155,2539 L 2155,2535 L 2155,2533 L 2155,2533 L 2155,2347 L 1985,2177 L 1973,2177 L 1971,2179 L 1966,2180 L 1962,2181 L 1836,2181 L 1832,2180 L 1827,2179 L 1824,2176 L 1821,2173 L 1818,2169 L 1817,2165 L 1816,2161 L 1816,2137 L 1620,2137 L 1531,2227 L 1533,2233 L 1534,2237 L 1535,2251 L 1535,2255 L 1534,2269 L 1533,2273 L 1529,2287 L 1527,2290 L 1520,2302 L 1518,2306 L 1508,2316 L 1505,2319 L 1494,2327 L 1490,2329 L 1478,2335 L 1474,2336 L 1460,2339 L 1456,2339 L 1442,2339 L 1438,2339 L 1424,2336 L 1420,2335 L 1407,2329 L 1404,2327 L 1393,2319 L 1389,2316 L 1380,2306 L 1378,2302 L 1371,2290 L 1369,2287 L 1365,2273 L 1364,2269 L 1362,2255 L 1362,2251 L 1364,2237 L 1365,2233 L 1369,2220 L 1371,2216 L 1378,2204 L 1380,2201 L 1389,2190 L 1393,2188 L 1404,2179 L 1407,2177 L 1420,2172 L 1424,2170 L 1438,2167 L 1442,2167 L 1456,2167 L 1460,2167 L 1474,2170 L 1475,2171 L 1576,2070 L 1577,2070 L 1578,2069 L 1583,2066 L 1587,2063 L 1588,2062 L 1590,2061 L 1592,2061 L 1597,2060 L 1602,2059 L 1604,2059 L 1604,2059 L 1816,2059 L 1816,2035 L 1817,2031 L 1818,2026 L 1821,2023 L 1824,2020 L 1827,2017 L 1832,2016 L 1836,2015 L 1962,2015 L 1966,2016 L 1971,2017 L 1974,2020 L 1977,2023 L 1980,2026 L 1981,2031 L 1982,2035 L 1982,2099 L 2001,2099 L 2004,2099 L 2004,2099 L 2005,2099 L 2007,2099 L 2009,2100 L 2014,2101 L 2015,2101 L 2017,2102 L 2019,2103 L 2023,2106 L 2027,2109 L 2029,2110 z " style="fill-opacity:1.000000;fill:rgb(135,112,233);stroke:rgb(0,0,0);stroke-width:2"/></g>
<g fill-rule="evenodd"><path d="M 249,1549 L 249,1545 L 249,1544 L 249,1539 L 251,1535 L 291,1467 L 291,1466 L 298,1460 L 300,1459 L 305,1458 L 309,1457 L 313,1458 L 317,1460 L 381,1497 L 549,1329 L 551,1327 L 555,1324 L 560,1321 L 565,1319 L 570,1318 L 575,1317 L 577,1317 L 712,1317 L 714,1317 L 719,1318 L 724,1319 L 729,1321 L 733,1324 L 738,1327 L 739,1329 L 833,1423 L 1031,1423 L 1329,1124 L 1331,1123 L 1335,1119 L 1340,1117 L 1345,1115 L 1350,1114 L 1355,1113 L 1357,1113 L 1648,1113 L 1650,1113 L 1655,1114 L 1660,1115 L 1665,1117 L 1670,1119 L 1674,1123 L 1676,1124 L 1707,1156 L 1709,1157 L 1712,1162 L 1714,1166 L 1716,1171 L 1718,1176 L 1718,1181 L 1718,1183 L 1718,1201 L 1727,1206 L 1730,1208 L 1740,1217 L 1743,1220 L 1751,1231 L 1753,1234 L 1759,1246 L 1761,1250 L 1764,1263 L 1765,1267 L 1766,1280 L 1765,1284 L 1763,1298 L 1762,1302 L 1758,1314 L 1756,1318 L 1749,1329 L 1746,1333 L 1737,1342 L 1734,1345 L 1723,1353 L 1719,1355 L 1707,1360 L 1703,1361 L 1690,1364 L 1687,1364 L 1680,1365 L 1677,1365 L 1664,1363 L 1660,1362 L 1647,1358 L 1643,1357 L 1631,1350 L 1628,1348 L 1618,1339 L 1615,1336 L 1609,1328 L 1607,1325 L 1605,1322 L 1604,1321 L 1599,1310 L 1597,1306 L 1594,1293 L 1593,1289 L 1593,1276 L 1593,1272 L 1595,1258 L 1596,1254 L 1600,1242 L 1602,1238 L 1609,1227 L 1612,1224 L 1621,1214 L 1624,1211 L 1635,1203 L 1639,1201 L 1640,1201 L 1640,1200 L 1631,1191 L 1374,1191 L 1075,1490 L 1073,1491 L 1070,1494 L 1067,1496 L 1063,1498 L 1060,1499 L 1057,1500 L 1053,1501 L 1049,1501 L 1047,1502 L 817,1502 L 815,1501 L 810,1501 L 805,1499 L 800,1497 L 795,1495 L 791,1492 L 789,1490 L 695,1396 L 594,1396 L 452,1538 L 489,1559 L 492,1561 L 495,1565 L 497,1569 L 498,1573 L 498,1577 L 497,1582 L 496,1586 L 456,1654 L 454,1657 L 450,1660 L 447,1662 L 442,1663 L 438,1664 L 434,1663 L 429,1661 L 258,1562 L 257,1561 L 251,1555 L 250,1552 L 249,1549 z " style="fill-opacity:1.000000;fill:rgb(62,161,65);stroke:rgb(0,0,0);stroke-width:2"/></g>
<g fill-rule="evenodd"><path d="M 643,1317 L 638,1317 L 634,1316 L 629,1315 L 458,1216 L 455,1213 L 452,1210 L 450,1206 L 449,1203 L 449,1200 L 449,1198 L 449,1195 L 449,1193 L 451,1189 L 490,1121 L 492,1119 L 497,1114 L 500,1112 L 504,1111 L 508,1111 L 509,1111 L 513,1112 L 517,1114 L 623,1175 L 680,1175 L 683,1175 L 688,1176 L 693,1177 L 698,1179 L 702,1181 L 706,1185 L 708,1186 L 821,1299 L 949,1299 L 1249,998 L 1251,997 L 1254,994 L 1257,992 L 1261,990 L 1265,989 L 1269,988 L 1272,987 L 1275,987 L 1277,987 L 1727,987 L 1730,987 L 1735,988 L 1740,989 L 1745,991 L 1749,994 L 1753,997 L 1755,998 L 1907,1150 L 1909,1152 L 1912,1156 L 1914,1161 L 1916,1165 L 1918,1170 L 1918,1175 L 1918,1178 L 1918,1201 L 1927,1206 L 1930,1208 L 1940,1217 L 1943,1220 L 1951,1231 L 1953,1234 L 1959,1246 L 1961,1250 L 1964,1263 L 1965,1267 L 1965,1280 L 1965,1284 L 1963,1298 L 1962,1302 L 1958,1314 L 1956,1318 L 1949,1329 L 1946,1333 L 1937,1342 L 1934,1345 L 1923,1353 L 1919,1355 L 1907,1360 L 1903,1361 L 1890,1364 L 1887,1364 L 1880,1365 L 1877,1365 L 1864,1363 L 1860,1362 L 1847,1358 L 1843,1357 L 1831,1350 L 1828,1348 L 1818,1339 L 1815,1336 L 1807,1325 L 1805,1322 L 1799,1310 L 1797,1306 L 1794,1293 L 1793,1289 L 1793,1276 L 1793,1272 L 1795,1258 L 1796,1254 L 1800,1242 L 1802,1238 L 1809,1227 L 1812,1224 L 1821,1214 L 1824,1211 L 1835,1203 L 1839,1201 L 1840,1201 L 1840,1194 L 1711,1066 L 1293,1066 L 993,1366 L 991,1368 L 987,1371 L 983,1373 L 978,1375 L 973,1377 L 968,1377 L 965,1377 L 804,1377 L 802,1377 L 797,1377 L 792,1375 L 787,1373 L 782,1371 L 778,1368 L 776,1366 L 679,1268 L 656,1307 L 654,1311 L 650,1314 L 646,1316 L 643,1317 z " style="fill-opacity:1.000000;fill:rgb(225,252,103);stroke:rgb(0,0,0);stroke-width:2"/></g>
<g fill-rule="evenodd"><path d="M 1551,1325 L 1549,1329 L 1547,1331 L 1546,1333 L 1537,1342 L 1534,1345 L 1523,1353 L 1519,1355 L 1507,1360 L 1503,1361 L 1490,1364 L 1487,1364 L 1480,1365 L 1477,1365 L 1464,1363 L 1460,1362 L 1447,1358 L 1443,1357 L 1431,1350 L 1428,1348 L 1418,1339 L 1415,1336 L 1407,1325 L 1405,1322 L 1402,1317 L 1401,1317 L 1220,1498 L 1220,1783 L 1222,1784 L 1225,1786 L 1237,1794 L 1240,1797 L 1249,1807 L 1252,1811 L 1259,1823 L 1260,1827 L 1265,1840 L 1265,1844 L 1267,1858 L 1267,1862 L 1265,1876 L 1265,1880 L 1260,1893 L 1259,1897 L 1252,1909 L 1249,1912 L 1240,1923 L 1237,1926 L 1225,1934 L 1222,1936 L 1209,1942 L 1205,1943 L 1192,1946 L 1187,1946 L 1173,1946 L 1169,1946 L 1156,1943 L 1152,1942 L 1139,1936 L 1135,1934 L 1124,1926 L 1121,1923 L 1112,1912 L 1109,1909 L 1102,1897 L 1101,1893 L 1096,1880 L 1095,1876 L 1094,1862 L 1094,1858 L 1095,1844 L 1096,1840 L 1101,1827 L 1102,1823 L 1109,1811 L 1112,1807 L 1121,1797 L 1124,1794 L 1135,1786 L 1139,1784 L 1141,1783 L 1141,1482 L 1141,1480 L 1142,1476 L 1142,1472 L 1144,1468 L 1145,1465 L 1147,1462 L 1149,1459 L 1151,1456 L 1153,1454 L 1357,1250 L 1358,1248 L 1363,1245 L 1367,1243 L 1372,1241 L 1377,1240 L 1382,1239 L 1384,1239 L 1402,1239 L 1402,1238 L 1409,1227 L 1412,1224 L 1421,1214 L 1424,1211 L 1435,1203 L 1439,1201 L 1451,1196 L 1455,1195 L 1468,1192 L 1471,1192 L 1478,1191 L 1481,1192 L 1495,1193 L 1498,1194 L 1511,1198 L 1515,1199 L 1527,1206 L 1530,1208 L 1540,1217 L 1543,1220 L 1551,1231 L 1554,1234 L 1559,1246 L 1561,1250 L 1564,1263 L 1565,1267 L 1566,1280 L 1565,1284 L 1563,1298 L 1562,1302 L 1558,1314 L 1556,1318 L 1551,1325 z " style="fill-opacity:1.000000;fill:rgb(62,1,126);stroke:rgb(0,0,0);stroke-width:2"/></g>
<g fill-rule="evenodd"><path d="M 3311,2446 L 3315,2443 L 3316,2443 L 3319,2441 L 3330,2437 L 3331,2436 L 3335,2435 L 3348,2432 L 3351,2432 L 3356,2431 L 3358,2431 L 3361,2431 L 3363,2432 L 3369,2432 L 3371,2433 L 3374,2433 L 3374,2433 L 3376,2433 L 3378,2434 L 3385,2436 L 3521,2300 L 3521,1604 L 3521,1603 L 3521,1601 L 3522,1596 L 3523,1591 L 3524,1589 L 3525,1586 L 3527,1582 L 3531,1578 L 3532,1576 L 3517,1550 L 3515,1546 L 3514,1542 L 3514,1537 L 3515,1533 L 3517,1529 L 3520,1526 L 3524,1523 L 3695,1424 L 3699,1422 L 3703,1422 L 3708,1422 L 3712,1423 L 3716,1425 L 3719,1428 L 3722,1431 L 3761,1500 L 3763,1504 L 3764,1508 L 3764,1509 L 3763,1513 L 3762,1517 L 3761,1520 L 3755,1525 L 3754,1527 L 3609,1610 L 3599,1620 L 3599,2317 L 3599,2319 L 3599,2324 L 3597,2329 L 3595,2334 L 3593,2338 L 3590,2343 L 3588,2345 L 3441,2491 L 3444,2503 L 3445,2507 L 3445,2520 L 3445,2524 L 3443,2538 L 3442,2542 L 3437,2554 L 3436,2558 L 3428,2569 L 3426,2572 L 3417,2582 L 3414,2585 L 3403,2593 L 3399,2595 L 3387,2600 L 3383,2601 L 3370,2604 L 3367,2604 L 3360,2604 L 3357,2604 L 3343,2603 L 3340,2602 L 3327,2598 L 3323,2597 L 3311,2590 L 3308,2588 L 3298,2579 L 3295,2576 L 3287,2565 L 3284,2562 L 3278,2550 L 3277,2546 L 3274,2533 L 3273,2529 L 3272,2516 L 3273,2512 L 3275,2498 L 3276,2494 L 3280,2482 L 3282,2478 L 3289,2467 L 3292,2463 L 3301,2454 L 3304,2451 L 3311,2446 z " style="fill-opacity:1.000000;fill:rgb(151,234,220);stroke:rgb(0,0,0);stroke-width:2"/></g>
<g fill-rule="evenodd"><path d="M 3678,2545 L 3678,2547 L 3677,2552 L 3676,2557 L 3675,2558 L 3675,2560 L 3674,2562 L 3671,2566 L 3668,2570 L 3667,2572 L 3667,2572 L 3493,2746 L 3493,2746 L 3491,2747 L 3487,2750 L 3482,2753 L 3481,2754 L 3479,2755 L 3478,2755 L 3473,2756 L 3471,2756 L 3469,2757 L 3468,2757 L 3468,2757 L 3465,2757 L 3445,2757 L 3445,2785 L 3445,2789 L 3444,2793 L 3441,2797 L 3438,2800 L 3434,2803 L 3430,2804 L 3426,2804 L 3292,2804 L 3288,2804 L 3283,2803 L 3280,2800 L 3277,2797 L 3274,2793 L 3273,2789 L 3272,2785 L 3272,2651 L 3273,2647 L 3274,2642 L 3277,2639 L 3280,2636 L 3283,2633 L 3288,2632 L 3292,2631 L 3426,2631 L 3430,2632 L 3434,2633 L 3438,2636 L 3441,2639 L 3444,2642 L 3445,2647 L 3445,2651 L 3445,2679 L 3449,2679 L 3599,2528 L 3599,1698 L 3600,1696 L 3600,1691 L 3602,1686 L 3604,1681 L 3606,1676 L 3609,1672 L 3611,1670 L 3764,1518 L 3764,1290 L 3708,1322 L 3704,1324 L 3700,1324 L 3696,1324 L 3691,1323 L 3688,1321 L 3684,1318 L 3682,1315 L 3642,1246 L 3640,1242 L 3640,1238 L 3640,1234 L 3641,1229 L 3643,1226 L 3646,1222 L 3649,1220 L 3821,1121 L 3825,1119 L 3829,1118 L 3833,1118 L 3838,1119 L 3842,1122 L 3845,1124 L 3847,1128 L 3887,1196 L 3889,1200 L 3889,1205 L 3889,1209 L 3888,1213 L 3886,1217 L 3883,1220 L 3880,1223 L 3840,1246 L 3840,1247 L 3842,1252 L 3842,1257 L 3843,1260 L 3843,1534 L 3842,1537 L 3842,1542 L 3840,1547 L 3838,1551 L 3836,1556 L 3833,1560 L 3831,1562 L 3678,1715 L 3678,2544 L 3678,2545 z " style="fill-opacity:1.000000;fill:rgb(107,150,143);stroke:rgb(0,0,0);stroke-width:2"/></g>
<g fill-rule="evenodd"><path d="M 2860,998 L 2860,996 L 2861,990 L 2862,985 L 2862,984 L 2863,982 L 2864,981 L 2866,976 L 2869,972 L 2871,971 L 2871,970 L 3037,804 L 3037,804 L 3039,803 L 3043,800 L 3048,797 L 3049,796 L 3051,795 L 3052,795 L 3057,794 L 3062,793 L 3064,793 L 3065,793 L 3189,793 L 3295,732 L 3299,730 L 3303,729 L 3308,729 L 3312,730 L 3316,732 L 3319,735 L 3322,739 L 3361,807 L 3363,811 L 3364,815 L 3364,820 L 3362,824 L 3360,828 L 3358,831 L 3354,834 L 3183,933 L 3179,934 L 3174,935 L 3170,935 L 3166,934 L 3162,932 L 3159,929 L 3156,925 L 3125,871 L 3081,871 L 2938,1014 L 2938,1091 L 2966,1091 L 2970,1092 L 2974,1093 L 2978,1096 L 2981,1099 L 2984,1103 L 2985,1107 L 2986,1111 L 2986,1245 L 2985,1249 L 2984,1254 L 2981,1257 L 2978,1260 L 2974,1263 L 2970,1264 L 2966,1265 L 2832,1265 L 2828,1264 L 2823,1263 L 2820,1260 L 2817,1257 L 2814,1254 L 2813,1249 L 2812,1245 L 2812,1111 L 2813,1107 L 2814,1103 L 2817,1099 L 2820,1096 L 2823,1093 L 2828,1092 L 2832,1091 L 2860,1091 L 2860,998 L 2860,998 z " style="fill-opacity:1.000000;fill:rgb(56,92,42);stroke:rgb(0,0,0);stroke-width:2"/></g>
<g fill-rule="evenodd"><path d="M 3064,1431 L 3064,1458 L 3064,1461 L 3063,1466 L 3062,1471 L 3060,1476 L 3058,1480 L 3054,1484 L 3053,1486 L 3033,1506 L 3031,1508 L 3027,1511 L 3023,1513 L 3018,1515 L 3013,1517 L 3008,1517 L 3005,1517 L 2986,1517 L 2986,1545 L 2985,1549 L 2984,1553 L 2981,1557 L 2978,1560 L 2974,1563 L 2970,1564 L 2966,1565 L 2832,1565 L 2828,1564 L 2823,1563 L 2820,1560 L 2817,1557 L 2814,1553 L 2813,1549 L 2812,1545 L 2812,1411 L 2813,1407 L 2814,1403 L 2817,1399 L 2820,1396 L 2823,1393 L 2828,1392 L 2832,1391 L 2966,1391 L 2970,1392 L 2974,1393 L 2978,1396 L 2981,1399 L 2984,1403 L 2985,1407 L 2986,1411 L 2986,1439 L 2986,1439 L 2986,1415 L 2986,1412 L 2986,1407 L 2988,1402 L 2990,1397 L 2992,1393 L 2995,1389 L 2997,1387 L 3457,926 L 3442,900 L 3440,896 L 3440,892 L 3440,887 L 3441,883 L 3443,879 L 3446,876 L 3449,873 L 3621,774 L 3625,773 L 3629,772 L 3633,772 L 3638,773 L 3642,775 L 3645,778 L 3647,782 L 3687,850 L 3689,854 L 3689,858 L 3689,863 L 3688,867 L 3686,871 L 3683,874 L 3680,877 L 3535,960 L 3064,1431 z " style="fill-opacity:1.000000;fill:rgb(236,176,59);stroke:rgb(0,0,0);stroke-width:2"/></g>
<g fill-rule="evenodd"><path d="M 3123,1700 L 3123,1702 L 3122,1707 L 3121,1712 L 3121,1713 L 3120,1715 L 3119,1717 L 3116,1721 L 3113,1725 L 3112,1727 L 3112,1727 L 3033,1806 L 3033,1806 L 3031,1807 L 3027,1810 L 3023,1813 L 3021,1814 L 3019,1815 L 3018,1815 L 3013,1816 L 3011,1817 L 3009,1817 L 3008,1817 L 3008,1817 L 3005,1817 L 2986,1817 L 2986,1845 L 2985,1849 L 2984,1853 L 2981,1857 L 2978,1860 L 2974,1863 L 2970,1864 L 2966,1865 L 2832,1865 L 2828,1864 L 2823,1863 L 2820,1860 L 2817,1857 L 2814,1853 L 2813,1849 L 2812,1845 L 2812,1711 L 2813,1707 L 2814,1703 L 2817,1699 L 2820,1696 L 2823,1693 L 2828,1692 L 2832,1691 L 2966,1691 L 2970,1692 L 2974,1693 L 2978,1696 L 2981,1699 L 2984,1703 L 2985,1707 L 2986,1711 L 2986,1739 L 2989,1739 L 3045,1683 L 3045,1511 L 3045,1510 L 3045,1508 L 3045,1504 L 3046,1500 L 3047,1497 L 3048,1496 L 3049,1493 L 3051,1489 L 3053,1487 L 3054,1485 L 3056,1483 L 3059,1480 L 3063,1478 L 3066,1476 L 3070,1474 L 3074,1473 L 3078,1472 L 3082,1471 L 3084,1471 L 3090,1471 L 3332,1230 L 3317,1204 L 3315,1200 L 3314,1195 L 3314,1191 L 3315,1187 L 3317,1183 L 3320,1179 L 3324,1177 L 3495,1078 L 3499,1076 L 3503,1075 L 3508,1075 L 3512,1077 L 3516,1079 L 3519,1082 L 3522,1085 L 3561,1153 L 3563,1157 L 3564,1162 L 3564,1166 L 3562,1170 L 3560,1174 L 3557,1178 L 3554,1180 L 3409,1264 L 3134,1538 L 3133,1540 L 3128,1543 L 3124,1546 L 3123,1546 L 3123,1699 L 3123,1700 z " style="fill-opacity:1.000000;fill:rgb(251,50,175);stroke:rgb(0,0,0);stroke-width:2"/></g>
</svg>
