<?xml version="1.0" standalone="no"?>
<!DOCTYPE svg PUBLIC "-//W3C//DTD SVG 1.1//EN"
"http://www.w3.org/Graphics/SVG/1.1/DTD/svg11.dtd">
<svg width="4054" height="3677" viewBox="0 0 4054 3677" version="1.1"
xmlns="http://www.w3.org/2000/svg"
xmlns:xlink="http://www.w3.org/1999/xlink">
<g fill-rule="evenodd"><path d="M 1177,1331 L 1178,1329 L 1181,1325 L 1184,1321 L 1185,1319 L 1187,1317 L 1190,1314 L 1191,1313 L 1195,1311 L 1197,1310 L 1201,1308 L 1203,1308 L 1208,1308 L 1210,1308 L 1214,1308 L 1216,1308 L 1220,1310 L 1222,1311 L 1226,1313 L 1228,1314 L 1231,1317 L 1232,1319 L 1233,1321 L 1234,1321 L 1234,1322 L 1236,1325 L 1239,1329 L 1247,1342 L 1265,1353 L 1267,1355 L 1268,1356 L 1271,1359 L 1273,1361 L 1275,1365 L 1276,1367 L 1277,1371 L 1278,1373 L 1278,1377 L 1278,1379 L 1278,1383 L 1277,1386 L 1276,1390 L 1275,1392 L 1273,1395 L 1271,1397 L 1268,1400 L 1267,1401 L 1265,1403 L 1247,1415 L 1240,1425 L 1239,1427 L 1236,1431 L 1229,1443 L 1227,1450 L 1226,1455 L 1225,1458 L 1223,1472 L 1222,1475 L 1222,1478 L 1223,1483 L 1223,1489 L 1224,1493 L 1227,1506 L 1227,1508 L 1229,1514 L 1234,1521 L 1234,1522 L 1236,1525 L 1239,1528 L 1247,1542 L 1255,1547 L 1257,1548 L 1259,1550 L 1262,1554 L 1264,1556 L 1266,1560 L 1267,1562 L 1268,1567 L 1268,1569 L 1269,1572 L 1269,1732 L 1268,1734 L 1268,1737 L 1267,1742 L 1266,1744 L 1263,1749 L 1262,1751 L 1260,1753 L 1093,1919 L 1092,1921 L 1090,1922 L 1086,1924 L 1084,1925 L 1080,1927 L 1078,1927 L 1074,1928 L 1072,1928 L 1068,1927 L 1065,1927 L 1061,1926 L 1059,1925 L 1056,1923 L 1054,1921 L 1051,1919 L 1049,1917 L 1047,1913 L 1046,1911 L 1045,1910 L 1033,1882 L 1008,1857 L 1006,1855 L 1005,1853 L 1002,1848 L 1001,1846 L 1000,1841 L 1000,1838 L 999,1836 L 999,1425 L 1000,1422 L 1000,1420 L 1001,1415 L 1002,1412 L 1005,1408 L 1006,1406 L 1008,1404 L 1018,1394 L 1020,1392 L 1022,1390 L 1027,1388 L 1029,1387 L 1035,1385 L 1038,1385 L 1042,1384 L 1044,1384 L 1049,1383 L 1054,1382 L 1056,1382 L 1057,1381 L 1058,1381 L 1059,1380 L 1063,1377 L 1068,1374 L 1070,1373 L 1070,1373 L 1075,1369 L 1078,1367 L 1081,1366 L 1085,1365 L 1088,1365 L 1092,1364 L 1095,1364 L 1097,1365 L 1109,1367 L 1142,1360 L 1170,1342 L 1177,1331 z " style="fill-opacity:1.000000;fill:rgb(103,198,105);stroke:rgb(0,0,0);stroke-width:2"/></g>
<g fill-rule="evenodd"><path d="M 2929,1815 L 2930,1814 L 2931,1814 L 2932,1813 L 2936,1810 L 2940,1807 L 2942,1806 L 2945,1804 L 3213,1536 L 3215,1535 L 3216,1533 L 3220,1531 L 3222,1530 L 3226,1528 L 3228,1528 L 3232,1527 L 3234,1527 L 3238,1528 L 3241,1528 L 3245,1529 L 3247,1530 L 3250,1532 L 3252,1533 L 3255,1536 L 3257,1538 L 3259,1541 L 3260,1543 L 3262,1547 L 3263,1549 L 3264,1553 L 3264,1555 L 3264,1557 L 3264,2473 L 3264,2476 L 3263,2478 L 3262,2483 L 3261,2486 L 3258,2490 L 3257,2492 L 3255,2494 L 3045,2705 L 3043,2706 L 3041,2708 L 3037,2710 L 3035,2711 L 3030,2713 L 3028,2713 L 3025,2713 L 3024,2713 L 3023,2713 L 3021,2713 L 3018,2712 L 3012,2712 L 3008,2711 L 3005,2711 L 3000,2712 L 2998,2712 L 2984,2715 L 2981,2716 L 2979,2717 L 2973,2718 L 2966,2723 L 2965,2723 L 2960,2726 L 2945,2737 L 2926,2765 L 2919,2798 L 2926,2831 L 2945,2860 L 2946,2860 L 2949,2864 L 2951,2865 L 2953,2869 L 2954,2871 L 2955,2875 L 2956,2877 L 2956,2881 L 2956,2883 L 2956,2888 L 2955,2890 L 2954,2894 L 2953,2896 L 2951,2899 L 2950,2901 L 2947,2904 L 2945,2906 L 2942,2908 L 2940,2909 L 2935,2911 L 2934,2911 L 2927,2916 L 2922,2923 L 2920,2934 L 2920,3062 L 2922,3072 L 2926,3079 L 2933,3084 L 2944,3086 L 3072,3086 L 3082,3084 L 3090,3079 L 3094,3073 L 3096,3062 L 3096,2970 L 3097,2968 L 3097,2965 L 3098,2960 L 3099,2958 L 3102,2953 L 3103,2951 L 3105,2949 L 3494,2560 L 3496,2557 L 3498,2556 L 3501,2552 L 3503,2547 L 3504,2546 L 3505,2545 L 3505,2544 L 3505,2542 L 3506,2538 L 3507,2532 L 3507,2530 L 3508,2527 L 3508,1945 L 3508,1943 L 3508,1941 L 3509,1937 L 3510,1935 L 3512,1931 L 3513,1929 L 3516,1925 L 3517,1924 L 3520,1921 L 3522,1920 L 3526,1918 L 3528,1917 L 3532,1916 L 3534,1916 L 3539,1915 L 3541,1916 L 3545,1916 L 3547,1917 L 3551,1919 L 3553,1920 L 3557,1922 L 3558,1923 L 3561,1927 L 3562,1928 L 3564,1930 L 3582,1963 L 3589,1971 L 3597,1975 L 3605,1975 L 3615,1972 L 3782,1876 L 3789,1869 L 3793,1862 L 3794,1853 L 3790,1843 L 3754,1779 L 3747,1772 L 3740,1768 L 3731,1767 L 3721,1771 L 3553,1868 L 3551,1869 L 3548,1870 L 3544,1871 L 3542,1871 L 3537,1872 L 3535,1872 L 3530,1871 L 3528,1870 L 3524,1868 L 3522,1867 L 3518,1864 L 3517,1863 L 3514,1859 L 3512,1857 L 3510,1853 L 3510,1851 L 3509,1847 L 3508,1844 L 3508,1842 L 3508,1589 L 3508,1587 L 3508,1585 L 3509,1581 L 3510,1579 L 3512,1575 L 3513,1573 L 3515,1570 L 3517,1568 L 3520,1566 L 3521,1564 L 3523,1563 L 3582,1529 L 3589,1523 L 3593,1515 L 3594,1507 L 3592,1500 L 3591,1494 L 3591,1492 L 3591,1487 L 3592,1485 L 3593,1481 L 3594,1479 L 3597,1475 L 3598,1473 L 3601,1470 L 3603,1469 L 3607,1467 L 3609,1466 L 3613,1464 L 3615,1464 L 3620,1463 L 3622,1463 L 3626,1464 L 3628,1464 L 3632,1466 L 3634,1467 L 3638,1469 L 3640,1471 L 3642,1472 L 3686,1517 L 3688,1519 L 3691,1522 L 3693,1528 L 3694,1530 L 3695,1534 L 3695,1536 L 3695,1540 L 3695,1542 L 3694,1546 L 3693,1548 L 3691,1552 L 3690,1553 L 3688,1557 L 3686,1559 L 3682,1562 L 3681,1563 L 3672,1570 L 3669,1577 L 3668,1586 L 3672,1596 L 3708,1659 L 3715,1667 L 3722,1671 L 3730,1672 L 3741,1668 L 3898,1578 L 3900,1577 L 3902,1576 L 3906,1575 L 3908,1574 L 3913,1574 L 3915,1574 L 3919,1575 L 3921,1575 L 3925,1577 L 3927,1578 L 3931,1580 L 3933,1582 L 3936,1585 L 3937,1587 L 3938,1589 L 4050,1784 L 4051,1786 L 4052,1788 L 4053,1793 L 4053,1796 L 4053,1801 L 4053,1803 L 4052,1808 L 4051,1811 L 4050,1813 L 3021,3656 L 3020,3658 L 3019,3660 L 3016,3663 L 3015,3664 L 3011,3667 L 3009,3668 L 3006,3669 L 3004,3670 L 3000,3671 L 2998,3671 L 2995,3671 L 2579,3671 L 2576,3671 L 2574,3671 L 2570,3670 L 2568,3669 L 2564,3667 L 2562,3666 L 2559,3663 L 2557,3662 L 2554,3658 L 2553,3657 L 2551,3653 L 2550,3650 L 2549,3646 L 2549,3644 L 2549,3642 L 2549,3462 L 2547,3451 L 2543,3444 L 2536,3440 L 2525,3438 L 2512,3437 L 2506,3436 L 2504,3436 L 2500,3434 L 2498,3433 L 2495,3430 L 2493,3429 L 2490,3426 L 2489,3424 L 2487,3420 L 2486,3418 L 2485,3414 L 2485,3412 L 2484,3408 L 2484,3406 L 2485,3402 L 2486,3399 L 2487,3396 L 2488,3394 L 2490,3390 L 2492,3388 L 2493,3387 L 2535,3345 L 2536,3343 L 2537,3341 L 2540,3338 L 2542,3335 L 2543,3332 L 2545,3330 L 2545,3330 L 2545,3330 L 2545,3329 L 2546,3325 L 2547,3321 L 2547,3317 L 2548,3315 L 2548,3312 L 2548,3091 L 2548,3089 L 2549,3087 L 2550,3082 L 2551,3080 L 2553,3075 L 2555,3073 L 2558,3070 L 2560,3068 L 2562,3067 L 2570,3061 L 2576,3051 L 2578,3049 L 2581,3045 L 2588,3033 L 2590,3026 L 2591,3021 L 2592,3017 L 2594,3004 L 2595,3001 L 2595,2998 L 2594,2993 L 2594,2987 L 2593,2983 L 2590,2970 L 2590,2968 L 2588,2962 L 2583,2955 L 2583,2954 L 2581,2950 L 2578,2947 L 2570,2934 L 2562,2929 L 2560,2927 L 2558,2926 L 2555,2922 L 2553,2920 L 2551,2916 L 2550,2914 L 2549,2909 L 2548,2907 L 2548,2904 L 2548,2308 L 2548,2305 L 2549,2303 L 2550,2299 L 2550,2297 L 2552,2293 L 2554,2291 L 2556,2287 L 2558,2286 L 2561,2283 L 2563,2282 L 2567,2280 L 2569,2279 L 2574,2278 L 2576,2278 L 2578,2278 L 2871,2278 L 2874,2277 L 2876,2277 L 2881,2276 L 2886,2275 L 2888,2275 L 2889,2274 L 2890,2274 L 2891,2273 L 2895,2270 L 2899,2267 L 2901,2266 L 2904,2264 L 2908,2260 L 2913,2257 L 2915,2256 L 2920,2254 L 2922,2254 L 2926,2253 L 2929,2253 L 2933,2254 L 2935,2255 L 2940,2256 L 2942,2257 L 2943,2258 L 2956,2267 L 2957,2268 L 2961,2270 L 2963,2272 L 2966,2273 L 2967,2275 L 2969,2276 L 2972,2279 L 2973,2281 L 2976,2284 L 2977,2286 L 2978,2290 L 2978,2293 L 2979,2297 L 2979,2299 L 2978,2303 L 2978,2305 L 2977,2309 L 2976,2311 L 2973,2315 L 2972,2317 L 2969,2320 L 2967,2321 L 2966,2322 L 2966,2323 L 2965,2323 L 2960,2326 L 2945,2337 L 2926,2365 L 2919,2398 L 2926,2431 L 2945,2459 L 2956,2467 L 2957,2468 L 2961,2470 L 2963,2472 L 2973,2478 L 2980,2479 L 2989,2482 L 2993,2482 L 3004,2484 L 3008,2485 L 3011,2484 L 3016,2484 L 3019,2483 L 3032,2481 L 3036,2480 L 3038,2479 L 3044,2478 L 3051,2473 L 3052,2472 L 3057,2469 L 3072,2459 L 3091,2431 L 3097,2398 L 3091,2365 L 3072,2337 L 3060,2329 L 3059,2328 L 3056,2326 L 3053,2324 L 3051,2323 L 3049,2321 L 3047,2320 L 3044,2317 L 3043,2315 L 3041,2311 L 3040,2309 L 3039,2305 L 3038,2303 L 3038,2299 L 3038,2297 L 3038,2293 L 3039,2290 L 3040,2286 L 3041,2284 L 3043,2281 L 3044,2279 L 3047,2276 L 3049,2275 L 3050,2274 L 3051,2273 L 3052,2273 L 3057,2269 L 3072,2259 L 3091,2231 L 3097,2198 L 3091,2165 L 3072,2137 L 3060,2129 L 3059,2128 L 3056,2126 L 3053,2124 L 3044,2118 L 3037,2117 L 3027,2114 L 3024,2113 L 3012,2112 L 3008,2111 L 3005,2111 L 3000,2112 L 2998,2112 L 2984,2115 L 2981,2116 L 2979,2117 L 2973,2118 L 2966,2123 L 2965,2123 L 2960,2126 L 2945,2137 L 2939,2145 L 2938,2147 L 2936,2149 L 2933,2152 L 2931,2153 L 2926,2155 L 2924,2156 L 2921,2157 L 2914,2159 L 2914,2159 L 2911,2159 L 2906,2160 L 2901,2161 L 2900,2161 L 2898,2162 L 2898,2162 L 2896,2163 L 2892,2166 L 2888,2169 L 2886,2170 L 2883,2172 L 2866,2189 L 2864,2191 L 2862,2193 L 2857,2195 L 2855,2196 L 2850,2197 L 2847,2198 L 2845,2198 L 2537,2198 L 2535,2198 L 2532,2197 L 2527,2196 L 2525,2195 L 2520,2193 L 2518,2191 L 2516,2189 L 2477,2150 L 2476,2148 L 2474,2146 L 2471,2142 L 2470,2139 L 2469,2134 L 2469,2132 L 2469,2129 L 2469,2102 L 2456,2073 L 2437,2053 L 2435,2051 L 2434,2049 L 2431,2045 L 2430,2042 L 2429,2037 L 2429,2035 L 2428,2032 L 2428,2027 L 2429,2024 L 2429,2022 L 2430,2017 L 2431,2014 L 2434,2010 L 2435,2008 L 2437,2006 L 2570,1873 L 2572,1871 L 2574,1870 L 2578,1867 L 2580,1866 L 2585,1865 L 2587,1864 L 2592,1864 L 2594,1864 L 2597,1865 L 2608,1867 L 2641,1860 L 2670,1841 L 2671,1841 L 2674,1837 L 2676,1836 L 2680,1833 L 2681,1832 L 2685,1831 L 2688,1831 L 2692,1830 L 2694,1830 L 2698,1830 L 2700,1831 L 2704,1832 L 2706,1833 L 2710,1835 L 2712,1836 L 2715,1839 L 2716,1841 L 2719,1844 L 2720,1846 L 2721,1851 L 2722,1852 L 2727,1859 L 2733,1864 L 2744,1866 L 2872,1866 L 2883,1864 L 2890,1860 L 2894,1853 L 2897,1839 L 2898,1837 L 2898,1835 L 2900,1831 L 2901,1829 L 2904,1825 L 2906,1824 L 2910,1821 L 2912,1820 L 2916,1818 L 2917,1817 L 2917,1817 L 2918,1817 L 2920,1817 L 2922,1816 L 2927,1815 L 2929,1815 z " style="fill-opacity:1.000000;fill:rgb(115,81,255);stroke:rgb(0,0,0);stroke-width:2"/></g>
<g fill-rule="evenodd"><path d="M 3004,2484 L 2993,2482 L 2989,2482 L 2980,2479 L 2976,2478 L 2972,2477 L 2963,2472 L 2961,2470 L 2957,2468 L 2956,2467 L 2947,2459 L 2944,2456 L 2936,2445 L 2934,2442 L 2928,2430 L 2926,2426 L 2923,2413 L 2922,2409 L 2922,2395 L 2922,2392 L 2924,2378 L 2925,2374 L 2930,2362 L 2931,2358 L 2939,2347 L 2941,2343 L 2950,2334 L 2953,2331 L 2960,2326 L 2965,2323 L 2965,2323 L 2968,2321 L 2980,2316 L 2984,2315 L 2998,2312 L 3000,2312 L 3007,2311 L 3010,2311 L 3024,2313 L 3028,2314 L 3041,2318 L 3044,2319 L 3053,2324 L 3056,2326 L 3059,2328 L 3060,2329 L 3070,2337 L 3072,2340 L 3081,2350 L 3083,2354 L 3089,2366 L 3090,2370 L 3093,2383 L 3094,2387 L 3095,2400 L 3095,2404 L 3092,2418 L 3091,2421 L 3087,2434 L 3085,2438 L 3078,2449 L 3075,2452 L 3066,2462 L 3063,2465 L 3057,2469 L 3052,2472 L 3051,2473 L 3048,2474 L 3038,2479 L 3036,2480 L 3032,2481 L 3019,2483 L 3016,2484 L 3011,2484 L 3009,2484 L 3006,2484 L 3004,2484 z " style="fill-opacity:1.000000;fill:rgb(74,236,41);stroke:rgb(0,0,0);stroke-width:2"/></g>
<g fill-rule="evenodd"><path d="M 3677,1128 L 3716,1196 L 3718,1200 L 3719,1205 L 3719,1209 L 3717,1213 L 3715,1217 L 3712,1221 L 3709,1223 L 3538,1322 L 3534,1324 L 3529,1325 L 3525,1324 L 3521,1323 L 3517,1321 L 3514,1318 L 3511,1315 L 3472,1247 L 3470,1243 L 3469,1238 L 3469,1234 L 3470,1230 L 3472,1226 L 3475,1222 L 3479,1220 L 3650,1121 L 3654,1119 L 3658,1118 L 3663,1118 L 3667,1120 L 3671,1122 L 3674,1125 L 3677,1128 z " style="fill-opacity:1.000000;fill:rgb(205,186,171);stroke:rgb(0,0,0);stroke-width:2"/></g>
<g fill-rule="evenodd"><path d="M 3751,1778 L 3790,1846 L 3792,1850 L 3793,1854 L 3793,1859 L 3792,1863 L 3790,1867 L 3787,1870 L 3783,1873 L 3612,1972 L 3608,1973 L 3604,1974 L 3599,1974 L 3595,1973 L 3591,1971 L 3588,1968 L 3585,1965 L 3546,1896 L 3544,1892 L 3543,1888 L 3543,1884 L 3545,1879 L 3547,1875 L 3549,1872 L 3553,1869 L 3724,1771 L 3728,1769 L 3733,1768 L 3737,1768 L 3741,1769 L 3745,1771 L 3748,1774 L 3751,1778 z " style="fill-opacity:1.000000;fill:rgb(242,251,227);stroke:rgb(0,0,0);stroke-width:2"/></g>
<g fill-rule="evenodd"><path d="M 2528,3676 L 2449,3676 L 2445,3676 L 2440,3674 L 2437,3672 L 2434,3669 L 2431,3665 L 2430,3661 L 2429,3656 L 2429,3459 L 2430,3454 L 2431,3450 L 2434,3447 L 2437,3443 L 2440,3441 L 2445,3440 L 2449,3439 L 2528,3439 L 2532,3440 L 2536,3441 L 2540,3443 L 2543,3447 L 2545,3450 L 2547,3454 L 2547,3459 L 2547,3656 L 2547,3661 L 2545,3665 L 2543,3669 L 2540,3672 L 2536,3674 L 2532,3676 L 2528,3676 z " style="fill-opacity:1.000000;fill:rgb(70,124,194);stroke:rgb(0,0,0);stroke-width:2"/></g>
<g fill-rule="evenodd"><path d="M 2229,3396 L 2229,3198 L 2230,3194 L 2231,3190 L 2234,3186 L 2237,3183 L 2241,3181 L 2245,3179 L 2249,3179 L 2328,3179 L 2332,3179 L 2336,3181 L 2340,3183 L 2343,3186 L 2345,3190 L 2347,3194 L 2347,3198 L 2347,3396 L 2347,3400 L 2345,3404 L 2343,3408 L 2340,3411 L 2336,3414 L 2332,3415 L 2328,3416 L 2249,3416 L 2245,3415 L 2241,3414 L 2237,3411 L 2234,3408 L 2231,3404 L 2230,3400 L 2229,3396 z " style="fill-opacity:1.000000;fill:rgb(84,248,27);stroke:rgb(0,0,0);stroke-width:2"/></g>
<g fill-rule="evenodd"><path d="M 2469,478 L 2469,280 L 2470,276 L 2471,272 L 2474,268 L 2477,265 L 2480,262 L 2485,261 L 2489,260 L 2568,260 L 2572,261 L 2576,262 L 2580,265 L 2583,268 L 2585,272 L 2587,276 L 2587,280 L 2587,478 L 2587,482 L 2585,486 L 2583,490 L 2580,493 L 2576,495 L 2572,497 L 2568,497 L 2489,497 L 2485,497 L 2480,495 L 2477,493 L 2474,490 L 2471,486 L 2470,482 L 2469,478 z " style="fill-opacity:1.000000;fill:rgb(232,231,141);stroke:rgb(0,0,0);stroke-width:2"/></g>
<g fill-rule="evenodd"><path d="M 1669,478 L 1669,280 L 1670,276 L 1671,272 L 1674,268 L 1677,265 L 1681,262 L 1685,261 L 1689,260 L 1768,260 L 1772,261 L 1776,262 L 1780,265 L 1783,268 L 1786,272 L 1787,276 L 1788,280 L 1788,478 L 1787,482 L 1786,486 L 1783,490 L 1780,493 L 1776,495 L 1772,497 L 1768,497 L 1689,497 L 1685,497 L 1681,495 L 1677,493 L 1674,490 L 1671,486 L 1670,482 L 1669,478 z " style="fill-opacity:1.000000;fill:rgb(118,90,46);stroke:rgb(0,0,0);stroke-width:2"/></g>
<g fill-rule="evenodd"><path d="M 1270,478 L 1270,280 L 1270,276 L 1272,272 L 1274,268 L 1277,265 L 1281,262 L 1285,261 L 1289,260 L 1368,260 L 1372,261 L 1377,262 L 1380,265 L 1383,268 L 1386,272 L 1387,276 L 1388,280 L 1388,478 L 1387,482 L 1386,486 L 1383,490 L 1380,493 L 1377,495 L 1372,497 L 1368,497 L 1289,497 L 1285,497 L 1281,495 L 1277,493 L 1274,490 L 1272,486 L 1270,482 L 1270,478 z " style="fill-opacity:1.000000;fill:rgb(99,51,159);stroke:rgb(0,0,0);stroke-width:2"/></g>
<g fill-rule="evenodd"><path d="M 2289,0 L 2368,0 L 2372,0 L 2376,2 L 2380,4 L 2383,7 L 2385,11 L 2387,15 L 2387,20 L 2387,217 L 2387,222 L 2385,226 L 2383,229 L 2380,233 L 2376,235 L 2372,236 L 2368,237 L 2289,237 L 2285,236 L 2280,235 L 2277,233 L 2274,229 L 2271,226 L 2270,222 L 2269,217 L 2269,20 L 2270,15 L 2271,11 L 2274,7 L 2277,4 L 2280,2 L 2285,0 L 2289,0 z " style="fill-opacity:1.000000;fill:rgb(201,154,102);stroke:rgb(0,0,0);stroke-width:2"/></g>
<g fill-rule="evenodd"><path d="M 1889,0 L 1968,0 L 1972,0 L 1976,2 L 1980,4 L 1983,7 L 1986,11 L 1987,15 L 1988,20 L 1988,217 L 1987,222 L 1986,226 L 1983,229 L 1980,233 L 1976,235 L 1972,236 L 1968,237 L 1889,237 L 1885,236 L 1881,235 L 1877,233 L 1874,229 L 1871,226 L 1870,222 L 1869,217 L 1869,20 L 1870,15 L 1871,11 L 1874,7 L 1877,4 L 1881,2 L 1885,0 L 1889,0 z " style="fill-opacity:1.000000;fill:rgb(50,13,183);stroke:rgb(0,0,0);stroke-width:2"/></g>
<g fill-rule="evenodd"><path d="M 1489,0 L 1568,0 L 1572,0 L 1576,2 L 1580,4 L 1583,7 L 1586,11 L 1587,15 L 1588,20 L 1588,217 L 1587,222 L 1586,226 L 1583,229 L 1580,233 L 1576,235 L 1572,236 L 1568,237 L 1489,237 L 1485,236 L 1481,235 L 1477,233 L 1474,229 L 1471,226 L 1470,222 L 1470,217 L 1470,20 L 1470,15 L 1471,11 L 1474,7 L 1477,4 L 1481,2 L 1485,0 L 1489,0 z " style="fill-opacity:1.000000;fill:rgb(49,88,163);stroke:rgb(0,0,0);stroke-width:2"/></g>
<g fill-rule="evenodd"><path d="M 1089,0 L 1168,0 L 1172,0 L 1177,2 L 1180,4 L 1183,7 L 1186,11 L 1187,15 L 1188,20 L 1188,217 L 1187,222 L 1186,226 L 1183,229 L 1180,233 L 1177,235 L 1172,236 L 1168,237 L 1089,237 L 1085,236 L 1081,235 L 1077,233 L 1074,229 L 1072,226 L 1070,222 L 1070,217 L 1070,20 L 1070,15 L 1072,11 L 1074,7 L 1077,4 L 1081,2 L 1085,0 L 1089,0 z " style="fill-opacity:1.000000;fill:rgb(90,37,93);stroke:rgb(0,0,0);stroke-width:2"/></g>
<g fill-rule="evenodd"><path d="M 2128,3676 L 2049,3676 L 2045,3676 L 2041,3674 L 2037,3672 L 2034,3669 L 2031,3665 L 2030,3661 L 2029,3656 L 2029,3597 L 1905,3597 L 1904,3597 L 1902,3597 L 1897,3596 L 1892,3595 L 1891,3594 L 1889,3593 L 1887,3593 L 1883,3590 L 1879,3587 L 1877,3586 L 1877,3585 L 1701,3409 L 1700,3409 L 1699,3407 L 1696,3403 L 1693,3399 L 1693,3398 L 1692,3395 L 1691,3394 L 1690,3389 L 1689,3384 L 1689,3382 L 1689,3382 L 1689,3154 L 1666,3154 L 1661,3154 L 1657,3152 L 1653,3150 L 1650,3147 L 1648,3143 L 1646,3139 L 1646,3134 L 1646,3008 L 1646,3004 L 1648,3000 L 1650,2996 L 1653,2993 L 1657,2991 L 1661,2989 L 1666,2989 L 1792,2989 L 1796,2989 L 1800,2991 L 1804,2993 L 1807,2996 L 1809,3000 L 1811,3004 L 1811,3008 L 1811,3134 L 1811,3139 L 1809,3143 L 1807,3147 L 1804,3150 L 1800,3152 L 1796,3154 L 1792,3154 L 1768,3154 L 1768,3365 L 1921,3518 L 2029,3518 L 2029,3459 L 2030,3454 L 2031,3450 L 2034,3447 L 2037,3443 L 2041,3441 L 2045,3440 L 2049,3439 L 2128,3439 L 2132,3440 L 2136,3441 L 2140,3443 L 2143,3447 L 2146,3450 L 2147,3454 L 2147,3459 L 2147,3518 L 2249,3518 L 2469,3299 L 2469,3075 L 2461,3070 L 2457,3068 L 2447,3059 L 2444,3056 L 2438,3048 L 2436,3045 L 2434,3042 L 2433,3041 L 2428,3030 L 2427,3028 L 2427,3026 L 2424,3013 L 2423,3009 L 2422,3003 L 2422,2995 L 2422,2994 L 2422,2991 L 2425,2978 L 2426,2974 L 2427,2969 L 2430,2961 L 2432,2958 L 2436,2951 L 2439,2946 L 2440,2945 L 2441,2943 L 2451,2933 L 2454,2931 L 2465,2923 L 2468,2921 L 2469,2921 L 2469,2254 L 2409,2194 L 2399,2197 L 2395,2197 L 2382,2197 L 2378,2197 L 2366,2194 L 2362,2193 L 2350,2188 L 2347,2186 L 2337,2178 L 2334,2176 L 2325,2166 L 2323,2163 L 2317,2152 L 2315,2148 L 2311,2136 L 2310,2132 L 2309,2120 L 2309,2116 L 2310,2103 L 2311,2099 L 2315,2088 L 2317,2084 L 2323,2073 L 2325,2070 L 2334,2060 L 2337,2058 L 2347,2050 L 2349,2049 L 2349,1998 L 2349,1998 L 2349,1995 L 2350,1990 L 2351,1985 L 2352,1984 L 2353,1982 L 2353,1981 L 2356,1976 L 2359,1972 L 2360,1970 L 2361,1970 L 2526,1805 L 2524,1795 L 2523,1793 L 2523,1793 L 2523,1790 L 2523,1789 L 2523,1788 L 2522,1783 L 2522,1776 L 2522,1775 L 2522,1772 L 2525,1758 L 2525,1755 L 2527,1750 L 2530,1742 L 2532,1738 L 2536,1731 L 2539,1727 L 2540,1725 L 2541,1723 L 2550,1714 L 2554,1711 L 2565,1703 L 2568,1701 L 2569,1701 L 2569,1555 L 2561,1550 L 2557,1548 L 2547,1539 L 2544,1536 L 2538,1528 L 2536,1525 L 2534,1522 L 2533,1521 L 2528,1510 L 2527,1508 L 2527,1506 L 2524,1493 L 2523,1489 L 2522,1483 L 2522,1476 L 2522,1475 L 2522,1472 L 2525,1458 L 2525,1455 L 2527,1450 L 2530,1442 L 2532,1438 L 2536,1431 L 2539,1427 L 2540,1425 L 2541,1424 L 2550,1414 L 2554,1411 L 2565,1403 L 2568,1401 L 2569,1401 L 2569,1255 L 2561,1250 L 2557,1248 L 2547,1239 L 2544,1236 L 2538,1229 L 2536,1226 L 2534,1222 L 2533,1221 L 2528,1210 L 2527,1208 L 2527,1206 L 2524,1193 L 2523,1189 L 2522,1183 L 2522,1176 L 2522,1175 L 2522,1172 L 2525,1158 L 2525,1155 L 2527,1150 L 2530,1142 L 2532,1138 L 2536,1131 L 2539,1127 L 2540,1125 L 2541,1124 L 2550,1114 L 2554,1111 L 2565,1103 L 2568,1102 L 2581,1096 L 2584,1095 L 2598,1092 L 2601,1092 L 2607,1092 L 2610,1092 L 2624,1093 L 2628,1094 L 2641,1098 L 2644,1099 L 2656,1106 L 2659,1108 L 2670,1117 L 2672,1120 L 2681,1131 L 2683,1134 L 2689,1146 L 2690,1150 L 2694,1163 L 2694,1167 L 2695,1181 L 2695,1185 L 2693,1198 L 2692,1202 L 2687,1214 L 2685,1218 L 2678,1230 L 2676,1233 L 2666,1242 L 2663,1245 L 2652,1253 L 2648,1255 L 2648,1255 L 2648,1401 L 2656,1406 L 2659,1408 L 2670,1417 L 2672,1420 L 2681,1431 L 2683,1434 L 2689,1446 L 2690,1450 L 2694,1463 L 2694,1467 L 2695,1480 L 2695,1484 L 2693,1498 L 2692,1502 L 2687,1514 L 2685,1518 L 2678,1529 L 2676,1533 L 2666,1542 L 2663,1545 L 2652,1553 L 2648,1555 L 2648,1555 L 2648,1701 L 2656,1706 L 2659,1708 L 2670,1717 L 2672,1720 L 2681,1731 L 2683,1734 L 2689,1746 L 2690,1750 L 2694,1763 L 2694,1767 L 2695,1780 L 2695,1784 L 2693,1798 L 2692,1802 L 2687,1814 L 2685,1818 L 2678,1829 L 2676,1833 L 2666,1842 L 2663,1845 L 2652,1853 L 2649,1855 L 2636,1860 L 2632,1861 L 2619,1864 L 2616,1864 L 2609,1865 L 2606,1865 L 2593,1863 L 2589,1862 L 2582,1860 L 2428,2014 L 2428,2049 L 2430,2050 L 2440,2058 L 2443,2060 L 2451,2070 L 2454,2073 L 2460,2084 L 2462,2088 L 2466,2099 L 2466,2103 L 2468,2116 L 2468,2120 L 2466,2132 L 2466,2136 L 2465,2139 L 2525,2199 L 2857,2199 L 2886,2170 L 2886,2170 L 2888,2169 L 2892,2166 L 2896,2163 L 2898,2162 L 2899,2161 L 2901,2161 L 2906,2160 L 2911,2159 L 2914,2159 L 2914,2159 L 2931,2159 L 2931,2158 L 2939,2147 L 2941,2143 L 2950,2134 L 2953,2131 L 2960,2126 L 2965,2123 L 2966,2123 L 2968,2121 L 2979,2117 L 2981,2116 L 2984,2115 L 2998,2112 L 3000,2112 L 3005,2111 L 3007,2111 L 3010,2111 L 3012,2112 L 3024,2113 L 3027,2114 L 3037,2117 L 3041,2118 L 3044,2119 L 3053,2124 L 3056,2126 L 3059,2128 L 3060,2129 L 3070,2137 L 3072,2140 L 3081,2150 L 3083,2154 L 3089,2166 L 3090,2170 L 3093,2183 L 3094,2187 L 3095,2200 L 3095,2204 L 3092,2218 L 3091,2222 L 3087,2234 L 3085,2238 L 3078,2249 L 3075,2252 L 3066,2262 L 3063,2265 L 3057,2269 L 3052,2273 L 3051,2273 L 3048,2275 L 3036,2280 L 3032,2281 L 3019,2284 L 3016,2284 L 3009,2284 L 3006,2284 L 2993,2283 L 2989,2282 L 2976,2278 L 2972,2277 L 2963,2272 L 2961,2270 L 2957,2268 L 2956,2267 L 2947,2259 L 2944,2256 L 2936,2245 L 2934,2242 L 2931,2237 L 2930,2237 L 2901,2266 L 2901,2266 L 2899,2267 L 2895,2270 L 2891,2273 L 2890,2274 L 2888,2275 L 2886,2275 L 2881,2276 L 2876,2277 L 2874,2277 L 2874,2277 L 2548,2277 L 2548,2921 L 2556,2926 L 2559,2928 L 2570,2937 L 2572,2940 L 2578,2947 L 2581,2950 L 2583,2954 L 2583,2955 L 2589,2966 L 2590,2968 L 2590,2970 L 2593,2983 L 2594,2987 L 2594,2993 L 2595,3000 L 2595,3001 L 2594,3004 L 2592,3017 L 2591,3021 L 2590,3026 L 2587,3034 L 2585,3038 L 2581,3044 L 2578,3049 L 2576,3051 L 2576,3052 L 2566,3062 L 2563,3065 L 2552,3072 L 2548,3074 L 2548,3075 L 2548,3315 L 2548,3315 L 2547,3317 L 2547,3321 L 2546,3325 L 2545,3329 L 2545,3329 L 2544,3331 L 2543,3332 L 2542,3335 L 2540,3338 L 2537,3341 L 2536,3342 L 2536,3343 L 2306,3573 L 2304,3577 L 2302,3580 L 2299,3584 L 2296,3587 L 2293,3590 L 2289,3592 L 2285,3594 L 2281,3595 L 2277,3596 L 2272,3597 L 2270,3597 L 2147,3597 L 2147,3656 L 2147,3661 L 2146,3665 L 2143,3669 L 2140,3672 L 2136,3674 L 2132,3676 L 2128,3676 z " style="fill-opacity:1.000000;fill:rgb(5,23,88);stroke:rgb(0,0,0);stroke-width:2"/></g>
<g fill-rule="evenodd"><path d="M 1439,2079 L 1440,2077 L 1441,2077 L 1443,2073 L 1445,2071 L 1446,2070 L 1446,2070 L 1449,2068 L 1452,2065 L 1456,2063 L 1457,2062 L 1459,2061 L 1459,2061 L 1463,2060 L 1467,2059 L 1471,2059 L 1473,2059 L 1473,2059 L 1646,2059 L 1646,2035 L 1646,2031 L 1648,2026 L 1650,2023 L 1653,2020 L 1657,2017 L 1661,2016 L 1666,2015 L 1792,2015 L 1796,2016 L 1800,2017 L 1804,2020 L 1807,2023 L 1809,2026 L 1811,2031 L 1811,2035 L 1811,2059 L 1968,2059 L 1969,2059 L 1971,2059 L 1976,2060 L 1981,2061 L 1982,2061 L 1984,2062 L 1986,2063 L 1990,2066 L 1994,2069 L 1996,2070 L 1996,2070 L 2365,2438 L 2448,2438 L 2453,2439 L 2457,2440 L 2460,2443 L 2464,2446 L 2466,2449 L 2467,2454 L 2468,2458 L 2468,2578 L 2467,2582 L 2466,2586 L 2464,2590 L 2460,2593 L 2457,2595 L 2453,2597 L 2448,2597 L 2329,2597 L 2324,2597 L 2320,2595 L 2316,2593 L 2313,2590 L 2311,2586 L 2309,2582 L 2309,2578 L 2309,2494 L 1952,2137 L 1811,2137 L 1811,2161 L 1811,2165 L 1809,2169 L 1807,2173 L 1804,2176 L 1800,2179 L 1796,2180 L 1792,2181 L 1666,2181 L 1661,2180 L 1657,2179 L 1653,2176 L 1650,2173 L 1648,2169 L 1646,2165 L 1646,2161 L 1646,2137 L 1493,2137 L 1382,2248 L 1384,2255 L 1385,2259 L 1386,2273 L 1386,2277 L 1385,2291 L 1384,2295 L 1380,2308 L 1378,2312 L 1371,2324 L 1369,2327 L 1359,2338 L 1356,2340 L 1345,2349 L 1341,2351 L 1329,2356 L 1325,2358 L 1311,2361 L 1307,2361 L 1293,2361 L 1289,2361 L 1275,2358 L 1271,2356 L 1259,2351 L 1255,2349 L 1244,2340 L 1241,2338 L 1231,2327 L 1229,2324 L 1222,2312 L 1220,2308 L 1216,2295 L 1215,2291 L 1213,2277 L 1213,2273 L 1215,2259 L 1216,2255 L 1220,2241 L 1222,2238 L 1229,2226 L 1231,2222 L 1241,2212 L 1244,2209 L 1255,2201 L 1259,2199 L 1271,2193 L 1275,2192 L 1289,2189 L 1293,2189 L 1307,2189 L 1311,2189 L 1325,2192 L 1327,2192 L 1438,2081 L 1438,2081 L 1439,2079 z " style="fill-opacity:1.000000;fill:rgb(233,94,212);stroke:rgb(0,0,0);stroke-width:2"/></g>
<g fill-rule="evenodd"><path d="M 1181,1325 L 1178,1329 L 1177,1331 L 1176,1333 L 1167,1342 L 1163,1345 L 1152,1353 L 1149,1355 L 1136,1360 L 1133,1361 L 1119,1364 L 1116,1364 L 1110,1365 L 1107,1365 L 1093,1363 L 1089,1362 L 1082,1360 L 1070,1373 L 1070,1373 L 1068,1374 L 1063,1377 L 1059,1380 L 1058,1381 L 1056,1382 L 1054,1382 L 1049,1383 L 1044,1384 L 1042,1384 L 1042,1384 L 1027,1384 L 999,1412 L 999,1855 L 1001,1855 L 1005,1858 L 1016,1866 L 1019,1868 L 1028,1879 L 1031,1882 L 1038,1894 L 1039,1898 L 1044,1911 L 1045,1915 L 1046,1929 L 1046,1933 L 1045,1947 L 1044,1951 L 1039,1965 L 1038,1968 L 1031,1981 L 1028,1984 L 1019,1994 L 1016,1997 L 1005,2005 L 1001,2007 L 988,2013 L 984,2014 L 971,2017 L 966,2018 L 953,2018 L 948,2017 L 935,2014 L 931,2013 L 918,2007 L 914,2005 L 903,1997 L 900,1994 L 891,1984 L 888,1981 L 881,1968 L 880,1965 L 875,1951 L 874,1947 L 873,1933 L 873,1929 L 874,1915 L 875,1911 L 880,1898 L 881,1894 L 888,1882 L 891,1879 L 900,1868 L 903,1866 L 914,1858 L 918,1855 L 920,1855 L 920,1396 L 920,1394 L 921,1388 L 922,1384 L 924,1379 L 927,1374 L 930,1370 L 932,1368 L 983,1317 L 985,1316 L 989,1312 L 993,1310 L 998,1308 L 1003,1307 L 1008,1306 L 1011,1306 L 1025,1306 L 1026,1305 L 1023,1293 L 1023,1289 L 1022,1276 L 1022,1272 L 1024,1258 L 1025,1255 L 1030,1242 L 1032,1238 L 1039,1227 L 1041,1224 L 1051,1214 L 1054,1211 L 1065,1203 L 1068,1202 L 1081,1196 L 1085,1195 L 1098,1192 L 1101,1192 L 1108,1192 L 1111,1192 L 1124,1193 L 1128,1194 L 1141,1198 L 1145,1199 L 1156,1206 L 1160,1208 L 1170,1217 L 1173,1220 L 1181,1231 L 1183,1234 L 1189,1246 L 1190,1250 L 1194,1263 L 1194,1267 L 1195,1281 L 1195,1284 L 1193,1298 L 1192,1302 L 1187,1314 L 1185,1318 L 1181,1325 z " style="fill-opacity:1.000000;fill:rgb(171,178,205);stroke:rgb(0,0,0);stroke-width:2"/></g>
<g fill-rule="evenodd"><path d="M 79,1549 L 78,1545 L 78,1544 L 79,1539 L 81,1535 L 120,1467 L 123,1464 L 126,1461 L 130,1459 L 134,1458 L 139,1457 L 143,1458 L 147,1460 L 318,1559 L 322,1561 L 325,1565 L 327,1569 L 328,1573 L 328,1577 L 327,1582 L 325,1586 L 310,1612 L 741,2043 L 971,2043 L 1269,1744 L 1269,1555 L 1261,1550 L 1258,1548 L 1247,1539 L 1245,1536 L 1239,1528 L 1236,1525 L 1234,1522 L 1234,1521 L 1228,1510 L 1227,1508 L 1227,1506 L 1224,1493 L 1223,1489 L 1223,1483 L 1222,1476 L 1222,1475 L 1223,1472 L 1225,1458 L 1226,1455 L 1227,1450 L 1230,1442 L 1232,1438 L 1236,1431 L 1239,1427 L 1240,1425 L 1241,1424 L 1251,1414 L 1254,1411 L 1265,1403 L 1268,1401 L 1281,1396 L 1285,1395 L 1298,1392 L 1301,1392 L 1308,1392 L 1311,1392 L 1324,1393 L 1328,1394 L 1341,1398 L 1345,1399 L 1356,1406 L 1360,1408 L 1370,1417 L 1373,1420 L 1381,1431 L 1383,1434 L 1389,1446 L 1390,1450 L 1394,1463 L 1394,1467 L 1395,1480 L 1395,1484 L 1393,1498 L 1392,1502 L 1387,1514 L 1385,1518 L 1378,1529 L 1376,1533 L 1366,1542 L 1363,1545 L 1352,1553 L 1349,1555 L 1348,1555 L 1348,1760 L 1348,1763 L 1347,1768 L 1346,1773 L 1344,1778 L 1341,1782 L 1338,1786 L 1336,1788 L 1015,2110 L 1013,2112 L 1009,2115 L 1004,2117 L 1000,2119 L 995,2121 L 990,2121 L 987,2121 L 725,2121 L 723,2121 L 718,2121 L 715,2120 L 712,2119 L 709,2118 L 705,2116 L 702,2114 L 698,2111 L 697,2110 L 233,1646 L 88,1562 L 87,1561 L 81,1555 L 80,1552 L 79,1549 z " style="fill-opacity:1.000000;fill:rgb(198,155,180);stroke:rgb(0,0,0);stroke-width:2"/></g>
<g fill-rule="evenodd"><path d="M 730,2702 L 730,2461 L 698,2461 L 694,2461 L 690,2459 L 686,2457 L 683,2454 L 681,2450 L 679,2446 L 679,2441 L 679,2300 L 679,2295 L 681,2291 L 683,2287 L 686,2284 L 690,2282 L 694,2280 L 698,2280 L 840,2280 L 844,2280 L 849,2282 L 852,2284 L 855,2287 L 858,2291 L 859,2295 L 860,2300 L 860,2441 L 859,2446 L 858,2450 L 855,2454 L 852,2457 L 849,2459 L 844,2461 L 840,2461 L 809,2461 L 809,2709 L 816,2716 L 819,2719 L 826,2728 L 828,2731 L 833,2741 L 834,2745 L 837,2756 L 838,2759 L 838,2771 L 838,2775 L 836,2786 L 835,2789 L 832,2800 L 830,2803 L 824,2813 L 822,2816 L 814,2824 L 811,2827 L 802,2833 L 798,2835 L 788,2839 L 784,2841 L 773,2843 L 770,2843 L 765,2844 L 762,2844 L 751,2842 L 747,2842 L 736,2838 L 732,2837 L 723,2831 L 719,2829 L 711,2822 L 708,2819 L 701,2810 L 699,2807 L 694,2797 L 693,2793 L 690,2782 L 690,2778 L 689,2767 L 689,2763 L 691,2752 L 692,2748 L 696,2738 L 698,2734 L 703,2725 L 706,2722 L 714,2713 L 717,2711 L 726,2704 L 729,2703 L 730,2702 z " style="fill-opacity:1.000000;fill:rgb(84,17,14);stroke:rgb(0,0,0);stroke-width:2"/></g>
<g fill-rule="evenodd"><path d="M 436,1915 L 597,2077 L 599,2079 L 602,2083 L 604,2087 L 606,2092 L 608,2097 L 608,2102 L 609,2104 L 609,2289 L 613,2291 L 616,2293 L 628,2302 L 631,2305 L 641,2316 L 644,2319 L 651,2332 L 653,2336 L 657,2350 L 658,2354 L 660,2368 L 660,2373 L 658,2387 L 657,2391 L 653,2405 L 651,2409 L 644,2422 L 641,2425 L 631,2436 L 628,2439 L 616,2448 L 613,2450 L 599,2456 L 595,2457 L 581,2460 L 577,2461 L 562,2461 L 558,2460 L 543,2457 L 539,2456 L 526,2450 L 522,2448 L 510,2439 L 507,2436 L 497,2425 L 495,2422 L 487,2409 L 486,2405 L 481,2391 L 480,2387 L 479,2373 L 479,2368 L 480,2354 L 481,2350 L 486,2336 L 487,2332 L 495,2319 L 497,2316 L 507,2305 L 510,2302 L 522,2293 L 526,2291 L 530,2289 L 530,2121 L 358,1949 L 214,1866 L 210,1863 L 207,1860 L 205,1856 L 204,1852 L 204,1847 L 205,1843 L 207,1839 L 246,1771 L 249,1767 L 252,1764 L 256,1762 L 260,1761 L 264,1761 L 269,1762 L 273,1763 L 444,1862 L 447,1865 L 450,1868 L 452,1872 L 454,1876 L 454,1881 L 453,1885 L 451,1889 L 436,1915 z " style="fill-opacity:1.000000;fill:rgb(130,116,65);stroke:rgb(0,0,0);stroke-width:2"/></g>
<g fill-rule="evenodd"><path d="M 2070,1372 L 2071,1371 L 2074,1366 L 2077,1362 L 2078,1361 L 2078,1360 L 2078,1359 L 2079,1357 L 2080,1352 L 2081,1347 L 2081,1345 L 2082,1342 L 2082,758 L 2082,756 L 2082,753 L 2084,748 L 2085,746 L 2087,741 L 2089,739 L 2091,737 L 2250,578 L 2251,575 L 2253,574 L 2256,569 L 2258,565 L 2259,564 L 2260,563 L 2260,562 L 2260,560 L 2262,555 L 2262,550 L 2263,548 L 2263,545 L 2264,540 L 2264,538 L 2264,538 L 2264,537 L 2265,533 L 2266,528 L 2266,525 L 2267,522 L 2267,268 L 2267,266 L 2267,264 L 2268,259 L 2269,257 L 2271,253 L 2272,251 L 2275,248 L 2276,246 L 2280,244 L 2282,242 L 2286,241 L 2288,240 L 2292,239 L 2294,239 L 2297,238 L 2365,238 L 2375,237 L 2382,232 L 2387,225 L 2389,214 L 2389,34 L 2389,32 L 2389,30 L 2390,26 L 2391,23 L 2393,19 L 2394,18 L 2397,14 L 2399,13 L 2402,10 L 2404,9 L 2408,7 L 2410,6 L 2414,5 L 2417,5 L 2419,5 L 3016,5 L 3018,5 L 3020,5 L 3024,6 L 3026,6 L 3030,8 L 3032,9 L 3035,12 L 3036,13 L 3039,16 L 3040,18 L 3042,20 L 3452,737 L 3453,740 L 3454,743 L 3455,748 L 3456,750 L 3456,754 L 3455,756 L 3455,760 L 3454,762 L 3452,766 L 3451,768 L 3449,771 L 3447,773 L 3444,776 L 3443,777 L 3441,778 L 3280,871 L 3273,877 L 3269,885 L 3268,893 L 3272,904 L 3275,910 L 3277,915 L 3277,918 L 3278,922 L 3278,924 L 3277,928 L 3277,930 L 3275,934 L 3274,936 L 3272,940 L 3271,942 L 3269,943 L 2947,1265 L 2946,1267 L 2944,1268 L 2940,1270 L 2938,1271 L 2935,1273 L 2932,1273 L 2928,1274 L 2926,1274 L 2922,1274 L 2920,1273 L 2916,1272 L 2914,1271 L 2910,1269 L 2908,1268 L 2905,1265 L 2904,1264 L 2901,1260 L 2900,1258 L 2898,1255 L 2898,1253 L 2897,1248 L 2897,1246 L 2896,1244 L 2896,1114 L 2895,1104 L 2890,1096 L 2888,1095 L 2883,1091 L 2882,1089 L 2880,1085 L 2879,1083 L 2878,1079 L 2877,1077 L 2877,1073 L 2877,1071 L 2877,1066 L 2878,1064 L 2879,1060 L 2880,1058 L 2883,1054 L 2884,1053 L 2886,1051 L 2993,943 L 2995,942 L 2997,940 L 3001,938 L 3003,937 L 3005,936 L 3016,933 L 3182,837 L 3190,830 L 3193,823 L 3194,814 L 3190,804 L 3154,740 L 3147,733 L 3140,729 L 3132,728 L 3121,732 L 2955,828 L 2947,834 L 2943,842 L 2942,850 L 2944,856 L 2945,858 L 2945,860 L 2946,864 L 2946,867 L 2945,871 L 2945,873 L 2943,877 L 2942,879 L 2940,883 L 2939,885 L 2937,886 L 2782,1042 L 2780,1044 L 2779,1046 L 2776,1050 L 2773,1055 L 2773,1056 L 2772,1057 L 2772,1058 L 2771,1059 L 2770,1064 L 2770,1066 L 2769,1068 L 2769,1069 L 2769,1069 L 2769,1071 L 2767,1075 L 2765,1077 L 2763,1081 L 2761,1082 L 2757,1085 L 2755,1086 L 2751,1088 L 2749,1089 L 2746,1090 L 2734,1092 L 2727,1096 L 2722,1104 L 2722,1105 L 2720,1111 L 2719,1112 L 2716,1116 L 2715,1117 L 2711,1120 L 2710,1121 L 2706,1123 L 2704,1124 L 2700,1126 L 2698,1126 L 2694,1126 L 2692,1126 L 2688,1126 L 2685,1125 L 2682,1124 L 2680,1123 L 2676,1121 L 2674,1119 L 2671,1116 L 2670,1115 L 2641,1096 L 2608,1089 L 2575,1096 L 2547,1115 L 2540,1125 L 2539,1127 L 2536,1131 L 2528,1143 L 2527,1150 L 2525,1155 L 2525,1158 L 2522,1172 L 2522,1175 L 2521,1178 L 2522,1183 L 2523,1189 L 2524,1193 L 2527,1206 L 2527,1208 L 2528,1214 L 2533,1221 L 2534,1222 L 2536,1226 L 2538,1229 L 2547,1242 L 2555,1247 L 2557,1249 L 2559,1250 L 2562,1254 L 2564,1256 L 2566,1260 L 2567,1262 L 2568,1267 L 2568,1269 L 2568,1272 L 2568,1384 L 2568,1387 L 2568,1389 L 2567,1394 L 2566,1396 L 2564,1400 L 2562,1402 L 2559,1406 L 2557,1408 L 2555,1409 L 2547,1415 L 2540,1425 L 2539,1427 L 2536,1431 L 2528,1443 L 2527,1450 L 2525,1455 L 2525,1458 L 2522,1472 L 2522,1475 L 2521,1478 L 2522,1483 L 2523,1489 L 2524,1493 L 2527,1506 L 2527,1508 L 2528,1514 L 2533,1521 L 2534,1522 L 2536,1525 L 2538,1528 L 2547,1542 L 2555,1547 L 2557,1548 L 2559,1550 L 2562,1554 L 2564,1556 L 2566,1560 L 2567,1562 L 2568,1567 L 2568,1569 L 2568,1572 L 2568,1684 L 2568,1687 L 2568,1689 L 2567,1694 L 2566,1696 L 2564,1700 L 2562,1702 L 2559,1706 L 2557,1708 L 2555,1709 L 2547,1714 L 2540,1725 L 2539,1727 L 2536,1731 L 2528,1743 L 2527,1750 L 2525,1755 L 2525,1758 L 2522,1772 L 2522,1775 L 2521,1778 L 2522,1783 L 2523,1788 L 2523,1789 L 2523,1790 L 2523,1793 L 2523,1793 L 2524,1795 L 2523,1798 L 2523,1800 L 2522,1805 L 2521,1807 L 2518,1811 L 2517,1813 L 2515,1815 L 2362,1968 L 2360,1970 L 2359,1972 L 2356,1976 L 2353,1981 L 2353,1982 L 2352,1983 L 2352,1984 L 2351,1985 L 2350,1990 L 2349,1995 L 2349,1998 L 2348,2001 L 2348,2032 L 2348,2035 L 2348,2037 L 2347,2042 L 2346,2045 L 2343,2049 L 2341,2051 L 2340,2053 L 2320,2072 L 2308,2102 L 2308,2134 L 2320,2163 L 2343,2186 L 2372,2198 L 2400,2198 L 2402,2198 L 2405,2199 L 2410,2200 L 2412,2201 L 2417,2203 L 2419,2205 L 2421,2207 L 2460,2246 L 2461,2248 L 2463,2250 L 2466,2254 L 2467,2257 L 2468,2262 L 2468,2264 L 2468,2267 L 2468,2407 L 2468,2409 L 2468,2411 L 2467,2416 L 2466,2418 L 2464,2422 L 2463,2424 L 2460,2427 L 2459,2429 L 2455,2432 L 2453,2433 L 2450,2435 L 2447,2435 L 2443,2436 L 2441,2437 L 2439,2437 L 2376,2437 L 2374,2437 L 2371,2436 L 2366,2435 L 2364,2434 L 2359,2431 L 2357,2430 L 2355,2428 L 1999,2072 L 1996,2070 L 1994,2069 L 1990,2066 L 1986,2063 L 1984,2062 L 1984,2062 L 1982,2061 L 1981,2061 L 1976,2060 L 1971,2059 L 1969,2059 L 1966,2058 L 1841,2058 L 1839,2058 L 1837,2058 L 1832,2057 L 1830,2056 L 1826,2054 L 1824,2052 L 1821,2050 L 1819,2048 L 1816,2044 L 1815,2042 L 1813,2038 L 1813,2036 L 1812,2034 L 1811,2028 L 1806,2021 L 1800,2016 L 1789,2014 L 1668,2014 L 1658,2016 L 1651,2020 L 1646,2027 L 1645,2034 L 1644,2036 L 1644,2039 L 1642,2043 L 1641,2045 L 1638,2048 L 1636,2050 L 1633,2053 L 1631,2054 L 1627,2056 L 1625,2057 L 1620,2058 L 1618,2058 L 1616,2058 L 1476,2058 L 1473,2059 L 1471,2059 L 1467,2059 L 1463,2060 L 1459,2061 L 1459,2061 L 1458,2062 L 1458,2062 L 1456,2063 L 1452,2065 L 1449,2068 L 1446,2070 L 1445,2070 L 1445,2071 L 1443,2073 L 1441,2077 L 1440,2077 L 1439,2079 L 1438,2080 L 1339,2179 L 1337,2181 L 1335,2182 L 1331,2185 L 1328,2186 L 1323,2187 L 1321,2187 L 1318,2188 L 1283,2188 L 1252,2200 L 1225,2227 L 1213,2257 L 1213,2292 L 1226,2324 L 1251,2349 L 1283,2362 L 1317,2362 L 1349,2349 L 1374,2324 L 1387,2292 L 1387,2256 L 1387,2254 L 1388,2251 L 1389,2246 L 1390,2244 L 1393,2239 L 1394,2237 L 1396,2235 L 1485,2147 L 1487,2145 L 1489,2143 L 1493,2141 L 1496,2140 L 1501,2138 L 1503,2138 L 1506,2138 L 1616,2138 L 1618,2138 L 1620,2138 L 1625,2139 L 1627,2140 L 1631,2142 L 1633,2143 L 1636,2146 L 1638,2148 L 1641,2152 L 1642,2154 L 1644,2158 L 1644,2160 L 1645,2162 L 1646,2168 L 1651,2175 L 1657,2180 L 1669,2182 L 1789,2182 L 1799,2180 L 1806,2176 L 1811,2169 L 1812,2162 L 1813,2160 L 1813,2157 L 1815,2153 L 1816,2151 L 1819,2148 L 1821,2146 L 1824,2143 L 1826,2142 L 1830,2140 L 1832,2139 L 1837,2138 L 1839,2138 L 1841,2138 L 1940,2138 L 1942,2138 L 1945,2138 L 1950,2140 L 1952,2141 L 1957,2143 L 1959,2145 L 1961,2147 L 2299,2485 L 2300,2487 L 2302,2489 L 2304,2493 L 2305,2495 L 2307,2500 L 2307,2503 L 2307,2506 L 2307,2575 L 2309,2585 L 2314,2592 L 2321,2597 L 2332,2599 L 2439,2599 L 2441,2599 L 2443,2599 L 2447,2600 L 2450,2601 L 2453,2603 L 2455,2604 L 2459,2607 L 2460,2608 L 2463,2612 L 2464,2614 L 2466,2618 L 2467,2620 L 2468,2624 L 2468,2626 L 2468,2629 L 2468,2904 L 2468,2907 L 2468,2909 L 2467,2914 L 2466,2916 L 2464,2920 L 2462,2922 L 2459,2926 L 2457,2927 L 2455,2929 L 2447,2934 L 2440,2944 L 2439,2946 L 2436,2951 L 2428,2962 L 2427,2969 L 2426,2974 L 2425,2978 L 2422,2991 L 2422,2994 L 2421,2998 L 2422,3003 L 2423,3009 L 2424,3013 L 2427,3026 L 2427,3028 L 2428,3033 L 2433,3041 L 2434,3042 L 2436,3045 L 2438,3048 L 2447,3061 L 2455,3067 L 2457,3068 L 2459,3070 L 2462,3073 L 2464,3075 L 2466,3080 L 2467,3082 L 2468,3087 L 2468,3089 L 2468,3091 L 2468,3286 L 2468,3289 L 2468,3291 L 2467,3296 L 2466,3299 L 2463,3303 L 2461,3305 L 2460,3307 L 2400,3367 L 2398,3368 L 2396,3370 L 2393,3372 L 2391,3373 L 2387,3374 L 2385,3375 L 2381,3376 L 2379,3376 L 2375,3375 L 2372,3375 L 2368,3374 L 2366,3373 L 2363,3371 L 2361,3370 L 2358,3367 L 2356,3365 L 2354,3362 L 2353,3360 L 2351,3356 L 2350,3354 L 2349,3350 L 2349,3348 L 2349,3346 L 2349,3201 L 2347,3191 L 2343,3184 L 2336,3179 L 2325,3177 L 2252,3177 L 2242,3179 L 2235,3183 L 2230,3190 L 2228,3201 L 2228,3393 L 2230,3403 L 2234,3410 L 2241,3415 L 2252,3417 L 2278,3417 L 2280,3417 L 2282,3417 L 2286,3418 L 2288,3419 L 2292,3421 L 2294,3422 L 2297,3424 L 2299,3426 L 2302,3429 L 2303,3431 L 2305,3434 L 2306,3436 L 2307,3440 L 2307,3443 L 2308,3447 L 2307,3449 L 2307,3453 L 2306,3455 L 2305,3459 L 2304,3461 L 2302,3465 L 2300,3466 L 2299,3468 L 2258,3509 L 2256,3511 L 2254,3512 L 2249,3515 L 2247,3516 L 2242,3517 L 2239,3517 L 2237,3518 L 2179,3518 L 2177,3518 L 2174,3517 L 2170,3516 L 2168,3516 L 2164,3514 L 2162,3512 L 2159,3510 L 2157,3508 L 2154,3505 L 2153,3503 L 2151,3499 L 2150,3497 L 2149,3492 L 2149,3490 L 2149,3488 L 2149,3462 L 2147,3451 L 2143,3444 L 2136,3440 L 2125,3438 L 2052,3438 L 2042,3439 L 2035,3444 L 2030,3451 L 2028,3462 L 2028,3488 L 2028,3490 L 2027,3492 L 2026,3497 L 2026,3499 L 2024,3503 L 2023,3505 L 2020,3508 L 2018,3510 L 2015,3512 L 2013,3514 L 2009,3516 L 2007,3516 L 2003,3517 L 2000,3518 L 1998,3518 L 1933,3518 L 1931,3517 L 1928,3517 L 1923,3516 L 1921,3515 L 1917,3512 L 1914,3511 L 1913,3509 L 1777,3374 L 1776,3372 L 1774,3370 L 1771,3365 L 1770,3363 L 1769,3358 L 1769,3355 L 1769,3353 L 1769,3184 L 1769,3182 L 1769,3180 L 1770,3175 L 1771,3173 L 1773,3169 L 1774,3167 L 1777,3164 L 1779,3162 L 1782,3159 L 1784,3158 L 1788,3156 L 1791,3155 L 1793,3155 L 1799,3154 L 1806,3149 L 1811,3142 L 1813,3131 L 1813,3011 L 1811,3001 L 1806,2994 L 1800,2989 L 1789,2987 L 1668,2987 L 1658,2989 L 1651,2994 L 1646,3000 L 1644,3011 L 1644,3132 L 1646,3142 L 1651,3149 L 1657,3153 L 1665,3155 L 1667,3156 L 1669,3156 L 1673,3158 L 1675,3159 L 1679,3162 L 1680,3164 L 1683,3167 L 1684,3169 L 1686,3173 L 1687,3175 L 1688,3180 L 1688,3182 L 1689,3184 L 1689,3379 L 1689,3382 L 1689,3384 L 1690,3389 L 1691,3394 L 1692,3395 L 1692,3397 L 1693,3398 L 1693,3399 L 1696,3403 L 1699,3407 L 1700,3409 L 1702,3412 L 1874,3584 L 1877,3586 L 1879,3587 L 1883,3590 L 1887,3593 L 1889,3593 L 1890,3594 L 1891,3594 L 1892,3595 L 1897,3596 L 1902,3597 L 1904,3597 L 1908,3598 L 1998,3598 L 2000,3598 L 2003,3598 L 2007,3599 L 2009,3600 L 2013,3602 L 2015,3603 L 2018,3606 L 2020,3607 L 2023,3611 L 2024,3612 L 2026,3616 L 2026,3619 L 2027,3623 L 2028,3625 L 2028,3627 L 2028,3642 L 2028,3644 L 2027,3646 L 2026,3650 L 2026,3653 L 2024,3657 L 2023,3658 L 2020,3662 L 2018,3663 L 2015,3666 L 2013,3667 L 2009,3669 L 2007,3670 L 2003,3671 L 2000,3671 L 1998,3671 L 1081,3671 L 1078,3671 L 1076,3671 L 1071,3670 L 1068,3669 L 1064,3666 L 1062,3664 L 1058,3661 L 1057,3659 L 1055,3657 L 645,2955 L 644,2953 L 643,2950 L 642,2946 L 641,2944 L 641,2940 L 641,2937 L 642,2933 L 642,2931 L 644,2927 L 645,2925 L 647,2921 L 649,2920 L 652,2917 L 654,2915 L 658,2913 L 660,2912 L 664,2911 L 666,2910 L 670,2910 L 673,2910 L 677,2911 L 679,2911 L 683,2913 L 684,2913 L 685,2914 L 687,2915 L 687,2915 L 692,2918 L 693,2919 L 694,2919 L 695,2920 L 696,2920 L 701,2921 L 706,2922 L 708,2922 L 712,2923 L 816,2923 L 819,2922 L 821,2922 L 826,2921 L 831,2920 L 832,2920 L 834,2919 L 835,2919 L 836,2918 L 840,2915 L 844,2912 L 846,2911 L 849,2909 L 1100,2658 L 1102,2655 L 1103,2654 L 1105,2651 L 1107,2648 L 1109,2645 L 1110,2643 L 1110,2643 L 1110,2642 L 1110,2642 L 1111,2638 L 1112,2634 L 1113,2630 L 1113,2628 L 1114,2625 L 1114,2314 L 1113,2310 L 1113,2308 L 1113,2244 L 1113,2241 L 1114,2235 L 1116,2229 L 1118,2226 L 1120,2222 L 1123,2218 L 1125,2216 L 1274,2067 L 1274,2067 L 1275,2065 L 1278,2061 L 1281,2057 L 1281,2056 L 1282,2055 L 1282,2054 L 1283,2052 L 1284,2047 L 1285,2042 L 1285,2040 L 1286,2037 L 1286,1964 L 1286,1961 L 1286,1958 L 1287,1953 L 1288,1951 L 1291,1947 L 1293,1945 L 1294,1943 L 1535,1702 L 1537,1699 L 1538,1698 L 1541,1693 L 1544,1689 L 1544,1688 L 1545,1687 L 1545,1686 L 1546,1684 L 1547,1679 L 1548,1674 L 1548,1672 L 1549,1669 L 1549,1572 L 1549,1569 L 1549,1567 L 1550,1562 L 1551,1560 L 1553,1556 L 1555,1554 L 1558,1550 L 1560,1548 L 1562,1547 L 1570,1542 L 1577,1531 L 1578,1529 L 1581,1525 L 1584,1521 L 1585,1519 L 1587,1517 L 1590,1514 L 1591,1513 L 1595,1511 L 1597,1510 L 1601,1508 L 1603,1508 L 1607,1507 L 1610,1507 L 1614,1508 L 1616,1508 L 1620,1510 L 1622,1511 L 1626,1513 L 1627,1514 L 1631,1517 L 1632,1519 L 1633,1521 L 1634,1521 L 1634,1522 L 1636,1525 L 1638,1528 L 1647,1542 L 1675,1560 L 1709,1567 L 1742,1560 L 1770,1542 L 1776,1532 L 1777,1531 L 1778,1529 L 1778,1529 L 1778,1529 L 1780,1527 L 1783,1524 L 1785,1523 L 1790,1521 L 1792,1520 L 1797,1519 L 1799,1518 L 1801,1518 L 1906,1518 L 1909,1517 L 1911,1517 L 1916,1516 L 1921,1515 L 1922,1515 L 1924,1514 L 1925,1514 L 1926,1513 L 1930,1510 L 1934,1507 L 1936,1506 L 1939,1504 L 2068,1375 L 2070,1372M 2589,475 L 2589,283 L 2587,273 L 2583,266 L 2576,261 L 2565,259 L 2492,259 L 2482,261 L 2475,265 L 2470,272 L 2468,283 L 2468,475 L 2470,485 L 2474,492 L 2481,497 L 2492,499 L 2565,499 L 2575,497 L 2582,493 L 2587,486 L 2589,475 z " style="fill-opacity:1.000000;fill:rgb(33,61,220);stroke:rgb(0,0,0);stroke-width:2"/></g>
<g fill-rule="evenodd"><path d="M 810,1267 L 807,1270 L 806,1271 L 802,1273 L 798,1274 L 793,1274 L 789,1274 L 785,1272 L 614,1173 L 610,1170 L 607,1167 L 605,1163 L 604,1159 L 604,1155 L 605,1150 L 606,1146 L 646,1078 L 648,1074 L 652,1072 L 656,1070 L 660,1068 L 664,1068 L 669,1069 L 673,1071 L 737,1108 L 1012,832 L 1014,831 L 1017,828 L 1020,826 L 1024,824 L 1028,823 L 1032,821 L 1036,821 L 1039,821 L 1040,821 L 1460,821 L 1991,290 L 1991,233 L 1991,231 L 1991,227 L 1992,223 L 1993,219 L 1995,215 L 1997,212 L 1999,209 L 2001,206 L 2002,205 L 2014,193 L 2016,192 L 2020,188 L 2024,186 L 2029,184 L 2034,183 L 2039,182 L 2042,182 L 2215,182 L 2218,182 L 2223,183 L 2228,184 L 2232,186 L 2237,188 L 2241,192 L 2243,193 L 2255,205 L 2256,207 L 2259,211 L 2262,216 L 2264,220 L 2265,225 L 2266,230 L 2266,233 L 2266,525 L 2266,525 L 2266,528 L 2265,533 L 2264,537 L 2264,538 L 2264,538 L 2263,541 L 2263,548 L 2263,548 L 2262,550 L 2262,555 L 2260,560 L 2260,562 L 2259,564 L 2258,565 L 2256,569 L 2253,574 L 2251,575 L 2251,576 L 2081,746 L 2081,1345 L 2081,1345 L 2081,1347 L 2080,1352 L 2079,1357 L 2078,1359 L 2078,1361 L 2077,1362 L 2074,1366 L 2071,1371 L 2070,1372 L 2070,1373 L 1936,1506 L 1936,1506 L 1934,1507 L 1930,1510 L 1926,1513 L 1924,1514 L 1922,1515 L 1921,1515 L 1916,1516 L 1911,1517 L 1909,1517 L 1908,1517 L 1786,1517 L 1785,1518 L 1778,1529 L 1778,1529 L 1778,1529 L 1778,1530 L 1776,1533 L 1766,1542 L 1763,1545 L 1752,1553 L 1749,1555 L 1736,1560 L 1733,1561 L 1719,1564 L 1716,1564 L 1710,1565 L 1707,1565 L 1693,1563 L 1689,1562 L 1676,1558 L 1673,1557 L 1661,1550 L 1657,1548 L 1647,1539 L 1644,1536 L 1638,1528 L 1636,1525 L 1634,1522 L 1634,1521 L 1628,1510 L 1627,1506 L 1623,1493 L 1623,1489 L 1622,1476 L 1622,1472 L 1624,1458 L 1625,1454 L 1630,1442 L 1632,1438 L 1639,1427 L 1641,1424 L 1651,1414 L 1654,1411 L 1665,1403 L 1668,1401 L 1681,1396 L 1685,1395 L 1698,1392 L 1701,1392 L 1708,1392 L 1711,1392 L 1724,1393 L 1728,1394 L 1741,1398 L 1744,1399 L 1756,1406 L 1760,1408 L 1770,1417 L 1773,1420 L 1781,1431 L 1783,1434 L 1785,1439 L 1892,1439 L 2002,1328 L 2002,729 L 2003,727 L 2003,722 L 2005,717 L 2007,712 L 2009,708 L 2012,703 L 2014,702 L 2184,531 L 2184,525 L 2185,520 L 2186,516 L 2187,513 L 2187,260 L 2069,260 L 2069,307 L 2069,309 L 2069,314 L 2067,319 L 2065,324 L 2063,328 L 2060,333 L 2058,334 L 1505,888 L 1503,889 L 1499,893 L 1494,895 L 1489,897 L 1484,898 L 1479,899 L 1477,899 L 1056,899 L 807,1149 L 844,1170 L 847,1172 L 850,1176 L 852,1179 L 853,1184 L 854,1188 L 853,1192 L 851,1196 L 812,1265 L 810,1267 z " style="fill-opacity:1.000000;fill:rgb(135,112,233);stroke:rgb(0,0,0);stroke-width:2"/></g>
<g fill-rule="evenodd"><path d="M 0,1570 L 0,1485 L 0,1483 L 0,1480 L 0,1476 L 1,1472 L 3,1469 L 5,1465 L 7,1461 L 10,1458 L 11,1457 L 199,1268 L 199,1146 L 200,1143 L 200,1138 L 202,1133 L 204,1128 L 206,1124 L 209,1120 L 211,1118 L 478,850 L 479,847 L 481,843 L 520,775 L 523,771 L 526,768 L 530,766 L 534,765 L 539,765 L 543,766 L 547,767 L 718,866 L 722,869 L 725,872 L 727,876 L 728,880 L 728,885 L 727,889 L 725,893 L 686,961 L 683,965 L 680,968 L 676,970 L 672,971 L 667,971 L 663,970 L 659,968 L 553,907 L 533,907 L 278,1162 L 278,1285 L 278,1287 L 277,1292 L 276,1297 L 274,1302 L 271,1306 L 268,1311 L 267,1312 L 78,1501 L 78,1553 L 149,1624 L 151,1626 L 154,1630 L 157,1635 L 159,1640 L 160,1645 L 161,1650 L 161,1652 L 161,2018 L 287,2144 L 289,2146 L 292,2150 L 294,2154 L 296,2159 L 298,2164 L 298,2169 L 298,2172 L 298,2228 L 677,2607 L 679,2609 L 682,2613 L 685,2618 L 687,2622 L 688,2627 L 689,2632 L 689,2635 L 689,2807 L 725,2844 L 802,2844 L 1034,2611 L 1034,2212 L 1035,2209 L 1035,2204 L 1037,2199 L 1039,2194 L 1041,2190 L 1044,2186 L 1046,2184 L 1206,2023 L 1206,1935 L 1206,1933 L 1207,1930 L 1207,1927 L 1208,1923 L 1210,1918 L 1212,1914 L 1215,1910 L 1217,1908 L 1218,1907 L 1336,1788 L 1469,1655 L 1469,1555 L 1461,1550 L 1458,1548 L 1447,1539 L 1445,1536 L 1436,1526 L 1434,1522 L 1428,1510 L 1427,1506 L 1423,1493 L 1423,1489 L 1422,1476 L 1422,1472 L 1424,1458 L 1425,1454 L 1430,1442 L 1432,1438 L 1439,1427 L 1441,1424 L 1451,1414 L 1454,1411 L 1465,1403 L 1468,1401 L 1481,1396 L 1485,1395 L 1498,1392 L 1501,1392 L 1508,1392 L 1511,1392 L 1524,1393 L 1528,1394 L 1541,1398 L 1545,1399 L 1556,1406 L 1560,1408 L 1570,1417 L 1573,1420 L 1581,1431 L 1583,1434 L 1589,1446 L 1590,1450 L 1594,1463 L 1594,1467 L 1595,1480 L 1595,1484 L 1593,1498 L 1592,1502 L 1587,1514 L 1585,1518 L 1581,1525 L 1578,1529 L 1577,1531 L 1576,1533 L 1566,1542 L 1563,1545 L 1552,1553 L 1549,1555 L 1548,1555 L 1548,1672 L 1548,1672 L 1548,1674 L 1547,1679 L 1546,1684 L 1545,1686 L 1544,1688 L 1544,1689 L 1541,1693 L 1538,1698 L 1537,1699 L 1536,1700 L 1285,1951 L 1285,2040 L 1285,2040 L 1285,2042 L 1284,2047 L 1283,2052 L 1282,2054 L 1281,2056 L 1281,2057 L 1278,2061 L 1275,2065 L 1274,2067 L 1273,2068 L 1113,2228 L 1113,2628 L 1113,2628 L 1113,2630 L 1112,2634 L 1111,2638 L 1110,2642 L 1110,2642 L 1110,2644 L 1109,2645 L 1107,2648 L 1105,2651 L 1103,2654 L 1102,2655 L 1102,2656 L 846,2911 L 846,2911 L 844,2912 L 840,2915 L 836,2918 L 834,2919 L 832,2920 L 831,2920 L 826,2921 L 821,2922 L 819,2922 L 818,2922 L 709,2922 L 709,2922 L 706,2922 L 701,2921 L 696,2920 L 695,2920 L 693,2919 L 692,2918 L 687,2915 L 687,2915 L 685,2914 L 684,2913 L 683,2912 L 681,2911 L 622,2851 L 621,2850 L 619,2848 L 616,2845 L 614,2840 L 612,2836 L 611,2833 L 611,2830 L 610,2826 L 610,2824 L 610,2651 L 231,2272 L 229,2270 L 226,2266 L 224,2262 L 222,2257 L 220,2252 L 220,2247 L 220,2244 L 220,2188 L 93,2062 L 92,2060 L 90,2057 L 87,2054 L 85,2050 L 84,2047 L 83,2044 L 83,2040 L 82,2036 L 82,2034 L 82,1668 L 11,1598 L 9,1596 L 6,1592 L 4,1587 L 2,1582 L 0,1577 L 0,1572 L 0,1570 z " style="fill-opacity:1.000000;fill:rgb(62,161,65);stroke:rgb(0,0,0);stroke-width:2"/></g>
<g fill-rule="evenodd"><path d="M 823,1366 L 821,1368 L 817,1371 L 812,1373 L 807,1375 L 803,1377 L 797,1377 L 795,1377 L 634,1377 L 632,1377 L 628,1377 L 624,1376 L 621,1375 L 618,1374 L 614,1372 L 611,1370 L 608,1367 L 606,1366 L 509,1268 L 486,1308 L 483,1311 L 480,1314 L 476,1316 L 472,1317 L 468,1317 L 463,1317 L 459,1315 L 288,1216 L 284,1213 L 282,1210 L 280,1206 L 279,1202 L 278,1197 L 279,1193 L 281,1189 L 320,1121 L 322,1119 L 324,1116 L 326,1114 L 330,1112 L 334,1111 L 339,1111 L 343,1112 L 347,1114 L 453,1175 L 510,1175 L 513,1175 L 518,1176 L 523,1177 L 527,1179 L 532,1182 L 536,1185 L 538,1186 L 650,1299 L 779,1299 L 865,1213 L 865,1185 L 865,1182 L 865,1177 L 867,1172 L 869,1168 L 871,1163 L 874,1159 L 876,1157 L 995,1038 L 997,1036 L 1001,1033 L 1006,1031 L 1011,1029 L 1016,1027 L 1021,1027 L 1023,1026 L 1296,1026 L 1299,1027 L 1304,1027 L 1309,1029 L 1314,1031 L 1318,1033 L 1322,1036 L 1324,1038 L 1482,1196 L 1485,1195 L 1498,1192 L 1501,1192 L 1508,1192 L 1511,1192 L 1524,1193 L 1528,1194 L 1541,1198 L 1545,1199 L 1556,1206 L 1560,1208 L 1570,1217 L 1573,1220 L 1581,1231 L 1583,1234 L 1589,1246 L 1590,1250 L 1594,1263 L 1594,1267 L 1595,1281 L 1595,1284 L 1593,1298 L 1592,1302 L 1587,1314 L 1585,1318 L 1578,1329 L 1576,1333 L 1566,1342 L 1563,1345 L 1552,1353 L 1549,1355 L 1536,1360 L 1533,1361 L 1519,1364 L 1516,1364 L 1510,1365 L 1507,1365 L 1493,1363 L 1489,1362 L 1476,1358 L 1473,1357 L 1461,1350 L 1458,1348 L 1447,1339 L 1445,1336 L 1436,1326 L 1434,1322 L 1428,1310 L 1427,1306 L 1423,1293 L 1423,1289 L 1422,1276 L 1422,1272 L 1424,1258 L 1425,1255 L 1426,1252 L 1280,1105 L 1040,1105 L 943,1201 L 943,1229 L 943,1231 L 943,1234 L 942,1238 L 941,1243 L 939,1247 L 937,1250 L 935,1253 L 933,1256 L 932,1257 L 823,1366 z " style="fill-opacity:1.000000;fill:rgb(225,252,103);stroke:rgb(0,0,0);stroke-width:2"/></g>
<g fill-rule="evenodd"><path d="M 955,1190 L 1020,1124 L 1022,1123 L 1026,1120 L 1031,1117 L 1036,1115 L 1041,1114 L 1046,1113 L 1048,1113 L 1183,1113 L 1184,1113 L 1187,1113 L 1191,1114 L 1195,1115 L 1199,1116 L 1202,1118 L 1206,1120 L 1209,1123 L 1210,1124 L 1282,1196 L 1285,1195 L 1298,1192 L 1301,1192 L 1308,1192 L 1311,1192 L 1324,1193 L 1328,1194 L 1341,1198 L 1345,1199 L 1356,1206 L 1360,1208 L 1370,1217 L 1373,1220 L 1381,1231 L 1383,1234 L 1389,1246 L 1390,1250 L 1394,1263 L 1394,1267 L 1395,1281 L 1395,1284 L 1393,1298 L 1392,1302 L 1387,1314 L 1385,1318 L 1378,1329 L 1376,1333 L 1366,1342 L 1363,1345 L 1352,1353 L 1349,1355 L 1336,1360 L 1333,1361 L 1319,1364 L 1316,1364 L 1310,1365 L 1307,1365 L 1293,1363 L 1289,1362 L 1276,1358 L 1273,1357 L 1261,1350 L 1258,1348 L 1247,1339 L 1245,1336 L 1239,1328 L 1236,1325 L 1234,1322 L 1234,1321 L 1228,1310 L 1227,1306 L 1223,1293 L 1223,1289 L 1222,1276 L 1222,1272 L 1224,1258 L 1225,1255 L 1226,1252 L 1166,1192 L 1065,1192 L 1022,1234 L 1022,1262 L 1022,1264 L 1021,1269 L 1020,1274 L 1018,1279 L 1015,1283 L 1012,1287 L 1011,1289 L 754,1546 L 752,1547 L 748,1550 L 744,1553 L 739,1555 L 734,1556 L 729,1557 L 727,1557 L 643,1557 L 612,1611 L 609,1615 L 606,1617 L 602,1619 L 598,1621 L 593,1621 L 589,1620 L 585,1618 L 414,1519 L 410,1517 L 407,1513 L 405,1510 L 404,1505 L 404,1501 L 405,1497 L 407,1493 L 446,1424 L 448,1421 L 452,1418 L 456,1416 L 460,1415 L 464,1415 L 469,1415 L 473,1417 L 579,1478 L 710,1478 L 943,1245 L 943,1218 L 944,1215 L 944,1210 L 946,1205 L 947,1200 L 950,1196 L 953,1192 L 955,1190 z " style="fill-opacity:1.000000;fill:rgb(62,1,126);stroke:rgb(0,0,0);stroke-width:2"/></g>
<g fill-rule="evenodd"><path d="M 1881,512 L 2022,370 L 2024,369 L 2028,366 L 2032,363 L 2037,361 L 2042,360 L 2047,359 L 2050,359 L 2069,359 L 2069,280 L 2070,276 L 2071,272 L 2074,268 L 2077,265 L 2081,262 L 2085,261 L 2089,260 L 2168,260 L 2172,261 L 2176,262 L 2180,265 L 2183,268 L 2186,272 L 2187,276 L 2187,280 L 2187,478 L 2187,482 L 2186,486 L 2183,490 L 2180,493 L 2176,495 L 2172,497 L 2168,497 L 2089,497 L 2085,497 L 2081,495 L 2077,493 L 2074,490 L 2071,486 L 2070,482 L 2069,478 L 2069,438 L 2066,438 L 1948,556 L 1948,1078 L 1948,1080 L 1947,1084 L 1946,1088 L 1945,1092 L 1944,1096 L 1942,1098 L 1940,1101 L 1938,1104 L 1936,1106 L 1791,1252 L 1794,1263 L 1794,1267 L 1795,1281 L 1795,1284 L 1793,1298 L 1792,1302 L 1787,1314 L 1785,1318 L 1778,1329 L 1776,1333 L 1766,1342 L 1763,1345 L 1752,1353 L 1749,1355 L 1736,1360 L 1733,1361 L 1719,1364 L 1716,1364 L 1710,1365 L 1707,1365 L 1693,1363 L 1689,1362 L 1676,1358 L 1673,1357 L 1661,1350 L 1657,1348 L 1647,1339 L 1644,1336 L 1636,1326 L 1634,1322 L 1628,1310 L 1627,1306 L 1623,1293 L 1623,1289 L 1622,1276 L 1622,1272 L 1624,1258 L 1625,1255 L 1630,1242 L 1632,1238 L 1639,1227 L 1641,1224 L 1651,1214 L 1654,1211 L 1665,1203 L 1668,1202 L 1681,1196 L 1685,1195 L 1698,1192 L 1701,1192 L 1708,1192 L 1711,1192 L 1724,1193 L 1728,1194 L 1735,1196 L 1869,1062 L 1869,540 L 1869,537 L 1870,533 L 1871,529 L 1872,525 L 1873,522 L 1875,519 L 1877,516 L 1879,513 L 1881,512 z " style="fill-opacity:1.000000;fill:rgb(151,234,220);stroke:rgb(0,0,0);stroke-width:2"/></g>
<g fill-rule="evenodd"><path d="M 3343,1541 L 3344,1536 L 3345,1533 L 3346,1530 L 3352,1524 L 3353,1523 L 3524,1424 L 3528,1423 L 3532,1422 L 3537,1422 L 3541,1423 L 3545,1425 L 3548,1428 L 3551,1432 L 3590,1500 L 3592,1504 L 3593,1508 L 3593,1512 L 3592,1517 L 3590,1521 L 3587,1524 L 3583,1527 L 3508,1570 L 3508,2530 L 3507,2530 L 3507,2532 L 3506,2538 L 3505,2542 L 3505,2544 L 3504,2546 L 3503,2547 L 3501,2552 L 3498,2556 L 3496,2557 L 3496,2558 L 3095,2959 L 3095,3065 L 3094,3069 L 3093,3073 L 3091,3077 L 3087,3080 L 3084,3082 L 3080,3084 L 3075,3084 L 2941,3084 L 2937,3084 L 2933,3082 L 2929,3080 L 2926,3077 L 2924,3073 L 2922,3069 L 2922,3065 L 2922,2931 L 2922,2926 L 2924,2922 L 2926,2919 L 2929,2915 L 2933,2913 L 2937,2912 L 2941,2911 L 3031,2911 L 3429,2514 L 3429,1616 L 3412,1625 L 3408,1627 L 3404,1628 L 3399,1628 L 3395,1627 L 3391,1625 L 3388,1622 L 3385,1618 L 3346,1550 L 3344,1546 L 3343,1542 L 3343,1541 z " style="fill-opacity:1.000000;fill:rgb(107,150,143);stroke:rgb(0,0,0);stroke-width:2"/></g>
<g fill-rule="evenodd"><path d="M 2942,1806 L 2940,1807 L 2936,1810 L 2932,1813 L 2931,1814 L 2929,1815 L 2927,1815 L 2922,1816 L 2920,1817 L 2918,1817 L 2917,1817 L 2917,1817 L 2915,1817 L 2895,1817 L 2895,1845 L 2894,1849 L 2893,1853 L 2891,1857 L 2887,1860 L 2884,1863 L 2880,1864 L 2875,1865 L 2741,1865 L 2737,1864 L 2733,1863 L 2729,1860 L 2726,1857 L 2724,1853 L 2722,1849 L 2722,1845 L 2722,1711 L 2722,1707 L 2724,1703 L 2726,1699 L 2729,1696 L 2733,1693 L 2737,1692 L 2741,1691 L 2875,1691 L 2880,1692 L 2884,1693 L 2887,1696 L 2891,1699 L 2893,1703 L 2894,1707 L 2895,1711 L 2895,1739 L 2898,1739 L 3229,1408 L 3229,1269 L 3212,1279 L 3208,1281 L 3204,1282 L 3199,1281 L 3195,1280 L 3191,1278 L 3188,1275 L 3185,1272 L 3146,1204 L 3144,1200 L 3143,1195 L 3143,1191 L 3145,1187 L 3147,1183 L 3150,1179 L 3153,1177 L 3324,1078 L 3328,1076 L 3333,1075 L 3337,1076 L 3341,1077 L 3345,1079 L 3348,1082 L 3351,1085 L 3390,1153 L 3392,1157 L 3393,1162 L 3393,1166 L 3392,1170 L 3390,1174 L 3387,1178 L 3383,1180 L 3308,1224 L 3308,1424 L 3307,1427 L 3307,1432 L 3305,1437 L 3303,1442 L 3301,1446 L 3298,1450 L 3296,1452 L 2942,1806 L 2942,1806 z " style="fill-opacity:1.000000;fill:rgb(56,92,42);stroke:rgb(0,0,0);stroke-width:2"/></g>
<g fill-rule="evenodd"><path d="M 2960,2726 L 2965,2723 L 2966,2723 L 2968,2721 L 2979,2717 L 2981,2716 L 2984,2715 L 2998,2712 L 3000,2712 L 3005,2711 L 3007,2711 L 3010,2711 L 3012,2712 L 3018,2712 L 3021,2713 L 3023,2713 L 3024,2713 L 3026,2713 L 3028,2713 L 3035,2716 L 3265,2486 L 3265,1516 L 3265,1513 L 3265,1508 L 3267,1503 L 3269,1498 L 3271,1494 L 3274,1490 L 3276,1488 L 3409,1354 L 3411,1353 L 3415,1350 L 3420,1347 L 3425,1345 L 3430,1344 L 3435,1343 L 3437,1343 L 3608,1343 L 3611,1343 L 3616,1344 L 3621,1345 L 3626,1347 L 3630,1350 L 3634,1353 L 3636,1354 L 3786,1504 L 3850,1467 L 3854,1465 L 3858,1465 L 3863,1465 L 3867,1466 L 3871,1468 L 3874,1471 L 3877,1474 L 3916,1543 L 3918,1547 L 3919,1551 L 3918,1555 L 3917,1560 L 3915,1564 L 3912,1567 L 3909,1569 L 3738,1668 L 3734,1670 L 3729,1671 L 3725,1671 L 3721,1670 L 3717,1667 L 3713,1665 L 3711,1661 L 3672,1593 L 3670,1589 L 3669,1585 L 3669,1580 L 3670,1576 L 3672,1572 L 3675,1569 L 3679,1566 L 3715,1545 L 3592,1422 L 3454,1422 L 3343,1532 L 3343,2502 L 3343,2505 L 3342,2510 L 3341,2515 L 3339,2520 L 3337,2524 L 3333,2528 L 3332,2530 L 3090,2771 L 3093,2783 L 3094,2787 L 3095,2800 L 3095,2804 L 3092,2818 L 3091,2821 L 3087,2834 L 3085,2838 L 3078,2849 L 3075,2852 L 3066,2862 L 3063,2865 L 3052,2872 L 3048,2874 L 3036,2880 L 3032,2881 L 3019,2884 L 3016,2884 L 3009,2884 L 3006,2884 L 2993,2883 L 2989,2882 L 2976,2878 L 2972,2876 L 2960,2870 L 2957,2868 L 2947,2859 L 2944,2856 L 2936,2845 L 2934,2842 L 2928,2830 L 2926,2826 L 2923,2813 L 2922,2809 L 2922,2795 L 2922,2791 L 2924,2778 L 2925,2774 L 2930,2761 L 2931,2758 L 2939,2746 L 2941,2743 L 2950,2733 L 2953,2731 L 2960,2726 z " style="fill-opacity:1.000000;fill:rgb(236,176,59);stroke:rgb(0,0,0);stroke-width:2"/></g>
<g fill-rule="evenodd"><path d="M 2822,1391 L 3287,927 L 3272,900 L 3270,896 L 3269,892 L 3269,887 L 3270,883 L 3272,879 L 3275,876 L 3279,873 L 3450,775 L 3454,773 L 3458,772 L 3463,772 L 3467,773 L 3471,775 L 3474,778 L 3477,782 L 3516,850 L 3518,854 L 3519,858 L 3519,863 L 3517,867 L 3515,871 L 3513,874 L 3509,877 L 3364,960 L 2895,1430 L 2895,1545 L 2894,1549 L 2893,1554 L 2891,1557 L 2887,1560 L 2884,1563 L 2880,1564 L 2875,1565 L 2741,1565 L 2737,1564 L 2733,1563 L 2729,1560 L 2726,1557 L 2724,1554 L 2722,1549 L 2722,1545 L 2722,1411 L 2722,1407 L 2724,1403 L 2726,1399 L 2729,1396 L 2733,1393 L 2737,1392 L 2741,1391 L 2822,1391 z " style="fill-opacity:1.000000;fill:rgb(251,50,175);stroke:rgb(0,0,0);stroke-width:2"/></g>
<g fill-rule="evenodd"><path d="M 2780,1044 L 2780,1044 L 2954,871 L 2946,857 L 2944,853 L 2943,849 L 2944,845 L 2945,840 L 2947,836 L 2950,833 L 2953,830 L 3124,732 L 3128,730 L 3133,729 L 3137,729 L 3141,730 L 3145,732 L 3149,735 L 3151,739 L 3191,807 L 3192,811 L 3193,815 L 3193,820 L 3192,824 L 3190,828 L 3187,831 L 3183,834 L 3012,933 L 3008,934 L 3004,935 L 3001,935 L 2848,1088 L 2848,1092 L 2875,1092 L 2880,1092 L 2884,1093 L 2887,1096 L 2891,1099 L 2893,1103 L 2894,1107 L 2895,1111 L 2895,1245 L 2894,1249 L 2893,1254 L 2891,1257 L 2887,1260 L 2884,1263 L 2880,1264 L 2875,1265 L 2741,1265 L 2737,1264 L 2733,1263 L 2729,1260 L 2726,1257 L 2724,1254 L 2722,1249 L 2722,1245 L 2722,1111 L 2722,1107 L 2724,1103 L 2726,1099 L 2729,1096 L 2733,1093 L 2737,1092 L 2741,1092 L 2769,1092 L 2769,1072 L 2769,1069 L 2769,1069 L 2769,1068 L 2770,1066 L 2770,1064 L 2771,1059 L 2772,1058 L 2773,1056 L 2773,1055 L 2776,1050 L 2779,1046 L 2780,1044 z " style="fill-opacity:1.000000;fill:rgb(60,84,236);stroke:rgb(0,0,0);stroke-width:2"/></g>
</svg>
