<?xml version="1.0" standalone="no"?>
<!DOCTYPE svg PUBLIC "-//W3C//DTD SVG 1.1//EN"
"http://www.w3.org/Graphics/SVG/1.1/DTD/svg11.dtd">
<svg width="4331" height="3791" viewBox="0 0 4331 3791" version="1.1"
xmlns="http://www.w3.org/2000/svg"
xmlns:xlink="http://www.w3.org/1999/xlink">
<g fill-rule="evenodd"><path d="M 0,1886 L 0,1884 L 0,1882 L 1160,2 L 1162,0 L 1165,0 L 3285,0 L 3287,0 L 3288,1 L 3290,2 L 4330,1822 L 4330,1825 L 4330,1828 L 3270,3787 L 3268,3789 L 3266,3790 L 3265,3791 L 1105,3791 L 1103,3790 L 1102,3789 L 1100,3788 L 0,1888 L 0,1886M 1109,3779 L 3261,3779 L 4318,1825 L 3281,11 L 1168,11 L 12,1885 L 1109,3779 z " style="fill-opacity:1.000000;fill:rgb(103,198,105);stroke:rgb(0,0,0);stroke-width:2"/></g>
</svg>
