<?xml version="1.0" standalone="no"?>
<!DOCTYPE svg PUBLIC "-//W3C//DTD SVG 1.1//EN"
"http://www.w3.org/Graphics/SVG/1.1/DTD/svg11.dtd">
<svg width="4186" height="3726" viewBox="0 0 4186 3726" version="1.1"
xmlns="http://www.w3.org/2000/svg"
xmlns:xlink="http://www.w3.org/1999/xlink">
<g fill-rule="evenodd"><path d="M 3967,1306 L 4099,1536 L 4087,1542 L 4084,1543 L 4075,1547 L 4072,1548 L 4066,1550 L 4064,1551 L 4061,1552 L 4059,1552 L 4057,1553 L 4052,1555 L 4050,1556 L 4048,1557 L 3892,1647 L 3889,1649 L 3881,1651 L 3873,1651 L 3866,1647 L 3861,1641 L 3860,1639 L 3826,1581 L 3825,1579 L 3824,1577 L 3821,1574 L 3821,1573 L 3819,1571 L 3816,1567 L 3815,1565 L 3811,1558 L 3810,1558 L 3817,1547 L 3819,1545 L 3823,1541 L 3825,1538 L 3828,1535 L 3832,1531 L 3837,1524 L 3841,1519 L 3844,1514 L 3942,1344 L 3955,1323 L 3967,1306 z " style="fill-opacity:1.000000;fill:rgb(103,198,105);stroke:rgb(0,0,0);stroke-width:2"/></g>
<g fill-rule="evenodd"><path d="M 3704,1849 L 3704,1848 L 3872,1751 L 3875,1750 L 3883,1748 L 3891,1748 L 3898,1752 L 3903,1758 L 3904,1760 L 3941,1823 L 3942,1826 L 3944,1833 L 3944,1841 L 3940,1849 L 3935,1853 L 3932,1855 L 3766,1951 L 3763,1952 L 3756,1955 L 3748,1954 L 3740,1950 L 3736,1945 L 3734,1942 L 3715,1910 L 3714,1908 L 3713,1906 L 3710,1902 L 3709,1901 L 3705,1897 L 3704,1895 L 3700,1892 L 3698,1890 L 3692,1887 L 3690,1885 L 3686,1883 L 3683,1881 L 3681,1880 L 3677,1878 L 3676,1868 L 3685,1861 L 3688,1859 L 3693,1855 L 3696,1854 L 3700,1851 L 3702,1850 L 3704,1849 z " style="fill-opacity:1.000000;fill:rgb(115,81,255);stroke:rgb(0,0,0);stroke-width:2"/></g>
<g fill-rule="evenodd"><path d="M 2600,3661 L 2588,3660 L 2575,3655 L 2563,3647 L 2550,3636 L 2511,3597 L 2511,3597 L 2512,3594 L 2577,3439 L 2581,3431 L 2586,3425 L 2592,3419 L 2600,3415 L 2625,3405 L 2625,3405 L 2632,3409 L 2634,3411 L 2640,3413 L 2642,3414 L 2647,3416 L 2649,3416 L 2654,3417 L 2656,3418 L 2661,3418 L 2663,3418 L 2665,3418 L 2676,3418 L 2679,3419 L 2687,3420 L 2693,3425 L 2698,3432 L 2699,3439 L 2699,3442 L 2699,3633 L 2699,3636 L 2697,3644 L 2693,3651 L 2684,3656 L 2682,3657 L 2680,3658 L 2679,3658 L 2675,3660 L 2673,3661 L 2673,3661 L 2600,3661 z " style="fill-opacity:1.000000;fill:rgb(74,236,41);stroke:rgb(0,0,0);stroke-width:2"/></g>
<g fill-rule="evenodd"><path d="M 2392,3394 L 2386,3390 L 2381,3383 L 2380,3376 L 2380,3373 L 2380,3181 L 2380,3178 L 2381,3170 L 2386,3164 L 2393,3159 L 2400,3158 L 2403,3158 L 2476,3158 L 2479,3158 L 2487,3160 L 2493,3164 L 2498,3171 L 2499,3178 L 2499,3181 L 2499,3326 L 2499,3328 L 2499,3330 L 2500,3335 L 2500,3337 L 2501,3342 L 2502,3344 L 2504,3349 L 2504,3351 L 2507,3357 L 2508,3359 L 2512,3366 L 2513,3366 L 2509,3376 L 2503,3386 L 2497,3394 L 2489,3401 L 2479,3406 L 2469,3410 L 2469,3409 L 2462,3405 L 2460,3404 L 2454,3402 L 2452,3401 L 2447,3399 L 2445,3398 L 2440,3397 L 2438,3397 L 2433,3397 L 2431,3396 L 2429,3396 L 2403,3396 L 2400,3396 L 2392,3394 z " style="fill-opacity:1.000000;fill:rgb(205,186,171);stroke:rgb(0,0,0);stroke-width:2"/></g>
<g fill-rule="evenodd"><path d="M 2632,476 L 2626,472 L 2621,465 L 2620,458 L 2620,455 L 2620,263 L 2620,260 L 2621,252 L 2626,246 L 2633,241 L 2640,240 L 2643,240 L 2716,240 L 2719,240 L 2727,241 L 2733,246 L 2738,253 L 2739,260 L 2739,263 L 2739,455 L 2739,458 L 2737,466 L 2733,472 L 2726,477 L 2719,478 L 2716,478 L 2643,478 L 2640,478 L 2632,476 z " style="fill-opacity:1.000000;fill:rgb(242,251,227);stroke:rgb(0,0,0);stroke-width:2"/></g>
<g fill-rule="evenodd"><path d="M 1680,518 L 1680,458 L 1680,358 L 1719,318 L 1745,289 L 1763,260 L 1796,197 L 1815,168 L 1840,139 L 1880,99 L 1919,139 L 1945,168 L 1963,197 L 1996,260 L 2015,290 L 1945,458 L 1941,466 L 1935,473 L 1927,479 L 1919,484 L 1840,516 L 1825,522 L 1809,525 L 1771,529 L 1728,526 L 1680,518 z " style="fill-opacity:1.000000;fill:rgb(70,124,194);stroke:rgb(0,0,0);stroke-width:2"/></g>
<g fill-rule="evenodd"><path d="M 1191,553 L 1169,538 L 1166,536 L 1115,500 L 1170,458 L 1208,427 L 1240,397 L 1319,318 L 1345,289 L 1363,260 L 1396,197 L 1415,168 L 1440,139 L 1480,99 L 1519,139 L 1545,168 L 1563,197 L 1596,260 L 1615,289 L 1640,318 L 1680,358 L 1680,458 L 1680,518 L 1652,554 L 1621,587 L 1585,615 L 1544,638 L 1519,639 L 1440,639 L 1409,638 L 1378,634 L 1347,627 L 1316,618 L 1285,606 L 1253,591 L 1222,573 L 1191,553 z " style="fill-opacity:1.000000;fill:rgb(84,248,27);stroke:rgb(0,0,0);stroke-width:2"/></g>
<g fill-rule="evenodd"><path d="M 2541,0 L 2540,3 L 2540,5 L 2539,10 L 2539,12 L 2539,14 L 2539,194 L 2539,197 L 2537,205 L 2533,212 L 2526,216 L 2519,217 L 2516,218 L 2448,218 L 2445,218 L 2443,218 L 2440,218 L 2438,218 L 2436,219 L 2431,219 L 2428,219 L 2425,219 L 2422,213 L 2421,210 L 2419,205 L 2418,199 L 2417,197 L 2417,194 L 2415,188 L 2413,183 L 2412,179 L 2405,162 L 2403,158 L 2400,152 L 2394,141 L 2390,136 L 2379,122 L 2375,116 L 2366,107 L 2279,21 L 2279,0 L 2541,0 z " style="fill-opacity:1.000000;fill:rgb(232,231,141);stroke:rgb(0,0,0);stroke-width:2"/></g>
<g fill-rule="evenodd"><path d="M 2279,0 L 2279,21 L 2193,107 L 2184,116 L 2180,122 L 2169,136 L 2165,141 L 2159,152 L 2156,158 L 2154,162 L 2147,179 L 2146,181 L 2145,184 L 2144,189 L 2143,193 L 2142,197 L 2141,198 L 2141,202 L 2139,206 L 2138,210 L 2137,213 L 2130,226 L 2119,240 L 2104,255 L 2040,281 L 2015,290 L 1996,260 L 1963,197 L 1945,168 L 1919,139 L 1880,99 L 1880,0 L 2279,0 z " style="fill-opacity:1.000000;fill:rgb(118,90,46);stroke:rgb(0,0,0);stroke-width:2"/></g>
<g fill-rule="evenodd"><path d="M 1880,0 L 1880,99 L 1840,139 L 1815,168 L 1796,197 L 1763,260 L 1745,289 L 1719,318 L 1680,358 L 1640,318 L 1615,289 L 1596,260 L 1563,197 L 1545,168 L 1519,139 L 1480,99 L 1480,0 L 1880,0 z " style="fill-opacity:1.000000;fill:rgb(99,51,159);stroke:rgb(0,0,0);stroke-width:2"/></g>
<g fill-rule="evenodd"><path d="M 1057,0 L 1480,0 L 1480,99 L 1440,139 L 1415,168 L 1396,197 L 1363,260 L 1345,289 L 1319,318 L 1240,397 L 1208,427 L 1170,458 L 1115,500 L 1102,499 L 1098,499 L 1016,492 L 1011,491 L 985,489 L 938,452 L 892,411 L 836,356 L 1057,0 z " style="fill-opacity:1.000000;fill:rgb(201,154,102);stroke:rgb(0,0,0);stroke-width:2"/></g>
<g fill-rule="evenodd"><path d="M 3250,2096 L 3249,2091 L 3249,2091 L 3248,2089 L 3246,2082 L 3245,2080 L 3243,2076 L 3241,2072 L 3241,2072 L 3243,2070 L 3250,2058 L 3254,2053 L 3263,2042 L 3266,2038 L 3276,2028 L 3280,2024 L 3290,2016 L 3295,2012 L 3306,2004 L 3312,2001 L 3317,1998 L 3322,1998 L 3326,1998 L 3331,1998 L 3336,1998 L 3338,1998 L 3341,1998 L 3343,1998 L 3348,1998 L 3353,1998 L 3354,1998 L 3355,1999 L 3356,2000 L 3361,2005 L 3361,2006 L 3362,2007 L 3367,2011 L 3369,2013 L 3372,2016 L 3373,2016 L 3375,2018 L 3376,2018 L 3378,2020 L 3380,2022 L 3382,2023 L 3387,2026 L 3390,2028 L 3401,2036 L 3402,2037 L 3404,2039 L 3412,2050 L 3414,2054 L 3421,2065 L 3421,2066 L 3422,2070 L 3425,2083 L 3426,2087 L 3427,2098 L 3427,2100 L 3426,2104 L 3424,2118 L 3423,2122 L 3420,2131 L 3418,2134 L 3416,2138 L 3409,2149 L 3407,2153 L 3402,2158 L 3397,2162 L 3394,2165 L 3383,2173 L 3380,2175 L 3374,2177 L 3367,2180 L 3363,2181 L 3350,2183 L 3347,2184 L 3340,2185 L 3339,2185 L 3337,2185 L 3324,2183 L 3320,2182 L 3307,2178 L 3304,2178 L 3303,2177 L 3292,2170 L 3288,2168 L 3277,2160 L 3276,2159 L 3275,2156 L 3267,2145 L 3265,2142 L 3258,2131 L 3258,2130 L 3257,2126 L 3254,2113 L 3253,2109 L 3253,2107 L 3252,2105 L 3252,2103 L 3251,2098 L 3250,2096 L 3250,2096 z " style="fill-opacity:1.000000;fill:rgb(50,13,183);stroke:rgb(0,0,0);stroke-width:2"/></g>
<g fill-rule="evenodd"><path d="M 1201,1747 L 1201,1744 L 1201,1491 L 1201,1488 L 1201,1486 L 1202,1480 L 1202,1479 L 1203,1478 L 1206,1474 L 1208,1472 L 1209,1470 L 1357,1322 L 1358,1321 L 1360,1319 L 1364,1316 L 1366,1315 L 1370,1312 L 1372,1311 L 1377,1309 L 1380,1308 L 1381,1308 L 1383,1309 L 1385,1310 L 1387,1312 L 1391,1315 L 1393,1316 L 1394,1317 L 1395,1318 L 1398,1320 L 1408,1328 L 1412,1330 L 1423,1337 L 1427,1339 L 1427,1339 L 1440,1343 L 1444,1344 L 1458,1346 L 1460,1346 L 1461,1346 L 1467,1345 L 1470,1344 L 1484,1342 L 1488,1341 L 1492,1339 L 1500,1335 L 1503,1333 L 1515,1325 L 1518,1323 L 1520,1321 L 1527,1313 L 1529,1309 L 1535,1301 L 1536,1299 L 1537,1298 L 1537,1297 L 1539,1295 L 1540,1293 L 1541,1291 L 1545,1287 L 1546,1286 L 1548,1284 L 1551,1281 L 1552,1280 L 1553,1279 L 1558,1274 L 1559,1273 L 1561,1274 L 1563,1276 L 1567,1279 L 1569,1281 L 1573,1286 L 1574,1287 L 1575,1288 L 1577,1291 L 1578,1292 L 1579,1293 L 1582,1297 L 1583,1299 L 1584,1301 L 1585,1302 L 1587,1305 L 1595,1316 L 1598,1320 L 1599,1321 L 1608,1328 L 1612,1330 L 1616,1333 L 1618,1334 L 1620,1335 L 1623,1338 L 1623,1338 L 1625,1340 L 1627,1341 L 1629,1343 L 1631,1345 L 1636,1349 L 1637,1351 L 1637,1351 L 1643,1357 L 1643,1357 L 1644,1358 L 1643,1359 L 1637,1365 L 1635,1367 L 1634,1368 L 1631,1372 L 1630,1372 L 1629,1373 L 1625,1377 L 1623,1378 L 1620,1381 L 1619,1381 L 1618,1382 L 1616,1383 L 1616,1383 L 1605,1391 L 1601,1393 L 1599,1395 L 1592,1403 L 1590,1407 L 1583,1418 L 1581,1422 L 1580,1423 L 1577,1435 L 1576,1438 L 1573,1452 L 1573,1456 L 1573,1458 L 1574,1468 L 1574,1469 L 1574,1470 L 1575,1473 L 1575,1473 L 1575,1478 L 1575,1480 L 1575,1484 L 1574,1485 L 1573,1487 L 1569,1492 L 1567,1494 L 1565,1497 L 1564,1499 L 1561,1502 L 1559,1505 L 1558,1508 L 1556,1510 L 1556,1511 L 1555,1515 L 1554,1519 L 1554,1523 L 1553,1525 L 1553,1528 L 1553,1567 L 1553,1569 L 1553,1572 L 1552,1577 L 1552,1579 L 1551,1580 L 1548,1584 L 1546,1586 L 1544,1588 L 1359,1773 L 1352,1780 L 1349,1783 L 1348,1785 L 1298,1834 L 1296,1836 L 1294,1837 L 1291,1840 L 1289,1842 L 1285,1844 L 1283,1845 L 1278,1848 L 1276,1849 L 1270,1851 L 1268,1851 L 1260,1853 L 1260,1853 L 1259,1851 L 1255,1844 L 1255,1843 L 1254,1842 L 1252,1837 L 1252,1836 L 1251,1834 L 1249,1830 L 1248,1827 L 1248,1825 L 1247,1824 L 1246,1820 L 1241,1807 L 1240,1803 L 1234,1791 L 1233,1790 L 1230,1787 L 1221,1777 L 1218,1774 L 1209,1766 L 1207,1765 L 1207,1764 L 1205,1763 L 1203,1761 L 1203,1761 L 1202,1758 L 1202,1755 L 1201,1750 L 1201,1747 z " style="fill-opacity:1.000000;fill:rgb(49,88,163);stroke:rgb(0,0,0);stroke-width:2"/></g>
<g fill-rule="evenodd"><path d="M 697,1091 L 692,1079 L 735,1023 L 758,998 L 781,998 L 852,1001 L 876,1001 L 898,977 L 947,914 L 963,890 L 976,863 L 986,833 L 993,801 L 998,766 L 1000,728 L 999,687 L 995,643 L 993,631 L 990,594 L 989,587 L 986,540 L 985,489 L 1011,491 L 1016,492 L 1098,499 L 1102,499 L 1115,500 L 1166,536 L 1169,538 L 1191,553 L 1222,573 L 1253,591 L 1285,606 L 1316,618 L 1347,627 L 1378,634 L 1409,638 L 1440,639 L 1519,639 L 1544,638 L 1585,615 L 1621,587 L 1652,554 L 1680,518 L 1728,526 L 1771,529 L 1809,525 L 1825,522 L 1840,516 L 1919,484 L 1927,479 L 1935,473 L 1941,466 L 1945,458 L 2015,290 L 2040,281 L 2104,255 L 2119,240 L 2130,226 L 2137,213 L 2138,210 L 2139,206 L 2141,202 L 2141,198 L 2142,197 L 2143,193 L 2144,189 L 2145,184 L 2146,181 L 2147,179 L 2154,162 L 2156,158 L 2159,152 L 2165,141 L 2169,136 L 2180,122 L 2184,116 L 2193,107 L 2279,21 L 2366,107 L 2375,116 L 2379,122 L 2390,136 L 2394,141 L 2400,152 L 2403,158 L 2405,162 L 2412,179 L 2413,183 L 2415,188 L 2417,194 L 2417,197 L 2418,199 L 2419,205 L 2421,210 L 2422,213 L 2425,219 L 2423,222 L 2422,224 L 2420,230 L 2420,232 L 2419,237 L 2418,239 L 2418,244 L 2418,246 L 2418,248 L 2418,502 L 2417,505 L 2417,507 L 2416,513 L 2415,517 L 2415,517 L 2414,520 L 2414,521 L 2414,525 L 2414,528 L 2413,530 L 2413,535 L 2411,540 L 2411,543 L 2409,545 L 2407,549 L 2404,554 L 2402,556 L 2400,558 L 2241,717 L 2240,719 L 2238,721 L 2234,725 L 2234,726 L 2233,728 L 2233,733 L 2233,736 L 2233,738 L 2233,1322 L 2232,1325 L 2232,1327 L 2231,1332 L 2230,1337 L 2229,1340 L 2228,1342 L 2225,1346 L 2222,1350 L 2221,1353 L 2219,1355 L 2153,1421 L 2151,1423 L 2149,1425 L 2146,1429 L 2145,1431 L 2144,1432 L 2144,1436 L 2144,1438 L 2144,1443 L 2144,1443 L 2145,1446 L 2145,1447 L 2145,1448 L 2146,1458 L 2146,1460 L 2146,1464 L 2143,1478 L 2142,1482 L 2139,1493 L 2138,1494 L 2136,1498 L 2129,1509 L 2127,1513 L 2120,1521 L 2118,1523 L 2115,1525 L 2103,1533 L 2100,1535 L 2092,1539 L 2088,1541 L 2084,1542 L 2070,1544 L 2067,1545 L 2061,1546 L 2059,1546 L 2057,1546 L 2044,1544 L 2040,1543 L 2027,1539 L 2027,1539 L 2023,1537 L 2012,1530 L 2008,1528 L 1999,1521 L 1998,1520 L 1995,1516 L 1987,1505 L 1985,1502 L 1984,1501 L 1983,1499 L 1982,1497 L 1979,1493 L 1978,1491 L 1977,1491 L 1974,1488 L 1974,1487 L 1973,1486 L 1969,1481 L 1967,1479 L 1963,1476 L 1961,1474 L 1959,1473 L 1959,1470 L 1960,1467 L 1960,1460 L 1959,1456 L 1959,1450 L 1960,1446 L 1960,1439 L 1959,1436 L 1959,1428 L 1960,1425 L 1960,1417 L 1959,1414 L 1959,1404 L 1960,1401 L 1960,1389 L 1959,1388 L 1959,1372 L 1960,1372 L 1960,1358 L 1964,1358 L 1965,1358 L 1982,1358 L 1983,1358 L 1996,1358 L 1998,1358 L 2009,1358 L 2012,1358 L 2021,1358 L 2024,1358 L 2032,1358 L 2035,1358 L 2043,1358 L 2046,1358 L 2051,1358 L 2056,1358 L 2058,1358 L 2061,1358 L 2063,1358 L 2068,1358 L 2073,1358 L 2076,1358 L 2081,1358 L 2086,1355 L 2092,1352 L 2104,1344 L 2108,1340 L 2119,1332 L 2123,1328 L 2132,1318 L 2136,1314 L 2144,1304 L 2144,1303 L 2146,1297 L 2148,1284 L 2149,1279 L 2150,1265 L 2150,1260 L 2149,1247 L 2149,1242 L 2147,1228 L 2146,1223 L 2143,1209 L 2141,1203 L 2137,1190 L 2134,1182 L 2127,1168 L 2126,1166 L 2126,709 L 2126,703 L 2127,698 L 2128,685 L 2129,680 L 2133,667 L 2135,662 L 2138,654 L 2174,567 L 2198,542 L 2220,538 L 2240,531 L 2312,501 L 2318,496 L 2319,495 L 2322,492 L 2326,490 L 2335,474 L 2338,466 L 2338,458 L 2338,260 L 2338,252 L 2335,244 L 2327,241 L 2319,240 L 2240,240 L 2232,241 L 2224,244 L 2221,252 L 2220,260 L 2220,287 L 2220,289 L 2220,294 L 2219,300 L 2218,305 L 2217,311 L 2215,316 L 2214,319 L 2210,328 L 2201,332 L 2197,334 L 2193,336 L 2187,339 L 2183,342 L 2179,345 L 2175,349 L 2173,350 L 2032,492 L 2030,493 L 2027,496 L 2025,499 L 2023,502 L 2021,505 L 2019,508 L 2016,513 L 2015,517 L 2013,519 L 1863,883 L 1831,883 L 1805,884 L 1798,884 L 1759,889 L 1753,891 L 1725,898 L 1719,900 L 1708,904 L 1697,909 L 1687,913 L 1682,914 L 1663,919 L 1658,920 L 1641,923 L 1636,923 L 1628,923 L 1258,923 L 1253,923 L 1249,923 L 1238,924 L 1234,925 L 1227,926 L 1221,930 L 1218,932 L 1207,941 L 1204,944 L 1199,948 L 1027,1120 L 1026,1139 L 1024,1155 L 1019,1170 L 1011,1182 L 963,1245 L 957,1251 L 949,1256 L 940,1260 L 930,1262 L 923,1263 L 819,1235 L 749,1181 L 739,1172 L 730,1162 L 723,1151 L 716,1139 L 713,1131 L 710,1126 L 701,1103 L 699,1096 L 697,1091 z " style="fill-opacity:1.000000;fill:rgb(90,37,93);stroke:rgb(0,0,0);stroke-width:2"/></g>
<g fill-rule="evenodd"><path d="M 2541,0 L 3221,0 L 3637,729 L 3625,736 L 3622,738 L 3612,744 L 3609,746 L 3604,750 L 3602,752 L 3600,753 L 3598,755 L 3595,757 L 3592,759 L 3432,851 L 3430,853 L 3424,858 L 3420,865 L 3420,873 L 3422,880 L 3424,883 L 3427,889 L 3430,895 L 3430,897 L 3432,902 L 3432,904 L 3433,906 L 3431,909 L 3430,911 L 3427,915 L 3426,917 L 3423,920 L 3422,922 L 3420,923 L 2980,1364 L 2978,1366 L 2977,1366 L 2976,1367 L 2975,1368 L 2972,1371 L 2971,1372 L 2970,1372 L 2966,1376 L 2966,1376 L 2965,1376 L 2963,1375 L 2958,1374 L 2955,1373 L 2953,1372 L 2946,1371 L 2943,1371 L 2815,1371 L 2812,1371 L 2805,1372 L 2798,1377 L 2794,1384 L 2793,1385 L 2792,1391 L 2792,1391 L 2791,1393 L 2789,1398 L 2789,1400 L 2786,1405 L 2785,1407 L 2782,1414 L 2780,1416 L 2776,1422 L 2774,1421 L 2773,1420 L 2772,1419 L 2765,1415 L 2763,1414 L 2759,1412 L 2757,1410 L 2756,1409 L 2755,1408 L 2751,1406 L 2750,1405 L 2746,1402 L 2745,1400 L 2744,1399 L 2741,1396 L 2741,1396 L 2740,1395 L 2732,1389 L 2731,1388 L 2730,1388 L 2729,1386 L 2727,1385 L 2725,1383 L 2723,1381 L 2721,1380 L 2720,1377 L 2720,1374 L 2719,1369 L 2719,1367 L 2719,1364 L 2719,1252 L 2719,1249 L 2719,1247 L 2720,1242 L 2720,1239 L 2721,1237 L 2723,1235 L 2724,1234 L 2725,1233 L 2728,1230 L 2730,1228 L 2732,1227 L 2734,1225 L 2738,1223 L 2740,1221 L 2741,1220 L 2745,1216 L 2746,1215 L 2748,1214 L 2750,1212 L 2751,1211 L 2751,1210 L 2756,1207 L 2757,1206 L 2763,1202 L 2763,1202 L 2765,1201 L 2769,1199 L 2772,1197 L 2774,1195 L 2776,1195 L 2780,1201 L 2782,1203 L 2785,1209 L 2786,1211 L 2789,1217 L 2790,1219 L 2791,1224 L 2791,1225 L 2792,1226 L 2793,1231 L 2793,1232 L 2798,1239 L 2805,1244 L 2812,1245 L 2815,1246 L 2943,1246 L 2946,1245 L 2953,1244 L 2960,1239 L 2965,1233 L 2966,1225 L 2967,1222 L 2967,1094 L 2966,1091 L 2965,1084 L 2961,1077 L 2954,1073 L 2946,1071 L 2943,1071 L 2941,1070 L 2938,1070 L 2933,1069 L 2931,1068 L 2926,1066 L 2924,1066 L 2924,1065 L 2922,1060 L 2921,1057 L 2920,1052 L 2920,1050 L 2919,1045 L 2919,1043 L 2919,1041 L 2919,1007 L 2919,1004 L 2919,1002 L 2920,996 L 2920,995 L 2921,994 L 2924,990 L 2926,988 L 2928,986 L 3053,861 L 3055,859 L 3057,857 L 3061,854 L 3062,853 L 3064,853 L 3069,852 L 3072,852 L 3074,852 L 3087,852 L 3089,852 L 3091,852 L 3095,852 L 3097,853 L 3102,854 L 3104,854 L 3104,854 L 3107,858 L 3108,859 L 3111,863 L 3112,865 L 3113,867 L 3134,903 L 3136,906 L 3141,911 L 3148,915 L 3156,916 L 3163,913 L 3166,912 L 3332,816 L 3335,814 L 3340,810 L 3344,802 L 3345,794 L 3342,787 L 3341,784 L 3304,721 L 3303,719 L 3298,713 L 3291,709 L 3283,709 L 3275,711 L 3272,712 L 3175,769 L 3172,770 L 3170,771 L 3169,772 L 3165,772 L 3162,772 L 3159,772 L 3048,772 L 3045,773 L 3043,773 L 3038,774 L 3033,775 L 3030,776 L 3028,777 L 3024,780 L 3020,783 L 3017,784 L 3015,786 L 2853,948 L 2851,950 L 2850,952 L 2847,957 L 2844,961 L 2843,963 L 2842,966 L 2841,971 L 2840,976 L 2840,978 L 2840,981 L 2840,1041 L 2840,1043 L 2839,1045 L 2839,1050 L 2839,1052 L 2837,1057 L 2837,1060 L 2835,1065 L 2834,1066 L 2833,1067 L 2827,1068 L 2825,1069 L 2820,1070 L 2818,1070 L 2815,1071 L 2812,1071 L 2805,1072 L 2798,1077 L 2794,1084 L 2793,1085 L 2792,1091 L 2792,1091 L 2791,1093 L 2789,1098 L 2789,1100 L 2786,1105 L 2785,1107 L 2782,1114 L 2780,1116 L 2776,1122 L 2774,1121 L 2773,1120 L 2772,1119 L 2765,1115 L 2763,1114 L 2759,1112 L 2757,1110 L 2756,1109 L 2755,1108 L 2751,1106 L 2750,1105 L 2746,1102 L 2745,1100 L 2744,1099 L 2741,1096 L 2741,1096 L 2740,1096 L 2731,1088 L 2727,1086 L 2716,1079 L 2712,1077 L 2712,1077 L 2699,1073 L 2695,1073 L 2681,1071 L 2679,1070 L 2678,1070 L 2672,1071 L 2669,1072 L 2655,1074 L 2651,1075 L 2647,1077 L 2639,1081 L 2636,1083 L 2624,1091 L 2621,1093 L 2619,1095 L 2612,1104 L 2610,1107 L 2602,1118 L 2600,1122 L 2600,1123 L 2597,1135 L 2596,1138 L 2593,1152 L 2593,1156 L 2593,1158 L 2594,1169 L 2595,1173 L 2598,1186 L 2599,1190 L 2600,1193 L 2605,1202 L 2607,1205 L 2615,1216 L 2618,1220 L 2619,1221 L 2626,1227 L 2628,1228 L 2628,1228 L 2630,1230 L 2631,1231 L 2634,1233 L 2636,1235 L 2638,1236 L 2638,1239 L 2639,1242 L 2639,1247 L 2640,1249 L 2640,1252 L 2640,1364 L 2640,1367 L 2639,1369 L 2639,1374 L 2638,1377 L 2638,1380 L 2636,1381 L 2635,1382 L 2634,1383 L 2630,1386 L 2628,1388 L 2626,1389 L 2624,1391 L 2621,1393 L 2619,1395 L 2612,1403 L 2610,1407 L 2602,1418 L 2600,1422 L 2600,1423 L 2597,1435 L 2596,1438 L 2593,1452 L 2593,1456 L 2593,1458 L 2594,1469 L 2595,1473 L 2598,1486 L 2599,1490 L 2600,1493 L 2605,1502 L 2607,1505 L 2615,1516 L 2618,1520 L 2619,1521 L 2626,1527 L 2628,1528 L 2628,1528 L 2630,1530 L 2631,1531 L 2634,1533 L 2636,1535 L 2638,1536 L 2638,1539 L 2639,1542 L 2639,1547 L 2640,1549 L 2640,1552 L 2640,1664 L 2640,1667 L 2639,1669 L 2639,1674 L 2638,1677 L 2638,1680 L 2636,1681 L 2635,1682 L 2634,1683 L 2630,1686 L 2628,1688 L 2626,1689 L 2624,1691 L 2621,1693 L 2619,1695 L 2612,1703 L 2610,1707 L 2602,1718 L 2600,1722 L 2600,1723 L 2597,1735 L 2596,1738 L 2593,1752 L 2593,1756 L 2593,1758 L 2594,1769 L 2595,1773 L 2598,1786 L 2599,1790 L 2600,1793 L 2605,1802 L 2607,1805 L 2615,1816 L 2618,1820 L 2619,1821 L 2626,1827 L 2628,1828 L 2628,1828 L 2630,1830 L 2631,1831 L 2634,1833 L 2636,1835 L 2638,1836 L 2638,1839 L 2639,1842 L 2639,1847 L 2640,1849 L 2640,1852 L 2640,2055 L 2640,2058 L 2640,2060 L 2641,2064 L 2642,2069 L 2643,2073 L 2643,2073 L 2645,2077 L 2648,2081 L 2650,2084 L 2652,2086 L 2653,2087 L 2657,2090 L 2660,2092 L 2664,2094 L 2669,2095 L 2673,2096 L 2677,2097 L 2679,2097 L 2682,2098 L 2867,2098 L 2869,2098 L 2872,2098 L 2877,2099 L 2879,2099 L 2880,2100 L 2884,2103 L 2886,2105 L 2888,2106 L 2973,2191 L 2974,2193 L 2975,2194 L 2978,2198 L 2979,2199 L 2982,2203 L 2983,2205 L 2985,2210 L 2986,2212 L 2988,2217 L 2989,2220 L 2989,2221 L 2989,2226 L 2988,2228 L 2987,2235 L 2986,2237 L 2983,2244 L 2983,2246 L 2983,2246 L 2979,2246 L 2974,2246 L 2971,2246 L 2964,2245 L 2964,2245 L 2962,2245 L 2959,2245 L 2957,2245 L 2955,2244 L 2950,2243 L 2948,2243 L 2946,2242 L 2944,2242 L 2942,2241 L 2942,2241 L 2940,2240 L 2935,2239 L 2930,2238 L 2926,2238 L 2913,2238 L 2909,2238 L 2904,2239 L 2897,2241 L 2893,2243 L 2881,2248 L 2877,2249 L 2875,2251 L 2867,2257 L 2864,2260 L 2856,2269 L 2853,2272 L 2852,2273 L 2847,2284 L 2846,2287 L 2841,2299 L 2840,2302 L 2840,2303 L 2840,2316 L 2840,2320 L 2840,2329 L 2840,2332 L 2840,2333 L 2840,2335 L 2840,2337 L 2840,2338 L 2839,2340 L 2838,2342 L 2834,2347 L 2832,2348 L 2831,2350 L 2753,2428 L 2752,2430 L 2750,2432 L 2747,2436 L 2744,2441 L 2743,2443 L 2742,2445 L 2741,2450 L 2740,2455 L 2740,2458 L 2740,2461 L 2740,2548 L 2740,2550 L 2739,2553 L 2739,2557 L 2739,2559 L 2737,2564 L 2737,2567 L 2735,2572 L 2735,2573 L 2733,2573 L 2728,2575 L 2726,2576 L 2721,2577 L 2719,2577 L 2714,2578 L 2712,2578 L 2710,2578 L 2308,2578 L 2306,2578 L 2303,2578 L 2298,2577 L 2296,2577 L 2295,2576 L 2291,2573 L 2289,2571 L 2287,2569 L 2223,2505 L 2221,2503 L 2219,2501 L 2216,2497 L 2215,2496 L 2215,2495 L 2214,2489 L 2214,2487 L 2214,2484 L 2214,2313 L 2214,2311 L 2213,2308 L 2213,2303 L 2212,2298 L 2211,2295 L 2210,2293 L 2207,2289 L 2204,2285 L 2202,2283 L 2200,2280 L 2012,2092 L 2010,2090 L 2008,2089 L 2003,2086 L 1999,2083 L 1997,2082 L 1994,2081 L 1989,2080 L 1988,2079 L 1986,2079 L 1984,2079 L 1983,2079 L 1982,2078 L 1979,2077 L 1976,2077 L 1971,2075 L 1969,2074 L 1967,2073 L 1966,2070 L 1965,2067 L 1964,2062 L 1964,2060 L 1963,2055 L 1963,2053 L 1963,2051 L 1963,2018 L 1963,2015 L 1961,2008 L 1957,2001 L 1950,1996 L 1947,1996 L 1943,1995 L 1817,1995 L 1811,1996 L 1809,1996 L 1802,2000 L 1798,2007 L 1796,2014 L 1796,2015 L 1796,2017 L 1796,2019 L 1795,2024 L 1794,2026 L 1792,2031 L 1791,2033 L 1791,2033 L 1786,2035 L 1783,2036 L 1778,2037 L 1776,2038 L 1771,2038 L 1769,2038 L 1767,2038 L 1588,2038 L 1585,2039 L 1582,2039 L 1577,2040 L 1572,2041 L 1570,2042 L 1567,2043 L 1563,2046 L 1559,2049 L 1557,2050 L 1555,2052 L 1469,2138 L 1467,2139 L 1465,2141 L 1461,2144 L 1459,2146 L 1455,2148 L 1455,2148 L 1453,2148 L 1451,2148 L 1448,2147 L 1441,2147 L 1436,2146 L 1422,2146 L 1418,2147 L 1412,2147 L 1405,2150 L 1401,2151 L 1388,2157 L 1384,2159 L 1381,2160 L 1373,2167 L 1370,2170 L 1360,2180 L 1357,2184 L 1357,2184 L 1351,2196 L 1349,2200 L 1344,2213 L 1344,2215 L 1344,2217 L 1343,2231 L 1343,2235 L 1344,2249 L 1344,2252 L 1344,2253 L 1349,2267 L 1351,2270 L 1356,2282 L 1357,2283 L 1360,2286 L 1370,2296 L 1373,2299 L 1381,2306 L 1384,2308 L 1388,2310 L 1401,2315 L 1405,2317 L 1412,2319 L 1418,2320 L 1422,2320 L 1436,2320 L 1441,2320 L 1446,2319 L 1454,2317 L 1458,2315 L 1471,2310 L 1475,2308 L 1478,2306 L 1486,2299 L 1489,2296 L 1499,2286 L 1502,2283 L 1502,2282 L 1508,2270 L 1510,2267 L 1514,2253 L 1515,2250 L 1516,2249 L 1516,2235 L 1516,2231 L 1516,2217 L 1515,2215 L 1515,2213 L 1515,2212 L 1515,2209 L 1515,2208 L 1517,2204 L 1518,2202 L 1522,2197 L 1523,2196 L 1525,2194 L 1592,2126 L 1594,2125 L 1596,2123 L 1601,2120 L 1602,2119 L 1603,2119 L 1608,2118 L 1611,2118 L 1614,2118 L 1767,2118 L 1769,2118 L 1771,2118 L 1776,2118 L 1778,2119 L 1783,2120 L 1786,2121 L 1791,2123 L 1791,2123 L 1792,2125 L 1794,2130 L 1795,2133 L 1796,2137 L 1796,2140 L 1796,2141 L 1796,2142 L 1798,2148 L 1802,2155 L 1809,2160 L 1817,2161 L 1820,2161 L 1940,2161 L 1943,2161 L 1949,2160 L 1952,2159 L 1954,2159 L 1954,2159 L 1959,2159 L 1962,2159 L 1965,2159 L 1967,2161 L 1969,2162 L 1973,2165 L 1974,2167 L 1976,2168 L 2126,2318 L 2128,2320 L 2130,2322 L 2133,2326 L 2134,2327 L 2134,2329 L 2135,2334 L 2135,2337 L 2135,2339 L 2135,2510 L 2135,2513 L 2135,2515 L 2136,2519 L 2137,2522 L 2137,2525 L 2138,2528 L 2139,2529 L 2141,2532 L 2143,2536 L 2145,2539 L 2147,2541 L 2148,2543 L 2249,2644 L 2252,2646 L 2254,2647 L 2258,2650 L 2262,2653 L 2264,2654 L 2267,2655 L 2272,2656 L 2277,2657 L 2279,2657 L 2282,2658 L 2776,2658 L 2779,2657 L 2782,2657 L 2786,2656 L 2790,2655 L 2794,2654 L 2794,2654 L 2798,2652 L 2802,2650 L 2805,2647 L 2807,2646 L 2809,2644 L 2811,2640 L 2814,2637 L 2816,2633 L 2816,2633 L 2817,2629 L 2818,2624 L 2818,2620 L 2819,2618 L 2819,2615 L 2819,2600 L 2820,2594 L 2820,2592 L 2821,2588 L 2822,2585 L 2823,2580 L 2824,2578 L 2827,2573 L 2828,2570 L 2832,2564 L 2833,2562 L 2834,2560 L 2841,2563 L 2843,2564 L 2848,2566 L 2849,2567 L 2851,2568 L 2853,2569 L 2856,2571 L 2858,2572 L 2862,2575 L 2864,2576 L 2864,2576 L 2867,2579 L 2867,2579 L 2869,2580 L 2871,2581 L 2875,2585 L 2877,2586 L 2881,2588 L 2893,2593 L 2897,2595 L 2904,2597 L 2909,2597 L 2913,2598 L 2926,2598 L 2930,2597 L 2935,2597 L 2942,2595 L 2946,2593 L 2957,2588 L 2957,2588 L 2959,2588 L 2961,2587 L 2961,2586 L 2965,2585 L 2968,2584 L 2973,2582 L 2974,2582 L 2975,2582 L 2980,2581 L 2981,2580 L 2984,2580 L 2987,2579 L 2989,2583 L 2991,2585 L 2993,2591 L 2994,2593 L 2996,2598 L 2996,2601 L 2998,2605 L 2998,2608 L 2998,2612 L 2998,2614 L 2999,2616 L 2999,2653 L 2999,2658 L 2999,2778 L 2999,2783 L 2998,2784 L 2998,2787 L 2998,2791 L 2997,2793 L 2996,2798 L 2996,2800 L 2996,2800 L 2992,2804 L 2991,2806 L 2987,2809 L 2987,2809 L 2985,2810 L 2980,2811 L 2978,2811 L 2973,2812 L 2971,2812 L 2969,2812 L 2694,2812 L 2691,2812 L 2688,2813 L 2683,2814 L 2678,2815 L 2676,2815 L 2673,2817 L 2669,2819 L 2665,2822 L 2663,2824 L 2661,2826 L 2633,2853 L 2632,2855 L 2630,2857 L 2627,2862 L 2624,2866 L 2623,2868 L 2622,2871 L 2621,2876 L 2620,2881 L 2620,2883 L 2619,2890 L 2619,2894 L 2618,2897 L 2618,2899 L 2616,2901 L 2615,2902 L 2614,2903 L 2610,2906 L 2608,2908 L 2606,2909 L 2604,2911 L 2601,2913 L 2599,2915 L 2592,2923 L 2590,2926 L 2582,2938 L 2580,2941 L 2580,2943 L 2577,2954 L 2576,2958 L 2573,2971 L 2573,2975 L 2573,2978 L 2574,2989 L 2575,2993 L 2578,3006 L 2579,3010 L 2580,3013 L 2585,3022 L 2587,3025 L 2595,3036 L 2598,3039 L 2599,3041 L 2606,3046 L 2608,3048 L 2608,3048 L 2610,3049 L 2611,3050 L 2614,3053 L 2616,3054 L 2618,3056 L 2618,3059 L 2619,3061 L 2619,3066 L 2620,3069 L 2620,3071 L 2620,3266 L 2620,3269 L 2619,3271 L 2619,3277 L 2618,3278 L 2618,3279 L 2614,3283 L 2613,3285 L 2611,3287 L 2551,3347 L 2549,3349 L 2548,3350 L 2544,3353 L 2543,3354 L 2539,3357 L 2537,3358 L 2532,3360 L 2530,3361 L 2524,3363 L 2522,3364 L 2514,3366 L 2513,3366 L 2512,3366 L 2508,3359 L 2507,3357 L 2504,3351 L 2504,3349 L 2502,3344 L 2501,3342 L 2500,3337 L 2500,3335 L 2499,3330 L 2499,3328 L 2499,3326 L 2499,3181 L 2499,3178 L 2498,3171 L 2493,3164 L 2487,3160 L 2479,3158 L 2476,3158 L 2403,3158 L 2400,3158 L 2393,3159 L 2386,3164 L 2381,3170 L 2380,3178 L 2380,3181 L 2380,3373 L 2380,3376 L 2381,3383 L 2386,3390 L 2392,3394 L 2400,3396 L 2403,3396 L 2429,3396 L 2431,3396 L 2433,3397 L 2438,3397 L 2440,3397 L 2445,3398 L 2447,3399 L 2452,3401 L 2454,3402 L 2460,3404 L 2462,3405 L 2469,3409 L 2469,3410 L 2469,3412 L 2467,3419 L 2466,3421 L 2464,3427 L 2463,3429 L 2461,3434 L 2460,3436 L 2457,3440 L 2456,3441 L 2453,3445 L 2452,3447 L 2450,3448 L 2409,3489 L 2407,3491 L 2405,3493 L 2401,3496 L 2400,3497 L 2398,3497 L 2393,3498 L 2390,3498 L 2388,3498 L 2330,3498 L 2328,3498 L 2325,3498 L 2321,3497 L 2318,3497 L 2314,3496 L 2311,3495 L 2306,3493 L 2304,3493 L 2304,3492 L 2302,3487 L 2302,3484 L 2300,3479 L 2300,3477 L 2299,3473 L 2299,3470 L 2299,3468 L 2299,3442 L 2299,3439 L 2298,3432 L 2293,3425 L 2287,3420 L 2279,3419 L 2276,3418 L 2203,3418 L 2200,3419 L 2193,3420 L 2186,3424 L 2182,3431 L 2180,3439 L 2180,3442 L 2180,3468 L 2180,3470 L 2179,3473 L 2179,3477 L 2179,3479 L 2177,3484 L 2177,3487 L 2175,3492 L 2175,3493 L 2173,3493 L 2167,3495 L 2165,3496 L 2160,3497 L 2158,3497 L 2154,3498 L 2151,3498 L 2149,3498 L 2084,3498 L 2082,3498 L 2079,3498 L 2074,3497 L 2073,3497 L 2071,3496 L 2067,3493 L 2065,3491 L 2063,3489 L 1928,3354 L 1926,3352 L 1924,3350 L 1921,3346 L 1920,3345 L 1920,3343 L 1919,3338 L 1919,3335 L 1919,3333 L 1919,3164 L 1919,3162 L 1919,3160 L 1920,3155 L 1920,3153 L 1922,3148 L 1922,3145 L 1924,3140 L 1924,3140 L 1926,3139 L 1932,3137 L 1934,3136 L 1939,3135 L 1941,3135 L 1943,3135 L 1944,3135 L 1950,3133 L 1957,3129 L 1961,3122 L 1963,3114 L 1963,3111 L 1963,2991 L 1963,2988 L 1961,2981 L 1957,2974 L 1950,2970 L 1942,2968 L 1939,2968 L 1819,2968 L 1817,2968 L 1809,2970 L 1802,2974 L 1798,2981 L 1796,2988 L 1796,2992 L 1796,3112 L 1796,3114 L 1798,3122 L 1802,3128 L 1809,3133 L 1816,3135 L 1817,3135 L 1818,3135 L 1820,3135 L 1825,3136 L 1828,3137 L 1833,3139 L 1835,3139 L 1835,3140 L 1837,3145 L 1838,3148 L 1839,3153 L 1839,3155 L 1840,3159 L 1840,3162 L 1840,3164 L 1840,3359 L 1840,3362 L 1840,3364 L 1841,3369 L 1842,3374 L 1843,3377 L 1844,3379 L 1847,3383 L 1850,3387 L 1852,3389 L 1854,3392 L 2025,3564 L 2028,3566 L 2030,3567 L 2034,3570 L 2038,3573 L 2041,3574 L 2043,3575 L 2048,3576 L 2053,3577 L 2056,3577 L 2059,3577 L 2149,3577 L 2151,3577 L 2154,3578 L 2158,3578 L 2160,3578 L 2165,3580 L 2167,3580 L 2173,3582 L 2175,3583 L 2175,3583 L 2177,3589 L 2177,3591 L 2179,3596 L 2179,3598 L 2179,3603 L 2180,3605 L 2180,3607 L 2180,3634 L 2180,3636 L 2181,3644 L 2186,3651 L 2195,3656 L 2197,3657 L 2199,3658 L 2200,3659 L 2204,3660 L 2206,3661 L 2279,3661 L 2291,3660 L 2304,3655 L 2316,3647 L 2328,3636 L 2343,3622 L 2421,3622 L 2428,3622 L 2433,3621 L 2447,3620 L 2452,3619 L 2467,3615 L 2472,3614 L 2488,3608 L 2493,3606 L 2511,3597 L 2550,3636 L 2563,3647 L 2575,3655 L 2588,3660 L 2600,3661 L 2673,3661 L 2673,3661 L 2675,3660 L 2679,3658 L 2680,3658 L 2682,3657 L 2684,3656 L 2693,3651 L 2697,3644 L 2699,3636 L 2699,3633 L 2699,3442 L 2699,3439 L 2698,3432 L 2693,3425 L 2687,3420 L 2679,3419 L 2676,3418 L 2665,3418 L 2663,3418 L 2661,3418 L 2656,3418 L 2654,3417 L 2649,3416 L 2647,3416 L 2642,3414 L 2640,3413 L 2634,3411 L 2632,3409 L 2625,3405 L 2625,3405 L 2625,3403 L 2627,3396 L 2628,3394 L 2630,3388 L 2631,3386 L 2633,3381 L 2634,3379 L 2637,3375 L 2638,3373 L 2641,3370 L 2642,3368 L 2644,3367 L 2685,3325 L 2687,3323 L 2689,3321 L 2692,3317 L 2694,3312 L 2696,3310 L 2696,3308 L 2698,3303 L 2698,3298 L 2699,3295 L 2699,3292 L 2699,3071 L 2699,3069 L 2699,3067 L 2700,3061 L 2700,3059 L 2701,3056 L 2703,3054 L 2704,3054 L 2705,3053 L 2708,3049 L 2710,3048 L 2712,3046 L 2714,3045 L 2718,3043 L 2720,3041 L 2727,3032 L 2729,3029 L 2736,3018 L 2738,3014 L 2739,3013 L 2742,3001 L 2743,2997 L 2745,2984 L 2746,2980 L 2746,2978 L 2745,2967 L 2744,2963 L 2741,2950 L 2740,2946 L 2739,2943 L 2736,2938 L 2735,2936 L 2734,2934 L 2734,2934 L 2732,2930 L 2732,2930 L 2731,2928 L 2730,2924 L 2729,2922 L 2727,2917 L 2727,2917 L 2727,2915 L 2726,2911 L 2725,2908 L 2724,2905 L 2724,2903 L 2728,2900 L 2731,2899 L 2736,2897 L 2738,2896 L 2744,2894 L 2746,2894 L 2750,2892 L 2752,2892 L 2757,2892 L 2759,2892 L 2761,2891 L 2787,2891 L 2792,2891 L 2926,2891 L 2931,2891 L 3001,2891 L 3004,2891 L 3006,2891 L 3009,2891 L 3013,2890 L 3018,2889 L 3019,2888 L 3022,2887 L 3024,2885 L 3027,2883 L 3030,2881 L 3032,2880 L 3034,2878 L 3064,2848 L 3066,2846 L 3068,2844 L 3071,2839 L 3073,2835 L 3075,2833 L 3075,2830 L 3076,2825 L 3077,2820 L 3078,2818 L 3078,2815 L 3078,2228 L 3078,2225 L 3078,2223 L 3079,2217 L 3079,2216 L 3080,2215 L 3083,2211 L 3085,2209 L 3087,2207 L 3202,2092 L 3203,2090 L 3205,2089 L 3208,2086 L 3210,2085 L 3214,2082 L 3216,2081 L 3221,2079 L 3223,2078 L 3229,2075 L 3231,2075 L 3239,2073 L 3241,2072 L 3241,2072 L 3243,2076 L 3245,2080 L 3246,2082 L 3248,2089 L 3249,2091 L 3249,2091 L 3250,2096 L 3250,2096 L 3251,2098 L 3252,2103 L 3252,2105 L 3253,2107 L 3253,2109 L 3254,2113 L 3257,2126 L 3258,2130 L 3258,2131 L 3265,2142 L 3267,2145 L 3275,2156 L 3276,2159 L 3277,2160 L 3288,2168 L 3292,2170 L 3303,2177 L 3304,2178 L 3307,2178 L 3320,2182 L 3324,2183 L 3337,2185 L 3339,2185 L 3340,2185 L 3347,2184 L 3350,2183 L 3363,2181 L 3367,2180 L 3374,2177 L 3380,2175 L 3383,2173 L 3394,2165 L 3397,2162 L 3402,2158 L 3407,2153 L 3409,2149 L 3416,2138 L 3418,2134 L 3420,2131 L 3423,2122 L 3424,2118 L 3426,2104 L 3427,2100 L 3427,2098 L 3426,2087 L 3425,2083 L 3422,2070 L 3421,2066 L 3421,2065 L 3414,2054 L 3412,2050 L 3404,2039 L 3402,2037 L 3401,2036 L 3390,2028 L 3387,2026 L 3382,2023 L 3380,2022 L 3378,2020 L 3376,2018 L 3375,2018 L 3373,2016 L 3372,2016 L 3369,2013 L 3367,2011 L 3362,2007 L 3361,2006 L 3361,2005 L 3356,2000 L 3355,1999 L 3354,1998 L 3355,1997 L 3361,1991 L 3362,1989 L 3364,1987 L 3367,1985 L 3368,1983 L 3369,1983 L 3373,1980 L 3374,1978 L 3378,1976 L 3380,1975 L 3380,1974 L 3382,1973 L 3383,1973 L 3394,1965 L 3397,1963 L 3402,1959 L 3407,1953 L 3409,1949 L 3416,1938 L 3418,1935 L 3420,1931 L 3423,1922 L 3424,1918 L 3426,1904 L 3427,1900 L 3427,1898 L 3426,1887 L 3425,1883 L 3422,1870 L 3421,1866 L 3421,1865 L 3414,1854 L 3412,1850 L 3404,1839 L 3402,1837 L 3401,1836 L 3390,1828 L 3387,1826 L 3375,1819 L 3375,1818 L 3372,1818 L 3358,1814 L 3355,1813 L 3341,1811 L 3339,1811 L 3338,1811 L 3331,1812 L 3329,1813 L 3315,1815 L 3312,1816 L 3304,1819 L 3299,1821 L 3296,1823 L 3284,1831 L 3281,1833 L 3276,1837 L 3272,1843 L 3269,1846 L 3262,1858 L 3260,1861 L 3258,1865 L 3256,1874 L 3255,1878 L 3252,1891 L 3252,1896 L 3252,1898 L 3253,1909 L 3253,1909 L 3253,1912 L 3254,1913 L 3254,1914 L 3254,1919 L 3254,1922 L 3254,1924 L 3253,1927 L 3251,1929 L 3248,1933 L 3246,1935 L 3245,1936 L 3059,2122 L 3057,2124 L 3055,2126 L 3052,2128 L 3050,2130 L 3046,2132 L 3044,2133 L 3039,2136 L 3037,2136 L 3036,2136 L 3031,2133 L 3029,2132 L 3025,2130 L 3023,2128 L 3020,2126 L 3018,2124 L 3016,2122 L 2926,2032 L 2923,2030 L 2921,2029 L 2917,2026 L 2913,2023 L 2911,2022 L 2908,2021 L 2903,2020 L 2898,2019 L 2896,2019 L 2893,2018 L 2749,2018 L 2747,2018 L 2745,2018 L 2740,2018 L 2738,2017 L 2733,2016 L 2731,2015 L 2725,2014 L 2724,2013 L 2724,2012 L 2722,2007 L 2721,2004 L 2720,2000 L 2720,1997 L 2719,1993 L 2719,1991 L 2719,1988 L 2719,1852 L 2719,1849 L 2719,1847 L 2720,1842 L 2720,1839 L 2721,1836 L 2723,1835 L 2724,1834 L 2725,1833 L 2728,1830 L 2730,1828 L 2732,1827 L 2734,1825 L 2738,1823 L 2740,1820 L 2741,1820 L 2745,1816 L 2746,1815 L 2748,1813 L 2750,1812 L 2751,1811 L 2751,1810 L 2756,1807 L 2757,1806 L 2763,1802 L 2763,1802 L 2765,1801 L 2769,1798 L 2772,1797 L 2774,1795 L 2776,1795 L 2780,1801 L 2782,1803 L 2785,1809 L 2786,1811 L 2789,1817 L 2790,1819 L 2791,1824 L 2791,1825 L 2792,1826 L 2793,1831 L 2793,1832 L 2798,1839 L 2805,1843 L 2812,1845 L 2815,1845 L 2943,1845 L 2946,1845 L 2953,1844 L 2960,1839 L 2965,1833 L 2966,1825 L 2967,1819 L 2967,1817 L 2968,1814 L 2969,1809 L 2969,1807 L 2971,1802 L 2972,1802 L 2974,1801 L 2980,1799 L 2982,1799 L 2986,1798 L 2987,1797 L 2988,1797 L 2989,1797 L 2991,1797 L 2993,1796 L 2998,1795 L 3001,1794 L 3003,1793 L 3007,1790 L 3011,1787 L 3013,1786 L 3016,1784 L 3090,1709 L 3092,1707 L 3094,1705 L 3097,1701 L 3099,1697 L 3101,1694 L 3101,1692 L 3103,1687 L 3103,1682 L 3104,1679 L 3104,1676 L 3104,1541 L 3104,1539 L 3104,1537 L 3105,1532 L 3105,1529 L 3106,1527 L 3108,1525 L 3109,1524 L 3110,1523 L 3113,1520 L 3114,1519 L 3115,1519 L 3117,1517 L 3384,1249 L 3386,1248 L 3388,1246 L 3390,1244 L 3390,1244 L 3532,1162 L 3535,1161 L 3540,1156 L 3544,1149 L 3545,1141 L 3542,1133 L 3541,1130 L 3504,1067 L 3503,1065 L 3498,1059 L 3491,1056 L 3483,1055 L 3481,1055 L 3479,1056 L 3477,1057 L 3475,1057 L 3472,1058 L 3470,1058 L 3465,1060 L 3463,1060 L 3456,1060 L 3454,1061 L 3446,1060 L 3443,1060 L 3433,1059 L 3430,1058 L 3430,1058 L 3431,1047 L 3431,1045 L 3433,1037 L 3434,1034 L 3436,1028 L 3437,1026 L 3440,1021 L 3441,1019 L 3443,1014 L 3445,1012 L 3447,1009 L 3449,1007 L 3450,1006 L 3510,946 L 3512,944 L 3514,942 L 3516,941 L 3516,941 L 3651,863 L 3654,862 L 3656,860 L 3660,859 L 3661,858 L 3662,858 L 3667,856 L 3669,855 L 3676,852 L 3678,851 L 3689,845 L 3692,844 L 3700,839 L 3835,1075 L 3822,1083 L 3819,1085 L 3812,1090 L 3810,1092 L 3805,1095 L 3803,1097 L 3800,1099 L 3800,1100 L 3798,1101 L 3794,1104 L 3793,1105 L 3791,1106 L 3632,1198 L 3630,1199 L 3624,1204 L 3620,1211 L 3620,1219 L 3622,1227 L 3623,1230 L 3660,1293 L 3661,1295 L 3666,1300 L 3674,1304 L 3681,1305 L 3689,1302 L 3692,1301 L 3699,1297 L 3700,1296 L 3702,1295 L 3706,1293 L 3708,1293 L 3713,1291 L 3715,1291 L 3720,1290 L 3722,1289 L 3728,1289 L 3731,1289 L 3733,1288 L 3735,1292 L 3737,1294 L 3739,1300 L 3740,1302 L 3741,1307 L 3742,1309 L 3743,1313 L 3743,1315 L 3744,1319 L 3744,1322 L 3744,1324 L 3744,1380 L 3744,1382 L 3744,1385 L 3743,1389 L 3743,1391 L 3742,1396 L 3741,1399 L 3739,1404 L 3738,1406 L 3735,1412 L 3734,1415 L 3729,1422 L 3728,1424 L 3727,1423 L 3719,1420 L 3716,1418 L 3710,1415 L 3708,1413 L 3704,1410 L 3704,1410 L 3702,1409 L 3700,1407 L 3691,1402 L 3683,1401 L 3675,1404 L 3672,1405 L 3506,1501 L 3504,1503 L 3498,1507 L 3495,1515 L 3494,1523 L 3496,1530 L 3498,1533 L 3503,1541 L 3504,1543 L 3505,1545 L 3507,1550 L 3507,1552 L 3509,1556 L 3508,1557 L 3508,1559 L 3507,1561 L 3506,1562 L 3505,1566 L 3503,1571 L 3502,1576 L 3501,1581 L 3501,1584 L 3501,1587 L 3501,2268 L 3501,2270 L 3501,2273 L 3500,2278 L 3500,2280 L 3499,2281 L 3496,2285 L 3494,2287 L 3492,2289 L 3376,2405 L 3374,2407 L 3373,2408 L 3369,2411 L 3366,2413 L 3365,2414 L 3361,2413 L 3359,2413 L 3359,2413 L 3355,2413 L 3354,2413 L 3352,2413 L 3349,2412 L 3341,2411 L 3339,2411 L 3338,2411 L 3331,2412 L 3329,2412 L 3315,2415 L 3312,2416 L 3304,2418 L 3299,2421 L 3296,2423 L 3284,2431 L 3281,2433 L 3276,2437 L 3272,2443 L 3269,2446 L 3262,2458 L 3260,2461 L 3258,2465 L 3256,2474 L 3255,2478 L 3253,2486 L 3253,2491 L 3253,2495 L 3253,2509 L 3253,2510 L 3254,2513 L 3257,2526 L 3258,2530 L 3258,2531 L 3265,2542 L 3267,2545 L 3275,2556 L 3277,2559 L 3277,2559 L 3277,2560 L 3281,2563 L 3283,2565 L 3286,2568 L 3287,2569 L 3287,2570 L 3290,2573 L 3290,2574 L 3292,2576 L 3295,2581 L 3296,2583 L 3298,2586 L 3300,2590 L 3302,2593 L 3302,2594 L 3303,2594 L 3296,2599 L 3294,2600 L 3288,2604 L 3286,2605 L 3281,2607 L 3278,2608 L 3274,2610 L 3272,2610 L 3272,2610 L 3266,2612 L 3266,2612 L 3258,2616 L 3254,2623 L 3253,2626 L 3253,2631 L 3253,2765 L 3253,2770 L 3253,2772 L 3258,2779 L 3264,2783 L 3272,2785 L 3275,2785 L 3403,2785 L 3406,2785 L 3413,2784 L 3420,2779 L 3425,2773 L 3426,2765 L 3427,2759 L 3427,2757 L 3428,2754 L 3429,2749 L 3429,2747 L 3431,2742 L 3432,2742 L 3434,2741 L 3440,2739 L 3442,2738 L 3446,2738 L 3447,2737 L 3448,2737 L 3449,2737 L 3451,2736 L 3453,2736 L 3458,2735 L 3461,2734 L 3463,2733 L 3467,2730 L 3471,2727 L 3473,2726 L 3476,2724 L 3645,2554 L 3647,2552 L 3649,2550 L 3652,2546 L 3654,2541 L 3656,2539 L 3656,2537 L 3657,2532 L 3658,2527 L 3659,2524 L 3659,2521 L 3659,1925 L 3659,1923 L 3659,1921 L 3660,1916 L 3660,1914 L 3661,1909 L 3662,1907 L 3663,1902 L 3664,1900 L 3667,1894 L 3668,1892 L 3672,1885 L 3674,1883 L 3677,1878 L 3681,1880 L 3683,1881 L 3686,1883 L 3690,1885 L 3692,1887 L 3698,1890 L 3700,1892 L 3704,1895 L 3705,1897 L 3709,1901 L 3710,1902 L 3713,1906 L 3714,1908 L 3715,1910 L 3734,1942 L 3736,1945 L 3740,1950 L 3748,1954 L 3756,1955 L 3763,1952 L 3766,1951 L 3932,1855 L 3935,1853 L 3940,1849 L 3944,1841 L 3944,1833 L 3942,1826 L 3941,1823 L 3904,1760 L 3903,1758 L 3898,1752 L 3891,1748 L 3883,1748 L 3875,1750 L 3872,1751 L 3704,1848 L 3704,1849 L 3702,1850 L 3700,1851 L 3696,1854 L 3693,1855 L 3688,1859 L 3685,1861 L 3676,1868 L 3676,1868 L 3675,1866 L 3670,1858 L 3668,1856 L 3665,1849 L 3664,1847 L 3662,1841 L 3661,1839 L 3660,1834 L 3660,1831 L 3659,1827 L 3659,1824 L 3659,1822 L 3659,1707 L 3659,1705 L 3659,1702 L 3660,1697 L 3660,1695 L 3661,1694 L 3664,1690 L 3666,1688 L 3668,1686 L 3779,1575 L 3780,1573 L 3782,1572 L 3786,1569 L 3788,1568 L 3792,1565 L 3794,1564 L 3799,1561 L 3802,1560 L 3808,1558 L 3810,1558 L 3811,1558 L 3815,1565 L 3816,1567 L 3819,1571 L 3821,1573 L 3821,1574 L 3824,1577 L 3825,1579 L 3826,1581 L 3860,1639 L 3861,1641 L 3866,1647 L 3873,1651 L 3881,1651 L 3889,1649 L 3892,1647 L 4048,1557 L 4050,1556 L 4052,1555 L 4057,1553 L 4059,1552 L 4061,1552 L 4064,1551 L 4066,1550 L 4072,1548 L 4075,1547 L 4084,1543 L 4087,1542 L 4099,1536 L 4185,1688 L 4185,1874 L 3184,3726 L 1015,3726 L 0,1972 L 0,1712 L 112,1530 L 122,1537 L 124,1539 L 135,1548 L 137,1550 L 137,1550 L 141,1554 L 143,1556 L 145,1558 L 145,1558 L 149,1563 L 150,1563 L 151,1564 L 154,1567 L 154,1568 L 156,1570 L 157,1572 L 159,1573 L 160,1575 L 160,1576 L 161,1577 L 162,1578 L 164,1580 L 224,1640 L 226,1642 L 227,1644 L 231,1648 L 231,1649 L 232,1650 L 232,1656 L 233,1658 L 233,1661 L 233,2011 L 233,2014 L 233,2016 L 234,2021 L 235,2026 L 236,2029 L 237,2031 L 240,2036 L 243,2040 L 244,2042 L 246,2044 L 361,2159 L 363,2161 L 365,2163 L 368,2167 L 369,2168 L 369,2170 L 370,2175 L 370,2178 L 370,2180 L 370,2222 L 371,2224 L 371,2227 L 372,2232 L 373,2237 L 374,2240 L 375,2242 L 378,2246 L 381,2250 L 382,2252 L 384,2255 L 752,2623 L 754,2625 L 756,2627 L 759,2631 L 760,2632 L 760,2633 L 761,2639 L 761,2641 L 761,2644 L 761,2801 L 761,2804 L 761,2806 L 762,2811 L 763,2816 L 764,2819 L 765,2821 L 768,2825 L 771,2829 L 773,2831 L 775,2834 L 830,2889 L 832,2891 L 834,2892 L 838,2895 L 843,2898 L 845,2899 L 847,2900 L 852,2901 L 857,2902 L 860,2902 L 863,2903 L 966,2903 L 969,2902 L 972,2902 L 976,2901 L 979,2901 L 982,2900 L 985,2899 L 985,2899 L 989,2897 L 992,2895 L 996,2892 L 997,2891 L 1000,2889 L 1251,2638 L 1253,2636 L 1254,2634 L 1257,2629 L 1260,2625 L 1261,2623 L 1262,2620 L 1263,2615 L 1264,2610 L 1264,2608 L 1264,2605 L 1264,2294 L 1264,2290 L 1264,2288 L 1264,2173 L 1264,2170 L 1264,2167 L 1264,2104 L 1264,2101 L 1265,2099 L 1265,2093 L 1266,2092 L 1266,2091 L 1270,2086 L 1271,2084 L 1273,2083 L 1806,1550 L 1808,1548 L 1810,1546 L 1814,1543 L 1816,1542 L 1821,1539 L 1821,1539 L 1822,1539 L 1823,1539 L 1827,1540 L 1828,1540 L 1831,1540 L 1833,1541 L 1840,1543 L 1844,1544 L 1857,1546 L 1860,1546 L 1861,1546 L 1867,1545 L 1870,1544 L 1884,1542 L 1888,1541 L 1892,1539 L 1900,1535 L 1903,1533 L 1915,1525 L 1918,1523 L 1920,1521 L 1927,1513 L 1929,1509 L 1935,1501 L 1936,1499 L 1937,1498 L 1937,1497 L 1939,1495 L 1940,1493 L 1941,1491 L 1944,1487 L 1946,1486 L 1948,1484 L 1950,1481 L 1952,1479 L 1953,1479 L 1958,1474 L 1959,1473 L 1961,1474 L 1963,1476 L 1967,1479 L 1969,1481 L 1973,1486 L 1974,1487 L 1974,1488 L 1977,1491 L 1978,1491 L 1979,1493 L 1982,1497 L 1983,1499 L 1984,1501 L 1985,1502 L 1987,1505 L 1995,1516 L 1998,1520 L 1999,1521 L 2008,1528 L 2012,1530 L 2023,1537 L 2027,1539 L 2027,1539 L 2040,1543 L 2044,1544 L 2057,1546 L 2059,1546 L 2061,1546 L 2067,1545 L 2070,1544 L 2084,1542 L 2088,1541 L 2092,1539 L 2100,1535 L 2103,1533 L 2115,1525 L 2118,1523 L 2120,1521 L 2127,1513 L 2129,1509 L 2136,1498 L 2138,1494 L 2139,1493 L 2142,1482 L 2143,1478 L 2146,1464 L 2146,1460 L 2146,1458 L 2145,1448 L 2145,1447 L 2145,1446 L 2144,1443 L 2144,1443 L 2144,1438 L 2144,1436 L 2144,1432 L 2145,1431 L 2146,1429 L 2149,1425 L 2151,1423 L 2153,1421 L 2219,1355 L 2221,1353 L 2222,1350 L 2225,1346 L 2228,1342 L 2229,1340 L 2230,1337 L 2231,1332 L 2232,1327 L 2232,1325 L 2233,1322 L 2233,738 L 2233,736 L 2233,733 L 2233,728 L 2234,726 L 2234,725 L 2238,721 L 2240,719 L 2241,717 L 2400,558 L 2402,556 L 2404,554 L 2407,549 L 2409,545 L 2411,543 L 2411,540 L 2413,535 L 2413,530 L 2414,528 L 2414,525 L 2414,521 L 2414,520 L 2415,517 L 2415,517 L 2416,513 L 2417,507 L 2417,505 L 2418,502 L 2418,248 L 2418,246 L 2418,244 L 2418,239 L 2419,237 L 2420,232 L 2420,230 L 2422,224 L 2423,222 L 2425,219 L 2428,219 L 2431,219 L 2436,219 L 2438,218 L 2440,218 L 2443,218 L 2445,218 L 2448,218 L 2516,218 L 2519,217 L 2526,216 L 2533,212 L 2537,205 L 2539,197 L 2539,194 L 2539,14 L 2539,12 L 2539,10 L 2540,5 L 2540,3 L 2541,0M 2620,455 L 2620,458 L 2621,465 L 2626,472 L 2632,476 L 2640,478 L 2643,478 L 2716,478 L 2719,478 L 2726,477 L 2733,472 L 2737,466 L 2739,458 L 2739,455 L 2739,263 L 2739,260 L 2738,253 L 2733,246 L 2727,241 L 2719,240 L 2716,240 L 2643,240 L 2640,240 L 2633,241 L 2626,246 L 2621,252 L 2620,260 L 2620,263 L 2620,455 z " style="fill-opacity:1.000000;fill:rgb(5,23,88);stroke:rgb(0,0,0);stroke-width:2"/></g>
<g fill-rule="evenodd"><path d="M 1816,3135 L 1809,3133 L 1802,3128 L 1798,3122 L 1796,3114 L 1796,3112 L 1796,2992 L 1796,2988 L 1798,2981 L 1802,2974 L 1809,2970 L 1817,2968 L 1819,2968 L 1939,2968 L 1942,2968 L 1950,2970 L 1957,2974 L 1961,2981 L 1963,2988 L 1963,2991 L 1963,3111 L 1963,3114 L 1961,3122 L 1957,3129 L 1950,3133 L 1944,3135 L 1943,3135 L 1941,3135 L 1939,3135 L 1934,3136 L 1932,3137 L 1926,3139 L 1924,3140 L 1924,3140 L 1922,3145 L 1922,3148 L 1920,3153 L 1920,3155 L 1919,3160 L 1919,3162 L 1919,3164 L 1919,3333 L 1919,3335 L 1919,3338 L 1920,3343 L 1920,3345 L 1921,3346 L 1924,3350 L 1926,3352 L 1928,3354 L 2063,3489 L 2065,3491 L 2067,3493 L 2071,3496 L 2073,3497 L 2074,3497 L 2079,3498 L 2082,3498 L 2084,3498 L 2149,3498 L 2151,3498 L 2154,3498 L 2158,3497 L 2160,3497 L 2165,3496 L 2167,3495 L 2173,3493 L 2175,3493 L 2175,3492 L 2177,3487 L 2177,3484 L 2179,3479 L 2179,3477 L 2179,3473 L 2180,3470 L 2180,3468 L 2180,3442 L 2180,3439 L 2182,3431 L 2186,3424 L 2193,3420 L 2200,3419 L 2203,3418 L 2276,3418 L 2279,3419 L 2287,3420 L 2293,3425 L 2298,3432 L 2299,3439 L 2299,3442 L 2299,3468 L 2299,3470 L 2299,3473 L 2300,3477 L 2300,3479 L 2302,3484 L 2302,3487 L 2304,3492 L 2304,3493 L 2306,3493 L 2311,3495 L 2314,3496 L 2318,3497 L 2321,3497 L 2325,3498 L 2328,3498 L 2330,3498 L 2388,3498 L 2390,3498 L 2393,3498 L 2398,3497 L 2400,3497 L 2401,3496 L 2405,3493 L 2407,3491 L 2409,3489 L 2450,3448 L 2452,3447 L 2453,3445 L 2456,3441 L 2457,3440 L 2460,3436 L 2461,3434 L 2463,3429 L 2464,3427 L 2466,3421 L 2467,3419 L 2469,3412 L 2469,3410 L 2479,3406 L 2489,3401 L 2497,3394 L 2503,3386 L 2509,3376 L 2513,3366 L 2514,3366 L 2522,3364 L 2524,3363 L 2530,3361 L 2532,3360 L 2537,3358 L 2539,3357 L 2543,3354 L 2544,3353 L 2548,3350 L 2549,3349 L 2551,3347 L 2611,3287 L 2613,3285 L 2614,3283 L 2618,3279 L 2618,3278 L 2619,3277 L 2619,3271 L 2620,3269 L 2620,3266 L 2620,3071 L 2620,3069 L 2619,3066 L 2619,3061 L 2618,3059 L 2618,3056 L 2616,3054 L 2614,3053 L 2611,3050 L 2610,3049 L 2608,3048 L 2608,3048 L 2606,3046 L 2599,3041 L 2598,3039 L 2595,3036 L 2587,3025 L 2585,3022 L 2580,3013 L 2579,3010 L 2578,3006 L 2575,2993 L 2574,2989 L 2573,2978 L 2573,2975 L 2573,2971 L 2576,2958 L 2577,2954 L 2580,2943 L 2580,2941 L 2582,2938 L 2590,2926 L 2592,2923 L 2599,2915 L 2601,2913 L 2604,2911 L 2606,2909 L 2608,2908 L 2610,2906 L 2614,2903 L 2615,2902 L 2616,2901 L 2618,2899 L 2618,2897 L 2619,2894 L 2619,2890 L 2620,2883 L 2620,2881 L 2621,2876 L 2622,2871 L 2623,2868 L 2624,2866 L 2627,2862 L 2630,2857 L 2632,2855 L 2633,2853 L 2661,2826 L 2663,2824 L 2665,2822 L 2669,2819 L 2673,2817 L 2676,2815 L 2678,2815 L 2683,2814 L 2688,2813 L 2691,2812 L 2694,2812 L 2969,2812 L 2971,2812 L 2973,2812 L 2978,2811 L 2980,2811 L 2985,2810 L 2987,2809 L 2987,2809 L 2991,2806 L 2992,2804 L 2996,2800 L 2996,2800 L 2996,2798 L 2997,2793 L 2998,2791 L 2998,2787 L 2998,2784 L 2999,2783 L 2999,2778 L 2999,2658 L 2999,2653 L 2999,2616 L 2998,2614 L 2998,2612 L 2998,2608 L 2998,2605 L 2996,2601 L 2996,2598 L 2994,2593 L 2993,2591 L 2991,2585 L 2989,2583 L 2987,2579 L 2984,2580 L 2981,2580 L 2980,2581 L 2975,2582 L 2974,2582 L 2973,2582 L 2968,2584 L 2965,2585 L 2961,2586 L 2961,2587 L 2959,2588 L 2957,2588 L 2957,2588 L 2946,2593 L 2942,2595 L 2935,2597 L 2930,2597 L 2926,2598 L 2913,2598 L 2909,2597 L 2904,2597 L 2897,2595 L 2893,2593 L 2881,2588 L 2877,2586 L 2875,2585 L 2871,2581 L 2869,2580 L 2867,2579 L 2867,2579 L 2864,2576 L 2864,2576 L 2862,2575 L 2858,2572 L 2856,2571 L 2853,2569 L 2851,2568 L 2849,2567 L 2848,2566 L 2843,2564 L 2841,2563 L 2834,2560 L 2834,2560 L 2833,2553 L 2831,2540 L 2830,2534 L 2829,2521 L 2829,2515 L 2830,2502 L 2831,2496 L 2833,2483 L 2833,2480 L 2836,2477 L 2843,2467 L 2848,2462 L 2856,2453 L 2861,2448 L 2871,2440 L 2876,2436 L 2886,2429 L 2893,2425 L 2905,2418 L 2905,2418 L 2913,2418 L 2926,2418 L 2934,2418 L 2947,2418 L 2957,2418 L 2967,2418 L 2969,2415 L 2975,2405 L 2981,2392 L 2985,2385 L 2989,2373 L 2991,2367 L 2995,2354 L 2996,2349 L 2998,2337 L 2998,2332 L 2999,2320 L 2999,2316 L 2998,2303 L 2998,2299 L 2996,2287 L 2995,2282 L 2991,2269 L 2989,2263 L 2985,2251 L 2983,2246 L 2983,2244 L 2986,2237 L 2987,2235 L 2988,2228 L 2989,2226 L 2989,2221 L 2989,2220 L 2988,2217 L 2986,2212 L 2985,2210 L 2983,2205 L 2982,2203 L 2979,2199 L 2978,2198 L 2975,2194 L 2974,2193 L 2973,2191 L 2888,2106 L 2886,2105 L 2884,2103 L 2880,2100 L 2879,2099 L 2877,2099 L 2872,2098 L 2869,2098 L 2867,2098 L 2682,2098 L 2679,2097 L 2677,2097 L 2673,2096 L 2669,2095 L 2664,2094 L 2664,2094 L 2660,2092 L 2657,2090 L 2653,2087 L 2652,2086 L 2650,2084 L 2648,2081 L 2645,2077 L 2643,2073 L 2643,2073 L 2642,2069 L 2641,2064 L 2640,2060 L 2640,2058 L 2640,2055 L 2640,1852 L 2640,1849 L 2639,1847 L 2639,1842 L 2638,1839 L 2638,1836 L 2636,1835 L 2634,1833 L 2631,1831 L 2630,1830 L 2628,1828 L 2628,1828 L 2626,1827 L 2619,1821 L 2618,1820 L 2615,1816 L 2607,1805 L 2605,1802 L 2600,1793 L 2599,1790 L 2598,1786 L 2595,1773 L 2594,1769 L 2593,1758 L 2593,1756 L 2593,1752 L 2596,1738 L 2597,1735 L 2600,1723 L 2600,1722 L 2602,1718 L 2610,1707 L 2612,1703 L 2619,1695 L 2621,1693 L 2624,1691 L 2626,1689 L 2628,1688 L 2630,1686 L 2634,1683 L 2635,1682 L 2636,1681 L 2638,1680 L 2638,1677 L 2639,1674 L 2639,1669 L 2640,1667 L 2640,1664 L 2640,1552 L 2640,1549 L 2639,1547 L 2639,1542 L 2638,1539 L 2638,1536 L 2636,1535 L 2634,1533 L 2631,1531 L 2630,1530 L 2628,1528 L 2628,1528 L 2626,1527 L 2619,1521 L 2618,1520 L 2615,1516 L 2607,1505 L 2605,1502 L 2600,1493 L 2599,1490 L 2598,1486 L 2595,1473 L 2594,1469 L 2593,1458 L 2593,1456 L 2593,1452 L 2596,1438 L 2597,1435 L 2600,1423 L 2600,1422 L 2602,1418 L 2610,1407 L 2612,1403 L 2619,1395 L 2621,1393 L 2624,1391 L 2626,1389 L 2628,1388 L 2630,1386 L 2634,1383 L 2635,1382 L 2636,1381 L 2638,1380 L 2638,1377 L 2639,1374 L 2639,1369 L 2640,1367 L 2640,1364 L 2640,1252 L 2640,1249 L 2639,1247 L 2639,1242 L 2638,1239 L 2638,1236 L 2636,1235 L 2634,1233 L 2631,1231 L 2630,1230 L 2628,1228 L 2628,1228 L 2626,1227 L 2619,1221 L 2618,1220 L 2615,1216 L 2607,1205 L 2605,1202 L 2600,1193 L 2599,1190 L 2598,1186 L 2595,1173 L 2594,1169 L 2593,1158 L 2593,1156 L 2593,1152 L 2596,1138 L 2597,1135 L 2600,1123 L 2600,1122 L 2602,1118 L 2610,1107 L 2612,1104 L 2619,1095 L 2621,1093 L 2624,1091 L 2636,1083 L 2639,1081 L 2647,1077 L 2651,1075 L 2655,1074 L 2669,1072 L 2672,1071 L 2678,1070 L 2679,1070 L 2681,1071 L 2695,1073 L 2699,1073 L 2712,1077 L 2712,1077 L 2716,1079 L 2727,1086 L 2731,1088 L 2740,1096 L 2741,1096 L 2741,1096 L 2744,1099 L 2745,1100 L 2746,1102 L 2750,1105 L 2751,1106 L 2755,1108 L 2756,1109 L 2757,1110 L 2759,1112 L 2763,1114 L 2765,1115 L 2772,1119 L 2773,1120 L 2774,1121 L 2776,1122 L 2777,1126 L 2778,1139 L 2779,1146 L 2779,1160 L 2779,1167 L 2778,1180 L 2777,1187 L 2776,1195 L 2774,1195 L 2772,1197 L 2769,1199 L 2765,1201 L 2763,1202 L 2763,1202 L 2757,1206 L 2756,1207 L 2751,1210 L 2751,1211 L 2750,1212 L 2748,1214 L 2746,1215 L 2745,1216 L 2741,1220 L 2740,1221 L 2738,1223 L 2734,1225 L 2732,1227 L 2730,1228 L 2728,1230 L 2725,1233 L 2724,1234 L 2723,1235 L 2721,1237 L 2720,1239 L 2720,1242 L 2719,1247 L 2719,1249 L 2719,1252 L 2719,1364 L 2719,1367 L 2719,1369 L 2720,1374 L 2720,1377 L 2721,1380 L 2723,1381 L 2725,1383 L 2727,1385 L 2729,1386 L 2730,1388 L 2731,1388 L 2732,1389 L 2740,1395 L 2741,1396 L 2741,1396 L 2744,1399 L 2745,1400 L 2746,1402 L 2750,1405 L 2751,1406 L 2755,1408 L 2756,1409 L 2757,1410 L 2759,1412 L 2763,1414 L 2765,1415 L 2772,1419 L 2773,1420 L 2774,1421 L 2776,1422 L 2777,1426 L 2778,1439 L 2779,1446 L 2779,1460 L 2779,1466 L 2778,1480 L 2777,1487 L 2775,1501 L 2773,1508 L 2769,1522 L 2768,1525 L 2766,1531 L 2762,1546 L 2760,1557 L 2770,1583 L 2786,1608 L 2770,1634 L 2760,1659 L 2763,1671 L 2766,1683 L 2768,1691 L 2770,1697 L 2772,1705 L 2775,1718 L 2777,1726 L 2778,1739 L 2779,1746 L 2779,1760 L 2779,1766 L 2778,1780 L 2777,1787 L 2776,1795 L 2774,1795 L 2772,1797 L 2769,1798 L 2765,1801 L 2763,1802 L 2763,1802 L 2757,1806 L 2756,1807 L 2751,1810 L 2751,1811 L 2750,1812 L 2748,1813 L 2746,1815 L 2745,1816 L 2741,1820 L 2740,1820 L 2738,1823 L 2734,1825 L 2732,1827 L 2730,1828 L 2728,1830 L 2725,1833 L 2724,1834 L 2723,1835 L 2721,1836 L 2720,1839 L 2720,1842 L 2719,1847 L 2719,1849 L 2719,1852 L 2719,1988 L 2719,1991 L 2719,1993 L 2720,1997 L 2720,2000 L 2721,2004 L 2722,2007 L 2724,2012 L 2724,2013 L 2725,2014 L 2731,2015 L 2733,2016 L 2738,2017 L 2740,2018 L 2745,2018 L 2747,2018 L 2749,2018 L 2893,2018 L 2896,2019 L 2898,2019 L 2903,2020 L 2908,2021 L 2911,2022 L 2913,2023 L 2917,2026 L 2921,2029 L 2923,2030 L 2926,2032 L 3016,2122 L 3018,2124 L 3020,2126 L 3023,2128 L 3025,2130 L 3029,2132 L 3031,2133 L 3036,2136 L 3037,2136 L 3039,2136 L 3044,2133 L 3046,2132 L 3050,2130 L 3052,2128 L 3055,2126 L 3057,2124 L 3059,2122 L 3245,1936 L 3246,1935 L 3248,1933 L 3251,1929 L 3253,1927 L 3254,1924 L 3254,1922 L 3254,1919 L 3254,1914 L 3254,1913 L 3253,1912 L 3253,1909 L 3253,1909 L 3252,1898 L 3252,1896 L 3252,1891 L 3255,1878 L 3256,1874 L 3258,1865 L 3260,1861 L 3262,1858 L 3269,1846 L 3272,1843 L 3276,1837 L 3281,1833 L 3284,1831 L 3296,1823 L 3299,1821 L 3304,1819 L 3312,1816 L 3315,1815 L 3329,1813 L 3331,1812 L 3338,1811 L 3339,1811 L 3341,1811 L 3355,1813 L 3358,1814 L 3372,1818 L 3375,1818 L 3375,1819 L 3387,1826 L 3390,1828 L 3401,1836 L 3402,1837 L 3404,1839 L 3412,1850 L 3414,1854 L 3421,1865 L 3421,1866 L 3422,1870 L 3425,1883 L 3426,1887 L 3427,1898 L 3427,1900 L 3426,1904 L 3424,1918 L 3423,1922 L 3420,1931 L 3418,1935 L 3416,1938 L 3409,1949 L 3407,1953 L 3402,1959 L 3397,1963 L 3394,1965 L 3383,1973 L 3382,1973 L 3380,1974 L 3380,1975 L 3378,1976 L 3374,1978 L 3373,1980 L 3369,1983 L 3368,1983 L 3367,1985 L 3364,1987 L 3362,1989 L 3361,1991 L 3355,1997 L 3354,1998 L 3353,1998 L 3348,1998 L 3343,1998 L 3341,1998 L 3338,1998 L 3336,1998 L 3331,1998 L 3326,1998 L 3322,1998 L 3317,1998 L 3312,2001 L 3306,2004 L 3295,2012 L 3290,2016 L 3280,2024 L 3276,2028 L 3266,2038 L 3263,2042 L 3254,2053 L 3250,2058 L 3243,2070 L 3241,2072 L 3239,2073 L 3231,2075 L 3229,2075 L 3223,2078 L 3221,2079 L 3216,2081 L 3214,2082 L 3210,2085 L 3208,2086 L 3205,2089 L 3203,2090 L 3202,2092 L 3087,2207 L 3085,2209 L 3083,2211 L 3080,2215 L 3079,2216 L 3079,2217 L 3078,2223 L 3078,2225 L 3078,2228 L 3078,2815 L 3078,2818 L 3077,2820 L 3076,2825 L 3075,2830 L 3075,2833 L 3073,2835 L 3071,2839 L 3068,2844 L 3066,2846 L 3064,2848 L 3034,2878 L 3032,2880 L 3030,2881 L 3027,2883 L 3024,2885 L 3022,2887 L 3019,2888 L 3018,2889 L 3013,2890 L 3009,2891 L 3006,2891 L 3004,2891 L 3001,2891 L 2931,2891 L 2926,2891 L 2792,2891 L 2787,2891 L 2761,2891 L 2759,2892 L 2757,2892 L 2752,2892 L 2750,2892 L 2746,2894 L 2744,2894 L 2738,2896 L 2736,2897 L 2731,2899 L 2728,2900 L 2724,2903 L 2724,2905 L 2725,2908 L 2726,2911 L 2727,2915 L 2727,2917 L 2727,2917 L 2729,2922 L 2730,2924 L 2731,2928 L 2732,2930 L 2732,2930 L 2734,2934 L 2734,2934 L 2735,2936 L 2736,2938 L 2739,2943 L 2740,2946 L 2741,2950 L 2744,2963 L 2745,2967 L 2746,2978 L 2746,2980 L 2745,2984 L 2743,2997 L 2742,3001 L 2739,3013 L 2738,3014 L 2736,3018 L 2729,3029 L 2727,3032 L 2720,3041 L 2718,3043 L 2714,3045 L 2712,3046 L 2710,3048 L 2708,3049 L 2705,3053 L 2704,3054 L 2703,3054 L 2701,3056 L 2700,3059 L 2700,3061 L 2699,3067 L 2699,3069 L 2699,3071 L 2699,3292 L 2699,3295 L 2698,3298 L 2698,3303 L 2696,3308 L 2696,3310 L 2694,3312 L 2692,3317 L 2689,3321 L 2687,3323 L 2685,3325 L 2644,3367 L 2642,3368 L 2641,3370 L 2638,3373 L 2637,3375 L 2634,3379 L 2633,3381 L 2631,3386 L 2630,3388 L 2628,3394 L 2627,3396 L 2625,3403 L 2625,3405 L 2600,3415 L 2592,3419 L 2586,3425 L 2581,3431 L 2577,3439 L 2512,3594 L 2511,3597 L 2511,3597 L 2493,3606 L 2488,3608 L 2472,3614 L 2467,3615 L 2452,3619 L 2447,3620 L 2433,3621 L 2428,3622 L 2421,3622 L 2343,3622 L 2328,3636 L 2316,3647 L 2304,3655 L 2291,3660 L 2279,3661 L 2206,3661 L 2204,3660 L 2200,3659 L 2199,3658 L 2197,3657 L 2195,3656 L 2186,3651 L 2181,3644 L 2180,3636 L 2180,3634 L 2180,3607 L 2180,3605 L 2179,3603 L 2179,3598 L 2179,3596 L 2177,3591 L 2177,3589 L 2175,3583 L 2175,3583 L 2173,3582 L 2167,3580 L 2165,3580 L 2160,3578 L 2158,3578 L 2154,3578 L 2151,3577 L 2149,3577 L 2059,3577 L 2056,3577 L 2053,3577 L 2048,3576 L 2043,3575 L 2041,3574 L 2038,3573 L 2034,3570 L 2030,3567 L 2028,3566 L 2025,3564 L 1854,3392 L 1852,3389 L 1850,3387 L 1847,3383 L 1844,3379 L 1843,3377 L 1842,3374 L 1841,3369 L 1840,3364 L 1840,3362 L 1840,3359 L 1840,3164 L 1840,3162 L 1840,3159 L 1839,3155 L 1839,3153 L 1838,3148 L 1837,3145 L 1835,3140 L 1835,3139 L 1833,3139 L 1828,3137 L 1825,3136 L 1820,3135 L 1818,3135 L 1817,3135 L 1816,3135 z " style="fill-opacity:1.000000;fill:rgb(233,94,212);stroke:rgb(0,0,0);stroke-width:2"/></g>
<g fill-rule="evenodd"><path d="M 1959,1256 L 1959,1250 L 1960,1246 L 1960,1239 L 1959,1236 L 1959,1228 L 1960,1225 L 1960,1217 L 1959,1214 L 1959,1204 L 1960,1201 L 1960,1189 L 1959,1188 L 1959,1172 L 1960,1172 L 1960,1154 L 1959,1152 L 1959,1150 L 1959,1150 L 1959,1148 L 1959,1142 L 1956,1121 L 1955,1116 L 1949,1093 L 1947,1088 L 1942,1075 L 1863,883 L 2013,519 L 2015,517 L 2016,513 L 2019,508 L 2021,505 L 2023,502 L 2025,499 L 2027,496 L 2030,493 L 2032,492 L 2173,350 L 2175,349 L 2179,345 L 2183,342 L 2187,339 L 2193,336 L 2197,334 L 2201,332 L 2210,328 L 2214,319 L 2215,316 L 2217,311 L 2218,305 L 2219,300 L 2220,294 L 2220,289 L 2220,287 L 2220,260 L 2221,252 L 2224,244 L 2232,241 L 2240,240 L 2319,240 L 2327,241 L 2335,244 L 2338,252 L 2338,260 L 2338,458 L 2338,466 L 2335,474 L 2326,490 L 2322,492 L 2319,495 L 2318,496 L 2312,501 L 2240,531 L 2220,538 L 2198,542 L 2174,567 L 2138,654 L 2135,662 L 2133,667 L 2129,680 L 2128,685 L 2127,698 L 2126,703 L 2126,709 L 2126,1166 L 2127,1168 L 2134,1182 L 2137,1190 L 2141,1203 L 2143,1209 L 2146,1223 L 2147,1228 L 2149,1242 L 2149,1247 L 2150,1260 L 2150,1265 L 2149,1279 L 2148,1284 L 2146,1297 L 2144,1303 L 2144,1304 L 2136,1314 L 2132,1318 L 2123,1328 L 2119,1332 L 2108,1340 L 2104,1344 L 2092,1352 L 2086,1355 L 2081,1358 L 2076,1358 L 2073,1358 L 2068,1358 L 2063,1358 L 2061,1358 L 2058,1358 L 2056,1358 L 2051,1358 L 2046,1358 L 2043,1358 L 2035,1358 L 2032,1358 L 2024,1358 L 2021,1358 L 2012,1358 L 2009,1358 L 1998,1358 L 1996,1358 L 1983,1358 L 1982,1358 L 1965,1358 L 1964,1358 L 1960,1358 L 1959,1358 L 1959,1344 L 1960,1344 L 1960,1328 L 1959,1327 L 1959,1315 L 1960,1312 L 1960,1302 L 1959,1300 L 1959,1291 L 1960,1288 L 1960,1280 L 1959,1277 L 1959,1270 L 1960,1267 L 1960,1260 L 1959,1256 z " style="fill-opacity:1.000000;fill:rgb(171,178,205);stroke:rgb(0,0,0);stroke-width:2"/></g>
<g fill-rule="evenodd"><path d="M 347,1876 L 339,1859 L 334,1841 L 333,1824 L 336,1807 L 357,1728 L 364,1709 L 373,1691 L 381,1691 L 452,1694 L 487,1692 L 525,1685 L 564,1674 L 653,1742 L 679,1766 L 703,1793 L 723,1824 L 740,1857 L 843,1961 L 857,1976 L 861,1980 L 886,2013 L 889,2017 L 912,2057 L 914,2061 L 924,2084 L 928,2092 L 849,2170 L 832,2189 L 818,2209 L 807,2228 L 799,2247 L 800,2253 L 803,2266 L 807,2280 L 808,2281 L 811,2290 L 815,2304 L 816,2311 L 819,2326 L 819,2333 L 820,2347 L 820,2354 L 819,2368 L 819,2375 L 816,2389 L 815,2397 L 811,2411 L 808,2420 L 807,2421 L 803,2435 L 800,2448 L 797,2469 L 796,2476 L 783,2474 L 766,2471 L 753,2468 L 736,2463 L 728,2460 L 713,2453 L 707,2450 L 693,2443 L 688,2440 L 676,2432 L 672,2429 L 661,2419 L 658,2416 L 648,2406 L 645,2402 L 636,2391 L 633,2387 L 625,2374 L 622,2368 L 615,2354 L 612,2347 L 607,2331 L 604,2320 L 600,2304 L 597,2288 L 594,2269 L 593,2246 L 592,2225 L 565,2160 L 565,2152 L 565,2149 L 562,2141 L 560,2138 L 549,2116 L 547,2113 L 533,2091 L 530,2088 L 515,2069 L 513,2066 L 504,2057 L 452,2005 L 397,1962 L 347,1876 z " style="fill-opacity:1.000000;fill:rgb(198,155,180);stroke:rgb(0,0,0);stroke-width:2"/></g>
<g fill-rule="evenodd"><path d="M 511,1510 L 519,1481 L 525,1469 L 533,1458 L 581,1395 L 582,1394 L 594,1389 L 606,1386 L 617,1385 L 629,1387 L 667,1397 L 766,1474 L 769,1476 L 773,1478 L 779,1482 L 783,1484 L 789,1486 L 794,1488 L 798,1489 L 799,1489 L 817,1498 L 836,1513 L 855,1535 L 873,1564 L 876,1569 L 988,1615 L 1032,1720 L 1032,1733 L 1034,1759 L 1036,1776 L 1040,1793 L 1043,1809 L 1047,1821 L 1052,1836 L 1056,1844 L 1062,1857 L 1065,1864 L 1073,1876 L 1076,1881 L 1085,1892 L 1088,1896 L 1098,1906 L 1102,1910 L 1112,1919 L 1117,1922 L 1128,1930 L 1134,1934 L 1136,1935 L 1148,1936 L 1154,1936 L 1168,1936 L 1174,1936 L 1182,1935 L 1188,1932 L 1193,1929 L 1205,1921 L 1209,1918 L 1219,1908 L 1223,1905 L 1233,1895 L 1236,1891 L 1244,1880 L 1247,1875 L 1255,1863 L 1258,1857 L 1260,1853 L 1268,1851 L 1270,1851 L 1276,1849 L 1278,1848 L 1283,1845 L 1285,1844 L 1289,1842 L 1291,1840 L 1294,1837 L 1296,1836 L 1298,1834 L 1348,1785 L 1349,1783 L 1352,1780 L 1359,1773 L 1544,1588 L 1546,1586 L 1548,1584 L 1551,1580 L 1552,1579 L 1552,1577 L 1553,1572 L 1553,1569 L 1553,1567 L 1553,1528 L 1553,1525 L 1554,1523 L 1554,1519 L 1555,1515 L 1556,1511 L 1556,1510 L 1558,1508 L 1559,1505 L 1561,1502 L 1564,1499 L 1565,1497 L 1567,1494 L 1569,1492 L 1573,1487 L 1574,1485 L 1575,1484 L 1575,1480 L 1575,1478 L 1575,1473 L 1575,1473 L 1574,1470 L 1574,1469 L 1574,1468 L 1573,1458 L 1573,1456 L 1573,1452 L 1576,1438 L 1577,1435 L 1580,1423 L 1581,1422 L 1583,1418 L 1590,1407 L 1592,1403 L 1599,1395 L 1601,1393 L 1605,1391 L 1616,1383 L 1616,1383 L 1618,1382 L 1619,1381 L 1620,1381 L 1623,1378 L 1625,1377 L 1629,1373 L 1630,1372 L 1631,1372 L 1634,1368 L 1635,1367 L 1637,1365 L 1643,1359 L 1644,1358 L 1646,1358 L 1651,1358 L 1656,1358 L 1658,1358 L 1661,1358 L 1663,1358 L 1668,1358 L 1673,1358 L 1677,1358 L 1684,1358 L 1687,1358 L 1695,1358 L 1698,1358 L 1707,1358 L 1710,1358 L 1721,1358 L 1723,1358 L 1736,1358 L 1737,1358 L 1754,1358 L 1755,1358 L 1759,1358 L 1760,1358 L 1760,1372 L 1760,1372 L 1760,1388 L 1760,1389 L 1760,1401 L 1759,1404 L 1759,1414 L 1760,1417 L 1760,1425 L 1759,1428 L 1759,1436 L 1760,1439 L 1760,1446 L 1759,1450 L 1759,1456 L 1760,1460 L 1760,1465 L 1759,1466 L 1752,1479 L 1750,1484 L 1742,1496 L 1739,1500 L 1731,1510 L 1728,1514 L 1718,1523 L 1715,1526 L 1705,1535 L 1701,1538 L 1690,1546 L 1685,1548 L 1673,1555 L 1668,1557 L 1661,1560 L 1656,1563 L 1652,1564 L 1639,1596 L 1637,1599 L 1635,1604 L 1632,1609 L 1629,1613 L 1626,1618 L 1622,1622 L 1620,1623 L 1231,2013 L 1229,2015 L 1225,2019 L 1220,2022 L 1216,2025 L 1211,2028 L 1206,2030 L 1203,2032 L 1188,2038 L 1183,2040 L 1178,2042 L 1168,2049 L 1163,2052 L 1149,2062 L 1144,2067 L 1135,2075 L 1114,2096 L 1104,2106 L 1099,2110 L 1073,2132 L 1069,2135 L 1055,2144 L 1036,2136 L 1031,2134 L 1000,2122 L 997,2121 L 991,2118 L 984,2116 L 928,2092 L 924,2084 L 914,2061 L 912,2057 L 889,2017 L 886,2013 L 861,1980 L 857,1976 L 843,1961 L 740,1857 L 723,1824 L 703,1793 L 679,1766 L 653,1742 L 564,1674 L 563,1668 L 561,1646 L 560,1639 L 560,1614 L 560,1603 L 560,1602 L 549,1573 L 536,1549 L 511,1510 z " style="fill-opacity:1.000000;fill:rgb(84,17,14);stroke:rgb(0,0,0);stroke-width:2"/></g>
<g fill-rule="evenodd"><path d="M 112,1530 L 836,356 L 892,411 L 938,452 L 985,489 L 986,540 L 989,587 L 990,594 L 993,631 L 995,643 L 999,687 L 1000,728 L 998,766 L 993,801 L 986,833 L 976,863 L 963,890 L 947,914 L 898,977 L 876,1001 L 852,1001 L 781,998 L 758,998 L 735,1023 L 692,1079 L 678,1083 L 673,1085 L 661,1089 L 617,1108 L 607,1109 L 598,1110 L 592,1110 L 577,1110 L 572,1110 L 560,1108 L 555,1107 L 550,1106 L 499,1092 L 490,1091 L 480,1092 L 471,1101 L 437,1145 L 431,1168 L 429,1179 L 431,1190 L 432,1192 L 435,1196 L 437,1200 L 437,1200 L 441,1206 L 443,1210 L 447,1218 L 449,1223 L 453,1234 L 455,1240 L 460,1257 L 461,1264 L 463,1276 L 464,1284 L 376,1372 L 365,1398 L 362,1405 L 360,1409 L 354,1420 L 351,1421 L 345,1424 L 333,1428 L 330,1429 L 321,1431 L 316,1432 L 309,1433 L 306,1433 L 302,1434 L 301,1434 L 296,1434 L 292,1435 L 290,1435 L 287,1436 L 283,1437 L 282,1437 L 271,1447 L 237,1491 L 231,1515 L 229,1524 L 230,1533 L 239,1543 L 308,1596 L 310,1598 L 313,1600 L 317,1604 L 320,1607 L 326,1613 L 330,1618 L 335,1626 L 337,1629 L 339,1632 L 373,1691 L 364,1709 L 357,1728 L 336,1807 L 333,1824 L 334,1841 L 339,1859 L 347,1876 L 397,1962 L 452,2005 L 504,2057 L 513,2066 L 515,2069 L 530,2088 L 533,2091 L 547,2113 L 549,2116 L 560,2138 L 562,2141 L 565,2149 L 565,2152 L 565,2160 L 592,2225 L 593,2246 L 594,2269 L 597,2288 L 600,2304 L 604,2320 L 607,2331 L 612,2347 L 615,2354 L 622,2368 L 625,2374 L 633,2387 L 636,2391 L 645,2402 L 648,2406 L 658,2416 L 661,2419 L 672,2429 L 676,2432 L 688,2440 L 693,2443 L 707,2450 L 713,2453 L 728,2460 L 736,2463 L 753,2468 L 766,2471 L 783,2474 L 796,2476 L 808,2486 L 821,2496 L 850,2565 L 852,2572 L 854,2577 L 857,2589 L 858,2594 L 860,2605 L 860,2610 L 860,2615 L 860,2671 L 857,2676 L 854,2684 L 850,2695 L 848,2701 L 845,2712 L 843,2716 L 841,2728 L 841,2732 L 840,2743 L 840,2747 L 840,2758 L 841,2762 L 842,2773 L 843,2778 L 844,2785 L 847,2788 L 850,2792 L 857,2801 L 860,2804 L 868,2811 L 872,2814 L 878,2819 L 882,2820 L 886,2821 L 897,2823 L 902,2823 L 913,2824 L 916,2824 L 921,2823 L 924,2823 L 935,2822 L 940,2821 L 951,2819 L 951,2819 L 955,2816 L 963,2809 L 967,2806 L 975,2798 L 978,2795 L 985,2786 L 988,2782 L 994,2772 L 997,2767 L 1002,2757 L 1005,2750 L 1009,2738 L 1012,2729 L 1016,2717 L 1018,2704 L 1021,2691 L 1023,2672 L 1023,2663 L 1072,2545 L 1072,2526 L 1084,2500 L 1092,2474 L 1096,2447 L 1098,2421 L 1098,2280 L 1095,2246 L 1087,2212 L 1074,2178 L 1055,2144 L 1069,2135 L 1073,2132 L 1099,2110 L 1104,2106 L 1114,2096 L 1135,2075 L 1144,2067 L 1149,2062 L 1163,2052 L 1168,2049 L 1178,2042 L 1183,2040 L 1188,2038 L 1203,2032 L 1206,2030 L 1211,2028 L 1216,2025 L 1220,2022 L 1225,2019 L 1229,2015 L 1231,2013 L 1620,1623 L 1622,1622 L 1626,1618 L 1629,1613 L 1632,1609 L 1635,1604 L 1637,1599 L 1639,1596 L 1652,1564 L 1656,1563 L 1661,1560 L 1668,1557 L 1673,1555 L 1685,1548 L 1690,1546 L 1701,1538 L 1705,1535 L 1715,1526 L 1718,1523 L 1728,1514 L 1731,1510 L 1739,1500 L 1742,1496 L 1750,1484 L 1752,1479 L 1759,1466 L 1760,1465 L 1760,1460 L 1759,1456 L 1759,1450 L 1760,1446 L 1760,1439 L 1759,1436 L 1759,1428 L 1760,1425 L 1760,1417 L 1759,1414 L 1759,1404 L 1760,1401 L 1760,1389 L 1760,1388 L 1760,1372 L 1760,1372 L 1760,1358 L 1764,1358 L 1765,1358 L 1782,1358 L 1783,1358 L 1796,1358 L 1798,1358 L 1809,1358 L 1812,1358 L 1821,1358 L 1824,1358 L 1832,1358 L 1835,1358 L 1843,1358 L 1846,1358 L 1851,1358 L 1856,1358 L 1858,1358 L 1861,1358 L 1863,1358 L 1868,1358 L 1873,1358 L 1877,1358 L 1884,1358 L 1887,1358 L 1895,1358 L 1898,1358 L 1907,1358 L 1910,1358 L 1921,1358 L 1923,1358 L 1936,1358 L 1937,1358 L 1954,1358 L 1955,1358 L 1959,1358 L 1960,1358 L 1960,1372 L 1959,1372 L 1959,1388 L 1960,1389 L 1960,1401 L 1959,1404 L 1959,1414 L 1960,1417 L 1960,1425 L 1959,1428 L 1959,1436 L 1960,1439 L 1960,1446 L 1959,1450 L 1959,1456 L 1960,1460 L 1960,1467 L 1959,1470 L 1959,1473 L 1958,1474 L 1953,1479 L 1952,1479 L 1950,1481 L 1948,1484 L 1946,1486 L 1944,1487 L 1941,1491 L 1940,1493 L 1939,1495 L 1937,1497 L 1937,1498 L 1936,1499 L 1935,1501 L 1929,1509 L 1927,1513 L 1920,1521 L 1918,1523 L 1915,1525 L 1903,1533 L 1900,1535 L 1892,1539 L 1888,1541 L 1884,1542 L 1870,1544 L 1867,1545 L 1861,1546 L 1860,1546 L 1857,1546 L 1844,1544 L 1840,1543 L 1833,1541 L 1831,1540 L 1828,1540 L 1827,1540 L 1823,1539 L 1822,1539 L 1821,1539 L 1821,1539 L 1816,1542 L 1814,1543 L 1810,1546 L 1808,1548 L 1806,1550 L 1273,2083 L 1271,2084 L 1270,2086 L 1266,2091 L 1266,2092 L 1265,2093 L 1265,2099 L 1264,2101 L 1264,2104 L 1264,2167 L 1264,2170 L 1264,2173 L 1264,2288 L 1264,2290 L 1264,2294 L 1264,2605 L 1264,2608 L 1264,2610 L 1263,2615 L 1262,2620 L 1261,2623 L 1260,2625 L 1257,2629 L 1254,2634 L 1253,2636 L 1251,2638 L 1000,2889 L 997,2891 L 996,2892 L 992,2895 L 989,2897 L 985,2899 L 985,2899 L 982,2900 L 979,2901 L 976,2901 L 972,2902 L 969,2902 L 966,2903 L 863,2903 L 860,2902 L 857,2902 L 852,2901 L 847,2900 L 845,2899 L 843,2898 L 838,2895 L 834,2892 L 832,2891 L 830,2889 L 775,2834 L 773,2831 L 771,2829 L 768,2825 L 765,2821 L 764,2819 L 763,2816 L 762,2811 L 761,2806 L 761,2804 L 761,2801 L 761,2644 L 761,2641 L 761,2639 L 760,2633 L 760,2632 L 759,2631 L 756,2627 L 754,2625 L 752,2623 L 384,2255 L 382,2252 L 381,2250 L 378,2246 L 375,2242 L 374,2240 L 373,2237 L 372,2232 L 371,2227 L 371,2224 L 370,2222 L 370,2180 L 370,2178 L 370,2175 L 369,2170 L 369,2168 L 368,2167 L 365,2163 L 363,2161 L 361,2159 L 246,2044 L 244,2042 L 243,2040 L 240,2036 L 237,2031 L 236,2029 L 235,2026 L 234,2021 L 233,2016 L 233,2014 L 233,2011 L 233,1661 L 233,1658 L 232,1656 L 232,1650 L 231,1649 L 231,1648 L 227,1644 L 226,1642 L 224,1640 L 164,1580 L 162,1578 L 161,1577 L 160,1576 L 160,1575 L 159,1573 L 157,1572 L 156,1570 L 154,1568 L 154,1567 L 151,1564 L 150,1563 L 149,1563 L 145,1558 L 145,1558 L 143,1556 L 141,1554 L 137,1550 L 137,1550 L 135,1548 L 124,1539 L 122,1537 L 112,1530 z " style="fill-opacity:1.000000;fill:rgb(130,116,65);stroke:rgb(0,0,0);stroke-width:2"/></g>
<g fill-rule="evenodd"><path d="M 821,2496 L 808,2486 L 796,2476 L 797,2469 L 800,2448 L 803,2435 L 807,2421 L 808,2420 L 811,2411 L 815,2397 L 816,2389 L 819,2375 L 819,2368 L 820,2354 L 820,2347 L 819,2333 L 819,2326 L 816,2311 L 815,2304 L 811,2290 L 808,2281 L 807,2280 L 803,2266 L 800,2253 L 799,2247 L 807,2228 L 818,2209 L 832,2189 L 849,2170 L 928,2092 L 984,2116 L 991,2118 L 997,2121 L 1000,2122 L 1031,2134 L 1036,2136 L 1055,2144 L 1074,2178 L 1087,2212 L 1095,2246 L 1098,2280 L 1098,2421 L 1096,2447 L 1092,2474 L 1084,2500 L 1072,2526 L 1072,2545 L 1023,2663 L 1023,2672 L 1021,2691 L 1018,2704 L 1016,2717 L 1012,2729 L 1009,2738 L 1005,2750 L 1002,2757 L 997,2767 L 994,2772 L 988,2782 L 985,2786 L 978,2795 L 975,2798 L 967,2806 L 963,2809 L 955,2816 L 951,2819 L 951,2819 L 940,2821 L 935,2822 L 924,2823 L 921,2823 L 916,2824 L 913,2824 L 902,2823 L 897,2823 L 886,2821 L 882,2820 L 878,2819 L 872,2814 L 868,2811 L 860,2804 L 857,2801 L 850,2792 L 847,2788 L 844,2785 L 843,2778 L 842,2773 L 841,2762 L 840,2758 L 840,2747 L 840,2743 L 841,2732 L 841,2728 L 843,2716 L 845,2712 L 848,2701 L 850,2695 L 854,2684 L 857,2676 L 860,2671 L 860,2615 L 860,2610 L 860,2605 L 858,2594 L 857,2589 L 854,2577 L 852,2572 L 850,2565 L 821,2496 z " style="fill-opacity:1.000000;fill:rgb(33,61,220);stroke:rgb(0,0,0);stroke-width:2"/></g>
<g fill-rule="evenodd"><path d="M 1343,2235 L 1343,2231 L 1344,2217 L 1344,2215 L 1344,2213 L 1349,2200 L 1351,2196 L 1357,2184 L 1357,2184 L 1360,2180 L 1370,2170 L 1373,2167 L 1381,2160 L 1384,2159 L 1388,2157 L 1401,2151 L 1405,2150 L 1412,2147 L 1418,2147 L 1422,2146 L 1436,2146 L 1441,2147 L 1448,2147 L 1451,2148 L 1453,2148 L 1455,2148 L 1455,2148 L 1459,2146 L 1461,2144 L 1465,2141 L 1467,2139 L 1469,2138 L 1555,2052 L 1557,2050 L 1559,2049 L 1563,2046 L 1567,2043 L 1570,2042 L 1572,2041 L 1577,2040 L 1582,2039 L 1585,2039 L 1588,2038 L 1767,2038 L 1769,2038 L 1771,2038 L 1776,2038 L 1778,2037 L 1783,2036 L 1786,2035 L 1791,2033 L 1791,2033 L 1792,2031 L 1794,2026 L 1795,2024 L 1796,2019 L 1796,2017 L 1796,2015 L 1796,2014 L 1798,2007 L 1802,2000 L 1809,1996 L 1811,1996 L 1817,1995 L 1943,1995 L 1947,1996 L 1950,1996 L 1957,2001 L 1961,2008 L 1963,2015 L 1963,2018 L 1963,2051 L 1963,2053 L 1963,2055 L 1964,2060 L 1964,2062 L 1965,2067 L 1966,2070 L 1967,2073 L 1969,2074 L 1971,2075 L 1976,2077 L 1979,2077 L 1982,2078 L 1983,2079 L 1984,2079 L 1986,2079 L 1988,2079 L 1989,2080 L 1994,2081 L 1997,2082 L 1999,2083 L 2003,2086 L 2008,2089 L 2010,2090 L 2012,2092 L 2200,2280 L 2202,2283 L 2204,2285 L 2207,2289 L 2210,2293 L 2211,2295 L 2212,2298 L 2213,2303 L 2213,2308 L 2214,2311 L 2214,2313 L 2214,2484 L 2214,2487 L 2214,2489 L 2215,2495 L 2215,2496 L 2216,2497 L 2219,2501 L 2221,2503 L 2223,2505 L 2287,2569 L 2289,2571 L 2291,2573 L 2295,2576 L 2296,2577 L 2298,2577 L 2303,2578 L 2306,2578 L 2308,2578 L 2710,2578 L 2712,2578 L 2714,2578 L 2719,2577 L 2721,2577 L 2726,2576 L 2728,2575 L 2733,2573 L 2735,2573 L 2735,2572 L 2737,2567 L 2737,2564 L 2739,2559 L 2739,2557 L 2739,2553 L 2740,2550 L 2740,2548 L 2740,2461 L 2740,2458 L 2740,2455 L 2741,2450 L 2742,2445 L 2743,2443 L 2744,2441 L 2747,2436 L 2750,2432 L 2752,2430 L 2753,2428 L 2831,2350 L 2832,2348 L 2834,2347 L 2838,2342 L 2839,2340 L 2840,2338 L 2840,2337 L 2840,2335 L 2840,2333 L 2840,2332 L 2840,2329 L 2840,2320 L 2840,2316 L 2840,2303 L 2840,2302 L 2841,2299 L 2846,2287 L 2847,2284 L 2852,2273 L 2853,2272 L 2856,2269 L 2864,2260 L 2867,2257 L 2875,2251 L 2877,2249 L 2881,2248 L 2893,2243 L 2897,2241 L 2904,2239 L 2909,2238 L 2913,2238 L 2926,2238 L 2930,2238 L 2935,2239 L 2940,2240 L 2942,2241 L 2942,2241 L 2944,2242 L 2946,2242 L 2948,2243 L 2950,2243 L 2955,2244 L 2957,2245 L 2959,2245 L 2962,2245 L 2964,2245 L 2964,2245 L 2971,2246 L 2974,2246 L 2979,2246 L 2983,2246 L 2983,2246 L 2985,2251 L 2989,2263 L 2991,2269 L 2995,2282 L 2996,2287 L 2998,2299 L 2998,2303 L 2999,2316 L 2999,2320 L 2998,2332 L 2998,2337 L 2996,2349 L 2995,2354 L 2991,2367 L 2989,2373 L 2985,2385 L 2981,2392 L 2975,2405 L 2969,2415 L 2967,2418 L 2957,2418 L 2947,2418 L 2934,2418 L 2926,2418 L 2913,2418 L 2905,2418 L 2905,2418 L 2893,2425 L 2886,2429 L 2876,2436 L 2871,2440 L 2861,2448 L 2856,2453 L 2848,2462 L 2843,2467 L 2836,2477 L 2833,2480 L 2833,2483 L 2831,2496 L 2830,2502 L 2829,2515 L 2829,2521 L 2830,2534 L 2831,2540 L 2833,2553 L 2834,2560 L 2834,2560 L 2833,2562 L 2832,2564 L 2828,2570 L 2827,2573 L 2824,2578 L 2823,2580 L 2822,2585 L 2821,2588 L 2820,2592 L 2820,2594 L 2819,2600 L 2819,2615 L 2819,2618 L 2818,2620 L 2818,2624 L 2817,2629 L 2816,2633 L 2816,2633 L 2814,2637 L 2811,2640 L 2809,2644 L 2807,2646 L 2805,2647 L 2802,2650 L 2798,2652 L 2794,2654 L 2794,2654 L 2790,2655 L 2786,2656 L 2782,2657 L 2779,2657 L 2776,2658 L 2282,2658 L 2279,2657 L 2277,2657 L 2272,2656 L 2267,2655 L 2264,2654 L 2262,2653 L 2258,2650 L 2254,2647 L 2252,2646 L 2249,2644 L 2148,2543 L 2147,2541 L 2145,2539 L 2143,2536 L 2141,2532 L 2139,2529 L 2138,2528 L 2137,2525 L 2137,2522 L 2136,2519 L 2135,2515 L 2135,2513 L 2135,2510 L 2135,2339 L 2135,2337 L 2135,2334 L 2134,2329 L 2134,2327 L 2133,2326 L 2130,2322 L 2128,2320 L 2126,2318 L 1976,2168 L 1974,2167 L 1973,2165 L 1969,2162 L 1967,2161 L 1965,2159 L 1962,2159 L 1959,2159 L 1954,2159 L 1954,2159 L 1952,2159 L 1949,2160 L 1943,2161 L 1940,2161 L 1820,2161 L 1817,2161 L 1809,2160 L 1802,2155 L 1798,2148 L 1796,2142 L 1796,2141 L 1796,2140 L 1796,2137 L 1795,2133 L 1794,2130 L 1792,2125 L 1791,2123 L 1791,2123 L 1786,2121 L 1783,2120 L 1778,2119 L 1776,2118 L 1771,2118 L 1769,2118 L 1767,2118 L 1614,2118 L 1611,2118 L 1608,2118 L 1603,2119 L 1602,2119 L 1601,2120 L 1596,2123 L 1594,2125 L 1592,2126 L 1525,2194 L 1523,2196 L 1522,2197 L 1518,2202 L 1517,2204 L 1515,2208 L 1515,2209 L 1515,2212 L 1515,2213 L 1515,2215 L 1516,2217 L 1516,2231 L 1516,2235 L 1516,2249 L 1515,2250 L 1514,2253 L 1510,2267 L 1508,2270 L 1502,2282 L 1502,2283 L 1499,2286 L 1489,2296 L 1486,2299 L 1478,2306 L 1475,2308 L 1471,2310 L 1458,2315 L 1454,2317 L 1446,2319 L 1441,2320 L 1436,2320 L 1422,2320 L 1418,2320 L 1412,2319 L 1405,2317 L 1401,2315 L 1388,2310 L 1384,2308 L 1381,2306 L 1373,2299 L 1370,2296 L 1360,2286 L 1357,2283 L 1356,2282 L 1351,2270 L 1349,2267 L 1344,2253 L 1344,2252 L 1344,2249 L 1343,2235 z " style="fill-opacity:1.000000;fill:rgb(135,112,233);stroke:rgb(0,0,0);stroke-width:2"/></g>
<g fill-rule="evenodd"><path d="M 230,1533 L 229,1524 L 231,1515 L 237,1491 L 271,1447 L 282,1437 L 283,1437 L 287,1436 L 290,1435 L 292,1435 L 296,1434 L 301,1434 L 302,1434 L 306,1433 L 309,1433 L 316,1432 L 321,1431 L 330,1429 L 333,1428 L 345,1424 L 351,1421 L 354,1420 L 360,1409 L 362,1405 L 365,1398 L 376,1372 L 464,1284 L 501,1280 L 510,1279 L 516,1278 L 531,1278 L 537,1279 L 548,1280 L 553,1281 L 558,1282 L 609,1296 L 618,1297 L 626,1297 L 634,1295 L 643,1291 L 664,1279 L 692,1291 L 696,1292 L 700,1294 L 706,1298 L 710,1300 L 714,1304 L 718,1307 L 720,1309 L 757,1346 L 759,1348 L 763,1351 L 767,1354 L 771,1357 L 777,1360 L 782,1363 L 785,1364 L 824,1380 L 946,1380 L 951,1380 L 957,1380 L 968,1378 L 973,1377 L 985,1374 L 990,1372 L 997,1370 L 998,1369 L 1286,1081 L 1288,1079 L 1293,1077 L 1298,1076 L 1310,1072 L 1315,1071 L 1327,1070 L 1332,1069 L 1338,1069 L 1628,1069 L 1634,1069 L 1639,1070 L 1651,1071 L 1656,1072 L 1668,1076 L 1673,1077 L 1678,1079 L 1680,1081 L 1711,1112 L 1716,1117 L 1719,1121 L 1728,1132 L 1731,1137 L 1739,1150 L 1741,1155 L 1742,1158 L 1749,1164 L 1758,1173 L 1759,1175 L 1760,1188 L 1760,1189 L 1760,1201 L 1759,1204 L 1759,1214 L 1760,1217 L 1760,1225 L 1759,1228 L 1759,1236 L 1760,1239 L 1760,1246 L 1759,1250 L 1759,1256 L 1760,1260 L 1760,1267 L 1759,1270 L 1759,1277 L 1760,1280 L 1760,1288 L 1759,1291 L 1759,1300 L 1760,1302 L 1760,1312 L 1759,1315 L 1760,1327 L 1760,1328 L 1760,1344 L 1760,1344 L 1759,1358 L 1755,1358 L 1754,1358 L 1737,1358 L 1736,1358 L 1723,1358 L 1721,1358 L 1710,1358 L 1707,1358 L 1698,1358 L 1695,1358 L 1687,1358 L 1684,1358 L 1677,1358 L 1673,1358 L 1668,1358 L 1663,1358 L 1661,1358 L 1658,1358 L 1656,1358 L 1651,1358 L 1646,1358 L 1644,1358 L 1643,1357 L 1643,1357 L 1637,1351 L 1637,1351 L 1636,1349 L 1631,1345 L 1629,1343 L 1627,1341 L 1625,1340 L 1623,1338 L 1623,1338 L 1620,1335 L 1618,1334 L 1616,1333 L 1612,1330 L 1608,1328 L 1599,1321 L 1598,1320 L 1595,1316 L 1587,1305 L 1585,1302 L 1584,1301 L 1583,1299 L 1582,1297 L 1579,1293 L 1578,1292 L 1577,1291 L 1575,1288 L 1574,1287 L 1573,1286 L 1569,1281 L 1567,1279 L 1563,1276 L 1561,1274 L 1559,1273 L 1559,1270 L 1560,1267 L 1560,1260 L 1559,1256 L 1559,1250 L 1560,1246 L 1560,1239 L 1559,1236 L 1560,1228 L 1560,1225 L 1560,1217 L 1560,1214 L 1560,1204 L 1560,1201 L 1560,1200 L 1551,1196 L 1538,1189 L 1530,1186 L 1517,1181 L 1511,1179 L 1498,1176 L 1493,1175 L 1479,1173 L 1475,1172 L 1462,1172 L 1459,1171 L 1452,1172 L 1449,1172 L 1435,1173 L 1431,1174 L 1417,1177 L 1412,1178 L 1399,1182 L 1392,1185 L 1379,1190 L 1370,1195 L 1369,1195 L 1365,1195 L 1364,1195 L 1360,1197 L 1355,1200 L 1346,1205 L 1341,1208 L 1334,1213 L 1330,1217 L 1327,1220 L 1123,1424 L 1120,1426 L 1118,1429 L 1113,1434 L 1112,1437 L 1108,1443 L 1106,1446 L 1101,1454 L 1100,1458 L 1098,1462 L 1083,1497 L 1080,1504 L 1078,1508 L 1071,1522 L 1068,1526 L 1058,1540 L 1056,1543 L 1042,1560 L 1038,1564 L 1028,1576 L 988,1615 L 876,1569 L 873,1564 L 855,1535 L 836,1513 L 817,1498 L 799,1489 L 798,1489 L 794,1488 L 789,1486 L 783,1484 L 779,1482 L 773,1478 L 769,1476 L 766,1474 L 667,1397 L 629,1387 L 617,1385 L 606,1386 L 594,1389 L 582,1394 L 581,1395 L 533,1458 L 525,1469 L 519,1481 L 511,1510 L 536,1549 L 549,1573 L 560,1602 L 560,1603 L 560,1614 L 560,1639 L 561,1646 L 563,1668 L 564,1674 L 525,1685 L 487,1692 L 452,1694 L 381,1691 L 373,1691 L 339,1632 L 337,1629 L 335,1626 L 330,1618 L 326,1613 L 320,1607 L 317,1604 L 313,1600 L 310,1598 L 308,1596 L 239,1543 L 230,1533 z " style="fill-opacity:1.000000;fill:rgb(62,161,65);stroke:rgb(0,0,0);stroke-width:2"/></g>
<g fill-rule="evenodd"><path d="M 435,1196 L 432,1192 L 431,1190 L 429,1179 L 431,1168 L 437,1145 L 471,1101 L 480,1092 L 490,1091 L 499,1092 L 550,1106 L 555,1107 L 560,1108 L 572,1110 L 577,1110 L 592,1110 L 598,1110 L 607,1109 L 617,1108 L 661,1089 L 673,1085 L 678,1083 L 692,1079 L 697,1091 L 699,1096 L 701,1103 L 710,1126 L 713,1131 L 716,1139 L 723,1151 L 730,1162 L 739,1172 L 749,1181 L 819,1235 L 923,1263 L 930,1262 L 940,1260 L 949,1256 L 957,1251 L 963,1245 L 1011,1182 L 1019,1170 L 1024,1155 L 1026,1139 L 1027,1120 L 1199,948 L 1204,944 L 1207,941 L 1218,932 L 1221,930 L 1227,926 L 1234,925 L 1238,924 L 1249,923 L 1253,923 L 1258,923 L 1628,923 L 1636,923 L 1641,923 L 1658,920 L 1663,919 L 1682,914 L 1687,913 L 1697,909 L 1708,904 L 1719,900 L 1725,898 L 1753,891 L 1759,889 L 1798,884 L 1805,884 L 1831,883 L 1863,883 L 1942,1075 L 1947,1088 L 1949,1093 L 1955,1116 L 1956,1121 L 1959,1142 L 1959,1148 L 1959,1150 L 1959,1150 L 1959,1152 L 1960,1154 L 1960,1172 L 1959,1172 L 1959,1188 L 1960,1189 L 1960,1201 L 1959,1204 L 1959,1214 L 1960,1217 L 1960,1225 L 1959,1228 L 1959,1236 L 1960,1239 L 1960,1246 L 1959,1250 L 1959,1256 L 1960,1260 L 1960,1267 L 1959,1270 L 1959,1277 L 1960,1280 L 1960,1288 L 1959,1291 L 1959,1300 L 1960,1302 L 1960,1312 L 1959,1315 L 1959,1327 L 1960,1328 L 1960,1344 L 1959,1344 L 1959,1358 L 1955,1358 L 1954,1358 L 1937,1358 L 1936,1358 L 1923,1358 L 1921,1358 L 1910,1358 L 1907,1358 L 1898,1358 L 1895,1358 L 1887,1358 L 1884,1358 L 1877,1358 L 1873,1358 L 1868,1358 L 1863,1358 L 1861,1358 L 1858,1358 L 1856,1358 L 1851,1358 L 1846,1358 L 1843,1358 L 1835,1358 L 1832,1358 L 1824,1358 L 1821,1358 L 1812,1358 L 1809,1358 L 1798,1358 L 1796,1358 L 1783,1358 L 1782,1358 L 1765,1358 L 1764,1358 L 1760,1358 L 1759,1358 L 1760,1344 L 1760,1344 L 1760,1328 L 1760,1327 L 1759,1315 L 1760,1312 L 1760,1302 L 1759,1300 L 1759,1291 L 1760,1288 L 1760,1280 L 1759,1277 L 1759,1270 L 1760,1267 L 1760,1260 L 1759,1256 L 1759,1250 L 1760,1246 L 1760,1239 L 1759,1236 L 1759,1228 L 1760,1225 L 1760,1217 L 1759,1214 L 1759,1204 L 1760,1201 L 1760,1189 L 1760,1188 L 1759,1175 L 1758,1173 L 1749,1164 L 1742,1158 L 1741,1155 L 1739,1150 L 1731,1137 L 1728,1132 L 1719,1121 L 1716,1117 L 1711,1112 L 1680,1081 L 1678,1079 L 1673,1077 L 1668,1076 L 1656,1072 L 1651,1071 L 1639,1070 L 1634,1069 L 1628,1069 L 1338,1069 L 1332,1069 L 1327,1070 L 1315,1071 L 1310,1072 L 1298,1076 L 1293,1077 L 1288,1079 L 1286,1081 L 998,1369 L 997,1370 L 990,1372 L 985,1374 L 973,1377 L 968,1378 L 957,1380 L 951,1380 L 946,1380 L 824,1380 L 785,1364 L 782,1363 L 777,1360 L 771,1357 L 767,1354 L 763,1351 L 759,1348 L 757,1346 L 720,1309 L 718,1307 L 714,1304 L 710,1300 L 706,1298 L 700,1294 L 696,1292 L 692,1291 L 664,1279 L 643,1291 L 634,1295 L 626,1297 L 618,1297 L 609,1296 L 558,1282 L 553,1281 L 548,1280 L 537,1279 L 531,1278 L 516,1278 L 510,1279 L 501,1280 L 464,1284 L 463,1276 L 461,1264 L 460,1257 L 455,1240 L 453,1234 L 449,1223 L 447,1218 L 443,1210 L 441,1206 L 437,1200 L 437,1200 L 435,1196 z " style="fill-opacity:1.000000;fill:rgb(225,252,103);stroke:rgb(0,0,0);stroke-width:2"/></g>
<g fill-rule="evenodd"><path d="M 1056,1844 L 1052,1836 L 1047,1821 L 1043,1809 L 1040,1793 L 1036,1776 L 1034,1759 L 1032,1733 L 1032,1720 L 988,1615 L 1028,1576 L 1038,1564 L 1042,1560 L 1056,1543 L 1058,1540 L 1068,1526 L 1071,1522 L 1078,1508 L 1080,1504 L 1083,1497 L 1098,1462 L 1100,1458 L 1101,1454 L 1106,1446 L 1108,1443 L 1112,1437 L 1113,1434 L 1118,1429 L 1120,1426 L 1123,1424 L 1327,1220 L 1330,1217 L 1334,1213 L 1341,1208 L 1346,1205 L 1355,1200 L 1360,1197 L 1364,1195 L 1365,1195 L 1369,1195 L 1370,1195 L 1379,1190 L 1392,1185 L 1399,1182 L 1412,1178 L 1417,1177 L 1431,1174 L 1435,1173 L 1449,1172 L 1452,1172 L 1459,1171 L 1462,1172 L 1475,1172 L 1479,1173 L 1493,1175 L 1498,1176 L 1511,1179 L 1517,1181 L 1530,1186 L 1538,1189 L 1551,1196 L 1560,1200 L 1560,1201 L 1560,1204 L 1560,1214 L 1560,1217 L 1560,1225 L 1560,1228 L 1559,1236 L 1560,1239 L 1560,1246 L 1559,1250 L 1559,1256 L 1560,1260 L 1560,1267 L 1559,1270 L 1559,1273 L 1558,1274 L 1553,1279 L 1552,1280 L 1551,1281 L 1548,1284 L 1546,1286 L 1545,1287 L 1541,1291 L 1540,1293 L 1539,1295 L 1537,1297 L 1537,1298 L 1536,1299 L 1535,1301 L 1529,1309 L 1527,1313 L 1520,1321 L 1518,1323 L 1515,1325 L 1503,1333 L 1500,1335 L 1492,1339 L 1488,1341 L 1484,1342 L 1470,1344 L 1467,1345 L 1461,1346 L 1460,1346 L 1458,1346 L 1444,1344 L 1440,1343 L 1427,1339 L 1427,1339 L 1423,1337 L 1412,1330 L 1408,1328 L 1398,1320 L 1395,1318 L 1394,1317 L 1393,1316 L 1391,1315 L 1387,1312 L 1385,1310 L 1383,1309 L 1381,1308 L 1380,1308 L 1377,1309 L 1372,1311 L 1370,1312 L 1366,1315 L 1364,1316 L 1360,1319 L 1358,1321 L 1357,1322 L 1209,1470 L 1208,1472 L 1206,1474 L 1203,1478 L 1202,1479 L 1202,1480 L 1201,1486 L 1201,1488 L 1201,1491 L 1201,1744 L 1201,1747 L 1201,1750 L 1202,1755 L 1202,1758 L 1203,1761 L 1203,1761 L 1205,1763 L 1207,1764 L 1207,1765 L 1209,1766 L 1218,1774 L 1221,1777 L 1230,1787 L 1233,1790 L 1234,1791 L 1240,1803 L 1241,1807 L 1246,1820 L 1247,1824 L 1248,1825 L 1248,1827 L 1249,1830 L 1251,1834 L 1252,1836 L 1252,1837 L 1254,1842 L 1255,1843 L 1255,1844 L 1259,1851 L 1260,1853 L 1260,1853 L 1258,1857 L 1255,1863 L 1247,1875 L 1244,1880 L 1236,1891 L 1233,1895 L 1223,1905 L 1219,1908 L 1209,1918 L 1205,1921 L 1193,1929 L 1188,1932 L 1182,1935 L 1174,1936 L 1168,1936 L 1154,1936 L 1148,1936 L 1136,1935 L 1134,1934 L 1128,1930 L 1117,1922 L 1112,1919 L 1102,1910 L 1098,1906 L 1088,1896 L 1085,1892 L 1076,1881 L 1073,1876 L 1065,1864 L 1062,1857 L 1056,1844 z " style="fill-opacity:1.000000;fill:rgb(62,1,126);stroke:rgb(0,0,0);stroke-width:2"/></g>
<g fill-rule="evenodd"><path d="M 3253,2495 L 3253,2491 L 3253,2486 L 3255,2478 L 3256,2474 L 3258,2465 L 3260,2461 L 3262,2458 L 3269,2446 L 3272,2443 L 3276,2437 L 3281,2433 L 3284,2431 L 3296,2423 L 3299,2421 L 3304,2418 L 3312,2416 L 3315,2415 L 3329,2412 L 3331,2412 L 3338,2411 L 3339,2411 L 3341,2411 L 3349,2412 L 3352,2413 L 3354,2413 L 3355,2413 L 3359,2413 L 3359,2413 L 3361,2413 L 3365,2414 L 3366,2413 L 3369,2411 L 3373,2408 L 3374,2407 L 3376,2405 L 3492,2289 L 3494,2287 L 3496,2285 L 3499,2281 L 3500,2280 L 3500,2278 L 3501,2273 L 3501,2270 L 3501,2268 L 3501,1587 L 3501,1584 L 3501,1581 L 3502,1576 L 3503,1571 L 3505,1566 L 3506,1562 L 3507,1561 L 3508,1559 L 3508,1557 L 3509,1556 L 3507,1552 L 3507,1550 L 3505,1545 L 3504,1543 L 3503,1541 L 3498,1533 L 3496,1530 L 3494,1523 L 3495,1515 L 3498,1507 L 3504,1503 L 3506,1501 L 3672,1405 L 3675,1404 L 3683,1401 L 3691,1402 L 3700,1407 L 3702,1409 L 3704,1410 L 3704,1410 L 3708,1413 L 3710,1415 L 3716,1418 L 3719,1420 L 3727,1423 L 3728,1424 L 3743,1479 L 3744,1488 L 3743,1497 L 3734,1507 L 3603,1608 L 3602,1609 L 3587,1646 L 3585,1649 L 3584,1654 L 3582,1660 L 3581,1665 L 3580,1671 L 3580,1676 L 3580,1678 L 3580,2297 L 3580,2299 L 3579,2304 L 3579,2310 L 3578,2315 L 3576,2321 L 3574,2326 L 3573,2329 L 3511,2479 L 3495,2496 L 3494,2497 L 3487,2514 L 3480,2526 L 3472,2540 L 3465,2552 L 3457,2563 L 3448,2574 L 3445,2578 L 3435,2579 L 3419,2583 L 3409,2586 L 3406,2586 L 3395,2590 L 3387,2592 L 3373,2595 L 3366,2596 L 3353,2597 L 3348,2598 L 3341,2598 L 3336,2598 L 3322,2597 L 3315,2596 L 3303,2594 L 3302,2594 L 3302,2593 L 3300,2590 L 3298,2586 L 3296,2583 L 3295,2581 L 3292,2576 L 3290,2574 L 3290,2573 L 3287,2570 L 3287,2569 L 3286,2568 L 3283,2565 L 3281,2563 L 3277,2560 L 3277,2559 L 3277,2559 L 3275,2556 L 3267,2545 L 3265,2542 L 3258,2531 L 3258,2530 L 3257,2526 L 3254,2513 L 3253,2510 L 3253,2509 L 3253,2495 z " style="fill-opacity:1.000000;fill:rgb(151,234,220);stroke:rgb(0,0,0);stroke-width:2"/></g>
<g fill-rule="evenodd"><path d="M 3835,1075 L 3967,1306 L 3955,1323 L 3942,1344 L 3844,1514 L 3841,1519 L 3837,1524 L 3832,1531 L 3828,1535 L 3825,1538 L 3823,1541 L 3819,1545 L 3817,1547 L 3810,1558 L 3808,1558 L 3802,1560 L 3799,1561 L 3794,1564 L 3792,1565 L 3788,1568 L 3786,1569 L 3782,1572 L 3780,1573 L 3779,1575 L 3668,1686 L 3666,1688 L 3664,1690 L 3661,1694 L 3660,1695 L 3660,1697 L 3659,1702 L 3659,1705 L 3659,1707 L 3659,1822 L 3659,1824 L 3659,1827 L 3660,1831 L 3660,1834 L 3661,1839 L 3662,1841 L 3664,1847 L 3665,1849 L 3668,1856 L 3670,1858 L 3675,1866 L 3676,1868 L 3676,1868 L 3677,1878 L 3674,1883 L 3672,1885 L 3668,1892 L 3667,1894 L 3664,1900 L 3663,1902 L 3662,1907 L 3661,1909 L 3660,1914 L 3660,1916 L 3659,1921 L 3659,1923 L 3659,1925 L 3659,2521 L 3659,2524 L 3658,2527 L 3657,2532 L 3656,2537 L 3656,2539 L 3654,2541 L 3652,2546 L 3649,2550 L 3647,2552 L 3645,2554 L 3476,2724 L 3473,2726 L 3471,2727 L 3467,2730 L 3463,2733 L 3461,2734 L 3458,2735 L 3453,2736 L 3451,2736 L 3449,2737 L 3448,2737 L 3447,2737 L 3446,2738 L 3442,2738 L 3440,2739 L 3434,2741 L 3432,2742 L 3431,2742 L 3429,2747 L 3429,2749 L 3428,2754 L 3427,2757 L 3427,2759 L 3426,2765 L 3425,2773 L 3420,2779 L 3413,2784 L 3406,2785 L 3403,2785 L 3275,2785 L 3272,2785 L 3264,2783 L 3258,2779 L 3253,2772 L 3253,2770 L 3253,2765 L 3253,2631 L 3253,2626 L 3254,2623 L 3258,2616 L 3266,2612 L 3266,2612 L 3272,2610 L 3272,2610 L 3274,2610 L 3278,2608 L 3281,2607 L 3286,2605 L 3288,2604 L 3294,2600 L 3296,2599 L 3303,2594 L 3315,2596 L 3322,2597 L 3336,2598 L 3341,2598 L 3348,2598 L 3353,2597 L 3366,2596 L 3373,2595 L 3387,2592 L 3395,2590 L 3406,2586 L 3409,2586 L 3419,2583 L 3435,2579 L 3445,2578 L 3448,2574 L 3457,2563 L 3465,2552 L 3472,2540 L 3480,2526 L 3487,2514 L 3494,2497 L 3495,2496 L 3511,2479 L 3573,2329 L 3574,2326 L 3576,2321 L 3578,2315 L 3579,2310 L 3579,2304 L 3580,2299 L 3580,2297 L 3580,1678 L 3580,1676 L 3580,1671 L 3581,1665 L 3582,1660 L 3584,1654 L 3585,1649 L 3587,1646 L 3602,1609 L 3603,1608 L 3734,1507 L 3743,1497 L 3744,1488 L 3743,1479 L 3728,1424 L 3729,1422 L 3734,1415 L 3735,1412 L 3738,1406 L 3739,1404 L 3741,1399 L 3742,1396 L 3743,1391 L 3743,1389 L 3744,1385 L 3744,1382 L 3744,1380 L 3744,1324 L 3744,1322 L 3744,1319 L 3743,1315 L 3743,1313 L 3742,1309 L 3741,1307 L 3740,1302 L 3739,1300 L 3737,1294 L 3735,1292 L 3733,1288 L 3731,1289 L 3728,1289 L 3722,1289 L 3720,1290 L 3715,1291 L 3713,1291 L 3708,1293 L 3706,1293 L 3702,1295 L 3700,1296 L 3699,1297 L 3692,1301 L 3689,1302 L 3681,1305 L 3674,1304 L 3666,1300 L 3661,1295 L 3660,1293 L 3623,1230 L 3622,1227 L 3620,1219 L 3620,1211 L 3624,1204 L 3630,1199 L 3632,1198 L 3791,1106 L 3793,1105 L 3794,1104 L 3798,1101 L 3800,1100 L 3800,1099 L 3803,1097 L 3805,1095 L 3810,1092 L 3812,1090 L 3819,1085 L 3822,1083 L 3835,1075 z " style="fill-opacity:1.000000;fill:rgb(107,150,143);stroke:rgb(0,0,0);stroke-width:2"/></g>
<g fill-rule="evenodd"><path d="M 2805,1244 L 2798,1239 L 2793,1232 L 2793,1231 L 2792,1226 L 2791,1225 L 2791,1224 L 2790,1219 L 2789,1217 L 2786,1211 L 2785,1209 L 2782,1203 L 2780,1201 L 2776,1195 L 2777,1187 L 2778,1180 L 2779,1167 L 2779,1160 L 2779,1146 L 2778,1139 L 2777,1126 L 2776,1122 L 2780,1116 L 2782,1114 L 2785,1107 L 2786,1105 L 2789,1100 L 2789,1098 L 2791,1093 L 2792,1091 L 2792,1091 L 2793,1085 L 2794,1084 L 2798,1077 L 2805,1072 L 2812,1071 L 2815,1071 L 2818,1070 L 2820,1070 L 2825,1069 L 2827,1068 L 2833,1067 L 2834,1066 L 2835,1065 L 2837,1060 L 2837,1057 L 2839,1052 L 2839,1050 L 2839,1045 L 2840,1043 L 2840,1041 L 2840,981 L 2840,978 L 2840,976 L 2841,971 L 2842,966 L 2843,963 L 2844,961 L 2847,957 L 2850,952 L 2851,950 L 2853,948 L 3015,786 L 3017,784 L 3020,783 L 3024,780 L 3028,777 L 3030,776 L 3033,775 L 3038,774 L 3043,773 L 3045,773 L 3048,772 L 3159,772 L 3162,772 L 3165,772 L 3169,772 L 3170,771 L 3172,770 L 3175,769 L 3272,712 L 3275,711 L 3283,709 L 3291,709 L 3298,713 L 3303,719 L 3304,721 L 3341,784 L 3342,787 L 3345,794 L 3344,802 L 3340,810 L 3335,814 L 3332,816 L 3166,912 L 3163,913 L 3156,916 L 3148,915 L 3141,911 L 3136,906 L 3134,903 L 3113,867 L 3112,865 L 3111,863 L 3108,859 L 3107,858 L 3104,854 L 3104,854 L 3102,854 L 3097,853 L 3095,852 L 3091,852 L 3089,852 L 3087,852 L 3074,852 L 3072,852 L 3069,852 L 3064,853 L 3062,853 L 3061,854 L 3057,857 L 3055,859 L 3053,861 L 2928,986 L 2926,988 L 2924,990 L 2921,994 L 2920,995 L 2920,996 L 2919,1002 L 2919,1004 L 2919,1007 L 2919,1041 L 2919,1043 L 2919,1045 L 2920,1050 L 2920,1052 L 2921,1057 L 2922,1060 L 2924,1065 L 2924,1066 L 2926,1066 L 2931,1068 L 2933,1069 L 2938,1070 L 2941,1070 L 2943,1071 L 2946,1071 L 2954,1073 L 2961,1077 L 2965,1084 L 2966,1091 L 2967,1094 L 2967,1222 L 2966,1225 L 2965,1233 L 2960,1239 L 2953,1244 L 2946,1245 L 2943,1246 L 2815,1246 L 2812,1245 L 2805,1244 z " style="fill-opacity:1.000000;fill:rgb(56,92,42);stroke:rgb(0,0,0);stroke-width:2"/></g>
<g fill-rule="evenodd"><path d="M 3637,729 L 3700,839 L 3692,844 L 3689,845 L 3678,851 L 3676,852 L 3669,855 L 3667,856 L 3662,858 L 3661,858 L 3660,859 L 3656,860 L 3654,862 L 3651,863 L 3516,941 L 3516,941 L 3514,942 L 3512,944 L 3510,946 L 3450,1006 L 3449,1007 L 3447,1009 L 3445,1012 L 3443,1014 L 3441,1019 L 3440,1021 L 3437,1026 L 3436,1028 L 3434,1034 L 3433,1037 L 3431,1045 L 3431,1047 L 3430,1058 L 3303,1155 L 3296,1162 L 3291,1170 L 3287,1179 L 3285,1191 L 3283,1206 L 3068,1421 L 3063,1433 L 3061,1436 L 3058,1438 L 3057,1440 L 3054,1442 L 3052,1445 L 3050,1447 L 3049,1449 L 3046,1452 L 3045,1453 L 3042,1456 L 3042,1456 L 3039,1460 L 3038,1461 L 3036,1463 L 3035,1464 L 3034,1465 L 3033,1466 L 3033,1467 L 3031,1469 L 3028,1472 L 3027,1475 L 3025,1477 L 3024,1480 L 3021,1484 L 3020,1487 L 3019,1489 L 3018,1491 L 3018,1491 L 3017,1494 L 3014,1499 L 3009,1508 L 3006,1513 L 2997,1524 L 2995,1526 L 2993,1547 L 2986,1567 L 2976,1588 L 2960,1608 L 2946,1608 L 2812,1608 L 2786,1608 L 2770,1583 L 2760,1557 L 2762,1546 L 2766,1531 L 2768,1525 L 2769,1522 L 2773,1508 L 2775,1501 L 2777,1487 L 2778,1480 L 2779,1466 L 2779,1460 L 2779,1446 L 2778,1439 L 2777,1426 L 2776,1422 L 2780,1416 L 2782,1414 L 2785,1407 L 2786,1405 L 2789,1400 L 2789,1398 L 2791,1393 L 2792,1391 L 2792,1391 L 2793,1385 L 2794,1384 L 2798,1377 L 2805,1372 L 2812,1371 L 2815,1371 L 2943,1371 L 2946,1371 L 2953,1372 L 2955,1373 L 2958,1374 L 2963,1375 L 2965,1376 L 2966,1376 L 2966,1376 L 2970,1372 L 2971,1372 L 2972,1371 L 2975,1368 L 2976,1367 L 2977,1366 L 2978,1366 L 2980,1364 L 3420,923 L 3422,922 L 3423,920 L 3426,917 L 3427,915 L 3430,911 L 3431,909 L 3433,906 L 3432,904 L 3432,902 L 3430,897 L 3430,895 L 3427,889 L 3424,883 L 3422,880 L 3420,873 L 3420,865 L 3424,858 L 3430,853 L 3432,851 L 3592,759 L 3595,757 L 3598,755 L 3600,753 L 3602,752 L 3604,750 L 3609,746 L 3612,744 L 3622,738 L 3625,736 L 3637,729 z " style="fill-opacity:1.000000;fill:rgb(236,176,59);stroke:rgb(0,0,0);stroke-width:2"/></g>
<g fill-rule="evenodd"><path d="M 2805,1843 L 2798,1839 L 2793,1832 L 2793,1831 L 2792,1826 L 2791,1825 L 2791,1824 L 2790,1819 L 2789,1817 L 2786,1811 L 2785,1809 L 2782,1803 L 2780,1801 L 2776,1795 L 2777,1787 L 2778,1780 L 2779,1766 L 2779,1760 L 2779,1746 L 2778,1739 L 2777,1726 L 2775,1718 L 2772,1705 L 2770,1697 L 2768,1691 L 2766,1683 L 2763,1671 L 2760,1659 L 2770,1634 L 2786,1608 L 2812,1608 L 2946,1608 L 2960,1608 L 2976,1588 L 2986,1567 L 2993,1547 L 2995,1526 L 2997,1524 L 3006,1513 L 3009,1508 L 3014,1499 L 3017,1494 L 3018,1491 L 3018,1491 L 3019,1489 L 3020,1487 L 3021,1484 L 3024,1480 L 3025,1477 L 3027,1475 L 3028,1472 L 3031,1469 L 3033,1467 L 3033,1466 L 3034,1465 L 3035,1464 L 3036,1463 L 3038,1461 L 3039,1460 L 3042,1456 L 3042,1456 L 3045,1453 L 3046,1452 L 3049,1449 L 3050,1447 L 3052,1445 L 3054,1442 L 3057,1440 L 3058,1438 L 3061,1436 L 3063,1433 L 3068,1421 L 3283,1206 L 3285,1191 L 3287,1179 L 3291,1170 L 3296,1162 L 3303,1155 L 3430,1058 L 3430,1058 L 3433,1059 L 3443,1060 L 3446,1060 L 3454,1061 L 3456,1060 L 3463,1060 L 3465,1060 L 3470,1058 L 3472,1058 L 3475,1057 L 3477,1057 L 3479,1056 L 3481,1055 L 3483,1055 L 3491,1056 L 3498,1059 L 3503,1065 L 3504,1067 L 3541,1130 L 3542,1133 L 3545,1141 L 3544,1149 L 3540,1156 L 3535,1161 L 3532,1162 L 3390,1244 L 3390,1244 L 3388,1246 L 3386,1248 L 3384,1249 L 3117,1517 L 3115,1519 L 3114,1519 L 3113,1520 L 3110,1523 L 3109,1524 L 3108,1525 L 3106,1527 L 3105,1529 L 3105,1532 L 3104,1537 L 3104,1539 L 3104,1541 L 3104,1676 L 3104,1679 L 3103,1682 L 3103,1687 L 3101,1692 L 3101,1694 L 3099,1697 L 3097,1701 L 3094,1705 L 3092,1707 L 3090,1709 L 3016,1784 L 3013,1786 L 3011,1787 L 3007,1790 L 3003,1793 L 3001,1794 L 2998,1795 L 2993,1796 L 2991,1797 L 2989,1797 L 2988,1797 L 2987,1797 L 2986,1798 L 2982,1799 L 2980,1799 L 2974,1801 L 2972,1802 L 2971,1802 L 2969,1807 L 2969,1809 L 2968,1814 L 2967,1817 L 2967,1819 L 2966,1825 L 2965,1833 L 2960,1839 L 2953,1844 L 2946,1845 L 2943,1845 L 2815,1845 L 2812,1845 L 2805,1843 z " style="fill-opacity:1.000000;fill:rgb(251,50,175);stroke:rgb(0,0,0);stroke-width:2"/></g>
</svg>
