<?xml version="1.0" standalone="no"?>
<!DOCTYPE svg PUBLIC "-//W3C//DTD SVG 1.1//EN"
"http://www.w3.org/Graphics/SVG/1.1/DTD/svg11.dtd">
<svg width="4186" height="3726" viewBox="0 0 4186 3726" version="1.1"
xmlns="http://www.w3.org/2000/svg"
xmlns:xlink="http://www.w3.org/1999/xlink">
<g fill-rule="evenodd"><path d="M 4011,1464 L 4050,1532 L 3879,1631 L 3840,1563 L 4011,1464 z " style="fill-opacity:1.000000;fill:rgb(103,198,105);stroke:rgb(0,0,0);stroke-width:2"/></g>
<g fill-rule="evenodd"><path d="M 3885,1768 L 3924,1836 L 3753,1935 L 3714,1866 L 3885,1768 z " style="fill-opacity:1.000000;fill:rgb(115,81,255);stroke:rgb(0,0,0);stroke-width:2"/></g>
<g fill-rule="evenodd"><path d="M 2600,3636 L 2600,3439 L 2679,3439 L 2679,3636 L 2600,3636 z " style="fill-opacity:1.000000;fill:rgb(74,236,41);stroke:rgb(0,0,0);stroke-width:2"/></g>
<g fill-rule="evenodd"><path d="M 2400,3376 L 2400,3178 L 2479,3178 L 2479,3376 L 2400,3376 z " style="fill-opacity:1.000000;fill:rgb(205,186,171);stroke:rgb(0,0,0);stroke-width:2"/></g>
<g fill-rule="evenodd"><path d="M 2640,458 L 2640,260 L 2719,260 L 2719,458 L 2640,458 z " style="fill-opacity:1.000000;fill:rgb(242,251,227);stroke:rgb(0,0,0);stroke-width:2"/></g>
<g fill-rule="evenodd"><path d="M 1840,458 L 1840,260 L 1919,260 L 1919,458 L 1840,458 z " style="fill-opacity:1.000000;fill:rgb(70,124,194);stroke:rgb(0,0,0);stroke-width:2"/></g>
<g fill-rule="evenodd"><path d="M 1440,458 L 1440,260 L 1519,260 L 1519,458 L 1440,458 z " style="fill-opacity:1.000000;fill:rgb(84,248,27);stroke:rgb(0,0,0);stroke-width:2"/></g>
<g fill-rule="evenodd"><path d="M 2440,0 L 2519,0 L 2519,197 L 2440,197 L 2440,0 z " style="fill-opacity:1.000000;fill:rgb(232,231,141);stroke:rgb(0,0,0);stroke-width:2"/></g>
<g fill-rule="evenodd"><path d="M 2040,0 L 2119,0 L 2119,197 L 2040,197 L 2040,0 z " style="fill-opacity:1.000000;fill:rgb(118,90,46);stroke:rgb(0,0,0);stroke-width:2"/></g>
<g fill-rule="evenodd"><path d="M 1640,0 L 1719,0 L 1719,197 L 1640,197 L 1640,0 z " style="fill-opacity:1.000000;fill:rgb(99,51,159);stroke:rgb(0,0,0);stroke-width:2"/></g>
<g fill-rule="evenodd"><path d="M 1240,0 L 1319,0 L 1319,197 L 1240,197 L 1240,0 z " style="fill-opacity:1.000000;fill:rgb(201,154,102);stroke:rgb(0,0,0);stroke-width:2"/></g>
<g fill-rule="evenodd"><path d="M 3339,2165 L 3326,2163 L 3313,2159 L 3301,2153 L 3291,2144 L 3282,2133 L 3277,2121 L 3273,2108 L 3272,2095 L 3274,2081 L 3279,2068 L 3286,2057 L 3296,2047 L 3307,2039 L 3319,2034 L 3332,2031 L 3339,2031 L 3353,2032 L 3366,2036 L 3377,2043 L 3388,2052 L 3396,2063 L 3402,2075 L 3405,2088 L 3406,2101 L 3404,2115 L 3399,2127 L 3392,2139 L 3383,2149 L 3372,2156 L 3359,2162 L 3346,2165 L 3339,2165 z " style="fill-opacity:1.000000;fill:rgb(50,13,183);stroke:rgb(0,0,0);stroke-width:2"/></g>
<g fill-rule="evenodd"><path d="M 1344,1760 L 1337,1767 L 1335,1769 L 1284,1820 L 1282,1822 L 1280,1823 L 1278,1823 L 1276,1823 L 1273,1823 L 1271,1822 L 1270,1821 L 1268,1819 L 1267,1817 L 1252,1780 L 1224,1751 L 1222,1749 L 1221,1747 L 1221,1744 L 1221,1491 L 1221,1488 L 1222,1486 L 1224,1484 L 1371,1337 L 1373,1335 L 1375,1334 L 1377,1334 L 1379,1334 L 1381,1334 L 1383,1335 L 1419,1359 L 1460,1367 L 1500,1359 L 1535,1336 L 1551,1312 L 1553,1310 L 1554,1309 L 1556,1308 L 1558,1307 L 1561,1307 L 1563,1308 L 1565,1309 L 1566,1310 L 1568,1312 L 1584,1336 L 1605,1350 L 1607,1351 L 1608,1353 L 1609,1355 L 1609,1357 L 1609,1359 L 1609,1361 L 1608,1363 L 1607,1365 L 1605,1366 L 1584,1380 L 1561,1415 L 1553,1457 L 1553,1459 L 1555,1472 L 1555,1474 L 1555,1477 L 1554,1479 L 1551,1482 L 1538,1502 L 1533,1526 L 1533,1567 L 1533,1569 L 1532,1572 L 1530,1574 L 1344,1760 z " style="fill-opacity:1.000000;fill:rgb(49,88,163);stroke:rgb(0,0,0);stroke-width:2"/></g>
<g fill-rule="evenodd"><path d="M 2118,1427 L 2122,1435 L 2126,1448 L 2126,1461 L 2124,1475 L 2120,1488 L 2112,1499 L 2103,1509 L 2092,1517 L 2080,1522 L 2066,1525 L 2059,1525 L 2046,1524 L 2033,1520 L 2021,1513 L 2011,1504 L 2003,1493 L 1997,1481 L 1993,1468 L 1993,1455 L 1995,1441 L 1999,1429 L 2007,1417 L 2016,1407 L 2027,1400 L 2039,1394 L 2053,1391 L 2059,1391 L 2073,1393 L 2086,1397 L 2091,1399 L 2173,1317 L 2173,709 L 2174,704 L 2176,699 L 2179,695 L 2355,520 L 2355,505 L 2356,501 L 2358,497 L 2358,221 L 2358,221 L 2201,221 L 2201,221 L 2201,287 L 2200,292 L 2198,296 L 2195,301 L 1642,854 L 1638,857 L 1633,859 L 1628,860 L 1199,860 L 926,1133 L 985,1167 L 946,1235 L 774,1136 L 814,1068 L 891,1112 L 1177,826 L 1180,823 L 1184,822 L 1188,820 L 1191,820 L 1620,820 L 2161,278 L 2161,213 L 2162,209 L 2163,205 L 2165,201 L 2167,199 L 2179,187 L 2183,184 L 2188,182 L 2193,181 L 2366,181 L 2371,182 L 2376,184 L 2380,187 L 2392,199 L 2395,203 L 2397,208 L 2398,213 L 2398,505 L 2397,510 L 2395,515 L 2394,516 L 2394,528 L 2393,533 L 2391,538 L 2388,542 L 2213,717 L 2213,1325 L 2212,1330 L 2210,1335 L 2207,1339 L 2118,1427 z " style="fill-opacity:1.000000;fill:rgb(90,37,93);stroke:rgb(0,0,0);stroke-width:2"/></g>
<g fill-rule="evenodd"><path d="M 4185,1779 L 4185,1781 L 4184,1783 L 3155,3686 L 3154,3688 L 3152,3690 L 3150,3691 L 3148,3691 L 3146,3692 L 2999,3692 L 2971,3720 L 2969,3722 L 2964,3724 L 2962,3725 L 2957,3726 L 1999,3726 L 1994,3725 L 1990,3723 L 1986,3720 L 1958,3692 L 1052,3692 L 1049,3691 L 1047,3690 L 1045,3689 L 1043,3687 L 1,1887 L 0,1884 L 0,1882 L 0,1799 L 0,1796 L 1,1793 L 128,1588 L 129,1586 L 131,1585 L 133,1584 L 135,1583 L 138,1583 L 140,1584 L 142,1585 L 144,1586 L 145,1588 L 148,1593 L 210,1654 L 211,1656 L 212,1658 L 213,1661 L 213,2013 L 217,2037 L 231,2057 L 347,2173 L 349,2175 L 350,2178 L 350,2180 L 350,2223 L 355,2247 L 368,2267 L 738,2637 L 739,2639 L 740,2641 L 741,2644 L 741,2803 L 746,2826 L 759,2847 L 817,2904 L 837,2918 L 861,2923 L 968,2923 L 992,2918 L 1012,2904 L 1266,2651 L 1280,2630 L 1284,2607 L 1284,2292 L 1284,2288 L 1284,2173 L 1284,2168 L 1284,2104 L 1285,2101 L 1286,2099 L 1287,2097 L 1820,1564 L 1822,1562 L 1824,1561 L 1827,1561 L 1829,1561 L 1860,1567 L 1900,1559 L 1935,1536 L 1951,1512 L 1953,1510 L 1954,1509 L 1956,1508 L 1958,1507 L 1961,1507 L 1963,1508 L 1965,1509 L 1966,1510 L 1968,1512 L 1984,1536 L 2019,1559 L 2059,1567 L 2100,1559 L 2135,1536 L 2158,1501 L 2166,1459 L 2166,1457 L 2164,1444 L 2164,1442 L 2164,1439 L 2165,1437 L 2167,1435 L 2234,1368 L 2248,1347 L 2253,1324 L 2253,738 L 2253,736 L 2254,733 L 2255,731 L 2416,571 L 2429,551 L 2434,527 L 2434,520 L 2438,504 L 2438,248 L 2438,246 L 2439,244 L 2440,242 L 2441,240 L 2443,239 L 2445,238 L 2448,238 L 2518,238 L 2534,235 L 2547,226 L 2556,213 L 2560,196 L 2560,14 L 2560,12 L 2561,10 L 2562,8 L 2564,6 L 2565,5 L 2568,4 L 2570,4 L 3167,4 L 3169,4 L 3171,5 L 3173,6 L 3174,8 L 3176,9 L 3586,727 L 3587,729 L 3587,732 L 3587,734 L 3586,737 L 3584,739 L 3582,741 L 3420,834 L 3408,845 L 3400,859 L 3399,875 L 3405,892 L 3409,899 L 3409,901 L 3409,904 L 3409,906 L 3408,908 L 3406,909 L 2966,1350 L 2964,1351 L 2962,1352 L 2959,1353 L 2957,1352 L 2945,1350 L 2813,1350 L 2798,1353 L 2784,1362 L 2775,1375 L 2774,1381 L 2772,1382 L 2771,1384 L 2769,1385 L 2767,1386 L 2765,1387 L 2763,1387 L 2761,1386 L 2759,1385 L 2757,1384 L 2755,1380 L 2743,1373 L 2742,1371 L 2740,1369 L 2739,1367 L 2739,1364 L 2739,1252 L 2739,1249 L 2740,1247 L 2742,1245 L 2743,1243 L 2755,1236 L 2757,1233 L 2759,1231 L 2761,1230 L 2763,1230 L 2765,1230 L 2767,1230 L 2769,1231 L 2771,1232 L 2772,1234 L 2773,1236 L 2774,1240 L 2783,1253 L 2797,1263 L 2813,1266 L 2945,1266 L 2961,1263 L 2975,1254 L 2984,1241 L 2987,1224 L 2987,1092 L 2984,1076 L 2975,1063 L 2962,1054 L 2947,1051 L 2945,1050 L 2943,1049 L 2941,1047 L 2940,1045 L 2939,1043 L 2939,1041 L 2939,1007 L 2939,1004 L 2940,1002 L 2942,1000 L 3067,875 L 3069,873 L 3072,872 L 3074,872 L 3087,872 L 3089,872 L 3091,873 L 3092,874 L 3094,875 L 3095,877 L 3117,915 L 3128,927 L 3142,935 L 3158,936 L 3175,931 L 3344,833 L 3356,822 L 3364,808 L 3365,792 L 3359,775 L 3321,709 L 3311,697 L 3296,689 L 3280,688 L 3264,694 L 3164,751 L 3162,752 L 3159,752 L 3046,752 L 3023,757 L 3002,771 L 2838,935 L 2824,955 L 2820,979 L 2820,1041 L 2819,1043 L 2819,1045 L 2817,1047 L 2816,1049 L 2814,1050 L 2812,1051 L 2798,1053 L 2784,1062 L 2775,1075 L 2774,1081 L 2772,1083 L 2771,1084 L 2769,1085 L 2767,1086 L 2765,1087 L 2763,1087 L 2761,1086 L 2759,1085 L 2757,1084 L 2755,1080 L 2720,1057 L 2679,1049 L 2639,1057 L 2604,1080 L 2581,1115 L 2572,1157 L 2572,1159 L 2581,1201 L 2604,1236 L 2615,1243 L 2617,1245 L 2619,1247 L 2619,1249 L 2620,1252 L 2620,1364 L 2619,1367 L 2619,1369 L 2617,1371 L 2615,1373 L 2604,1380 L 2581,1415 L 2572,1457 L 2572,1459 L 2581,1501 L 2604,1536 L 2615,1543 L 2617,1545 L 2619,1547 L 2619,1549 L 2620,1552 L 2620,1664 L 2619,1667 L 2619,1669 L 2617,1671 L 2615,1673 L 2604,1680 L 2581,1715 L 2572,1757 L 2572,1759 L 2581,1801 L 2604,1836 L 2615,1843 L 2617,1845 L 2619,1847 L 2619,1849 L 2620,1852 L 2620,2057 L 2624,2081 L 2637,2100 L 2657,2113 L 2680,2118 L 2867,2118 L 2869,2118 L 2872,2119 L 2874,2121 L 2958,2205 L 2960,2207 L 2961,2209 L 2961,2211 L 2961,2213 L 2961,2215 L 2960,2217 L 2959,2219 L 2958,2220 L 2956,2221 L 2954,2222 L 2952,2222 L 2950,2222 L 2948,2222 L 2939,2218 L 2900,2218 L 2863,2233 L 2835,2261 L 2820,2298 L 2819,2329 L 2819,2332 L 2818,2334 L 2817,2336 L 2738,2415 L 2724,2435 L 2720,2459 L 2720,2548 L 2719,2550 L 2719,2552 L 2717,2554 L 2716,2556 L 2714,2557 L 2712,2558 L 2710,2558 L 2308,2558 L 2306,2558 L 2303,2557 L 2301,2555 L 2237,2491 L 2235,2489 L 2234,2487 L 2234,2484 L 2234,2311 L 2229,2288 L 2216,2268 L 2025,2076 L 2005,2063 L 1992,2060 L 1989,2060 L 1987,2058 L 1986,2057 L 1985,2055 L 1984,2053 L 1983,2051 L 1983,2016 L 1981,2000 L 1972,1987 L 1958,1977 L 1949,1976 L 1809,1976 L 1802,1977 L 1788,1986 L 1779,1999 L 1777,2010 L 1776,2012 L 1775,2014 L 1773,2016 L 1771,2017 L 1769,2018 L 1767,2018 L 1586,2018 L 1562,2023 L 1542,2036 L 1455,2123 L 1453,2125 L 1450,2126 L 1448,2126 L 1408,2126 L 1369,2143 L 1339,2173 L 1323,2210 L 1323,2256 L 1339,2294 L 1369,2324 L 1408,2340 L 1451,2340 L 1490,2324 L 1520,2294 L 1536,2255 L 1536,2215 L 1537,2212 L 1538,2210 L 1539,2208 L 1606,2141 L 1609,2139 L 1611,2138 L 1614,2138 L 1767,2138 L 1769,2138 L 1771,2139 L 1773,2140 L 1775,2142 L 1776,2144 L 1777,2146 L 1779,2156 L 1787,2169 L 1801,2178 L 1818,2182 L 1942,2182 L 1953,2180 L 1956,2180 L 1958,2180 L 1960,2181 L 1962,2182 L 2112,2332 L 2113,2334 L 2114,2337 L 2115,2339 L 2115,2512 L 2119,2536 L 2133,2556 L 2237,2659 L 2257,2673 L 2280,2678 L 2778,2678 L 2802,2673 L 2821,2660 L 2834,2641 L 2839,2617 L 2839,2601 L 2840,2599 L 2841,2597 L 2842,2595 L 2844,2594 L 2846,2593 L 2848,2593 L 2850,2593 L 2853,2594 L 2854,2594 L 2856,2596 L 2863,2602 L 2899,2618 L 2939,2618 L 2965,2607 L 2967,2607 L 2969,2606 L 2971,2607 L 2973,2607 L 2975,2609 L 2976,2610 L 2978,2612 L 2978,2614 L 2979,2616 L 2979,2658 L 2979,2658 L 2979,2778 L 2979,2778 L 2979,2782 L 2978,2784 L 2978,2786 L 2976,2788 L 2975,2790 L 2973,2791 L 2971,2792 L 2969,2792 L 2692,2792 L 2668,2797 L 2648,2810 L 2618,2840 L 2604,2860 L 2599,2887 L 2599,2889 L 2597,2891 L 2595,2892 L 2584,2900 L 2561,2935 L 2552,2976 L 2552,2979 L 2561,3021 L 2584,3056 L 2595,3063 L 2597,3065 L 2599,3067 L 2599,3069 L 2600,3071 L 2600,3266 L 2599,3269 L 2598,3271 L 2597,3273 L 2537,3333 L 2535,3334 L 2533,3335 L 2531,3336 L 2529,3336 L 2527,3336 L 2525,3335 L 2523,3334 L 2522,3332 L 2521,3330 L 2520,3328 L 2520,3326 L 2520,3179 L 2517,3164 L 2508,3150 L 2495,3141 L 2478,3137 L 2401,3137 L 2385,3140 L 2372,3149 L 2362,3162 L 2359,3179 L 2359,3375 L 2362,3391 L 2371,3404 L 2384,3413 L 2401,3417 L 2429,3417 L 2431,3417 L 2433,3418 L 2435,3419 L 2437,3420 L 2438,3422 L 2439,3424 L 2439,3426 L 2439,3428 L 2438,3430 L 2437,3432 L 2436,3434 L 2395,3475 L 2393,3477 L 2390,3478 L 2388,3478 L 2330,3478 L 2328,3478 L 2325,3477 L 2324,3476 L 2322,3474 L 2321,3472 L 2320,3470 L 2320,3468 L 2320,3440 L 2317,3424 L 2308,3410 L 2295,3401 L 2278,3398 L 2201,3398 L 2185,3401 L 2172,3410 L 2163,3423 L 2159,3440 L 2159,3468 L 2159,3470 L 2158,3472 L 2157,3474 L 2155,3476 L 2153,3477 L 2151,3478 L 2149,3478 L 2084,3478 L 2082,3478 L 2079,3477 L 2077,3475 L 1942,3340 L 1941,3338 L 1940,3335 L 1939,3333 L 1939,3164 L 1939,3162 L 1940,3160 L 1941,3158 L 1943,3156 L 1945,3155 L 1947,3154 L 1957,3152 L 1971,3144 L 1980,3130 L 1983,3113 L 1983,2989 L 1981,2974 L 1972,2960 L 1958,2951 L 1942,2948 L 1817,2948 L 1802,2950 L 1788,2959 L 1779,2973 L 1776,2989 L 1776,3114 L 1779,3129 L 1787,3143 L 1801,3152 L 1812,3154 L 1814,3155 L 1816,3156 L 1818,3158 L 1819,3160 L 1820,3162 L 1820,3164 L 1820,3361 L 1825,3384 L 1838,3404 L 2013,3579 L 2033,3593 L 2057,3597 L 2149,3597 L 2151,3598 L 2153,3598 L 2155,3600 L 2157,3601 L 2158,3603 L 2159,3605 L 2159,3607 L 2159,3636 L 2162,3651 L 2171,3665 L 2183,3673 L 2185,3675 L 2186,3677 L 2187,3678 L 2188,3680 L 2188,3683 L 2187,3686 L 2692,3686 L 2691,3685 L 2691,3682 L 2691,3680 L 2691,3678 L 2692,3676 L 2694,3675 L 2695,3673 L 2707,3666 L 2716,3652 L 2720,3635 L 2720,3440 L 2717,3424 L 2708,3410 L 2695,3401 L 2678,3398 L 2665,3398 L 2663,3398 L 2661,3397 L 2659,3396 L 2657,3394 L 2656,3393 L 2655,3391 L 2655,3389 L 2655,3386 L 2656,3384 L 2657,3382 L 2658,3381 L 2701,3338 L 2714,3318 L 2719,3294 L 2719,3071 L 2719,3069 L 2720,3067 L 2722,3065 L 2723,3063 L 2735,3056 L 2758,3021 L 2766,2979 L 2766,2976 L 2758,2935 L 2753,2927 L 2752,2925 L 2751,2923 L 2751,2921 L 2752,2919 L 2752,2917 L 2754,2915 L 2755,2914 L 2757,2912 L 2759,2912 L 2761,2911 L 2792,2911 L 2792,2911 L 2926,2911 L 2926,2911 L 3003,2911 L 3027,2907 L 3047,2893 L 3080,2861 L 3093,2841 L 3098,2817 L 3098,2228 L 3098,2225 L 3099,2223 L 3101,2221 L 3216,2106 L 3218,2104 L 3220,2103 L 3222,2103 L 3224,2103 L 3226,2103 L 3228,2104 L 3230,2105 L 3231,2107 L 3232,2109 L 3233,2111 L 3238,2139 L 3261,2173 L 3296,2197 L 3338,2205 L 3341,2205 L 3382,2197 L 3417,2173 L 3440,2139 L 3448,2098 L 3440,2057 L 3417,2022 L 3393,2006 L 3391,2005 L 3390,2003 L 3389,2001 L 3388,1999 L 3388,1997 L 3389,1995 L 3390,1993 L 3391,1991 L 3393,1990 L 3417,1973 L 3440,1939 L 3448,1898 L 3440,1857 L 3417,1823 L 3382,1799 L 3341,1791 L 3338,1791 L 3296,1799 L 3262,1823 L 3238,1857 L 3230,1898 L 3233,1913 L 3233,1916 L 3233,1918 L 3232,1920 L 3231,1922 L 3044,2108 L 3043,2110 L 3041,2111 L 3039,2111 L 3036,2111 L 3034,2111 L 3032,2110 L 3030,2108 L 2938,2016 L 2918,2003 L 2895,1998 L 2749,1998 L 2747,1998 L 2745,1997 L 2743,1996 L 2741,1994 L 2740,1993 L 2739,1990 L 2739,1988 L 2739,1852 L 2739,1849 L 2740,1847 L 2742,1845 L 2743,1843 L 2755,1836 L 2757,1832 L 2759,1831 L 2761,1830 L 2763,1830 L 2765,1830 L 2767,1830 L 2769,1831 L 2771,1832 L 2772,1834 L 2773,1836 L 2774,1840 L 2783,1853 L 2797,1862 L 2813,1866 L 2945,1866 L 2961,1863 L 2975,1854 L 2984,1841 L 2987,1823 L 2988,1821 L 2989,1819 L 2991,1818 L 2993,1816 L 2995,1816 L 3008,1813 L 3029,1799 L 3106,1722 L 3119,1702 L 3124,1678 L 3124,1541 L 3124,1539 L 3125,1537 L 3127,1535 L 3130,1532 L 3398,1264 L 3401,1262 L 3544,1179 L 3556,1169 L 3564,1154 L 3565,1138 L 3559,1122 L 3521,1055 L 3511,1043 L 3496,1036 L 3480,1035 L 3475,1036 L 3473,1037 L 3470,1037 L 3468,1036 L 3466,1035 L 3465,1034 L 3463,1032 L 3462,1030 L 3462,1028 L 3462,1026 L 3462,1023 L 3463,1021 L 3465,1020 L 3524,960 L 3526,959 L 3662,880 L 3664,879 L 3666,879 L 3668,879 L 3670,880 L 3672,881 L 3674,882 L 3675,884 L 3784,1074 L 3785,1077 L 3786,1079 L 3785,1081 L 3785,1083 L 3784,1085 L 3782,1087 L 3781,1088 L 3620,1181 L 3608,1191 L 3600,1206 L 3599,1222 L 3605,1238 L 3643,1305 L 3653,1317 L 3668,1324 L 3684,1325 L 3700,1320 L 3709,1315 L 3711,1314 L 3713,1314 L 3715,1314 L 3717,1314 L 3719,1315 L 3721,1316 L 3722,1318 L 3723,1320 L 3724,1322 L 3724,1324 L 3724,1380 L 3724,1382 L 3723,1384 L 3722,1386 L 3720,1388 L 3718,1389 L 3716,1390 L 3714,1390 L 3711,1390 L 3709,1389 L 3696,1382 L 3680,1381 L 3664,1386 L 3494,1484 L 3482,1495 L 3475,1509 L 3473,1525 L 3479,1541 L 3485,1552 L 3486,1554 L 3486,1556 L 3486,1558 L 3481,1585 L 3481,2268 L 3480,2270 L 3479,2273 L 3478,2275 L 3362,2391 L 3360,2392 L 3358,2393 L 3355,2394 L 3353,2393 L 3341,2391 L 3338,2391 L 3296,2399 L 3262,2422 L 3238,2457 L 3233,2484 L 3233,2512 L 3238,2539 L 3261,2573 L 3265,2576 L 3266,2577 L 3267,2579 L 3267,2582 L 3268,2584 L 3267,2586 L 3266,2588 L 3265,2589 L 3263,2591 L 3261,2592 L 3258,2593 L 3244,2602 L 3235,2615 L 3233,2624 L 3233,2772 L 3234,2779 L 3243,2793 L 3256,2802 L 3273,2806 L 3405,2806 L 3421,2803 L 3435,2794 L 3444,2781 L 3447,2763 L 3448,2761 L 3449,2759 L 3451,2757 L 3453,2756 L 3455,2755 L 3468,2753 L 3488,2739 L 3661,2567 L 3674,2547 L 3679,2523 L 3679,1925 L 3679,1923 L 3680,1921 L 3681,1919 L 3682,1917 L 3684,1916 L 3686,1915 L 3688,1915 L 3691,1915 L 3693,1916 L 3695,1917 L 3696,1918 L 3698,1920 L 3717,1954 L 3728,1966 L 3742,1974 L 3758,1975 L 3775,1970 L 3944,1872 L 3956,1861 L 3964,1847 L 3965,1831 L 3959,1815 L 3921,1748 L 3911,1736 L 3896,1728 L 3880,1727 L 3864,1733 L 3694,1831 L 3692,1832 L 3689,1832 L 3687,1832 L 3685,1831 L 3683,1830 L 3681,1829 L 3680,1827 L 3679,1824 L 3679,1822 L 3679,1707 L 3679,1705 L 3680,1702 L 3682,1700 L 3793,1589 L 3795,1588 L 3797,1587 L 3799,1586 L 3801,1586 L 3803,1587 L 3805,1588 L 3807,1589 L 3809,1591 L 3843,1651 L 3853,1663 L 3868,1670 L 3884,1672 L 3900,1666 L 4059,1575 L 4061,1574 L 4063,1574 L 4065,1574 L 4067,1574 L 4069,1575 L 4071,1577 L 4072,1579 L 4184,1774 L 4185,1776 L 4185,1779M 2611,486 L 2624,495 L 2641,499 L 2718,499 L 2733,496 L 2747,487 L 2756,474 L 2760,457 L 2760,261 L 2757,245 L 2748,232 L 2735,223 L 2718,219 L 2641,219 L 2625,222 L 2612,231 L 2602,244 L 2599,261 L 2599,457 L 2602,472 L 2611,486 z " style="fill-opacity:1.000000;fill:rgb(5,23,88);stroke:rgb(0,0,0);stroke-width:2"/></g>
<g fill-rule="evenodd"><path d="M 2200,3518 L 2200,3439 L 2279,3439 L 2279,3518 L 2409,3518 L 2640,3287 L 2640,3041 L 2633,3039 L 2621,3033 L 2611,3024 L 2603,3013 L 2597,3001 L 2593,2988 L 2593,2974 L 2595,2961 L 2599,2948 L 2606,2937 L 2616,2927 L 2627,2919 L 2640,2914 L 2640,2883 L 2640,2878 L 2642,2873 L 2645,2869 L 2677,2838 L 2681,2835 L 2686,2833 L 2691,2832 L 2996,2832 L 3019,2810 L 3019,2538 L 2976,2538 L 2974,2542 L 2968,2553 L 2959,2562 L 2949,2570 L 2938,2575 L 2926,2577 L 2913,2577 L 2901,2575 L 2889,2570 L 2879,2562 L 2871,2553 L 2865,2542 L 2861,2530 L 2859,2518 L 2861,2505 L 2865,2494 L 2871,2483 L 2879,2473 L 2889,2466 L 2901,2461 L 2913,2458 L 2926,2458 L 2938,2461 L 2949,2466 L 2959,2473 L 2968,2483 L 2974,2494 L 2975,2498 L 3019,2498 L 3019,2209 L 2887,2078 L 2679,2078 L 2675,2077 L 2671,2076 L 2667,2073 L 2664,2070 L 2662,2066 L 2660,2062 L 2660,2058 L 2660,1822 L 2653,1819 L 2641,1813 L 2631,1804 L 2623,1793 L 2617,1781 L 2613,1768 L 2613,1755 L 2615,1741 L 2619,1729 L 2626,1717 L 2636,1707 L 2647,1699 L 2660,1694 L 2660,1522 L 2653,1520 L 2641,1513 L 2631,1504 L 2623,1493 L 2617,1481 L 2613,1468 L 2613,1455 L 2615,1441 L 2619,1429 L 2626,1417 L 2636,1407 L 2647,1400 L 2660,1394 L 2660,1222 L 2653,1220 L 2641,1213 L 2631,1204 L 2623,1193 L 2617,1181 L 2613,1168 L 2613,1155 L 2615,1141 L 2619,1129 L 2626,1117 L 2636,1107 L 2647,1100 L 2659,1094 L 2673,1092 L 2679,1091 L 2693,1093 L 2706,1097 L 2718,1103 L 2728,1112 L 2736,1123 L 2742,1135 L 2746,1148 L 2746,1161 L 2744,1175 L 2739,1188 L 2732,1199 L 2723,1209 L 2712,1217 L 2699,1222 L 2699,1394 L 2706,1397 L 2718,1403 L 2728,1412 L 2736,1423 L 2742,1435 L 2746,1448 L 2746,1461 L 2744,1475 L 2739,1488 L 2732,1499 L 2723,1509 L 2712,1517 L 2699,1522 L 2699,1694 L 2706,1697 L 2718,1703 L 2728,1712 L 2736,1723 L 2742,1735 L 2746,1748 L 2746,1761 L 2744,1775 L 2739,1787 L 2732,1799 L 2723,1809 L 2712,1817 L 2699,1822 L 2699,2038 L 2896,2038 L 2901,2039 L 2905,2041 L 2909,2044 L 3037,2172 L 3280,1929 L 3277,1921 L 3273,1908 L 3272,1895 L 3274,1881 L 3279,1868 L 3286,1857 L 3296,1847 L 3307,1839 L 3319,1834 L 3332,1831 L 3339,1831 L 3353,1832 L 3366,1836 L 3377,1843 L 3388,1852 L 3396,1863 L 3402,1875 L 3405,1888 L 3406,1901 L 3404,1915 L 3399,1927 L 3392,1939 L 3383,1949 L 3372,1956 L 3359,1962 L 3346,1965 L 3339,1965 L 3326,1964 L 3313,1959 L 3308,1957 L 3058,2207 L 3058,2818 L 3057,2823 L 3055,2828 L 3052,2832 L 3018,2866 L 3015,2868 L 3012,2870 L 3007,2871 L 3004,2871 L 2699,2871 L 2679,2891 L 2679,2914 L 2686,2916 L 2698,2923 L 2708,2932 L 2716,2942 L 2722,2955 L 2726,2968 L 2726,2981 L 2724,2995 L 2719,3007 L 2712,3019 L 2703,3029 L 2692,3036 L 2679,3042 L 2679,3295 L 2678,3300 L 2676,3305 L 2673,3309 L 2440,3542 L 2439,3546 L 2436,3550 L 2433,3553 L 2430,3555 L 2425,3557 L 2421,3557 L 2279,3557 L 2279,3636 L 2200,3636 L 2200,3557 L 2056,3557 L 2051,3557 L 2046,3555 L 2042,3552 L 1866,3375 L 1862,3371 L 1861,3367 L 1860,3362 L 1860,3114 L 1817,3114 L 1817,2988 L 1943,2988 L 1943,3114 L 1899,3114 L 1899,3353 L 2064,3518 L 2200,3518 z " style="fill-opacity:1.000000;fill:rgb(233,94,212);stroke:rgb(0,0,0);stroke-width:2"/></g>
<g fill-rule="evenodd"><path d="M 2079,1194 L 2086,1197 L 2098,1203 L 2108,1212 L 2116,1223 L 2122,1235 L 2126,1248 L 2126,1261 L 2124,1275 L 2120,1288 L 2112,1299 L 2103,1309 L 2092,1317 L 2080,1322 L 2066,1325 L 2059,1325 L 2046,1324 L 2033,1320 L 2021,1313 L 2011,1304 L 2003,1293 L 1997,1281 L 1993,1268 L 1993,1255 L 1995,1241 L 1999,1229 L 2007,1217 L 2016,1207 L 2027,1200 L 2040,1194 L 2040,519 L 2040,515 L 2042,511 L 2043,509 L 2046,506 L 2187,364 L 2191,361 L 2196,359 L 2201,359 L 2240,359 L 2240,260 L 2319,260 L 2319,458 L 2240,458 L 2240,398 L 2209,398 L 2079,528 L 2079,1194 z " style="fill-opacity:1.000000;fill:rgb(171,178,205);stroke:rgb(0,0,0);stroke-width:2"/></g>
<g fill-rule="evenodd"><path d="M 521,1914 L 375,1829 L 414,1761 L 585,1859 L 562,1899 L 734,2071 L 737,2075 L 739,2079 L 740,2084 L 740,2283 L 742,2283 L 756,2289 L 768,2298 L 778,2309 L 785,2322 L 790,2336 L 791,2350 L 790,2365 L 785,2379 L 778,2392 L 768,2403 L 756,2412 L 742,2418 L 728,2421 L 713,2421 L 698,2418 L 685,2412 L 673,2403 L 663,2392 L 655,2379 L 651,2365 L 649,2350 L 651,2336 L 655,2322 L 663,2309 L 673,2298 L 685,2289 L 698,2283 L 701,2283 L 701,2093 L 521,1914 z " style="fill-opacity:1.000000;fill:rgb(198,155,180);stroke:rgb(0,0,0);stroke-width:2"/></g>
<g fill-rule="evenodd"><path d="M 727,1570 L 1123,1966 L 1195,1966 L 1573,1587 L 1573,1525 L 1573,1521 L 1575,1517 L 1576,1514 L 1579,1511 L 1601,1489 L 1597,1481 L 1593,1468 L 1593,1455 L 1595,1441 L 1599,1429 L 1607,1417 L 1616,1407 L 1627,1400 L 1640,1394 L 1653,1391 L 1660,1391 L 1673,1393 L 1686,1397 L 1698,1403 L 1708,1412 L 1716,1423 L 1722,1435 L 1726,1448 L 1726,1461 L 1724,1475 L 1720,1488 L 1712,1499 L 1703,1509 L 1692,1517 L 1680,1522 L 1666,1525 L 1660,1525 L 1646,1524 L 1633,1520 L 1628,1517 L 1612,1533 L 1612,1596 L 1612,1601 L 1610,1605 L 1607,1610 L 1217,2000 L 1213,2003 L 1208,2005 L 1203,2005 L 1114,2005 L 1110,2005 L 1107,2004 L 1103,2002 L 1100,2000 L 666,1565 L 663,1561 L 661,1556 L 660,1551 L 660,1532 L 574,1482 L 614,1414 L 785,1513 L 746,1581 L 727,1570 z " style="fill-opacity:1.000000;fill:rgb(84,17,14);stroke:rgb(0,0,0);stroke-width:2"/></g>
<g fill-rule="evenodd"><path d="M 1795,1476 L 1793,1468 L 1793,1455 L 1795,1441 L 1799,1429 L 1807,1417 L 1816,1407 L 1827,1400 L 1839,1394 L 1853,1391 L 1860,1391 L 1873,1393 L 1886,1397 L 1898,1403 L 1908,1412 L 1916,1423 L 1922,1435 L 1926,1448 L 1926,1461 L 1924,1475 L 1920,1488 L 1912,1499 L 1903,1509 L 1892,1517 L 1880,1522 L 1866,1525 L 1860,1525 L 1846,1524 L 1833,1520 L 1821,1513 L 1818,1510 L 1244,2083 L 1244,2608 L 1244,2613 L 1242,2618 L 1239,2622 L 983,2877 L 980,2879 L 977,2881 L 974,2882 L 969,2883 L 860,2883 L 855,2882 L 850,2880 L 846,2877 L 787,2818 L 783,2813 L 781,2809 L 781,2804 L 781,2623 L 396,2238 L 393,2234 L 391,2230 L 390,2224 L 390,2160 L 258,2028 L 255,2024 L 253,2019 L 253,2014 L 253,1640 L 176,1564 L 173,1560 L 171,1555 L 170,1550 L 170,1472 L 171,1467 L 173,1462 L 176,1458 L 250,1384 L 253,1382 L 253,1330 L 253,1325 L 255,1320 L 258,1316 L 370,1204 L 370,1126 L 371,1121 L 373,1116 L 376,1112 L 450,1038 L 453,1035 L 456,1034 L 460,1032 L 464,1032 L 542,1032 L 708,866 L 649,833 L 688,764 L 859,863 L 820,931 L 743,887 L 564,1066 L 560,1069 L 555,1071 L 550,1071 L 472,1071 L 409,1134 L 409,1196 L 411,1197 L 413,1201 L 414,1206 L 414,1210 L 413,1214 L 411,1218 L 408,1222 L 292,1338 L 292,1398 L 292,1402 L 290,1406 L 289,1408 L 287,1411 L 285,1413 L 282,1415 L 280,1416 L 276,1417 L 272,1418 L 209,1480 L 209,1542 L 286,1618 L 288,1621 L 290,1624 L 292,1629 L 292,1632 L 292,2006 L 424,2138 L 426,2141 L 428,2144 L 429,2148 L 430,2152 L 430,2216 L 814,2601 L 818,2605 L 820,2610 L 820,2615 L 820,2795 L 868,2843 L 961,2843 L 1205,2600 L 1205,2075 L 1206,2070 L 1208,2065 L 1211,2061 L 1795,1476 z " style="fill-opacity:1.000000;fill:rgb(130,116,65);stroke:rgb(0,0,0);stroke-width:2"/></g>
<g fill-rule="evenodd"><path d="M 900,2696 L 900,2421 L 849,2421 L 849,2280 L 991,2280 L 991,2421 L 940,2421 L 940,2700 L 946,2704 L 955,2711 L 961,2720 L 966,2730 L 969,2740 L 970,2752 L 968,2763 L 964,2773 L 958,2783 L 951,2791 L 941,2797 L 931,2801 L 920,2804 L 915,2804 L 904,2803 L 893,2799 L 883,2794 L 875,2787 L 868,2778 L 863,2768 L 860,2757 L 860,2746 L 861,2735 L 865,2725 L 871,2715 L 879,2707 L 888,2701 L 898,2696 L 900,2696 z " style="fill-opacity:1.000000;fill:rgb(33,61,220);stroke:rgb(0,0,0);stroke-width:2"/></g>
<g fill-rule="evenodd"><path d="M 1488,2202 L 1491,2206 L 1495,2219 L 1496,2233 L 1495,2247 L 1491,2260 L 1484,2273 L 1474,2283 L 1463,2291 L 1450,2297 L 1436,2300 L 1422,2300 L 1409,2297 L 1396,2291 L 1385,2283 L 1375,2273 L 1368,2260 L 1364,2247 L 1362,2233 L 1364,2219 L 1368,2206 L 1375,2194 L 1385,2183 L 1396,2175 L 1409,2170 L 1422,2167 L 1436,2167 L 1450,2170 L 1461,2174 L 1571,2064 L 1575,2061 L 1580,2059 L 1585,2058 L 1817,2058 L 1817,2015 L 1943,2015 L 1943,2098 L 1982,2098 L 1987,2099 L 1992,2101 L 1996,2104 L 2188,2297 L 2191,2301 L 2193,2305 L 2194,2311 L 2194,2505 L 2288,2598 L 2760,2598 L 2760,2458 L 2760,2453 L 2762,2448 L 2765,2444 L 2866,2344 L 2865,2342 L 2861,2330 L 2859,2318 L 2861,2305 L 2865,2294 L 2871,2283 L 2879,2273 L 2889,2266 L 2901,2261 L 2913,2258 L 2926,2258 L 2938,2261 L 2949,2266 L 2959,2273 L 2968,2283 L 2974,2294 L 2978,2305 L 2979,2318 L 2978,2330 L 2974,2342 L 2968,2353 L 2959,2362 L 2949,2370 L 2938,2375 L 2926,2377 L 2913,2377 L 2901,2375 L 2894,2372 L 2799,2466 L 2799,2618 L 2799,2622 L 2797,2626 L 2795,2630 L 2792,2633 L 2788,2636 L 2784,2637 L 2779,2638 L 2279,2638 L 2274,2637 L 2270,2635 L 2266,2632 L 2161,2527 L 2158,2524 L 2156,2520 L 2155,2517 L 2155,2513 L 2155,2319 L 1974,2138 L 1943,2138 L 1943,2141 L 1817,2141 L 1817,2098 L 1593,2098 L 1488,2202 z " style="fill-opacity:1.000000;fill:rgb(135,112,233);stroke:rgb(0,0,0);stroke-width:2"/></g>
<g fill-rule="evenodd"><path d="M 401,1522 L 459,1556 L 420,1624 L 249,1525 L 288,1457 L 365,1502 L 544,1323 L 548,1320 L 553,1318 L 558,1317 L 692,1317 L 697,1318 L 702,1320 L 706,1323 L 806,1423 L 1020,1423 L 1324,1118 L 1328,1115 L 1333,1113 L 1338,1112 L 1628,1112 L 1633,1113 L 1638,1115 L 1642,1118 L 1673,1150 L 1677,1154 L 1679,1158 L 1679,1163 L 1679,1194 L 1686,1197 L 1698,1203 L 1708,1212 L 1716,1223 L 1722,1235 L 1726,1248 L 1726,1261 L 1724,1275 L 1720,1288 L 1712,1299 L 1703,1309 L 1692,1317 L 1680,1322 L 1666,1325 L 1660,1325 L 1646,1324 L 1633,1320 L 1621,1313 L 1611,1304 L 1603,1293 L 1597,1281 L 1593,1268 L 1593,1255 L 1595,1241 L 1599,1229 L 1607,1217 L 1616,1207 L 1627,1200 L 1640,1194 L 1640,1172 L 1620,1152 L 1346,1152 L 1042,1456 L 1038,1459 L 1035,1461 L 1032,1462 L 1028,1462 L 798,1462 L 793,1461 L 788,1459 L 784,1456 L 684,1356 L 566,1356 L 401,1522 z " style="fill-opacity:1.000000;fill:rgb(62,161,65);stroke:rgb(0,0,0);stroke-width:2"/></g>
<g fill-rule="evenodd"><path d="M 599,1175 L 661,1175 L 666,1175 L 671,1177 L 675,1180 L 793,1298 L 938,1298 L 1244,992 L 1247,990 L 1250,988 L 1254,987 L 1258,987 L 1708,987 L 1713,987 L 1718,989 L 1722,992 L 1873,1144 L 1877,1148 L 1879,1153 L 1879,1158 L 1879,1194 L 1886,1197 L 1898,1203 L 1908,1212 L 1916,1223 L 1922,1235 L 1926,1248 L 1926,1261 L 1924,1275 L 1920,1288 L 1912,1299 L 1903,1309 L 1892,1317 L 1880,1322 L 1866,1325 L 1860,1325 L 1846,1324 L 1833,1320 L 1821,1313 L 1811,1304 L 1803,1293 L 1797,1281 L 1793,1268 L 1793,1255 L 1795,1241 L 1799,1229 L 1807,1217 L 1816,1207 L 1827,1200 L 1840,1194 L 1840,1166 L 1700,1026 L 1266,1026 L 960,1332 L 956,1335 L 951,1337 L 946,1338 L 785,1338 L 780,1337 L 775,1335 L 771,1332 L 655,1216 L 620,1278 L 449,1179 L 488,1111 L 599,1175 z " style="fill-opacity:1.000000;fill:rgb(225,252,103);stroke:rgb(0,0,0);stroke-width:2"/></g>
<g fill-rule="evenodd"><path d="M 1181,1776 L 1194,1782 L 1206,1790 L 1215,1801 L 1222,1813 L 1226,1826 L 1228,1840 L 1226,1854 L 1222,1867 L 1215,1879 L 1206,1890 L 1194,1898 L 1182,1904 L 1168,1907 L 1154,1907 L 1140,1904 L 1128,1898 L 1116,1890 L 1107,1879 L 1100,1867 L 1096,1854 L 1094,1840 L 1096,1826 L 1100,1813 L 1107,1801 L 1116,1790 L 1128,1782 L 1141,1776 L 1141,1462 L 1142,1458 L 1143,1454 L 1145,1451 L 1147,1448 L 1351,1244 L 1355,1241 L 1360,1239 L 1365,1238 L 1396,1238 L 1400,1229 L 1407,1217 L 1416,1207 L 1427,1200 L 1440,1194 L 1453,1192 L 1460,1191 L 1473,1193 L 1486,1197 L 1498,1203 L 1508,1212 L 1516,1223 L 1522,1235 L 1526,1248 L 1526,1261 L 1524,1275 L 1520,1288 L 1513,1299 L 1503,1309 L 1492,1317 L 1480,1322 L 1466,1325 L 1460,1325 L 1446,1324 L 1433,1320 L 1421,1313 L 1411,1304 L 1403,1293 L 1397,1281 L 1396,1278 L 1373,1278 L 1181,1470 L 1181,1776 z " style="fill-opacity:1.000000;fill:rgb(62,1,126);stroke:rgb(0,0,0);stroke-width:2"/></g>
<g fill-rule="evenodd"><path d="M 3398,2467 L 3402,2475 L 3405,2488 L 3406,2501 L 3404,2515 L 3399,2527 L 3392,2539 L 3383,2549 L 3372,2556 L 3359,2562 L 3346,2564 L 3339,2565 L 3326,2563 L 3313,2559 L 3301,2553 L 3291,2544 L 3282,2533 L 3277,2521 L 3273,2508 L 3272,2494 L 3274,2481 L 3279,2468 L 3286,2457 L 3296,2447 L 3307,2439 L 3319,2434 L 3332,2431 L 3339,2431 L 3353,2432 L 3366,2436 L 3370,2439 L 3521,2288 L 3521,1584 L 3521,1578 L 3523,1574 L 3527,1570 L 3537,1560 L 3514,1520 L 3685,1421 L 3724,1490 L 3578,1574 L 3560,1592 L 3560,2297 L 3559,2302 L 3558,2306 L 3554,2311 L 3398,2467 z " style="fill-opacity:1.000000;fill:rgb(151,234,220);stroke:rgb(0,0,0);stroke-width:2"/></g>
<g fill-rule="evenodd"><path d="M 3406,2717 L 3406,2765 L 3272,2765 L 3272,2631 L 3406,2631 L 3406,2678 L 3437,2678 L 3600,2516 L 3600,1678 L 3600,1673 L 3602,1668 L 3605,1664 L 3764,1506 L 3764,1248 L 3756,1240 L 3679,1285 L 3640,1217 L 3811,1118 L 3850,1186 L 3791,1220 L 3797,1226 L 3801,1230 L 3802,1235 L 3803,1240 L 3803,1514 L 3802,1519 L 3801,1524 L 3797,1528 L 3639,1686 L 3639,2524 L 3638,2529 L 3636,2534 L 3633,2538 L 3459,2712 L 3455,2715 L 3451,2717 L 3446,2717 L 3406,2717 z " style="fill-opacity:1.000000;fill:rgb(107,150,143);stroke:rgb(0,0,0);stroke-width:2"/></g>
<g fill-rule="evenodd"><path d="M 3175,792 L 3285,729 L 3325,797 L 3153,896 L 3117,832 L 3053,832 L 2899,986 L 2899,1091 L 2946,1091 L 2946,1225 L 2812,1225 L 2812,1091 L 2860,1091 L 2860,978 L 2860,973 L 2862,968 L 2865,964 L 3031,798 L 3035,795 L 3040,793 L 3045,792 L 3175,792 z " style="fill-opacity:1.000000;fill:rgb(56,92,42);stroke:rgb(0,0,0);stroke-width:2"/></g>
<g fill-rule="evenodd"><path d="M 3462,910 L 3440,870 L 3611,772 L 3650,840 L 3503,925 L 3025,1403 L 3025,1438 L 3024,1443 L 3022,1448 L 3019,1452 L 3000,1472 L 2995,1475 L 2991,1477 L 2986,1478 L 2946,1478 L 2946,1525 L 2812,1525 L 2812,1391 L 2946,1391 L 2946,1438 L 2977,1438 L 2986,1430 L 2986,1395 L 2986,1390 L 2988,1385 L 2991,1381 L 3462,910 z " style="fill-opacity:1.000000;fill:rgb(236,176,59);stroke:rgb(0,0,0);stroke-width:2"/></g>
<g fill-rule="evenodd"><path d="M 3337,1213 L 3314,1174 L 3485,1075 L 3524,1143 L 3378,1228 L 3101,1505 L 3097,1508 L 3092,1510 L 3087,1510 L 3084,1510 L 3084,1679 L 3083,1684 L 3081,1689 L 3078,1693 L 3000,1772 L 2995,1775 L 2991,1777 L 2986,1778 L 2946,1778 L 2946,1825 L 2812,1825 L 2812,1691 L 2946,1691 L 2946,1738 L 2977,1738 L 3045,1671 L 3045,1491 L 3045,1489 L 3046,1485 L 3046,1483 L 3048,1479 L 3050,1477 L 3053,1475 L 3056,1473 L 3060,1471 L 3064,1471 L 3079,1471 L 3337,1213 z " style="fill-opacity:1.000000;fill:rgb(251,50,175);stroke:rgb(0,0,0);stroke-width:2"/></g>
</svg>
