<?xml version="1.0" standalone="no"?>
<!DOCTYPE svg PUBLIC "-//W3C//DTD SVG 1.1//EN"
"http://www.w3.org/Graphics/SVG/1.1/DTD/svg11.dtd">
<svg width="4294" height="3794" viewBox="0 0 4294 3794" version="1.1"
xmlns="http://www.w3.org/2000/svg"
xmlns:xlink="http://www.w3.org/1999/xlink">
<g fill-rule="evenodd"><path d="M 1098,7 L 3215,7 L 3222,8 L 3228,10 L 3234,13 L 3239,18 L 3242,23 L 4281,1841 L 4284,1848 L 4285,1856 L 4284,1864 L 4281,1872 L 3223,3769 L 3219,3775 L 3214,3779 L 3208,3783 L 3202,3785 L 3195,3786 L 1218,3786 L 1210,3785 L 1202,3781 L 1196,3776 L 1191,3770 L 12,1752 L 9,1746 L 8,1740 L 8,1733 L 10,1726 L 13,1720 L 1071,22 L 1076,16 L 1083,11 L 1090,8 L 1098,7 z " style="fill-opacity:1.000000;fill:rgb(103,198,105);stroke:rgb(0,0,0);stroke-width:2"/></g>
</svg>
