G04 #@! TF.FileFunction,Copper,L2,Bot,Signal*
%FSLAX46Y46*%
G04 Gerber Fmt 4.6, Leading zero omitted, Abs format (unit mm)*
G04 Created by KiCad (PCBNEW 4.0.7-e2-6376~58~ubuntu14.04.1) date Mon Mar 25 18:05:39 2019*
%MOMM*%
%LPD*%
G01*
G04 APERTURE LIST*
%ADD10C,0.100000*%
%ADD11R,1.000000X2.510000*%
%ADD12R,1.600000X1.600000*%
%ADD13C,1.600000*%
%ADD14C,1.400000*%
%ADD15O,1.400000X1.400000*%
%ADD16R,1.800000X1.800000*%
%ADD17C,1.800000*%
%ADD18R,1.700000X1.700000*%
%ADD19O,1.700000X1.700000*%
%ADD20C,1.520000*%
%ADD21R,1.520000X1.520000*%
%ADD22C,1.700000*%
%ADD23C,0.500000*%
%ADD24C,0.254000*%
G04 APERTURE END LIST*
D10*
G36*
X208427406Y-91863669D02*
X208927406Y-92729695D01*
X206753682Y-93984695D01*
X206253682Y-93118669D01*
X208427406Y-91863669D01*
X208427406Y-91863669D01*
G37*
G36*
X210967406Y-96263078D02*
X211467406Y-97129104D01*
X209293682Y-98384104D01*
X208793682Y-97518078D01*
X210967406Y-96263078D01*
X210967406Y-96263078D01*
G37*
G36*
X213507406Y-100662487D02*
X214007406Y-101528513D01*
X211833682Y-102783513D01*
X211333682Y-101917487D01*
X213507406Y-100662487D01*
X213507406Y-100662487D01*
G37*
G36*
X204290862Y-91318964D02*
X204790862Y-92184990D01*
X202617138Y-93439990D01*
X202117138Y-92573964D01*
X204290862Y-91318964D01*
X204290862Y-91318964D01*
G37*
G36*
X206830862Y-95718373D02*
X207330862Y-96584399D01*
X205157138Y-97839399D01*
X204657138Y-96973373D01*
X206830862Y-95718373D01*
X206830862Y-95718373D01*
G37*
G36*
X209370862Y-100117783D02*
X209870862Y-100983809D01*
X207697138Y-102238809D01*
X207197138Y-101372783D01*
X209370862Y-100117783D01*
X209370862Y-100117783D01*
G37*
G36*
X211910862Y-104517192D02*
X212410862Y-105383218D01*
X210237138Y-106638218D01*
X209737138Y-105772192D01*
X211910862Y-104517192D01*
X211910862Y-104517192D01*
G37*
D11*
X196088000Y-127000000D03*
X191008000Y-127000000D03*
X193548000Y-123690000D03*
X188468000Y-123690000D03*
D12*
X186436000Y-108458000D03*
D13*
X186436000Y-113458000D03*
D14*
X181800000Y-116980000D03*
D15*
X174180000Y-116980000D03*
D16*
X174250000Y-111920000D03*
D17*
X171710000Y-111920000D03*
D12*
X186436000Y-120824000D03*
D13*
X186436000Y-115824000D03*
D18*
X199136000Y-96774000D03*
D19*
X196596000Y-96774000D03*
X194056000Y-96774000D03*
D11*
X196596000Y-86622000D03*
X191516000Y-86622000D03*
X186436000Y-86622000D03*
X181356000Y-86622000D03*
X194056000Y-83312000D03*
X188976000Y-83312000D03*
X183896000Y-83312000D03*
X178816000Y-83312000D03*
D18*
X199136000Y-100584000D03*
D19*
X196596000Y-100584000D03*
X194056000Y-100584000D03*
D18*
X199136000Y-104394000D03*
D19*
X196596000Y-104394000D03*
X194056000Y-104394000D03*
D18*
X204978000Y-116332000D03*
D19*
X204978000Y-113792000D03*
X204978000Y-111252000D03*
X204978000Y-108712000D03*
X204978000Y-106172000D03*
D18*
X181102000Y-100584000D03*
D19*
X181102000Y-98044000D03*
X183642000Y-100584000D03*
X183642000Y-98044000D03*
X186182000Y-100584000D03*
X186182000Y-98044000D03*
X188722000Y-100584000D03*
X188722000Y-98044000D03*
D18*
X198882000Y-119888000D03*
D19*
X196342000Y-119888000D03*
D20*
X199644000Y-114046000D03*
X199644000Y-111506000D03*
D21*
X199644000Y-116586000D03*
D10*
G36*
X165722594Y-101437331D02*
X166222594Y-100571305D01*
X168396318Y-101826305D01*
X167896318Y-102692331D01*
X165722594Y-101437331D01*
X165722594Y-101437331D01*
G37*
G36*
X168262594Y-97037922D02*
X168762594Y-96171896D01*
X170936318Y-97426896D01*
X170436318Y-98292922D01*
X168262594Y-97037922D01*
X168262594Y-97037922D01*
G37*
G36*
X170802594Y-92638513D02*
X171302594Y-91772487D01*
X173476318Y-93027487D01*
X172976318Y-93893513D01*
X170802594Y-92638513D01*
X170802594Y-92638513D01*
G37*
G36*
X167319138Y-105292035D02*
X167819138Y-104426009D01*
X169992862Y-105681009D01*
X169492862Y-106547035D01*
X167319138Y-105292035D01*
X167319138Y-105292035D01*
G37*
G36*
X169859138Y-100892626D02*
X170359138Y-100026600D01*
X172532862Y-101281600D01*
X172032862Y-102147626D01*
X169859138Y-100892626D01*
X169859138Y-100892626D01*
G37*
G36*
X172399138Y-96493217D02*
X172899138Y-95627191D01*
X175072862Y-96882191D01*
X174572862Y-97748217D01*
X172399138Y-96493217D01*
X172399138Y-96493217D01*
G37*
D22*
X178980825Y-103880241D03*
X181878747Y-106988635D03*
X177309560Y-105435487D03*
X180718559Y-110430525D03*
D23*
X199136000Y-96774000D02*
X199136000Y-94488000D01*
X199136000Y-94488000D02*
X201244523Y-92379477D01*
X201244523Y-92379477D02*
X203454000Y-92379477D01*
X195326000Y-124933001D02*
X193313999Y-126945002D01*
X196342000Y-119888000D02*
X196342000Y-123917001D01*
X196342000Y-123917001D02*
X195326000Y-124933001D01*
X200722002Y-118287999D02*
X196739920Y-118287999D01*
X201154001Y-114046000D02*
X201154001Y-117856000D01*
X201154001Y-117856000D02*
X200722002Y-118287999D01*
X196739920Y-118287999D02*
X196342000Y-118685919D01*
X196342000Y-118685919D02*
X196342000Y-119888000D01*
X193313999Y-126945002D02*
X193313999Y-127000000D01*
X193313999Y-127000000D02*
X191008000Y-127000000D01*
X186436000Y-120824000D02*
X186436000Y-124763002D01*
X186436000Y-124763002D02*
X188672998Y-127000000D01*
X188672998Y-127000000D02*
X190008000Y-127000000D01*
X190008000Y-127000000D02*
X191008000Y-127000000D01*
X201154001Y-114046000D02*
X201154001Y-110015981D01*
X199644000Y-114046000D02*
X201154001Y-114046000D01*
X201154001Y-110015981D02*
X201144010Y-110005990D01*
X196596000Y-108204000D02*
X199342020Y-108204000D01*
X199342020Y-108204000D02*
X201144010Y-110005990D01*
X204978000Y-106172000D02*
X201144010Y-110005990D01*
X196596000Y-104394000D02*
X196596000Y-108204000D01*
X196596000Y-100584000D02*
X196596000Y-104394000D01*
X196596000Y-96774000D02*
X196596000Y-100584000D01*
X202438000Y-126826000D02*
X202438000Y-120142000D01*
X202438000Y-120142000D02*
X202438000Y-119888000D01*
X198882000Y-119888000D02*
X202184000Y-119888000D01*
X202184000Y-119888000D02*
X202438000Y-120142000D01*
X190160634Y-106138636D02*
X182728746Y-106138636D01*
X191235999Y-107214001D02*
X190160634Y-106138636D01*
X179155759Y-103880241D02*
X178980825Y-103880241D01*
X182728746Y-106138636D02*
X181878747Y-106988635D01*
X181102000Y-100584000D02*
X181102000Y-101934000D01*
X181102000Y-101934000D02*
X179155759Y-103880241D01*
X181963376Y-113966000D02*
X186436000Y-113966000D01*
X181873081Y-106907999D02*
X179118557Y-109662523D01*
X191235999Y-107214001D02*
X190929997Y-106907999D01*
X190929997Y-106907999D02*
X181873081Y-106907999D01*
X179118557Y-111121181D02*
X181963376Y-113966000D01*
X179118557Y-109662523D02*
X179118557Y-111121181D01*
X181800000Y-116980000D02*
X181800000Y-119533808D01*
X187960000Y-129136001D02*
X195834000Y-129136001D01*
X181800000Y-119533808D02*
X181799357Y-119534451D01*
X181799357Y-119534451D02*
X181799357Y-122975358D01*
X181799357Y-122975358D02*
X187960000Y-129136001D01*
X186436000Y-115824000D02*
X186436000Y-113458000D01*
X188468000Y-123690000D02*
X188468000Y-117856000D01*
X188468000Y-117856000D02*
X186436000Y-115824000D01*
X200127999Y-129136001D02*
X202438000Y-126826000D01*
X202438000Y-119888000D02*
X202438000Y-118618000D01*
X202438000Y-118618000D02*
X203377999Y-117678001D01*
X203377999Y-117678001D02*
X203377999Y-112852001D01*
X203377999Y-112852001D02*
X204978000Y-111252000D01*
X199644000Y-116586000D02*
X194817000Y-116586000D01*
X194817000Y-116586000D02*
X188468000Y-122935000D01*
X188468000Y-122935000D02*
X188468000Y-123690000D01*
X195834000Y-129136001D02*
X200127999Y-129136001D01*
X195834000Y-129136001D02*
X196172001Y-129136001D01*
X194056000Y-104394000D02*
X191235999Y-107214001D01*
X194056000Y-100584000D02*
X194056000Y-104394000D01*
X194056000Y-96774000D02*
X194056000Y-100584000D01*
X174250000Y-111920000D02*
X174250000Y-116910000D01*
X174250000Y-116910000D02*
X174180000Y-116980000D01*
X174180000Y-111990000D02*
X174250000Y-111920000D01*
X168656000Y-105486522D02*
X171710000Y-108540522D01*
X171710000Y-108540522D02*
X171710000Y-111920000D01*
X200486000Y-100584000D02*
X200736001Y-100333999D01*
X200736001Y-100333999D02*
X200736001Y-99778725D01*
X200736001Y-99778725D02*
X206601111Y-93913615D01*
X206601111Y-93913615D02*
X207590544Y-92924182D01*
X199136000Y-100584000D02*
X200486000Y-100584000D01*
X201486010Y-100998215D02*
X201774671Y-100998215D01*
X201774671Y-100998215D02*
X205994000Y-96778886D01*
X199136000Y-104394000D02*
X200486000Y-104394000D01*
X200486000Y-104394000D02*
X201486010Y-103393990D01*
X201486010Y-103393990D02*
X201486010Y-100998215D01*
X167059456Y-101631818D02*
X169648342Y-99042932D01*
X169648342Y-99042932D02*
X171354870Y-99042932D01*
X171354870Y-99042932D02*
X172695420Y-100383482D01*
X179555297Y-96443999D02*
X183244080Y-96443999D01*
X172695420Y-100383482D02*
X175615814Y-100383482D01*
X183244080Y-96443999D02*
X183642000Y-96841919D01*
X175615814Y-100383482D02*
X179555297Y-96443999D01*
X183642000Y-96841919D02*
X183642000Y-98044000D01*
X182792001Y-101433999D02*
X183642000Y-100584000D01*
X176716877Y-107285340D02*
X177838483Y-107285340D01*
X171196000Y-101087113D02*
X171196000Y-101764463D01*
X171196000Y-101764463D02*
X176716877Y-107285340D01*
X177838483Y-107285340D02*
X182792001Y-102331822D01*
X182792001Y-102331822D02*
X182792001Y-101433999D01*
X186182000Y-98044000D02*
X186182000Y-96774000D01*
X186182000Y-96774000D02*
X184254180Y-94846180D01*
X174575755Y-98806000D02*
X172532164Y-98806000D01*
X184254180Y-94846180D02*
X178535575Y-94846180D01*
X178535575Y-94846180D02*
X174575755Y-98806000D01*
X172532164Y-98806000D02*
X170958573Y-97232409D01*
X170958573Y-97232409D02*
X170699456Y-97232409D01*
X170699456Y-97232409D02*
X169599456Y-97232409D01*
X188722000Y-100584000D02*
X190415999Y-98890001D01*
X192766001Y-88477001D02*
X192766001Y-84766999D01*
X177691749Y-92731955D02*
X173736000Y-96687704D01*
X190415999Y-98890001D02*
X190415999Y-91073003D01*
X190415999Y-91073003D02*
X192721751Y-88767251D01*
X190265999Y-85703774D02*
X183237818Y-92731955D01*
X192721751Y-88767251D02*
X192721751Y-88521251D01*
X192721751Y-88521251D02*
X192766001Y-88477001D01*
X192766001Y-84766999D02*
X192616001Y-84616999D01*
X192616001Y-84616999D02*
X190415999Y-84616999D01*
X190415999Y-84616999D02*
X190265999Y-84766999D01*
X190265999Y-84766999D02*
X190265999Y-85703774D01*
X183237818Y-92731955D02*
X177691749Y-92731955D01*
X167768801Y-110319372D02*
X172729999Y-115280570D01*
X166020117Y-102795530D02*
X166020117Y-107644343D01*
X165911928Y-99821295D02*
X164972584Y-100760639D01*
X166020117Y-99821295D02*
X165911928Y-99821295D01*
X172729999Y-115280570D02*
X172729999Y-117676001D01*
X167568226Y-97404230D02*
X166020117Y-98952339D01*
X185954052Y-100584000D02*
X186182000Y-100584000D01*
X168451928Y-95421886D02*
X167512584Y-96361230D01*
X172139456Y-92833000D02*
X169550570Y-95421886D01*
X166020117Y-98952339D02*
X166020117Y-99821295D01*
X167768801Y-109393027D02*
X167768801Y-110319372D01*
X172729999Y-117676001D02*
X173483999Y-118430001D01*
X164972584Y-100760639D02*
X164972584Y-101747997D01*
X178118546Y-115187456D02*
X178118546Y-108419506D01*
X164972584Y-101747997D02*
X166020117Y-102795530D01*
X178118546Y-108419506D02*
X185954052Y-100584000D01*
X166020117Y-107644343D02*
X167768801Y-109393027D01*
X173483999Y-118430001D02*
X174876001Y-118430001D01*
X169550570Y-95421886D02*
X168451928Y-95421886D01*
X167512584Y-97348588D02*
X167568226Y-97404230D01*
X174876001Y-118430001D02*
X178118546Y-115187456D01*
X167512584Y-96361230D02*
X167512584Y-97348588D01*
X188722000Y-98044000D02*
X188722000Y-88662000D01*
X190516000Y-86868000D02*
X191516000Y-86868000D01*
X188722000Y-88662000D02*
X190516000Y-86868000D01*
X182691084Y-108458000D02*
X180718559Y-110430525D01*
X186436000Y-108458000D02*
X182691084Y-108458000D01*
X177309560Y-100634359D02*
X177309560Y-104233406D01*
X181102000Y-98044000D02*
X179899919Y-98044000D01*
X177309560Y-104233406D02*
X177309560Y-105435487D01*
X179899919Y-98044000D02*
X177309560Y-100634359D01*
X181568558Y-109580526D02*
X180718559Y-110430525D01*
X186436000Y-108458000D02*
X183193833Y-108458000D01*
X186436000Y-108966000D02*
X187736000Y-108966000D01*
X187736000Y-108966000D02*
X190182263Y-111412263D01*
X190182263Y-111412263D02*
X190182263Y-113982263D01*
X199644000Y-111506000D02*
X197866000Y-113284000D01*
X197866000Y-113284000D02*
X197866000Y-115316000D01*
X191516000Y-115316000D02*
X197866000Y-115316000D01*
X190182263Y-113952263D02*
X190182263Y-113982263D01*
X190182263Y-113982263D02*
X191516000Y-115316000D01*
X204978000Y-113792000D02*
X207533990Y-111236010D01*
X207533990Y-111236010D02*
X207533990Y-102178306D01*
X207533990Y-102178306D02*
X208534000Y-101178296D01*
X204978000Y-116332000D02*
X206328000Y-116332000D01*
X206328000Y-116332000D02*
X208534000Y-114126000D01*
X208534000Y-114126000D02*
X208534000Y-103381347D01*
X208534000Y-103381347D02*
X210620872Y-101294475D01*
X210620872Y-101294475D02*
X210620872Y-97813919D01*
X210620872Y-97813919D02*
X210567279Y-97760326D01*
X210567279Y-97760326D02*
X210130544Y-97323591D01*
D24*
G36*
X210519457Y-95774102D02*
X208469962Y-96957378D01*
X208288311Y-97113383D01*
X208170678Y-97341885D01*
X208151212Y-97598150D01*
X208232982Y-97841798D01*
X208732982Y-98707824D01*
X208888987Y-98889475D01*
X209117489Y-99007108D01*
X209373754Y-99026573D01*
X209617402Y-98944804D01*
X209735872Y-98876405D01*
X209735872Y-99591982D01*
X209547055Y-99494779D01*
X209290790Y-99475314D01*
X209047142Y-99557083D01*
X206873418Y-100812083D01*
X206691767Y-100968088D01*
X206574134Y-101196590D01*
X206554668Y-101452855D01*
X206636438Y-101696503D01*
X206717814Y-101837450D01*
X206716357Y-101839631D01*
X206716357Y-101839632D01*
X206648989Y-102178306D01*
X206648990Y-102178311D01*
X206648990Y-110869431D01*
X205177520Y-112340900D01*
X205007093Y-112307000D01*
X204948907Y-112307000D01*
X204380622Y-112420039D01*
X203898853Y-112741946D01*
X203576946Y-113223715D01*
X203463907Y-113792000D01*
X203576946Y-114360285D01*
X203898853Y-114842054D01*
X203940452Y-114869850D01*
X203892683Y-114878838D01*
X203676559Y-115017910D01*
X203531569Y-115230110D01*
X203480560Y-115482000D01*
X203480560Y-117182000D01*
X203524838Y-117417317D01*
X203663910Y-117633441D01*
X203876110Y-117778431D01*
X204128000Y-117829440D01*
X205828000Y-117829440D01*
X206063317Y-117785162D01*
X206279441Y-117646090D01*
X206424431Y-117433890D01*
X206474243Y-117187911D01*
X206610484Y-117160810D01*
X206666675Y-117149633D01*
X206953790Y-116957790D01*
X209159787Y-114751792D01*
X209159790Y-114751790D01*
X209351633Y-114464675D01*
X209351979Y-114462937D01*
X209419001Y-114126000D01*
X209419000Y-114125995D01*
X209419000Y-106516042D01*
X209676438Y-106961938D01*
X209832443Y-107143589D01*
X210060945Y-107261222D01*
X210317210Y-107280687D01*
X210560858Y-107198918D01*
X212734582Y-105943918D01*
X212916233Y-105787913D01*
X213033866Y-105559411D01*
X213053332Y-105303146D01*
X212971562Y-105059498D01*
X212471562Y-104193472D01*
X212315557Y-104011821D01*
X212087055Y-103894188D01*
X211830790Y-103874723D01*
X211587142Y-103956492D01*
X209419000Y-105208269D01*
X209419000Y-103747927D01*
X210828888Y-102338039D01*
X211272982Y-103107233D01*
X211428987Y-103288884D01*
X211657489Y-103406517D01*
X211913754Y-103425982D01*
X212157402Y-103344213D01*
X214178459Y-102177355D01*
X215595683Y-104657497D01*
X202522799Y-128830000D01*
X196867082Y-128830000D01*
X197039441Y-128719090D01*
X197184431Y-128506890D01*
X197235440Y-128255000D01*
X197235440Y-125745000D01*
X197191162Y-125509683D01*
X197052090Y-125293559D01*
X196839890Y-125148569D01*
X196588000Y-125097560D01*
X196413021Y-125097560D01*
X196967787Y-124542793D01*
X196967790Y-124542791D01*
X197159633Y-124255676D01*
X197200943Y-124048000D01*
X197227001Y-123917001D01*
X197227000Y-123916996D01*
X197227000Y-121077432D01*
X197392054Y-120967147D01*
X197713961Y-120485378D01*
X197827000Y-119917093D01*
X197827000Y-119858907D01*
X197713961Y-119290622D01*
X197635368Y-119172999D01*
X200721997Y-119172999D01*
X200722002Y-119173000D01*
X201004486Y-119116809D01*
X201060677Y-119105632D01*
X201347792Y-118913789D01*
X201347793Y-118913788D01*
X201779788Y-118481792D01*
X201779791Y-118481790D01*
X201971634Y-118194675D01*
X201998397Y-118060129D01*
X202039002Y-117856000D01*
X202039001Y-117855995D01*
X202039001Y-110362579D01*
X203501349Y-108900231D01*
X203576946Y-109280285D01*
X203898853Y-109762054D01*
X204380622Y-110083961D01*
X204948907Y-110197000D01*
X205007093Y-110197000D01*
X205575378Y-110083961D01*
X206057147Y-109762054D01*
X206379054Y-109280285D01*
X206492093Y-108712000D01*
X206379054Y-108143715D01*
X206057147Y-107661946D01*
X205727974Y-107442000D01*
X206057147Y-107222054D01*
X206379054Y-106740285D01*
X206492093Y-106172000D01*
X206379054Y-105603715D01*
X206057147Y-105121946D01*
X205575378Y-104800039D01*
X205007093Y-104687000D01*
X204948907Y-104687000D01*
X204380622Y-104800039D01*
X203898853Y-105121946D01*
X203576946Y-105603715D01*
X203463907Y-106172000D01*
X203507461Y-106390960D01*
X201144010Y-108754410D01*
X199967810Y-107578210D01*
X199902402Y-107534506D01*
X199680695Y-107386367D01*
X199624504Y-107375190D01*
X199342020Y-107318999D01*
X199342015Y-107319000D01*
X197481000Y-107319000D01*
X197481000Y-105583432D01*
X197646054Y-105473147D01*
X197673850Y-105431548D01*
X197682838Y-105479317D01*
X197821910Y-105695441D01*
X198034110Y-105840431D01*
X198286000Y-105891440D01*
X199986000Y-105891440D01*
X200221317Y-105847162D01*
X200437441Y-105708090D01*
X200582431Y-105495890D01*
X200632243Y-105249911D01*
X200768484Y-105222810D01*
X200824675Y-105211633D01*
X201111790Y-105019790D01*
X202111797Y-104019782D01*
X202111800Y-104019780D01*
X202303643Y-103732665D01*
X202341171Y-103544000D01*
X202371011Y-103393990D01*
X202371010Y-103393985D01*
X202371010Y-101643683D01*
X202400461Y-101624005D01*
X205820402Y-98204063D01*
X207654582Y-97145099D01*
X207836233Y-96989094D01*
X207953866Y-96760592D01*
X207973332Y-96504327D01*
X207891562Y-96260679D01*
X207391562Y-95394653D01*
X207235557Y-95213002D01*
X207007055Y-95095369D01*
X206750790Y-95075904D01*
X206659897Y-95106408D01*
X207226898Y-94539407D01*
X207226901Y-94539405D01*
X207416947Y-94349358D01*
X209137638Y-93355918D01*
X210519457Y-95774102D01*
X210519457Y-95774102D01*
G37*
X210519457Y-95774102D02*
X208469962Y-96957378D01*
X208288311Y-97113383D01*
X208170678Y-97341885D01*
X208151212Y-97598150D01*
X208232982Y-97841798D01*
X208732982Y-98707824D01*
X208888987Y-98889475D01*
X209117489Y-99007108D01*
X209373754Y-99026573D01*
X209617402Y-98944804D01*
X209735872Y-98876405D01*
X209735872Y-99591982D01*
X209547055Y-99494779D01*
X209290790Y-99475314D01*
X209047142Y-99557083D01*
X206873418Y-100812083D01*
X206691767Y-100968088D01*
X206574134Y-101196590D01*
X206554668Y-101452855D01*
X206636438Y-101696503D01*
X206717814Y-101837450D01*
X206716357Y-101839631D01*
X206716357Y-101839632D01*
X206648989Y-102178306D01*
X206648990Y-102178311D01*
X206648990Y-110869431D01*
X205177520Y-112340900D01*
X205007093Y-112307000D01*
X204948907Y-112307000D01*
X204380622Y-112420039D01*
X203898853Y-112741946D01*
X203576946Y-113223715D01*
X203463907Y-113792000D01*
X203576946Y-114360285D01*
X203898853Y-114842054D01*
X203940452Y-114869850D01*
X203892683Y-114878838D01*
X203676559Y-115017910D01*
X203531569Y-115230110D01*
X203480560Y-115482000D01*
X203480560Y-117182000D01*
X203524838Y-117417317D01*
X203663910Y-117633441D01*
X203876110Y-117778431D01*
X204128000Y-117829440D01*
X205828000Y-117829440D01*
X206063317Y-117785162D01*
X206279441Y-117646090D01*
X206424431Y-117433890D01*
X206474243Y-117187911D01*
X206610484Y-117160810D01*
X206666675Y-117149633D01*
X206953790Y-116957790D01*
X209159787Y-114751792D01*
X209159790Y-114751790D01*
X209351633Y-114464675D01*
X209351979Y-114462937D01*
X209419001Y-114126000D01*
X209419000Y-114125995D01*
X209419000Y-106516042D01*
X209676438Y-106961938D01*
X209832443Y-107143589D01*
X210060945Y-107261222D01*
X210317210Y-107280687D01*
X210560858Y-107198918D01*
X212734582Y-105943918D01*
X212916233Y-105787913D01*
X213033866Y-105559411D01*
X213053332Y-105303146D01*
X212971562Y-105059498D01*
X212471562Y-104193472D01*
X212315557Y-104011821D01*
X212087055Y-103894188D01*
X211830790Y-103874723D01*
X211587142Y-103956492D01*
X209419000Y-105208269D01*
X209419000Y-103747927D01*
X210828888Y-102338039D01*
X211272982Y-103107233D01*
X211428987Y-103288884D01*
X211657489Y-103406517D01*
X211913754Y-103425982D01*
X212157402Y-103344213D01*
X214178459Y-102177355D01*
X215595683Y-104657497D01*
X202522799Y-128830000D01*
X196867082Y-128830000D01*
X197039441Y-128719090D01*
X197184431Y-128506890D01*
X197235440Y-128255000D01*
X197235440Y-125745000D01*
X197191162Y-125509683D01*
X197052090Y-125293559D01*
X196839890Y-125148569D01*
X196588000Y-125097560D01*
X196413021Y-125097560D01*
X196967787Y-124542793D01*
X196967790Y-124542791D01*
X197159633Y-124255676D01*
X197200943Y-124048000D01*
X197227001Y-123917001D01*
X197227000Y-123916996D01*
X197227000Y-121077432D01*
X197392054Y-120967147D01*
X197713961Y-120485378D01*
X197827000Y-119917093D01*
X197827000Y-119858907D01*
X197713961Y-119290622D01*
X197635368Y-119172999D01*
X200721997Y-119172999D01*
X200722002Y-119173000D01*
X201004486Y-119116809D01*
X201060677Y-119105632D01*
X201347792Y-118913789D01*
X201347793Y-118913788D01*
X201779788Y-118481792D01*
X201779791Y-118481790D01*
X201971634Y-118194675D01*
X201998397Y-118060129D01*
X202039002Y-117856000D01*
X202039001Y-117855995D01*
X202039001Y-110362579D01*
X203501349Y-108900231D01*
X203576946Y-109280285D01*
X203898853Y-109762054D01*
X204380622Y-110083961D01*
X204948907Y-110197000D01*
X205007093Y-110197000D01*
X205575378Y-110083961D01*
X206057147Y-109762054D01*
X206379054Y-109280285D01*
X206492093Y-108712000D01*
X206379054Y-108143715D01*
X206057147Y-107661946D01*
X205727974Y-107442000D01*
X206057147Y-107222054D01*
X206379054Y-106740285D01*
X206492093Y-106172000D01*
X206379054Y-105603715D01*
X206057147Y-105121946D01*
X205575378Y-104800039D01*
X205007093Y-104687000D01*
X204948907Y-104687000D01*
X204380622Y-104800039D01*
X203898853Y-105121946D01*
X203576946Y-105603715D01*
X203463907Y-106172000D01*
X203507461Y-106390960D01*
X201144010Y-108754410D01*
X199967810Y-107578210D01*
X199902402Y-107534506D01*
X199680695Y-107386367D01*
X199624504Y-107375190D01*
X199342020Y-107318999D01*
X199342015Y-107319000D01*
X197481000Y-107319000D01*
X197481000Y-105583432D01*
X197646054Y-105473147D01*
X197673850Y-105431548D01*
X197682838Y-105479317D01*
X197821910Y-105695441D01*
X198034110Y-105840431D01*
X198286000Y-105891440D01*
X199986000Y-105891440D01*
X200221317Y-105847162D01*
X200437441Y-105708090D01*
X200582431Y-105495890D01*
X200632243Y-105249911D01*
X200768484Y-105222810D01*
X200824675Y-105211633D01*
X201111790Y-105019790D01*
X202111797Y-104019782D01*
X202111800Y-104019780D01*
X202303643Y-103732665D01*
X202341171Y-103544000D01*
X202371011Y-103393990D01*
X202371010Y-103393985D01*
X202371010Y-101643683D01*
X202400461Y-101624005D01*
X205820402Y-98204063D01*
X207654582Y-97145099D01*
X207836233Y-96989094D01*
X207953866Y-96760592D01*
X207973332Y-96504327D01*
X207891562Y-96260679D01*
X207391562Y-95394653D01*
X207235557Y-95213002D01*
X207007055Y-95095369D01*
X206750790Y-95075904D01*
X206659897Y-95106408D01*
X207226898Y-94539407D01*
X207226901Y-94539405D01*
X207416947Y-94349358D01*
X209137638Y-93355918D01*
X210519457Y-95774102D01*
G36*
X207999046Y-91363383D02*
X205929962Y-92557969D01*
X205748311Y-92713974D01*
X205630678Y-92942476D01*
X205611212Y-93198741D01*
X205692982Y-93442389D01*
X205739751Y-93523396D01*
X200144491Y-99118655D01*
X199986000Y-99086560D01*
X198286000Y-99086560D01*
X198050683Y-99130838D01*
X197834559Y-99269910D01*
X197689569Y-99482110D01*
X197675914Y-99549541D01*
X197646054Y-99504853D01*
X197481000Y-99394568D01*
X197481000Y-97963432D01*
X197646054Y-97853147D01*
X197673850Y-97811548D01*
X197682838Y-97859317D01*
X197821910Y-98075441D01*
X198034110Y-98220431D01*
X198286000Y-98271440D01*
X199986000Y-98271440D01*
X200221317Y-98227162D01*
X200437441Y-98088090D01*
X200582431Y-97875890D01*
X200633440Y-97624000D01*
X200633440Y-95924000D01*
X200589162Y-95688683D01*
X200450090Y-95472559D01*
X200237890Y-95327569D01*
X200021000Y-95283648D01*
X200021000Y-94854580D01*
X201611102Y-93264477D01*
X201768206Y-93264477D01*
X202056438Y-93763710D01*
X202212443Y-93945361D01*
X202440945Y-94062994D01*
X202697210Y-94082459D01*
X202940858Y-94000690D01*
X205114582Y-92745690D01*
X205296233Y-92589685D01*
X205413866Y-92361183D01*
X205433332Y-92104918D01*
X205351562Y-91861270D01*
X204851562Y-90995244D01*
X204695557Y-90813593D01*
X204467055Y-90695960D01*
X204210790Y-90676495D01*
X203967142Y-90758264D01*
X202691984Y-91494477D01*
X201244528Y-91494477D01*
X201244523Y-91494476D01*
X200962039Y-91550667D01*
X200905848Y-91561844D01*
X200618733Y-91753687D01*
X200618731Y-91753690D01*
X198510210Y-93862210D01*
X198318367Y-94149325D01*
X198318367Y-94149326D01*
X198250999Y-94488000D01*
X198251000Y-94488005D01*
X198251000Y-95283146D01*
X198050683Y-95320838D01*
X197834559Y-95459910D01*
X197689569Y-95672110D01*
X197675914Y-95739541D01*
X197646054Y-95694853D01*
X197164285Y-95372946D01*
X196596000Y-95259907D01*
X196027715Y-95372946D01*
X195545946Y-95694853D01*
X195224039Y-96176622D01*
X195111000Y-96744907D01*
X195111000Y-96803093D01*
X195224039Y-97371378D01*
X195545946Y-97853147D01*
X195711000Y-97963432D01*
X195711000Y-99394568D01*
X195545946Y-99504853D01*
X195224039Y-99986622D01*
X195111000Y-100554907D01*
X195111000Y-100613093D01*
X195224039Y-101181378D01*
X195545946Y-101663147D01*
X195711000Y-101773432D01*
X195711000Y-103204568D01*
X195545946Y-103314853D01*
X195224039Y-103796622D01*
X195111000Y-104364907D01*
X195111000Y-104423093D01*
X195224039Y-104991378D01*
X195545946Y-105473147D01*
X195711000Y-105583432D01*
X195711000Y-108204000D01*
X195778367Y-108542675D01*
X195970210Y-108829790D01*
X196257325Y-109021633D01*
X196596000Y-109089000D01*
X198975440Y-109089000D01*
X200050928Y-110164487D01*
X199922700Y-110111242D01*
X199367735Y-110110758D01*
X198854828Y-110322687D01*
X198462066Y-110714764D01*
X198249242Y-111227300D01*
X198248874Y-111649547D01*
X197240210Y-112658210D01*
X197048367Y-112945325D01*
X197048367Y-112945326D01*
X196980999Y-113284000D01*
X196981000Y-113284005D01*
X196981000Y-114431000D01*
X191882579Y-114431000D01*
X191067263Y-113615683D01*
X191067263Y-111412263D01*
X190999896Y-111073588D01*
X190808053Y-110786473D01*
X190808050Y-110786471D01*
X188361790Y-108340210D01*
X188074675Y-108148367D01*
X188018484Y-108137190D01*
X187883440Y-108110327D01*
X187883440Y-107658000D01*
X187839162Y-107422683D01*
X187700090Y-107206559D01*
X187487890Y-107061569D01*
X187236000Y-107010560D01*
X185636000Y-107010560D01*
X185400683Y-107054838D01*
X185184559Y-107193910D01*
X185039569Y-107406110D01*
X185005773Y-107573000D01*
X182691089Y-107573000D01*
X182691084Y-107572999D01*
X182352410Y-107640366D01*
X182257138Y-107704025D01*
X182065294Y-107832210D01*
X182065292Y-107832213D01*
X180951777Y-108945728D01*
X180424470Y-108945268D01*
X179878473Y-109170869D01*
X179460371Y-109588242D01*
X179233817Y-110133844D01*
X179233302Y-110724614D01*
X179458903Y-111270611D01*
X179876276Y-111688713D01*
X180421878Y-111915267D01*
X181012648Y-111915782D01*
X181558645Y-111690181D01*
X181976747Y-111272808D01*
X182203301Y-110727206D01*
X182203763Y-110196900D01*
X183057663Y-109343000D01*
X185004554Y-109343000D01*
X185032838Y-109493317D01*
X185171910Y-109709441D01*
X185384110Y-109854431D01*
X185636000Y-109905440D01*
X187236000Y-109905440D01*
X187394110Y-109875690D01*
X189297263Y-111778842D01*
X189297263Y-113982258D01*
X189297262Y-113982263D01*
X189353453Y-114264747D01*
X189364630Y-114320938D01*
X189483184Y-114498367D01*
X189556473Y-114608053D01*
X190890208Y-115941787D01*
X190890210Y-115941790D01*
X191177325Y-116133633D01*
X191233516Y-116144810D01*
X191516000Y-116201001D01*
X191516005Y-116201000D01*
X197866000Y-116201000D01*
X198204675Y-116133633D01*
X198491790Y-115941790D01*
X198683633Y-115654675D01*
X198751000Y-115316000D01*
X198751000Y-115125992D01*
X198852764Y-115227934D01*
X199365300Y-115440758D01*
X199920265Y-115441242D01*
X200269001Y-115297147D01*
X200269001Y-117402999D01*
X196739925Y-117402999D01*
X196739920Y-117402998D01*
X196457436Y-117459189D01*
X196401245Y-117470366D01*
X196114130Y-117662209D01*
X196114128Y-117662212D01*
X195716210Y-118060129D01*
X195524367Y-118347244D01*
X195524367Y-118347245D01*
X195456999Y-118685919D01*
X195457000Y-118685924D01*
X195457000Y-118698568D01*
X195291946Y-118808853D01*
X194970039Y-119290622D01*
X194857000Y-119858907D01*
X194857000Y-119917093D01*
X194970039Y-120485378D01*
X195291946Y-120967147D01*
X195457000Y-121077432D01*
X195457000Y-123550422D01*
X194700210Y-124307211D01*
X194700208Y-124307214D01*
X194695440Y-124311982D01*
X194695440Y-122435000D01*
X194651162Y-122199683D01*
X194512090Y-121983559D01*
X194299890Y-121838569D01*
X194048000Y-121787560D01*
X193048000Y-121787560D01*
X192812683Y-121831838D01*
X192596559Y-121970910D01*
X192451569Y-122183110D01*
X192400560Y-122435000D01*
X192400560Y-124945000D01*
X192444838Y-125180317D01*
X192583910Y-125396441D01*
X192796110Y-125541431D01*
X193048000Y-125592440D01*
X193414981Y-125592440D01*
X192892421Y-126115000D01*
X192155440Y-126115000D01*
X192155440Y-125745000D01*
X192111162Y-125509683D01*
X191972090Y-125293559D01*
X191759890Y-125148569D01*
X191508000Y-125097560D01*
X190508000Y-125097560D01*
X190272683Y-125141838D01*
X190056559Y-125280910D01*
X189911569Y-125493110D01*
X189860560Y-125745000D01*
X189860560Y-126115000D01*
X189039577Y-126115000D01*
X187321000Y-124396422D01*
X187321000Y-122255446D01*
X187471317Y-122227162D01*
X187687441Y-122088090D01*
X187832431Y-121875890D01*
X187883440Y-121624000D01*
X187883440Y-120024000D01*
X187839162Y-119788683D01*
X187700090Y-119572559D01*
X187487890Y-119427569D01*
X187236000Y-119376560D01*
X185636000Y-119376560D01*
X185400683Y-119420838D01*
X185184559Y-119559910D01*
X185039569Y-119772110D01*
X184988560Y-120024000D01*
X184988560Y-121624000D01*
X185032838Y-121859317D01*
X185171910Y-122075441D01*
X185384110Y-122220431D01*
X185551000Y-122254227D01*
X185551000Y-124762997D01*
X185550999Y-124763002D01*
X185607190Y-125045486D01*
X185618367Y-125101677D01*
X185731956Y-125271676D01*
X185810210Y-125388792D01*
X188047206Y-127625787D01*
X188047208Y-127625790D01*
X188334323Y-127817633D01*
X188390514Y-127828810D01*
X188672998Y-127885001D01*
X188673003Y-127885000D01*
X189860560Y-127885000D01*
X189860560Y-128255000D01*
X189904838Y-128490317D01*
X190043910Y-128706441D01*
X190224745Y-128830000D01*
X175923353Y-128830000D01*
X162687000Y-105967208D01*
X162687000Y-104909657D01*
X164297347Y-102299784D01*
X164346794Y-102373787D01*
X165135117Y-103162109D01*
X165135117Y-107644338D01*
X165135116Y-107644343D01*
X165188901Y-107914732D01*
X165202484Y-107983018D01*
X165282635Y-108102973D01*
X165394327Y-108270133D01*
X166883801Y-109759606D01*
X166883801Y-110319367D01*
X166883800Y-110319372D01*
X166939991Y-110601856D01*
X166951168Y-110658047D01*
X167099612Y-110880210D01*
X167143011Y-110945162D01*
X171844999Y-115647149D01*
X171844999Y-117675996D01*
X171844998Y-117676001D01*
X171883247Y-117868286D01*
X171912366Y-118014676D01*
X172094994Y-118287999D01*
X172104209Y-118301791D01*
X172858207Y-119055788D01*
X172858209Y-119055791D01*
X173145324Y-119247634D01*
X173201515Y-119258811D01*
X173483999Y-119315002D01*
X173484004Y-119315001D01*
X174875996Y-119315001D01*
X174876001Y-119315002D01*
X175158485Y-119258811D01*
X175214676Y-119247634D01*
X175501791Y-119055791D01*
X175501792Y-119055790D01*
X178744333Y-115813248D01*
X178744336Y-115813246D01*
X178936179Y-115526131D01*
X178977977Y-115316000D01*
X179003547Y-115187456D01*
X179003546Y-115187451D01*
X179003546Y-108786086D01*
X185772911Y-102016720D01*
X186182000Y-102098093D01*
X186750285Y-101985054D01*
X187232054Y-101663147D01*
X187452000Y-101333974D01*
X187671946Y-101663147D01*
X188153715Y-101985054D01*
X188722000Y-102098093D01*
X189290285Y-101985054D01*
X189772054Y-101663147D01*
X190093961Y-101181378D01*
X190207000Y-100613093D01*
X190207000Y-100554907D01*
X190173100Y-100384480D01*
X191041786Y-99515793D01*
X191041789Y-99515791D01*
X191233632Y-99228676D01*
X191300999Y-98890001D01*
X191300999Y-91439583D01*
X193347538Y-89393043D01*
X193347541Y-89393041D01*
X193539384Y-89105926D01*
X193560320Y-89000674D01*
X193606752Y-88767251D01*
X193606751Y-88767246D01*
X193606751Y-88699461D01*
X193651002Y-88477001D01*
X193651001Y-88476996D01*
X193651001Y-85367000D01*
X195448560Y-85367000D01*
X195448560Y-87877000D01*
X195492838Y-88112317D01*
X195631910Y-88328441D01*
X195844110Y-88473431D01*
X196096000Y-88524440D01*
X197096000Y-88524440D01*
X197331317Y-88480162D01*
X197547441Y-88341090D01*
X197692431Y-88128890D01*
X197743440Y-87877000D01*
X197743440Y-85367000D01*
X197699162Y-85131683D01*
X197560090Y-84915559D01*
X197347890Y-84770569D01*
X197096000Y-84719560D01*
X196096000Y-84719560D01*
X195860683Y-84763838D01*
X195644559Y-84902910D01*
X195499569Y-85115110D01*
X195448560Y-85367000D01*
X193651001Y-85367000D01*
X193651001Y-85214440D01*
X194556000Y-85214440D01*
X194791317Y-85170162D01*
X195007441Y-85031090D01*
X195152431Y-84818890D01*
X195203440Y-84567000D01*
X195203440Y-82244000D01*
X202787970Y-82244000D01*
X207999046Y-91363383D01*
X207999046Y-91363383D01*
G37*
X207999046Y-91363383D02*
X205929962Y-92557969D01*
X205748311Y-92713974D01*
X205630678Y-92942476D01*
X205611212Y-93198741D01*
X205692982Y-93442389D01*
X205739751Y-93523396D01*
X200144491Y-99118655D01*
X199986000Y-99086560D01*
X198286000Y-99086560D01*
X198050683Y-99130838D01*
X197834559Y-99269910D01*
X197689569Y-99482110D01*
X197675914Y-99549541D01*
X197646054Y-99504853D01*
X197481000Y-99394568D01*
X197481000Y-97963432D01*
X197646054Y-97853147D01*
X197673850Y-97811548D01*
X197682838Y-97859317D01*
X197821910Y-98075441D01*
X198034110Y-98220431D01*
X198286000Y-98271440D01*
X199986000Y-98271440D01*
X200221317Y-98227162D01*
X200437441Y-98088090D01*
X200582431Y-97875890D01*
X200633440Y-97624000D01*
X200633440Y-95924000D01*
X200589162Y-95688683D01*
X200450090Y-95472559D01*
X200237890Y-95327569D01*
X200021000Y-95283648D01*
X200021000Y-94854580D01*
X201611102Y-93264477D01*
X201768206Y-93264477D01*
X202056438Y-93763710D01*
X202212443Y-93945361D01*
X202440945Y-94062994D01*
X202697210Y-94082459D01*
X202940858Y-94000690D01*
X205114582Y-92745690D01*
X205296233Y-92589685D01*
X205413866Y-92361183D01*
X205433332Y-92104918D01*
X205351562Y-91861270D01*
X204851562Y-90995244D01*
X204695557Y-90813593D01*
X204467055Y-90695960D01*
X204210790Y-90676495D01*
X203967142Y-90758264D01*
X202691984Y-91494477D01*
X201244528Y-91494477D01*
X201244523Y-91494476D01*
X200962039Y-91550667D01*
X200905848Y-91561844D01*
X200618733Y-91753687D01*
X200618731Y-91753690D01*
X198510210Y-93862210D01*
X198318367Y-94149325D01*
X198318367Y-94149326D01*
X198250999Y-94488000D01*
X198251000Y-94488005D01*
X198251000Y-95283146D01*
X198050683Y-95320838D01*
X197834559Y-95459910D01*
X197689569Y-95672110D01*
X197675914Y-95739541D01*
X197646054Y-95694853D01*
X197164285Y-95372946D01*
X196596000Y-95259907D01*
X196027715Y-95372946D01*
X195545946Y-95694853D01*
X195224039Y-96176622D01*
X195111000Y-96744907D01*
X195111000Y-96803093D01*
X195224039Y-97371378D01*
X195545946Y-97853147D01*
X195711000Y-97963432D01*
X195711000Y-99394568D01*
X195545946Y-99504853D01*
X195224039Y-99986622D01*
X195111000Y-100554907D01*
X195111000Y-100613093D01*
X195224039Y-101181378D01*
X195545946Y-101663147D01*
X195711000Y-101773432D01*
X195711000Y-103204568D01*
X195545946Y-103314853D01*
X195224039Y-103796622D01*
X195111000Y-104364907D01*
X195111000Y-104423093D01*
X195224039Y-104991378D01*
X195545946Y-105473147D01*
X195711000Y-105583432D01*
X195711000Y-108204000D01*
X195778367Y-108542675D01*
X195970210Y-108829790D01*
X196257325Y-109021633D01*
X196596000Y-109089000D01*
X198975440Y-109089000D01*
X200050928Y-110164487D01*
X199922700Y-110111242D01*
X199367735Y-110110758D01*
X198854828Y-110322687D01*
X198462066Y-110714764D01*
X198249242Y-111227300D01*
X198248874Y-111649547D01*
X197240210Y-112658210D01*
X197048367Y-112945325D01*
X197048367Y-112945326D01*
X196980999Y-113284000D01*
X196981000Y-113284005D01*
X196981000Y-114431000D01*
X191882579Y-114431000D01*
X191067263Y-113615683D01*
X191067263Y-111412263D01*
X190999896Y-111073588D01*
X190808053Y-110786473D01*
X190808050Y-110786471D01*
X188361790Y-108340210D01*
X188074675Y-108148367D01*
X188018484Y-108137190D01*
X187883440Y-108110327D01*
X187883440Y-107658000D01*
X187839162Y-107422683D01*
X187700090Y-107206559D01*
X187487890Y-107061569D01*
X187236000Y-107010560D01*
X185636000Y-107010560D01*
X185400683Y-107054838D01*
X185184559Y-107193910D01*
X185039569Y-107406110D01*
X185005773Y-107573000D01*
X182691089Y-107573000D01*
X182691084Y-107572999D01*
X182352410Y-107640366D01*
X182257138Y-107704025D01*
X182065294Y-107832210D01*
X182065292Y-107832213D01*
X180951777Y-108945728D01*
X180424470Y-108945268D01*
X179878473Y-109170869D01*
X179460371Y-109588242D01*
X179233817Y-110133844D01*
X179233302Y-110724614D01*
X179458903Y-111270611D01*
X179876276Y-111688713D01*
X180421878Y-111915267D01*
X181012648Y-111915782D01*
X181558645Y-111690181D01*
X181976747Y-111272808D01*
X182203301Y-110727206D01*
X182203763Y-110196900D01*
X183057663Y-109343000D01*
X185004554Y-109343000D01*
X185032838Y-109493317D01*
X185171910Y-109709441D01*
X185384110Y-109854431D01*
X185636000Y-109905440D01*
X187236000Y-109905440D01*
X187394110Y-109875690D01*
X189297263Y-111778842D01*
X189297263Y-113982258D01*
X189297262Y-113982263D01*
X189353453Y-114264747D01*
X189364630Y-114320938D01*
X189483184Y-114498367D01*
X189556473Y-114608053D01*
X190890208Y-115941787D01*
X190890210Y-115941790D01*
X191177325Y-116133633D01*
X191233516Y-116144810D01*
X191516000Y-116201001D01*
X191516005Y-116201000D01*
X197866000Y-116201000D01*
X198204675Y-116133633D01*
X198491790Y-115941790D01*
X198683633Y-115654675D01*
X198751000Y-115316000D01*
X198751000Y-115125992D01*
X198852764Y-115227934D01*
X199365300Y-115440758D01*
X199920265Y-115441242D01*
X200269001Y-115297147D01*
X200269001Y-117402999D01*
X196739925Y-117402999D01*
X196739920Y-117402998D01*
X196457436Y-117459189D01*
X196401245Y-117470366D01*
X196114130Y-117662209D01*
X196114128Y-117662212D01*
X195716210Y-118060129D01*
X195524367Y-118347244D01*
X195524367Y-118347245D01*
X195456999Y-118685919D01*
X195457000Y-118685924D01*
X195457000Y-118698568D01*
X195291946Y-118808853D01*
X194970039Y-119290622D01*
X194857000Y-119858907D01*
X194857000Y-119917093D01*
X194970039Y-120485378D01*
X195291946Y-120967147D01*
X195457000Y-121077432D01*
X195457000Y-123550422D01*
X194700210Y-124307211D01*
X194700208Y-124307214D01*
X194695440Y-124311982D01*
X194695440Y-122435000D01*
X194651162Y-122199683D01*
X194512090Y-121983559D01*
X194299890Y-121838569D01*
X194048000Y-121787560D01*
X193048000Y-121787560D01*
X192812683Y-121831838D01*
X192596559Y-121970910D01*
X192451569Y-122183110D01*
X192400560Y-122435000D01*
X192400560Y-124945000D01*
X192444838Y-125180317D01*
X192583910Y-125396441D01*
X192796110Y-125541431D01*
X193048000Y-125592440D01*
X193414981Y-125592440D01*
X192892421Y-126115000D01*
X192155440Y-126115000D01*
X192155440Y-125745000D01*
X192111162Y-125509683D01*
X191972090Y-125293559D01*
X191759890Y-125148569D01*
X191508000Y-125097560D01*
X190508000Y-125097560D01*
X190272683Y-125141838D01*
X190056559Y-125280910D01*
X189911569Y-125493110D01*
X189860560Y-125745000D01*
X189860560Y-126115000D01*
X189039577Y-126115000D01*
X187321000Y-124396422D01*
X187321000Y-122255446D01*
X187471317Y-122227162D01*
X187687441Y-122088090D01*
X187832431Y-121875890D01*
X187883440Y-121624000D01*
X187883440Y-120024000D01*
X187839162Y-119788683D01*
X187700090Y-119572559D01*
X187487890Y-119427569D01*
X187236000Y-119376560D01*
X185636000Y-119376560D01*
X185400683Y-119420838D01*
X185184559Y-119559910D01*
X185039569Y-119772110D01*
X184988560Y-120024000D01*
X184988560Y-121624000D01*
X185032838Y-121859317D01*
X185171910Y-122075441D01*
X185384110Y-122220431D01*
X185551000Y-122254227D01*
X185551000Y-124762997D01*
X185550999Y-124763002D01*
X185607190Y-125045486D01*
X185618367Y-125101677D01*
X185731956Y-125271676D01*
X185810210Y-125388792D01*
X188047206Y-127625787D01*
X188047208Y-127625790D01*
X188334323Y-127817633D01*
X188390514Y-127828810D01*
X188672998Y-127885001D01*
X188673003Y-127885000D01*
X189860560Y-127885000D01*
X189860560Y-128255000D01*
X189904838Y-128490317D01*
X190043910Y-128706441D01*
X190224745Y-128830000D01*
X175923353Y-128830000D01*
X162687000Y-105967208D01*
X162687000Y-104909657D01*
X164297347Y-102299784D01*
X164346794Y-102373787D01*
X165135117Y-103162109D01*
X165135117Y-107644338D01*
X165135116Y-107644343D01*
X165188901Y-107914732D01*
X165202484Y-107983018D01*
X165282635Y-108102973D01*
X165394327Y-108270133D01*
X166883801Y-109759606D01*
X166883801Y-110319367D01*
X166883800Y-110319372D01*
X166939991Y-110601856D01*
X166951168Y-110658047D01*
X167099612Y-110880210D01*
X167143011Y-110945162D01*
X171844999Y-115647149D01*
X171844999Y-117675996D01*
X171844998Y-117676001D01*
X171883247Y-117868286D01*
X171912366Y-118014676D01*
X172094994Y-118287999D01*
X172104209Y-118301791D01*
X172858207Y-119055788D01*
X172858209Y-119055791D01*
X173145324Y-119247634D01*
X173201515Y-119258811D01*
X173483999Y-119315002D01*
X173484004Y-119315001D01*
X174875996Y-119315001D01*
X174876001Y-119315002D01*
X175158485Y-119258811D01*
X175214676Y-119247634D01*
X175501791Y-119055791D01*
X175501792Y-119055790D01*
X178744333Y-115813248D01*
X178744336Y-115813246D01*
X178936179Y-115526131D01*
X178977977Y-115316000D01*
X179003547Y-115187456D01*
X179003546Y-115187451D01*
X179003546Y-108786086D01*
X185772911Y-102016720D01*
X186182000Y-102098093D01*
X186750285Y-101985054D01*
X187232054Y-101663147D01*
X187452000Y-101333974D01*
X187671946Y-101663147D01*
X188153715Y-101985054D01*
X188722000Y-102098093D01*
X189290285Y-101985054D01*
X189772054Y-101663147D01*
X190093961Y-101181378D01*
X190207000Y-100613093D01*
X190207000Y-100554907D01*
X190173100Y-100384480D01*
X191041786Y-99515793D01*
X191041789Y-99515791D01*
X191233632Y-99228676D01*
X191300999Y-98890001D01*
X191300999Y-91439583D01*
X193347538Y-89393043D01*
X193347541Y-89393041D01*
X193539384Y-89105926D01*
X193560320Y-89000674D01*
X193606752Y-88767251D01*
X193606751Y-88767246D01*
X193606751Y-88699461D01*
X193651002Y-88477001D01*
X193651001Y-88476996D01*
X193651001Y-85367000D01*
X195448560Y-85367000D01*
X195448560Y-87877000D01*
X195492838Y-88112317D01*
X195631910Y-88328441D01*
X195844110Y-88473431D01*
X196096000Y-88524440D01*
X197096000Y-88524440D01*
X197331317Y-88480162D01*
X197547441Y-88341090D01*
X197692431Y-88128890D01*
X197743440Y-87877000D01*
X197743440Y-85367000D01*
X197699162Y-85131683D01*
X197560090Y-84915559D01*
X197347890Y-84770569D01*
X197096000Y-84719560D01*
X196096000Y-84719560D01*
X195860683Y-84763838D01*
X195644559Y-84902910D01*
X195499569Y-85115110D01*
X195448560Y-85367000D01*
X193651001Y-85367000D01*
X193651001Y-85214440D01*
X194556000Y-85214440D01*
X194791317Y-85170162D01*
X195007441Y-85031090D01*
X195152431Y-84818890D01*
X195203440Y-84567000D01*
X195203440Y-82244000D01*
X202787970Y-82244000D01*
X207999046Y-91363383D01*
G36*
X182591946Y-99123147D02*
X182877578Y-99314000D01*
X182591946Y-99504853D01*
X182270039Y-99986622D01*
X182157000Y-100554907D01*
X182157000Y-100613093D01*
X182190900Y-100783520D01*
X182166211Y-100808209D01*
X181974368Y-101095324D01*
X181969021Y-101122207D01*
X181907000Y-101433999D01*
X181907001Y-101434004D01*
X181907001Y-101965243D01*
X178776113Y-105096130D01*
X178569216Y-104595401D01*
X178194560Y-104220091D01*
X178194560Y-101000939D01*
X180064178Y-99131320D01*
X180533715Y-99445054D01*
X181102000Y-99558093D01*
X181670285Y-99445054D01*
X182152054Y-99123147D01*
X182372000Y-98793974D01*
X182591946Y-99123147D01*
X182591946Y-99123147D01*
G37*
X182591946Y-99123147D02*
X182877578Y-99314000D01*
X182591946Y-99504853D01*
X182270039Y-99986622D01*
X182157000Y-100554907D01*
X182157000Y-100613093D01*
X182190900Y-100783520D01*
X182166211Y-100808209D01*
X181974368Y-101095324D01*
X181969021Y-101122207D01*
X181907000Y-101433999D01*
X181907001Y-101434004D01*
X181907001Y-101965243D01*
X178776113Y-105096130D01*
X178569216Y-104595401D01*
X178194560Y-104220091D01*
X178194560Y-101000939D01*
X180064178Y-99131320D01*
X180533715Y-99445054D01*
X181102000Y-99558093D01*
X181670285Y-99445054D01*
X182152054Y-99123147D01*
X182372000Y-98793974D01*
X182591946Y-99123147D01*
M02*
