G04 #@! TF.FileFunction,Copper,L2,Bot,Signal*
%FSLAX46Y46*%
G04 Gerber Fmt 4.6, Leading zero omitted, Abs format (unit mm)*
G04 Created by KiCad (PCBNEW 4.0.7-e2-6376~58~ubuntu14.04.1) date Fri Apr 12 08:44:57 2019*
%MOMM*%
%LPD*%
G01*
G04 APERTURE LIST*
%ADD10C,0.100000*%
%ADD11R,1.700000X1.700000*%
%ADD12O,1.700000X1.700000*%
%ADD13R,1.000000X2.510000*%
%ADD14R,1.600000X1.600000*%
%ADD15C,1.600000*%
%ADD16C,1.400000*%
%ADD17O,1.400000X1.400000*%
%ADD18R,1.800000X1.800000*%
%ADD19C,1.800000*%
%ADD20C,1.520000*%
%ADD21R,1.520000X1.520000*%
%ADD22C,1.700000*%
%ADD23C,0.500000*%
G04 APERTURE END LIST*
D10*
G36*
X165722594Y-101437331D02*
X166222594Y-100571305D01*
X168396318Y-101826305D01*
X167896318Y-102692331D01*
X165722594Y-101437331D01*
X165722594Y-101437331D01*
G37*
G36*
X168262594Y-97037922D02*
X168762594Y-96171896D01*
X170936318Y-97426896D01*
X170436318Y-98292922D01*
X168262594Y-97037922D01*
X168262594Y-97037922D01*
G37*
G36*
X170802594Y-92638513D02*
X171302594Y-91772487D01*
X173476318Y-93027487D01*
X172976318Y-93893513D01*
X170802594Y-92638513D01*
X170802594Y-92638513D01*
G37*
G36*
X167319138Y-105292035D02*
X167819138Y-104426009D01*
X169992862Y-105681009D01*
X169492862Y-106547035D01*
X167319138Y-105292035D01*
X167319138Y-105292035D01*
G37*
G36*
X169859138Y-100892626D02*
X170359138Y-100026600D01*
X172532862Y-101281600D01*
X172032862Y-102147626D01*
X169859138Y-100892626D01*
X169859138Y-100892626D01*
G37*
G36*
X172399138Y-96493217D02*
X172899138Y-95627191D01*
X175072862Y-96882191D01*
X174572862Y-97748217D01*
X172399138Y-96493217D01*
X172399138Y-96493217D01*
G37*
D11*
X200152000Y-100584000D03*
D12*
X197612000Y-100584000D03*
X195072000Y-100584000D03*
D11*
X202692000Y-119888000D03*
D12*
X202692000Y-117348000D03*
X202692000Y-114808000D03*
X202692000Y-112268000D03*
X202692000Y-109728000D03*
D10*
G36*
X208427406Y-91863669D02*
X208927406Y-92729695D01*
X206753682Y-93984695D01*
X206253682Y-93118669D01*
X208427406Y-91863669D01*
X208427406Y-91863669D01*
G37*
G36*
X210967406Y-96263078D02*
X211467406Y-97129104D01*
X209293682Y-98384104D01*
X208793682Y-97518078D01*
X210967406Y-96263078D01*
X210967406Y-96263078D01*
G37*
G36*
X213507406Y-100662487D02*
X214007406Y-101528513D01*
X211833682Y-102783513D01*
X211333682Y-101917487D01*
X213507406Y-100662487D01*
X213507406Y-100662487D01*
G37*
G36*
X204290862Y-91318964D02*
X204790862Y-92184990D01*
X202617138Y-93439990D01*
X202117138Y-92573964D01*
X204290862Y-91318964D01*
X204290862Y-91318964D01*
G37*
G36*
X206830862Y-95718373D02*
X207330862Y-96584399D01*
X205157138Y-97839399D01*
X204657138Y-96973373D01*
X206830862Y-95718373D01*
X206830862Y-95718373D01*
G37*
G36*
X209370862Y-100117783D02*
X209870862Y-100983809D01*
X207697138Y-102238809D01*
X207197138Y-101372783D01*
X209370862Y-100117783D01*
X209370862Y-100117783D01*
G37*
G36*
X211910862Y-104517192D02*
X212410862Y-105383218D01*
X210237138Y-106638218D01*
X209737138Y-105772192D01*
X211910862Y-104517192D01*
X211910862Y-104517192D01*
G37*
D13*
X196088000Y-127000000D03*
X191008000Y-127000000D03*
X193548000Y-123690000D03*
X188468000Y-123690000D03*
D14*
X186436000Y-108458000D03*
D15*
X186436000Y-113458000D03*
D16*
X181800000Y-116980000D03*
D17*
X174180000Y-116980000D03*
D18*
X174250000Y-111920000D03*
D19*
X171710000Y-111920000D03*
D14*
X186436000Y-120824000D03*
D15*
X186436000Y-115824000D03*
D11*
X200152000Y-96774000D03*
D12*
X197612000Y-96774000D03*
X195072000Y-96774000D03*
D13*
X196596000Y-86622000D03*
X191516000Y-86622000D03*
X186436000Y-86622000D03*
X181356000Y-86622000D03*
X194056000Y-83312000D03*
X188976000Y-83312000D03*
X183896000Y-83312000D03*
X178816000Y-83312000D03*
D11*
X200152000Y-104394000D03*
D12*
X197612000Y-104394000D03*
X195072000Y-104394000D03*
D11*
X178562000Y-100584000D03*
D12*
X178562000Y-98044000D03*
X181102000Y-100584000D03*
X181102000Y-98044000D03*
X183642000Y-100584000D03*
X183642000Y-98044000D03*
X186182000Y-100584000D03*
X186182000Y-98044000D03*
D11*
X198882000Y-119888000D03*
D12*
X196342000Y-119888000D03*
D20*
X194818000Y-111252000D03*
X194818000Y-108712000D03*
D21*
X194818000Y-113792000D03*
D22*
X193891381Y-116853535D03*
X183969888Y-105660538D03*
X179084217Y-103819967D03*
X199192691Y-116819169D03*
X176667237Y-106342192D03*
X180992371Y-110704338D03*
D23*
X200152000Y-96774000D02*
X200152000Y-95424000D01*
X200152000Y-95424000D02*
X203196523Y-92379477D01*
X203196523Y-92379477D02*
X203454000Y-92379477D01*
X194818000Y-108712000D02*
X194818000Y-107188000D01*
X194818000Y-107188000D02*
X197612000Y-104394000D01*
X202692000Y-109728000D02*
X201489919Y-109728000D01*
X201489919Y-109728000D02*
X200981919Y-110236000D01*
X200981919Y-110236000D02*
X196342000Y-110236000D01*
X196342000Y-119888000D02*
X196342000Y-110236000D01*
X196342000Y-110236000D02*
X194818000Y-108712000D01*
X197612000Y-100584000D02*
X197612000Y-96774000D01*
X197612000Y-104394000D02*
X197612000Y-100584000D01*
X195326000Y-124933001D02*
X193313999Y-126945002D01*
X196342000Y-119888000D02*
X196342000Y-123917001D01*
X196342000Y-123917001D02*
X195326000Y-124933001D01*
X193313999Y-126945002D02*
X193313999Y-127000000D01*
X193313999Y-127000000D02*
X191008000Y-127000000D01*
X186436000Y-120824000D02*
X186436000Y-124763002D01*
X186436000Y-124763002D02*
X188672998Y-127000000D01*
X188672998Y-127000000D02*
X190008000Y-127000000D01*
X190008000Y-127000000D02*
X191008000Y-127000000D01*
X181963376Y-113966000D02*
X181800000Y-114129376D01*
X181800000Y-114129376D02*
X181800000Y-116980000D01*
X186436000Y-113966000D02*
X181963376Y-113966000D01*
X181963376Y-113966000D02*
X179118557Y-111121181D01*
X179118557Y-110315396D02*
X182753953Y-106680000D01*
X179118557Y-111121181D02*
X179118557Y-110315396D01*
X182753953Y-106680000D02*
X182950426Y-106680000D01*
X182950426Y-106680000D02*
X183969888Y-105660538D01*
X192689300Y-116853535D02*
X193891381Y-116853535D01*
X189470465Y-116853535D02*
X192689300Y-116853535D01*
X188468000Y-117856000D02*
X189470465Y-116853535D01*
X192789462Y-105660538D02*
X192532000Y-105660538D01*
X192789462Y-105918000D02*
X192532000Y-105660538D01*
X192532000Y-105660538D02*
X185171969Y-105660538D01*
X194818000Y-111252000D02*
X192789462Y-109223462D01*
X192789462Y-109223462D02*
X192789462Y-105918000D01*
X185171969Y-105660538D02*
X183969888Y-105660538D01*
X193206001Y-105243999D02*
X192789462Y-105660538D01*
X178562000Y-100584000D02*
X178562000Y-103297750D01*
X179144491Y-103880241D02*
X179084217Y-103819967D01*
X179155759Y-103880241D02*
X179144491Y-103880241D01*
X178562000Y-103297750D02*
X179084217Y-103819967D01*
X195072000Y-104394000D02*
X194222001Y-105243999D01*
X194222001Y-105243999D02*
X193206001Y-105243999D01*
X195072000Y-100584000D02*
X195072000Y-104394000D01*
X195072000Y-96774000D02*
X195072000Y-100584000D01*
X198882000Y-117129860D02*
X199192691Y-116819169D01*
X199992690Y-116019170D02*
X199192691Y-116819169D01*
X201203860Y-114808000D02*
X199992690Y-116019170D01*
X202692000Y-114808000D02*
X201203860Y-114808000D01*
X198882000Y-119888000D02*
X198882000Y-117129860D01*
X192786000Y-105664000D02*
X193206001Y-105243999D01*
X188468000Y-123690000D02*
X188468000Y-117856000D01*
X188468000Y-122935000D02*
X188468000Y-123690000D01*
X186436000Y-115824000D02*
X186436000Y-113458000D01*
X188468000Y-117856000D02*
X186436000Y-115824000D01*
X174250000Y-111920000D02*
X174250000Y-116910000D01*
X174250000Y-116910000D02*
X174180000Y-116980000D01*
X174180000Y-111990000D02*
X174250000Y-111920000D01*
X168656000Y-105486522D02*
X171710000Y-108540522D01*
X171710000Y-108540522D02*
X171710000Y-111920000D01*
X200152000Y-100584000D02*
X200152000Y-100362726D01*
X200152000Y-100362726D02*
X207590544Y-92924182D01*
X200486000Y-100584000D02*
X200736001Y-100333999D01*
X206601111Y-93913615D02*
X207590544Y-92924182D01*
X200152000Y-104394000D02*
X201502000Y-104394000D01*
X201502000Y-104394000D02*
X205994000Y-99902000D01*
X205994000Y-99902000D02*
X205994000Y-97456236D01*
X205994000Y-97456236D02*
X205994000Y-96778886D01*
X173683384Y-108255746D02*
X168048889Y-102621251D01*
X168048889Y-102621251D02*
X167059456Y-101631818D01*
X181102000Y-100584000D02*
X181102000Y-104170186D01*
X181102000Y-104170186D02*
X177016440Y-108255746D01*
X177016440Y-108255746D02*
X173683384Y-108255746D01*
X169599456Y-97232409D02*
X170958573Y-97232409D01*
X174575755Y-98806000D02*
X175961988Y-97419767D01*
X175961988Y-96861781D02*
X177477265Y-95346504D01*
X170958573Y-97232409D02*
X172532164Y-98806000D01*
X172532164Y-98806000D02*
X174575755Y-98806000D01*
X175961988Y-97419767D02*
X175961988Y-96861781D01*
X177477265Y-95346504D02*
X180944504Y-95346504D01*
X180944504Y-95346504D02*
X183642000Y-98044000D01*
X188722000Y-100584000D02*
X186182000Y-100584000D01*
X188722000Y-100584000D02*
X190415999Y-98890001D01*
X192766001Y-88477001D02*
X192766001Y-84766999D01*
X177691749Y-92731955D02*
X173736000Y-96687704D01*
X190415999Y-98890001D02*
X190415999Y-91073003D01*
X190415999Y-91073003D02*
X192721751Y-88767251D01*
X190265999Y-85703774D02*
X183237818Y-92731955D01*
X192721751Y-88767251D02*
X192721751Y-88521251D01*
X192721751Y-88521251D02*
X192766001Y-88477001D01*
X192766001Y-84766999D02*
X192616001Y-84616999D01*
X192616001Y-84616999D02*
X190415999Y-84616999D01*
X190415999Y-84616999D02*
X190265999Y-84766999D01*
X190265999Y-84766999D02*
X190265999Y-85703774D01*
X183237818Y-92731955D02*
X177691749Y-92731955D01*
X183642000Y-103044415D02*
X180301953Y-106384462D01*
X164972584Y-101747997D02*
X164972584Y-100666607D01*
X171039456Y-92833000D02*
X172139456Y-92833000D01*
X180301953Y-107717771D02*
X178118546Y-109901178D01*
X178118546Y-109901178D02*
X178118546Y-115187456D01*
X174876001Y-118430001D02*
X173483999Y-118430001D01*
X172729999Y-115280570D02*
X167768801Y-110319372D01*
X178118546Y-115187456D02*
X174876001Y-118430001D01*
X166020117Y-102795530D02*
X164972584Y-101747997D01*
X167768801Y-110319372D02*
X167768801Y-109393027D01*
X180301953Y-106384462D02*
X180301953Y-107717771D01*
X166020117Y-107644343D02*
X166020117Y-102795530D01*
X167512584Y-98126607D02*
X167512584Y-96359872D01*
X173483999Y-118430001D02*
X172729999Y-117676001D01*
X172729999Y-117676001D02*
X172729999Y-115280570D01*
X183642000Y-100584000D02*
X183642000Y-103044415D01*
X167512584Y-96359872D02*
X171039456Y-92833000D01*
X164972584Y-100666607D02*
X167512584Y-98126607D01*
X167768801Y-109393027D02*
X166020117Y-107644343D01*
X188722000Y-95504000D02*
X188722000Y-88662000D01*
X186182000Y-98044000D02*
X187031999Y-97194001D01*
X187031999Y-97194001D02*
X188722000Y-95504000D01*
X190516000Y-86868000D02*
X191516000Y-86868000D01*
X188722000Y-88662000D02*
X190516000Y-86868000D01*
X186436000Y-108458000D02*
X189484000Y-108458000D01*
X189484000Y-108458000D02*
X194818000Y-113792000D01*
X176667237Y-105140111D02*
X176667237Y-106342192D01*
X176667237Y-99542971D02*
X176667237Y-105140111D01*
X177316209Y-98893999D02*
X176667237Y-99542971D01*
X177712001Y-98893999D02*
X177316209Y-98893999D01*
X178562000Y-98044000D02*
X177712001Y-98893999D01*
X186436000Y-108458000D02*
X183238709Y-108458000D01*
X181842370Y-109854339D02*
X180992371Y-110704338D01*
X183238709Y-108458000D02*
X181842370Y-109854339D01*
X186436000Y-108458000D02*
X183193833Y-108458000D01*
X212670544Y-101723000D02*
X210315317Y-99367773D01*
X210315317Y-99367773D02*
X208141472Y-99367773D01*
X208141472Y-99367773D02*
X206447128Y-101062117D01*
X206447128Y-101062117D02*
X206447128Y-113592872D01*
X206447128Y-113592872D02*
X202692000Y-117348000D01*
X208534000Y-101178296D02*
X208534000Y-113945298D01*
X208534000Y-113945298D02*
X202692000Y-119787298D01*
X202692000Y-119787298D02*
X202692000Y-119888000D01*
X180252001Y-97194001D02*
X181102000Y-98044000D01*
X176961999Y-97275999D02*
X177793999Y-96443999D01*
X176961999Y-97833985D02*
X176961999Y-97275999D01*
X173708871Y-101087113D02*
X176961999Y-97833985D01*
X179501999Y-96443999D02*
X180252001Y-97194001D01*
X171196000Y-101087113D02*
X173708871Y-101087113D01*
X177793999Y-96443999D02*
X179501999Y-96443999D01*
M02*
