M48
METRIC,TZ
T1C0.700
T2C0.800
T3C0.900
T4C1.000
%
G90
G05
T1
X174.18Y-116.98
X181.8Y-116.98
T2
X186.436Y-108.458
X186.436Y-113.458
X186.436Y-115.824
X186.436Y-120.824
X194.818Y-108.712
X194.818Y-111.252
X194.818Y-113.792
T3
X171.71Y-111.92
X174.25Y-111.92
T4
X176.667Y-106.342
X178.562Y-98.044
X178.562Y-100.584
X179.084Y-103.82
X180.992Y-110.704
X181.102Y-98.044
X181.102Y-100.584
X183.642Y-98.044
X183.642Y-100.584
X183.97Y-105.661
X186.182Y-98.044
X186.182Y-100.584
X193.891Y-116.854
X195.072Y-96.774
X195.072Y-100.584
X195.072Y-104.394
X196.342Y-119.888
X197.612Y-96.774
X197.612Y-100.584
X197.612Y-104.394
X198.882Y-119.888
X199.193Y-116.819
X200.152Y-96.774
X200.152Y-100.584
X200.152Y-104.394
X202.692Y-109.728
X202.692Y-112.268
X202.692Y-114.808
X202.692Y-117.348
X202.692Y-119.888
T0
M30
